<svg width="500" height="263" viewBox="0 0 500 263" fill="none" xmlns="http://www.w3.org/2000/svg">
<g clip-path="url(#clip0_3_9663)">
<rect width="500" height="263" fill="#222222"/>
<path d="M250.065 138.044C253.719 138.044 256.681 135.098 256.681 131.466C256.681 127.833 253.719 124.888 250.065 124.888C246.411 124.888 243.449 127.833 243.449 131.466C243.449 135.098 246.411 138.044 250.065 138.044Z" fill="#139FCD"/>
<path d="M250.065 144.942C269.671 144.942 285.565 138.909 285.565 131.466C285.565 124.023 269.671 117.989 250.065 117.989C230.459 117.989 214.565 124.023 214.565 131.466C214.565 138.909 230.459 144.942 250.065 144.942Z" stroke="#139FCD" stroke-width="3"/>
<path d="M238.327 138.204C248.13 155.086 261.332 165.755 267.815 162.033C274.298 158.312 271.607 141.609 261.804 124.727C252.001 107.845 238.798 97.1764 232.315 100.898C225.832 104.619 228.524 121.322 238.327 138.204Z" stroke="#139FCD" stroke-width="3"/>
<path d="M238.327 124.727C228.524 141.609 225.832 158.312 232.315 162.033C238.798 165.755 252.001 155.086 261.804 138.204C271.607 121.322 274.298 104.619 267.815 100.898C261.332 97.1764 248.13 107.845 238.327 124.727Z" stroke="#139FCD" stroke-width="3"/>
</g>
<defs>
<clipPath id="clip0_3_9663">
<rect width="500" height="263" fill="white"/>
</clipPath>
</defs>
</svg>
