<svg width="608" height="435" viewBox="0 0 608 435" fill="none" xmlns="http://www.w3.org/2000/svg">
<path d="M460 207V198.514H462V207H460ZM445 183.514H391V181.514H445V183.514ZM460 198.514C460 190.23 453.284 183.514 445 183.514V181.514C454.389 181.514 462 189.125 462 198.514H460Z" fill="#4E5769"/>
<path d="M391 182.514V183.514H392V182.514H391ZM322 207V198.514H320V207H322ZM337 183.514H391V181.514H337V183.514ZM392 182.514V157H390V182.514H392ZM322 198.514C322 190.23 328.716 183.514 337 183.514V181.514C327.611 181.514 320 189.125 320 198.514H322Z" fill="#4E5769"/>
<path d="M530 381V372.024H532V381H530ZM515 357.024H461V355.024H515V357.024ZM530 372.024C530 363.74 523.284 357.024 515 357.024V355.024C524.389 355.024 532 362.636 532 372.024H530Z" fill="#4E5769"/>
<path d="M461 356.024V357.024H462V356.024H461ZM392 381V372.024H390V381H392ZM407 357.024H461V355.024H407V357.024ZM462 356.024V330H460V356.024H462ZM392 372.024C392 363.74 398.716 357.024 407 357.024V355.024C397.611 355.024 390 362.636 390 372.024H392Z" fill="#4E5769"/>
<path d="M215 206V197.514H217V206H215ZM200 182.514H146V180.514H200V182.514ZM215 197.514C215 189.23 208.284 182.514 200 182.514V180.514C209.389 180.514 217 188.125 217 197.514H215Z" fill="#4E5769"/>
<path d="M146 181.514V182.514H147V181.514H146ZM77 206V197.514H75V206H77ZM92 182.514H146V180.514H92V182.514ZM147 181.514V156H145V181.514H147ZM77 197.514C77 189.23 83.7157 182.514 92 182.514V180.514C82.6112 180.514 75 188.125 75 197.514H77Z" fill="#4E5769"/>
<path d="M390 114V102.086H392V114H390ZM375 87.0862H269V85.0862H375V87.0862ZM390 102.086C390 93.8019 383.284 87.0862 375 87.0862V85.0862C384.389 85.0862 392 92.6973 392 102.086H390Z" fill="#4E5769"/>
<path d="M269 86.0862V87.0862H270V86.0862H269ZM148 114V102.086H146V114H148ZM163 87.0862H269V85.0862H163V87.0862ZM270 86.0862V57H268V86.0862H270ZM148 102.086C148 93.8019 154.716 87.0862 163 87.0862V85.0862C153.611 85.0862 146 92.6973 146 102.086H148Z" fill="#4E5769"/>
<g filter="url(#filter0_d_439_4864)">
<rect x="229" y="1" width="80" height="56" rx="6" fill="#343A46"/>
<rect x="249" y="21" width="40" height="16" rx="8" fill="#FABD62"/>
<rect x="229" y="1" width="80" height="56" rx="6" stroke="white" stroke-linejoin="bevel"/>
</g>
<g filter="url(#filter1_d_439_4864)">
<rect x="351" y="114" width="80" height="42" rx="6" fill="#343A46"/>
<rect x="351" y="114" width="80" height="42" rx="6" stroke="#4E5769" stroke-linejoin="bevel"/>
</g>
<g filter="url(#filter2_d_439_4864)">
<rect x="281" y="208" width="80" height="42" rx="6" fill="#343A46"/>
<rect x="281" y="208" width="80" height="42" rx="6" stroke="#4E5769" stroke-linejoin="bevel"/>
</g>
<g filter="url(#filter3_d_439_4864)">
<rect x="421" y="288" width="80" height="42" rx="6" fill="#343A46"/>
<rect x="421" y="288" width="80" height="42" rx="6" stroke="#4E5769" stroke-linejoin="bevel"/>
</g>
<g filter="url(#filter4_d_439_4864)">
<rect x="106" y="114" width="80" height="42" rx="6" fill="#343A46"/>
<rect x="106" y="114" width="80" height="42" rx="6" stroke="#4E5769" stroke-linejoin="bevel"/>
</g>
<path opacity="0.5" d="M269 32L429.5 384L354 419.5L269 32Z" fill="#FCDEB0"/>
<path opacity="0.5" d="M269 32L496.5 209L423.5 246.5L269 32Z" fill="#FCDEB0"/>
<path opacity="0.5" d="M269 32L569.5 382.5L494 421.5L269 32Z" fill="#FCDEB0"/>
<mask id="mask0_439_4864" style="mask-type:alpha" maskUnits="userSpaceOnUse" x="269" y="32" width="228" height="215">
<path opacity="0.5" d="M269 32L496.5 209L423.5 246.5L269 32Z" fill="black" fill-opacity="0.8"/>
</mask>
<g mask="url(#mask0_439_4864)">
<path opacity="0.5" d="M269 32L569.5 382.5L494 421.5L269 32Z" fill="black" fill-opacity="0.8"/>
</g>
<path opacity="0.5" d="M268.5 32L177.5 210L254.5 245L268.5 32Z" fill="#FCDEB0"/>
<path opacity="0.5" d="M268.5 32L37 210.5L112.5 245.5L268.5 32Z" fill="#FCDEB0"/>
<g filter="url(#filter5_d_439_4864)">
<path d="M256 213C256 209.686 253.314 207 250 207H182C178.686 207 176 209.686 176 213V243C176 246.314 178.686 249 182 249H250C253.314 249 256 246.314 256 243V213Z" fill="#FABD62"/>
<path d="M250 207.5H182V206.5H250V207.5ZM176.5 213V243H175.5V213H176.5ZM182 248.5H250V249.5H182V248.5ZM255.5 243V213H256.5V243H255.5ZM250 248.5C253.038 248.5 255.5 246.038 255.5 243H256.5C256.5 246.59 253.59 249.5 250 249.5V248.5ZM176.5 243C176.5 246.038 178.962 248.5 182 248.5V249.5C178.41 249.5 175.5 246.59 175.5 243H176.5ZM182 207.5C178.962 207.5 176.5 209.962 176.5 213H175.5C175.5 209.41 178.41 206.5 182 206.5V207.5ZM250 206.5C253.59 206.5 256.5 209.41 256.5 213H255.5C255.5 209.962 253.038 207.5 250 207.5V206.5Z" fill="#DB7D27"/>
</g>
<g filter="url(#filter6_d_439_4864)">
<path d="M501 214C501 210.686 498.314 208 495 208H427C423.686 208 421 210.686 421 214V244C421 247.314 423.686 250 427 250H495C498.314 250 501 247.314 501 244V214Z" fill="#FABD62"/>
<path d="M495 208.5H427V207.5H495V208.5ZM421.5 214V244H420.5V214H421.5ZM427 249.5H495V250.5H427V249.5ZM500.5 244V214H501.5V244H500.5ZM495 249.5C498.038 249.5 500.5 247.038 500.5 244H501.5C501.5 247.59 498.59 250.5 495 250.5V249.5ZM421.5 244C421.5 247.038 423.962 249.5 427 249.5V250.5C423.41 250.5 420.5 247.59 420.5 244H421.5ZM427 208.5C423.962 208.5 421.5 210.962 421.5 214H420.5C420.5 210.41 423.41 207.5 427 207.5V208.5ZM495 207.5C498.59 207.5 501.5 210.41 501.5 214H500.5C500.5 210.962 498.038 208.5 495 208.5V207.5Z" fill="#DB7D27"/>
</g>
<g filter="url(#filter7_d_439_4864)">
<path d="M572 387C572 383.686 569.314 381 566 381H498C494.686 381 492 383.686 492 387V417C492 420.314 494.686 423 498 423H566C569.314 423 572 420.314 572 417V387Z" fill="#FABD62"/>
<path d="M566 381.5H498V380.5H566V381.5ZM492.5 387V417H491.5V387H492.5ZM498 422.5H566V423.5H498V422.5ZM571.5 417V387H572.5V417H571.5ZM566 422.5C569.038 422.5 571.5 420.038 571.5 417H572.5C572.5 420.59 569.59 423.5 566 423.5V422.5ZM492.5 417C492.5 420.038 494.962 422.5 498 422.5V423.5C494.41 423.5 491.5 420.59 491.5 417H492.5ZM498 381.5C494.962 381.5 492.5 383.962 492.5 387H491.5C491.5 383.41 494.41 380.5 498 380.5V381.5ZM566 380.5C569.59 380.5 572.5 383.41 572.5 387H571.5C571.5 383.962 569.038 381.5 566 381.5V380.5Z" fill="#DB7D27"/>
</g>
<g filter="url(#filter8_d_439_4864)">
<path d="M116 213C116 209.686 113.314 207 110 207H42C38.6863 207 36 209.686 36 213V243C36 246.314 38.6863 249 42 249H110C113.314 249 116 246.314 116 243V213Z" fill="#FABD62"/>
<path d="M110 207.5H42V206.5H110V207.5ZM36.5 213V243H35.5V213H36.5ZM42 248.5H110V249.5H42V248.5ZM115.5 243V213H116.5V243H115.5ZM110 248.5C113.038 248.5 115.5 246.038 115.5 243H116.5C116.5 246.59 113.59 249.5 110 249.5V248.5ZM36.5 243C36.5 246.038 38.9624 248.5 42 248.5V249.5C38.4101 249.5 35.5 246.59 35.5 243H36.5ZM42 207.5C38.9624 207.5 36.5 209.962 36.5 213H35.5C35.5 209.41 38.4101 206.5 42 206.5V207.5ZM110 206.5C113.59 206.5 116.5 209.41 116.5 213H115.5C115.5 209.962 113.038 207.5 110 207.5V206.5Z" fill="#DB7D27"/>
</g>
<g filter="url(#filter9_d_439_4864)">
<path d="M432 387C432 383.686 429.314 381 426 381H358C354.686 381 352 383.686 352 387V417C352 420.314 354.686 423 358 423H426C429.314 423 432 420.314 432 417V387Z" fill="#FABD62"/>
<path d="M426 381.5H358V380.5H426V381.5ZM352.5 387V417H351.5V387H352.5ZM358 422.5H426V423.5H358V422.5ZM431.5 417V387H432.5V417H431.5ZM426 422.5C429.038 422.5 431.5 420.038 431.5 417H432.5C432.5 420.59 429.59 423.5 426 423.5V422.5ZM352.5 417C352.5 420.038 354.962 422.5 358 422.5V423.5C354.41 423.5 351.5 420.59 351.5 417H352.5ZM358 381.5C354.962 381.5 352.5 383.962 352.5 387H351.5C351.5 383.41 354.41 380.5 358 380.5V381.5ZM426 380.5C429.59 380.5 432.5 383.41 432.5 387H431.5C431.5 383.962 429.038 381.5 426 381.5V380.5Z" fill="#DB7D27"/>
</g>
<path opacity="0.4" d="M461 252L461 288" stroke="#4E5769" stroke-width="2"/>
<defs>
<filter id="filter0_d_439_4864" x="228.5" y="0.5" width="81" height="58" filterUnits="userSpaceOnUse" color-interpolation-filters="sRGB">
<feFlood flood-opacity="0" result="BackgroundImageFix"/>
<feColorMatrix in="SourceAlpha" type="matrix" values="0 0 0 0 0 0 0 0 0 0 0 0 0 0 0 0 0 0 127 0" result="hardAlpha"/>
<feOffset dy="1"/>
<feComposite in2="hardAlpha" operator="out"/>
<feColorMatrix type="matrix" values="0 0 0 0 1 0 0 0 0 1 0 0 0 0 1 0 0 0 1 0"/>
<feBlend mode="normal" in2="BackgroundImageFix" result="effect1_dropShadow_439_4864"/>
<feBlend mode="normal" in="SourceGraphic" in2="effect1_dropShadow_439_4864" result="shape"/>
</filter>
<filter id="filter1_d_439_4864" x="350.5" y="113.5" width="81" height="44" filterUnits="userSpaceOnUse" color-interpolation-filters="sRGB">
<feFlood flood-opacity="0" result="BackgroundImageFix"/>
<feColorMatrix in="SourceAlpha" type="matrix" values="0 0 0 0 0 0 0 0 0 0 0 0 0 0 0 0 0 0 127 0" result="hardAlpha"/>
<feOffset dy="1"/>
<feComposite in2="hardAlpha" operator="out"/>
<feColorMatrix type="matrix" values="0 0 0 0 0.305882 0 0 0 0 0.341176 0 0 0 0 0.411765 0 0 0 1 0"/>
<feBlend mode="normal" in2="BackgroundImageFix" result="effect1_dropShadow_439_4864"/>
<feBlend mode="normal" in="SourceGraphic" in2="effect1_dropShadow_439_4864" result="shape"/>
</filter>
<filter id="filter2_d_439_4864" x="280.5" y="207.5" width="81" height="44" filterUnits="userSpaceOnUse" color-interpolation-filters="sRGB">
<feFlood flood-opacity="0" result="BackgroundImageFix"/>
<feColorMatrix in="SourceAlpha" type="matrix" values="0 0 0 0 0 0 0 0 0 0 0 0 0 0 0 0 0 0 127 0" result="hardAlpha"/>
<feOffset dy="1"/>
<feComposite in2="hardAlpha" operator="out"/>
<feColorMatrix type="matrix" values="0 0 0 0 0.305882 0 0 0 0 0.341176 0 0 0 0 0.411765 0 0 0 1 0"/>
<feBlend mode="normal" in2="BackgroundImageFix" result="effect1_dropShadow_439_4864"/>
<feBlend mode="normal" in="SourceGraphic" in2="effect1_dropShadow_439_4864" result="shape"/>
</filter>
<filter id="filter3_d_439_4864" x="420.5" y="287.5" width="81" height="44" filterUnits="userSpaceOnUse" color-interpolation-filters="sRGB">
<feFlood flood-opacity="0" result="BackgroundImageFix"/>
<feColorMatrix in="SourceAlpha" type="matrix" values="0 0 0 0 0 0 0 0 0 0 0 0 0 0 0 0 0 0 127 0" result="hardAlpha"/>
<feOffset dy="1"/>
<feComposite in2="hardAlpha" operator="out"/>
<feColorMatrix type="matrix" values="0 0 0 0 0.305882 0 0 0 0 0.341176 0 0 0 0 0.411765 0 0 0 1 0"/>
<feBlend mode="normal" in2="BackgroundImageFix" result="effect1_dropShadow_439_4864"/>
<feBlend mode="normal" in="SourceGraphic" in2="effect1_dropShadow_439_4864" result="shape"/>
</filter>
<filter id="filter4_d_439_4864" x="105.5" y="113.5" width="81" height="44" filterUnits="userSpaceOnUse" color-interpolation-filters="sRGB">
<feFlood flood-opacity="0" result="BackgroundImageFix"/>
<feColorMatrix in="SourceAlpha" type="matrix" values="0 0 0 0 0 0 0 0 0 0 0 0 0 0 0 0 0 0 127 0" result="hardAlpha"/>
<feOffset dy="1"/>
<feComposite in2="hardAlpha" operator="out"/>
<feColorMatrix type="matrix" values="0 0 0 0 0.305882 0 0 0 0 0.341176 0 0 0 0 0.411765 0 0 0 1 0"/>
<feBlend mode="normal" in2="BackgroundImageFix" result="effect1_dropShadow_439_4864"/>
<feBlend mode="normal" in="SourceGraphic" in2="effect1_dropShadow_439_4864" result="shape"/>
</filter>
<filter id="filter5_d_439_4864" x="175.5" y="206.5" width="81" height="44" filterUnits="userSpaceOnUse" color-interpolation-filters="sRGB">
<feFlood flood-opacity="0" result="BackgroundImageFix"/>
<feColorMatrix in="SourceAlpha" type="matrix" values="0 0 0 0 0 0 0 0 0 0 0 0 0 0 0 0 0 0 127 0" result="hardAlpha"/>
<feOffset dy="1"/>
<feComposite in2="hardAlpha" operator="out"/>
<feColorMatrix type="matrix" values="0 0 0 0 0.858333 0 0 0 0 0.491968 0 0 0 0 0.153785 0 0 0 1 0"/>
<feBlend mode="normal" in2="BackgroundImageFix" result="effect1_dropShadow_439_4864"/>
<feBlend mode="normal" in="SourceGraphic" in2="effect1_dropShadow_439_4864" result="shape"/>
</filter>
<filter id="filter6_d_439_4864" x="420.5" y="207.5" width="81" height="44" filterUnits="userSpaceOnUse" color-interpolation-filters="sRGB">
<feFlood flood-opacity="0" result="BackgroundImageFix"/>
<feColorMatrix in="SourceAlpha" type="matrix" values="0 0 0 0 0 0 0 0 0 0 0 0 0 0 0 0 0 0 127 0" result="hardAlpha"/>
<feOffset dy="1"/>
<feComposite in2="hardAlpha" operator="out"/>
<feColorMatrix type="matrix" values="0 0 0 0 0.858333 0 0 0 0 0.491968 0 0 0 0 0.153785 0 0 0 1 0"/>
<feBlend mode="normal" in2="BackgroundImageFix" result="effect1_dropShadow_439_4864"/>
<feBlend mode="normal" in="SourceGraphic" in2="effect1_dropShadow_439_4864" result="shape"/>
</filter>
<filter id="filter7_d_439_4864" x="491.5" y="380.5" width="81" height="44" filterUnits="userSpaceOnUse" color-interpolation-filters="sRGB">
<feFlood flood-opacity="0" result="BackgroundImageFix"/>
<feColorMatrix in="SourceAlpha" type="matrix" values="0 0 0 0 0 0 0 0 0 0 0 0 0 0 0 0 0 0 127 0" result="hardAlpha"/>
<feOffset dy="1"/>
<feComposite in2="hardAlpha" operator="out"/>
<feColorMatrix type="matrix" values="0 0 0 0 0.858333 0 0 0 0 0.491968 0 0 0 0 0.153785 0 0 0 1 0"/>
<feBlend mode="normal" in2="BackgroundImageFix" result="effect1_dropShadow_439_4864"/>
<feBlend mode="normal" in="SourceGraphic" in2="effect1_dropShadow_439_4864" result="shape"/>
</filter>
<filter id="filter8_d_439_4864" x="35.5" y="206.5" width="81" height="44" filterUnits="userSpaceOnUse" color-interpolation-filters="sRGB">
<feFlood flood-opacity="0" result="BackgroundImageFix"/>
<feColorMatrix in="SourceAlpha" type="matrix" values="0 0 0 0 0 0 0 0 0 0 0 0 0 0 0 0 0 0 127 0" result="hardAlpha"/>
<feOffset dy="1"/>
<feComposite in2="hardAlpha" operator="out"/>
<feColorMatrix type="matrix" values="0 0 0 0 0.858333 0 0 0 0 0.491968 0 0 0 0 0.153785 0 0 0 1 0"/>
<feBlend mode="normal" in2="BackgroundImageFix" result="effect1_dropShadow_439_4864"/>
<feBlend mode="normal" in="SourceGraphic" in2="effect1_dropShadow_439_4864" result="shape"/>
</filter>
<filter id="filter9_d_439_4864" x="351.5" y="380.5" width="81" height="44" filterUnits="userSpaceOnUse" color-interpolation-filters="sRGB">
<feFlood flood-opacity="0" result="BackgroundImageFix"/>
<feColorMatrix in="SourceAlpha" type="matrix" values="0 0 0 0 0 0 0 0 0 0 0 0 0 0 0 0 0 0 127 0" result="hardAlpha"/>
<feOffset dy="1"/>
<feComposite in2="hardAlpha" operator="out"/>
<feColorMatrix type="matrix" values="0 0 0 0 0.858333 0 0 0 0 0.491968 0 0 0 0 0.153785 0 0 0 1 0"/>
<feBlend mode="normal" in2="BackgroundImageFix" result="effect1_dropShadow_439_4864"/>
<feBlend mode="normal" in="SourceGraphic" in2="effect1_dropShadow_439_4864" result="shape"/>
</filter>
</defs>
</svg>
