<svg width="794" height="350" viewBox="0 0 794 350" fill="none" xmlns="http://www.w3.org/2000/svg">
<rect x="97.0001" y="15" width="65" height="50.2663" rx="6" fill="#343A46" stroke="white" stroke-linejoin="bevel"/>
<path fill-rule="evenodd" clip-rule="evenodd" d="M97.0001 59.2666V61.0002C97.0001 64.3139 99.6864 67.0002 103 67.0002H156C159.314 67.0002 162 64.3139 162 61.0002V59.2666C162 62.5803 159.314 65.2666 156 65.2666H103C99.6864 65.2666 97.0001 62.5803 97.0001 59.2666Z" fill="white"/>
<path d="M120.651 48.24C119.764 48.24 118.987 48.0167 118.321 47.57C117.661 47.1167 117.147 46.4967 116.781 45.71C116.414 44.9167 116.231 44.0133 116.231 43C116.231 41.9867 116.414 41.0867 116.781 40.3C117.147 39.5067 117.661 38.8867 118.321 38.44C118.987 37.9867 119.764 37.76 120.651 37.76H120.871C121.531 37.76 122.141 37.9033 122.701 38.19C123.267 38.47 123.734 38.89 124.101 39.45V33.4H126.101V48H124.101V46.43C123.754 47.03 123.301 47.4833 122.741 47.79C122.181 48.09 121.557 48.24 120.871 48.24H120.651ZM121.151 46.39H121.351C121.944 46.39 122.477 46.2133 122.951 45.86C123.431 45.5067 123.814 45.0233 124.101 44.41V41.59C123.814 40.9767 123.431 40.4933 122.951 40.14C122.477 39.7867 121.944 39.61 121.351 39.61H121.151C120.277 39.61 119.584 39.9033 119.071 40.49C118.557 41.0767 118.301 41.9133 118.301 43C118.301 44.0867 118.557 44.9233 119.071 45.51C119.584 46.0967 120.277 46.39 121.151 46.39ZM130.046 36.22C129.64 36.22 129.316 36.0967 129.076 35.85C128.843 35.5967 128.726 35.2767 128.726 34.89C128.726 34.4967 128.843 34.1767 129.076 33.93C129.316 33.6833 129.64 33.56 130.046 33.56C130.46 33.56 130.783 33.6833 131.016 33.93C131.25 34.1767 131.366 34.4967 131.366 34.89C131.366 35.2767 131.25 35.5967 131.016 35.85C130.783 36.0967 130.46 36.22 130.046 36.22ZM129.046 48V38H131.046V48H129.046ZM136.878 48C136.158 46.38 135.471 44.73 134.818 43.05C134.171 41.3633 133.571 39.68 133.018 38H135.278C135.684 39.38 136.128 40.7633 136.608 42.15C137.094 43.5367 137.608 44.91 138.148 46.27C138.688 44.91 139.198 43.5367 139.678 42.15C140.164 40.7633 140.611 39.38 141.018 38H143.198C142.644 39.68 142.041 41.3633 141.388 43.05C140.741 44.73 140.058 46.38 139.338 48H136.878Z" fill="white"/>
<rect x="74.0001" y="107" width="111" height="50.2663" rx="6" fill="#343A46" stroke="white" stroke-linejoin="bevel"/>
<path fill-rule="evenodd" clip-rule="evenodd" d="M74.0001 151.267V153C74.0001 156.314 76.6864 159 80.0001 159H179C182.314 159 185 156.314 185 153V151.267C185 154.58 182.314 157.267 179 157.267H80.0001C76.6864 157.267 74.0001 154.58 74.0001 151.267Z" fill="white"/>
<path d="M99.9707 140.24C98.9641 140.24 98.0974 140.077 97.3707 139.75C96.6441 139.423 96.0374 138.937 95.5507 138.29L96.9107 137.04C97.6307 138.007 98.6441 138.49 99.9507 138.49H100.151C100.811 138.49 101.321 138.39 101.681 138.19C102.047 137.983 102.231 137.687 102.231 137.3C102.231 136.98 102.111 136.717 101.871 136.51C101.637 136.303 101.207 136.137 100.581 136.01L98.8707 135.65C96.8841 135.237 95.8907 134.31 95.8907 132.87C95.8907 131.937 96.2541 131.187 96.9807 130.62C97.7074 130.047 98.6707 129.76 99.8707 129.76H100.091C101.797 129.76 103.107 130.393 104.021 131.66L102.661 132.79C102.314 132.33 101.924 132.003 101.491 131.81C101.064 131.61 100.591 131.51 100.071 131.51H99.8707C99.2774 131.51 98.7941 131.613 98.4207 131.82C98.0541 132.027 97.8707 132.32 97.8707 132.7C97.8707 132.987 97.9841 133.217 98.2107 133.39C98.4441 133.557 98.8341 133.7 99.3807 133.82L101.381 134.25C102.241 134.437 102.927 134.77 103.441 135.25C103.954 135.723 104.211 136.367 104.211 137.18C104.211 138.067 103.867 138.8 103.181 139.38C102.501 139.953 101.504 140.24 100.191 140.24H99.9707ZM110.709 140.24C109.749 140.24 108.906 140.02 108.179 139.58C107.459 139.14 106.896 138.527 106.489 137.74C106.089 136.953 105.889 136.043 105.889 135.01C105.889 133.977 106.089 133.067 106.489 132.28C106.896 131.487 107.459 130.87 108.179 130.43C108.906 129.983 109.749 129.76 110.709 129.76H110.929C111.802 129.76 112.569 129.977 113.229 130.41C113.896 130.837 114.416 131.457 114.789 132.27C115.162 133.077 115.349 134.05 115.349 135.19V135.8H107.959C108.079 136.62 108.386 137.267 108.879 137.74C109.379 138.207 110.029 138.44 110.829 138.44H111.029C111.509 138.44 111.969 138.343 112.409 138.15C112.849 137.95 113.219 137.683 113.519 137.35L114.749 138.65C114.296 139.137 113.736 139.523 113.069 139.81C112.409 140.097 111.696 140.24 110.929 140.24H110.709ZM110.649 131.56C109.936 131.56 109.339 131.797 108.859 132.27C108.386 132.737 108.086 133.377 107.959 134.19H113.339C113.279 133.45 113.036 132.827 112.609 132.32C112.189 131.813 111.602 131.56 110.849 131.56H110.649ZM122.049 140.24C121.089 140.24 120.239 140.03 119.499 139.61C118.759 139.19 118.179 138.59 117.759 137.81C117.346 137.023 117.139 136.09 117.139 135.01C117.139 133.923 117.346 132.99 117.759 132.21C118.172 131.423 118.746 130.82 119.479 130.4C120.219 129.973 121.076 129.76 122.049 129.76H122.269C123.042 129.76 123.772 129.96 124.459 130.36C125.152 130.753 125.712 131.297 126.139 131.99L124.589 133.07C124.302 132.617 123.959 132.263 123.559 132.01C123.159 131.75 122.706 131.62 122.199 131.62H121.999C121.132 131.62 120.449 131.927 119.949 132.54C119.456 133.147 119.209 133.967 119.209 135C119.209 136.027 119.456 136.847 119.949 137.46C120.449 138.073 121.132 138.38 121.999 138.38H122.199C122.706 138.38 123.172 138.267 123.599 138.04C124.026 137.813 124.392 137.51 124.699 137.13L126.139 138.35C125.692 138.937 125.129 139.4 124.449 139.74C123.776 140.073 123.049 140.24 122.269 140.24H122.049ZM132.833 140.13C131.647 140.13 130.743 139.83 130.123 139.23C129.503 138.63 129.193 137.707 129.193 136.46V131.74H127.233V130H129.193V127.02H131.193V130H134.563V131.74H131.193V136.19C131.193 136.977 131.357 137.523 131.683 137.83C132.01 138.137 132.493 138.29 133.133 138.29C133.44 138.29 133.713 138.277 133.953 138.25C134.2 138.223 134.453 138.19 134.713 138.15V139.9C134.447 139.967 134.147 140.02 133.813 140.06C133.48 140.107 133.153 140.13 132.833 140.13ZM137.771 128.22C137.364 128.22 137.041 128.097 136.801 127.85C136.568 127.597 136.451 127.277 136.451 126.89C136.451 126.497 136.568 126.177 136.801 125.93C137.041 125.683 137.364 125.56 137.771 125.56C138.184 125.56 138.508 125.683 138.741 125.93C138.974 126.177 139.091 126.497 139.091 126.89C139.091 127.277 138.974 127.597 138.741 127.85C138.508 128.097 138.184 128.22 137.771 128.22ZM136.771 140V130H138.771V140H136.771ZM146.152 140.24C145.139 140.24 144.256 140.017 143.502 139.57C142.756 139.117 142.179 138.497 141.772 137.71C141.366 136.917 141.162 136.013 141.162 135C141.162 133.98 141.366 133.077 141.772 132.29C142.179 131.503 142.756 130.887 143.502 130.44C144.256 129.987 145.139 129.76 146.152 129.76H146.372C147.392 129.76 148.276 129.987 149.022 130.44C149.769 130.887 150.346 131.503 150.752 132.29C151.159 133.077 151.362 133.98 151.362 135C151.362 136.013 151.159 136.917 150.752 137.71C150.346 138.497 149.769 139.117 149.022 139.57C148.276 140.017 147.392 140.24 146.372 140.24H146.152ZM146.162 138.38H146.362C147.276 138.38 147.992 138.073 148.512 137.46C149.032 136.847 149.292 136.027 149.292 135C149.292 133.967 149.032 133.147 148.512 132.54C147.992 131.927 147.276 131.62 146.362 131.62H146.162C145.256 131.62 144.539 131.927 144.012 132.54C143.492 133.147 143.232 133.967 143.232 135C143.232 136.027 143.492 136.847 144.012 137.46C144.539 138.073 145.256 138.38 146.162 138.38ZM153.744 140V130H155.744V131.67C156.11 131.077 156.567 130.61 157.114 130.27C157.667 129.93 158.307 129.76 159.034 129.76H159.254C160.36 129.76 161.227 130.15 161.854 130.93C162.487 131.71 162.804 132.807 162.804 134.22V140H160.804V134.46C160.804 132.567 160.117 131.62 158.744 131.62H158.544C157.864 131.62 157.284 131.83 156.804 132.25C156.33 132.67 155.977 133.2 155.744 133.84V140H153.744Z" fill="white"/>
<path d="M130 106V66" stroke="white" stroke-width="2"/>
<path d="M130 215V159" stroke="white" stroke-width="2"/>
<rect x="43.0001" y="209" width="173" height="133" rx="6" fill="#343A46" stroke="white" stroke-linejoin="bevel"/>
<path fill-rule="evenodd" clip-rule="evenodd" d="M43.0001 336V338C43.0001 341.314 45.6864 344 49.0001 344H210C213.314 344 216 341.314 216 338V336C216 339.314 213.314 342 210 342H49.0001C45.6864 342 43.0001 339.314 43.0001 336Z" fill="white"/>
<path d="M97.5754 251.24C96.2554 251.24 95.1021 250.95 94.1154 250.37C93.1288 249.783 92.3621 248.957 91.8154 247.89C91.2754 246.823 91.0054 245.567 91.0054 244.12C91.0054 242.667 91.2754 241.39 91.8154 240.29C92.3621 239.183 93.1288 238.32 94.1154 237.7C95.1021 237.073 96.2554 236.76 97.5754 236.76H97.8754C99.1754 236.76 100.285 237.06 101.205 237.66C102.132 238.253 102.862 239.05 103.395 240.05L101.605 241.09C101.232 240.377 100.729 239.807 100.095 239.38C99.4688 238.953 98.7188 238.74 97.8454 238.74H97.5654C96.7388 238.74 95.9954 238.95 95.3354 239.37C94.6821 239.79 94.1621 240.397 93.7754 241.19C93.3954 241.983 93.2054 242.943 93.2054 244.07C93.2054 245.197 93.3954 246.147 93.7754 246.92C94.1621 247.687 94.6821 248.27 95.3354 248.67C95.9954 249.063 96.7388 249.26 97.5654 249.26H97.8454C98.7254 249.26 99.4721 249.067 100.085 248.68C100.699 248.287 101.199 247.747 101.585 247.06L103.365 248.12C102.819 249.073 102.089 249.833 101.175 250.4C100.262 250.96 99.1621 251.24 97.8754 251.24H97.5754ZM110.016 251.24C109.002 251.24 108.119 251.017 107.366 250.57C106.619 250.117 106.042 249.497 105.636 248.71C105.229 247.917 105.026 247.013 105.026 246C105.026 244.98 105.229 244.077 105.636 243.29C106.042 242.503 106.619 241.887 107.366 241.44C108.119 240.987 109.002 240.76 110.016 240.76H110.236C111.256 240.76 112.139 240.987 112.886 241.44C113.632 241.887 114.209 242.503 114.616 243.29C115.022 244.077 115.226 244.98 115.226 246C115.226 247.013 115.022 247.917 114.616 248.71C114.209 249.497 113.632 250.117 112.886 250.57C112.139 251.017 111.256 251.24 110.236 251.24H110.016ZM110.026 249.38H110.226C111.139 249.38 111.856 249.073 112.376 248.46C112.896 247.847 113.156 247.027 113.156 246C113.156 244.967 112.896 244.147 112.376 243.54C111.856 242.927 111.139 242.62 110.226 242.62H110.026C109.119 242.62 108.402 242.927 107.876 243.54C107.356 244.147 107.096 244.967 107.096 246C107.096 247.027 107.356 247.847 107.876 248.46C108.402 249.073 109.119 249.38 110.026 249.38ZM120.987 251.24C119.834 251.24 118.954 250.85 118.347 250.07C117.74 249.29 117.437 248.193 117.437 246.78V241H119.437V246.54C119.437 248.433 120.124 249.38 121.497 249.38H121.697C122.377 249.38 122.954 249.17 123.427 248.75C123.907 248.33 124.264 247.8 124.497 247.16V241H126.497V251H124.497V249.33C124.13 249.923 123.67 250.39 123.117 250.73C122.57 251.07 121.934 251.24 121.207 251.24H120.987ZM129.443 251V241H131.443V242.67C131.809 242.077 132.266 241.61 132.813 241.27C133.366 240.93 134.006 240.76 134.733 240.76H134.953C136.059 240.76 136.926 241.15 137.553 241.93C138.186 242.71 138.503 243.807 138.503 245.22V251H136.503V245.46C136.503 243.567 135.816 242.62 134.443 242.62H134.243C133.563 242.62 132.983 242.83 132.503 243.25C132.029 243.67 131.676 244.2 131.443 244.84V251H129.443ZM145.779 251.13C144.592 251.13 143.689 250.83 143.069 250.23C142.449 249.63 142.139 248.707 142.139 247.46V242.74H140.179V241H142.139V238.02H144.139V241H147.509V242.74H144.139V247.19C144.139 247.977 144.302 248.523 144.629 248.83C144.955 249.137 145.439 249.29 146.079 249.29C146.385 249.29 146.659 249.277 146.899 249.25C147.145 249.223 147.399 249.19 147.659 249.15V250.9C147.392 250.967 147.092 251.02 146.759 251.06C146.425 251.107 146.099 251.13 145.779 251.13ZM153.986 251.24C153.026 251.24 152.183 251.02 151.456 250.58C150.736 250.14 150.173 249.527 149.766 248.74C149.366 247.953 149.166 247.043 149.166 246.01C149.166 244.977 149.366 244.067 149.766 243.28C150.173 242.487 150.736 241.87 151.456 241.43C152.183 240.983 153.026 240.76 153.986 240.76H154.206C155.08 240.76 155.846 240.977 156.506 241.41C157.173 241.837 157.693 242.457 158.066 243.27C158.44 244.077 158.626 245.05 158.626 246.19V246.8H151.236C151.356 247.62 151.663 248.267 152.156 248.74C152.656 249.207 153.306 249.44 154.106 249.44H154.306C154.786 249.44 155.246 249.343 155.686 249.15C156.126 248.95 156.496 248.683 156.796 248.35L158.026 249.65C157.573 250.137 157.013 250.523 156.346 250.81C155.686 251.097 154.973 251.24 154.206 251.24H153.986ZM153.926 242.56C153.213 242.56 152.616 242.797 152.136 243.27C151.663 243.737 151.363 244.377 151.236 245.19H156.616C156.556 244.45 156.313 243.827 155.886 243.32C155.466 242.813 154.88 242.56 154.126 242.56H153.926ZM160.966 251V241H162.966V242.52C163.633 241.347 164.55 240.76 165.716 240.76C166.036 240.76 166.326 240.787 166.586 240.84V242.86C166.426 242.84 166.253 242.823 166.066 242.81C165.886 242.797 165.71 242.79 165.536 242.79C164.876 242.79 164.336 242.98 163.916 243.36C163.496 243.74 163.18 244.26 162.966 244.92V251H160.966Z" fill="white"/>
<path d="M63.0001 295C63.0001 281.193 74.193 270 88.0001 270H150V320H88.0001C74.193 320 63.0001 308.807 63.0001 295V295Z" fill="#343A46"/>
<path d="M89.0643 303.22C88.1176 303.22 87.2843 303.01 86.5643 302.59C85.8443 302.163 85.2809 301.563 84.8743 300.79C84.4743 300.01 84.2743 299.09 84.2743 298.03C84.2743 296.97 84.4743 296.05 84.8743 295.27C85.2743 294.49 85.8343 293.89 86.5543 293.47C87.2743 293.043 88.1109 292.83 89.0643 292.83H89.2643C90.0376 292.83 90.7543 293.02 91.4143 293.4C92.0743 293.78 92.6109 294.297 93.0243 294.95L91.8143 295.82C91.5076 295.347 91.1376 294.977 90.7043 294.71C90.2709 294.437 89.7776 294.3 89.2243 294.3H89.0343C88.0743 294.3 87.3143 294.64 86.7543 295.32C86.1943 295.993 85.9143 296.897 85.9143 298.03C85.9143 299.157 86.1943 300.06 86.7543 300.74C87.3143 301.413 88.0743 301.75 89.0343 301.75H89.2243C89.7843 301.75 90.2843 301.63 90.7243 301.39C91.1709 301.15 91.5543 300.827 91.8743 300.42L93.0243 301.36C92.5976 301.94 92.0576 302.397 91.4043 302.73C90.7509 303.057 90.0376 303.22 89.2643 303.22H89.0643ZM99.7397 303.22C98.7464 303.22 97.8864 302.997 97.1597 302.55C96.4331 302.103 95.8697 301.49 95.4697 300.71C95.0764 299.93 94.8797 299.037 94.8797 298.03C94.8797 297.017 95.0764 296.12 95.4697 295.34C95.8697 294.56 96.4331 293.947 97.1597 293.5C97.8864 293.053 98.7464 292.83 99.7397 292.83H99.9397C100.933 292.83 101.793 293.053 102.52 293.5C103.246 293.947 103.806 294.56 104.2 295.34C104.6 296.12 104.8 297.017 104.8 298.03C104.8 299.037 104.6 299.93 104.2 300.71C103.806 301.49 103.246 302.103 102.52 302.55C101.793 302.997 100.933 303.22 99.9397 303.22H99.7397ZM99.7497 301.76H99.9297C100.923 301.76 101.71 301.42 102.29 300.74C102.87 300.06 103.16 299.157 103.16 298.03C103.16 296.897 102.87 295.993 102.29 295.32C101.71 294.64 100.923 294.3 99.9297 294.3H99.7497C98.7564 294.3 97.9697 294.64 97.3897 295.32C96.8097 295.993 96.5197 296.897 96.5197 298.03C96.5197 299.157 96.8097 300.06 97.3897 300.74C97.9697 301.42 98.7564 301.76 99.7497 301.76ZM110.812 303.22C109.659 303.22 108.779 302.843 108.172 302.09C107.566 301.337 107.262 300.267 107.262 298.88V293.05H108.842V298.65C108.842 299.677 109.032 300.453 109.412 300.98C109.799 301.5 110.396 301.76 111.202 301.76H111.382C112.122 301.76 112.756 301.52 113.282 301.04C113.809 300.553 114.196 299.947 114.442 299.22V293.05H116.022V303H114.442V301.11C114.076 301.763 113.602 302.28 113.022 302.66C112.442 303.033 111.772 303.22 111.012 303.22H110.812ZM119.219 303V293.05H120.799V294.94C121.166 294.287 121.639 293.773 122.219 293.4C122.799 293.02 123.469 292.83 124.229 292.83H124.429C125.556 292.83 126.429 293.207 127.049 293.96C127.669 294.707 127.979 295.777 127.979 297.17V303H126.399V297.4C126.399 296.373 126.209 295.6 125.829 295.08C125.449 294.56 124.853 294.3 124.039 294.3H123.849C123.109 294.3 122.476 294.54 121.949 295.02C121.429 295.5 121.046 296.103 120.799 296.83V303H119.219ZM135.316 303.12C134.209 303.12 133.356 302.843 132.756 302.29C132.156 301.737 131.856 300.857 131.856 299.65V294.42H129.896V293.05H131.856V290.02H133.436V293.05H136.956V294.42H133.436V299.43C133.436 300.263 133.616 300.847 133.976 301.18C134.343 301.507 134.863 301.67 135.536 301.67C135.829 301.67 136.096 301.657 136.336 301.63C136.576 301.597 136.826 301.553 137.086 301.5V302.89C136.813 302.957 136.523 303.01 136.216 303.05C135.909 303.097 135.609 303.12 135.316 303.12Z" fill="#8891EC"/>
<path d="M63.0001 295C63.0001 281.193 74.193 270 88.0001 270H150V320H88.0001C74.193 320 63.0001 308.807 63.0001 295V295Z" stroke="#8891EC" stroke-linejoin="bevel"/>
<path d="M150 270H169C182.807 270 194 281.193 194 295V295C194 308.807 182.807 320 169 320H150V270Z" fill="#343A46"/>
<path d="M167.494 303.22C166.414 303.22 165.477 303.003 164.684 302.57C163.897 302.13 163.207 301.5 162.614 300.68L163.784 299.64C164.337 300.353 164.901 300.873 165.474 301.2C166.047 301.527 166.704 301.69 167.444 301.69H167.624C168.624 301.69 169.421 301.42 170.014 300.88C170.614 300.34 170.914 299.603 170.914 298.67C170.914 297.763 170.614 297.057 170.014 296.55C169.421 296.043 168.644 295.79 167.684 295.79H167.514C166.854 295.79 166.254 295.86 165.714 296V294.67L169.914 290.54H163.314V289H172.154V290.34L168.064 294.37C168.964 294.383 169.757 294.58 170.444 294.96C171.131 295.333 171.664 295.843 172.044 296.49C172.431 297.13 172.624 297.857 172.624 298.67C172.624 299.583 172.417 300.383 172.004 301.07C171.591 301.75 171.014 302.28 170.274 302.66C169.541 303.033 168.681 303.22 167.694 303.22H167.494Z" fill="#8891EC"/>
<path d="M150 270H169C182.807 270 194 281.193 194 295V295C194 308.807 182.807 320 169 320H150V270Z" stroke="#8891EC" stroke-linejoin="bevel"/>
<path d="M349.258 98.865C349.958 95.6258 353.15 93.5667 356.389 94.2657L462.193 117.1C465.433 117.799 467.492 120.991 466.793 124.23L444.8 226.137C444.101 229.376 440.908 231.435 437.669 230.736L331.865 207.903C328.626 207.204 326.567 204.011 327.266 200.772L349.258 98.865Z" fill="#23252F"/>
<path d="M359.649 122.805L369.997 134.676C370.133 134.832 370.297 134.968 370.397 135.148C370.456 135.254 370.493 135.373 370.503 135.498C370.521 135.727 370.447 135.955 370.298 136.133C370.149 136.31 369.937 136.422 369.708 136.443C369.584 136.455 369.46 136.44 369.345 136.4C369.15 136.332 368.988 136.194 368.811 136.087L355.338 127.935C355.231 127.87 355.14 127.782 355.071 127.678C355.002 127.574 354.957 127.456 354.938 127.331C354.919 127.207 354.928 127.08 354.963 126.959C354.998 126.837 355.059 126.725 355.142 126.629L358.329 122.837C358.409 122.739 358.51 122.659 358.623 122.604C358.737 122.548 358.861 122.518 358.986 122.515C359.112 122.512 359.236 122.536 359.351 122.586C359.465 122.637 359.567 122.711 359.649 122.805Z" fill="#FABD62"/>
<path d="M393.068 112.263L393.703 122.609C393.715 122.815 393.771 123.029 393.704 123.225C393.689 123.269 393.668 123.311 393.642 123.351C393.559 123.479 393.427 123.57 393.277 123.603C393.127 123.636 392.969 123.608 392.84 123.527C392.8 123.502 392.763 123.472 392.731 123.438C392.588 123.289 392.549 123.071 392.474 122.879L388.717 113.218C388.687 113.141 388.674 113.058 388.68 112.975C388.686 112.892 388.71 112.811 388.75 112.738C388.791 112.665 388.847 112.602 388.915 112.552C388.982 112.502 389.06 112.468 389.143 112.451L392.359 111.744C392.441 111.725 392.526 111.724 392.609 111.741C392.691 111.758 392.769 111.792 392.836 111.841C392.903 111.891 392.959 111.954 392.999 112.027C393.039 112.099 393.063 112.18 393.068 112.263Z" fill="#FABD62"/>
<path d="M352.861 196.834L369.525 181.605C369.678 181.465 369.851 181.347 369.988 181.193C370.133 181.031 370.233 180.83 370.276 180.612C370.339 180.29 370.271 179.955 370.089 179.68C369.906 179.404 369.624 179.212 369.303 179.145C369.085 179.099 368.862 179.113 368.656 179.184C368.46 179.25 368.284 179.364 368.096 179.45L347.584 188.876C347.422 188.95 347.279 189.06 347.165 189.196C347.05 189.332 346.967 189.492 346.92 189.665C346.874 189.838 346.866 190.02 346.896 190.197C346.926 190.375 346.994 190.544 347.096 190.693L350.997 196.576C351.095 196.728 351.225 196.856 351.376 196.953C351.528 197.05 351.699 197.113 351.876 197.138C352.053 197.162 352.233 197.148 352.403 197.095C352.574 197.043 352.73 196.953 352.861 196.834Z" fill="#FABD62"/>
<path d="M340.61 145.447L361.502 152.258C361.699 152.322 361.906 152.358 362.094 152.443C362.284 152.529 362.451 152.665 362.575 152.839C362.76 153.1 362.835 153.424 362.784 153.741C362.732 154.059 362.559 154.343 362.301 154.532C362.129 154.658 361.928 154.735 361.72 154.756C361.514 154.778 361.307 154.747 361.1 154.746L339.126 154.627C338.953 154.626 338.782 154.586 338.626 154.511C338.469 154.436 338.331 154.328 338.22 154.193C338.11 154.058 338.03 153.901 337.985 153.731C337.941 153.562 337.933 153.384 337.963 153.211L339.06 146.425C339.086 146.251 339.149 146.085 339.245 145.938C339.34 145.791 339.466 145.667 339.614 145.574C339.761 145.481 339.927 145.421 340.099 145.4C340.271 145.378 340.445 145.394 340.61 145.447Z" fill="#FABD62"/>
<path d="M448.533 136.576L430.157 145.137C429.877 145.268 429.565 145.352 429.329 145.552C429.225 145.64 429.138 145.747 429.072 145.869C428.93 146.131 428.897 146.439 428.98 146.726C429.063 147.014 429.255 147.257 429.514 147.402C429.635 147.47 429.766 147.514 429.901 147.533C430.207 147.577 430.516 147.482 430.823 147.443L450.934 144.889C451.094 144.869 451.248 144.813 451.384 144.726C451.52 144.64 451.635 144.524 451.723 144.387C451.81 144.25 451.866 144.096 451.888 143.934C451.91 143.772 451.897 143.607 451.85 143.451L450.075 137.305C450.032 137.147 449.955 137.001 449.85 136.876C449.745 136.751 449.615 136.65 449.468 136.581C449.322 136.511 449.162 136.475 449.001 136.474C448.839 136.473 448.68 136.508 448.533 136.576Z" fill="#FABD62"/>
<path d="M416.21 108.276L410.292 125.088C410.219 125.294 410.111 125.49 410.08 125.705C410.059 125.85 410.072 126.001 410.12 126.146C410.203 126.4 410.386 126.617 410.627 126.749C410.869 126.882 411.15 126.919 411.409 126.853C411.557 126.815 411.691 126.745 411.802 126.65C411.967 126.507 412.074 126.311 412.208 126.14L423.204 112.111C423.291 112 423.35 111.871 423.379 111.732C423.407 111.593 423.403 111.448 423.367 111.307C423.332 111.166 423.265 111.033 423.172 110.916C423.08 110.799 422.963 110.702 422.83 110.631L417.66 107.796C417.528 107.722 417.383 107.675 417.235 107.66C417.087 107.644 416.939 107.66 416.801 107.706C416.663 107.751 416.539 107.826 416.437 107.924C416.335 108.023 416.258 108.143 416.21 108.276Z" fill="#FABD62"/>
<path d="M380.345 217.107L387.278 198.75C387.348 198.564 387.392 198.368 387.484 198.192C387.568 198.033 387.69 197.897 387.841 197.797C388.073 197.642 388.356 197.587 388.625 197.646C388.895 197.704 389.13 197.87 389.278 198.107C389.374 198.26 389.429 198.435 389.439 198.614C389.451 198.812 389.41 199.009 389.397 199.207L388.142 218.79C388.132 218.944 388.089 219.095 388.017 219.232C387.944 219.368 387.844 219.488 387.722 219.581C387.601 219.675 387.462 219.74 387.314 219.773C387.166 219.806 387.013 219.806 386.866 219.772L381.102 218.528C380.955 218.498 380.816 218.436 380.695 218.345C380.573 218.254 380.473 218.136 380.401 218.001C380.329 217.866 380.287 217.716 380.277 217.562C380.268 217.407 380.291 217.252 380.345 217.107Z" fill="#FABD62"/>
<path d="M426.928 206.133L418.054 191.441C417.947 191.264 417.811 191.102 417.738 190.909C417.687 190.777 417.668 190.633 417.681 190.489C417.705 190.24 417.827 190.009 418.02 189.847C418.213 189.685 418.461 189.605 418.711 189.625C418.855 189.636 418.993 189.681 419.115 189.753C419.292 189.859 419.428 190.022 419.584 190.158L432.513 201.445C432.615 201.535 432.696 201.646 432.751 201.771C432.805 201.895 432.832 202.03 432.828 202.167C432.825 202.304 432.792 202.438 432.731 202.562C432.671 202.685 432.584 202.794 432.478 202.882L428.349 206.347C428.244 206.437 428.122 206.503 427.99 206.541C427.858 206.579 427.719 206.589 427.584 206.568C427.449 206.548 427.32 206.498 427.207 206.423C427.094 206.348 426.998 206.249 426.928 206.133Z" fill="#FABD62"/>
<path d="M452.326 183.682L427.49 176.726C427.043 176.601 426.601 176.383 426.138 176.415C425.999 176.424 425.861 176.454 425.729 176.505C425.374 176.64 425.086 176.912 424.927 177.259C424.769 177.607 424.753 178.003 424.883 178.359C424.932 178.493 424.999 178.616 425.083 178.727C425.363 179.098 425.817 179.289 426.205 179.544L447.739 193.739C447.911 193.852 448.106 193.925 448.31 193.954C448.514 193.984 448.723 193.967 448.921 193.907C449.119 193.847 449.302 193.744 449.458 193.606C449.614 193.467 449.739 193.297 449.823 193.106L453.214 185.671C453.303 185.482 453.35 185.276 453.353 185.068C453.355 184.859 453.312 184.654 453.228 184.464C453.143 184.275 453.019 184.107 452.863 183.972C452.707 183.837 452.524 183.738 452.326 183.682Z" fill="#FABD62"/>
<path d="M395.911 66L395.911 70.625L397.911 70.625L397.911 66L395.911 66ZM395.911 79.875L395.911 89.125L397.911 89.125L397.911 79.875L395.911 79.875ZM395.911 98.375L395.911 103L397.911 103L397.911 98.375L395.911 98.375Z" fill="#343A46"/>
<rect x="364.911" y="15" width="65" height="50.2663" rx="6" fill="#343A46" stroke="white" stroke-linejoin="bevel"/>
<path fill-rule="evenodd" clip-rule="evenodd" d="M364.911 59.2666V61.0002C364.911 64.3139 367.597 67.0002 370.911 67.0002H423.911C427.225 67.0002 429.911 64.3139 429.911 61.0002V59.2666C429.911 62.5803 427.225 65.2666 423.911 65.2666H370.911C367.597 65.2666 364.911 62.5803 364.911 59.2666Z" fill="white"/>
<path d="M388.562 48.24C387.675 48.24 386.898 48.0167 386.232 47.57C385.572 47.1167 385.058 46.4967 384.692 45.71C384.325 44.9167 384.142 44.0133 384.142 43C384.142 41.9867 384.325 41.0867 384.692 40.3C385.058 39.5067 385.572 38.8867 386.232 38.44C386.898 37.9867 387.675 37.76 388.562 37.76H388.782C389.442 37.76 390.052 37.9033 390.612 38.19C391.178 38.47 391.645 38.89 392.012 39.45V33.4H394.012V48H392.012V46.43C391.665 47.03 391.212 47.4833 390.652 47.79C390.092 48.09 389.468 48.24 388.782 48.24H388.562ZM389.062 46.39H389.262C389.855 46.39 390.388 46.2133 390.862 45.86C391.342 45.5067 391.725 45.0233 392.012 44.41V41.59C391.725 40.9767 391.342 40.4933 390.862 40.14C390.388 39.7867 389.855 39.61 389.262 39.61H389.062C388.188 39.61 387.495 39.9033 386.982 40.49C386.468 41.0767 386.212 41.9133 386.212 43C386.212 44.0867 386.468 44.9233 386.982 45.51C387.495 46.0967 388.188 46.39 389.062 46.39ZM397.957 36.22C397.551 36.22 397.227 36.0967 396.987 35.85C396.754 35.5967 396.637 35.2767 396.637 34.89C396.637 34.4967 396.754 34.1767 396.987 33.93C397.227 33.6833 397.551 33.56 397.957 33.56C398.371 33.56 398.694 33.6833 398.927 33.93C399.161 34.1767 399.277 34.4967 399.277 34.89C399.277 35.2767 399.161 35.5967 398.927 35.85C398.694 36.0967 398.371 36.22 397.957 36.22ZM396.957 48V38H398.957V48H396.957ZM404.789 48C404.069 46.38 403.382 44.73 402.729 43.05C402.082 41.3633 401.482 39.68 400.929 38H403.189C403.595 39.38 404.039 40.7633 404.519 42.15C405.005 43.5367 405.519 44.91 406.059 46.27C406.599 44.91 407.109 43.5367 407.589 42.15C408.075 40.7633 408.522 39.38 408.929 38H411.109C410.555 39.68 409.952 41.3633 409.299 43.05C408.652 44.73 407.969 46.38 407.249 48H404.789Z" fill="white"/>
<rect x="623.059" y="15" width="65" height="50.2663" rx="6" fill="#343A46" stroke="white" stroke-linejoin="bevel"/>
<path fill-rule="evenodd" clip-rule="evenodd" d="M623.059 59.2666V61.0002C623.059 64.3139 625.745 67.0002 629.059 67.0002H682.059C685.372 67.0002 688.059 64.3139 688.059 61.0002V59.2666C688.059 62.5803 685.372 65.2666 682.059 65.2666H629.059C625.745 65.2666 623.059 62.5803 623.059 59.2666Z" fill="white"/>
<path d="M646.709 48.24C645.822 48.24 645.046 48.0167 644.379 47.57C643.719 47.1167 643.206 46.4967 642.839 45.71C642.472 44.9167 642.289 44.0133 642.289 43C642.289 41.9867 642.472 41.0867 642.839 40.3C643.206 39.5067 643.719 38.8867 644.379 38.44C645.046 37.9867 645.822 37.76 646.709 37.76H646.929C647.589 37.76 648.199 37.9033 648.759 38.19C649.326 38.47 649.792 38.89 650.159 39.45V33.4H652.159V48H650.159V46.43C649.812 47.03 649.359 47.4833 648.799 47.79C648.239 48.09 647.616 48.24 646.929 48.24H646.709ZM647.209 46.39H647.409C648.002 46.39 648.536 46.2133 649.009 45.86C649.489 45.5067 649.872 45.0233 650.159 44.41V41.59C649.872 40.9767 649.489 40.4933 649.009 40.14C648.536 39.7867 648.002 39.61 647.409 39.61H647.209C646.336 39.61 645.642 39.9033 645.129 40.49C644.616 41.0767 644.359 41.9133 644.359 43C644.359 44.0867 644.616 44.9233 645.129 45.51C645.642 46.0967 646.336 46.39 647.209 46.39ZM656.105 36.22C655.698 36.22 655.375 36.0967 655.135 35.85C654.901 35.5967 654.785 35.2767 654.785 34.89C654.785 34.4967 654.901 34.1767 655.135 33.93C655.375 33.6833 655.698 33.56 656.105 33.56C656.518 33.56 656.841 33.6833 657.075 33.93C657.308 34.1767 657.425 34.4967 657.425 34.89C657.425 35.2767 657.308 35.5967 657.075 35.85C656.841 36.0967 656.518 36.22 656.105 36.22ZM655.105 48V38H657.105V48H655.105ZM662.936 48C662.216 46.38 661.53 44.73 660.876 43.05C660.23 41.3633 659.63 39.68 659.076 38H661.336C661.743 39.38 662.186 40.7633 662.666 42.15C663.153 43.5367 663.666 44.91 664.206 46.27C664.746 44.91 665.256 43.5367 665.736 42.15C666.223 40.7633 666.67 39.38 667.076 38H669.256C668.703 39.68 668.1 41.3633 667.446 43.05C666.8 44.73 666.116 46.38 665.396 48H662.936Z" fill="white"/>
<rect x="613.554" y="103.496" width="82" height="59" rx="9.5" fill="#343A46" stroke="#C76A15" stroke-width="3" stroke-linejoin="bevel"/>
<rect x="616.554" y="106.496" width="76" height="53" rx="6.5" fill="#343A46" stroke="#FABD62" stroke-width="3" stroke-linejoin="bevel"/>
<rect x="618.054" y="107.996" width="73" height="50" rx="6" fill="#343A46" stroke="#FABD62" stroke-linejoin="bevel"/>
<path d="M645.708 141.314C644.821 141.314 644.045 141.09 643.378 140.644C642.718 140.19 642.205 139.57 641.838 138.784C641.471 137.99 641.288 137.087 641.288 136.074C641.288 135.06 641.471 134.16 641.838 133.374C642.205 132.58 642.718 131.96 643.378 131.514C644.045 131.06 644.821 130.834 645.708 130.834H645.928C646.588 130.834 647.198 130.977 647.758 131.264C648.325 131.544 648.791 131.964 649.158 132.524V126.474H651.158V141.074H649.158V139.504C648.811 140.104 648.358 140.557 647.798 140.864C647.238 141.164 646.615 141.314 645.928 141.314H645.708ZM646.208 139.464H646.408C647.001 139.464 647.535 139.287 648.008 138.934C648.488 138.58 648.871 138.097 649.158 137.484V134.664C648.871 134.05 648.488 133.567 648.008 133.214C647.535 132.86 647.001 132.684 646.408 132.684H646.208C645.335 132.684 644.641 132.977 644.128 133.564C643.615 134.15 643.358 134.987 643.358 136.074C643.358 137.16 643.615 137.997 644.128 138.584C644.641 139.17 645.335 139.464 646.208 139.464ZM655.104 129.294C654.697 129.294 654.374 129.17 654.134 128.924C653.9 128.67 653.784 128.35 653.784 127.964C653.784 127.57 653.9 127.25 654.134 127.004C654.374 126.757 654.697 126.634 655.104 126.634C655.517 126.634 655.84 126.757 656.074 127.004C656.307 127.25 656.424 127.57 656.424 127.964C656.424 128.35 656.307 128.67 656.074 128.924C655.84 129.17 655.517 129.294 655.104 129.294ZM654.104 141.074V131.074H656.104V141.074H654.104ZM661.935 141.074C661.215 139.454 660.528 137.804 659.875 136.124C659.228 134.437 658.628 132.754 658.075 131.074H660.335C660.742 132.454 661.185 133.837 661.665 135.224C662.152 136.61 662.665 137.984 663.205 139.344C663.745 137.984 664.255 136.61 664.735 135.224C665.222 133.837 665.668 132.454 666.075 131.074H668.255C667.702 132.754 667.098 134.437 666.445 136.124C665.798 137.804 665.115 139.454 664.395 141.074H661.935Z" fill="white"/>
<path d="M590.618 160.656L603.305 155.221C603.47 155.115 603.674 155.086 603.873 155.139C604.072 155.192 604.249 155.324 604.366 155.505C604.483 155.686 604.53 155.902 604.496 156.106C604.462 156.309 604.351 156.483 604.186 156.589L593.998 165.9C593.919 165.972 593.824 166.024 593.72 166.052C593.615 166.08 593.505 166.083 593.395 166.062C593.285 166.041 593.179 165.995 593.084 165.929C592.988 165.862 592.907 165.776 592.844 165.676L590.345 161.8C590.28 161.701 590.235 161.591 590.214 161.477C590.193 161.363 590.195 161.247 590.221 161.139C590.247 161.03 590.296 160.93 590.365 160.847C590.433 160.764 590.52 160.698 590.618 160.656Z" fill="#FABD62"/>
<path d="M590.618 107.286L603.305 112.72C603.47 112.827 603.674 112.856 603.873 112.803C604.072 112.75 604.249 112.618 604.366 112.437C604.483 112.256 604.53 112.04 604.496 111.836C604.462 111.633 604.351 111.459 604.186 111.353L593.998 102.042C593.919 101.97 593.824 101.918 593.72 101.89C593.615 101.862 593.505 101.858 593.395 101.88C593.285 101.901 593.179 101.947 593.084 102.013C592.988 102.08 592.907 102.166 592.844 102.266L590.345 106.142C590.28 106.241 590.235 106.351 590.214 106.465C590.193 106.579 590.195 106.694 590.221 106.803C590.247 106.912 590.296 107.012 590.365 107.095C590.433 107.178 590.52 107.243 590.618 107.286Z" fill="#FABD62"/>
<path d="M581.342 137.811L602.075 135.8C602.37 135.817 602.661 135.715 602.882 135.515C603.104 135.315 603.238 135.034 603.256 134.734C603.273 134.434 603.172 134.139 602.976 133.915C602.779 133.69 602.502 133.555 602.206 133.537L581.847 129.134C581.689 129.1 581.525 129.101 581.367 129.138C581.209 129.175 581.061 129.246 580.933 129.346C580.804 129.447 580.699 129.574 580.624 129.72C580.549 129.866 580.506 130.026 580.499 130.19L580.125 136.605C580.114 136.769 580.138 136.933 580.195 137.087C580.253 137.24 580.342 137.379 580.458 137.494C580.574 137.609 580.713 137.696 580.865 137.751C581.018 137.806 581.181 137.826 581.342 137.811Z" fill="#FABD62"/>
<path d="M720.071 160.359L706.896 154.715C706.725 154.605 706.512 154.574 706.306 154.629C706.099 154.684 705.915 154.821 705.793 155.009C705.672 155.197 705.623 155.422 705.658 155.633C705.694 155.844 705.809 156.024 705.98 156.135L716.561 165.804C716.643 165.879 716.742 165.933 716.85 165.962C716.958 165.992 717.074 165.995 717.188 165.973C717.302 165.951 717.412 165.904 717.511 165.835C717.61 165.765 717.695 165.676 717.76 165.572L720.355 161.547C720.422 161.444 720.469 161.33 720.491 161.211C720.513 161.093 720.511 160.973 720.484 160.86C720.457 160.747 720.406 160.644 720.335 160.557C720.263 160.47 720.173 160.403 720.071 160.359Z" fill="#FABD62"/>
<path d="M720.071 104.932L706.896 110.576C706.725 110.686 706.512 110.717 706.306 110.662C706.099 110.606 705.915 110.47 705.793 110.281C705.672 110.093 705.623 109.869 705.658 109.658C705.694 109.447 705.809 109.266 705.98 109.156L716.561 99.4863C716.643 99.4113 716.742 99.3573 716.85 99.3282C716.958 99.299 717.074 99.2953 717.188 99.3174C717.302 99.3395 717.412 99.3868 717.511 99.456C717.61 99.5253 717.695 99.6148 717.76 99.7184L720.355 103.744C720.422 103.846 720.469 103.961 720.491 104.079C720.513 104.198 720.511 104.318 720.484 104.431C720.457 104.544 720.406 104.647 720.335 104.734C720.263 104.82 720.173 104.888 720.071 104.932Z" fill="#FABD62"/>
<path d="M729.705 136.633L708.173 134.545C707.866 134.562 707.564 134.456 707.334 134.248C707.104 134.04 706.965 133.749 706.947 133.437C706.929 133.125 707.033 132.819 707.238 132.586C707.442 132.353 707.729 132.213 708.036 132.195L729.18 127.621C729.345 127.586 729.515 127.588 729.679 127.626C729.843 127.664 729.997 127.738 730.13 127.842C730.263 127.947 730.372 128.079 730.45 128.23C730.528 128.382 730.572 128.548 730.58 128.719L730.968 135.381C730.98 135.551 730.955 135.721 730.896 135.881C730.836 136.04 730.743 136.184 730.623 136.304C730.502 136.423 730.358 136.514 730.2 136.571C730.041 136.628 729.872 136.649 729.705 136.633Z" fill="#FABD62"/>
<rect x="563.058" y="201" width="185" height="145" rx="13" fill="#343A46" stroke="#C76A15" stroke-width="4" stroke-linejoin="bevel"/>
<rect x="567.058" y="205" width="177" height="137" rx="9" fill="#343A46" stroke="#FABD62" stroke-width="4" stroke-linejoin="bevel"/>
<rect x="569.058" y="207" width="173" height="133" rx="6" fill="#343A46" stroke="#FABD62" stroke-linejoin="bevel"/>
<path d="M536.647 304.94L551.773 298.461C551.97 298.335 552.213 298.299 552.451 298.363C552.688 298.426 552.899 298.583 553.039 298.799C553.178 299.015 553.234 299.273 553.194 299.515C553.153 299.758 553.02 299.965 552.824 300.091L540.677 311.192C540.583 311.278 540.469 311.34 540.345 311.374C540.221 311.407 540.089 311.411 539.958 311.386C539.827 311.361 539.7 311.306 539.587 311.227C539.473 311.147 539.376 311.045 539.301 310.926L536.322 306.304C536.244 306.187 536.191 306.056 536.166 305.919C536.14 305.783 536.143 305.646 536.174 305.516C536.205 305.386 536.263 305.268 536.345 305.168C536.427 305.069 536.53 304.991 536.647 304.94Z" fill="#FABD62"/>
<path d="M536.647 241.31L551.773 247.789C551.97 247.915 552.213 247.951 552.451 247.887C552.688 247.824 552.899 247.667 553.039 247.451C553.178 247.235 553.234 246.977 553.194 246.735C553.153 246.492 553.02 246.285 552.824 246.159L540.677 235.058C540.583 234.972 540.469 234.91 540.345 234.876C540.221 234.843 540.089 234.839 539.958 234.864C539.827 234.889 539.7 234.944 539.587 235.023C539.473 235.103 539.376 235.205 539.301 235.324L536.322 239.946C536.244 240.063 536.191 240.194 536.166 240.331C536.14 240.467 536.143 240.604 536.174 240.734C536.205 240.864 536.263 240.982 536.345 241.082C536.427 241.181 536.53 241.259 536.647 241.31Z" fill="#FABD62"/>
<path d="M525.588 277.703L550.307 275.305C550.66 275.326 551.006 275.203 551.271 274.965C551.535 274.726 551.695 274.391 551.716 274.034C551.736 273.676 551.616 273.325 551.382 273.057C551.147 272.79 550.817 272.628 550.465 272.607L526.191 267.357C526.002 267.317 525.807 267.319 525.618 267.362C525.43 267.406 525.253 267.491 525.101 267.611C524.948 267.73 524.822 267.883 524.733 268.056C524.644 268.23 524.593 268.421 524.583 268.617L524.138 276.265C524.125 276.46 524.153 276.656 524.222 276.839C524.29 277.022 524.397 277.188 524.535 277.325C524.673 277.461 524.839 277.566 525.021 277.631C525.202 277.697 525.396 277.721 525.588 277.703Z" fill="#FABD62"/>
<path d="M774.471 304.94L759.345 298.461C759.149 298.335 758.905 298.299 758.668 298.363C758.43 298.426 758.219 298.583 758.08 298.799C757.94 299.015 757.884 299.273 757.925 299.515C757.965 299.758 758.098 299.965 758.294 300.091L770.441 311.192C770.536 311.278 770.649 311.34 770.773 311.374C770.897 311.407 771.03 311.411 771.161 311.386C771.292 311.361 771.418 311.306 771.532 311.227C771.645 311.147 771.742 311.045 771.817 310.926L774.797 306.304C774.874 306.187 774.927 306.056 774.953 305.919C774.978 305.783 774.976 305.646 774.945 305.516C774.914 305.386 774.855 305.268 774.773 305.168C774.692 305.069 774.588 304.991 774.471 304.94Z" fill="#FABD62"/>
<path d="M774.471 241.31L759.345 247.789C759.149 247.915 758.905 247.951 758.668 247.887C758.43 247.824 758.219 247.667 758.08 247.451C757.94 247.235 757.884 246.977 757.925 246.735C757.965 246.492 758.098 246.285 758.294 246.159L770.441 235.058C770.536 234.972 770.649 234.91 770.773 234.876C770.897 234.843 771.03 234.839 771.161 234.864C771.292 234.889 771.418 234.944 771.532 235.023C771.645 235.103 771.742 235.205 771.817 235.324L774.797 239.946C774.874 240.063 774.927 240.194 774.953 240.331C774.978 240.467 774.976 240.604 774.945 240.734C774.914 240.864 774.855 240.982 774.773 241.082C774.692 241.181 774.588 241.259 774.471 241.31Z" fill="#FABD62"/>
<path d="M785.53 277.703L760.811 275.305C760.458 275.326 760.112 275.203 759.848 274.965C759.584 274.726 759.424 274.391 759.403 274.034C759.382 273.676 759.502 273.325 759.737 273.057C759.971 272.79 760.301 272.628 760.654 272.607L784.928 267.357C785.116 267.317 785.312 267.319 785.5 267.362C785.688 267.406 785.865 267.491 786.018 267.611C786.171 267.73 786.296 267.883 786.385 268.056C786.475 268.23 786.526 268.421 786.535 268.617L786.98 276.265C786.994 276.46 786.965 276.656 786.897 276.839C786.828 277.022 786.721 277.188 786.583 277.325C786.445 277.461 786.28 277.566 786.098 277.631C785.916 277.697 785.722 277.721 785.53 277.703Z" fill="#FABD62"/>
<path d="M624.634 248.24C623.314 248.24 622.16 247.95 621.174 247.37C620.187 246.783 619.42 245.957 618.874 244.89C618.334 243.823 618.064 242.567 618.064 241.12C618.064 239.667 618.334 238.39 618.874 237.29C619.42 236.183 620.187 235.32 621.174 234.7C622.16 234.073 623.314 233.76 624.634 233.76H624.934C626.234 233.76 627.344 234.06 628.264 234.66C629.19 235.253 629.92 236.05 630.454 237.05L628.664 238.09C628.29 237.377 627.787 236.807 627.154 236.38C626.527 235.953 625.777 235.74 624.904 235.74H624.624C623.797 235.74 623.054 235.95 622.394 236.37C621.74 236.79 621.22 237.397 620.834 238.19C620.454 238.983 620.264 239.943 620.264 241.07C620.264 242.197 620.454 243.147 620.834 243.92C621.22 244.687 621.74 245.27 622.394 245.67C623.054 246.063 623.797 246.26 624.624 246.26H624.904C625.784 246.26 626.53 246.067 627.144 245.68C627.757 245.287 628.257 244.747 628.644 244.06L630.424 245.12C629.877 246.073 629.147 246.833 628.234 247.4C627.32 247.96 626.22 248.24 624.934 248.24H624.634ZM637.074 248.24C636.06 248.24 635.177 248.017 634.424 247.57C633.677 247.117 633.1 246.497 632.694 245.71C632.287 244.917 632.084 244.013 632.084 243C632.084 241.98 632.287 241.077 632.694 240.29C633.1 239.503 633.677 238.887 634.424 238.44C635.177 237.987 636.06 237.76 637.074 237.76H637.294C638.314 237.76 639.197 237.987 639.944 238.44C640.69 238.887 641.267 239.503 641.674 240.29C642.08 241.077 642.284 241.98 642.284 243C642.284 244.013 642.08 244.917 641.674 245.71C641.267 246.497 640.69 247.117 639.944 247.57C639.197 248.017 638.314 248.24 637.294 248.24H637.074ZM637.084 246.38H637.284C638.197 246.38 638.914 246.073 639.434 245.46C639.954 244.847 640.214 244.027 640.214 243C640.214 241.967 639.954 241.147 639.434 240.54C638.914 239.927 638.197 239.62 637.284 239.62H637.084C636.177 239.62 635.46 239.927 634.934 240.54C634.414 241.147 634.154 241.967 634.154 243C634.154 244.027 634.414 244.847 634.934 245.46C635.46 246.073 636.177 246.38 637.084 246.38ZM648.045 248.24C646.892 248.24 646.012 247.85 645.405 247.07C644.798 246.29 644.495 245.193 644.495 243.78V238H646.495V243.54C646.495 245.433 647.182 246.38 648.555 246.38H648.755C649.435 246.38 650.012 246.17 650.485 245.75C650.965 245.33 651.322 244.8 651.555 244.16V238H653.555V248H651.555V246.33C651.188 246.923 650.728 247.39 650.175 247.73C649.628 248.07 648.992 248.24 648.265 248.24H648.045ZM656.501 248V238H658.501V239.67C658.868 239.077 659.324 238.61 659.871 238.27C660.424 237.93 661.064 237.76 661.791 237.76H662.011C663.118 237.76 663.984 238.15 664.611 238.93C665.244 239.71 665.561 240.807 665.561 242.22V248H663.561V242.46C663.561 240.567 662.874 239.62 661.501 239.62H661.301C660.621 239.62 660.041 239.83 659.561 240.25C659.088 240.67 658.734 241.2 658.501 241.84V248H656.501ZM672.837 248.13C671.65 248.13 670.747 247.83 670.127 247.23C669.507 246.63 669.197 245.707 669.197 244.46V239.74H667.237V238H669.197V235.02H671.197V238H674.567V239.74H671.197V244.19C671.197 244.977 671.36 245.523 671.687 245.83C672.013 246.137 672.497 246.29 673.137 246.29C673.443 246.29 673.717 246.277 673.957 246.25C674.203 246.223 674.457 246.19 674.717 246.15V247.9C674.45 247.967 674.15 248.02 673.817 248.06C673.483 248.107 673.157 248.13 672.837 248.13ZM681.044 248.24C680.084 248.24 679.241 248.02 678.514 247.58C677.794 247.14 677.231 246.527 676.824 245.74C676.424 244.953 676.224 244.043 676.224 243.01C676.224 241.977 676.424 241.067 676.824 240.28C677.231 239.487 677.794 238.87 678.514 238.43C679.241 237.983 680.084 237.76 681.044 237.76H681.264C682.138 237.76 682.904 237.977 683.564 238.41C684.231 238.837 684.751 239.457 685.124 240.27C685.498 241.077 685.684 242.05 685.684 243.19V243.8H678.294C678.414 244.62 678.721 245.267 679.214 245.74C679.714 246.207 680.364 246.44 681.164 246.44H681.364C681.844 246.44 682.304 246.343 682.744 246.15C683.184 245.95 683.554 245.683 683.854 245.35L685.084 246.65C684.631 247.137 684.071 247.523 683.404 247.81C682.744 248.097 682.031 248.24 681.264 248.24H681.044ZM680.984 239.56C680.271 239.56 679.674 239.797 679.194 240.27C678.721 240.737 678.421 241.377 678.294 242.19H683.674C683.614 241.45 683.371 240.827 682.944 240.32C682.524 239.813 681.938 239.56 681.184 239.56H680.984ZM688.024 248V238H690.024V239.52C690.691 238.347 691.608 237.76 692.774 237.76C693.094 237.76 693.384 237.787 693.644 237.84V239.86C693.484 239.84 693.311 239.823 693.124 239.81C692.944 239.797 692.768 239.79 692.594 239.79C691.934 239.79 691.394 239.98 690.974 240.36C690.554 240.74 690.238 241.26 690.024 241.92V248H688.024Z" fill="white"/>
<path d="M589.058 292C589.058 278.193 600.251 267 614.058 267H676.058V317H614.058C600.251 317 589.058 305.807 589.058 292V292Z" fill="#343A46"/>
<path d="M615.122 300.22C614.176 300.22 613.342 300.01 612.622 299.59C611.902 299.163 611.339 298.563 610.932 297.79C610.532 297.01 610.332 296.09 610.332 295.03C610.332 293.97 610.532 293.05 610.932 292.27C611.332 291.49 611.892 290.89 612.612 290.47C613.332 290.043 614.169 289.83 615.122 289.83H615.322C616.096 289.83 616.812 290.02 617.472 290.4C618.132 290.78 618.669 291.297 619.082 291.95L617.872 292.82C617.566 292.347 617.196 291.977 616.762 291.71C616.329 291.437 615.836 291.3 615.282 291.3H615.092C614.132 291.3 613.372 291.64 612.812 292.32C612.252 292.993 611.972 293.897 611.972 295.03C611.972 296.157 612.252 297.06 612.812 297.74C613.372 298.413 614.132 298.75 615.092 298.75H615.282C615.842 298.75 616.342 298.63 616.782 298.39C617.229 298.15 617.612 297.827 617.932 297.42L619.082 298.36C618.656 298.94 618.116 299.397 617.462 299.73C616.809 300.057 616.096 300.22 615.322 300.22H615.122ZM625.798 300.22C624.804 300.22 623.944 299.997 623.218 299.55C622.491 299.103 621.928 298.49 621.528 297.71C621.134 296.93 620.938 296.037 620.938 295.03C620.938 294.017 621.134 293.12 621.528 292.34C621.928 291.56 622.491 290.947 623.218 290.5C623.944 290.053 624.804 289.83 625.798 289.83H625.998C626.991 289.83 627.851 290.053 628.578 290.5C629.304 290.947 629.864 291.56 630.258 292.34C630.658 293.12 630.858 294.017 630.858 295.03C630.858 296.037 630.658 296.93 630.258 297.71C629.864 298.49 629.304 299.103 628.578 299.55C627.851 299.997 626.991 300.22 625.998 300.22H625.798ZM625.808 298.76H625.988C626.981 298.76 627.768 298.42 628.348 297.74C628.928 297.06 629.218 296.157 629.218 295.03C629.218 293.897 628.928 292.993 628.348 292.32C627.768 291.64 626.981 291.3 625.988 291.3H625.808C624.814 291.3 624.028 291.64 623.448 292.32C622.868 292.993 622.578 293.897 622.578 295.03C622.578 296.157 622.868 297.06 623.448 297.74C624.028 298.42 624.814 298.76 625.808 298.76ZM636.87 300.22C635.717 300.22 634.837 299.843 634.23 299.09C633.624 298.337 633.32 297.267 633.32 295.88V290.05H634.9V295.65C634.9 296.677 635.09 297.453 635.47 297.98C635.857 298.5 636.454 298.76 637.26 298.76H637.44C638.18 298.76 638.814 298.52 639.34 298.04C639.867 297.553 640.254 296.947 640.5 296.22V290.05H642.08V300H640.5V298.11C640.134 298.763 639.66 299.28 639.08 299.66C638.5 300.033 637.83 300.22 637.07 300.22H636.87ZM645.277 300V290.05H646.857V291.94C647.224 291.287 647.697 290.773 648.277 290.4C648.857 290.02 649.527 289.83 650.287 289.83H650.487C651.614 289.83 652.487 290.207 653.107 290.96C653.727 291.707 654.037 292.777 654.037 294.17V300H652.457V294.4C652.457 293.373 652.267 292.6 651.887 292.08C651.507 291.56 650.911 291.3 650.097 291.3H649.907C649.167 291.3 648.534 291.54 648.007 292.02C647.487 292.5 647.104 293.103 646.857 293.83V300H645.277ZM661.374 300.12C660.268 300.12 659.414 299.843 658.814 299.29C658.214 298.737 657.914 297.857 657.914 296.65V291.42H655.954V290.05H657.914V287.02H659.494V290.05H663.014V291.42H659.494V296.43C659.494 297.263 659.674 297.847 660.034 298.18C660.401 298.507 660.921 298.67 661.594 298.67C661.888 298.67 662.154 298.657 662.394 298.63C662.634 298.597 662.884 298.553 663.144 298.5V299.89C662.871 299.957 662.581 300.01 662.274 300.05C661.968 300.097 661.668 300.12 661.374 300.12Z" fill="#8891EC"/>
<path d="M589.058 292C589.058 278.193 600.251 267 614.058 267H676.058V317H614.058C600.251 317 589.058 305.807 589.058 292V292Z" stroke="#8891EC" stroke-linejoin="bevel"/>
<path d="M676.058 267H697.058C710.865 267 722.058 278.193 722.058 292V292C722.058 305.807 710.865 317 697.058 317H676.058V267Z" fill="#343A46"/>
<path d="M694.93 300.22C693.804 300.22 692.837 299.93 692.03 299.35C691.224 298.77 690.604 297.94 690.17 296.86C689.744 295.78 689.53 294.493 689.53 293C689.53 291.507 689.744 290.22 690.17 289.14C690.604 288.06 691.224 287.23 692.03 286.65C692.837 286.07 693.804 285.78 694.93 285.78H695.18C696.307 285.78 697.27 286.07 698.07 286.65C698.877 287.23 699.494 288.06 699.92 289.14C700.354 290.22 700.57 291.507 700.57 293C700.57 294.493 700.354 295.78 699.92 296.86C699.494 297.94 698.877 298.77 698.07 299.35C697.27 299.93 696.307 300.22 695.18 300.22H694.93ZM694.94 298.69H695.17C696.33 298.69 697.234 298.213 697.88 297.26C698.534 296.3 698.86 294.88 698.86 293C698.86 291.12 698.534 289.703 697.88 288.75C697.234 287.79 696.33 287.31 695.17 287.31H694.94C693.78 287.31 692.874 287.79 692.22 288.75C691.567 289.703 691.24 291.12 691.24 293C691.24 294.88 691.567 296.3 692.22 297.26C692.874 298.213 693.78 298.69 694.94 298.69Z" fill="#8891EC"/>
<path d="M676.058 267H697.058C710.865 267 722.058 278.193 722.058 292V292C722.058 305.807 710.865 317 697.058 317H676.058V267Z" stroke="#8891EC" stroke-linejoin="bevel"/>
<path d="M656.059 102L656.059 67" stroke="#FABD62" stroke-width="3"/>
<path d="M656.059 199L656.059 164" stroke="#FABD62" stroke-width="3"/>
<path d="M240 128L270 128" stroke="white" stroke-width="4" stroke-linecap="round" stroke-linejoin="round"/>
<path d="M263 141.4L275 128.2L263 115" stroke="white" stroke-width="4" stroke-linecap="round" stroke-linejoin="round"/>
<path d="M492 129L522 129" stroke="white" stroke-width="4" stroke-linecap="round" stroke-linejoin="round"/>
<path d="M515 142.4L527 129.2L515 116" stroke="white" stroke-width="4" stroke-linecap="round" stroke-linejoin="round"/>
</svg>
