<svg width="441" height="248" viewBox="0 0 441 248" fill="none" xmlns="http://www.w3.org/2000/svg">
<rect x="169" y="1" width="83" height="50.2663" rx="6" fill="#343A46" stroke="white" stroke-linejoin="bevel"/>
<path fill-rule="evenodd" clip-rule="evenodd" d="M169 45.2666V47.0002C169 50.3139 171.686 53.0002 175 53.0002H246C249.314 53.0002 252 50.3139 252 47.0002V45.2666C252 48.5803 249.314 51.2666 246 51.2666H175C171.686 51.2666 169 48.5803 169 45.2666Z" fill="white"/>
<path d="M201.651 34.24C200.764 34.24 199.987 34.0167 199.321 33.57C198.661 33.1167 198.147 32.4967 197.781 31.71C197.414 30.9167 197.231 30.0133 197.231 29C197.231 27.9867 197.414 27.0867 197.781 26.3C198.147 25.5067 198.661 24.8867 199.321 24.44C199.987 23.9867 200.764 23.76 201.651 23.76H201.871C202.531 23.76 203.141 23.9033 203.701 24.19C204.267 24.47 204.734 24.89 205.101 25.45V19.4H207.101V34H205.101V32.43C204.754 33.03 204.301 33.4833 203.741 33.79C203.181 34.09 202.557 34.24 201.871 34.24H201.651ZM202.151 32.39H202.351C202.944 32.39 203.477 32.2133 203.951 31.86C204.431 31.5067 204.814 31.0233 205.101 30.41V27.59C204.814 26.9767 204.431 26.4933 203.951 26.14C203.477 25.7867 202.944 25.61 202.351 25.61H202.151C201.277 25.61 200.584 25.9033 200.071 26.49C199.557 27.0767 199.301 27.9133 199.301 29C199.301 30.0867 199.557 30.9233 200.071 31.51C200.584 32.0967 201.277 32.39 202.151 32.39ZM211.046 22.22C210.64 22.22 210.316 22.0967 210.076 21.85C209.843 21.5967 209.726 21.2767 209.726 20.89C209.726 20.4967 209.843 20.1767 210.076 19.93C210.316 19.6833 210.64 19.56 211.046 19.56C211.46 19.56 211.783 19.6833 212.016 19.93C212.25 20.1767 212.366 20.4967 212.366 20.89C212.366 21.2767 212.25 21.5967 212.016 21.85C211.783 22.0967 211.46 22.22 211.046 22.22ZM210.046 34V24H212.046V34H210.046ZM217.878 34C217.158 32.38 216.471 30.73 215.818 29.05C215.171 27.3633 214.571 25.68 214.018 24H216.278C216.684 25.38 217.128 26.7633 217.608 28.15C218.094 29.5367 218.608 30.91 219.148 32.27C219.688 30.91 220.198 29.5367 220.678 28.15C221.164 26.7633 221.611 25.38 222.018 24H224.198C223.644 25.68 223.041 27.3633 222.388 29.05C221.741 30.73 221.058 32.38 220.338 34H217.878Z" fill="white"/>
<rect x="1" y="113" width="173" height="133" rx="6" fill="#343A46" stroke="white" stroke-linejoin="bevel"/>
<path fill-rule="evenodd" clip-rule="evenodd" d="M1 240V242C1 245.314 3.68629 248 7 248H168C171.314 248 174 245.314 174 242V240C174 243.314 171.314 246 168 246H7C3.68629 246 1 243.314 1 240Z" fill="white"/>
<path d="M56.5753 155.24C55.2553 155.24 54.102 154.95 53.1153 154.37C52.1286 153.783 51.362 152.957 50.8153 151.89C50.2753 150.823 50.0053 149.567 50.0053 148.12C50.0053 146.667 50.2753 145.39 50.8153 144.29C51.362 143.183 52.1286 142.32 53.1153 141.7C54.102 141.073 55.2553 140.76 56.5753 140.76H56.8753C58.1753 140.76 59.2853 141.06 60.2053 141.66C61.132 142.253 61.862 143.05 62.3953 144.05L60.6053 145.09C60.232 144.377 59.7286 143.807 59.0953 143.38C58.4686 142.953 57.7186 142.74 56.8453 142.74H56.5653C55.7386 142.74 54.9953 142.95 54.3353 143.37C53.682 143.79 53.162 144.397 52.7753 145.19C52.3953 145.983 52.2053 146.943 52.2053 148.07C52.2053 149.197 52.3953 150.147 52.7753 150.92C53.162 151.687 53.682 152.27 54.3353 152.67C54.9953 153.063 55.7386 153.26 56.5653 153.26H56.8453C57.7253 153.26 58.472 153.067 59.0853 152.68C59.6986 152.287 60.1986 151.747 60.5853 151.06L62.3653 152.12C61.8186 153.073 61.0886 153.833 60.1753 154.4C59.262 154.96 58.162 155.24 56.8753 155.24H56.5753ZM69.0155 155.24C68.0021 155.24 67.1188 155.017 66.3655 154.57C65.6188 154.117 65.0421 153.497 64.6355 152.71C64.2288 151.917 64.0255 151.013 64.0255 150C64.0255 148.98 64.2288 148.077 64.6355 147.29C65.0421 146.503 65.6188 145.887 66.3655 145.44C67.1188 144.987 68.0021 144.76 69.0155 144.76H69.2355C70.2555 144.76 71.1388 144.987 71.8855 145.44C72.6321 145.887 73.2088 146.503 73.6155 147.29C74.0221 148.077 74.2255 148.98 74.2255 150C74.2255 151.013 74.0221 151.917 73.6155 152.71C73.2088 153.497 72.6321 154.117 71.8855 154.57C71.1388 155.017 70.2555 155.24 69.2355 155.24H69.0155ZM69.0255 153.38H69.2255C70.1388 153.38 70.8555 153.073 71.3755 152.46C71.8955 151.847 72.1555 151.027 72.1555 150C72.1555 148.967 71.8955 148.147 71.3755 147.54C70.8555 146.927 70.1388 146.62 69.2255 146.62H69.0255C68.1188 146.62 67.4021 146.927 66.8755 147.54C66.3555 148.147 66.0955 148.967 66.0955 150C66.0955 151.027 66.3555 151.847 66.8755 152.46C67.4021 153.073 68.1188 153.38 69.0255 153.38ZM79.9867 155.24C78.8334 155.24 77.9534 154.85 77.3467 154.07C76.7401 153.29 76.4367 152.193 76.4367 150.78V145H78.4367V150.54C78.4367 152.433 79.1234 153.38 80.4967 153.38H80.6967C81.3767 153.38 81.9534 153.17 82.4267 152.75C82.9067 152.33 83.2634 151.8 83.4967 151.16V145H85.4967V155H83.4967V153.33C83.1301 153.923 82.6701 154.39 82.1167 154.73C81.5701 155.07 80.9334 155.24 80.2067 155.24H79.9867ZM88.4427 155V145H90.4427V146.67C90.8093 146.077 91.266 145.61 91.8127 145.27C92.366 144.93 93.006 144.76 93.7327 144.76H93.9527C95.0593 144.76 95.926 145.15 96.5527 145.93C97.186 146.71 97.5027 147.807 97.5027 149.22V155H95.5027V149.46C95.5027 147.567 94.816 146.62 93.4427 146.62H93.2427C92.5627 146.62 91.9827 146.83 91.5027 147.25C91.0293 147.67 90.676 148.2 90.4427 148.84V155H88.4427ZM104.779 155.13C103.592 155.13 102.689 154.83 102.069 154.23C101.449 153.63 101.139 152.707 101.139 151.46V146.74H99.1786V145H101.139V142.02H103.139V145H106.509V146.74H103.139V151.19C103.139 151.977 103.302 152.523 103.629 152.83C103.955 153.137 104.439 153.29 105.079 153.29C105.385 153.29 105.659 153.277 105.899 153.25C106.145 153.223 106.399 153.19 106.659 153.15V154.9C106.392 154.967 106.092 155.02 105.759 155.06C105.425 155.107 105.099 155.13 104.779 155.13ZM112.986 155.24C112.026 155.24 111.183 155.02 110.456 154.58C109.736 154.14 109.173 153.527 108.766 152.74C108.366 151.953 108.166 151.043 108.166 150.01C108.166 148.977 108.366 148.067 108.766 147.28C109.173 146.487 109.736 145.87 110.456 145.43C111.183 144.983 112.026 144.76 112.986 144.76H113.206C114.079 144.76 114.846 144.977 115.506 145.41C116.173 145.837 116.693 146.457 117.066 147.27C117.439 148.077 117.626 149.05 117.626 150.19V150.8H110.236C110.356 151.62 110.663 152.267 111.156 152.74C111.656 153.207 112.306 153.44 113.106 153.44H113.306C113.786 153.44 114.246 153.343 114.686 153.15C115.126 152.95 115.496 152.683 115.796 152.35L117.026 153.65C116.573 154.137 116.013 154.523 115.346 154.81C114.686 155.097 113.973 155.24 113.206 155.24H112.986ZM112.926 146.56C112.213 146.56 111.616 146.797 111.136 147.27C110.663 147.737 110.363 148.377 110.236 149.19H115.616C115.556 148.45 115.313 147.827 114.886 147.32C114.466 146.813 113.879 146.56 113.126 146.56H112.926ZM119.966 155V145H121.966V146.52C122.633 145.347 123.549 144.76 124.716 144.76C125.036 144.76 125.326 144.787 125.586 144.84V146.86C125.426 146.84 125.253 146.823 125.066 146.81C124.886 146.797 124.709 146.79 124.536 146.79C123.876 146.79 123.336 146.98 122.916 147.36C122.496 147.74 122.179 148.26 121.966 148.92V155H119.966Z" fill="white"/>
<path d="M21 199C21 185.193 32.1929 174 46 174H108V224H46C32.1929 224 21 212.807 21 199V199Z" fill="#343A46"/>
<path d="M47.0641 207.22C46.1175 207.22 45.2841 207.01 44.5641 206.59C43.8441 206.163 43.2808 205.563 42.8741 204.79C42.4741 204.01 42.2741 203.09 42.2741 202.03C42.2741 200.97 42.4741 200.05 42.8741 199.27C43.2741 198.49 43.8341 197.89 44.5541 197.47C45.2741 197.043 46.1108 196.83 47.0641 196.83H47.2641C48.0375 196.83 48.7541 197.02 49.4141 197.4C50.0741 197.78 50.6108 198.297 51.0241 198.95L49.8141 199.82C49.5075 199.347 49.1375 198.977 48.7041 198.71C48.2708 198.437 47.7775 198.3 47.2241 198.3H47.0341C46.0741 198.3 45.3141 198.64 44.7541 199.32C44.1941 199.993 43.9141 200.897 43.9141 202.03C43.9141 203.157 44.1941 204.06 44.7541 204.74C45.3141 205.413 46.0741 205.75 47.0341 205.75H47.2241C47.7841 205.75 48.2841 205.63 48.7241 205.39C49.1708 205.15 49.5541 204.827 49.8741 204.42L51.0241 205.36C50.5975 205.94 50.0575 206.397 49.4041 206.73C48.7508 207.057 48.0375 207.22 47.2641 207.22H47.0641ZM57.7396 207.22C56.7463 207.22 55.8863 206.997 55.1596 206.55C54.4329 206.103 53.8696 205.49 53.4696 204.71C53.0763 203.93 52.8796 203.037 52.8796 202.03C52.8796 201.017 53.0763 200.12 53.4696 199.34C53.8696 198.56 54.4329 197.947 55.1596 197.5C55.8863 197.053 56.7463 196.83 57.7396 196.83H57.9396C58.9329 196.83 59.7929 197.053 60.5196 197.5C61.2463 197.947 61.8063 198.56 62.1996 199.34C62.5996 200.12 62.7996 201.017 62.7996 202.03C62.7996 203.037 62.5996 203.93 62.1996 204.71C61.8063 205.49 61.2463 206.103 60.5196 206.55C59.7929 206.997 58.9329 207.22 57.9396 207.22H57.7396ZM57.7496 205.76H57.9296C58.9229 205.76 59.7096 205.42 60.2896 204.74C60.8696 204.06 61.1596 203.157 61.1596 202.03C61.1596 200.897 60.8696 199.993 60.2896 199.32C59.7096 198.64 58.9229 198.3 57.9296 198.3H57.7496C56.7563 198.3 55.9696 198.64 55.3896 199.32C54.8096 199.993 54.5196 200.897 54.5196 202.03C54.5196 203.157 54.8096 204.06 55.3896 204.74C55.9696 205.42 56.7563 205.76 57.7496 205.76ZM68.8123 207.22C67.6589 207.22 66.7789 206.843 66.1723 206.09C65.5656 205.337 65.2623 204.267 65.2623 202.88V197.05H66.8423V202.65C66.8423 203.677 67.0323 204.453 67.4123 204.98C67.7989 205.5 68.3956 205.76 69.2023 205.76H69.3823C70.1223 205.76 70.7556 205.52 71.2823 205.04C71.8089 204.553 72.1956 203.947 72.4423 203.22V197.05H74.0223V207H72.4423V205.11C72.0756 205.763 71.6023 206.28 71.0223 206.66C70.4423 207.033 69.7723 207.22 69.0123 207.22H68.8123ZM77.2191 207V197.05H78.7991V198.94C79.1658 198.287 79.6391 197.773 80.2191 197.4C80.7991 197.02 81.4691 196.83 82.2291 196.83H82.4291C83.5558 196.83 84.4291 197.207 85.0491 197.96C85.6691 198.707 85.9791 199.777 85.9791 201.17V207H84.3991V201.4C84.3991 200.373 84.2091 199.6 83.8291 199.08C83.4491 198.56 82.8525 198.3 82.0391 198.3H81.8491C81.1091 198.3 80.4758 198.54 79.9491 199.02C79.4291 199.5 79.0458 200.103 78.7991 200.83V207H77.2191ZM93.316 207.12C92.2093 207.12 91.356 206.843 90.756 206.29C90.156 205.737 89.856 204.857 89.856 203.65V198.42H87.896V197.05H89.856V194.02H91.436V197.05H94.956V198.42H91.436V203.43C91.436 204.263 91.616 204.847 91.976 205.18C92.3427 205.507 92.8627 205.67 93.536 205.67C93.8293 205.67 94.096 205.657 94.336 205.63C94.576 205.597 94.826 205.553 95.086 205.5V206.89C94.8127 206.957 94.5227 207.01 94.216 207.05C93.9093 207.097 93.6093 207.12 93.316 207.12Z" fill="#8891EC"/>
<path d="M21 199C21 185.193 32.1929 174 46 174H108V224H46C32.1929 224 21 212.807 21 199V199Z" stroke="#8891EC" stroke-linejoin="bevel"/>
<path d="M108 174H129C142.807 174 154 185.193 154 199V199C154 212.807 142.807 224 129 224H108V174Z" fill="#343A46"/>
<path d="M126.872 207.22C125.745 207.22 124.779 206.93 123.972 206.35C123.165 205.77 122.545 204.94 122.112 203.86C121.685 202.78 121.472 201.493 121.472 200C121.472 198.507 121.685 197.22 122.112 196.14C122.545 195.06 123.165 194.23 123.972 193.65C124.779 193.07 125.745 192.78 126.872 192.78H127.122C128.249 192.78 129.212 193.07 130.012 193.65C130.819 194.23 131.435 195.06 131.862 196.14C132.295 197.22 132.512 198.507 132.512 200C132.512 201.493 132.295 202.78 131.862 203.86C131.435 204.94 130.819 205.77 130.012 206.35C129.212 206.93 128.249 207.22 127.122 207.22H126.872ZM126.882 205.69H127.112C128.272 205.69 129.175 205.213 129.822 204.26C130.475 203.3 130.802 201.88 130.802 200C130.802 198.12 130.475 196.703 129.822 195.75C129.175 194.79 128.272 194.31 127.112 194.31H126.882C125.722 194.31 124.815 194.79 124.162 195.75C123.509 196.703 123.182 198.12 123.182 200C123.182 201.88 123.509 203.3 124.162 204.26C124.815 205.213 125.722 205.69 126.882 205.69Z" fill="#8891EC"/>
<path d="M108 174H129C142.807 174 154 185.193 154 199V199C154 212.807 142.807 224 129 224H108V174Z" stroke="#8891EC" stroke-linejoin="bevel"/>
<rect x="239" y="113" width="189" height="133" rx="6" fill="#343A46"/>
<rect x="239" y="113" width="189" height="133" rx="6" stroke="white" stroke-linejoin="bevel"/>
<path fill-rule="evenodd" clip-rule="evenodd" d="M239 240V242C239 245.314 241.686 248 245 248H422C425.314 248 428 245.314 428 242V240C428 243.314 425.314 246 422 246H245C241.686 246 239 243.314 239 240Z" fill="white"/>
<path d="M311.98 155.24C310.66 155.24 309.506 154.95 308.52 154.37C307.533 153.783 306.766 152.957 306.22 151.89C305.68 150.823 305.41 149.567 305.41 148.12C305.41 146.667 305.68 145.39 306.22 144.29C306.766 143.183 307.533 142.32 308.52 141.7C309.506 141.073 310.66 140.76 311.98 140.76H312.28C313.58 140.76 314.69 141.06 315.61 141.66C316.536 142.253 317.266 143.05 317.8 144.05L316.01 145.09C315.636 144.377 315.133 143.807 314.5 143.38C313.873 142.953 313.123 142.74 312.25 142.74H311.97C311.143 142.74 310.4 142.95 309.74 143.37C309.086 143.79 308.566 144.397 308.18 145.19C307.8 145.983 307.61 146.943 307.61 148.07C307.61 149.197 307.8 150.147 308.18 150.92C308.566 151.687 309.086 152.27 309.74 152.67C310.4 153.063 311.143 153.26 311.97 153.26H312.25C313.13 153.26 313.876 153.067 314.49 152.68C315.103 152.287 315.603 151.747 315.99 151.06L317.77 152.12C317.223 153.073 316.493 153.833 315.58 154.4C314.666 154.96 313.566 155.24 312.28 155.24H311.98ZM324.42 155.24C323.406 155.24 322.523 155.017 321.77 154.57C321.023 154.117 320.446 153.497 320.04 152.71C319.633 151.917 319.43 151.013 319.43 150C319.43 148.98 319.633 148.077 320.04 147.29C320.446 146.503 321.023 145.887 321.77 145.44C322.523 144.987 323.406 144.76 324.42 144.76H324.64C325.66 144.76 326.543 144.987 327.29 145.44C328.036 145.887 328.613 146.503 329.02 147.29C329.426 148.077 329.63 148.98 329.63 150C329.63 151.013 329.426 151.917 329.02 152.71C328.613 153.497 328.036 154.117 327.29 154.57C326.543 155.017 325.66 155.24 324.64 155.24H324.42ZM324.43 153.38H324.63C325.543 153.38 326.26 153.073 326.78 152.46C327.3 151.847 327.56 151.027 327.56 150C327.56 148.967 327.3 148.147 326.78 147.54C326.26 146.927 325.543 146.62 324.63 146.62H324.43C323.523 146.62 322.806 146.927 322.28 147.54C321.76 148.147 321.5 148.967 321.5 150C321.5 151.027 321.76 151.847 322.28 152.46C322.806 153.073 323.523 153.38 324.43 153.38ZM335.391 155.24C334.238 155.24 333.358 154.85 332.751 154.07C332.144 153.29 331.841 152.193 331.841 150.78V145H333.841V150.54C333.841 152.433 334.528 153.38 335.901 153.38H336.101C336.781 153.38 337.358 153.17 337.831 152.75C338.311 152.33 338.668 151.8 338.901 151.16V145H340.901V155H338.901V153.33C338.534 153.923 338.074 154.39 337.521 154.73C336.974 155.07 336.338 155.24 335.611 155.24H335.391ZM343.847 155V145H345.847V146.67C346.214 146.077 346.67 145.61 347.217 145.27C347.77 144.93 348.41 144.76 349.137 144.76H349.357C350.464 144.76 351.33 145.15 351.957 145.93C352.59 146.71 352.907 147.807 352.907 149.22V155H350.907V149.46C350.907 147.567 350.22 146.62 348.847 146.62H348.647C347.967 146.62 347.387 146.83 346.907 147.25C346.434 147.67 346.08 148.2 345.847 148.84V155H343.847ZM360.183 155.13C358.996 155.13 358.093 154.83 357.473 154.23C356.853 153.63 356.543 152.707 356.543 151.46V146.74H354.583V145H356.543V142.02H358.543V145H361.913V146.74H358.543V151.19C358.543 151.977 358.706 152.523 359.033 152.83C359.36 153.137 359.843 153.29 360.483 153.29C360.79 153.29 361.063 153.277 361.303 153.25C361.55 153.223 361.803 153.19 362.063 153.15V154.9C361.796 154.967 361.496 155.02 361.163 155.06C360.83 155.107 360.503 155.13 360.183 155.13Z" fill="white"/>
<rect x="261" y="168" width="145" height="62" rx="31" stroke="#C76A15" stroke-width="4" stroke-linejoin="bevel"/>
<rect x="265" y="172" width="137" height="54" rx="27" stroke="#FABD62" stroke-width="4" stroke-linejoin="bevel"/>
<path d="M267 199C267 185.193 278.193 174 292 174H354V224H292C278.193 224 267 212.807 267 199V199Z" fill="#343A46"/>
<path d="M293.064 207.22C292.117 207.22 291.284 207.01 290.564 206.59C289.844 206.163 289.281 205.563 288.874 204.79C288.474 204.01 288.274 203.09 288.274 202.03C288.274 200.97 288.474 200.05 288.874 199.27C289.274 198.49 289.834 197.89 290.554 197.47C291.274 197.043 292.111 196.83 293.064 196.83H293.264C294.037 196.83 294.754 197.02 295.414 197.4C296.074 197.78 296.611 198.297 297.024 198.95L295.814 199.82C295.507 199.347 295.137 198.977 294.704 198.71C294.271 198.437 293.777 198.3 293.224 198.3H293.034C292.074 198.3 291.314 198.64 290.754 199.32C290.194 199.993 289.914 200.897 289.914 202.03C289.914 203.157 290.194 204.06 290.754 204.74C291.314 205.413 292.074 205.75 293.034 205.75H293.224C293.784 205.75 294.284 205.63 294.724 205.39C295.171 205.15 295.554 204.827 295.874 204.42L297.024 205.36C296.597 205.94 296.057 206.397 295.404 206.73C294.751 207.057 294.037 207.22 293.264 207.22H293.064ZM303.74 207.22C302.746 207.22 301.886 206.997 301.16 206.55C300.433 206.103 299.87 205.49 299.47 204.71C299.076 203.93 298.88 203.037 298.88 202.03C298.88 201.017 299.076 200.12 299.47 199.34C299.87 198.56 300.433 197.947 301.16 197.5C301.886 197.053 302.746 196.83 303.74 196.83H303.94C304.933 196.83 305.793 197.053 306.52 197.5C307.246 197.947 307.806 198.56 308.2 199.34C308.6 200.12 308.8 201.017 308.8 202.03C308.8 203.037 308.6 203.93 308.2 204.71C307.806 205.49 307.246 206.103 306.52 206.55C305.793 206.997 304.933 207.22 303.94 207.22H303.74ZM303.75 205.76H303.93C304.923 205.76 305.71 205.42 306.29 204.74C306.87 204.06 307.16 203.157 307.16 202.03C307.16 200.897 306.87 199.993 306.29 199.32C305.71 198.64 304.923 198.3 303.93 198.3H303.75C302.756 198.3 301.97 198.64 301.39 199.32C300.81 199.993 300.52 200.897 300.52 202.03C300.52 203.157 300.81 204.06 301.39 204.74C301.97 205.42 302.756 205.76 303.75 205.76ZM314.812 207.22C313.659 207.22 312.779 206.843 312.172 206.09C311.566 205.337 311.262 204.267 311.262 202.88V197.05H312.842V202.65C312.842 203.677 313.032 204.453 313.412 204.98C313.799 205.5 314.396 205.76 315.202 205.76H315.382C316.122 205.76 316.756 205.52 317.282 205.04C317.809 204.553 318.196 203.947 318.442 203.22V197.05H320.022V207H318.442V205.11C318.076 205.763 317.602 206.28 317.022 206.66C316.442 207.033 315.772 207.22 315.012 207.22H314.812ZM323.219 207V197.05H324.799V198.94C325.166 198.287 325.639 197.773 326.219 197.4C326.799 197.02 327.469 196.83 328.229 196.83H328.429C329.556 196.83 330.429 197.207 331.049 197.96C331.669 198.707 331.979 199.777 331.979 201.17V207H330.399V201.4C330.399 200.373 330.209 199.6 329.829 199.08C329.449 198.56 328.852 198.3 328.039 198.3H327.849C327.109 198.3 326.476 198.54 325.949 199.02C325.429 199.5 325.046 200.103 324.799 200.83V207H323.219ZM339.316 207.12C338.209 207.12 337.356 206.843 336.756 206.29C336.156 205.737 335.856 204.857 335.856 203.65V198.42H333.896V197.05H335.856V194.02H337.436V197.05H340.956V198.42H337.436V203.43C337.436 204.263 337.616 204.847 337.976 205.18C338.343 205.507 338.863 205.67 339.536 205.67C339.829 205.67 340.096 205.657 340.336 205.63C340.576 205.597 340.826 205.553 341.086 205.5V206.89C340.813 206.957 340.523 207.01 340.216 207.05C339.909 207.097 339.609 207.12 339.316 207.12Z" fill="#8891EC"/>
<path d="M267 199C267 185.193 278.193 174 292 174H354V224H292C278.193 224 267 212.807 267 199V199Z" stroke="#FABD62" stroke-linejoin="bevel"/>
<path d="M355.5 174H373.5C387.307 174 398.5 185.193 398.5 199V199C398.5 212.807 387.307 224 373.5 224H355.5V174Z" fill="#343A46"/>
<path d="M372.74 207V196L370.04 198.44L368.37 196.5L372.25 193H375.55V207H372.74Z" fill="#8891EC"/>
<path d="M355.5 174H373.5C387.307 174 398.5 185.193 398.5 199V199C398.5 212.807 387.307 224 373.5 224H355.5V174Z" stroke="#FABD62" stroke-linejoin="bevel"/>
<path d="M410.406 172.833L408.676 177.529C408.625 177.667 408.533 177.786 408.412 177.871C408.291 177.955 408.147 178 408 178C407.853 178 407.709 177.955 407.588 177.871C407.467 177.786 407.375 177.667 407.324 177.529L405.594 172.833C405.558 172.735 405.501 172.646 405.428 172.572C405.354 172.499 405.265 172.442 405.167 172.406L400.471 170.676C400.333 170.625 400.214 170.533 400.129 170.412C400.045 170.291 400 170.147 400 170C400 169.853 400.045 169.709 400.129 169.588C400.214 169.467 400.333 169.375 400.471 169.324L405.167 167.594C405.265 167.558 405.354 167.501 405.428 167.428C405.501 167.354 405.558 167.265 405.594 167.167L407.324 162.471C407.375 162.333 407.467 162.214 407.588 162.129C407.709 162.045 407.853 162 408 162C408.147 162 408.291 162.045 408.412 162.129C408.533 162.214 408.625 162.333 408.676 162.471L410.406 167.167C410.442 167.265 410.499 167.354 410.572 167.428C410.646 167.501 410.735 167.558 410.833 167.594L415.529 169.324C415.667 169.375 415.786 169.467 415.871 169.588C415.955 169.709 416 169.853 416 170C416 170.147 415.955 170.291 415.871 170.412C415.786 170.533 415.667 170.625 415.529 170.676L410.833 172.406C410.735 172.442 410.646 172.499 410.572 172.572C410.499 172.646 410.442 172.735 410.406 172.833V172.833Z" fill="#FABD62"/>
<path d="M417.504 184.77L416.422 187.705C416.391 187.792 416.333 187.866 416.257 187.919C416.182 187.972 416.092 188 416 188C415.908 188 415.818 187.972 415.743 187.919C415.667 187.866 415.609 187.792 415.578 187.705L414.496 184.77C414.474 184.709 414.438 184.654 414.392 184.608C414.346 184.562 414.291 184.526 414.23 184.504L411.295 183.422C411.208 183.391 411.134 183.333 411.081 183.257C411.028 183.182 411 183.092 411 183C411 182.908 411.028 182.818 411.081 182.743C411.134 182.667 411.208 182.609 411.295 182.578L414.23 181.496C414.291 181.474 414.346 181.438 414.392 181.392C414.438 181.346 414.474 181.291 414.496 181.23L415.578 178.295C415.609 178.208 415.667 178.134 415.743 178.081C415.818 178.028 415.908 178 416 178C416.092 178 416.182 178.028 416.257 178.081C416.333 178.134 416.391 178.208 416.422 178.295L417.504 181.23C417.526 181.291 417.562 181.346 417.608 181.392C417.654 181.438 417.709 181.474 417.77 181.496L420.705 182.578C420.792 182.609 420.866 182.667 420.919 182.743C420.972 182.818 421 182.908 421 183C421 183.092 420.972 183.182 420.919 183.257C420.866 183.333 420.792 183.391 420.705 183.422L417.77 184.504C417.709 184.526 417.654 184.562 417.608 184.608C417.562 184.654 417.526 184.709 417.504 184.77V184.77Z" fill="#FABD62"/>
<path d="M101 111V97.617C101 88.7805 108.163 81.617 117 81.617H195C203.837 81.617 211 74.4536 211 65.617V51" stroke="white" stroke-width="2"/>
<path d="M321 111V97.617C321 88.7805 313.837 81.617 305 81.617H227C218.163 81.617 211 74.4536 211 65.617V51" stroke="white" stroke-width="2"/>
</svg>
