<svg width="600" height="461" viewBox="0 0 600 461" fill="none" xmlns="http://www.w3.org/2000/svg">
<rect x="369" y="1" width="230" height="136" rx="6" fill="white" stroke="#2C749E" stroke-linejoin="bevel"/>
<path fill-rule="evenodd" clip-rule="evenodd" d="M369 131V133C369 136.314 371.686 139 375 139H593C596.314 139 599 136.314 599 133V131C599 134.314 596.314 137 593 137H375C371.686 137 369 134.314 369 131Z" fill="#2C749E"/>
<path d="M465.229 43C465.669 41.4667 466.175 39.8833 466.749 38.25C467.322 36.6167 467.925 35.01 468.559 33.43C469.199 31.8433 469.839 30.3667 470.479 29H472.999C473.639 30.3667 474.279 31.8433 474.919 33.43C475.559 35.01 476.162 36.6167 476.729 38.25C477.302 39.8833 477.809 41.4667 478.249 43H475.959C475.805 42.4133 475.635 41.81 475.449 41.19C475.269 40.57 475.079 39.94 474.879 39.3H468.529C468.329 39.94 468.135 40.57 467.949 41.19C467.769 41.81 467.602 42.4133 467.449 43H465.229ZM469.189 37.34H474.219C473.819 36.1933 473.402 35.0667 472.969 33.96C472.542 32.8467 472.119 31.8033 471.699 30.83C471.285 31.8033 470.862 32.8467 470.429 33.96C470.002 35.0667 469.589 36.1933 469.189 37.34ZM480.46 47.2V33H482.46V34.57C482.807 33.97 483.26 33.52 483.82 33.22C484.38 32.9133 485.004 32.76 485.69 32.76H485.91C486.797 32.76 487.57 32.9867 488.23 33.44C488.897 33.8867 489.414 34.5067 489.78 35.3C490.147 36.0867 490.33 36.9867 490.33 38C490.33 39.0133 490.147 39.9167 489.78 40.71C489.414 41.4967 488.897 42.1167 488.23 42.57C487.57 43.0167 486.797 43.24 485.91 43.24H485.69C485.03 43.24 484.417 43.1 483.85 42.82C483.29 42.5333 482.827 42.11 482.46 41.55V47.2H480.46ZM485.21 41.39H485.41C486.284 41.39 486.977 41.0967 487.49 40.51C488.004 39.9233 488.26 39.0867 488.26 38C488.26 36.9133 488.004 36.0767 487.49 35.49C486.977 34.9033 486.284 34.61 485.41 34.61H485.21C484.617 34.61 484.08 34.7867 483.6 35.14C483.127 35.4933 482.747 35.9767 482.46 36.59V39.41C482.747 40.0233 483.127 40.5067 483.6 40.86C484.08 41.2133 484.617 41.39 485.21 41.39ZM492.726 47.2V33H494.726V34.57C495.073 33.97 495.526 33.52 496.086 33.22C496.646 32.9133 497.269 32.76 497.956 32.76H498.176C499.063 32.76 499.836 32.9867 500.496 33.44C501.163 33.8867 501.679 34.5067 502.046 35.3C502.413 36.0867 502.596 36.9867 502.596 38C502.596 39.0133 502.413 39.9167 502.046 40.71C501.679 41.4967 501.163 42.1167 500.496 42.57C499.836 43.0167 499.063 43.24 498.176 43.24H497.956C497.296 43.24 496.683 43.1 496.116 42.82C495.556 42.5333 495.093 42.11 494.726 41.55V47.2H492.726ZM497.476 41.39H497.676C498.549 41.39 499.243 41.0967 499.756 40.51C500.269 39.9233 500.526 39.0867 500.526 38C500.526 36.9133 500.269 36.0767 499.756 35.49C499.243 34.9033 498.549 34.61 497.676 34.61H497.476C496.883 34.61 496.346 34.7867 495.866 35.14C495.393 35.4933 495.013 35.9767 494.726 36.59V39.41C495.013 40.0233 495.393 40.5067 495.866 40.86C496.346 41.2133 496.883 41.39 497.476 41.39Z" fill="#2C749E"/>
<rect x="392.5" y="59.5" width="183" height="59" rx="29.5" stroke="#FCDEB0" stroke-width="3" stroke-linejoin="bevel"/>
<rect x="395.5" y="62.5" width="177" height="53" rx="26.5" stroke="#FABD62" stroke-width="3" stroke-linejoin="bevel"/>
<path d="M396.711 89C396.711 75.1929 407.904 64 421.711 64H499.711V114H421.711C407.904 114 396.711 102.807 396.711 89V89Z" fill="white"/>
<path d="M419.142 84.96C418.802 84.96 418.532 84.8567 418.332 84.65C418.132 84.4433 418.032 84.1767 418.032 83.85C418.032 83.5233 418.132 83.2567 418.332 83.05C418.532 82.8433 418.802 82.74 419.142 82.74C419.482 82.74 419.752 82.8433 419.952 83.05C420.152 83.2567 420.252 83.5233 420.252 83.85C420.252 84.1767 420.152 84.4433 419.952 84.65C419.752 84.8567 419.482 84.96 419.142 84.96ZM418.352 97V87.05H419.932V97H418.352ZM426.627 97.22C424.64 97.22 423.2 96.57 422.307 95.27L423.407 94.31C424.114 95.3233 425.184 95.83 426.617 95.83H426.797C427.53 95.83 428.1 95.7033 428.507 95.45C428.92 95.19 429.127 94.8267 429.127 94.36C429.127 93.96 428.987 93.64 428.707 93.4C428.434 93.16 427.967 92.9733 427.307 92.84L425.507 92.47C423.6 92.0833 422.647 91.1933 422.647 89.8C422.647 88.9067 423 88.19 423.707 87.65C424.42 87.1033 425.357 86.83 426.517 86.83H426.717C428.41 86.83 429.677 87.4467 430.517 88.68L429.417 89.57C429.084 89.0967 428.694 88.7533 428.247 88.54C427.8 88.3267 427.284 88.22 426.697 88.22H426.517C425.83 88.22 425.274 88.35 424.847 88.61C424.427 88.8633 424.217 89.2167 424.217 89.67C424.217 90.0233 424.347 90.3067 424.607 90.52C424.867 90.7267 425.3 90.8933 425.907 91.02L427.877 91.43C428.764 91.6167 429.454 91.94 429.947 92.4C430.447 92.86 430.697 93.4867 430.697 94.28C430.697 95.1533 430.357 95.8633 429.677 96.41C429.004 96.95 428.057 97.22 426.837 97.22H426.627ZM433.646 97V83H443.326V84.58H435.316V89.31H441.996V90.89H435.316V97H433.646ZM447.916 97.19C446.87 97.19 446.056 96.9267 445.476 96.4C444.903 95.8733 444.616 95.1667 444.616 94.28C444.616 93.42 444.936 92.7067 445.576 92.14C446.223 91.5667 447.26 91.28 448.686 91.28H451.586V91.07C451.586 89.21 450.736 88.28 449.036 88.28C448.343 88.28 447.76 88.4067 447.286 88.66C446.82 88.9133 446.443 89.2733 446.156 89.74L445.046 88.9C445.446 88.2333 445.983 87.7233 446.656 87.37C447.336 87.01 448.12 86.83 449.006 86.83H449.206C450.413 86.83 451.37 87.18 452.076 87.88C452.783 88.5733 453.136 89.6 453.136 90.96V97H451.606V95.15C451.226 95.7967 450.723 96.3 450.096 96.66C449.47 97.0133 448.743 97.19 447.916 97.19ZM448.216 95.78C449.07 95.78 449.776 95.5733 450.336 95.16C450.896 94.74 451.313 94.1733 451.586 93.46V92.54H448.756C447.83 92.54 447.173 92.6867 446.786 92.98C446.406 93.2733 446.216 93.6733 446.216 94.18C446.216 94.6867 446.383 95.08 446.716 95.36C447.05 95.64 447.55 95.78 448.216 95.78ZM456.184 97V87.05H457.764V88.94C458.131 88.2867 458.604 87.7733 459.184 87.4C459.764 87.02 460.434 86.83 461.194 86.83H461.394C462.521 86.83 463.394 87.2067 464.014 87.96C464.634 88.7067 464.944 89.7767 464.944 91.17V97H463.364V91.4C463.364 90.3733 463.174 89.6 462.794 89.08C462.414 88.56 461.817 88.3 461.004 88.3H460.814C460.074 88.3 459.441 88.54 458.914 89.02C458.394 89.5 458.011 90.1033 457.764 90.83V97H456.184ZM472.201 97.22C471.254 97.22 470.421 97.01 469.701 96.59C468.981 96.1633 468.418 95.5633 468.011 94.79C467.611 94.01 467.411 93.09 467.411 92.03C467.411 90.97 467.611 90.05 468.011 89.27C468.411 88.49 468.971 87.89 469.691 87.47C470.411 87.0433 471.248 86.83 472.201 86.83H472.401C473.174 86.83 473.891 87.02 474.551 87.4C475.211 87.78 475.748 88.2967 476.161 88.95L474.951 89.82C474.644 89.3467 474.274 88.9767 473.841 88.71C473.408 88.4367 472.914 88.3 472.361 88.3H472.171C471.211 88.3 470.451 88.64 469.891 89.32C469.331 89.9933 469.051 90.8967 469.051 92.03C469.051 93.1567 469.331 94.06 469.891 94.74C470.451 95.4133 471.211 95.75 472.171 95.75H472.361C472.921 95.75 473.421 95.63 473.861 95.39C474.308 95.15 474.691 94.8267 475.011 94.42L476.161 95.36C475.734 95.94 475.194 96.3967 474.541 96.73C473.888 97.0567 473.174 97.22 472.401 97.22H472.201ZM478.871 101.42C478.584 101.42 478.314 101.397 478.061 101.35V99.93C478.281 99.9633 478.484 99.98 478.671 99.98C479.437 99.98 480.051 99.7567 480.511 99.31C480.971 98.87 481.367 98.2567 481.701 97.47C480.887 95.8033 480.117 94.0967 479.391 92.35C478.664 90.5967 477.974 88.83 477.321 87.05H479.141C479.601 88.4833 480.104 89.92 480.651 91.36C481.204 92.8 481.797 94.2367 482.431 95.67L485.391 87.05H487.111L483.281 97.34C482.794 98.6467 482.217 99.6533 481.551 100.36C480.891 101.067 479.997 101.42 478.871 101.42Z" fill="#606BD6"/>
<path d="M396.711 89C396.711 75.1929 407.904 64 421.711 64H499.711V114H421.711C407.904 114 396.711 102.807 396.711 89V89Z" stroke="#FABD62" stroke-linejoin="bevel"/>
<path d="M498.5 64H545.5C559.307 64 570.5 75.1929 570.5 89V89C570.5 102.807 559.307 114 545.5 114H498.5V64Z" fill="white"/>
<path d="M516.63 97.14C515.356 97.14 514.383 96.8233 513.71 96.19C513.036 95.5567 512.7 94.5867 512.7 93.28V89.12H510.72V86.92H512.7V84.02H515.41V86.92H518.63V89.12H515.41V92.86C515.41 93.5867 515.566 94.09 515.88 94.37C516.2 94.6433 516.653 94.78 517.24 94.78C517.526 94.78 517.793 94.7667 518.04 94.74C518.286 94.7067 518.533 94.6633 518.78 94.61V96.86C518.473 96.9467 518.136 97.0133 517.77 97.06C517.403 97.1133 517.023 97.14 516.63 97.14ZM520.481 97V86.92H523.111V88.5C523.771 87.28 524.688 86.67 525.861 86.67C526.168 86.67 526.475 86.7 526.781 86.76V89.38C526.621 89.3533 526.435 89.3333 526.221 89.32C526.008 89.3067 525.818 89.3 525.651 89.3C525.018 89.3 524.501 89.46 524.101 89.78C523.701 90.1 523.398 90.5433 523.191 91.11V97H520.481ZM531.858 97.25C530.724 97.25 529.861 96.8467 529.268 96.04C528.674 95.2333 528.378 94.1367 528.378 92.75V86.92H531.088V92.45C531.088 94.0367 531.634 94.83 532.728 94.83H532.938C533.424 94.83 533.861 94.68 534.248 94.38C534.641 94.08 534.948 93.6733 535.168 93.16V86.92H537.878V97H535.258V95.4C534.898 95.9933 534.454 96.45 533.928 96.77C533.408 97.09 532.808 97.25 532.128 97.25H531.858ZM544.952 97.25C543.959 97.25 543.082 97.0333 542.322 96.6C541.562 96.1667 540.969 95.5567 540.542 94.77C540.122 93.9767 539.912 93.05 539.912 91.99C539.912 90.9167 540.122 89.9833 540.542 89.19C540.969 88.39 541.555 87.77 542.302 87.33C543.049 86.89 543.909 86.67 544.882 86.67H545.152C546.079 86.67 546.889 86.8933 547.582 87.34C548.275 87.78 548.815 88.41 549.202 89.23C549.589 90.05 549.782 91.0233 549.782 92.15V92.83H542.662C542.795 93.5033 543.075 94.0267 543.502 94.4C543.935 94.7733 544.502 94.96 545.202 94.96H545.392C546.332 94.96 547.119 94.6333 547.752 93.98L549.192 95.76C548.705 96.22 548.119 96.5833 547.432 96.85C546.745 97.1167 546.009 97.25 545.222 97.25H544.952ZM544.872 88.9C544.292 88.9 543.809 89.0833 543.422 89.45C543.035 89.8167 542.782 90.3333 542.662 91H547.112C547.032 90.3867 546.815 89.8833 546.462 89.49C546.115 89.0967 545.642 88.9 545.042 88.9H544.872Z" fill="#606BD6"/>
<path d="M498.5 64H545.5C559.307 64 570.5 75.1929 570.5 89V89C570.5 102.807 559.307 114 545.5 114H498.5V64Z" stroke="#FABD62" stroke-linejoin="bevel"/>
<path d="M577.895 62.8328L576.219 67.5288C576.169 67.667 576.08 67.7863 575.963 67.8706C575.846 67.9548 575.707 68 575.564 68C575.421 68 575.282 67.9548 575.165 67.8706C575.048 67.7863 574.958 67.667 574.909 67.5288L573.233 62.8328C573.198 62.735 573.143 62.6462 573.071 62.5725C573 62.4988 572.914 62.442 572.819 62.4059L568.269 60.6758C568.135 60.6249 568.02 60.5328 567.938 60.412C567.856 60.2911 567.812 60.1473 567.812 60C567.812 59.8527 567.856 59.7089 567.938 59.588C568.02 59.4672 568.135 59.3751 568.269 59.3242L572.819 57.5941C572.914 57.558 573 57.5012 573.071 57.4275C573.143 57.3538 573.198 57.265 573.233 57.1672L574.909 52.4713C574.958 52.333 575.048 52.2137 575.165 52.1294C575.282 52.0452 575.421 52 575.564 52C575.707 52 575.846 52.0452 575.963 52.1294C576.08 52.2137 576.169 52.333 576.219 52.4713L577.895 57.1672C577.93 57.265 577.985 57.3538 578.056 57.4275C578.128 57.5012 578.214 57.558 578.309 57.5941L582.858 59.3242C582.992 59.3751 583.108 59.4672 583.19 59.588C583.271 59.7089 583.315 59.8527 583.315 60C583.315 60.1473 583.271 60.2911 583.19 60.412C583.108 60.5328 582.992 60.6249 582.858 60.6758L578.309 62.4059C578.214 62.442 578.128 62.4988 578.056 62.5725C577.985 62.6462 577.93 62.735 577.895 62.8328V62.8328Z" fill="#FABD62"/>
<path d="M584.77 74.7705L583.723 77.7055C583.692 77.7919 583.636 77.8664 583.563 77.9191C583.49 77.9718 583.403 78 583.313 78C583.224 78 583.137 77.9718 583.064 77.9191C582.991 77.8664 582.935 77.7919 582.904 77.7055L581.856 74.7705C581.835 74.7094 581.8 74.6539 581.755 74.6078C581.711 74.5617 581.657 74.5262 581.598 74.5037L578.754 73.4224C578.67 73.3906 578.598 73.333 578.547 73.2575C578.496 73.1819 578.469 73.0921 578.469 73C578.469 72.9079 578.496 72.8181 578.547 72.7425C578.598 72.667 578.67 72.6094 578.754 72.5776L581.598 71.4963C581.657 71.4738 581.711 71.4383 581.755 71.3922C581.8 71.3461 581.835 71.2906 581.856 71.2295L582.904 68.2945C582.935 68.2081 582.991 68.1336 583.064 68.0809C583.137 68.0282 583.224 68 583.313 68C583.403 68 583.49 68.0282 583.563 68.0809C583.636 68.1336 583.692 68.2081 583.723 68.2945L584.77 71.2295C584.792 71.2906 584.826 71.3461 584.871 71.3922C584.916 71.4383 584.97 71.4738 585.029 71.4963L587.872 72.5776C587.956 72.6094 588.028 72.667 588.079 72.7425C588.131 72.8181 588.158 72.9079 588.158 73C588.158 73.0921 588.131 73.1819 588.079 73.2575C588.028 73.333 587.956 73.3906 587.872 73.4224L585.029 74.5037C584.97 74.5262 584.916 74.5617 584.871 74.6078C584.826 74.6539 584.792 74.7094 584.77 74.7705V74.7705Z" fill="#FABD62"/>
<rect x="397" y="326" width="173" height="133" rx="6" fill="white" stroke="#2C749E" stroke-linejoin="bevel"/>
<path fill-rule="evenodd" clip-rule="evenodd" d="M397 453V455C397 458.314 399.686 461 403 461H564C567.314 461 570 458.314 570 455V453C570 456.314 567.314 459 564 459H403C399.686 459 397 456.314 397 453Z" fill="#2C749E"/>
<path d="M451.575 368.24C450.255 368.24 449.102 367.95 448.115 367.37C447.129 366.783 446.362 365.957 445.815 364.89C445.275 363.823 445.005 362.567 445.005 361.12C445.005 359.667 445.275 358.39 445.815 357.29C446.362 356.183 447.129 355.32 448.115 354.7C449.102 354.073 450.255 353.76 451.575 353.76H451.875C453.175 353.76 454.285 354.06 455.205 354.66C456.132 355.253 456.862 356.05 457.395 357.05L455.605 358.09C455.232 357.377 454.729 356.807 454.095 356.38C453.469 355.953 452.719 355.74 451.845 355.74H451.565C450.739 355.74 449.995 355.95 449.335 356.37C448.682 356.79 448.162 357.397 447.775 358.19C447.395 358.983 447.205 359.943 447.205 361.07C447.205 362.197 447.395 363.147 447.775 363.92C448.162 364.687 448.682 365.27 449.335 365.67C449.995 366.063 450.739 366.26 451.565 366.26H451.845C452.725 366.26 453.472 366.067 454.085 365.68C454.699 365.287 455.199 364.747 455.585 364.06L457.365 365.12C456.819 366.073 456.089 366.833 455.175 367.4C454.262 367.96 453.162 368.24 451.875 368.24H451.575ZM464.015 368.24C463.002 368.24 462.119 368.017 461.365 367.57C460.619 367.117 460.042 366.497 459.635 365.71C459.229 364.917 459.025 364.013 459.025 363C459.025 361.98 459.229 361.077 459.635 360.29C460.042 359.503 460.619 358.887 461.365 358.44C462.119 357.987 463.002 357.76 464.015 357.76H464.235C465.255 357.76 466.139 357.987 466.885 358.44C467.632 358.887 468.209 359.503 468.615 360.29C469.022 361.077 469.225 361.98 469.225 363C469.225 364.013 469.022 364.917 468.615 365.71C468.209 366.497 467.632 367.117 466.885 367.57C466.139 368.017 465.255 368.24 464.235 368.24H464.015ZM464.025 366.38H464.225C465.139 366.38 465.855 366.073 466.375 365.46C466.895 364.847 467.155 364.027 467.155 363C467.155 361.967 466.895 361.147 466.375 360.54C465.855 359.927 465.139 359.62 464.225 359.62H464.025C463.119 359.62 462.402 359.927 461.875 360.54C461.355 361.147 461.095 361.967 461.095 363C461.095 364.027 461.355 364.847 461.875 365.46C462.402 366.073 463.119 366.38 464.025 366.38ZM474.987 368.24C473.833 368.24 472.953 367.85 472.347 367.07C471.74 366.29 471.437 365.193 471.437 363.78V358H473.437V363.54C473.437 365.433 474.123 366.38 475.497 366.38H475.697C476.377 366.38 476.953 366.17 477.427 365.75C477.907 365.33 478.263 364.8 478.497 364.16V358H480.497V368H478.497V366.33C478.13 366.923 477.67 367.39 477.117 367.73C476.57 368.07 475.933 368.24 475.207 368.24H474.987ZM483.443 368V358H485.443V359.67C485.809 359.077 486.266 358.61 486.813 358.27C487.366 357.93 488.006 357.76 488.733 357.76H488.953C490.059 357.76 490.926 358.15 491.553 358.93C492.186 359.71 492.503 360.807 492.503 362.22V368H490.503V362.46C490.503 360.567 489.816 359.62 488.443 359.62H488.243C487.563 359.62 486.983 359.83 486.503 360.25C486.029 360.67 485.676 361.2 485.443 361.84V368H483.443ZM499.779 368.13C498.592 368.13 497.689 367.83 497.069 367.23C496.449 366.63 496.139 365.707 496.139 364.46V359.74H494.179V358H496.139V355.02H498.139V358H501.509V359.74H498.139V364.19C498.139 364.977 498.302 365.523 498.629 365.83C498.955 366.137 499.439 366.29 500.079 366.29C500.385 366.29 500.659 366.277 500.899 366.25C501.145 366.223 501.399 366.19 501.659 366.15V367.9C501.392 367.967 501.092 368.02 500.759 368.06C500.425 368.107 500.099 368.13 499.779 368.13ZM507.986 368.24C507.026 368.24 506.183 368.02 505.456 367.58C504.736 367.14 504.173 366.527 503.766 365.74C503.366 364.953 503.166 364.043 503.166 363.01C503.166 361.977 503.366 361.067 503.766 360.28C504.173 359.487 504.736 358.87 505.456 358.43C506.183 357.983 507.026 357.76 507.986 357.76H508.206C509.079 357.76 509.846 357.977 510.506 358.41C511.173 358.837 511.693 359.457 512.066 360.27C512.439 361.077 512.626 362.05 512.626 363.19V363.8H505.236C505.356 364.62 505.663 365.267 506.156 365.74C506.656 366.207 507.306 366.44 508.106 366.44H508.306C508.786 366.44 509.246 366.343 509.686 366.15C510.126 365.95 510.496 365.683 510.796 365.35L512.026 366.65C511.573 367.137 511.013 367.523 510.346 367.81C509.686 368.097 508.973 368.24 508.206 368.24H507.986ZM507.926 359.56C507.213 359.56 506.616 359.797 506.136 360.27C505.663 360.737 505.363 361.377 505.236 362.19H510.616C510.556 361.45 510.313 360.827 509.886 360.32C509.466 359.813 508.879 359.56 508.126 359.56H507.926ZM514.966 368V358H516.966V359.52C517.633 358.347 518.549 357.76 519.716 357.76C520.036 357.76 520.326 357.787 520.586 357.84V359.86C520.426 359.84 520.253 359.823 520.066 359.81C519.886 359.797 519.709 359.79 519.536 359.79C518.876 359.79 518.336 359.98 517.916 360.36C517.496 360.74 517.179 361.26 516.966 361.92V368H514.966Z" fill="#2C749E"/>
<path d="M417 412C417 398.193 428.193 387 442 387H504V437H442C428.193 437 417 425.807 417 412V412Z" fill="white"/>
<path d="M443.064 420.22C442.117 420.22 441.284 420.01 440.564 419.59C439.844 419.163 439.281 418.563 438.874 417.79C438.474 417.01 438.274 416.09 438.274 415.03C438.274 413.97 438.474 413.05 438.874 412.27C439.274 411.49 439.834 410.89 440.554 410.47C441.274 410.043 442.111 409.83 443.064 409.83H443.264C444.037 409.83 444.754 410.02 445.414 410.4C446.074 410.78 446.611 411.297 447.024 411.95L445.814 412.82C445.507 412.347 445.137 411.977 444.704 411.71C444.271 411.437 443.777 411.3 443.224 411.3H443.034C442.074 411.3 441.314 411.64 440.754 412.32C440.194 412.993 439.914 413.897 439.914 415.03C439.914 416.157 440.194 417.06 440.754 417.74C441.314 418.413 442.074 418.75 443.034 418.75H443.224C443.784 418.75 444.284 418.63 444.724 418.39C445.171 418.15 445.554 417.827 445.874 417.42L447.024 418.36C446.597 418.94 446.057 419.397 445.404 419.73C444.751 420.057 444.037 420.22 443.264 420.22H443.064ZM453.74 420.22C452.746 420.22 451.886 419.997 451.16 419.55C450.433 419.103 449.87 418.49 449.47 417.71C449.076 416.93 448.88 416.037 448.88 415.03C448.88 414.017 449.076 413.12 449.47 412.34C449.87 411.56 450.433 410.947 451.16 410.5C451.886 410.053 452.746 409.83 453.74 409.83H453.94C454.933 409.83 455.793 410.053 456.52 410.5C457.246 410.947 457.806 411.56 458.2 412.34C458.6 413.12 458.8 414.017 458.8 415.03C458.8 416.037 458.6 416.93 458.2 417.71C457.806 418.49 457.246 419.103 456.52 419.55C455.793 419.997 454.933 420.22 453.94 420.22H453.74ZM453.75 418.76H453.93C454.923 418.76 455.71 418.42 456.29 417.74C456.87 417.06 457.16 416.157 457.16 415.03C457.16 413.897 456.87 412.993 456.29 412.32C455.71 411.64 454.923 411.3 453.93 411.3H453.75C452.756 411.3 451.97 411.64 451.39 412.32C450.81 412.993 450.52 413.897 450.52 415.03C450.52 416.157 450.81 417.06 451.39 417.74C451.97 418.42 452.756 418.76 453.75 418.76ZM464.812 420.22C463.659 420.22 462.779 419.843 462.172 419.09C461.566 418.337 461.262 417.267 461.262 415.88V410.05H462.842V415.65C462.842 416.677 463.032 417.453 463.412 417.98C463.799 418.5 464.396 418.76 465.202 418.76H465.382C466.122 418.76 466.756 418.52 467.282 418.04C467.809 417.553 468.196 416.947 468.442 416.22V410.05H470.022V420H468.442V418.11C468.076 418.763 467.602 419.28 467.022 419.66C466.442 420.033 465.772 420.22 465.012 420.22H464.812ZM473.219 420V410.05H474.799V411.94C475.166 411.287 475.639 410.773 476.219 410.4C476.799 410.02 477.469 409.83 478.229 409.83H478.429C479.556 409.83 480.429 410.207 481.049 410.96C481.669 411.707 481.979 412.777 481.979 414.17V420H480.399V414.4C480.399 413.373 480.209 412.6 479.829 412.08C479.449 411.56 478.852 411.3 478.039 411.3H477.849C477.109 411.3 476.476 411.54 475.949 412.02C475.429 412.5 475.046 413.103 474.799 413.83V420H473.219ZM489.316 420.12C488.209 420.12 487.356 419.843 486.756 419.29C486.156 418.737 485.856 417.857 485.856 416.65V411.42H483.896V410.05H485.856V407.02H487.436V410.05H490.956V411.42H487.436V416.43C487.436 417.263 487.616 417.847 487.976 418.18C488.343 418.507 488.863 418.67 489.536 418.67C489.829 418.67 490.096 418.657 490.336 418.63C490.576 418.597 490.826 418.553 491.086 418.5V419.89C490.813 419.957 490.523 420.01 490.216 420.05C489.909 420.097 489.609 420.12 489.316 420.12Z" fill="#606BD6"/>
<path d="M417 412C417 398.193 428.193 387 442 387H504V437H442C428.193 437 417 425.807 417 412V412Z" stroke="#606BD6" stroke-linejoin="bevel"/>
<path d="M504 387H523C536.807 387 548 398.193 548 412V412C548 425.807 536.807 437 523 437H504V387Z" fill="white"/>
<path d="M521.494 420.22C520.414 420.22 519.477 420.003 518.684 419.57C517.897 419.13 517.207 418.5 516.614 417.68L517.784 416.64C518.337 417.353 518.901 417.873 519.474 418.2C520.047 418.527 520.704 418.69 521.444 418.69H521.624C522.624 418.69 523.421 418.42 524.014 417.88C524.614 417.34 524.914 416.603 524.914 415.67C524.914 414.763 524.614 414.057 524.014 413.55C523.421 413.043 522.644 412.79 521.684 412.79H521.514C520.854 412.79 520.254 412.86 519.714 413V411.67L523.914 407.54H517.314V406H526.154V407.34L522.064 411.37C522.964 411.383 523.757 411.58 524.444 411.96C525.131 412.333 525.664 412.843 526.044 413.49C526.431 414.13 526.624 414.857 526.624 415.67C526.624 416.583 526.417 417.383 526.004 418.07C525.591 418.75 525.014 419.28 524.274 419.66C523.541 420.033 522.681 420.22 521.694 420.22H521.494Z" fill="#606BD6"/>
<path d="M504 387H523C536.807 387 548 398.193 548 412V412C548 425.807 536.807 437 523 437H504V387Z" stroke="#606BD6" stroke-linejoin="bevel"/>
<path d="M479.757 334.243C482.101 336.586 485.9 336.586 488.243 334.243L526.426 296.059C528.77 293.716 528.77 289.917 526.426 287.574C524.083 285.23 520.284 285.23 517.941 287.574L484 321.515L450.059 287.574C447.716 285.23 443.917 285.23 441.574 287.574C439.23 289.917 439.23 293.716 441.574 296.059L479.757 334.243ZM490 330L490 120L478 120L478 330L490 330Z" fill="white"/>
<path d="M484 161L484 120" stroke="#FABD62" stroke-width="3"/>
<path d="M482.939 331.061C483.525 331.646 484.475 331.646 485.061 331.061L494.607 321.515C495.192 320.929 495.192 319.979 494.607 319.393C494.021 318.808 493.071 318.808 492.485 319.393L484 327.879L475.515 319.393C474.929 318.808 473.979 318.808 473.393 319.393C472.808 319.979 472.808 320.929 473.393 321.515L482.939 331.061ZM485.5 330L485.5 214L482.5 214L482.5 330L485.5 330Z" fill="#FABD62"/>
<rect x="391.5" y="233.5" width="186" height="59" rx="29.5" stroke="#FCDEB0" stroke-width="3" stroke-linejoin="bevel"/>
<rect x="394.5" y="236.5" width="180" height="53" rx="26.5" stroke="#FABD62" stroke-width="3" stroke-linejoin="bevel"/>
<path d="M396.5 263C396.5 249.193 407.693 238 421.5 238H500.5V288H421.5C407.693 288 396.5 276.807 396.5 263V263Z" fill="#606BD6"/>
<path d="M419.296 259.22C418.89 259.22 418.566 259.097 418.326 258.85C418.093 258.597 417.976 258.277 417.976 257.89C417.976 257.497 418.093 257.177 418.326 256.93C418.566 256.683 418.89 256.56 419.296 256.56C419.71 256.56 420.033 256.683 420.266 256.93C420.5 257.177 420.616 257.497 420.616 257.89C420.616 258.277 420.5 258.597 420.266 258.85C420.033 259.097 419.71 259.22 419.296 259.22ZM418.296 271V261H420.296V271H418.296ZM426.848 271.24C425.841 271.24 424.974 271.077 424.248 270.75C423.521 270.423 422.914 269.937 422.428 269.29L423.788 268.04C424.508 269.007 425.521 269.49 426.828 269.49H427.028C427.688 269.49 428.198 269.39 428.558 269.19C428.924 268.983 429.108 268.687 429.108 268.3C429.108 267.98 428.988 267.717 428.748 267.51C428.514 267.303 428.084 267.137 427.458 267.01L425.748 266.65C423.761 266.237 422.768 265.31 422.768 263.87C422.768 262.937 423.131 262.187 423.858 261.62C424.584 261.047 425.548 260.76 426.748 260.76H426.968C428.674 260.76 429.984 261.393 430.898 262.66L429.538 263.79C429.191 263.33 428.801 263.003 428.368 262.81C427.941 262.61 427.468 262.51 426.948 262.51H426.748C426.154 262.51 425.671 262.613 425.298 262.82C424.931 263.027 424.748 263.32 424.748 263.7C424.748 263.987 424.861 264.217 425.088 264.39C425.321 264.557 425.711 264.7 426.258 264.82L428.258 265.25C429.118 265.437 429.804 265.77 430.318 266.25C430.831 266.723 431.088 267.367 431.088 268.18C431.088 269.067 430.744 269.8 430.058 270.38C429.378 270.953 428.381 271.24 427.068 271.24H426.848ZM433.786 271V257H443.746V259H435.906V263.12H442.436V265.12H435.906V271H433.786ZM448.145 271.2C447.092 271.2 446.272 270.93 445.685 270.39C445.105 269.843 444.815 269.127 444.815 268.24C444.815 267.36 445.142 266.623 445.795 266.03C446.455 265.437 447.505 265.14 448.945 265.14H451.665V265.11C451.665 263.43 450.892 262.59 449.345 262.59C448.698 262.59 448.152 262.707 447.705 262.94C447.265 263.173 446.908 263.5 446.635 263.92L445.265 262.81C445.692 262.15 446.252 261.643 446.945 261.29C447.645 260.937 448.438 260.76 449.325 260.76H449.545C450.772 260.76 451.758 261.113 452.505 261.82C453.252 262.527 453.625 263.583 453.625 264.99V271H451.705V269.37C451.318 269.957 450.822 270.41 450.215 270.73C449.608 271.043 448.918 271.2 448.145 271.2ZM448.585 269.42C449.358 269.42 450.002 269.247 450.515 268.9C451.028 268.547 451.412 268.07 451.665 267.47V266.71H449.025C448.238 266.71 447.675 266.837 447.335 267.09C447.002 267.337 446.835 267.673 446.835 268.1C446.835 268.98 447.418 269.42 448.585 269.42ZM456.402 271V261H458.402V262.67C458.768 262.077 459.225 261.61 459.772 261.27C460.325 260.93 460.965 260.76 461.692 260.76H461.912C463.018 260.76 463.885 261.15 464.512 261.93C465.145 262.71 465.462 263.807 465.462 265.22V271H463.462V265.46C463.462 263.567 462.775 262.62 461.402 262.62H461.202C460.522 262.62 459.942 262.83 459.462 263.25C458.988 263.67 458.635 264.2 458.402 264.84V271H456.402ZM472.598 271.24C471.638 271.24 470.788 271.03 470.048 270.61C469.308 270.19 468.728 269.59 468.308 268.81C467.894 268.023 467.688 267.09 467.688 266.01C467.688 264.923 467.894 263.99 468.308 263.21C468.721 262.423 469.294 261.82 470.028 261.4C470.768 260.973 471.624 260.76 472.598 260.76H472.818C473.591 260.76 474.321 260.96 475.008 261.36C475.701 261.753 476.261 262.297 476.688 262.99L475.138 264.07C474.851 263.617 474.508 263.263 474.108 263.01C473.708 262.75 473.254 262.62 472.748 262.62H472.548C471.681 262.62 470.998 262.927 470.498 263.54C470.004 264.147 469.758 264.967 469.758 266C469.758 267.027 470.004 267.847 470.498 268.46C470.998 269.073 471.681 269.38 472.548 269.38H472.748C473.254 269.38 473.721 269.267 474.148 269.04C474.574 268.813 474.941 268.51 475.248 268.13L476.688 269.35C476.241 269.937 475.678 270.4 474.998 270.74C474.324 271.073 473.598 271.24 472.818 271.24H472.598ZM479.269 275.44C478.982 275.44 478.712 275.417 478.459 275.37V273.57C478.672 273.603 478.859 273.62 479.019 273.62C479.719 273.62 480.289 273.42 480.729 273.02C481.169 272.627 481.556 272.047 481.889 271.28C481.069 269.633 480.299 267.947 479.579 266.22C478.859 264.493 478.172 262.753 477.519 261H479.839C480.266 262.34 480.726 263.68 481.219 265.02C481.719 266.353 482.249 267.673 482.809 268.98L485.539 261H487.719L483.809 271.31C483.309 272.63 482.716 273.647 482.029 274.36C481.342 275.08 480.422 275.44 479.269 275.44Z" fill="white"/>
<path d="M396.5 263C396.5 249.193 407.693 238 421.5 238H500.5V288H421.5C407.693 288 396.5 276.807 396.5 263V263Z" stroke="white" stroke-linejoin="bevel"/>
<path d="M500 238H548C561.807 238 573 249.193 573 263V263C573 276.807 561.807 288 548 288H500V238Z" fill="#606BD6"/>
<path d="M518.63 271.14C517.356 271.14 516.383 270.823 515.71 270.19C515.036 269.557 514.7 268.587 514.7 267.28V263.12H512.72V260.92H514.7V258.02H517.41V260.92H520.63V263.12H517.41V266.86C517.41 267.587 517.566 268.09 517.88 268.37C518.2 268.643 518.653 268.78 519.24 268.78C519.526 268.78 519.793 268.767 520.04 268.74C520.286 268.707 520.533 268.663 520.78 268.61V270.86C520.473 270.947 520.136 271.013 519.77 271.06C519.403 271.113 519.023 271.14 518.63 271.14ZM522.481 271V260.92H525.111V262.5C525.771 261.28 526.688 260.67 527.861 260.67C528.168 260.67 528.475 260.7 528.781 260.76V263.38C528.621 263.353 528.435 263.333 528.221 263.32C528.008 263.307 527.818 263.3 527.651 263.3C527.018 263.3 526.501 263.46 526.101 263.78C525.701 264.1 525.398 264.543 525.191 265.11V271H522.481ZM533.858 271.25C532.724 271.25 531.861 270.847 531.268 270.04C530.674 269.233 530.378 268.137 530.378 266.75V260.92H533.088V266.45C533.088 268.037 533.634 268.83 534.728 268.83H534.938C535.424 268.83 535.861 268.68 536.248 268.38C536.641 268.08 536.948 267.673 537.168 267.16V260.92H539.878V271H537.258V269.4C536.898 269.993 536.454 270.45 535.928 270.77C535.408 271.09 534.808 271.25 534.128 271.25H533.858ZM546.952 271.25C545.959 271.25 545.082 271.033 544.322 270.6C543.562 270.167 542.969 269.557 542.542 268.77C542.122 267.977 541.912 267.05 541.912 265.99C541.912 264.917 542.122 263.983 542.542 263.19C542.969 262.39 543.555 261.77 544.302 261.33C545.049 260.89 545.909 260.67 546.882 260.67H547.152C548.079 260.67 548.889 260.893 549.582 261.34C550.275 261.78 550.815 262.41 551.202 263.23C551.589 264.05 551.782 265.023 551.782 266.15V266.83H544.662C544.795 267.503 545.075 268.027 545.502 268.4C545.935 268.773 546.502 268.96 547.202 268.96H547.392C548.332 268.96 549.119 268.633 549.752 267.98L551.192 269.76C550.705 270.22 550.119 270.583 549.432 270.85C548.745 271.117 548.009 271.25 547.222 271.25H546.952ZM546.872 262.9C546.292 262.9 545.809 263.083 545.422 263.45C545.035 263.817 544.782 264.333 544.662 265H549.112C549.032 264.387 548.815 263.883 548.462 263.49C548.115 263.097 547.642 262.9 547.042 262.9H546.872Z" fill="white"/>
<path d="M500 238H548C561.807 238 573 249.193 573 263V263C573 276.807 561.807 288 548 288H500V238Z" stroke="white" stroke-linejoin="bevel"/>
<path d="M580.406 236.833L578.676 241.529C578.625 241.667 578.533 241.786 578.412 241.871C578.291 241.955 578.147 242 578 242C577.853 242 577.709 241.955 577.588 241.871C577.467 241.786 577.375 241.667 577.324 241.529L575.594 236.833C575.558 236.735 575.501 236.646 575.428 236.572C575.354 236.499 575.265 236.442 575.167 236.406L570.471 234.676C570.333 234.625 570.214 234.533 570.129 234.412C570.045 234.291 570 234.147 570 234C570 233.853 570.045 233.709 570.129 233.588C570.214 233.467 570.333 233.375 570.471 233.324L575.167 231.594C575.265 231.558 575.354 231.501 575.428 231.428C575.501 231.354 575.558 231.265 575.594 231.167L577.324 226.471C577.375 226.333 577.467 226.214 577.588 226.129C577.709 226.045 577.853 226 578 226C578.147 226 578.291 226.045 578.412 226.129C578.533 226.214 578.625 226.333 578.676 226.471L580.406 231.167C580.442 231.265 580.499 231.354 580.572 231.428C580.646 231.501 580.735 231.558 580.833 231.594L585.529 233.324C585.667 233.375 585.786 233.467 585.871 233.588C585.955 233.709 586 233.853 586 234C586 234.147 585.955 234.291 585.871 234.412C585.786 234.533 585.667 234.625 585.529 234.676L580.833 236.406C580.735 236.442 580.646 236.499 580.572 236.572C580.499 236.646 580.442 236.735 580.406 236.833V236.833Z" fill="#FABD62"/>
<path d="M587.504 248.77L586.422 251.705C586.391 251.792 586.333 251.866 586.257 251.919C586.182 251.972 586.092 252 586 252C585.908 252 585.818 251.972 585.743 251.919C585.667 251.866 585.609 251.792 585.578 251.705L584.496 248.77C584.474 248.709 584.438 248.654 584.392 248.608C584.346 248.562 584.291 248.526 584.23 248.504L581.295 247.422C581.208 247.391 581.134 247.333 581.081 247.257C581.028 247.182 581 247.092 581 247C581 246.908 581.028 246.818 581.081 246.743C581.134 246.667 581.208 246.609 581.295 246.578L584.23 245.496C584.291 245.474 584.346 245.438 584.392 245.392C584.438 245.346 584.474 245.291 584.496 245.23L585.578 242.295C585.609 242.208 585.667 242.134 585.743 242.081C585.818 242.028 585.908 242 586 242C586.092 242 586.182 242.028 586.257 242.081C586.333 242.134 586.391 242.208 586.422 242.295L587.504 245.23C587.526 245.291 587.562 245.346 587.608 245.392C587.654 245.438 587.709 245.474 587.77 245.496L590.705 246.578C590.792 246.609 590.866 246.667 590.919 246.743C590.972 246.818 591 246.908 591 247C591 247.092 590.972 247.182 590.919 247.257C590.866 247.333 590.792 247.391 590.705 247.422L587.77 248.504C587.709 248.526 587.654 248.562 587.608 248.608C587.562 248.654 587.526 248.709 587.504 248.77V248.77Z" fill="#FABD62"/>
<rect x="444" y="161" width="79" height="50.2663" rx="6" fill="white" stroke="#2C749E" stroke-linejoin="bevel"/>
<path fill-rule="evenodd" clip-rule="evenodd" d="M444 205.267V207C444 210.314 446.686 213 450 213H517C520.314 213 523 210.314 523 207V205.267C523 208.58 520.314 211.267 517 211.267H450C446.686 211.267 444 208.58 444 205.267Z" fill="#2C749E"/>
<path d="M474.651 194.24C473.764 194.24 472.987 194.017 472.321 193.57C471.661 193.117 471.147 192.497 470.781 191.71C470.414 190.917 470.231 190.013 470.231 189C470.231 187.987 470.414 187.087 470.781 186.3C471.147 185.507 471.661 184.887 472.321 184.44C472.987 183.987 473.764 183.76 474.651 183.76H474.871C475.531 183.76 476.141 183.903 476.701 184.19C477.267 184.47 477.734 184.89 478.101 185.45V179.4H480.101V194H478.101V192.43C477.754 193.03 477.301 193.483 476.741 193.79C476.181 194.09 475.557 194.24 474.871 194.24H474.651ZM475.151 192.39H475.351C475.944 192.39 476.477 192.213 476.951 191.86C477.431 191.507 477.814 191.023 478.101 190.41V187.59C477.814 186.977 477.431 186.493 476.951 186.14C476.477 185.787 475.944 185.61 475.351 185.61H475.151C474.277 185.61 473.584 185.903 473.071 186.49C472.557 187.077 472.301 187.913 472.301 189C472.301 190.087 472.557 190.923 473.071 191.51C473.584 192.097 474.277 192.39 475.151 192.39ZM484.046 182.22C483.64 182.22 483.316 182.097 483.076 181.85C482.843 181.597 482.726 181.277 482.726 180.89C482.726 180.497 482.843 180.177 483.076 179.93C483.316 179.683 483.64 179.56 484.046 179.56C484.46 179.56 484.783 179.683 485.016 179.93C485.25 180.177 485.366 180.497 485.366 180.89C485.366 181.277 485.25 181.597 485.016 181.85C484.783 182.097 484.46 182.22 484.046 182.22ZM483.046 194V184H485.046V194H483.046ZM490.878 194C490.158 192.38 489.471 190.73 488.818 189.05C488.171 187.363 487.571 185.68 487.018 184H489.278C489.684 185.38 490.128 186.763 490.608 188.15C491.094 189.537 491.608 190.91 492.148 192.27C492.688 190.91 493.198 189.537 493.678 188.15C494.164 186.763 494.611 185.38 495.018 184H497.198C496.644 185.68 496.041 187.363 495.388 189.05C494.741 190.73 494.058 192.38 493.338 194H490.878Z" fill="#2C749E"/>
<line opacity="0.3" x1="483.5" y1="206" x2="483.5" y2="165" stroke="#FABD62" stroke-width="3"/>
<path d="M269 230.314L313.571 230.314" stroke="#2C749E" stroke-width="4" stroke-linecap="round" stroke-linejoin="round"/>
<path d="M300.171 250.223L318 230.611L300.171 211" stroke="#2C749E" stroke-width="4" stroke-linecap="round" stroke-linejoin="round"/>
<rect x="1" y="1" width="220" height="133" rx="6" fill="white" stroke="#2C749E" stroke-linejoin="bevel"/>
<path fill-rule="evenodd" clip-rule="evenodd" d="M1 128V130C1 133.314 3.68629 136 6.99999 136H215C218.314 136 221 133.314 221 130V128C221 131.314 218.314 134 215 134H6.99999C3.68629 134 1 131.314 1 128Z" fill="#2C749E"/>
<path d="M92.2285 43C92.6685 41.4667 93.1752 39.8833 93.7485 38.25C94.3218 36.6167 94.9252 35.01 95.5585 33.43C96.1985 31.8433 96.8385 30.3667 97.4785 29H99.9985C100.639 30.3667 101.279 31.8433 101.919 33.43C102.559 35.01 103.162 36.6167 103.729 38.25C104.302 39.8833 104.809 41.4667 105.249 43H102.959C102.805 42.4133 102.635 41.81 102.449 41.19C102.269 40.57 102.079 39.94 101.879 39.3H95.5285C95.3285 39.94 95.1352 40.57 94.9485 41.19C94.7685 41.81 94.6018 42.4133 94.4485 43H92.2285ZM96.1885 37.34H101.219C100.819 36.1933 100.402 35.0667 99.9685 33.96C99.5418 32.8467 99.1185 31.8033 98.6985 30.83C98.2852 31.8033 97.8618 32.8467 97.4285 33.96C97.0018 35.0667 96.5885 36.1933 96.1885 37.34ZM107.46 47.2V33H109.46V34.57C109.807 33.97 110.26 33.52 110.82 33.22C111.38 32.9133 112.004 32.76 112.69 32.76H112.91C113.797 32.76 114.57 32.9867 115.23 33.44C115.897 33.8867 116.414 34.5067 116.78 35.3C117.147 36.0867 117.33 36.9867 117.33 38C117.33 39.0133 117.147 39.9167 116.78 40.71C116.414 41.4967 115.897 42.1167 115.23 42.57C114.57 43.0167 113.797 43.24 112.91 43.24H112.69C112.03 43.24 111.417 43.1 110.85 42.82C110.29 42.5333 109.827 42.11 109.46 41.55V47.2H107.46ZM112.21 41.39H112.41C113.284 41.39 113.977 41.0967 114.49 40.51C115.004 39.9233 115.26 39.0867 115.26 38C115.26 36.9133 115.004 36.0767 114.49 35.49C113.977 34.9033 113.284 34.61 112.41 34.61H112.21C111.617 34.61 111.08 34.7867 110.6 35.14C110.127 35.4933 109.747 35.9767 109.46 36.59V39.41C109.747 40.0233 110.127 40.5067 110.6 40.86C111.08 41.2133 111.617 41.39 112.21 41.39ZM119.726 47.2V33H121.726V34.57C122.073 33.97 122.526 33.52 123.086 33.22C123.646 32.9133 124.269 32.76 124.956 32.76H125.176C126.063 32.76 126.836 32.9867 127.496 33.44C128.163 33.8867 128.679 34.5067 129.046 35.3C129.413 36.0867 129.596 36.9867 129.596 38C129.596 39.0133 129.413 39.9167 129.046 40.71C128.679 41.4967 128.163 42.1167 127.496 42.57C126.836 43.0167 126.063 43.24 125.176 43.24H124.956C124.296 43.24 123.683 43.1 123.116 42.82C122.556 42.5333 122.093 42.11 121.726 41.55V47.2H119.726ZM124.476 41.39H124.676C125.549 41.39 126.243 41.0967 126.756 40.51C127.269 39.9233 127.526 39.0867 127.526 38C127.526 36.9133 127.269 36.0767 126.756 35.49C126.243 34.9033 125.549 34.61 124.676 34.61H124.476C123.883 34.61 123.346 34.7867 122.866 35.14C122.393 35.4933 122.013 35.9767 121.726 36.59V39.41C122.013 40.0233 122.393 40.5067 122.866 40.86C123.346 41.2133 123.883 41.39 124.476 41.39Z" fill="#2C749E"/>
<path d="M21 87C21 73.1929 32.1929 62 46 62H124V112H46C32.1929 112 21 100.807 21 87V87Z" fill="white"/>
<path d="M43.431 82.96C43.091 82.96 42.821 82.8567 42.621 82.65C42.421 82.4433 42.321 82.1767 42.321 81.85C42.321 81.5233 42.421 81.2567 42.621 81.05C42.821 80.8433 43.091 80.74 43.431 80.74C43.771 80.74 44.041 80.8433 44.241 81.05C44.441 81.2567 44.541 81.5233 44.541 81.85C44.541 82.1767 44.441 82.4433 44.241 82.65C44.041 82.8567 43.771 82.96 43.431 82.96ZM42.641 95V85.05H44.221V95H42.641ZM50.9162 95.22C48.9295 95.22 47.4895 94.57 46.5962 93.27L47.6962 92.31C48.4028 93.3233 49.4728 93.83 50.9062 93.83H51.0862C51.8195 93.83 52.3895 93.7033 52.7962 93.45C53.2095 93.19 53.4162 92.8267 53.4162 92.36C53.4162 91.96 53.2762 91.64 52.9962 91.4C52.7228 91.16 52.2562 90.9733 51.5962 90.84L49.7962 90.47C47.8895 90.0833 46.9362 89.1933 46.9362 87.8C46.9362 86.9067 47.2895 86.19 47.9962 85.65C48.7095 85.1033 49.6462 84.83 50.8062 84.83H51.0062C52.6995 84.83 53.9662 85.4467 54.8062 86.68L53.7062 87.57C53.3728 87.0967 52.9828 86.7533 52.5362 86.54C52.0895 86.3267 51.5728 86.22 50.9862 86.22H50.8062C50.1195 86.22 49.5628 86.35 49.1362 86.61C48.7162 86.8633 48.5062 87.2167 48.5062 87.67C48.5062 88.0233 48.6362 88.3067 48.8962 88.52C49.1562 88.7267 49.5895 88.8933 50.1962 89.02L52.1662 89.43C53.0528 89.6167 53.7428 89.94 54.2362 90.4C54.7362 90.86 54.9862 91.4867 54.9862 92.28C54.9862 93.1533 54.6462 93.8633 53.9662 94.41C53.2928 94.95 52.3462 95.22 51.1262 95.22H50.9162ZM57.9348 95V81H67.6148V82.58H59.6048V87.31H66.2848V88.89H59.6048V95H57.9348ZM72.2055 95.19C71.1589 95.19 70.3455 94.9267 69.7655 94.4C69.1922 93.8733 68.9055 93.1667 68.9055 92.28C68.9055 91.42 69.2255 90.7067 69.8655 90.14C70.5122 89.5667 71.5489 89.28 72.9755 89.28H75.8755V89.07C75.8755 87.21 75.0255 86.28 73.3255 86.28C72.6322 86.28 72.0489 86.4067 71.5755 86.66C71.1089 86.9133 70.7322 87.2733 70.4455 87.74L69.3355 86.9C69.7355 86.2333 70.2722 85.7233 70.9455 85.37C71.6255 85.01 72.4089 84.83 73.2955 84.83H73.4955C74.7022 84.83 75.6589 85.18 76.3655 85.88C77.0722 86.5733 77.4255 87.6 77.4255 88.96V95H75.8955V93.15C75.5155 93.7967 75.0122 94.3 74.3855 94.66C73.7589 95.0133 73.0322 95.19 72.2055 95.19ZM72.5055 93.78C73.3589 93.78 74.0655 93.5733 74.6255 93.16C75.1855 92.74 75.6022 92.1733 75.8755 91.46V90.54H73.0455C72.1189 90.54 71.4622 90.6867 71.0755 90.98C70.6955 91.2733 70.5055 91.6733 70.5055 92.18C70.5055 92.6867 70.6722 93.08 71.0055 93.36C71.3389 93.64 71.8389 93.78 72.5055 93.78ZM80.473 95V85.05H82.053V86.94C82.4197 86.2867 82.893 85.7733 83.473 85.4C84.053 85.02 84.723 84.83 85.483 84.83H85.683C86.8097 84.83 87.683 85.2067 88.303 85.96C88.923 86.7067 89.233 87.7767 89.233 89.17V95H87.653V89.4C87.653 88.3733 87.463 87.6 87.083 87.08C86.703 86.56 86.1064 86.3 85.293 86.3H85.103C84.363 86.3 83.7297 86.54 83.203 87.02C82.683 87.5 82.2997 88.1033 82.053 88.83V95H80.473ZM96.4899 95.22C95.5433 95.22 94.7099 95.01 93.9899 94.59C93.2699 94.1633 92.7066 93.5633 92.2999 92.79C91.8999 92.01 91.6999 91.09 91.6999 90.03C91.6999 88.97 91.8999 88.05 92.2999 87.27C92.6999 86.49 93.2599 85.89 93.9799 85.47C94.6999 85.0433 95.5366 84.83 96.4899 84.83H96.6899C97.4633 84.83 98.1799 85.02 98.8399 85.4C99.4999 85.78 100.037 86.2967 100.45 86.95L99.2399 87.82C98.9333 87.3467 98.5633 86.9767 98.1299 86.71C97.6966 86.4367 97.2033 86.3 96.6499 86.3H96.4599C95.4999 86.3 94.7399 86.64 94.1799 87.32C93.6199 87.9933 93.3399 88.8967 93.3399 90.03C93.3399 91.1567 93.6199 92.06 94.1799 92.74C94.7399 93.4133 95.4999 93.75 96.4599 93.75H96.6499C97.2099 93.75 97.7099 93.63 98.1499 93.39C98.5966 93.15 98.9799 92.8267 99.2999 92.42L100.45 93.36C100.023 93.94 99.4833 94.3967 98.8299 94.73C98.1766 95.0567 97.4633 95.22 96.6899 95.22H96.4899ZM103.16 99.42C102.873 99.42 102.603 99.3967 102.35 99.35V97.93C102.57 97.9633 102.773 97.98 102.96 97.98C103.726 97.98 104.34 97.7567 104.8 97.31C105.26 96.87 105.656 96.2567 105.99 95.47C105.176 93.8033 104.406 92.0967 103.68 90.35C102.953 88.5967 102.263 86.83 101.61 85.05H103.43C103.89 86.4833 104.393 87.92 104.94 89.36C105.493 90.8 106.086 92.2367 106.72 93.67L109.68 85.05H111.4L107.57 95.34C107.083 96.6467 106.506 97.6533 105.84 98.36C105.18 99.0667 104.286 99.42 103.16 99.42Z" fill="#606BD6"/>
<path d="M21 87C21 73.1929 32.1929 62 46 62H124V112H46C32.1929 112 21 100.807 21 87V87Z" stroke="#606BD6" stroke-linejoin="bevel"/>
<path d="M124 62H176C189.807 62 201 73.1929 201 87V87C201 100.807 189.807 112 176 112H124V62Z" fill="white"/>
<path d="M138.59 95V86.42H136.72V85.05H138.59V83.8C138.59 82.62 138.89 81.7233 139.49 81.11C140.09 80.49 140.92 80.18 141.98 80.18C142.607 80.18 143.157 80.25 143.63 80.39V81.8C143.357 81.7267 143.103 81.6767 142.87 81.65C142.643 81.6233 142.42 81.61 142.2 81.61C140.847 81.61 140.17 82.3033 140.17 83.69V85.05H143.56V86.42H140.17V95H138.59ZM147.848 95.19C146.801 95.19 145.988 94.9267 145.408 94.4C144.835 93.8733 144.548 93.1667 144.548 92.28C144.548 91.42 144.868 90.7067 145.508 90.14C146.155 89.5667 147.191 89.28 148.618 89.28H151.518V89.07C151.518 87.21 150.668 86.28 148.968 86.28C148.275 86.28 147.691 86.4067 147.218 86.66C146.751 86.9133 146.375 87.2733 146.088 87.74L144.978 86.9C145.378 86.2333 145.915 85.7233 146.588 85.37C147.268 85.01 148.051 84.83 148.938 84.83H149.138C150.345 84.83 151.301 85.18 152.008 85.88C152.715 86.5733 153.068 87.6 153.068 88.96V95H151.538V93.15C151.158 93.7967 150.655 94.3 150.028 94.66C149.401 95.0133 148.675 95.19 147.848 95.19ZM148.148 93.78C149.001 93.78 149.708 93.5733 150.268 93.16C150.828 92.74 151.245 92.1733 151.518 91.46V90.54H148.688C147.761 90.54 147.105 90.6867 146.718 90.98C146.338 91.2733 146.148 91.6733 146.148 92.18C146.148 92.6867 146.315 93.08 146.648 93.36C146.981 93.64 147.481 93.78 148.148 93.78ZM156.116 95V80.4H157.696V95H156.116ZM164.391 95.22C162.404 95.22 160.964 94.57 160.071 93.27L161.171 92.31C161.877 93.3233 162.947 93.83 164.381 93.83H164.561C165.294 93.83 165.864 93.7033 166.271 93.45C166.684 93.19 166.891 92.8267 166.891 92.36C166.891 91.96 166.751 91.64 166.471 91.4C166.197 91.16 165.731 90.9733 165.071 90.84L163.271 90.47C161.364 90.0833 160.411 89.1933 160.411 87.8C160.411 86.9067 160.764 86.19 161.471 85.65C162.184 85.1033 163.121 84.83 164.281 84.83H164.481C166.174 84.83 167.441 85.4467 168.281 86.68L167.181 87.57C166.847 87.0967 166.457 86.7533 166.011 86.54C165.564 86.3267 165.047 86.22 164.461 86.22H164.281C163.594 86.22 163.037 86.35 162.611 86.61C162.191 86.8633 161.981 87.2167 161.981 87.67C161.981 88.0233 162.111 88.3067 162.371 88.52C162.631 88.7267 163.064 88.8933 163.671 89.02L165.641 89.43C166.527 89.6167 167.217 89.94 167.711 90.4C168.211 90.86 168.461 91.4867 168.461 92.28C168.461 93.1533 168.121 93.8633 167.441 94.41C166.767 94.95 165.821 95.22 164.601 95.22H164.391ZM175.139 95.22C174.193 95.22 173.363 95.0033 172.649 94.57C171.936 94.1367 171.379 93.53 170.979 92.75C170.586 91.97 170.389 91.0633 170.389 90.03C170.389 89.0167 170.586 88.12 170.979 87.34C171.373 86.5533 171.919 85.94 172.619 85.5C173.326 85.0533 174.143 84.83 175.069 84.83H175.259C176.139 84.83 176.906 85.05 177.559 85.49C178.213 85.9233 178.716 86.5367 179.069 87.33C179.429 88.1233 179.609 89.0567 179.609 90.13V90.67H172.009C172.116 91.6233 172.449 92.38 173.009 92.94C173.576 93.5 174.309 93.78 175.209 93.78H175.389C175.923 93.78 176.416 93.6733 176.869 93.46C177.329 93.2467 177.716 92.9533 178.029 92.58L179.039 93.61C178.606 94.11 178.069 94.5033 177.429 94.79C176.789 95.0767 176.093 95.22 175.339 95.22H175.139ZM175.039 86.26C174.213 86.26 173.529 86.54 172.989 87.1C172.449 87.66 172.126 88.4133 172.019 89.36H178.019C177.973 88.48 177.706 87.7433 177.219 87.15C176.739 86.5567 176.073 86.26 175.219 86.26H175.039Z" fill="#606BD6"/>
<path d="M124 62H176C189.807 62 201 73.1929 201 87V87C201 100.807 189.807 112 176 112H124V62Z" stroke="#606BD6" stroke-linejoin="bevel"/>
<rect x="25" y="326" width="173" height="133" rx="6" fill="white" stroke="#2C749E" stroke-linejoin="bevel"/>
<path fill-rule="evenodd" clip-rule="evenodd" d="M25 453V455C25 458.314 27.6863 461 31 461H192C195.314 461 198 458.314 198 455V453C198 456.314 195.314 459 192 459H31C27.6863 459 25 456.314 25 453Z" fill="#2C749E"/>
<path d="M79.5753 368.24C78.2553 368.24 77.102 367.95 76.1153 367.37C75.1286 366.783 74.362 365.957 73.8153 364.89C73.2753 363.823 73.0053 362.567 73.0053 361.12C73.0053 359.667 73.2753 358.39 73.8153 357.29C74.362 356.183 75.1286 355.32 76.1153 354.7C77.102 354.073 78.2553 353.76 79.5753 353.76H79.8753C81.1753 353.76 82.2853 354.06 83.2053 354.66C84.132 355.253 84.862 356.05 85.3953 357.05L83.6053 358.09C83.232 357.377 82.7286 356.807 82.0953 356.38C81.4686 355.953 80.7186 355.74 79.8453 355.74H79.5653C78.7386 355.74 77.9953 355.95 77.3353 356.37C76.682 356.79 76.162 357.397 75.7753 358.19C75.3953 358.983 75.2053 359.943 75.2053 361.07C75.2053 362.197 75.3953 363.147 75.7753 363.92C76.162 364.687 76.682 365.27 77.3353 365.67C77.9953 366.063 78.7386 366.26 79.5653 366.26H79.8453C80.7253 366.26 81.472 366.067 82.0853 365.68C82.6986 365.287 83.1986 364.747 83.5853 364.06L85.3653 365.12C84.8186 366.073 84.0886 366.833 83.1753 367.4C82.262 367.96 81.162 368.24 79.8753 368.24H79.5753ZM92.0155 368.24C91.0021 368.24 90.1188 368.017 89.3655 367.57C88.6188 367.117 88.0421 366.497 87.6355 365.71C87.2288 364.917 87.0255 364.013 87.0255 363C87.0255 361.98 87.2288 361.077 87.6355 360.29C88.0421 359.503 88.6188 358.887 89.3655 358.44C90.1188 357.987 91.0021 357.76 92.0155 357.76H92.2355C93.2555 357.76 94.1388 357.987 94.8855 358.44C95.6321 358.887 96.2088 359.503 96.6155 360.29C97.0221 361.077 97.2255 361.98 97.2255 363C97.2255 364.013 97.0221 364.917 96.6155 365.71C96.2088 366.497 95.6321 367.117 94.8855 367.57C94.1388 368.017 93.2555 368.24 92.2355 368.24H92.0155ZM92.0255 366.38H92.2255C93.1388 366.38 93.8555 366.073 94.3755 365.46C94.8955 364.847 95.1555 364.027 95.1555 363C95.1555 361.967 94.8955 361.147 94.3755 360.54C93.8555 359.927 93.1388 359.62 92.2255 359.62H92.0255C91.1188 359.62 90.4021 359.927 89.8755 360.54C89.3555 361.147 89.0955 361.967 89.0955 363C89.0955 364.027 89.3555 364.847 89.8755 365.46C90.4021 366.073 91.1188 366.38 92.0255 366.38ZM102.987 368.24C101.833 368.24 100.953 367.85 100.347 367.07C99.7401 366.29 99.4367 365.193 99.4367 363.78V358H101.437V363.54C101.437 365.433 102.123 366.38 103.497 366.38H103.697C104.377 366.38 104.953 366.17 105.427 365.75C105.907 365.33 106.263 364.8 106.497 364.16V358H108.497V368H106.497V366.33C106.13 366.923 105.67 367.39 105.117 367.73C104.57 368.07 103.933 368.24 103.207 368.24H102.987ZM111.443 368V358H113.443V359.67C113.809 359.077 114.266 358.61 114.813 358.27C115.366 357.93 116.006 357.76 116.733 357.76H116.953C118.059 357.76 118.926 358.15 119.553 358.93C120.186 359.71 120.503 360.807 120.503 362.22V368H118.503V362.46C118.503 360.567 117.816 359.62 116.443 359.62H116.243C115.563 359.62 114.983 359.83 114.503 360.25C114.029 360.67 113.676 361.2 113.443 361.84V368H111.443ZM127.779 368.13C126.592 368.13 125.689 367.83 125.069 367.23C124.449 366.63 124.139 365.707 124.139 364.46V359.74H122.179V358H124.139V355.02H126.139V358H129.509V359.74H126.139V364.19C126.139 364.977 126.302 365.523 126.629 365.83C126.955 366.137 127.439 366.29 128.079 366.29C128.385 366.29 128.659 366.277 128.899 366.25C129.145 366.223 129.399 366.19 129.659 366.15V367.9C129.392 367.967 129.092 368.02 128.759 368.06C128.425 368.107 128.099 368.13 127.779 368.13ZM135.986 368.24C135.026 368.24 134.183 368.02 133.456 367.58C132.736 367.14 132.173 366.527 131.766 365.74C131.366 364.953 131.166 364.043 131.166 363.01C131.166 361.977 131.366 361.067 131.766 360.28C132.173 359.487 132.736 358.87 133.456 358.43C134.183 357.983 135.026 357.76 135.986 357.76H136.206C137.079 357.76 137.846 357.977 138.506 358.41C139.173 358.837 139.693 359.457 140.066 360.27C140.439 361.077 140.626 362.05 140.626 363.19V363.8H133.236C133.356 364.62 133.663 365.267 134.156 365.74C134.656 366.207 135.306 366.44 136.106 366.44H136.306C136.786 366.44 137.246 366.343 137.686 366.15C138.126 365.95 138.496 365.683 138.796 365.35L140.026 366.65C139.573 367.137 139.013 367.523 138.346 367.81C137.686 368.097 136.973 368.24 136.206 368.24H135.986ZM135.926 359.56C135.213 359.56 134.616 359.797 134.136 360.27C133.663 360.737 133.363 361.377 133.236 362.19H138.616C138.556 361.45 138.313 360.827 137.886 360.32C137.466 359.813 136.879 359.56 136.126 359.56H135.926ZM142.966 368V358H144.966V359.52C145.633 358.347 146.549 357.76 147.716 357.76C148.036 357.76 148.326 357.787 148.586 357.84V359.86C148.426 359.84 148.253 359.823 148.066 359.81C147.886 359.797 147.709 359.79 147.536 359.79C146.876 359.79 146.336 359.98 145.916 360.36C145.496 360.74 145.179 361.26 144.966 361.92V368H142.966Z" fill="#2C749E"/>
<path d="M45 412C45 398.193 56.1929 387 70 387H132V437H70C56.1929 437 45 425.807 45 412V412Z" fill="white"/>
<path d="M71.0641 420.22C70.1175 420.22 69.2841 420.01 68.5641 419.59C67.8441 419.163 67.2808 418.563 66.8741 417.79C66.4741 417.01 66.2741 416.09 66.2741 415.03C66.2741 413.97 66.4741 413.05 66.8741 412.27C67.2741 411.49 67.8341 410.89 68.5541 410.47C69.2741 410.043 70.1108 409.83 71.0641 409.83H71.2641C72.0375 409.83 72.7541 410.02 73.4141 410.4C74.0741 410.78 74.6108 411.297 75.0241 411.95L73.8141 412.82C73.5075 412.347 73.1375 411.977 72.7041 411.71C72.2708 411.437 71.7775 411.3 71.2241 411.3H71.0341C70.0741 411.3 69.3141 411.64 68.7541 412.32C68.1941 412.993 67.9141 413.897 67.9141 415.03C67.9141 416.157 68.1941 417.06 68.7541 417.74C69.3141 418.413 70.0741 418.75 71.0341 418.75H71.2241C71.7841 418.75 72.2841 418.63 72.7241 418.39C73.1708 418.15 73.5541 417.827 73.8741 417.42L75.0241 418.36C74.5975 418.94 74.0575 419.397 73.4041 419.73C72.7508 420.057 72.0375 420.22 71.2641 420.22H71.0641ZM81.7396 420.22C80.7463 420.22 79.8863 419.997 79.1596 419.55C78.4329 419.103 77.8696 418.49 77.4696 417.71C77.0763 416.93 76.8796 416.037 76.8796 415.03C76.8796 414.017 77.0763 413.12 77.4696 412.34C77.8696 411.56 78.4329 410.947 79.1596 410.5C79.8863 410.053 80.7463 409.83 81.7396 409.83H81.9396C82.9329 409.83 83.7929 410.053 84.5196 410.5C85.2463 410.947 85.8063 411.56 86.1996 412.34C86.5996 413.12 86.7996 414.017 86.7996 415.03C86.7996 416.037 86.5996 416.93 86.1996 417.71C85.8063 418.49 85.2463 419.103 84.5196 419.55C83.7929 419.997 82.9329 420.22 81.9396 420.22H81.7396ZM81.7496 418.76H81.9296C82.9229 418.76 83.7096 418.42 84.2896 417.74C84.8696 417.06 85.1596 416.157 85.1596 415.03C85.1596 413.897 84.8696 412.993 84.2896 412.32C83.7096 411.64 82.9229 411.3 81.9296 411.3H81.7496C80.7563 411.3 79.9696 411.64 79.3896 412.32C78.8096 412.993 78.5196 413.897 78.5196 415.03C78.5196 416.157 78.8096 417.06 79.3896 417.74C79.9696 418.42 80.7563 418.76 81.7496 418.76ZM92.8123 420.22C91.6589 420.22 90.7789 419.843 90.1723 419.09C89.5656 418.337 89.2623 417.267 89.2623 415.88V410.05H90.8423V415.65C90.8423 416.677 91.0323 417.453 91.4123 417.98C91.7989 418.5 92.3956 418.76 93.2023 418.76H93.3823C94.1223 418.76 94.7556 418.52 95.2823 418.04C95.8089 417.553 96.1956 416.947 96.4423 416.22V410.05H98.0223V420H96.4423V418.11C96.0756 418.763 95.6023 419.28 95.0223 419.66C94.4423 420.033 93.7723 420.22 93.0123 420.22H92.8123ZM101.219 420V410.05H102.799V411.94C103.166 411.287 103.639 410.773 104.219 410.4C104.799 410.02 105.469 409.83 106.229 409.83H106.429C107.556 409.83 108.429 410.207 109.049 410.96C109.669 411.707 109.979 412.777 109.979 414.17V420H108.399V414.4C108.399 413.373 108.209 412.6 107.829 412.08C107.449 411.56 106.852 411.3 106.039 411.3H105.849C105.109 411.3 104.476 411.54 103.949 412.02C103.429 412.5 103.046 413.103 102.799 413.83V420H101.219ZM117.316 420.12C116.209 420.12 115.356 419.843 114.756 419.29C114.156 418.737 113.856 417.857 113.856 416.65V411.42H111.896V410.05H113.856V407.02H115.436V410.05H118.956V411.42H115.436V416.43C115.436 417.263 115.616 417.847 115.976 418.18C116.343 418.507 116.863 418.67 117.536 418.67C117.829 418.67 118.096 418.657 118.336 418.63C118.576 418.597 118.826 418.553 119.086 418.5V419.89C118.813 419.957 118.523 420.01 118.216 420.05C117.909 420.097 117.609 420.12 117.316 420.12Z" fill="#606BD6"/>
<path d="M45 412C45 398.193 56.1929 387 70 387H132V437H70C56.1929 437 45 425.807 45 412V412Z" stroke="#606BD6" stroke-linejoin="bevel"/>
<path d="M132 387H151C164.807 387 176 398.193 176 412V412C176 425.807 164.807 437 151 437H132V387Z" fill="white"/>
<path d="M149.494 420.22C148.414 420.22 147.477 420.003 146.684 419.57C145.897 419.13 145.207 418.5 144.614 417.68L145.784 416.64C146.337 417.353 146.901 417.873 147.474 418.2C148.047 418.527 148.704 418.69 149.444 418.69H149.624C150.624 418.69 151.421 418.42 152.014 417.88C152.614 417.34 152.914 416.603 152.914 415.67C152.914 414.763 152.614 414.057 152.014 413.55C151.421 413.043 150.644 412.79 149.684 412.79H149.514C148.854 412.79 148.254 412.86 147.714 413V411.67L151.914 407.54H145.314V406H154.154V407.34L150.064 411.37C150.964 411.383 151.757 411.58 152.444 411.96C153.131 412.333 153.664 412.843 154.044 413.49C154.431 414.13 154.624 414.857 154.624 415.67C154.624 416.583 154.417 417.383 154.004 418.07C153.591 418.75 153.014 419.28 152.274 419.66C151.541 420.033 150.681 420.22 149.694 420.22H149.494Z" fill="#606BD6"/>
<path d="M132 387H151C164.807 387 176 398.193 176 412V412C176 425.807 164.807 437 151 437H132V387Z" stroke="#606BD6" stroke-linejoin="bevel"/>
<rect x="72" y="161" width="79" height="50.2663" rx="6" fill="white" stroke="#2C749E" stroke-linejoin="bevel"/>
<path fill-rule="evenodd" clip-rule="evenodd" d="M72 205.267V207C72 210.314 74.6863 213 78 213H145C148.314 213 151 210.314 151 207V205.267C151 208.58 148.314 211.267 145 211.267H78C74.6863 211.267 72 208.58 72 205.267Z" fill="#2C749E"/>
<path d="M102.651 194.24C101.764 194.24 100.987 194.017 100.321 193.57C99.6605 193.117 99.1472 192.497 98.7805 191.71C98.4139 190.917 98.2305 190.013 98.2305 189C98.2305 187.987 98.4139 187.087 98.7805 186.3C99.1472 185.507 99.6605 184.887 100.321 184.44C100.987 183.987 101.764 183.76 102.651 183.76H102.871C103.531 183.76 104.141 183.903 104.701 184.19C105.267 184.47 105.734 184.89 106.101 185.45V179.4H108.101V194H106.101V192.43C105.754 193.03 105.301 193.483 104.741 193.79C104.181 194.09 103.557 194.24 102.871 194.24H102.651ZM103.151 192.39H103.351C103.944 192.39 104.477 192.213 104.951 191.86C105.431 191.507 105.814 191.023 106.101 190.41V187.59C105.814 186.977 105.431 186.493 104.951 186.14C104.477 185.787 103.944 185.61 103.351 185.61H103.151C102.277 185.61 101.584 185.903 101.071 186.49C100.557 187.077 100.301 187.913 100.301 189C100.301 190.087 100.557 190.923 101.071 191.51C101.584 192.097 102.277 192.39 103.151 192.39ZM112.046 182.22C111.64 182.22 111.316 182.097 111.076 181.85C110.843 181.597 110.726 181.277 110.726 180.89C110.726 180.497 110.843 180.177 111.076 179.93C111.316 179.683 111.64 179.56 112.046 179.56C112.46 179.56 112.783 179.683 113.016 179.93C113.25 180.177 113.366 180.497 113.366 180.89C113.366 181.277 113.25 181.597 113.016 181.85C112.783 182.097 112.46 182.22 112.046 182.22ZM111.046 194V184H113.046V194H111.046ZM118.878 194C118.158 192.38 117.471 190.73 116.818 189.05C116.171 187.363 115.571 185.68 115.018 184H117.278C117.684 185.38 118.128 186.763 118.608 188.15C119.094 189.537 119.608 190.91 120.148 192.27C120.688 190.91 121.198 189.537 121.678 188.15C122.164 186.763 122.611 185.38 123.018 184H125.198C124.644 185.68 124.041 187.363 123.388 189.05C122.741 190.73 122.058 192.38 121.338 194H118.878Z" fill="#2C749E"/>
<path d="M111 161V136" stroke="#2C749E" stroke-width="2"/>
<path d="M107.818 334.182C109.575 335.939 112.425 335.939 114.182 334.182L142.82 305.544C144.577 303.787 144.577 300.938 142.82 299.18C141.062 297.423 138.213 297.423 136.456 299.18L111 324.636L85.5442 299.18C83.7868 297.423 80.9376 297.423 79.1802 299.18C77.4228 300.938 77.4228 303.787 79.1802 305.544L107.818 334.182ZM115.5 331V213H106.5V331H115.5Z" fill="white"/>
<path d="M110.293 331.707C110.683 332.098 111.317 332.098 111.707 331.707L118.071 325.343C118.462 324.953 118.462 324.319 118.071 323.929C117.681 323.538 117.047 323.538 116.657 323.929L111 329.586L105.343 323.929C104.953 323.538 104.319 323.538 103.929 323.929C103.538 324.319 103.538 324.953 103.929 325.343L110.293 331.707ZM112 331V213H110V331H112Z" fill="#2C749E"/>
<path d="M21 263C21 249.193 32.1929 238 46 238H124V288H46C32.1929 288 21 276.807 21 263V263Z" fill="#606BD6"/>
<path d="M43.431 258.96C43.091 258.96 42.821 258.857 42.621 258.65C42.421 258.443 42.321 258.177 42.321 257.85C42.321 257.523 42.421 257.257 42.621 257.05C42.821 256.843 43.091 256.74 43.431 256.74C43.771 256.74 44.041 256.843 44.241 257.05C44.441 257.257 44.541 257.523 44.541 257.85C44.541 258.177 44.441 258.443 44.241 258.65C44.041 258.857 43.771 258.96 43.431 258.96ZM42.641 271V261.05H44.221V271H42.641ZM50.9162 271.22C48.9295 271.22 47.4895 270.57 46.5962 269.27L47.6962 268.31C48.4028 269.323 49.4728 269.83 50.9062 269.83H51.0862C51.8195 269.83 52.3895 269.703 52.7962 269.45C53.2095 269.19 53.4162 268.827 53.4162 268.36C53.4162 267.96 53.2762 267.64 52.9962 267.4C52.7228 267.16 52.2562 266.973 51.5962 266.84L49.7962 266.47C47.8895 266.083 46.9362 265.193 46.9362 263.8C46.9362 262.907 47.2895 262.19 47.9962 261.65C48.7095 261.103 49.6462 260.83 50.8062 260.83H51.0062C52.6995 260.83 53.9662 261.447 54.8062 262.68L53.7062 263.57C53.3728 263.097 52.9828 262.753 52.5362 262.54C52.0895 262.327 51.5728 262.22 50.9862 262.22H50.8062C50.1195 262.22 49.5628 262.35 49.1362 262.61C48.7162 262.863 48.5062 263.217 48.5062 263.67C48.5062 264.023 48.6362 264.307 48.8962 264.52C49.1562 264.727 49.5895 264.893 50.1962 265.02L52.1662 265.43C53.0528 265.617 53.7428 265.94 54.2362 266.4C54.7362 266.86 54.9862 267.487 54.9862 268.28C54.9862 269.153 54.6462 269.863 53.9662 270.41C53.2928 270.95 52.3462 271.22 51.1262 271.22H50.9162ZM57.9348 271V257H67.6148V258.58H59.6048V263.31H66.2848V264.89H59.6048V271H57.9348ZM72.2055 271.19C71.1589 271.19 70.3455 270.927 69.7655 270.4C69.1922 269.873 68.9055 269.167 68.9055 268.28C68.9055 267.42 69.2255 266.707 69.8655 266.14C70.5122 265.567 71.5489 265.28 72.9755 265.28H75.8755V265.07C75.8755 263.21 75.0255 262.28 73.3255 262.28C72.6322 262.28 72.0489 262.407 71.5755 262.66C71.1089 262.913 70.7322 263.273 70.4455 263.74L69.3355 262.9C69.7355 262.233 70.2722 261.723 70.9455 261.37C71.6255 261.01 72.4089 260.83 73.2955 260.83H73.4955C74.7022 260.83 75.6589 261.18 76.3655 261.88C77.0722 262.573 77.4255 263.6 77.4255 264.96V271H75.8955V269.15C75.5155 269.797 75.0122 270.3 74.3855 270.66C73.7589 271.013 73.0322 271.19 72.2055 271.19ZM72.5055 269.78C73.3589 269.78 74.0655 269.573 74.6255 269.16C75.1855 268.74 75.6022 268.173 75.8755 267.46V266.54H73.0455C72.1189 266.54 71.4622 266.687 71.0755 266.98C70.6955 267.273 70.5055 267.673 70.5055 268.18C70.5055 268.687 70.6722 269.08 71.0055 269.36C71.3389 269.64 71.8389 269.78 72.5055 269.78ZM80.473 271V261.05H82.053V262.94C82.4197 262.287 82.893 261.773 83.473 261.4C84.053 261.02 84.723 260.83 85.483 260.83H85.683C86.8097 260.83 87.683 261.207 88.303 261.96C88.923 262.707 89.233 263.777 89.233 265.17V271H87.653V265.4C87.653 264.373 87.463 263.6 87.083 263.08C86.703 262.56 86.1064 262.3 85.293 262.3H85.103C84.363 262.3 83.7297 262.54 83.203 263.02C82.683 263.5 82.2997 264.103 82.053 264.83V271H80.473ZM96.4899 271.22C95.5433 271.22 94.7099 271.01 93.9899 270.59C93.2699 270.163 92.7066 269.563 92.2999 268.79C91.8999 268.01 91.6999 267.09 91.6999 266.03C91.6999 264.97 91.8999 264.05 92.2999 263.27C92.6999 262.49 93.2599 261.89 93.9799 261.47C94.6999 261.043 95.5366 260.83 96.4899 260.83H96.6899C97.4633 260.83 98.1799 261.02 98.8399 261.4C99.4999 261.78 100.037 262.297 100.45 262.95L99.2399 263.82C98.9333 263.347 98.5633 262.977 98.1299 262.71C97.6966 262.437 97.2033 262.3 96.6499 262.3H96.4599C95.4999 262.3 94.7399 262.64 94.1799 263.32C93.6199 263.993 93.3399 264.897 93.3399 266.03C93.3399 267.157 93.6199 268.06 94.1799 268.74C94.7399 269.413 95.4999 269.75 96.4599 269.75H96.6499C97.2099 269.75 97.7099 269.63 98.1499 269.39C98.5966 269.15 98.9799 268.827 99.2999 268.42L100.45 269.36C100.023 269.94 99.4833 270.397 98.8299 270.73C98.1766 271.057 97.4633 271.22 96.6899 271.22H96.4899ZM103.16 275.42C102.873 275.42 102.603 275.397 102.35 275.35V273.93C102.57 273.963 102.773 273.98 102.96 273.98C103.726 273.98 104.34 273.757 104.8 273.31C105.26 272.87 105.656 272.257 105.99 271.47C105.176 269.803 104.406 268.097 103.68 266.35C102.953 264.597 102.263 262.83 101.61 261.05H103.43C103.89 262.483 104.393 263.92 104.94 265.36C105.493 266.8 106.086 268.237 106.72 269.67L109.68 261.05H111.4L107.57 271.34C107.083 272.647 106.506 273.653 105.84 274.36C105.18 275.067 104.286 275.42 103.16 275.42Z" fill="white"/>
<path d="M21 263C21 249.193 32.1929 238 46 238H124V288H46C32.1929 288 21 276.807 21 263V263Z" stroke="white" stroke-linejoin="bevel"/>
<path d="M124 238H176C189.807 238 201 249.193 201 263V263C201 276.807 189.807 288 176 288H124V238Z" fill="#606BD6"/>
<path d="M138.59 271V262.42H136.72V261.05H138.59V259.8C138.59 258.62 138.89 257.723 139.49 257.11C140.09 256.49 140.92 256.18 141.98 256.18C142.607 256.18 143.157 256.25 143.63 256.39V257.8C143.357 257.727 143.103 257.677 142.87 257.65C142.643 257.623 142.42 257.61 142.2 257.61C140.847 257.61 140.17 258.303 140.17 259.69V261.05H143.56V262.42H140.17V271H138.59ZM147.848 271.19C146.801 271.19 145.988 270.927 145.408 270.4C144.835 269.873 144.548 269.167 144.548 268.28C144.548 267.42 144.868 266.707 145.508 266.14C146.155 265.567 147.191 265.28 148.618 265.28H151.518V265.07C151.518 263.21 150.668 262.28 148.968 262.28C148.275 262.28 147.691 262.407 147.218 262.66C146.751 262.913 146.375 263.273 146.088 263.74L144.978 262.9C145.378 262.233 145.915 261.723 146.588 261.37C147.268 261.01 148.051 260.83 148.938 260.83H149.138C150.345 260.83 151.301 261.18 152.008 261.88C152.715 262.573 153.068 263.6 153.068 264.96V271H151.538V269.15C151.158 269.797 150.655 270.3 150.028 270.66C149.401 271.013 148.675 271.19 147.848 271.19ZM148.148 269.78C149.001 269.78 149.708 269.573 150.268 269.16C150.828 268.74 151.245 268.173 151.518 267.46V266.54H148.688C147.761 266.54 147.105 266.687 146.718 266.98C146.338 267.273 146.148 267.673 146.148 268.18C146.148 268.687 146.315 269.08 146.648 269.36C146.981 269.64 147.481 269.78 148.148 269.78ZM156.116 271V256.4H157.696V271H156.116ZM164.391 271.22C162.404 271.22 160.964 270.57 160.071 269.27L161.171 268.31C161.877 269.323 162.947 269.83 164.381 269.83H164.561C165.294 269.83 165.864 269.703 166.271 269.45C166.684 269.19 166.891 268.827 166.891 268.36C166.891 267.96 166.751 267.64 166.471 267.4C166.197 267.16 165.731 266.973 165.071 266.84L163.271 266.47C161.364 266.083 160.411 265.193 160.411 263.8C160.411 262.907 160.764 262.19 161.471 261.65C162.184 261.103 163.121 260.83 164.281 260.83H164.481C166.174 260.83 167.441 261.447 168.281 262.68L167.181 263.57C166.847 263.097 166.457 262.753 166.011 262.54C165.564 262.327 165.047 262.22 164.461 262.22H164.281C163.594 262.22 163.037 262.35 162.611 262.61C162.191 262.863 161.981 263.217 161.981 263.67C161.981 264.023 162.111 264.307 162.371 264.52C162.631 264.727 163.064 264.893 163.671 265.02L165.641 265.43C166.527 265.617 167.217 265.94 167.711 266.4C168.211 266.86 168.461 267.487 168.461 268.28C168.461 269.153 168.121 269.863 167.441 270.41C166.767 270.95 165.821 271.22 164.601 271.22H164.391ZM175.139 271.22C174.193 271.22 173.363 271.003 172.649 270.57C171.936 270.137 171.379 269.53 170.979 268.75C170.586 267.97 170.389 267.063 170.389 266.03C170.389 265.017 170.586 264.12 170.979 263.34C171.373 262.553 171.919 261.94 172.619 261.5C173.326 261.053 174.143 260.83 175.069 260.83H175.259C176.139 260.83 176.906 261.05 177.559 261.49C178.213 261.923 178.716 262.537 179.069 263.33C179.429 264.123 179.609 265.057 179.609 266.13V266.67H172.009C172.116 267.623 172.449 268.38 173.009 268.94C173.576 269.5 174.309 269.78 175.209 269.78H175.389C175.923 269.78 176.416 269.673 176.869 269.46C177.329 269.247 177.716 268.953 178.029 268.58L179.039 269.61C178.606 270.11 178.069 270.503 177.429 270.79C176.789 271.077 176.093 271.22 175.339 271.22H175.139ZM175.039 262.26C174.213 262.26 173.529 262.54 172.989 263.1C172.449 263.66 172.126 264.413 172.019 265.36H178.019C177.973 264.48 177.706 263.743 177.219 263.15C176.739 262.557 176.073 262.26 175.219 262.26H175.039Z" fill="white"/>
<path d="M124 238H176C189.807 238 201 249.193 201 263V263C201 276.807 189.807 288 176 288H124V238Z" stroke="white" stroke-linejoin="bevel"/>
<line opacity="0.2" x1="111" y1="206" x2="111" y2="165" stroke="#2C749E" stroke-width="2"/>
</svg>
