<svg width="504" height="375" viewBox="0 0 504 375" fill="none" xmlns="http://www.w3.org/2000/svg">
<rect x="154" y="1" width="231" height="133" rx="6" fill="#343A46" stroke="white" stroke-linejoin="bevel"/>
<path fill-rule="evenodd" clip-rule="evenodd" d="M154 128V130C154 133.314 156.686 136 160 136H379C382.314 136 385 133.314 385 130V128C385 131.314 382.314 134 379 134H160C156.686 134 154 131.314 154 128Z" fill="white"/>
<path d="M221.207 43.24C219.893 43.24 218.753 43.0067 217.787 42.54C216.82 42.0667 216.013 41.3867 215.367 40.5L216.907 39.1C217.473 39.8467 218.11 40.3967 218.817 40.75C219.53 41.1033 220.323 41.28 221.197 41.28H221.447C222.493 41.28 223.283 41.1 223.817 40.74C224.35 40.38 224.617 39.88 224.617 39.24C224.617 38.7467 224.473 38.3633 224.187 38.09C223.907 37.8167 223.567 37.61 223.167 37.47C222.767 37.33 222.387 37.2233 222.027 37.15L219.757 36.67C219.37 36.59 218.95 36.4733 218.497 36.32C218.05 36.1667 217.623 35.9533 217.217 35.68C216.81 35.4 216.477 35.0367 216.217 34.59C215.957 34.1433 215.827 33.5867 215.827 32.92C215.827 32.0867 216.043 31.36 216.477 30.74C216.917 30.1133 217.533 29.6267 218.327 29.28C219.12 28.9333 220.05 28.76 221.117 28.76H221.367C223.607 28.76 225.33 29.6267 226.537 31.36L225.017 32.62C224.47 31.9 223.893 31.4033 223.287 31.13C222.68 30.8567 222.027 30.72 221.327 30.72H221.077C220.163 30.72 219.423 30.9033 218.857 31.27C218.29 31.63 218.007 32.1233 218.007 32.75C218.007 33.1567 218.117 33.4833 218.337 33.73C218.557 33.97 218.85 34.1567 219.217 34.29C219.59 34.4233 219.993 34.5367 220.427 34.63L222.697 35.11C223.01 35.1767 223.393 35.28 223.847 35.42C224.307 35.56 224.76 35.7733 225.207 36.06C225.66 36.34 226.037 36.7233 226.337 37.21C226.643 37.6967 226.797 38.32 226.797 39.08C226.797 39.9467 226.577 40.69 226.137 41.31C225.697 41.93 225.077 42.4067 224.277 42.74C223.477 43.0733 222.537 43.24 221.457 43.24H221.207ZM233.611 43.24C232.651 43.24 231.801 43.03 231.061 42.61C230.321 42.19 229.741 41.59 229.321 40.81C228.908 40.0233 228.701 39.09 228.701 38.01C228.701 36.9233 228.908 35.99 229.321 35.21C229.735 34.4233 230.308 33.82 231.041 33.4C231.781 32.9733 232.638 32.76 233.611 32.76H233.831C234.605 32.76 235.335 32.96 236.021 33.36C236.715 33.7533 237.275 34.2967 237.701 34.99L236.151 36.07C235.865 35.6167 235.521 35.2633 235.121 35.01C234.721 34.75 234.268 34.62 233.761 34.62H233.561C232.695 34.62 232.011 34.9267 231.511 35.54C231.018 36.1467 230.771 36.9667 230.771 38C230.771 39.0267 231.018 39.8467 231.511 40.46C232.011 41.0733 232.695 41.38 233.561 41.38H233.761C234.268 41.38 234.735 41.2667 235.161 41.04C235.588 40.8133 235.955 40.51 236.261 40.13L237.701 41.35C237.255 41.9367 236.691 42.4 236.011 42.74C235.338 43.0733 234.611 43.24 233.831 43.24H233.611ZM244.336 43.24C243.322 43.24 242.439 43.0167 241.686 42.57C240.939 42.1167 240.362 41.4967 239.956 40.71C239.549 39.9167 239.346 39.0133 239.346 38C239.346 36.98 239.549 36.0767 239.956 35.29C240.362 34.5033 240.939 33.8867 241.686 33.44C242.439 32.9867 243.322 32.76 244.336 32.76H244.556C245.576 32.76 246.459 32.9867 247.206 33.44C247.952 33.8867 248.529 34.5033 248.936 35.29C249.342 36.0767 249.546 36.98 249.546 38C249.546 39.0133 249.342 39.9167 248.936 40.71C248.529 41.4967 247.952 42.1167 247.206 42.57C246.459 43.0167 245.576 43.24 244.556 43.24H244.336ZM244.346 41.38H244.546C245.459 41.38 246.176 41.0733 246.696 40.46C247.216 39.8467 247.476 39.0267 247.476 38C247.476 36.9667 247.216 36.1467 246.696 35.54C246.176 34.9267 245.459 34.62 244.546 34.62H244.346C243.439 34.62 242.722 34.9267 242.196 35.54C241.676 36.1467 241.416 36.9667 241.416 38C241.416 39.0267 241.676 39.8467 242.196 40.46C242.722 41.0733 243.439 41.38 244.346 41.38ZM251.927 43V33H253.927V34.52C254.594 33.3467 255.51 32.76 256.677 32.76C256.997 32.76 257.287 32.7867 257.547 32.84V34.86C257.387 34.84 257.214 34.8233 257.027 34.81C256.847 34.7967 256.67 34.79 256.497 34.79C255.837 34.79 255.297 34.98 254.877 35.36C254.457 35.74 254.14 36.26 253.927 36.92V43H251.927ZM263.756 43.24C262.796 43.24 261.952 43.02 261.226 42.58C260.506 42.14 259.942 41.5267 259.536 40.74C259.136 39.9533 258.936 39.0433 258.936 38.01C258.936 36.9767 259.136 36.0667 259.536 35.28C259.942 34.4867 260.506 33.87 261.226 33.43C261.952 32.9833 262.796 32.76 263.756 32.76H263.976C264.849 32.76 265.616 32.9767 266.276 33.41C266.942 33.8367 267.462 34.4567 267.836 35.27C268.209 36.0767 268.396 37.05 268.396 38.19V38.8H261.006C261.126 39.62 261.432 40.2667 261.926 40.74C262.426 41.2067 263.076 41.44 263.876 41.44H264.076C264.556 41.44 265.016 41.3433 265.456 41.15C265.896 40.95 266.266 40.6833 266.566 40.35L267.796 41.65C267.342 42.1367 266.782 42.5233 266.116 42.81C265.456 43.0967 264.742 43.24 263.976 43.24H263.756ZM263.696 34.56C262.982 34.56 262.386 34.7967 261.906 35.27C261.432 35.7367 261.132 36.3767 261.006 37.19H266.386C266.326 36.45 266.082 35.8267 265.656 35.32C265.236 34.8133 264.649 34.56 263.896 34.56H263.696ZM270.736 43V28.4H272.736V34.57C273.082 33.97 273.536 33.52 274.096 33.22C274.656 32.9133 275.279 32.76 275.966 32.76H276.186C277.072 32.76 277.846 32.9867 278.506 33.44C279.172 33.8867 279.689 34.5067 280.056 35.3C280.422 36.0867 280.606 36.9867 280.606 38C280.606 39.0133 280.422 39.9167 280.056 40.71C279.689 41.4967 279.172 42.1167 278.506 42.57C277.846 43.0167 277.072 43.24 276.186 43.24H275.966C275.306 43.24 274.692 43.1 274.126 42.82C273.566 42.5333 273.102 42.11 272.736 41.55V43H270.736ZM275.486 41.39H275.686C276.559 41.39 277.252 41.0967 277.766 40.51C278.279 39.9233 278.536 39.0867 278.536 38C278.536 36.9133 278.279 36.0767 277.766 35.49C277.252 34.9033 276.559 34.61 275.686 34.61H275.486C274.892 34.61 274.356 34.7867 273.876 35.14C273.402 35.4933 273.022 35.9767 272.736 36.59V39.41C273.022 40.0233 273.402 40.5067 273.876 40.86C274.356 41.2133 274.892 41.39 275.486 41.39ZM287.441 43.24C286.428 43.24 285.545 43.0167 284.791 42.57C284.045 42.1167 283.468 41.4967 283.061 40.71C282.655 39.9167 282.451 39.0133 282.451 38C282.451 36.98 282.655 36.0767 283.061 35.29C283.468 34.5033 284.045 33.8867 284.791 33.44C285.545 32.9867 286.428 32.76 287.441 32.76H287.661C288.681 32.76 289.565 32.9867 290.311 33.44C291.058 33.8867 291.635 34.5033 292.041 35.29C292.448 36.0767 292.651 36.98 292.651 38C292.651 39.0133 292.448 39.9167 292.041 40.71C291.635 41.4967 291.058 42.1167 290.311 42.57C289.565 43.0167 288.681 43.24 287.661 43.24H287.441ZM287.451 41.38H287.651C288.565 41.38 289.281 41.0733 289.801 40.46C290.321 39.8467 290.581 39.0267 290.581 38C290.581 36.9667 290.321 36.1467 289.801 35.54C289.281 34.9267 288.565 34.62 287.651 34.62H287.451C286.545 34.62 285.828 34.9267 285.301 35.54C284.781 36.1467 284.521 36.9667 284.521 38C284.521 39.0267 284.781 39.8467 285.301 40.46C285.828 41.0733 286.545 41.38 287.451 41.38ZM297.753 43.2C296.699 43.2 295.879 42.93 295.293 42.39C294.713 41.8433 294.423 41.1267 294.423 40.24C294.423 39.36 294.749 38.6233 295.403 38.03C296.063 37.4367 297.113 37.14 298.553 37.14H301.273V37.11C301.273 35.43 300.499 34.59 298.953 34.59C298.306 34.59 297.759 34.7067 297.313 34.94C296.873 35.1733 296.516 35.5 296.243 35.92L294.873 34.81C295.299 34.15 295.859 33.6433 296.553 33.29C297.253 32.9367 298.046 32.76 298.933 32.76H299.153C300.379 32.76 301.366 33.1133 302.113 33.82C302.859 34.5267 303.233 35.5833 303.233 36.99V43H301.313V41.37C300.926 41.9567 300.429 42.41 299.823 42.73C299.216 43.0433 298.526 43.2 297.753 43.2ZM298.193 41.42C298.966 41.42 299.609 41.2467 300.123 40.9C300.636 40.5467 301.019 40.07 301.273 39.47V38.71H298.633C297.846 38.71 297.283 38.8367 296.943 39.09C296.609 39.3367 296.443 39.6733 296.443 40.1C296.443 40.98 297.026 41.42 298.193 41.42ZM306.009 43V33H308.009V34.52C308.676 33.3467 309.592 32.76 310.759 32.76C311.079 32.76 311.369 32.7867 311.629 32.84V34.86C311.469 34.84 311.296 34.8233 311.109 34.81C310.929 34.7967 310.752 34.79 310.579 34.79C309.919 34.79 309.379 34.98 308.959 35.36C308.539 35.74 308.222 36.26 308.009 36.92V43H306.009ZM317.438 43.24C316.551 43.24 315.774 43.0167 315.108 42.57C314.448 42.1167 313.934 41.4967 313.568 40.71C313.201 39.9167 313.018 39.0133 313.018 38C313.018 36.9867 313.201 36.0867 313.568 35.3C313.934 34.5067 314.448 33.8867 315.108 33.44C315.774 32.9867 316.551 32.76 317.438 32.76H317.658C318.318 32.76 318.928 32.9033 319.488 33.19C320.054 33.47 320.521 33.89 320.888 34.45V28.4H322.888V43H320.888V41.43C320.541 42.03 320.088 42.4833 319.528 42.79C318.968 43.09 318.344 43.24 317.658 43.24H317.438ZM317.938 41.39H318.138C318.731 41.39 319.264 41.2133 319.738 40.86C320.218 40.5067 320.601 40.0233 320.888 39.41V36.59C320.601 35.9767 320.218 35.4933 319.738 35.14C319.264 34.7867 318.731 34.61 318.138 34.61H317.938C317.064 34.61 316.371 34.9033 315.858 35.49C315.344 36.0767 315.088 36.9133 315.088 38C315.088 39.0867 315.344 39.9233 315.858 40.51C316.371 41.0967 317.064 41.39 317.938 41.39Z" fill="white"/>
<path d="M174 87C174 73.1929 185.193 62 199 62H294V112H199C185.193 112 174 100.807 174 87V87Z" fill="#343A46"/>
<path d="M196.425 82.96C196.085 82.96 195.815 82.8567 195.615 82.65C195.415 82.4433 195.315 82.1767 195.315 81.85C195.315 81.5233 195.415 81.2567 195.615 81.05C195.815 80.8433 196.085 80.74 196.425 80.74C196.765 80.74 197.035 80.8433 197.235 81.05C197.435 81.2567 197.535 81.5233 197.535 81.85C197.535 82.1767 197.435 82.4433 197.235 82.65C197.035 82.8567 196.765 82.96 196.425 82.96ZM195.635 95V85.05H197.215V95H195.635ZM203.91 95.22C201.924 95.22 200.484 94.57 199.59 93.27L200.69 92.31C201.397 93.3233 202.467 93.83 203.9 93.83H204.08C204.814 93.83 205.384 93.7033 205.79 93.45C206.204 93.19 206.41 92.8267 206.41 92.36C206.41 91.96 206.27 91.64 205.99 91.4C205.717 91.16 205.25 90.9733 204.59 90.84L202.79 90.47C200.884 90.0833 199.93 89.1933 199.93 87.8C199.93 86.9067 200.284 86.19 200.99 85.65C201.704 85.1033 202.64 84.83 203.8 84.83H204C205.694 84.83 206.96 85.4467 207.8 86.68L206.7 87.57C206.367 87.0967 205.977 86.7533 205.53 86.54C205.084 86.3267 204.567 86.22 203.98 86.22H203.8C203.114 86.22 202.557 86.35 202.13 86.61C201.71 86.8633 201.5 87.2167 201.5 87.67C201.5 88.0233 201.63 88.3067 201.89 88.52C202.15 88.7267 202.584 88.8933 203.19 89.02L205.16 89.43C206.047 89.6167 206.737 89.94 207.23 90.4C207.73 90.86 207.98 91.4867 207.98 92.28C207.98 93.1533 207.64 93.8633 206.96 94.41C206.287 94.95 205.34 95.22 204.12 95.22H203.91ZM210.929 95V81H216.629C218.342 81 219.619 81.41 220.459 82.23C221.306 83.05 221.729 84.1567 221.729 85.55C221.729 86.9367 221.306 88.04 220.459 88.86C219.619 89.68 218.342 90.09 216.629 90.09H212.589V95H210.929ZM216.479 82.55H212.589V88.53H216.479C218.846 88.53 220.029 87.5367 220.029 85.55C220.029 83.55 218.846 82.55 216.479 82.55ZM224.385 95V80.4H225.965V95H224.385ZM231.84 95.19C230.794 95.19 229.98 94.9267 229.4 94.4C228.827 93.8733 228.54 93.1667 228.54 92.28C228.54 91.42 228.86 90.7067 229.5 90.14C230.147 89.5667 231.184 89.28 232.61 89.28H235.51V89.07C235.51 87.21 234.66 86.28 232.96 86.28C232.267 86.28 231.684 86.4067 231.21 86.66C230.744 86.9133 230.367 87.2733 230.08 87.74L228.97 86.9C229.37 86.2333 229.907 85.7233 230.58 85.37C231.26 85.01 232.044 84.83 232.93 84.83H233.13C234.337 84.83 235.294 85.18 236 85.88C236.707 86.5733 237.06 87.6 237.06 88.96V95H235.53V93.15C235.15 93.7967 234.647 94.3 234.02 94.66C233.394 95.0133 232.667 95.19 231.84 95.19ZM232.14 93.78C232.994 93.78 233.7 93.5733 234.26 93.16C234.82 92.74 235.237 92.1733 235.51 91.46V90.54H232.68C231.754 90.54 231.097 90.6867 230.71 90.98C230.33 91.2733 230.14 91.6733 230.14 92.18C230.14 92.6867 230.307 93.08 230.64 93.36C230.974 93.64 231.474 93.78 232.14 93.78ZM240.568 99.42C240.281 99.42 240.011 99.3967 239.758 99.35V97.93C239.978 97.9633 240.181 97.98 240.368 97.98C241.134 97.98 241.748 97.7567 242.208 97.31C242.668 96.87 243.064 96.2567 243.398 95.47C242.584 93.8033 241.814 92.0967 241.088 90.35C240.361 88.5967 239.671 86.83 239.018 85.05H240.838C241.298 86.4833 241.801 87.92 242.348 89.36C242.901 90.8 243.494 92.2367 244.128 93.67L247.088 85.05H248.808L244.978 95.34C244.491 96.6467 243.914 97.6533 243.248 98.36C242.588 99.0667 241.694 99.42 240.568 99.42ZM254.639 95.22C253.693 95.22 252.863 95.0033 252.149 94.57C251.436 94.1367 250.879 93.53 250.479 92.75C250.086 91.97 249.889 91.0633 249.889 90.03C249.889 89.0167 250.086 88.12 250.479 87.34C250.873 86.5533 251.419 85.94 252.119 85.5C252.826 85.0533 253.643 84.83 254.569 84.83H254.759C255.639 84.83 256.406 85.05 257.059 85.49C257.713 85.9233 258.216 86.5367 258.569 87.33C258.929 88.1233 259.109 89.0567 259.109 90.13V90.67H251.509C251.616 91.6233 251.949 92.38 252.509 92.94C253.076 93.5 253.809 93.78 254.709 93.78H254.889C255.423 93.78 255.916 93.6733 256.369 93.46C256.829 93.2467 257.216 92.9533 257.529 92.58L258.539 93.61C258.106 94.11 257.569 94.5033 256.929 94.79C256.289 95.0767 255.593 95.22 254.839 95.22H254.639ZM254.539 86.26C253.713 86.26 253.029 86.54 252.489 87.1C251.949 87.66 251.626 88.4133 251.519 89.36H257.519C257.473 88.48 257.206 87.7433 256.719 87.15C256.239 86.5567 255.573 86.26 254.719 86.26H254.539ZM261.69 95V85.05H263.27V86.78C263.583 86.1533 263.983 85.6733 264.47 85.34C264.957 85 265.52 84.83 266.16 84.83C266.467 84.83 266.76 84.86 267.04 84.92V86.5C266.887 86.48 266.72 86.4633 266.54 86.45C266.367 86.4367 266.197 86.43 266.03 86.43C265.303 86.43 264.713 86.6533 264.26 87.1C263.813 87.54 263.483 88.13 263.27 88.87V95H261.69ZM268.392 95C268.838 93.4933 269.348 91.93 269.922 90.31C270.502 88.6833 271.115 87.0767 271.762 85.49C272.415 83.9033 273.068 82.4067 273.722 81H275.762C276.422 82.4067 277.075 83.9033 277.722 85.49C278.368 87.0767 278.982 88.6833 279.562 90.31C280.142 91.93 280.652 93.4933 281.092 95H279.282C279.108 94.36 278.915 93.7033 278.702 93.03C278.495 92.35 278.275 91.66 278.042 90.96H271.382C271.148 91.66 270.925 92.35 270.712 93.03C270.505 93.7033 270.315 94.36 270.142 95H268.392ZM271.922 89.4H277.502C277.068 88.1867 276.612 86.9833 276.132 85.79C275.658 84.5967 275.185 83.47 274.712 82.41C274.245 83.47 273.772 84.5967 273.292 85.79C272.812 86.9833 272.355 88.1867 271.922 89.4Z" fill="#8891EC"/>
<path d="M174 87C174 73.1929 185.193 62 199 62H294V112H199C185.193 112 174 100.807 174 87V87Z" stroke="#8891EC" stroke-linejoin="bevel"/>
<path d="M294 62H340C353.807 62 365 73.1929 365 87V87C365 100.807 353.807 112 340 112H294V62Z" fill="#343A46"/>
<path d="M312.005 95.12C310.899 95.12 310.045 94.8433 309.445 94.29C308.845 93.7367 308.545 92.8567 308.545 91.65V86.42H306.585V85.05H308.545V82.02H310.125V85.05H313.645V86.42H310.125V91.43C310.125 92.2633 310.305 92.8467 310.665 93.18C311.032 93.5067 311.552 93.67 312.225 93.67C312.519 93.67 312.785 93.6567 313.025 93.63C313.265 93.5967 313.515 93.5533 313.775 93.5V94.89C313.502 94.9567 313.212 95.01 312.905 95.05C312.599 95.0967 312.299 95.12 312.005 95.12ZM316.045 95V85.05H317.625V86.78C317.939 86.1533 318.339 85.6733 318.825 85.34C319.312 85 319.875 84.83 320.515 84.83C320.822 84.83 321.115 84.86 321.395 84.92V86.5C321.242 86.48 321.075 86.4633 320.895 86.45C320.722 86.4367 320.552 86.43 320.385 86.43C319.659 86.43 319.069 86.6533 318.615 87.1C318.169 87.54 317.839 88.13 317.625 88.87V95H316.045ZM326.857 95.22C325.704 95.22 324.824 94.8433 324.217 94.09C323.611 93.3367 323.307 92.2667 323.307 90.88V85.05H324.887V90.65C324.887 91.6767 325.077 92.4533 325.457 92.98C325.844 93.5 326.441 93.76 327.247 93.76H327.427C328.167 93.76 328.801 93.52 329.327 93.04C329.854 92.5533 330.241 91.9467 330.487 91.22V85.05H332.067V95H330.487V93.11C330.121 93.7633 329.647 94.28 329.067 94.66C328.487 95.0333 327.817 95.22 327.057 95.22H326.857ZM339.444 95.22C338.497 95.22 337.667 95.0033 336.954 94.57C336.241 94.1367 335.684 93.53 335.284 92.75C334.891 91.97 334.694 91.0633 334.694 90.03C334.694 89.0167 334.891 88.12 335.284 87.34C335.677 86.5533 336.224 85.94 336.924 85.5C337.631 85.0533 338.447 84.83 339.374 84.83H339.564C340.444 84.83 341.211 85.05 341.864 85.49C342.517 85.9233 343.021 86.5367 343.374 87.33C343.734 88.1233 343.914 89.0567 343.914 90.13V90.67H336.314C336.421 91.6233 336.754 92.38 337.314 92.94C337.881 93.5 338.614 93.78 339.514 93.78H339.694C340.227 93.78 340.721 93.6733 341.174 93.46C341.634 93.2467 342.021 92.9533 342.334 92.58L343.344 93.61C342.911 94.11 342.374 94.5033 341.734 94.79C341.094 95.0767 340.397 95.22 339.644 95.22H339.444ZM339.344 86.26C338.517 86.26 337.834 86.54 337.294 87.1C336.754 87.66 336.431 88.4133 336.324 89.36H342.324C342.277 88.48 342.011 87.7433 341.524 87.15C341.044 86.5567 340.377 86.26 339.524 86.26H339.344Z" fill="#8891EC"/>
<path d="M294 62H340C353.807 62 365 73.1929 365 87V87C365 100.807 353.807 112 340 112H294V62Z" stroke="#8891EC" stroke-linejoin="bevel"/>
<rect x="44.9994" y="220" width="185" height="145" rx="13" fill="#343A46" stroke="#C76A15" stroke-width="4" stroke-linejoin="bevel"/>
<rect x="48.9994" y="224" width="177" height="137" rx="9" fill="#343A46" stroke="#FABD62" stroke-width="4" stroke-linejoin="bevel"/>
<rect x="50.9994" y="226" width="173" height="133" rx="6" fill="#343A46" stroke="#FABD62" stroke-linejoin="bevel"/>
<path d="M18.586 323.941L33.7118 317.462C33.9081 317.336 34.1517 317.3 34.389 317.363C34.6264 317.427 34.838 317.584 34.9773 317.8C35.1167 318.016 35.1724 318.274 35.1321 318.516C35.0918 318.759 34.9589 318.966 34.7627 319.092L22.6159 330.193C22.5213 330.279 22.4079 330.341 22.2836 330.375C22.1594 330.408 22.0272 330.412 21.8962 330.387C21.7653 330.362 21.6387 330.307 21.5253 330.228C21.4119 330.148 21.3143 330.046 21.2394 329.927L18.2603 325.305C18.1829 325.188 18.1296 325.057 18.1041 324.92C18.0785 324.784 18.0813 324.647 18.1123 324.517C18.1433 324.387 18.2017 324.269 18.2835 324.169C18.3653 324.07 18.4685 323.992 18.586 323.941Z" fill="#FABD62"/>
<path d="M18.586 260.31L33.7118 266.789C33.9081 266.915 34.1517 266.951 34.389 266.887C34.6264 266.824 34.838 266.667 34.9773 266.451C35.1167 266.235 35.1724 265.977 35.1321 265.735C35.0918 265.492 34.9589 265.285 34.7627 265.159L22.6159 254.058C22.5213 253.972 22.4079 253.91 22.2836 253.876C22.1594 253.843 22.0272 253.839 21.8962 253.864C21.7653 253.889 21.6387 253.944 21.5253 254.023C21.4119 254.103 21.3143 254.205 21.2394 254.324L18.2603 258.946C18.1829 259.063 18.1296 259.194 18.1041 259.331C18.0785 259.467 18.0813 259.604 18.1123 259.734C18.1433 259.864 18.2017 259.982 18.2835 260.082C18.3653 260.181 18.4685 260.259 18.586 260.31Z" fill="#FABD62"/>
<path d="M7.52991 296.704L32.2489 294.306C32.6015 294.327 32.9479 294.204 33.212 293.966C33.476 293.727 33.6361 293.392 33.6569 293.035C33.6778 292.677 33.5576 292.326 33.323 292.058C33.0884 291.791 32.7586 291.629 32.4059 291.608L8.13225 286.358C7.94341 286.318 7.74811 286.32 7.55985 286.363C7.37159 286.407 7.19486 286.492 7.04196 286.612C6.88905 286.731 6.76362 286.884 6.67432 287.057C6.58501 287.231 6.53399 287.422 6.52479 287.618L6.07951 295.266C6.06594 295.461 6.09442 295.657 6.16295 295.84C6.23148 296.023 6.33841 296.189 6.47638 296.326C6.61434 296.462 6.78004 296.567 6.96196 296.632C7.14387 296.698 7.33766 296.722 7.52991 296.704Z" fill="#FABD62"/>
<path d="M256.413 323.943L241.287 317.464C241.091 317.338 240.847 317.302 240.61 317.365C240.372 317.429 240.161 317.586 240.021 317.802C239.882 318.018 239.826 318.276 239.867 318.518C239.907 318.761 240.04 318.968 240.236 319.094L252.383 330.195C252.478 330.281 252.591 330.343 252.715 330.377C252.839 330.41 252.972 330.414 253.103 330.389C253.234 330.364 253.36 330.309 253.473 330.23C253.587 330.15 253.684 330.048 253.759 329.929L256.739 325.307C256.816 325.19 256.869 325.058 256.895 324.922C256.92 324.786 256.918 324.649 256.887 324.519C256.856 324.389 256.797 324.27 256.715 324.171C256.634 324.072 256.53 323.994 256.413 323.943Z" fill="#FABD62"/>
<path d="M256.413 260.311L241.287 266.791C241.091 266.917 240.847 266.953 240.61 266.889C240.372 266.826 240.161 266.669 240.021 266.453C239.882 266.237 239.826 265.979 239.867 265.737C239.907 265.494 240.04 265.287 240.236 265.161L252.383 254.06C252.478 253.974 252.591 253.912 252.715 253.878C252.839 253.845 252.972 253.841 253.103 253.866C253.234 253.891 253.36 253.946 253.473 254.025C253.587 254.105 253.684 254.207 253.759 254.326L256.739 258.948C256.816 259.065 256.869 259.196 256.895 259.333C256.92 259.469 256.918 259.606 256.887 259.736C256.856 259.866 256.797 259.984 256.715 260.084C256.634 260.183 256.53 260.261 256.413 260.311Z" fill="#FABD62"/>
<path d="M267.469 296.706L242.75 294.308C242.397 294.329 242.051 294.206 241.787 293.968C241.523 293.729 241.363 293.394 241.342 293.037C241.321 292.679 241.441 292.328 241.676 292.06C241.91 291.793 242.24 291.631 242.593 291.61L266.867 286.36C267.055 286.32 267.251 286.322 267.439 286.365C267.627 286.409 267.804 286.494 267.957 286.614C268.11 286.733 268.235 286.885 268.324 287.059C268.414 287.233 268.465 287.424 268.474 287.62L268.919 295.268C268.933 295.463 268.904 295.659 268.836 295.842C268.767 296.025 268.66 296.191 268.522 296.328C268.384 296.464 268.219 296.569 268.037 296.634C267.855 296.7 267.661 296.724 267.469 296.706Z" fill="#FABD62"/>
<path d="M106.575 267.24C105.255 267.24 104.101 266.95 103.115 266.37C102.128 265.783 101.361 264.957 100.815 263.89C100.275 262.823 100.005 261.567 100.005 260.12C100.005 258.667 100.275 257.39 100.815 256.29C101.361 255.183 102.128 254.32 103.115 253.7C104.101 253.073 105.255 252.76 106.575 252.76H106.875C108.175 252.76 109.285 253.06 110.205 253.66C111.131 254.253 111.861 255.05 112.395 256.05L110.605 257.09C110.231 256.377 109.728 255.807 109.095 255.38C108.468 254.953 107.718 254.74 106.845 254.74H106.565C105.738 254.74 104.995 254.95 104.335 255.37C103.681 255.79 103.161 256.397 102.775 257.19C102.395 257.983 102.205 258.943 102.205 260.07C102.205 261.197 102.395 262.147 102.775 262.92C103.161 263.687 103.681 264.27 104.335 264.67C104.995 265.063 105.738 265.26 106.565 265.26H106.845C107.725 265.26 108.471 265.067 109.085 264.68C109.698 264.287 110.198 263.747 110.585 263.06L112.365 264.12C111.818 265.073 111.088 265.833 110.175 266.4C109.261 266.96 108.161 267.24 106.875 267.24H106.575ZM119.015 267.24C118.002 267.24 117.118 267.017 116.365 266.57C115.618 266.117 115.042 265.497 114.635 264.71C114.228 263.917 114.025 263.013 114.025 262C114.025 260.98 114.228 260.077 114.635 259.29C115.042 258.503 115.618 257.887 116.365 257.44C117.118 256.987 118.002 256.76 119.015 256.76H119.235C120.255 256.76 121.138 256.987 121.885 257.44C122.632 257.887 123.208 258.503 123.615 259.29C124.022 260.077 124.225 260.98 124.225 262C124.225 263.013 124.022 263.917 123.615 264.71C123.208 265.497 122.632 266.117 121.885 266.57C121.138 267.017 120.255 267.24 119.235 267.24H119.015ZM119.025 265.38H119.225C120.138 265.38 120.855 265.073 121.375 264.46C121.895 263.847 122.155 263.027 122.155 262C122.155 260.967 121.895 260.147 121.375 259.54C120.855 258.927 120.138 258.62 119.225 258.62H119.025C118.118 258.62 117.402 258.927 116.875 259.54C116.355 260.147 116.095 260.967 116.095 262C116.095 263.027 116.355 263.847 116.875 264.46C117.402 265.073 118.118 265.38 119.025 265.38ZM129.986 267.24C128.833 267.24 127.953 266.85 127.346 266.07C126.739 265.29 126.436 264.193 126.436 262.78V257H128.436V262.54C128.436 264.433 129.123 265.38 130.496 265.38H130.696C131.376 265.38 131.953 265.17 132.426 264.75C132.906 264.33 133.263 263.8 133.496 263.16V257H135.496V267H133.496V265.33C133.129 265.923 132.669 266.39 132.116 266.73C131.569 267.07 130.933 267.24 130.206 267.24H129.986ZM138.442 267V257H140.442V258.67C140.809 258.077 141.265 257.61 141.812 257.27C142.365 256.93 143.005 256.76 143.732 256.76H143.952C145.059 256.76 145.925 257.15 146.552 257.93C147.185 258.71 147.502 259.807 147.502 261.22V267H145.502V261.46C145.502 259.567 144.815 258.62 143.442 258.62H143.242C142.562 258.62 141.982 258.83 141.502 259.25C141.029 259.67 140.675 260.2 140.442 260.84V267H138.442ZM154.778 267.13C153.591 267.13 152.688 266.83 152.068 266.23C151.448 265.63 151.138 264.707 151.138 263.46V258.74H149.178V257H151.138V254.02H153.138V257H156.508V258.74H153.138V263.19C153.138 263.977 153.301 264.523 153.628 264.83C153.955 265.137 154.438 265.29 155.078 265.29C155.385 265.29 155.658 265.277 155.898 265.25C156.145 265.223 156.398 265.19 156.658 265.15V266.9C156.391 266.967 156.091 267.02 155.758 267.06C155.425 267.107 155.098 267.13 154.778 267.13ZM162.985 267.24C162.025 267.24 161.182 267.02 160.455 266.58C159.735 266.14 159.172 265.527 158.765 264.74C158.365 263.953 158.165 263.043 158.165 262.01C158.165 260.977 158.365 260.067 158.765 259.28C159.172 258.487 159.735 257.87 160.455 257.43C161.182 256.983 162.025 256.76 162.985 256.76H163.205C164.079 256.76 164.845 256.977 165.505 257.41C166.172 257.837 166.692 258.457 167.065 259.27C167.439 260.077 167.625 261.05 167.625 262.19V262.8H160.235C160.355 263.62 160.662 264.267 161.155 264.74C161.655 265.207 162.305 265.44 163.105 265.44H163.305C163.785 265.44 164.245 265.343 164.685 265.15C165.125 264.95 165.495 264.683 165.795 264.35L167.025 265.65C166.572 266.137 166.012 266.523 165.345 266.81C164.685 267.097 163.972 267.24 163.205 267.24H162.985ZM162.925 258.56C162.212 258.56 161.615 258.797 161.135 259.27C160.662 259.737 160.362 260.377 160.235 261.19H165.615C165.555 260.45 165.312 259.827 164.885 259.32C164.465 258.813 163.879 258.56 163.125 258.56H162.925ZM169.965 267V257H171.965V258.52C172.632 257.347 173.549 256.76 174.715 256.76C175.035 256.76 175.325 256.787 175.585 256.84V258.86C175.425 258.84 175.252 258.823 175.065 258.81C174.885 258.797 174.709 258.79 174.535 258.79C173.875 258.79 173.335 258.98 172.915 259.36C172.495 259.74 172.179 260.26 171.965 260.92V267H169.965Z" fill="white"/>
<path d="M70.9994 311C70.9994 297.193 82.1923 286 95.9994 286H157.999V336H95.9994C82.1923 336 70.9994 324.807 70.9994 311V311Z" fill="#343A46"/>
<path d="M97.0635 319.22C96.1169 319.22 95.2835 319.01 94.5635 318.59C93.8435 318.163 93.2802 317.563 92.8735 316.79C92.4735 316.01 92.2735 315.09 92.2735 314.03C92.2735 312.97 92.4735 312.05 92.8735 311.27C93.2735 310.49 93.8335 309.89 94.5535 309.47C95.2735 309.043 96.1102 308.83 97.0635 308.83H97.2635C98.0369 308.83 98.7535 309.02 99.4135 309.4C100.074 309.78 100.61 310.297 101.024 310.95L99.8135 311.82C99.5069 311.347 99.1369 310.977 98.7035 310.71C98.2702 310.437 97.7769 310.3 97.2235 310.3H97.0335C96.0735 310.3 95.3135 310.64 94.7535 311.32C94.1935 311.993 93.9135 312.897 93.9135 314.03C93.9135 315.157 94.1935 316.06 94.7535 316.74C95.3135 317.413 96.0735 317.75 97.0335 317.75H97.2235C97.7835 317.75 98.2835 317.63 98.7235 317.39C99.1702 317.15 99.5535 316.827 99.8735 316.42L101.024 317.36C100.597 317.94 100.057 318.397 99.4035 318.73C98.7502 319.057 98.0369 319.22 97.2635 319.22H97.0635ZM107.739 319.22C106.746 319.22 105.886 318.997 105.159 318.55C104.432 318.103 103.869 317.49 103.469 316.71C103.076 315.93 102.879 315.037 102.879 314.03C102.879 313.017 103.076 312.12 103.469 311.34C103.869 310.56 104.432 309.947 105.159 309.5C105.886 309.053 106.746 308.83 107.739 308.83H107.939C108.932 308.83 109.792 309.053 110.519 309.5C111.246 309.947 111.806 310.56 112.199 311.34C112.599 312.12 112.799 313.017 112.799 314.03C112.799 315.037 112.599 315.93 112.199 316.71C111.806 317.49 111.246 318.103 110.519 318.55C109.792 318.997 108.932 319.22 107.939 319.22H107.739ZM107.749 317.76H107.929C108.922 317.76 109.709 317.42 110.289 316.74C110.869 316.06 111.159 315.157 111.159 314.03C111.159 312.897 110.869 311.993 110.289 311.32C109.709 310.64 108.922 310.3 107.929 310.3H107.749C106.756 310.3 105.969 310.64 105.389 311.32C104.809 311.993 104.519 312.897 104.519 314.03C104.519 315.157 104.809 316.06 105.389 316.74C105.969 317.42 106.756 317.76 107.749 317.76ZM118.812 319.22C117.658 319.22 116.778 318.843 116.172 318.09C115.565 317.337 115.262 316.267 115.262 314.88V309.05H116.842V314.65C116.842 315.677 117.032 316.453 117.412 316.98C117.798 317.5 118.395 317.76 119.202 317.76H119.382C120.122 317.76 120.755 317.52 121.282 317.04C121.808 316.553 122.195 315.947 122.442 315.22V309.05H124.022V319H122.442V317.11C122.075 317.763 121.602 318.28 121.022 318.66C120.442 319.033 119.772 319.22 119.012 319.22H118.812ZM127.219 319V309.05H128.799V310.94C129.165 310.287 129.639 309.773 130.219 309.4C130.799 309.02 131.469 308.83 132.229 308.83H132.429C133.555 308.83 134.429 309.207 135.049 309.96C135.669 310.707 135.979 311.777 135.979 313.17V319H134.399V313.4C134.399 312.373 134.209 311.6 133.829 311.08C133.449 310.56 132.852 310.3 132.039 310.3H131.849C131.109 310.3 130.475 310.54 129.949 311.02C129.429 311.5 129.045 312.103 128.799 312.83V319H127.219ZM143.315 319.12C142.209 319.12 141.355 318.843 140.755 318.29C140.155 317.737 139.855 316.857 139.855 315.65V310.42H137.895V309.05H139.855V306.02H141.435V309.05H144.955V310.42H141.435V315.43C141.435 316.263 141.615 316.847 141.975 317.18C142.342 317.507 142.862 317.67 143.535 317.67C143.829 317.67 144.095 317.657 144.335 317.63C144.575 317.597 144.825 317.553 145.085 317.5V318.89C144.812 318.957 144.522 319.01 144.215 319.05C143.909 319.097 143.609 319.12 143.315 319.12Z" fill="#8891EC"/>
<path d="M70.9994 311C70.9994 297.193 82.1923 286 95.9994 286H157.999V336H95.9994C82.1923 336 70.9994 324.807 70.9994 311V311Z" stroke="#8891EC" stroke-linejoin="bevel"/>
<path d="M157.999 286H178.999C192.807 286 203.999 297.193 203.999 311V311C203.999 324.807 192.807 336 178.999 336H157.999V286Z" fill="#343A46"/>
<path d="M176.871 319.22C175.745 319.22 174.778 318.93 173.971 318.35C173.165 317.77 172.545 316.94 172.111 315.86C171.685 314.78 171.471 313.493 171.471 312C171.471 310.507 171.685 309.22 172.111 308.14C172.545 307.06 173.165 306.23 173.971 305.65C174.778 305.07 175.745 304.78 176.871 304.78H177.121C178.248 304.78 179.211 305.07 180.011 305.65C180.818 306.23 181.435 307.06 181.861 308.14C182.295 309.22 182.511 310.507 182.511 312C182.511 313.493 182.295 314.78 181.861 315.86C181.435 316.94 180.818 317.77 180.011 318.35C179.211 318.93 178.248 319.22 177.121 319.22H176.871ZM176.881 317.69H177.111C178.271 317.69 179.175 317.213 179.821 316.26C180.475 315.3 180.801 313.88 180.801 312C180.801 310.12 180.475 308.703 179.821 307.75C179.175 306.79 178.271 306.31 177.111 306.31H176.881C175.721 306.31 174.815 306.79 174.161 307.75C173.508 308.703 173.181 310.12 173.181 312C173.181 313.88 173.508 315.3 174.161 316.26C174.815 317.213 175.721 317.69 176.881 317.69Z" fill="#8891EC"/>
<path d="M157.999 286H178.999C192.807 286 203.999 297.193 203.999 311V311C203.999 324.807 192.807 336 178.999 336H157.999V286Z" stroke="#8891EC" stroke-linejoin="bevel"/>
<path d="M269 136L269 157C269 165.837 261.837 173 253 173L154 173C145.163 173 138 180.163 138 189L138 222" stroke="#FABD62" stroke-width="3"/>
</svg>
