<svg width="500" height="258" viewBox="0 0 500 258" fill="none" xmlns="http://www.w3.org/2000/svg">
<rect x="205" y="1" width="83" height="50.2663" rx="6" fill="#343A46" stroke="white" stroke-linejoin="bevel"/>
<path fill-rule="evenodd" clip-rule="evenodd" d="M205 45.2666V47.0002C205 50.3139 207.686 53.0002 211 53.0002H282C285.314 53.0002 288 50.3139 288 47.0002V45.2666C288 48.5803 285.314 51.2666 282 51.2666H211C207.686 51.2666 205 48.5803 205 45.2666Z" fill="white"/>
<path d="M237.651 34.24C236.764 34.24 235.987 34.0167 235.321 33.57C234.661 33.1167 234.147 32.4967 233.781 31.71C233.414 30.9167 233.231 30.0133 233.231 29C233.231 27.9867 233.414 27.0867 233.781 26.3C234.147 25.5067 234.661 24.8867 235.321 24.44C235.987 23.9867 236.764 23.76 237.651 23.76H237.871C238.531 23.76 239.141 23.9033 239.701 24.19C240.267 24.47 240.734 24.89 241.101 25.45V19.4H243.101V34H241.101V32.43C240.754 33.03 240.301 33.4833 239.741 33.79C239.181 34.09 238.557 34.24 237.871 34.24H237.651ZM238.151 32.39H238.351C238.944 32.39 239.477 32.2133 239.951 31.86C240.431 31.5067 240.814 31.0233 241.101 30.41V27.59C240.814 26.9767 240.431 26.4933 239.951 26.14C239.477 25.7867 238.944 25.61 238.351 25.61H238.151C237.277 25.61 236.584 25.9033 236.071 26.49C235.557 27.0767 235.301 27.9133 235.301 29C235.301 30.0867 235.557 30.9233 236.071 31.51C236.584 32.0967 237.277 32.39 238.151 32.39ZM247.046 22.22C246.64 22.22 246.316 22.0967 246.076 21.85C245.843 21.5967 245.726 21.2767 245.726 20.89C245.726 20.4967 245.843 20.1767 246.076 19.93C246.316 19.6833 246.64 19.56 247.046 19.56C247.46 19.56 247.783 19.6833 248.016 19.93C248.25 20.1767 248.366 20.4967 248.366 20.89C248.366 21.2767 248.25 21.5967 248.016 21.85C247.783 22.0967 247.46 22.22 247.046 22.22ZM246.046 34V24H248.046V34H246.046ZM253.878 34C253.158 32.38 252.471 30.73 251.818 29.05C251.171 27.3633 250.571 25.68 250.018 24H252.278C252.684 25.38 253.128 26.7633 253.608 28.15C254.094 29.5367 254.608 30.91 255.148 32.27C255.688 30.91 256.198 29.5367 256.678 28.15C257.164 26.7633 257.611 25.38 258.018 24H260.198C259.644 25.68 259.041 27.3633 258.388 29.05C257.741 30.73 257.058 32.38 256.338 34H253.878Z" fill="white"/>
<rect x="37" y="118" width="173" height="133" rx="6" fill="#343A46" stroke="white" stroke-linejoin="bevel"/>
<path fill-rule="evenodd" clip-rule="evenodd" d="M37 245V247C37 250.314 39.6863 253 43 253H204C207.314 253 210 250.314 210 247V245C210 248.314 207.314 251 204 251H43C39.6863 251 37 248.314 37 245Z" fill="white"/>
<path d="M92.5753 160.24C91.2553 160.24 90.102 159.95 89.1153 159.37C88.1286 158.783 87.362 157.957 86.8153 156.89C86.2753 155.823 86.0053 154.567 86.0053 153.12C86.0053 151.667 86.2753 150.39 86.8153 149.29C87.362 148.183 88.1286 147.32 89.1153 146.7C90.102 146.073 91.2553 145.76 92.5753 145.76H92.8753C94.1753 145.76 95.2853 146.06 96.2053 146.66C97.132 147.253 97.862 148.05 98.3953 149.05L96.6053 150.09C96.232 149.377 95.7286 148.807 95.0953 148.38C94.4686 147.953 93.7186 147.74 92.8453 147.74H92.5653C91.7386 147.74 90.9953 147.95 90.3353 148.37C89.682 148.79 89.162 149.397 88.7753 150.19C88.3953 150.983 88.2053 151.943 88.2053 153.07C88.2053 154.197 88.3953 155.147 88.7753 155.92C89.162 156.687 89.682 157.27 90.3353 157.67C90.9953 158.063 91.7386 158.26 92.5653 158.26H92.8453C93.7253 158.26 94.472 158.067 95.0853 157.68C95.6986 157.287 96.1986 156.747 96.5853 156.06L98.3653 157.12C97.8186 158.073 97.0886 158.833 96.1753 159.4C95.262 159.96 94.162 160.24 92.8753 160.24H92.5753ZM105.015 160.24C104.002 160.24 103.119 160.017 102.365 159.57C101.619 159.117 101.042 158.497 100.635 157.71C100.229 156.917 100.025 156.013 100.025 155C100.025 153.98 100.229 153.077 100.635 152.29C101.042 151.503 101.619 150.887 102.365 150.44C103.119 149.987 104.002 149.76 105.015 149.76H105.235C106.255 149.76 107.139 149.987 107.885 150.44C108.632 150.887 109.209 151.503 109.615 152.29C110.022 153.077 110.225 153.98 110.225 155C110.225 156.013 110.022 156.917 109.615 157.71C109.209 158.497 108.632 159.117 107.885 159.57C107.139 160.017 106.255 160.24 105.235 160.24H105.015ZM105.025 158.38H105.225C106.139 158.38 106.855 158.073 107.375 157.46C107.895 156.847 108.155 156.027 108.155 155C108.155 153.967 107.895 153.147 107.375 152.54C106.855 151.927 106.139 151.62 105.225 151.62H105.025C104.119 151.62 103.402 151.927 102.875 152.54C102.355 153.147 102.095 153.967 102.095 155C102.095 156.027 102.355 156.847 102.875 157.46C103.402 158.073 104.119 158.38 105.025 158.38ZM115.987 160.24C114.833 160.24 113.953 159.85 113.347 159.07C112.74 158.29 112.437 157.193 112.437 155.78V150H114.437V155.54C114.437 157.433 115.123 158.38 116.497 158.38H116.697C117.377 158.38 117.953 158.17 118.427 157.75C118.907 157.33 119.263 156.8 119.497 156.16V150H121.497V160H119.497V158.33C119.13 158.923 118.67 159.39 118.117 159.73C117.57 160.07 116.933 160.24 116.207 160.24H115.987ZM124.443 160V150H126.443V151.67C126.809 151.077 127.266 150.61 127.813 150.27C128.366 149.93 129.006 149.76 129.733 149.76H129.953C131.059 149.76 131.926 150.15 132.553 150.93C133.186 151.71 133.503 152.807 133.503 154.22V160H131.503V154.46C131.503 152.567 130.816 151.62 129.443 151.62H129.243C128.563 151.62 127.983 151.83 127.503 152.25C127.029 152.67 126.676 153.2 126.443 153.84V160H124.443ZM140.779 160.13C139.592 160.13 138.689 159.83 138.069 159.23C137.449 158.63 137.139 157.707 137.139 156.46V151.74H135.179V150H137.139V147.02H139.139V150H142.509V151.74H139.139V156.19C139.139 156.977 139.302 157.523 139.629 157.83C139.955 158.137 140.439 158.29 141.079 158.29C141.385 158.29 141.659 158.277 141.899 158.25C142.145 158.223 142.399 158.19 142.659 158.15V159.9C142.392 159.967 142.092 160.02 141.759 160.06C141.425 160.107 141.099 160.13 140.779 160.13ZM148.986 160.24C148.026 160.24 147.183 160.02 146.456 159.58C145.736 159.14 145.173 158.527 144.766 157.74C144.366 156.953 144.166 156.043 144.166 155.01C144.166 153.977 144.366 153.067 144.766 152.28C145.173 151.487 145.736 150.87 146.456 150.43C147.183 149.983 148.026 149.76 148.986 149.76H149.206C150.079 149.76 150.846 149.977 151.506 150.41C152.173 150.837 152.693 151.457 153.066 152.27C153.439 153.077 153.626 154.05 153.626 155.19V155.8H146.236C146.356 156.62 146.663 157.267 147.156 157.74C147.656 158.207 148.306 158.44 149.106 158.44H149.306C149.786 158.44 150.246 158.343 150.686 158.15C151.126 157.95 151.496 157.683 151.796 157.35L153.026 158.65C152.573 159.137 152.013 159.523 151.346 159.81C150.686 160.097 149.973 160.24 149.206 160.24H148.986ZM148.926 151.56C148.213 151.56 147.616 151.797 147.136 152.27C146.663 152.737 146.363 153.377 146.236 154.19H151.616C151.556 153.45 151.313 152.827 150.886 152.32C150.466 151.813 149.879 151.56 149.126 151.56H148.926ZM155.966 160V150H157.966V151.52C158.633 150.347 159.549 149.76 160.716 149.76C161.036 149.76 161.326 149.787 161.586 149.84V151.86C161.426 151.84 161.253 151.823 161.066 151.81C160.886 151.797 160.709 151.79 160.536 151.79C159.876 151.79 159.336 151.98 158.916 152.36C158.496 152.74 158.179 153.26 157.966 153.92V160H155.966Z" fill="white"/>
<path d="M57 204C57 190.193 68.1929 179 82 179H144V229H82C68.1929 229 57 217.807 57 204V204Z" fill="#343A46"/>
<path d="M83.0641 212.22C82.1175 212.22 81.2841 212.01 80.5641 211.59C79.8441 211.163 79.2808 210.563 78.8741 209.79C78.4741 209.01 78.2741 208.09 78.2741 207.03C78.2741 205.97 78.4741 205.05 78.8741 204.27C79.2741 203.49 79.8341 202.89 80.5541 202.47C81.2741 202.043 82.1108 201.83 83.0641 201.83H83.2641C84.0375 201.83 84.7541 202.02 85.4141 202.4C86.0741 202.78 86.6108 203.297 87.0241 203.95L85.8141 204.82C85.5075 204.347 85.1375 203.977 84.7041 203.71C84.2708 203.437 83.7775 203.3 83.2241 203.3H83.0341C82.0741 203.3 81.3141 203.64 80.7541 204.32C80.1941 204.993 79.9141 205.897 79.9141 207.03C79.9141 208.157 80.1941 209.06 80.7541 209.74C81.3141 210.413 82.0741 210.75 83.0341 210.75H83.2241C83.7841 210.75 84.2841 210.63 84.7241 210.39C85.1708 210.15 85.5541 209.827 85.8741 209.42L87.0241 210.36C86.5975 210.94 86.0575 211.397 85.4041 211.73C84.7508 212.057 84.0375 212.22 83.2641 212.22H83.0641ZM93.7396 212.22C92.7463 212.22 91.8863 211.997 91.1596 211.55C90.4329 211.103 89.8696 210.49 89.4696 209.71C89.0763 208.93 88.8796 208.037 88.8796 207.03C88.8796 206.017 89.0763 205.12 89.4696 204.34C89.8696 203.56 90.4329 202.947 91.1596 202.5C91.8863 202.053 92.7463 201.83 93.7396 201.83H93.9396C94.9329 201.83 95.7929 202.053 96.5196 202.5C97.2463 202.947 97.8063 203.56 98.1996 204.34C98.5996 205.12 98.7996 206.017 98.7996 207.03C98.7996 208.037 98.5996 208.93 98.1996 209.71C97.8063 210.49 97.2463 211.103 96.5196 211.55C95.7929 211.997 94.9329 212.22 93.9396 212.22H93.7396ZM93.7496 210.76H93.9296C94.9229 210.76 95.7096 210.42 96.2896 209.74C96.8696 209.06 97.1596 208.157 97.1596 207.03C97.1596 205.897 96.8696 204.993 96.2896 204.32C95.7096 203.64 94.9229 203.3 93.9296 203.3H93.7496C92.7563 203.3 91.9696 203.64 91.3896 204.32C90.8096 204.993 90.5196 205.897 90.5196 207.03C90.5196 208.157 90.8096 209.06 91.3896 209.74C91.9696 210.42 92.7563 210.76 93.7496 210.76ZM104.812 212.22C103.659 212.22 102.779 211.843 102.172 211.09C101.566 210.337 101.262 209.267 101.262 207.88V202.05H102.842V207.65C102.842 208.677 103.032 209.453 103.412 209.98C103.799 210.5 104.396 210.76 105.202 210.76H105.382C106.122 210.76 106.756 210.52 107.282 210.04C107.809 209.553 108.196 208.947 108.442 208.22V202.05H110.022V212H108.442V210.11C108.076 210.763 107.602 211.28 107.022 211.66C106.442 212.033 105.772 212.22 105.012 212.22H104.812ZM113.219 212V202.05H114.799V203.94C115.166 203.287 115.639 202.773 116.219 202.4C116.799 202.02 117.469 201.83 118.229 201.83H118.429C119.556 201.83 120.429 202.207 121.049 202.96C121.669 203.707 121.979 204.777 121.979 206.17V212H120.399V206.4C120.399 205.373 120.209 204.6 119.829 204.08C119.449 203.56 118.852 203.3 118.039 203.3H117.849C117.109 203.3 116.476 203.54 115.949 204.02C115.429 204.5 115.046 205.103 114.799 205.83V212H113.219ZM129.316 212.12C128.209 212.12 127.356 211.843 126.756 211.29C126.156 210.737 125.856 209.857 125.856 208.65V203.42H123.896V202.05H125.856V199.02H127.436V202.05H130.956V203.42H127.436V208.43C127.436 209.263 127.616 209.847 127.976 210.18C128.343 210.507 128.863 210.67 129.536 210.67C129.829 210.67 130.096 210.657 130.336 210.63C130.576 210.597 130.826 210.553 131.086 210.5V211.89C130.813 211.957 130.523 212.01 130.216 212.05C129.909 212.097 129.609 212.12 129.316 212.12Z" fill="#8891EC"/>
<path d="M57 204C57 190.193 68.1929 179 82 179H144V229H82C68.1929 229 57 217.807 57 204V204Z" stroke="#8891EC" stroke-linejoin="bevel"/>
<path d="M144 179H165C178.807 179 190 190.193 190 204V204C190 217.807 178.807 229 165 229H144V179Z" fill="#343A46"/>
<path d="M162.872 212.22C161.745 212.22 160.779 211.93 159.972 211.35C159.165 210.77 158.545 209.94 158.112 208.86C157.685 207.78 157.472 206.493 157.472 205C157.472 203.507 157.685 202.22 158.112 201.14C158.545 200.06 159.165 199.23 159.972 198.65C160.779 198.07 161.745 197.78 162.872 197.78H163.122C164.249 197.78 165.212 198.07 166.012 198.65C166.819 199.23 167.435 200.06 167.862 201.14C168.295 202.22 168.512 203.507 168.512 205C168.512 206.493 168.295 207.78 167.862 208.86C167.435 209.94 166.819 210.77 166.012 211.35C165.212 211.93 164.249 212.22 163.122 212.22H162.872ZM162.882 210.69H163.112C164.272 210.69 165.175 210.213 165.822 209.26C166.475 208.3 166.802 206.88 166.802 205C166.802 203.12 166.475 201.703 165.822 200.75C165.175 199.79 164.272 199.31 163.112 199.31H162.882C161.722 199.31 160.815 199.79 160.162 200.75C159.509 201.703 159.182 203.12 159.182 205C159.182 206.88 159.509 208.3 160.162 209.26C160.815 210.213 161.722 210.69 162.882 210.69Z" fill="#8891EC"/>
<path d="M144 179H165C178.807 179 190 190.193 190 204V204C190 217.807 178.807 229 165 229H144V179Z" stroke="#8891EC" stroke-linejoin="bevel"/>
<rect x="275" y="111" width="185" height="145" rx="13" fill="#343A46" stroke="#C76A15" stroke-width="4" stroke-linejoin="bevel"/>
<rect x="279" y="115" width="177" height="137" rx="9" fill="#343A46" stroke="#FABD62" stroke-width="4" stroke-linejoin="bevel"/>
<rect x="281" y="117" width="173" height="133" rx="6" fill="#343A46" stroke="#FABD62" stroke-linejoin="bevel"/>
<path d="M248.589 214.941L263.715 208.462C263.911 208.335 264.155 208.3 264.392 208.363C264.629 208.426 264.841 208.583 264.98 208.8C265.12 209.016 265.175 209.273 265.135 209.516C265.095 209.758 264.962 209.965 264.766 210.092L252.619 221.193C252.524 221.279 252.411 221.341 252.287 221.374C252.162 221.408 252.03 221.412 251.899 221.387C251.768 221.361 251.642 221.307 251.528 221.227C251.415 221.148 251.317 221.045 251.242 220.926L248.263 216.305C248.186 216.187 248.133 216.056 248.107 215.92C248.081 215.784 248.084 215.646 248.115 215.516C248.146 215.387 248.205 215.268 248.286 215.169C248.368 215.069 248.471 214.992 248.589 214.941Z" fill="#FABD62"/>
<path d="M248.589 151.31L263.715 157.789C263.911 157.915 264.155 157.951 264.392 157.887C264.629 157.824 264.841 157.667 264.98 157.451C265.12 157.235 265.175 156.977 265.135 156.735C265.095 156.492 264.962 156.285 264.766 156.159L252.619 145.058C252.524 144.972 252.411 144.91 252.287 144.876C252.162 144.843 252.03 144.839 251.899 144.864C251.768 144.889 251.642 144.944 251.528 145.023C251.415 145.103 251.317 145.205 251.242 145.324L248.263 149.946C248.186 150.063 248.133 150.194 248.107 150.331C248.081 150.467 248.084 150.604 248.115 150.734C248.146 150.864 248.205 150.982 248.286 151.082C248.368 151.181 248.471 151.259 248.589 151.31Z" fill="#FABD62"/>
<path d="M237.53 187.703L262.249 185.306C262.601 185.326 262.948 185.204 263.212 184.965C263.476 184.727 263.636 184.392 263.657 184.034C263.678 183.676 263.558 183.325 263.323 183.058C263.088 182.79 262.759 182.629 262.406 182.608L238.132 177.358C237.943 177.317 237.748 177.319 237.56 177.363C237.372 177.407 237.195 177.491 237.042 177.611C236.889 177.731 236.764 177.883 236.674 178.057C236.585 178.231 236.534 178.422 236.525 178.618L236.079 186.265C236.066 186.461 236.094 186.657 236.163 186.84C236.231 187.023 236.338 187.188 236.476 187.325C236.614 187.462 236.78 187.567 236.962 187.632C237.144 187.697 237.338 187.721 237.53 187.703Z" fill="#FABD62"/>
<path d="M486.412 214.941L471.286 208.462C471.09 208.335 470.847 208.3 470.609 208.363C470.372 208.426 470.16 208.583 470.021 208.8C469.882 209.016 469.826 209.273 469.866 209.516C469.906 209.758 470.039 209.965 470.236 210.092L482.382 221.193C482.477 221.279 482.59 221.341 482.715 221.374C482.839 221.408 482.971 221.412 483.102 221.387C483.233 221.361 483.36 221.307 483.473 221.227C483.586 221.148 483.684 221.045 483.759 220.926L486.738 216.305C486.815 216.187 486.869 216.056 486.894 215.92C486.92 215.784 486.917 215.646 486.886 215.516C486.855 215.387 486.797 215.268 486.715 215.169C486.633 215.069 486.53 214.992 486.412 214.941Z" fill="#FABD62"/>
<path d="M486.412 151.31L471.286 157.789C471.09 157.915 470.847 157.951 470.609 157.887C470.372 157.824 470.16 157.667 470.021 157.451C469.882 157.235 469.826 156.977 469.866 156.735C469.906 156.492 470.039 156.285 470.236 156.159L482.382 145.058C482.477 144.972 482.59 144.91 482.715 144.876C482.839 144.843 482.971 144.839 483.102 144.864C483.233 144.889 483.36 144.944 483.473 145.023C483.586 145.103 483.684 145.205 483.759 145.324L486.738 149.946C486.815 150.063 486.869 150.194 486.894 150.331C486.92 150.467 486.917 150.604 486.886 150.734C486.855 150.864 486.797 150.982 486.715 151.082C486.633 151.181 486.53 151.259 486.412 151.31Z" fill="#FABD62"/>
<path d="M497.471 187.703L472.752 185.306C472.4 185.326 472.053 185.204 471.789 184.965C471.525 184.727 471.365 184.392 471.344 184.034C471.323 183.676 471.444 183.325 471.678 183.058C471.913 182.79 472.243 182.629 472.595 182.608L496.869 177.358C497.058 177.317 497.253 177.319 497.441 177.363C497.63 177.407 497.806 177.491 497.959 177.611C498.112 177.731 498.238 177.883 498.327 178.057C498.416 178.231 498.467 178.422 498.476 178.618L498.922 186.265C498.935 186.461 498.907 186.657 498.838 186.84C498.77 187.023 498.663 187.188 498.525 187.325C498.387 187.462 498.221 187.567 498.039 187.632C497.857 187.697 497.664 187.721 497.471 187.703Z" fill="#FABD62"/>
<path d="M335.998 158.25C334.638 158.25 333.455 157.96 332.448 157.38C331.441 156.793 330.661 155.963 330.108 154.89C329.555 153.817 329.278 152.543 329.278 151.07C329.278 149.623 329.561 148.35 330.128 147.25C330.695 146.15 331.481 145.293 332.488 144.68C333.501 144.06 334.671 143.75 335.998 143.75H336.358C337.711 143.75 338.861 144.063 339.808 144.69C340.761 145.31 341.505 146.157 342.038 147.23L339.688 148.53C339.355 147.857 338.908 147.32 338.348 146.92C337.788 146.52 337.111 146.32 336.318 146.32H336.038C335.318 146.32 334.671 146.503 334.098 146.87C333.525 147.237 333.071 147.77 332.738 148.47C332.405 149.17 332.238 150.023 332.238 151.03C332.238 152.537 332.598 153.69 333.318 154.49C334.038 155.283 334.945 155.68 336.038 155.68H336.318C337.131 155.68 337.815 155.5 338.368 155.14C338.928 154.78 339.375 154.287 339.708 153.66L342.098 154.95C341.565 155.963 340.818 156.767 339.858 157.36C338.898 157.953 337.731 158.25 336.358 158.25H335.998ZM348.556 158.25C347.516 158.25 346.609 158.023 345.836 157.57C345.063 157.117 344.463 156.493 344.036 155.7C343.616 154.9 343.406 153.987 343.406 152.96C343.406 151.927 343.616 151.013 344.036 150.22C344.463 149.427 345.063 148.803 345.836 148.35C346.609 147.897 347.516 147.67 348.556 147.67H348.836C349.876 147.67 350.783 147.897 351.556 148.35C352.329 148.803 352.929 149.427 353.356 150.22C353.783 151.013 353.996 151.927 353.996 152.96C353.996 153.987 353.783 154.9 353.356 155.7C352.929 156.493 352.329 157.117 351.556 157.57C350.783 158.023 349.876 158.25 348.836 158.25H348.556ZM348.566 155.83H348.826C349.559 155.83 350.136 155.57 350.556 155.05C350.983 154.523 351.196 153.827 351.196 152.96C351.196 152.087 350.983 151.39 350.556 150.87C350.136 150.35 349.559 150.09 348.826 150.09H348.566C347.839 150.09 347.263 150.35 346.836 150.87C346.409 151.39 346.196 152.087 346.196 152.96C346.196 153.827 346.409 154.523 346.836 155.05C347.263 155.57 347.839 155.83 348.566 155.83ZM359.316 158.25C358.183 158.25 357.319 157.847 356.726 157.04C356.133 156.233 355.836 155.137 355.836 153.75V147.92H358.546V153.45C358.546 155.037 359.093 155.83 360.186 155.83H360.396C360.883 155.83 361.319 155.68 361.706 155.38C362.099 155.08 362.406 154.673 362.626 154.16V147.92H365.336V158H362.716V156.4C362.356 156.993 361.913 157.45 361.386 157.77C360.866 158.09 360.266 158.25 359.586 158.25H359.316ZM367.901 158V147.92H370.531V149.51C370.891 148.917 371.331 148.463 371.851 148.15C372.377 147.83 372.977 147.67 373.651 147.67H373.931C375.044 147.67 375.901 148.073 376.501 148.88C377.107 149.68 377.411 150.777 377.411 152.17V158H374.701V152.47C374.701 150.883 374.151 150.09 373.051 150.09H372.841C372.354 150.09 371.914 150.243 371.521 150.55C371.134 150.85 370.831 151.26 370.611 151.78V158H367.901ZM384.635 158.14C383.362 158.14 382.389 157.823 381.715 157.19C381.042 156.557 380.705 155.587 380.705 154.28V150.12H378.725V147.92H380.705V145.02H383.415V147.92H386.635V150.12H383.415V153.86C383.415 154.587 383.572 155.09 383.885 155.37C384.205 155.643 384.659 155.78 385.245 155.78C385.532 155.78 385.799 155.767 386.045 155.74C386.292 155.707 386.539 155.663 386.785 155.61V157.86C386.479 157.947 386.142 158.013 385.775 158.06C385.409 158.113 385.029 158.14 384.635 158.14ZM392.997 158.25C392.003 158.25 391.127 158.033 390.367 157.6C389.607 157.167 389.013 156.557 388.587 155.77C388.167 154.977 387.957 154.05 387.957 152.99C387.957 151.917 388.167 150.983 388.587 150.19C389.013 149.39 389.6 148.77 390.347 148.33C391.093 147.89 391.953 147.67 392.927 147.67H393.197C394.123 147.67 394.933 147.893 395.627 148.34C396.32 148.78 396.86 149.41 397.247 150.23C397.633 151.05 397.827 152.023 397.827 153.15V153.83H390.707C390.84 154.503 391.12 155.027 391.547 155.4C391.98 155.773 392.547 155.96 393.247 155.96H393.437C394.377 155.96 395.163 155.633 395.797 154.98L397.237 156.76C396.75 157.22 396.163 157.583 395.477 157.85C394.79 158.117 394.053 158.25 393.267 158.25H392.997ZM392.917 149.9C392.337 149.9 391.853 150.083 391.467 150.45C391.08 150.817 390.827 151.333 390.707 152H395.157C395.077 151.387 394.86 150.883 394.507 150.49C394.16 150.097 393.687 149.9 393.087 149.9H392.917ZM399.815 158V147.92H402.445V149.5C403.105 148.28 404.021 147.67 405.195 147.67C405.501 147.67 405.808 147.7 406.115 147.76V150.38C405.955 150.353 405.768 150.333 405.555 150.32C405.341 150.307 405.151 150.3 404.985 150.3C404.351 150.3 403.835 150.46 403.435 150.78C403.035 151.1 402.731 151.543 402.525 152.11V158H399.815Z" fill="white"/>
<path d="M301 202C301 188.193 312.192 177 326 177H388V227H326C312.192 227 301 215.807 301 202V202Z" fill="#343A46"/>
<path d="M326.937 210.24C325.977 210.24 325.127 210.03 324.387 209.61C323.647 209.19 323.067 208.59 322.647 207.81C322.234 207.023 322.027 206.09 322.027 205.01C322.027 203.923 322.234 202.99 322.647 202.21C323.06 201.423 323.634 200.82 324.367 200.4C325.107 199.973 325.964 199.76 326.937 199.76H327.157C327.93 199.76 328.66 199.96 329.347 200.36C330.04 200.753 330.6 201.297 331.027 201.99L329.477 203.07C329.19 202.617 328.847 202.263 328.447 202.01C328.047 201.75 327.594 201.62 327.087 201.62H326.887C326.02 201.62 325.337 201.927 324.837 202.54C324.344 203.147 324.097 203.967 324.097 205C324.097 206.027 324.344 206.847 324.837 207.46C325.337 208.073 326.02 208.38 326.887 208.38H327.087C327.594 208.38 328.06 208.267 328.487 208.04C328.914 207.813 329.28 207.51 329.587 207.13L331.027 208.35C330.58 208.937 330.017 209.4 329.337 209.74C328.664 210.073 327.937 210.24 327.157 210.24H326.937ZM337.662 210.24C336.648 210.24 335.765 210.017 335.012 209.57C334.265 209.117 333.688 208.497 333.282 207.71C332.875 206.917 332.672 206.013 332.672 205C332.672 203.98 332.875 203.077 333.282 202.29C333.688 201.503 334.265 200.887 335.012 200.44C335.765 199.987 336.648 199.76 337.662 199.76H337.882C338.902 199.76 339.785 199.987 340.532 200.44C341.278 200.887 341.855 201.503 342.262 202.29C342.668 203.077 342.872 203.98 342.872 205C342.872 206.013 342.668 206.917 342.262 207.71C341.855 208.497 341.278 209.117 340.532 209.57C339.785 210.017 338.902 210.24 337.882 210.24H337.662ZM337.672 208.38H337.872C338.785 208.38 339.502 208.073 340.022 207.46C340.542 206.847 340.802 206.027 340.802 205C340.802 203.967 340.542 203.147 340.022 202.54C339.502 201.927 338.785 201.62 337.872 201.62H337.672C336.765 201.62 336.048 201.927 335.522 202.54C335.002 203.147 334.742 203.967 334.742 205C334.742 206.027 335.002 206.847 335.522 207.46C336.048 208.073 336.765 208.38 337.672 208.38ZM348.633 210.24C347.479 210.24 346.599 209.85 345.993 209.07C345.386 208.29 345.083 207.193 345.083 205.78V200H347.083V205.54C347.083 207.433 347.769 208.38 349.143 208.38H349.343C350.023 208.38 350.599 208.17 351.073 207.75C351.553 207.33 351.909 206.8 352.143 206.16V200H354.143V210H352.143V208.33C351.776 208.923 351.316 209.39 350.763 209.73C350.216 210.07 349.579 210.24 348.853 210.24H348.633ZM357.089 210V200H359.089V201.67C359.455 201.077 359.912 200.61 360.459 200.27C361.012 199.93 361.652 199.76 362.379 199.76H362.599C363.705 199.76 364.572 200.15 365.199 200.93C365.832 201.71 366.149 202.807 366.149 204.22V210H364.149V204.46C364.149 202.567 363.462 201.62 362.089 201.62H361.889C361.209 201.62 360.629 201.83 360.149 202.25C359.675 202.67 359.322 203.2 359.089 203.84V210H357.089ZM373.425 210.13C372.238 210.13 371.335 209.83 370.715 209.23C370.095 208.63 369.785 207.707 369.785 206.46V201.74H367.825V200H369.785V197.02H371.785V200H375.155V201.74H371.785V206.19C371.785 206.977 371.948 207.523 372.275 207.83C372.601 208.137 373.085 208.29 373.725 208.29C374.031 208.29 374.305 208.277 374.545 208.25C374.791 208.223 375.045 208.19 375.305 208.15V209.9C375.038 209.967 374.738 210.02 374.405 210.06C374.071 210.107 373.745 210.13 373.425 210.13Z" fill="#8891EC"/>
<path d="M301 202C301 188.193 312.192 177 326 177H388V227H326C312.192 227 301 215.807 301 202V202Z" stroke="#8891EC" stroke-linejoin="bevel"/>
<path d="M388 177H409C422.807 177 434 188.193 434 202V202C434 215.807 422.807 227 409 227H388V177Z" fill="#343A46"/>
<path d="M406.853 210.24C405.706 210.24 404.723 209.95 403.903 209.37C403.089 208.783 402.463 207.95 402.023 206.87C401.583 205.783 401.363 204.493 401.363 203C401.363 201.5 401.583 200.21 402.023 199.13C402.463 198.05 403.089 197.22 403.903 196.64C404.723 196.053 405.706 195.76 406.853 195.76H407.153C408.299 195.76 409.279 196.053 410.093 196.64C410.913 197.22 411.543 198.05 411.983 199.13C412.423 200.21 412.643 201.5 412.643 203C412.643 204.493 412.423 205.783 411.983 206.87C411.543 207.95 410.913 208.783 410.093 209.37C409.279 209.95 408.299 210.24 407.153 210.24H406.853ZM406.863 208.3H407.143C408.189 208.3 409.006 207.857 409.593 206.97C410.186 206.077 410.483 204.753 410.483 203C410.483 201.247 410.186 199.927 409.593 199.04C409.006 198.147 408.189 197.7 407.143 197.7H406.863C405.816 197.7 404.996 198.147 404.403 199.04C403.816 199.927 403.523 201.247 403.523 203C403.523 204.753 403.816 206.077 404.403 206.97C404.996 207.857 405.816 208.3 406.863 208.3Z" fill="#8891EC"/>
<path d="M388 177H409C422.807 177 434 188.193 434 202V202C434 215.807 422.807 227 409 227H388V177Z" stroke="#8891EC" stroke-linejoin="bevel"/>
<path d="M12.5889 153.81L27.7147 160.289C27.911 160.415 28.1546 160.451 28.3919 160.387C28.6292 160.324 28.8409 160.167 28.9802 159.951C29.1196 159.735 29.1752 159.477 29.135 159.235C29.0947 158.992 28.9618 158.785 28.7655 158.659L16.6188 147.558C16.5242 147.472 16.4108 147.41 16.2865 147.376C16.1623 147.343 16.0301 147.339 15.8991 147.364C15.7682 147.389 15.6416 147.444 15.5282 147.523C15.4148 147.603 15.3172 147.705 15.2423 147.824L12.2632 152.446C12.1858 152.563 12.1325 152.694 12.107 152.831C12.0814 152.967 12.0842 153.104 12.1152 153.234C12.1461 153.364 12.2046 153.482 12.2864 153.582C12.3682 153.681 12.4714 153.759 12.5889 153.81Z" fill="#23252F"/>
<path d="M12.5889 217.441L27.7147 210.962C27.911 210.835 28.1546 210.8 28.3919 210.863C28.6292 210.926 28.8409 211.083 28.9802 211.3C29.1196 211.516 29.1752 211.773 29.135 212.016C29.0947 212.258 28.9618 212.465 28.7655 212.592L16.6188 223.693C16.5242 223.779 16.4108 223.841 16.2865 223.874C16.1623 223.908 16.0301 223.912 15.8991 223.887C15.7682 223.861 15.6416 223.807 15.5282 223.727C15.4148 223.648 15.3172 223.545 15.2423 223.426L12.2632 218.805C12.1858 218.687 12.1325 218.556 12.107 218.42C12.0814 218.284 12.0842 218.146 12.1152 218.016C12.1461 217.887 12.2046 217.768 12.2864 217.669C12.3682 217.569 12.4714 217.492 12.5889 217.441Z" fill="#23252F"/>
<path d="M1.5299 181.047L26.2489 183.445C26.6015 183.424 26.9479 183.547 27.212 183.785C27.476 184.024 27.6361 184.359 27.6569 184.716C27.6777 185.074 27.5576 185.425 27.323 185.693C27.0884 185.96 26.7585 186.122 26.4059 186.143L2.13224 191.393C1.9434 191.433 1.7481 191.431 1.55983 191.388C1.37157 191.344 1.19485 191.259 1.04194 191.139C0.889035 191.02 0.763604 190.867 0.674301 190.694C0.584999 190.52 0.533972 190.329 0.52477 190.133L0.0794938 182.485C0.0659278 182.29 0.0944061 182.094 0.162936 181.911C0.231466 181.728 0.338398 181.562 0.476364 181.425C0.61433 181.289 0.780026 181.184 0.96194 181.119C1.14385 181.053 1.33764 181.029 1.5299 181.047Z" fill="#23252F"/>
<path d="M124 118V99.617C124 90.7805 131.163 83.617 140 83.617H231C239.837 83.617 247 76.4536 247 67.617V53" stroke="white" stroke-width="2"/>
<path d="M370 109V99.617C370 90.7805 362.837 83.617 354 83.617H263C254.163 83.617 247 76.4536 247 67.617V53" stroke="#23252F" stroke-width="12"/>
<path d="M370 113V99.617C370 90.7805 362.837 83.617 354 83.617H263C254.163 83.617 247 76.4536 247 67.617V53" stroke="#FABD62" stroke-width="2"/>
</svg>
