<svg width="504" height="375" viewBox="0 0 504 375" fill="none" xmlns="http://www.w3.org/2000/svg">
<rect x="139" y="1" width="246" height="139" rx="6" fill="white" stroke="#2C749E" stroke-linejoin="bevel"/>
<path fill-rule="evenodd" clip-rule="evenodd" d="M139 134.008V136.023C139 139.337 141.686 142.023 145 142.023H379C382.314 142.023 385 139.337 385 136.023V134.008C385 137.322 382.314 140.008 379 140.008H145C141.686 140.008 139 137.322 139 134.008Z" fill="#2C749E"/>
<path d="M213.707 43.24C212.393 43.24 211.253 43.0067 210.287 42.54C209.32 42.0667 208.513 41.3867 207.867 40.5L209.407 39.1C209.973 39.8467 210.61 40.3967 211.317 40.75C212.03 41.1033 212.823 41.28 213.697 41.28H213.947C214.993 41.28 215.783 41.1 216.317 40.74C216.85 40.38 217.117 39.88 217.117 39.24C217.117 38.7467 216.973 38.3633 216.687 38.09C216.407 37.8167 216.067 37.61 215.667 37.47C215.267 37.33 214.887 37.2233 214.527 37.15L212.257 36.67C211.87 36.59 211.45 36.4733 210.997 36.32C210.55 36.1667 210.123 35.9533 209.717 35.68C209.31 35.4 208.977 35.0367 208.717 34.59C208.457 34.1433 208.327 33.5867 208.327 32.92C208.327 32.0867 208.543 31.36 208.977 30.74C209.417 30.1133 210.033 29.6267 210.827 29.28C211.62 28.9333 212.55 28.76 213.617 28.76H213.867C216.107 28.76 217.83 29.6267 219.037 31.36L217.517 32.62C216.97 31.9 216.393 31.4033 215.787 31.13C215.18 30.8567 214.527 30.72 213.827 30.72H213.577C212.663 30.72 211.923 30.9033 211.357 31.27C210.79 31.63 210.507 32.1233 210.507 32.75C210.507 33.1567 210.617 33.4833 210.837 33.73C211.057 33.97 211.35 34.1567 211.717 34.29C212.09 34.4233 212.493 34.5367 212.927 34.63L215.197 35.11C215.51 35.1767 215.893 35.28 216.347 35.42C216.807 35.56 217.26 35.7733 217.707 36.06C218.16 36.34 218.537 36.7233 218.837 37.21C219.143 37.6967 219.297 38.32 219.297 39.08C219.297 39.9467 219.077 40.69 218.637 41.31C218.197 41.93 217.577 42.4067 216.777 42.74C215.977 43.0733 215.037 43.24 213.957 43.24H213.707ZM226.111 43.24C225.151 43.24 224.301 43.03 223.561 42.61C222.821 42.19 222.241 41.59 221.821 40.81C221.408 40.0233 221.201 39.09 221.201 38.01C221.201 36.9233 221.408 35.99 221.821 35.21C222.235 34.4233 222.808 33.82 223.541 33.4C224.281 32.9733 225.138 32.76 226.111 32.76H226.331C227.105 32.76 227.835 32.96 228.521 33.36C229.215 33.7533 229.775 34.2967 230.201 34.99L228.651 36.07C228.365 35.6167 228.021 35.2633 227.621 35.01C227.221 34.75 226.768 34.62 226.261 34.62H226.061C225.195 34.62 224.511 34.9267 224.011 35.54C223.518 36.1467 223.271 36.9667 223.271 38C223.271 39.0267 223.518 39.8467 224.011 40.46C224.511 41.0733 225.195 41.38 226.061 41.38H226.261C226.768 41.38 227.235 41.2667 227.661 41.04C228.088 40.8133 228.455 40.51 228.761 40.13L230.201 41.35C229.755 41.9367 229.191 42.4 228.511 42.74C227.838 43.0733 227.111 43.24 226.331 43.24H226.111ZM236.836 43.24C235.822 43.24 234.939 43.0167 234.186 42.57C233.439 42.1167 232.862 41.4967 232.456 40.71C232.049 39.9167 231.846 39.0133 231.846 38C231.846 36.98 232.049 36.0767 232.456 35.29C232.862 34.5033 233.439 33.8867 234.186 33.44C234.939 32.9867 235.822 32.76 236.836 32.76H237.056C238.076 32.76 238.959 32.9867 239.706 33.44C240.452 33.8867 241.029 34.5033 241.436 35.29C241.842 36.0767 242.046 36.98 242.046 38C242.046 39.0133 241.842 39.9167 241.436 40.71C241.029 41.4967 240.452 42.1167 239.706 42.57C238.959 43.0167 238.076 43.24 237.056 43.24H236.836ZM236.846 41.38H237.046C237.959 41.38 238.676 41.0733 239.196 40.46C239.716 39.8467 239.976 39.0267 239.976 38C239.976 36.9667 239.716 36.1467 239.196 35.54C238.676 34.9267 237.959 34.62 237.046 34.62H236.846C235.939 34.62 235.222 34.9267 234.696 35.54C234.176 36.1467 233.916 36.9667 233.916 38C233.916 39.0267 234.176 39.8467 234.696 40.46C235.222 41.0733 235.939 41.38 236.846 41.38ZM244.427 43V33H246.427V34.52C247.094 33.3467 248.01 32.76 249.177 32.76C249.497 32.76 249.787 32.7867 250.047 32.84V34.86C249.887 34.84 249.714 34.8233 249.527 34.81C249.347 34.7967 249.17 34.79 248.997 34.79C248.337 34.79 247.797 34.98 247.377 35.36C246.957 35.74 246.64 36.26 246.427 36.92V43H244.427ZM256.256 43.24C255.296 43.24 254.452 43.02 253.726 42.58C253.006 42.14 252.442 41.5267 252.036 40.74C251.636 39.9533 251.436 39.0433 251.436 38.01C251.436 36.9767 251.636 36.0667 252.036 35.28C252.442 34.4867 253.006 33.87 253.726 33.43C254.452 32.9833 255.296 32.76 256.256 32.76H256.476C257.349 32.76 258.116 32.9767 258.776 33.41C259.442 33.8367 259.962 34.4567 260.336 35.27C260.709 36.0767 260.896 37.05 260.896 38.19V38.8H253.506C253.626 39.62 253.932 40.2667 254.426 40.74C254.926 41.2067 255.576 41.44 256.376 41.44H256.576C257.056 41.44 257.516 41.3433 257.956 41.15C258.396 40.95 258.766 40.6833 259.066 40.35L260.296 41.65C259.842 42.1367 259.282 42.5233 258.616 42.81C257.956 43.0967 257.242 43.24 256.476 43.24H256.256ZM256.196 34.56C255.482 34.56 254.886 34.7967 254.406 35.27C253.932 35.7367 253.632 36.3767 253.506 37.19H258.886C258.826 36.45 258.582 35.8267 258.156 35.32C257.736 34.8133 257.149 34.56 256.396 34.56H256.196ZM263.236 43V28.4H265.236V34.57C265.582 33.97 266.036 33.52 266.596 33.22C267.156 32.9133 267.779 32.76 268.466 32.76H268.686C269.572 32.76 270.346 32.9867 271.006 33.44C271.672 33.8867 272.189 34.5067 272.556 35.3C272.922 36.0867 273.106 36.9867 273.106 38C273.106 39.0133 272.922 39.9167 272.556 40.71C272.189 41.4967 271.672 42.1167 271.006 42.57C270.346 43.0167 269.572 43.24 268.686 43.24H268.466C267.806 43.24 267.192 43.1 266.626 42.82C266.066 42.5333 265.602 42.11 265.236 41.55V43H263.236ZM267.986 41.39H268.186C269.059 41.39 269.752 41.0967 270.266 40.51C270.779 39.9233 271.036 39.0867 271.036 38C271.036 36.9133 270.779 36.0767 270.266 35.49C269.752 34.9033 269.059 34.61 268.186 34.61H267.986C267.392 34.61 266.856 34.7867 266.376 35.14C265.902 35.4933 265.522 35.9767 265.236 36.59V39.41C265.522 40.0233 265.902 40.5067 266.376 40.86C266.856 41.2133 267.392 41.39 267.986 41.39ZM279.941 43.24C278.928 43.24 278.045 43.0167 277.291 42.57C276.545 42.1167 275.968 41.4967 275.561 40.71C275.155 39.9167 274.951 39.0133 274.951 38C274.951 36.98 275.155 36.0767 275.561 35.29C275.968 34.5033 276.545 33.8867 277.291 33.44C278.045 32.9867 278.928 32.76 279.941 32.76H280.161C281.181 32.76 282.065 32.9867 282.811 33.44C283.558 33.8867 284.135 34.5033 284.541 35.29C284.948 36.0767 285.151 36.98 285.151 38C285.151 39.0133 284.948 39.9167 284.541 40.71C284.135 41.4967 283.558 42.1167 282.811 42.57C282.065 43.0167 281.181 43.24 280.161 43.24H279.941ZM279.951 41.38H280.151C281.065 41.38 281.781 41.0733 282.301 40.46C282.821 39.8467 283.081 39.0267 283.081 38C283.081 36.9667 282.821 36.1467 282.301 35.54C281.781 34.9267 281.065 34.62 280.151 34.62H279.951C279.045 34.62 278.328 34.9267 277.801 35.54C277.281 36.1467 277.021 36.9667 277.021 38C277.021 39.0267 277.281 39.8467 277.801 40.46C278.328 41.0733 279.045 41.38 279.951 41.38ZM290.253 43.2C289.199 43.2 288.379 42.93 287.793 42.39C287.213 41.8433 286.923 41.1267 286.923 40.24C286.923 39.36 287.249 38.6233 287.903 38.03C288.563 37.4367 289.613 37.14 291.053 37.14H293.773V37.11C293.773 35.43 292.999 34.59 291.453 34.59C290.806 34.59 290.259 34.7067 289.813 34.94C289.373 35.1733 289.016 35.5 288.743 35.92L287.373 34.81C287.799 34.15 288.359 33.6433 289.053 33.29C289.753 32.9367 290.546 32.76 291.433 32.76H291.653C292.879 32.76 293.866 33.1133 294.613 33.82C295.359 34.5267 295.733 35.5833 295.733 36.99V43H293.813V41.37C293.426 41.9567 292.929 42.41 292.323 42.73C291.716 43.0433 291.026 43.2 290.253 43.2ZM290.693 41.42C291.466 41.42 292.109 41.2467 292.623 40.9C293.136 40.5467 293.519 40.07 293.773 39.47V38.71H291.133C290.346 38.71 289.783 38.8367 289.443 39.09C289.109 39.3367 288.943 39.6733 288.943 40.1C288.943 40.98 289.526 41.42 290.693 41.42ZM298.509 43V33H300.509V34.52C301.176 33.3467 302.092 32.76 303.259 32.76C303.579 32.76 303.869 32.7867 304.129 32.84V34.86C303.969 34.84 303.796 34.8233 303.609 34.81C303.429 34.7967 303.252 34.79 303.079 34.79C302.419 34.79 301.879 34.98 301.459 35.36C301.039 35.74 300.722 36.26 300.509 36.92V43H298.509ZM309.938 43.24C309.051 43.24 308.274 43.0167 307.608 42.57C306.948 42.1167 306.434 41.4967 306.068 40.71C305.701 39.9167 305.518 39.0133 305.518 38C305.518 36.9867 305.701 36.0867 306.068 35.3C306.434 34.5067 306.948 33.8867 307.608 33.44C308.274 32.9867 309.051 32.76 309.938 32.76H310.158C310.818 32.76 311.428 32.9033 311.988 33.19C312.554 33.47 313.021 33.89 313.388 34.45V28.4H315.388V43H313.388V41.43C313.041 42.03 312.588 42.4833 312.028 42.79C311.468 43.09 310.844 43.24 310.158 43.24H309.938ZM310.438 41.39H310.638C311.231 41.39 311.764 41.2133 312.238 40.86C312.718 40.5067 313.101 40.0233 313.388 39.41V36.59C313.101 35.9767 312.718 35.4933 312.238 35.14C311.764 34.7867 311.231 34.61 310.638 34.61H310.438C309.564 34.61 308.871 34.9033 308.358 35.49C307.844 36.0767 307.588 36.9133 307.588 38C307.588 39.0867 307.844 39.9233 308.358 40.51C308.871 41.0967 309.564 41.39 310.438 41.39Z" fill="#2C749E"/>
<rect x="159.008" y="59.5146" width="206" height="59" rx="29.5" stroke="#FCDEB0" stroke-width="3" stroke-linejoin="bevel"/>
<rect x="162.008" y="62.5146" width="200" height="53" rx="26.5" stroke="#FABD62" stroke-width="3" stroke-linejoin="bevel"/>
<path d="M163.219 89.0146C163.219 75.2075 174.412 64.0146 188.219 64.0146H288.219V114.015H188.219C174.412 114.015 163.219 102.822 163.219 89.0146V89.0146Z" fill="white"/>
<path d="M185.986 84.9746C185.646 84.9746 185.376 84.8713 185.176 84.6646C184.976 84.458 184.876 84.1913 184.876 83.8646C184.876 83.538 184.976 83.2713 185.176 83.0646C185.376 82.858 185.646 82.7546 185.986 82.7546C186.326 82.7546 186.596 82.858 186.796 83.0646C186.996 83.2713 187.096 83.538 187.096 83.8646C187.096 84.1913 186.996 84.458 186.796 84.6646C186.596 84.8713 186.326 84.9746 185.986 84.9746ZM185.196 97.0146V87.0646H186.776V97.0146H185.196ZM193.471 97.2346C191.484 97.2346 190.044 96.5846 189.151 95.2846L190.251 94.3246C190.958 95.338 192.028 95.8446 193.461 95.8446H193.641C194.374 95.8446 194.944 95.718 195.351 95.4646C195.764 95.2046 195.971 94.8413 195.971 94.3746C195.971 93.9746 195.831 93.6546 195.551 93.4146C195.278 93.1746 194.811 92.988 194.151 92.8546L192.351 92.4846C190.444 92.098 189.491 91.208 189.491 89.8146C189.491 88.9213 189.844 88.2046 190.551 87.6646C191.264 87.118 192.201 86.8446 193.361 86.8446H193.561C195.254 86.8446 196.521 87.4613 197.361 88.6946L196.261 89.5846C195.928 89.1113 195.538 88.768 195.091 88.5546C194.644 88.3413 194.128 88.2346 193.541 88.2346H193.361C192.674 88.2346 192.118 88.3646 191.691 88.6246C191.271 88.878 191.061 89.2313 191.061 89.6846C191.061 90.038 191.191 90.3213 191.451 90.5346C191.711 90.7413 192.144 90.908 192.751 91.0346L194.721 91.4446C195.608 91.6313 196.298 91.9546 196.791 92.4146C197.291 92.8746 197.541 93.5013 197.541 94.2946C197.541 95.168 197.201 95.878 196.521 96.4246C195.848 96.9646 194.901 97.2346 193.681 97.2346H193.471ZM200.489 97.0146V83.0146H206.189C207.903 83.0146 209.179 83.4246 210.019 84.2446C210.866 85.0646 211.289 86.1713 211.289 87.5646C211.289 88.9513 210.866 90.0546 210.019 90.8746C209.179 91.6946 207.903 92.1046 206.189 92.1046H202.149V97.0146H200.489ZM206.039 84.5646H202.149V90.5446H206.039C208.406 90.5446 209.589 89.5513 209.589 87.5646C209.589 85.5646 208.406 84.5646 206.039 84.5646ZM213.946 97.0146V82.4146H215.526V97.0146H213.946ZM221.401 97.2046C220.354 97.2046 219.541 96.9413 218.961 96.4146C218.388 95.888 218.101 95.1813 218.101 94.2946C218.101 93.4346 218.421 92.7213 219.061 92.1546C219.708 91.5813 220.744 91.2946 222.171 91.2946H225.071V91.0846C225.071 89.2246 224.221 88.2946 222.521 88.2946C221.828 88.2946 221.244 88.4213 220.771 88.6746C220.304 88.928 219.928 89.288 219.641 89.7546L218.531 88.9146C218.931 88.248 219.468 87.738 220.141 87.3846C220.821 87.0246 221.604 86.8446 222.491 86.8446H222.691C223.898 86.8446 224.854 87.1946 225.561 87.8946C226.268 88.588 226.621 89.6146 226.621 90.9746V97.0146H225.091V95.1646C224.711 95.8113 224.208 96.3146 223.581 96.6746C222.954 97.028 222.228 97.2046 221.401 97.2046ZM221.701 95.7946C222.554 95.7946 223.261 95.588 223.821 95.1746C224.381 94.7546 224.798 94.188 225.071 93.4746V92.5546H222.241C221.314 92.5546 220.658 92.7013 220.271 92.9946C219.891 93.288 219.701 93.688 219.701 94.1946C219.701 94.7013 219.868 95.0946 220.201 95.3746C220.534 95.6546 221.034 95.7946 221.701 95.7946ZM230.128 101.435C229.842 101.435 229.572 101.411 229.318 101.365V99.9446C229.538 99.978 229.742 99.9946 229.928 99.9946C230.695 99.9946 231.308 99.7713 231.768 99.3246C232.228 98.8846 232.625 98.2713 232.958 97.4846C232.145 95.818 231.375 94.1113 230.648 92.3646C229.922 90.6113 229.232 88.8446 228.578 87.0646H230.398C230.858 88.498 231.362 89.9346 231.908 91.3746C232.462 92.8146 233.055 94.2513 233.688 95.6846L236.648 87.0646H238.368L234.538 97.3546C234.052 98.6613 233.475 99.668 232.808 100.375C232.148 101.081 231.255 101.435 230.128 101.435ZM244.2 97.2346C243.253 97.2346 242.423 97.018 241.71 96.5846C240.997 96.1513 240.44 95.5446 240.04 94.7646C239.647 93.9846 239.45 93.078 239.45 92.0446C239.45 91.0313 239.647 90.1346 240.04 89.3546C240.433 88.568 240.98 87.9546 241.68 87.5146C242.387 87.068 243.203 86.8446 244.13 86.8446H244.32C245.2 86.8446 245.967 87.0646 246.62 87.5046C247.273 87.938 247.777 88.5513 248.13 89.3446C248.49 90.138 248.67 91.0713 248.67 92.1446V92.6846H241.07C241.177 93.638 241.51 94.3946 242.07 94.9546C242.637 95.5146 243.37 95.7946 244.27 95.7946H244.45C244.983 95.7946 245.477 95.688 245.93 95.4746C246.39 95.2613 246.777 94.968 247.09 94.5946L248.1 95.6246C247.667 96.1246 247.13 96.518 246.49 96.8046C245.85 97.0913 245.153 97.2346 244.4 97.2346H244.2ZM244.1 88.2746C243.273 88.2746 242.59 88.5546 242.05 89.1146C241.51 89.6746 241.187 90.428 241.08 91.3746H247.08C247.033 90.4946 246.767 89.758 246.28 89.1646C245.8 88.5713 245.133 88.2746 244.28 88.2746H244.1ZM251.25 97.0146V87.0646H252.83V88.7946C253.144 88.168 253.544 87.688 254.03 87.3546C254.517 87.0146 255.08 86.8446 255.72 86.8446C256.027 86.8446 256.32 86.8746 256.6 86.9346V88.5146C256.447 88.4946 256.28 88.478 256.1 88.4646C255.927 88.4513 255.757 88.4446 255.59 88.4446C254.864 88.4446 254.274 88.668 253.82 89.1146C253.374 89.5546 253.044 90.1446 252.83 90.8846V97.0146H251.25ZM262.269 97.0146C262.715 95.508 263.225 93.9446 263.799 92.3246C264.379 90.698 264.992 89.0913 265.639 87.5046C266.292 85.918 266.945 84.4213 267.599 83.0146H269.639C270.299 84.4213 270.952 85.918 271.599 87.5046C272.245 89.0913 272.859 90.698 273.439 92.3246C274.019 93.9446 274.529 95.508 274.969 97.0146H273.159C272.985 96.3746 272.792 95.718 272.579 95.0446C272.372 94.3646 272.152 93.6746 271.919 92.9746H265.259C265.025 93.6746 264.802 94.3646 264.589 95.0446C264.382 95.718 264.192 96.3746 264.019 97.0146H262.269ZM265.799 91.4146H271.379C270.945 90.2013 270.489 88.998 270.009 87.8046C269.535 86.6113 269.062 85.4846 268.589 84.4246C268.122 85.4846 267.649 86.6113 267.169 87.8046C266.689 88.998 266.232 90.2013 265.799 91.4146Z" fill="#606BD6"/>
<path d="M163.219 89.0146C163.219 75.2075 174.412 64.0146 188.219 64.0146H288.219V114.015H188.219C174.412 114.015 163.219 102.822 163.219 89.0146V89.0146Z" stroke="#FABD62" stroke-linejoin="bevel"/>
<path d="M288.008 64.0146H335.008C348.815 64.0146 360.008 75.2075 360.008 89.0146V89.0146C360.008 102.822 348.815 114.015 335.008 114.015H288.008V64.0146Z" fill="white"/>
<path d="M306.138 97.1546C304.864 97.1546 303.891 96.838 303.218 96.2046C302.544 95.5713 302.208 94.6013 302.208 93.2946V89.1346H300.228V86.9346H302.208V84.0346H304.918V86.9346H308.138V89.1346H304.918V92.8746C304.918 93.6013 305.074 94.1046 305.388 94.3846C305.708 94.658 306.161 94.7946 306.748 94.7946C307.034 94.7946 307.301 94.7813 307.548 94.7546C307.794 94.7213 308.041 94.678 308.288 94.6246V96.8746C307.981 96.9613 307.644 97.028 307.278 97.0746C306.911 97.128 306.531 97.1546 306.138 97.1546ZM309.989 97.0146V86.9346H312.619V88.5146C313.279 87.2946 314.196 86.6846 315.369 86.6846C315.676 86.6846 315.982 86.7146 316.289 86.7746V89.3946C316.129 89.368 315.942 89.348 315.729 89.3346C315.516 89.3213 315.326 89.3146 315.159 89.3146C314.526 89.3146 314.009 89.4746 313.609 89.7946C313.209 90.1146 312.906 90.558 312.699 91.1246V97.0146H309.989ZM321.365 97.2646C320.232 97.2646 319.369 96.8613 318.775 96.0546C318.182 95.248 317.885 94.1513 317.885 92.7646V86.9346H320.595V92.4646C320.595 94.0513 321.142 94.8446 322.235 94.8446H322.445C322.932 94.8446 323.369 94.6946 323.755 94.3946C324.149 94.0946 324.455 93.688 324.675 93.1746V86.9346H327.385V97.0146H324.765V95.4146C324.405 96.008 323.962 96.4646 323.435 96.7846C322.915 97.1046 322.315 97.2646 321.635 97.2646H321.365ZM334.46 97.2646C333.467 97.2646 332.59 97.048 331.83 96.6146C331.07 96.1813 330.477 95.5713 330.05 94.7846C329.63 93.9913 329.42 93.0646 329.42 92.0046C329.42 90.9313 329.63 89.998 330.05 89.2046C330.477 88.4046 331.063 87.7846 331.81 87.3446C332.557 86.9046 333.417 86.6846 334.39 86.6846H334.66C335.587 86.6846 336.397 86.908 337.09 87.3546C337.783 87.7946 338.323 88.4246 338.71 89.2446C339.097 90.0646 339.29 91.038 339.29 92.1646V92.8446H332.17C332.303 93.518 332.583 94.0413 333.01 94.4146C333.443 94.788 334.01 94.9746 334.71 94.9746H334.9C335.84 94.9746 336.627 94.648 337.26 93.9946L338.7 95.7746C338.213 96.2346 337.627 96.598 336.94 96.8646C336.253 97.1313 335.517 97.2646 334.73 97.2646H334.46ZM334.38 88.9146C333.8 88.9146 333.317 89.098 332.93 89.4646C332.543 89.8313 332.29 90.348 332.17 91.0146H336.62C336.54 90.4013 336.323 89.898 335.97 89.5046C335.623 89.1113 335.15 88.9146 334.55 88.9146H334.38Z" fill="#606BD6"/>
<path d="M288.008 64.0146H335.008C348.815 64.0146 360.008 75.2075 360.008 89.0146V89.0146C360.008 102.822 348.815 114.015 335.008 114.015H288.008V64.0146Z" stroke="#FABD62" stroke-linejoin="bevel"/>
<path d="M366.403 60.8474L364.726 65.5434C364.677 65.6816 364.588 65.8009 364.471 65.8852C364.354 65.9695 364.214 66.0146 364.072 66.0146C363.929 66.0146 363.79 65.9695 363.672 65.8852C363.555 65.8009 363.466 65.6816 363.417 65.5434L361.74 60.8474C361.706 60.7496 361.651 60.6608 361.579 60.5871C361.508 60.5134 361.422 60.4566 361.327 60.4206L356.777 58.6905C356.643 58.6396 356.527 58.5475 356.446 58.4266C356.364 58.3058 356.32 58.162 356.32 58.0146C356.32 57.8673 356.364 57.7235 356.446 57.6027C356.527 57.4818 356.643 57.3897 356.777 57.3388L361.327 55.6087C361.422 55.5727 361.508 55.5159 361.579 55.4422C361.651 55.3685 361.706 55.2797 361.74 55.1819L363.417 50.4859C363.466 50.3477 363.555 50.2284 363.672 50.1441C363.79 50.0598 363.929 50.0146 364.072 50.0146C364.214 50.0146 364.354 50.0598 364.471 50.1441C364.588 50.2284 364.677 50.3477 364.726 50.4859L366.403 55.1819C366.438 55.2797 366.493 55.3685 366.564 55.4422C366.636 55.5159 366.722 55.5727 366.816 55.6087L371.366 57.3388C371.5 57.3897 371.616 57.4818 371.697 57.6027C371.779 57.7235 371.823 57.8673 371.823 58.0146C371.823 58.162 371.779 58.3058 371.697 58.4266C371.616 58.5475 371.5 58.6396 371.366 58.6905L366.816 60.4206C366.722 60.4566 366.636 60.5134 366.564 60.5871C366.493 60.6608 366.438 60.7496 366.403 60.8474V60.8474Z" fill="#FABD62"/>
<path d="M373.278 72.7851L372.23 75.7201C372.2 75.8065 372.144 75.8811 372.071 75.9337C371.997 75.9864 371.91 76.0146 371.821 76.0146C371.732 76.0146 371.645 75.9864 371.572 75.9337C371.498 75.8811 371.443 75.8065 371.412 75.7201L370.364 72.7851C370.342 72.724 370.308 72.6685 370.263 72.6224C370.219 72.5764 370.165 72.5409 370.106 72.5184L367.262 71.437C367.178 71.4052 367.106 71.3477 367.055 71.2721C367.004 71.1966 366.977 71.1067 366.977 71.0146C366.977 70.9226 367.004 70.8327 367.055 70.7572C367.106 70.6816 367.178 70.6241 367.262 70.5923L370.106 69.5109C370.165 69.4884 370.219 69.4529 370.263 69.4069C370.308 69.3608 370.342 69.3053 370.364 69.2442L371.412 66.3092C371.443 66.2228 371.498 66.1482 371.572 66.0956C371.645 66.0429 371.732 66.0146 371.821 66.0146C371.91 66.0146 371.997 66.0429 372.071 66.0956C372.144 66.1482 372.2 66.2228 372.23 66.3092L373.278 69.2442C373.3 69.3053 373.334 69.3608 373.379 69.4069C373.424 69.4529 373.477 69.4884 373.537 69.5109L376.38 70.5923C376.464 70.6241 376.536 70.6816 376.587 70.7572C376.638 70.8327 376.666 70.9226 376.666 71.0146C376.666 71.1067 376.638 71.1966 376.587 71.2721C376.536 71.3477 376.464 71.4052 376.38 71.437L373.537 72.5184C373.477 72.5409 373.424 72.5764 373.379 72.6224C373.334 72.6685 373.3 72.724 373.278 72.7851V72.7851Z" fill="#FABD62"/>
<rect x="38.9994" y="226" width="185" height="145" rx="13" fill="white" stroke="#FCDEB0" stroke-width="4" stroke-linejoin="bevel"/>
<rect x="42.9994" y="230" width="177" height="137" rx="9" fill="white" stroke="#FABD62" stroke-width="4" stroke-linejoin="bevel"/>
<rect x="44.9994" y="232" width="173" height="133" rx="6" fill="white" stroke="#FABD62" stroke-linejoin="bevel"/>
<path d="M12.586 329.941L27.7118 323.462C27.9081 323.336 28.1517 323.3 28.389 323.363C28.6264 323.427 28.838 323.584 28.9773 323.8C29.1167 324.016 29.1723 324.274 29.1321 324.516C29.0918 324.759 28.9589 324.966 28.7626 325.092L16.6159 336.193C16.5213 336.279 16.4079 336.341 16.2836 336.375C16.1594 336.408 16.0272 336.412 15.8962 336.387C15.7653 336.362 15.6387 336.307 15.5253 336.228C15.4119 336.148 15.3143 336.046 15.2394 335.927L12.2603 331.305C12.1829 331.188 12.1296 331.057 12.1041 330.92C12.0785 330.784 12.0813 330.647 12.1123 330.517C12.1432 330.387 12.2017 330.269 12.2835 330.169C12.3653 330.07 12.4685 329.992 12.586 329.941Z" fill="#FABD62"/>
<path d="M12.586 266.31L27.7118 272.789C27.9081 272.915 28.1517 272.951 28.389 272.887C28.6264 272.824 28.838 272.667 28.9773 272.451C29.1167 272.235 29.1723 271.977 29.1321 271.735C29.0918 271.492 28.9589 271.285 28.7626 271.159L16.6159 260.058C16.5213 259.972 16.4079 259.91 16.2836 259.876C16.1594 259.843 16.0272 259.839 15.8962 259.864C15.7653 259.889 15.6387 259.944 15.5253 260.023C15.4119 260.103 15.3143 260.205 15.2394 260.324L12.2603 264.946C12.1829 265.063 12.1296 265.194 12.1041 265.331C12.0785 265.467 12.0813 265.604 12.1123 265.734C12.1432 265.864 12.2017 265.982 12.2835 266.082C12.3653 266.181 12.4685 266.259 12.586 266.31Z" fill="#FABD62"/>
<path d="M1.5299 302.704L26.2489 300.306C26.6015 300.327 26.9479 300.204 27.212 299.966C27.476 299.727 27.6361 299.392 27.6569 299.035C27.6777 298.677 27.5576 298.326 27.323 298.058C27.0884 297.791 26.7585 297.629 26.4059 297.608L2.13224 292.358C1.9434 292.318 1.7481 292.32 1.55983 292.363C1.37157 292.407 1.19485 292.492 1.04194 292.612C0.889035 292.731 0.763604 292.884 0.674301 293.057C0.584999 293.231 0.533972 293.422 0.52477 293.618L0.0794938 301.266C0.0659278 301.461 0.0944061 301.657 0.162936 301.84C0.231466 302.023 0.338398 302.189 0.476364 302.326C0.61433 302.462 0.780026 302.567 0.96194 302.632C1.14385 302.698 1.33764 302.722 1.5299 302.704Z" fill="#FABD62"/>
<path d="M250.413 329.942L235.287 323.463C235.091 323.337 234.847 323.301 234.61 323.364C234.372 323.428 234.161 323.585 234.021 323.801C233.882 324.017 233.826 324.275 233.867 324.517C233.907 324.76 234.04 324.967 234.236 325.093L246.383 336.194C246.478 336.28 246.591 336.342 246.715 336.376C246.839 336.409 246.972 336.413 247.103 336.388C247.233 336.363 247.36 336.308 247.473 336.229C247.587 336.149 247.684 336.047 247.759 335.928L250.738 331.306C250.816 331.189 250.869 331.058 250.895 330.921C250.92 330.785 250.917 330.648 250.887 330.518C250.856 330.388 250.797 330.269 250.715 330.17C250.634 330.071 250.53 329.993 250.413 329.942Z" fill="#FABD62"/>
<path d="M250.413 266.31L235.287 272.79C235.091 272.916 234.847 272.952 234.61 272.888C234.372 272.825 234.161 272.668 234.021 272.452C233.882 272.236 233.826 271.978 233.867 271.736C233.907 271.493 234.04 271.286 234.236 271.16L246.383 260.059C246.478 259.973 246.591 259.911 246.715 259.877C246.839 259.844 246.972 259.84 247.103 259.865C247.233 259.89 247.36 259.945 247.473 260.024C247.587 260.104 247.684 260.206 247.759 260.325L250.738 264.947C250.816 265.064 250.869 265.195 250.895 265.332C250.92 265.468 250.917 265.605 250.887 265.735C250.856 265.865 250.797 265.983 250.715 266.083C250.634 266.182 250.53 266.26 250.413 266.31Z" fill="#FABD62"/>
<path d="M261.469 302.705L236.75 300.307C236.397 300.328 236.051 300.205 235.787 299.967C235.523 299.728 235.363 299.393 235.342 299.036C235.321 298.678 235.441 298.327 235.676 298.059C235.91 297.792 236.24 297.63 236.593 297.609L260.867 292.359C261.055 292.319 261.251 292.321 261.439 292.364C261.627 292.408 261.804 292.493 261.957 292.613C262.11 292.732 262.235 292.885 262.324 293.058C262.414 293.232 262.465 293.423 262.474 293.619L262.919 301.267C262.933 301.462 262.904 301.658 262.836 301.841C262.767 302.024 262.66 302.19 262.522 302.327C262.384 302.463 262.219 302.568 262.037 302.633C261.855 302.699 261.661 302.723 261.469 302.705Z" fill="#FABD62"/>
<path d="M100.575 273.24C99.2547 273.24 98.1014 272.95 97.1147 272.37C96.128 271.783 95.3614 270.957 94.8147 269.89C94.2747 268.823 94.0047 267.567 94.0047 266.12C94.0047 264.667 94.2747 263.39 94.8147 262.29C95.3614 261.183 96.128 260.32 97.1147 259.7C98.1014 259.073 99.2547 258.76 100.575 258.76H100.875C102.175 258.76 103.285 259.06 104.205 259.66C105.131 260.253 105.861 261.05 106.395 262.05L104.605 263.09C104.231 262.377 103.728 261.807 103.095 261.38C102.468 260.953 101.718 260.74 100.845 260.74H100.565C99.738 260.74 98.9947 260.95 98.3347 261.37C97.6814 261.79 97.1614 262.397 96.7747 263.19C96.3947 263.983 96.2047 264.943 96.2047 266.07C96.2047 267.197 96.3947 268.147 96.7747 268.92C97.1614 269.687 97.6814 270.27 98.3347 270.67C98.9947 271.063 99.738 271.26 100.565 271.26H100.845C101.725 271.26 102.471 271.067 103.085 270.68C103.698 270.287 104.198 269.747 104.585 269.06L106.365 270.12C105.818 271.073 105.088 271.833 104.175 272.4C103.261 272.96 102.161 273.24 100.875 273.24H100.575ZM113.015 273.24C112.002 273.24 111.118 273.017 110.365 272.57C109.618 272.117 109.042 271.497 108.635 270.71C108.228 269.917 108.025 269.013 108.025 268C108.025 266.98 108.228 266.077 108.635 265.29C109.042 264.503 109.618 263.887 110.365 263.44C111.118 262.987 112.002 262.76 113.015 262.76H113.235C114.255 262.76 115.138 262.987 115.885 263.44C116.632 263.887 117.208 264.503 117.615 265.29C118.022 266.077 118.225 266.98 118.225 268C118.225 269.013 118.022 269.917 117.615 270.71C117.208 271.497 116.632 272.117 115.885 272.57C115.138 273.017 114.255 273.24 113.235 273.24H113.015ZM113.025 271.38H113.225C114.138 271.38 114.855 271.073 115.375 270.46C115.895 269.847 116.155 269.027 116.155 268C116.155 266.967 115.895 266.147 115.375 265.54C114.855 264.927 114.138 264.62 113.225 264.62H113.025C112.118 264.62 111.402 264.927 110.875 265.54C110.355 266.147 110.095 266.967 110.095 268C110.095 269.027 110.355 269.847 110.875 270.46C111.402 271.073 112.118 271.38 113.025 271.38ZM123.986 273.24C122.833 273.24 121.953 272.85 121.346 272.07C120.739 271.29 120.436 270.193 120.436 268.78V263H122.436V268.54C122.436 270.433 123.123 271.38 124.496 271.38H124.696C125.376 271.38 125.953 271.17 126.426 270.75C126.906 270.33 127.263 269.8 127.496 269.16V263H129.496V273H127.496V271.33C127.129 271.923 126.669 272.39 126.116 272.73C125.569 273.07 124.933 273.24 124.206 273.24H123.986ZM132.442 273V263H134.442V264.67C134.809 264.077 135.265 263.61 135.812 263.27C136.365 262.93 137.005 262.76 137.732 262.76H137.952C139.059 262.76 139.925 263.15 140.552 263.93C141.185 264.71 141.502 265.807 141.502 267.22V273H139.502V267.46C139.502 265.567 138.815 264.62 137.442 264.62H137.242C136.562 264.62 135.982 264.83 135.502 265.25C135.029 265.67 134.675 266.2 134.442 266.84V273H132.442ZM148.778 273.13C147.591 273.13 146.688 272.83 146.068 272.23C145.448 271.63 145.138 270.707 145.138 269.46V264.74H143.178V263H145.138V260.02H147.138V263H150.508V264.74H147.138V269.19C147.138 269.977 147.301 270.523 147.628 270.83C147.955 271.137 148.438 271.29 149.078 271.29C149.385 271.29 149.658 271.277 149.898 271.25C150.145 271.223 150.398 271.19 150.658 271.15V272.9C150.391 272.967 150.091 273.02 149.758 273.06C149.425 273.107 149.098 273.13 148.778 273.13ZM156.985 273.24C156.025 273.24 155.182 273.02 154.455 272.58C153.735 272.14 153.172 271.527 152.765 270.74C152.365 269.953 152.165 269.043 152.165 268.01C152.165 266.977 152.365 266.067 152.765 265.28C153.172 264.487 153.735 263.87 154.455 263.43C155.182 262.983 156.025 262.76 156.985 262.76H157.205C158.079 262.76 158.845 262.977 159.505 263.41C160.172 263.837 160.692 264.457 161.065 265.27C161.439 266.077 161.625 267.05 161.625 268.19V268.8H154.235C154.355 269.62 154.662 270.267 155.155 270.74C155.655 271.207 156.305 271.44 157.105 271.44H157.305C157.785 271.44 158.245 271.343 158.685 271.15C159.125 270.95 159.495 270.683 159.795 270.35L161.025 271.65C160.572 272.137 160.012 272.523 159.345 272.81C158.685 273.097 157.972 273.24 157.205 273.24H156.985ZM156.925 264.56C156.212 264.56 155.615 264.797 155.135 265.27C154.662 265.737 154.362 266.377 154.235 267.19H159.615C159.555 266.45 159.312 265.827 158.885 265.32C158.465 264.813 157.879 264.56 157.125 264.56H156.925ZM163.965 273V263H165.965V264.52C166.632 263.347 167.549 262.76 168.715 262.76C169.035 262.76 169.325 262.787 169.585 262.84V264.86C169.425 264.84 169.252 264.823 169.065 264.81C168.885 264.797 168.709 264.79 168.535 264.79C167.875 264.79 167.335 264.98 166.915 265.36C166.495 265.74 166.179 266.26 165.965 266.92V273H163.965Z" fill="#2C749E"/>
<path d="M64.9994 317C64.9994 303.193 76.1923 292 89.9994 292H151.999V342H89.9994C76.1923 342 64.9994 330.807 64.9994 317V317Z" fill="white"/>
<path d="M91.0635 325.22C90.1169 325.22 89.2835 325.01 88.5635 324.59C87.8435 324.163 87.2802 323.563 86.8735 322.79C86.4735 322.01 86.2735 321.09 86.2735 320.03C86.2735 318.97 86.4735 318.05 86.8735 317.27C87.2735 316.49 87.8335 315.89 88.5535 315.47C89.2735 315.043 90.1102 314.83 91.0635 314.83H91.2635C92.0369 314.83 92.7535 315.02 93.4135 315.4C94.0735 315.78 94.6102 316.297 95.0235 316.95L93.8135 317.82C93.5069 317.347 93.1369 316.977 92.7035 316.71C92.2702 316.437 91.7769 316.3 91.2235 316.3H91.0335C90.0735 316.3 89.3135 316.64 88.7535 317.32C88.1935 317.993 87.9135 318.897 87.9135 320.03C87.9135 321.157 88.1935 322.06 88.7535 322.74C89.3135 323.413 90.0735 323.75 91.0335 323.75H91.2235C91.7835 323.75 92.2835 323.63 92.7235 323.39C93.1702 323.15 93.5535 322.827 93.8735 322.42L95.0235 323.36C94.5969 323.94 94.0569 324.397 93.4035 324.73C92.7502 325.057 92.0369 325.22 91.2635 325.22H91.0635ZM101.739 325.22C100.746 325.22 99.8857 324.997 99.159 324.55C98.4323 324.103 97.869 323.49 97.469 322.71C97.0757 321.93 96.879 321.037 96.879 320.03C96.879 319.017 97.0757 318.12 97.469 317.34C97.869 316.56 98.4323 315.947 99.159 315.5C99.8857 315.053 100.746 314.83 101.739 314.83H101.939C102.932 314.83 103.792 315.053 104.519 315.5C105.246 315.947 105.806 316.56 106.199 317.34C106.599 318.12 106.799 319.017 106.799 320.03C106.799 321.037 106.599 321.93 106.199 322.71C105.806 323.49 105.246 324.103 104.519 324.55C103.792 324.997 102.932 325.22 101.939 325.22H101.739ZM101.749 323.76H101.929C102.922 323.76 103.709 323.42 104.289 322.74C104.869 322.06 105.159 321.157 105.159 320.03C105.159 318.897 104.869 317.993 104.289 317.32C103.709 316.64 102.922 316.3 101.929 316.3H101.749C100.756 316.3 99.969 316.64 99.389 317.32C98.809 317.993 98.519 318.897 98.519 320.03C98.519 321.157 98.809 322.06 99.389 322.74C99.969 323.42 100.756 323.76 101.749 323.76ZM112.812 325.22C111.658 325.22 110.778 324.843 110.172 324.09C109.565 323.337 109.262 322.267 109.262 320.88V315.05H110.842V320.65C110.842 321.677 111.032 322.453 111.412 322.98C111.798 323.5 112.395 323.76 113.202 323.76H113.382C114.122 323.76 114.755 323.52 115.282 323.04C115.808 322.553 116.195 321.947 116.442 321.22V315.05H118.022V325H116.442V323.11C116.075 323.763 115.602 324.28 115.022 324.66C114.442 325.033 113.772 325.22 113.012 325.22H112.812ZM121.219 325V315.05H122.799V316.94C123.165 316.287 123.639 315.773 124.219 315.4C124.799 315.02 125.469 314.83 126.229 314.83H126.429C127.555 314.83 128.429 315.207 129.049 315.96C129.669 316.707 129.979 317.777 129.979 319.17V325H128.399V319.4C128.399 318.373 128.209 317.6 127.829 317.08C127.449 316.56 126.852 316.3 126.039 316.3H125.849C125.109 316.3 124.475 316.54 123.949 317.02C123.429 317.5 123.045 318.103 122.799 318.83V325H121.219ZM137.315 325.12C136.209 325.12 135.355 324.843 134.755 324.29C134.155 323.737 133.855 322.857 133.855 321.65V316.42H131.895V315.05H133.855V312.02H135.435V315.05H138.955V316.42H135.435V321.43C135.435 322.263 135.615 322.847 135.975 323.18C136.342 323.507 136.862 323.67 137.535 323.67C137.829 323.67 138.095 323.657 138.335 323.63C138.575 323.597 138.825 323.553 139.085 323.5V324.89C138.812 324.957 138.522 325.01 138.215 325.05C137.909 325.097 137.609 325.12 137.315 325.12Z" fill="#606BD6"/>
<path d="M64.9994 317C64.9994 303.193 76.1923 292 89.9994 292H151.999V342H89.9994C76.1923 342 64.9994 330.807 64.9994 317V317Z" stroke="#606BD6" stroke-linejoin="bevel"/>
<path d="M151.999 292H172.999C186.807 292 197.999 303.193 197.999 317V317C197.999 330.807 186.807 342 172.999 342H151.999V292Z" fill="white"/>
<path d="M170.871 325.22C169.745 325.22 168.778 324.93 167.971 324.35C167.165 323.77 166.545 322.94 166.111 321.86C165.685 320.78 165.471 319.493 165.471 318C165.471 316.507 165.685 315.22 166.111 314.14C166.545 313.06 167.165 312.23 167.971 311.65C168.778 311.07 169.745 310.78 170.871 310.78H171.121C172.248 310.78 173.211 311.07 174.011 311.65C174.818 312.23 175.435 313.06 175.861 314.14C176.295 315.22 176.511 316.507 176.511 318C176.511 319.493 176.295 320.78 175.861 321.86C175.435 322.94 174.818 323.77 174.011 324.35C173.211 324.93 172.248 325.22 171.121 325.22H170.871ZM170.881 323.69H171.111C172.271 323.69 173.175 323.213 173.821 322.26C174.475 321.3 174.801 319.88 174.801 318C174.801 316.12 174.475 314.703 173.821 313.75C173.175 312.79 172.271 312.31 171.111 312.31H170.881C169.721 312.31 168.815 312.79 168.161 313.75C167.508 314.703 167.181 316.12 167.181 318C167.181 319.88 167.508 321.3 168.161 322.26C168.815 323.213 169.721 323.69 170.881 323.69Z" fill="#606BD6"/>
<path d="M151.999 292H172.999C186.807 292 197.999 303.193 197.999 317V317C197.999 330.807 186.807 342 172.999 342H151.999V292Z" stroke="#606BD6" stroke-linejoin="bevel"/>
<path d="M344.258 231.865C344.957 228.626 348.149 226.567 351.388 227.266L457.193 250.1C460.432 250.799 462.491 253.991 461.792 257.23L439.799 359.137C439.1 362.376 435.908 364.435 432.668 363.736L326.864 340.903C323.625 340.204 321.566 337.011 322.265 333.772L344.258 231.865Z" fill="white"/>
<path d="M354.649 255.805L364.997 267.676C365.132 267.832 365.296 267.968 365.397 268.148C365.456 268.254 365.492 268.373 365.502 268.498C365.52 268.727 365.447 268.955 365.298 269.133C365.148 269.31 364.936 269.422 364.707 269.443C364.583 269.455 364.459 269.44 364.345 269.4C364.149 269.332 363.987 269.194 363.811 269.087L350.337 260.935C350.23 260.87 350.139 260.782 350.07 260.678C350.001 260.574 349.956 260.456 349.937 260.331C349.919 260.207 349.927 260.08 349.962 259.959C349.998 259.837 350.059 259.725 350.141 259.629L353.328 255.837C353.409 255.739 353.509 255.659 353.623 255.604C353.736 255.548 353.86 255.518 353.985 255.515C354.111 255.512 354.235 255.536 354.35 255.586C354.464 255.637 354.566 255.711 354.649 255.805Z" fill="#FABD62"/>
<path d="M388.067 245.263L388.702 255.61C388.714 255.816 388.77 256.03 388.703 256.225C388.688 256.269 388.667 256.312 388.641 256.351C388.558 256.479 388.427 256.57 388.276 256.603C388.126 256.636 387.969 256.609 387.839 256.527C387.799 256.502 387.763 256.472 387.731 256.439C387.588 256.29 387.549 256.072 387.474 255.879L383.716 246.219C383.686 246.141 383.673 246.058 383.679 245.975C383.685 245.892 383.709 245.812 383.75 245.739C383.79 245.666 383.846 245.602 383.914 245.552C383.982 245.503 384.06 245.468 384.142 245.451L387.359 244.745C387.441 244.726 387.526 244.725 387.608 244.741C387.69 244.758 387.768 244.792 387.835 244.842C387.903 244.891 387.958 244.954 387.998 245.027C388.038 245.1 388.062 245.181 388.067 245.263Z" fill="#FABD62"/>
<path d="M347.861 329.834L364.524 314.605C364.677 314.466 364.85 314.347 364.987 314.193C365.132 314.031 365.232 313.831 365.275 313.612C365.338 313.291 365.271 312.955 365.088 312.68C364.906 312.405 364.623 312.212 364.302 312.145C364.084 312.099 363.861 312.114 363.655 312.184C363.46 312.251 363.283 312.364 363.095 312.45L342.583 321.876C342.422 321.951 342.279 322.06 342.164 322.196C342.049 322.333 341.966 322.493 341.92 322.666C341.873 322.839 341.865 323.02 341.895 323.198C341.925 323.375 341.994 323.544 342.095 323.694L345.997 329.577C346.095 329.728 346.224 329.857 346.376 329.954C346.527 330.051 346.698 330.114 346.875 330.138C347.052 330.163 347.232 330.148 347.403 330.096C347.573 330.043 347.729 329.954 347.861 329.834Z" fill="#FABD62"/>
<path d="M335.609 278.448L356.502 285.258C356.698 285.322 356.905 285.359 357.093 285.444C357.284 285.529 357.45 285.665 357.574 285.84C357.759 286.1 357.834 286.425 357.783 286.742C357.732 287.059 357.558 287.344 357.301 287.532C357.128 287.659 356.927 287.735 356.719 287.757C356.514 287.778 356.306 287.748 356.099 287.746L334.126 287.627C333.952 287.626 333.781 287.587 333.625 287.512C333.469 287.437 333.33 287.328 333.22 287.194C333.109 287.059 333.029 286.901 332.984 286.732C332.94 286.562 332.932 286.385 332.962 286.211L334.059 279.425C334.085 279.252 334.148 279.086 334.244 278.939C334.34 278.792 334.466 278.667 334.613 278.574C334.76 278.481 334.926 278.422 335.098 278.4C335.27 278.378 335.445 278.395 335.609 278.448Z" fill="#FABD62"/>
<path d="M443.533 269.576L425.157 278.138C424.876 278.269 424.564 278.352 424.328 278.553C424.225 278.641 424.137 278.748 424.071 278.87C423.929 279.131 423.896 279.439 423.979 279.727C424.062 280.014 424.255 280.257 424.514 280.403C424.635 280.471 424.766 280.515 424.9 280.534C425.207 280.578 425.515 280.482 425.823 280.443L445.934 277.89C446.094 277.869 446.247 277.814 446.383 277.727C446.519 277.64 446.635 277.524 446.722 277.387C446.809 277.251 446.865 277.096 446.887 276.934C446.909 276.773 446.896 276.608 446.849 276.451L445.074 270.305C445.031 270.148 444.954 270.001 444.849 269.876C444.744 269.751 444.614 269.651 444.467 269.581C444.321 269.512 444.161 269.476 444 269.475C443.838 269.474 443.679 269.508 443.533 269.576Z" fill="#FABD62"/>
<path d="M411.21 241.275L405.291 258.088C405.219 258.293 405.11 258.489 405.079 258.705C405.058 258.849 405.071 259 405.119 259.145C405.202 259.399 405.385 259.616 405.627 259.749C405.868 259.881 406.15 259.919 406.408 259.853C406.557 259.815 406.69 259.745 406.801 259.649C406.966 259.507 407.073 259.31 407.208 259.139L418.203 245.111C418.29 245 418.35 244.87 418.378 244.731C418.406 244.592 418.402 244.447 418.367 244.307C418.331 244.166 418.265 244.032 418.172 243.916C418.079 243.799 417.962 243.702 417.829 243.631L412.659 240.795C412.528 240.721 412.383 240.675 412.234 240.659C412.086 240.644 411.938 240.659 411.8 240.705C411.662 240.751 411.538 240.825 411.436 240.924C411.334 241.022 411.257 241.142 411.21 241.275Z" fill="#FABD62"/>
<path d="M375.345 350.107L382.277 331.75C382.347 331.564 382.392 331.368 382.484 331.192C382.567 331.033 382.689 330.897 382.84 330.797C383.073 330.642 383.355 330.587 383.625 330.646C383.894 330.704 384.129 330.87 384.277 331.107C384.373 331.26 384.428 331.435 384.438 331.614C384.45 331.812 384.409 332.009 384.397 332.207L383.142 351.79C383.131 351.944 383.088 352.095 383.016 352.232C382.943 352.368 382.843 352.488 382.722 352.581C382.6 352.675 382.461 352.74 382.313 352.773C382.165 352.806 382.013 352.806 381.866 352.772L376.102 351.528C375.954 351.498 375.815 351.436 375.694 351.345C375.573 351.254 375.473 351.136 375.401 351.001C375.329 350.866 375.286 350.716 375.277 350.562C375.267 350.407 375.29 350.252 375.345 350.107Z" fill="#FABD62"/>
<path d="M421.927 339.133L413.054 324.441C412.947 324.264 412.81 324.102 412.737 323.909C412.687 323.777 412.667 323.633 412.68 323.489C412.704 323.24 412.826 323.009 413.019 322.847C413.212 322.685 413.461 322.605 413.71 322.625C413.855 322.636 413.993 322.681 414.114 322.753C414.292 322.859 414.428 323.022 414.583 323.158L427.512 334.445C427.614 334.535 427.695 334.646 427.75 334.771C427.804 334.895 427.831 335.03 427.827 335.167C427.824 335.304 427.791 335.438 427.73 335.562C427.67 335.685 427.583 335.794 427.477 335.882L423.348 339.347C423.243 339.437 423.121 339.503 422.989 339.541C422.857 339.579 422.718 339.589 422.583 339.568C422.448 339.548 422.319 339.498 422.206 339.423C422.093 339.348 421.998 339.249 421.927 339.133Z" fill="#FABD62"/>
<path d="M447.325 316.683L422.489 309.727C422.042 309.601 421.601 309.383 421.137 309.415C420.999 309.425 420.861 309.455 420.728 309.505C420.374 309.641 420.085 309.912 419.927 310.26C419.768 310.608 419.752 311.003 419.882 311.36C419.931 311.493 419.999 311.617 420.082 311.728C420.362 312.099 420.816 312.289 421.204 312.545L442.738 326.739C442.91 326.852 443.105 326.926 443.309 326.955C443.513 326.984 443.722 326.968 443.92 326.908C444.118 326.847 444.302 326.745 444.458 326.606C444.613 326.468 444.738 326.297 444.822 326.106L448.213 318.672C448.302 318.483 448.349 318.277 448.352 318.068C448.354 317.86 448.312 317.654 448.227 317.465C448.143 317.276 448.018 317.108 447.863 316.973C447.707 316.837 447.523 316.739 447.325 316.683Z" fill="#FABD62"/>
<path d="M262 142L262 163C262 171.837 269.163 179 278 179L377 179C385.837 179 393 186.163 393 195L393 228" stroke="#96BFD8" stroke-width="2" stroke-dasharray="8 8"/>
<path d="M262 142L262 163C262 171.837 254.837 179 246 179L147 179C138.163 179 131 186.163 131 195L131 228" stroke="#FABD62" stroke-width="3"/>
</svg>
