<svg width="794" height="350" viewBox="0 0 794 350" fill="none" xmlns="http://www.w3.org/2000/svg">
<rect x="97.0002" y="15" width="65" height="50.2663" rx="6" fill="white" stroke="#2C749E" stroke-linejoin="bevel"/>
<path fill-rule="evenodd" clip-rule="evenodd" d="M97.0002 59.2666V61.0002C97.0002 64.3139 99.6865 67.0002 103 67.0002H156C159.314 67.0002 162 64.3139 162 61.0002V59.2666C162 62.5803 159.314 65.2666 156 65.2666H103C99.6865 65.2666 97.0002 62.5803 97.0002 59.2666Z" fill="#2C749E"/>
<path d="M120.651 48.24C119.764 48.24 118.987 48.0167 118.321 47.57C117.661 47.1167 117.147 46.4967 116.781 45.71C116.414 44.9167 116.231 44.0133 116.231 43C116.231 41.9867 116.414 41.0867 116.781 40.3C117.147 39.5067 117.661 38.8867 118.321 38.44C118.987 37.9867 119.764 37.76 120.651 37.76H120.871C121.531 37.76 122.141 37.9033 122.701 38.19C123.267 38.47 123.734 38.89 124.101 39.45V33.4H126.101V48H124.101V46.43C123.754 47.03 123.301 47.4833 122.741 47.79C122.181 48.09 121.557 48.24 120.871 48.24H120.651ZM121.151 46.39H121.351C121.944 46.39 122.477 46.2133 122.951 45.86C123.431 45.5067 123.814 45.0233 124.101 44.41V41.59C123.814 40.9767 123.431 40.4933 122.951 40.14C122.477 39.7867 121.944 39.61 121.351 39.61H121.151C120.277 39.61 119.584 39.9033 119.071 40.49C118.557 41.0767 118.301 41.9133 118.301 43C118.301 44.0867 118.557 44.9233 119.071 45.51C119.584 46.0967 120.277 46.39 121.151 46.39ZM130.046 36.22C129.64 36.22 129.316 36.0967 129.076 35.85C128.843 35.5967 128.726 35.2767 128.726 34.89C128.726 34.4967 128.843 34.1767 129.076 33.93C129.316 33.6833 129.64 33.56 130.046 33.56C130.46 33.56 130.783 33.6833 131.016 33.93C131.25 34.1767 131.366 34.4967 131.366 34.89C131.366 35.2767 131.25 35.5967 131.016 35.85C130.783 36.0967 130.46 36.22 130.046 36.22ZM129.046 48V38H131.046V48H129.046ZM136.878 48C136.158 46.38 135.471 44.73 134.818 43.05C134.171 41.3633 133.571 39.68 133.018 38H135.278C135.684 39.38 136.128 40.7633 136.608 42.15C137.094 43.5367 137.608 44.91 138.148 46.27C138.688 44.91 139.198 43.5367 139.678 42.15C140.164 40.7633 140.611 39.38 141.018 38H143.198C142.644 39.68 142.041 41.3633 141.388 43.05C140.741 44.73 140.058 46.38 139.338 48H136.878Z" fill="#2C749E"/>
<rect x="97.0002" y="106" width="65" height="50.2663" rx="6" fill="white" stroke="#2C749E" stroke-linejoin="bevel"/>
<path fill-rule="evenodd" clip-rule="evenodd" d="M97.0002 150.267V152C97.0002 155.314 99.6865 158 103 158H156C159.314 158 162 155.314 162 152V150.267C162 153.58 159.314 156.267 156 156.267H103C99.6865 156.267 97.0002 153.58 97.0002 150.267Z" fill="#2C749E"/>
<path d="M120.651 139.24C119.764 139.24 118.987 139.017 118.321 138.57C117.661 138.117 117.147 137.497 116.781 136.71C116.414 135.917 116.231 135.013 116.231 134C116.231 132.987 116.414 132.087 116.781 131.3C117.147 130.507 117.661 129.887 118.321 129.44C118.987 128.987 119.764 128.76 120.651 128.76H120.871C121.531 128.76 122.141 128.903 122.701 129.19C123.267 129.47 123.734 129.89 124.101 130.45V124.4H126.101V139H124.101V137.43C123.754 138.03 123.301 138.483 122.741 138.79C122.181 139.09 121.557 139.24 120.871 139.24H120.651ZM121.151 137.39H121.351C121.944 137.39 122.477 137.213 122.951 136.86C123.431 136.507 123.814 136.023 124.101 135.41V132.59C123.814 131.977 123.431 131.493 122.951 131.14C122.477 130.787 121.944 130.61 121.351 130.61H121.151C120.277 130.61 119.584 130.903 119.071 131.49C118.557 132.077 118.301 132.913 118.301 134C118.301 135.087 118.557 135.923 119.071 136.51C119.584 137.097 120.277 137.39 121.151 137.39ZM130.046 127.22C129.64 127.22 129.316 127.097 129.076 126.85C128.843 126.597 128.726 126.277 128.726 125.89C128.726 125.497 128.843 125.177 129.076 124.93C129.316 124.683 129.64 124.56 130.046 124.56C130.46 124.56 130.783 124.683 131.016 124.93C131.25 125.177 131.366 125.497 131.366 125.89C131.366 126.277 131.25 126.597 131.016 126.85C130.783 127.097 130.46 127.22 130.046 127.22ZM129.046 139V129H131.046V139H129.046ZM136.878 139C136.158 137.38 135.471 135.73 134.818 134.05C134.171 132.363 133.571 130.68 133.018 129H135.278C135.684 130.38 136.128 131.763 136.608 133.15C137.094 134.537 137.608 135.91 138.148 137.27C138.688 135.91 139.198 134.537 139.678 133.15C140.164 131.763 140.611 130.38 141.018 129H143.198C142.644 130.68 142.041 132.363 141.388 134.05C140.741 135.73 140.058 137.38 139.338 139H136.878Z" fill="#2C749E"/>
<path d="M130 106V66" stroke="#2C749E" stroke-width="2"/>
<path d="M130 215V159" stroke="#2C749E" stroke-width="2"/>
<rect x="43.0002" y="209" width="173" height="133" rx="6" fill="white" stroke="#2C749E" stroke-linejoin="bevel"/>
<path fill-rule="evenodd" clip-rule="evenodd" d="M43.0002 336V338C43.0002 341.314 45.6865 344 49.0002 344H210C213.314 344 216 341.314 216 338V336C216 339.314 213.314 342 210 342H49.0002C45.6865 342 43.0002 339.314 43.0002 336Z" fill="#2C749E"/>
<path d="M98.5756 251.24C97.2556 251.24 96.1022 250.95 95.1156 250.37C94.1289 249.783 93.3622 248.957 92.8156 247.89C92.2756 246.823 92.0056 245.567 92.0056 244.12C92.0056 242.667 92.2756 241.39 92.8156 240.29C93.3622 239.183 94.1289 238.32 95.1156 237.7C96.1022 237.073 97.2556 236.76 98.5756 236.76H98.8756C100.176 236.76 101.286 237.06 102.206 237.66C103.132 238.253 103.862 239.05 104.396 240.05L102.606 241.09C102.232 240.377 101.729 239.807 101.096 239.38C100.469 238.953 99.7189 238.74 98.8456 238.74H98.5656C97.7389 238.74 96.9956 238.95 96.3356 239.37C95.6822 239.79 95.1622 240.397 94.7756 241.19C94.3956 241.983 94.2056 242.943 94.2056 244.07C94.2056 245.197 94.3956 246.147 94.7756 246.92C95.1622 247.687 95.6822 248.27 96.3356 248.67C96.9956 249.063 97.7389 249.26 98.5656 249.26H98.8456C99.7256 249.26 100.472 249.067 101.086 248.68C101.699 248.287 102.199 247.747 102.586 247.06L104.366 248.12C103.819 249.073 103.089 249.833 102.176 250.4C101.262 250.96 100.162 251.24 98.8756 251.24H98.5756ZM111.016 251.24C110.002 251.24 109.119 251.017 108.366 250.57C107.619 250.117 107.042 249.497 106.636 248.71C106.229 247.917 106.026 247.013 106.026 246C106.026 244.98 106.229 244.077 106.636 243.29C107.042 242.503 107.619 241.887 108.366 241.44C109.119 240.987 110.002 240.76 111.016 240.76H111.236C112.256 240.76 113.139 240.987 113.886 241.44C114.632 241.887 115.209 242.503 115.616 243.29C116.022 244.077 116.226 244.98 116.226 246C116.226 247.013 116.022 247.917 115.616 248.71C115.209 249.497 114.632 250.117 113.886 250.57C113.139 251.017 112.256 251.24 111.236 251.24H111.016ZM111.026 249.38H111.226C112.139 249.38 112.856 249.073 113.376 248.46C113.896 247.847 114.156 247.027 114.156 246C114.156 244.967 113.896 244.147 113.376 243.54C112.856 242.927 112.139 242.62 111.226 242.62H111.026C110.119 242.62 109.402 242.927 108.876 243.54C108.356 244.147 108.096 244.967 108.096 246C108.096 247.027 108.356 247.847 108.876 248.46C109.402 249.073 110.119 249.38 111.026 249.38ZM121.987 251.24C120.834 251.24 119.954 250.85 119.347 250.07C118.74 249.29 118.437 248.193 118.437 246.78V241H120.437V246.54C120.437 248.433 121.124 249.38 122.497 249.38H122.697C123.377 249.38 123.954 249.17 124.427 248.75C124.907 248.33 125.264 247.8 125.497 247.16V241H127.497V251H125.497V249.33C125.13 249.923 124.67 250.39 124.117 250.73C123.57 251.07 122.934 251.24 122.207 251.24H121.987ZM130.443 251V241H132.443V242.67C132.81 242.077 133.266 241.61 133.813 241.27C134.366 240.93 135.006 240.76 135.733 240.76H135.953C137.06 240.76 137.926 241.15 138.553 241.93C139.186 242.71 139.503 243.807 139.503 245.22V251H137.503V245.46C137.503 243.567 136.816 242.62 135.443 242.62H135.243C134.563 242.62 133.983 242.83 133.503 243.25C133.03 243.67 132.676 244.2 132.443 244.84V251H130.443ZM146.779 251.13C145.592 251.13 144.689 250.83 144.069 250.23C143.449 249.63 143.139 248.707 143.139 247.46V242.74H141.179V241H143.139V238.02H145.139V241H148.509V242.74H145.139V247.19C145.139 247.977 145.302 248.523 145.629 248.83C145.956 249.137 146.439 249.29 147.079 249.29C147.386 249.29 147.659 249.277 147.899 249.25C148.146 249.223 148.399 249.19 148.659 249.15V250.9C148.392 250.967 148.092 251.02 147.759 251.06C147.426 251.107 147.099 251.13 146.779 251.13ZM154.986 251.24C154.026 251.24 153.183 251.02 152.456 250.58C151.736 250.14 151.173 249.527 150.766 248.74C150.366 247.953 150.166 247.043 150.166 246.01C150.166 244.977 150.366 244.067 150.766 243.28C151.173 242.487 151.736 241.87 152.456 241.43C153.183 240.983 154.026 240.76 154.986 240.76H155.206C156.08 240.76 156.846 240.977 157.506 241.41C158.173 241.837 158.693 242.457 159.066 243.27C159.44 244.077 159.626 245.05 159.626 246.19V246.8H152.236C152.356 247.62 152.663 248.267 153.156 248.74C153.656 249.207 154.306 249.44 155.106 249.44H155.306C155.786 249.44 156.246 249.343 156.686 249.15C157.126 248.95 157.496 248.683 157.796 248.35L159.026 249.65C158.573 250.137 158.013 250.523 157.346 250.81C156.686 251.097 155.973 251.24 155.206 251.24H154.986ZM154.926 242.56C154.213 242.56 153.616 242.797 153.136 243.27C152.663 243.737 152.363 244.377 152.236 245.19H157.616C157.556 244.45 157.313 243.827 156.886 243.32C156.466 242.813 155.88 242.56 155.126 242.56H154.926ZM161.966 251V241H163.966V242.52C164.633 241.347 165.55 240.76 166.716 240.76C167.036 240.76 167.326 240.787 167.586 240.84V242.86C167.426 242.84 167.253 242.823 167.066 242.81C166.886 242.797 166.71 242.79 166.536 242.79C165.876 242.79 165.336 242.98 164.916 243.36C164.496 243.74 164.18 244.26 163.966 244.92V251H161.966Z" fill="#2C749E"/>
<path d="M63.0002 295C63.0002 281.193 74.1931 270 88.0002 270H150V320H88.0002C74.1931 320 63.0002 308.807 63.0002 295V295Z" fill="white"/>
<path d="M89.0644 303.22C88.1177 303.22 87.2844 303.01 86.5644 302.59C85.8444 302.163 85.2811 301.563 84.8744 300.79C84.4744 300.01 84.2744 299.09 84.2744 298.03C84.2744 296.97 84.4744 296.05 84.8744 295.27C85.2744 294.49 85.8344 293.89 86.5544 293.47C87.2744 293.043 88.1111 292.83 89.0644 292.83H89.2644C90.0377 292.83 90.7544 293.02 91.4144 293.4C92.0744 293.78 92.6111 294.297 93.0244 294.95L91.8144 295.82C91.5077 295.347 91.1377 294.977 90.7044 294.71C90.2711 294.437 89.7777 294.3 89.2244 294.3H89.0344C88.0744 294.3 87.3144 294.64 86.7544 295.32C86.1944 295.993 85.9144 296.897 85.9144 298.03C85.9144 299.157 86.1944 300.06 86.7544 300.74C87.3144 301.413 88.0744 301.75 89.0344 301.75H89.2244C89.7844 301.75 90.2844 301.63 90.7244 301.39C91.1711 301.15 91.5544 300.827 91.8744 300.42L93.0244 301.36C92.5977 301.94 92.0577 302.397 91.4044 302.73C90.7511 303.057 90.0377 303.22 89.2644 303.22H89.0644ZM99.7399 303.22C98.7465 303.22 97.8865 302.997 97.1599 302.55C96.4332 302.103 95.8699 301.49 95.4699 300.71C95.0765 299.93 94.8799 299.037 94.8799 298.03C94.8799 297.017 95.0765 296.12 95.4699 295.34C95.8699 294.56 96.4332 293.947 97.1599 293.5C97.8865 293.053 98.7465 292.83 99.7399 292.83H99.9399C100.933 292.83 101.793 293.053 102.52 293.5C103.247 293.947 103.807 294.56 104.2 295.34C104.6 296.12 104.8 297.017 104.8 298.03C104.8 299.037 104.6 299.93 104.2 300.71C103.807 301.49 103.247 302.103 102.52 302.55C101.793 302.997 100.933 303.22 99.9399 303.22H99.7399ZM99.7499 301.76H99.9299C100.923 301.76 101.71 301.42 102.29 300.74C102.87 300.06 103.16 299.157 103.16 298.03C103.16 296.897 102.87 295.993 102.29 295.32C101.71 294.64 100.923 294.3 99.9299 294.3H99.7499C98.7565 294.3 97.9699 294.64 97.3899 295.32C96.8099 295.993 96.5199 296.897 96.5199 298.03C96.5199 299.157 96.8099 300.06 97.3899 300.74C97.9699 301.42 98.7565 301.76 99.7499 301.76ZM110.813 303.22C109.659 303.22 108.779 302.843 108.173 302.09C107.566 301.337 107.263 300.267 107.263 298.88V293.05H108.843V298.65C108.843 299.677 109.033 300.453 109.413 300.98C109.799 301.5 110.396 301.76 111.203 301.76H111.383C112.123 301.76 112.756 301.52 113.283 301.04C113.809 300.553 114.196 299.947 114.443 299.22V293.05H116.023V303H114.443V301.11C114.076 301.763 113.603 302.28 113.023 302.66C112.443 303.033 111.773 303.22 111.013 303.22H110.813ZM119.219 303V293.05H120.799V294.94C121.166 294.287 121.639 293.773 122.219 293.4C122.799 293.02 123.469 292.83 124.229 292.83H124.429C125.556 292.83 126.429 293.207 127.049 293.96C127.669 294.707 127.979 295.777 127.979 297.17V303H126.399V297.4C126.399 296.373 126.209 295.6 125.829 295.08C125.449 294.56 124.853 294.3 124.039 294.3H123.849C123.109 294.3 122.476 294.54 121.949 295.02C121.429 295.5 121.046 296.103 120.799 296.83V303H119.219ZM135.316 303.12C134.21 303.12 133.356 302.843 132.756 302.29C132.156 301.737 131.856 300.857 131.856 299.65V294.42H129.896V293.05H131.856V290.02H133.436V293.05H136.956V294.42H133.436V299.43C133.436 300.263 133.616 300.847 133.976 301.18C134.343 301.507 134.863 301.67 135.536 301.67C135.83 301.67 136.096 301.657 136.336 301.63C136.576 301.597 136.826 301.553 137.086 301.5V302.89C136.813 302.957 136.523 303.01 136.216 303.05C135.91 303.097 135.61 303.12 135.316 303.12Z" fill="#606BD6"/>
<path d="M63.0002 295C63.0002 281.193 74.1931 270 88.0002 270H150V320H88.0002C74.1931 320 63.0002 308.807 63.0002 295V295Z" stroke="#606BD6" stroke-linejoin="bevel"/>
<path d="M150 270H171C184.807 270 196 281.193 196 295V295C196 308.807 184.807 320 171 320H150V270Z" fill="white"/>
<path d="M168.872 303.22C167.746 303.22 166.779 302.93 165.972 302.35C165.166 301.77 164.546 300.94 164.112 299.86C163.686 298.78 163.472 297.493 163.472 296C163.472 294.507 163.686 293.22 164.112 292.14C164.546 291.06 165.166 290.23 165.972 289.65C166.779 289.07 167.746 288.78 168.872 288.78H169.122C170.249 288.78 171.212 289.07 172.012 289.65C172.819 290.23 173.436 291.06 173.862 292.14C174.296 293.22 174.512 294.507 174.512 296C174.512 297.493 174.296 298.78 173.862 299.86C173.436 300.94 172.819 301.77 172.012 302.35C171.212 302.93 170.249 303.22 169.122 303.22H168.872ZM168.882 301.69H169.112C170.272 301.69 171.176 301.213 171.822 300.26C172.476 299.3 172.802 297.88 172.802 296C172.802 294.12 172.476 292.703 171.822 291.75C171.176 290.79 170.272 290.31 169.112 290.31H168.882C167.722 290.31 166.816 290.79 166.162 291.75C165.509 292.703 165.182 294.12 165.182 296C165.182 297.88 165.509 299.3 166.162 300.26C166.816 301.213 167.722 301.69 168.882 301.69Z" fill="#606BD6"/>
<path d="M150 270H171C184.807 270 196 281.193 196 295V295C196 308.807 184.807 320 171 320H150V270Z" stroke="#606BD6" stroke-linejoin="bevel"/>
<path d="M18.5889 240.81L33.7147 247.289C33.911 247.415 34.1546 247.451 34.392 247.387C34.6293 247.324 34.8409 247.167 34.9802 246.951C35.1196 246.735 35.1753 246.477 35.135 246.235C35.0948 245.992 34.9619 245.785 34.7656 245.659L22.6188 234.558C22.5242 234.472 22.4108 234.41 22.2866 234.376C22.1623 234.343 22.0301 234.339 21.8992 234.364C21.7682 234.389 21.6417 234.444 21.5282 234.523C21.4148 234.603 21.3173 234.705 21.2423 234.824L18.2632 239.446C18.1858 239.563 18.1325 239.694 18.107 239.831C18.0814 239.967 18.0842 240.104 18.1152 240.234C18.1462 240.364 18.2046 240.482 18.2864 240.582C18.3682 240.681 18.4714 240.759 18.5889 240.81Z" fill="white"/>
<path d="M18.5889 304.44L33.7147 297.961C33.911 297.835 34.1546 297.799 34.392 297.863C34.6293 297.926 34.8409 298.083 34.9802 298.299C35.1196 298.515 35.1753 298.773 35.135 299.015C35.0948 299.258 34.9619 299.465 34.7656 299.591L22.6188 310.692C22.5242 310.778 22.4108 310.84 22.2866 310.874C22.1623 310.907 22.0301 310.911 21.8992 310.886C21.7682 310.861 21.6417 310.806 21.5282 310.727C21.4148 310.647 21.3173 310.545 21.2423 310.426L18.2632 305.804C18.1858 305.687 18.1325 305.556 18.107 305.419C18.0814 305.283 18.0842 305.146 18.1152 305.016C18.1462 304.886 18.2046 304.768 18.2864 304.668C18.3682 304.569 18.4714 304.491 18.5889 304.44Z" fill="white"/>
<path d="M7.5299 268.047L32.2489 270.445C32.6015 270.424 32.9479 270.547 33.212 270.785C33.476 271.024 33.6361 271.359 33.6569 271.716C33.6777 272.074 33.5576 272.425 33.323 272.693C33.0884 272.96 32.7585 273.122 32.4059 273.143L8.13224 278.393C7.9434 278.433 7.7481 278.431 7.55983 278.388C7.37157 278.344 7.19485 278.259 7.04194 278.139C6.88904 278.02 6.7636 277.867 6.6743 277.694C6.585 277.52 6.53397 277.329 6.52477 277.133L6.07949 269.485C6.06593 269.29 6.09441 269.094 6.16294 268.911C6.23147 268.728 6.3384 268.562 6.47636 268.425C6.61433 268.289 6.78003 268.184 6.96194 268.119C7.14385 268.053 7.33764 268.029 7.5299 268.047Z" fill="white"/>
<path d="M346.258 98.865C346.957 95.6258 350.15 93.5667 353.389 94.2657L459.193 117.1C462.432 117.799 464.492 120.991 463.793 124.23L441.8 226.137C441.101 229.376 437.908 231.435 434.669 230.736L328.865 207.903C325.626 207.204 323.567 204.011 324.266 200.772L346.258 98.865Z" fill="white"/>
<path d="M356.649 122.805L366.997 134.676C367.133 134.832 367.297 134.968 367.397 135.148C367.456 135.254 367.493 135.373 367.503 135.498C367.521 135.727 367.447 135.955 367.298 136.133C367.149 136.31 366.937 136.422 366.708 136.443C366.584 136.455 366.46 136.44 366.345 136.4C366.15 136.332 365.988 136.194 365.811 136.087L352.338 127.935C352.231 127.87 352.14 127.782 352.071 127.678C352.002 127.574 351.957 127.456 351.938 127.331C351.919 127.207 351.928 127.08 351.963 126.959C351.998 126.837 352.059 126.725 352.142 126.629L355.329 122.837C355.409 122.739 355.51 122.659 355.623 122.604C355.737 122.548 355.861 122.518 355.986 122.515C356.112 122.512 356.236 122.536 356.351 122.586C356.465 122.637 356.567 122.711 356.649 122.805Z" fill="#FABD62"/>
<path d="M390.068 112.263L390.703 122.61C390.715 122.816 390.771 123.03 390.704 123.225C390.689 123.269 390.668 123.312 390.642 123.351C390.559 123.479 390.427 123.57 390.277 123.603C390.127 123.636 389.969 123.609 389.84 123.527C389.8 123.502 389.763 123.472 389.731 123.439C389.588 123.29 389.549 123.072 389.474 122.879L385.717 113.219C385.687 113.141 385.674 113.058 385.68 112.975C385.686 112.892 385.71 112.812 385.75 112.739C385.791 112.666 385.847 112.602 385.915 112.552C385.982 112.503 386.06 112.468 386.143 112.451L389.359 111.745C389.441 111.726 389.526 111.725 389.609 111.741C389.691 111.758 389.769 111.792 389.836 111.842C389.903 111.891 389.959 111.954 389.999 112.027C390.039 112.1 390.062 112.181 390.068 112.263Z" fill="#FABD62"/>
<path d="M349.861 196.834L366.525 181.605C366.678 181.466 366.851 181.347 366.988 181.193C367.133 181.031 367.233 180.831 367.276 180.612C367.339 180.291 367.271 179.955 367.089 179.68C366.906 179.405 366.624 179.212 366.303 179.145C366.085 179.099 365.862 179.114 365.656 179.184C365.46 179.251 365.284 179.364 365.096 179.45L344.584 188.876C344.422 188.951 344.279 189.06 344.165 189.196C344.05 189.333 343.967 189.493 343.92 189.666C343.874 189.839 343.866 190.02 343.896 190.198C343.926 190.375 343.994 190.544 344.096 190.694L347.997 196.577C348.095 196.728 348.225 196.857 348.376 196.954C348.528 197.051 348.699 197.114 348.876 197.138C349.053 197.163 349.233 197.148 349.403 197.096C349.574 197.043 349.73 196.954 349.861 196.834Z" fill="#FABD62"/>
<path d="M337.61 145.448L358.502 152.258C358.699 152.322 358.906 152.359 359.094 152.444C359.284 152.529 359.451 152.665 359.575 152.84C359.76 153.1 359.835 153.425 359.784 153.742C359.732 154.059 359.559 154.344 359.301 154.532C359.129 154.659 358.928 154.735 358.72 154.757C358.514 154.778 358.307 154.748 358.1 154.746L336.126 154.627C335.953 154.626 335.782 154.587 335.626 154.512C335.469 154.437 335.331 154.328 335.22 154.194C335.11 154.059 335.029 153.901 334.985 153.732C334.941 153.562 334.933 153.385 334.963 153.211L336.06 146.425C336.086 146.252 336.149 146.086 336.245 145.939C336.34 145.792 336.466 145.667 336.614 145.574C336.761 145.481 336.927 145.422 337.099 145.4C337.271 145.378 337.445 145.395 337.61 145.448Z" fill="#FABD62"/>
<path d="M445.533 136.576L427.157 145.138C426.877 145.269 426.565 145.352 426.329 145.553C426.225 145.641 426.138 145.748 426.072 145.87C425.93 146.131 425.897 146.439 425.98 146.727C426.063 147.014 426.255 147.257 426.514 147.403C426.635 147.471 426.766 147.515 426.901 147.534C427.207 147.578 427.516 147.482 427.823 147.443L447.934 144.89C448.094 144.869 448.248 144.814 448.384 144.727C448.52 144.64 448.635 144.524 448.723 144.387C448.81 144.251 448.866 144.096 448.888 143.934C448.91 143.773 448.897 143.608 448.85 143.451L447.075 137.305C447.032 137.148 446.955 137.001 446.85 136.876C446.745 136.751 446.615 136.651 446.468 136.581C446.322 136.512 446.162 136.476 446.001 136.475C445.839 136.474 445.68 136.508 445.533 136.576Z" fill="#FABD62"/>
<path d="M413.21 108.275L407.292 125.088C407.219 125.293 407.111 125.489 407.08 125.705C407.059 125.849 407.072 126 407.119 126.145C407.203 126.399 407.385 126.616 407.627 126.749C407.869 126.881 408.15 126.919 408.409 126.853C408.557 126.815 408.691 126.745 408.802 126.649C408.967 126.507 409.074 126.31 409.208 126.139L420.204 112.111C420.291 112 420.35 111.87 420.379 111.731C420.407 111.592 420.403 111.447 420.367 111.307C420.332 111.166 420.265 111.032 420.172 110.916C420.08 110.799 419.963 110.702 419.83 110.631L414.66 107.795C414.528 107.721 414.383 107.675 414.235 107.659C414.087 107.644 413.938 107.659 413.801 107.705C413.663 107.751 413.539 107.825 413.437 107.924C413.335 108.022 413.257 108.142 413.21 108.275Z" fill="#FABD62"/>
<path d="M377.345 217.107L384.278 198.75C384.348 198.564 384.392 198.368 384.484 198.192C384.568 198.033 384.69 197.897 384.84 197.797C385.073 197.642 385.356 197.587 385.625 197.646C385.895 197.704 386.13 197.87 386.278 198.107C386.374 198.26 386.429 198.435 386.439 198.614C386.451 198.812 386.41 199.009 386.397 199.207L385.142 218.79C385.132 218.944 385.089 219.095 385.017 219.232C384.944 219.368 384.844 219.488 384.722 219.581C384.601 219.675 384.462 219.74 384.314 219.773C384.166 219.806 384.013 219.806 383.866 219.772L378.102 218.528C377.955 218.498 377.816 218.436 377.694 218.345C377.573 218.254 377.473 218.136 377.401 218.001C377.329 217.866 377.287 217.716 377.277 217.562C377.268 217.407 377.291 217.252 377.345 217.107Z" fill="#FABD62"/>
<path d="M423.928 206.133L415.054 191.441C414.947 191.264 414.811 191.102 414.738 190.909C414.687 190.777 414.668 190.633 414.681 190.489C414.705 190.24 414.826 190.009 415.02 189.847C415.213 189.685 415.461 189.605 415.711 189.625C415.855 189.636 415.993 189.681 416.115 189.753C416.292 189.859 416.428 190.022 416.584 190.158L429.513 201.445C429.615 201.535 429.696 201.646 429.751 201.771C429.805 201.895 429.832 202.03 429.828 202.167C429.825 202.304 429.792 202.438 429.731 202.562C429.671 202.685 429.584 202.794 429.477 202.882L425.349 206.347C425.244 206.437 425.122 206.503 424.99 206.541C424.858 206.579 424.719 206.589 424.584 206.568C424.449 206.548 424.32 206.498 424.207 206.423C424.094 206.348 423.998 206.249 423.928 206.133Z" fill="#FABD62"/>
<path d="M449.326 183.683L424.49 176.727C424.043 176.601 423.601 176.383 423.138 176.415C422.999 176.425 422.861 176.455 422.729 176.505C422.374 176.641 422.086 176.912 421.927 177.26C421.769 177.608 421.753 178.003 421.883 178.36C421.932 178.493 421.999 178.617 422.083 178.728C422.363 179.099 422.817 179.289 423.205 179.545L444.739 193.739C444.911 193.852 445.106 193.926 445.31 193.955C445.514 193.984 445.723 193.968 445.921 193.908C446.119 193.847 446.302 193.745 446.458 193.606C446.614 193.468 446.739 193.297 446.823 193.106L450.214 185.672C450.303 185.483 450.35 185.277 450.353 185.068C450.355 184.86 450.312 184.654 450.228 184.465C450.143 184.276 450.019 184.108 449.863 183.973C449.707 183.837 449.524 183.739 449.326 183.683Z" fill="#FABD62"/>
<path d="M393.911 103L393.911 66" stroke="#96BFD8" stroke-width="2" stroke-dasharray="8 8"/>
<rect x="361.911" y="15" width="65" height="50.2663" rx="6" fill="white" stroke="#2C749E" stroke-linejoin="bevel"/>
<path fill-rule="evenodd" clip-rule="evenodd" d="M361.911 59.2666V61.0002C361.911 64.3139 364.597 67.0002 367.911 67.0002H420.911C424.225 67.0002 426.911 64.3139 426.911 61.0002V59.2666C426.911 62.5803 424.225 65.2666 420.911 65.2666H367.911C364.597 65.2666 361.911 62.5803 361.911 59.2666Z" fill="#2C749E"/>
<path d="M385.562 48.24C384.675 48.24 383.898 48.0167 383.232 47.57C382.572 47.1167 382.058 46.4967 381.692 45.71C381.325 44.9167 381.142 44.0133 381.142 43C381.142 41.9867 381.325 41.0867 381.692 40.3C382.058 39.5067 382.572 38.8867 383.232 38.44C383.898 37.9867 384.675 37.76 385.562 37.76H385.782C386.442 37.76 387.052 37.9033 387.612 38.19C388.178 38.47 388.645 38.89 389.012 39.45V33.4H391.012V48H389.012V46.43C388.665 47.03 388.212 47.4833 387.652 47.79C387.092 48.09 386.468 48.24 385.782 48.24H385.562ZM386.062 46.39H386.262C386.855 46.39 387.388 46.2133 387.862 45.86C388.342 45.5067 388.725 45.0233 389.012 44.41V41.59C388.725 40.9767 388.342 40.4933 387.862 40.14C387.388 39.7867 386.855 39.61 386.262 39.61H386.062C385.188 39.61 384.495 39.9033 383.982 40.49C383.468 41.0767 383.212 41.9133 383.212 43C383.212 44.0867 383.468 44.9233 383.982 45.51C384.495 46.0967 385.188 46.39 386.062 46.39ZM394.957 36.22C394.551 36.22 394.227 36.0967 393.987 35.85C393.754 35.5967 393.637 35.2767 393.637 34.89C393.637 34.4967 393.754 34.1767 393.987 33.93C394.227 33.6833 394.551 33.56 394.957 33.56C395.371 33.56 395.694 33.6833 395.927 33.93C396.161 34.1767 396.277 34.4967 396.277 34.89C396.277 35.2767 396.161 35.5967 395.927 35.85C395.694 36.0967 395.371 36.22 394.957 36.22ZM393.957 48V38H395.957V48H393.957ZM401.789 48C401.069 46.38 400.382 44.73 399.729 43.05C399.082 41.3633 398.482 39.68 397.929 38H400.189C400.595 39.38 401.039 40.7633 401.519 42.15C402.005 43.5367 402.519 44.91 403.059 46.27C403.599 44.91 404.109 43.5367 404.589 42.15C405.075 40.7633 405.522 39.38 405.929 38H408.109C407.555 39.68 406.952 41.3633 406.299 43.05C405.652 44.73 404.969 46.38 404.249 48H401.789Z" fill="#2C749E"/>
<rect x="623.059" y="15" width="65" height="50.2663" rx="6" fill="white" stroke="#2C749E" stroke-linejoin="bevel"/>
<path fill-rule="evenodd" clip-rule="evenodd" d="M623.059 59.2666V61.0002C623.059 64.3139 625.745 67.0002 629.059 67.0002H682.059C685.372 67.0002 688.059 64.3139 688.059 61.0002V59.2666C688.059 62.5803 685.372 65.2666 682.059 65.2666H629.059C625.745 65.2666 623.059 62.5803 623.059 59.2666Z" fill="#2C749E"/>
<path d="M646.709 48.24C645.822 48.24 645.046 48.0167 644.379 47.57C643.719 47.1167 643.206 46.4967 642.839 45.71C642.472 44.9167 642.289 44.0133 642.289 43C642.289 41.9867 642.472 41.0867 642.839 40.3C643.206 39.5067 643.719 38.8867 644.379 38.44C645.046 37.9867 645.822 37.76 646.709 37.76H646.929C647.589 37.76 648.199 37.9033 648.759 38.19C649.326 38.47 649.792 38.89 650.159 39.45V33.4H652.159V48H650.159V46.43C649.812 47.03 649.359 47.4833 648.799 47.79C648.239 48.09 647.616 48.24 646.929 48.24H646.709ZM647.209 46.39H647.409C648.002 46.39 648.536 46.2133 649.009 45.86C649.489 45.5067 649.872 45.0233 650.159 44.41V41.59C649.872 40.9767 649.489 40.4933 649.009 40.14C648.536 39.7867 648.002 39.61 647.409 39.61H647.209C646.336 39.61 645.642 39.9033 645.129 40.49C644.616 41.0767 644.359 41.9133 644.359 43C644.359 44.0867 644.616 44.9233 645.129 45.51C645.642 46.0967 646.336 46.39 647.209 46.39ZM656.105 36.22C655.698 36.22 655.375 36.0967 655.135 35.85C654.901 35.5967 654.785 35.2767 654.785 34.89C654.785 34.4967 654.901 34.1767 655.135 33.93C655.375 33.6833 655.698 33.56 656.105 33.56C656.518 33.56 656.841 33.6833 657.075 33.93C657.308 34.1767 657.425 34.4967 657.425 34.89C657.425 35.2767 657.308 35.5967 657.075 35.85C656.841 36.0967 656.518 36.22 656.105 36.22ZM655.105 48V38H657.105V48H655.105ZM662.936 48C662.216 46.38 661.53 44.73 660.876 43.05C660.23 41.3633 659.63 39.68 659.076 38H661.336C661.743 39.38 662.186 40.7633 662.666 42.15C663.153 43.5367 663.666 44.91 664.206 46.27C664.746 44.91 665.256 43.5367 665.736 42.15C666.223 40.7633 666.67 39.38 667.076 38H669.256C668.703 39.68 668.1 41.3633 667.446 43.05C666.8 44.73 666.116 46.38 665.396 48H662.936Z" fill="#2C749E"/>
<rect x="596.542" y="103.496" width="118" height="59" rx="9.5" fill="white" stroke="#FCDEB0" stroke-width="3" stroke-linejoin="bevel"/>
<rect x="599.542" y="106.496" width="112" height="53" rx="6.5" fill="white" stroke="#FABD62" stroke-width="3" stroke-linejoin="bevel"/>
<rect x="601.042" y="107.996" width="109" height="50" rx="6" fill="white" stroke="#FABD62" stroke-linejoin="bevel"/>
<path d="M626.009 141.313C625.002 141.313 624.135 141.15 623.409 140.823C622.682 140.497 622.075 140.01 621.589 139.363L622.949 138.113C623.669 139.08 624.682 139.563 625.989 139.563H626.189C626.849 139.563 627.359 139.463 627.719 139.263C628.085 139.057 628.269 138.76 628.269 138.373C628.269 138.053 628.149 137.79 627.909 137.583C627.675 137.377 627.245 137.21 626.619 137.083L624.909 136.723C622.922 136.31 621.929 135.383 621.929 133.943C621.929 133.01 622.292 132.26 623.019 131.693C623.745 131.12 624.709 130.833 625.909 130.833H626.129C627.835 130.833 629.145 131.467 630.059 132.733L628.699 133.863C628.352 133.403 627.962 133.077 627.529 132.883C627.102 132.683 626.629 132.583 626.109 132.583H625.909C625.315 132.583 624.832 132.687 624.459 132.893C624.092 133.1 623.909 133.393 623.909 133.773C623.909 134.06 624.022 134.29 624.249 134.463C624.482 134.63 624.872 134.773 625.419 134.893L627.419 135.323C628.279 135.51 628.965 135.843 629.479 136.323C629.992 136.797 630.249 137.44 630.249 138.253C630.249 139.14 629.905 139.873 629.219 140.453C628.539 141.027 627.542 141.313 626.229 141.313H626.009ZM636.747 141.313C635.787 141.313 634.943 141.093 634.217 140.653C633.497 140.213 632.933 139.6 632.527 138.813C632.127 138.027 631.927 137.117 631.927 136.083C631.927 135.05 632.127 134.14 632.527 133.353C632.933 132.56 633.497 131.943 634.217 131.503C634.943 131.057 635.787 130.833 636.747 130.833H636.967C637.84 130.833 638.607 131.05 639.267 131.483C639.933 131.91 640.453 132.53 640.827 133.343C641.2 134.15 641.387 135.123 641.387 136.263V136.873H633.997C634.117 137.693 634.423 138.34 634.917 138.813C635.417 139.28 636.067 139.513 636.867 139.513H637.067C637.547 139.513 638.007 139.417 638.447 139.223C638.887 139.023 639.257 138.757 639.557 138.423L640.787 139.723C640.333 140.21 639.773 140.597 639.107 140.883C638.447 141.17 637.733 141.313 636.967 141.313H636.747ZM636.687 132.633C635.973 132.633 635.377 132.87 634.897 133.343C634.423 133.81 634.123 134.45 633.997 135.263H639.377C639.317 134.523 639.073 133.9 638.647 133.393C638.227 132.887 637.64 132.633 636.887 132.633H636.687ZM648.087 141.313C647.127 141.313 646.277 141.103 645.537 140.683C644.797 140.263 644.217 139.663 643.797 138.883C643.383 138.097 643.177 137.163 643.177 136.083C643.177 134.997 643.383 134.063 643.797 133.283C644.21 132.497 644.783 131.893 645.517 131.473C646.257 131.047 647.113 130.833 648.087 130.833H648.307C649.08 130.833 649.81 131.033 650.497 131.433C651.19 131.827 651.75 132.37 652.177 133.063L650.627 134.143C650.34 133.69 649.997 133.337 649.597 133.083C649.197 132.823 648.743 132.693 648.237 132.693H648.037C647.17 132.693 646.487 133 645.987 133.613C645.493 134.22 645.247 135.04 645.247 136.073C645.247 137.1 645.493 137.92 645.987 138.533C646.487 139.147 647.17 139.453 648.037 139.453H648.237C648.743 139.453 649.21 139.34 649.637 139.113C650.063 138.887 650.43 138.583 650.737 138.203L652.177 139.423C651.73 140.01 651.167 140.473 650.487 140.813C649.813 141.147 649.087 141.313 648.307 141.313H648.087ZM658.871 141.203C657.685 141.203 656.781 140.903 656.161 140.303C655.541 139.703 655.231 138.78 655.231 137.533V132.813H653.271V131.073H655.231V128.093H657.231V131.073H660.601V132.813H657.231V137.263C657.231 138.05 657.395 138.597 657.721 138.903C658.048 139.21 658.531 139.363 659.171 139.363C659.478 139.363 659.751 139.35 659.991 139.323C660.238 139.297 660.491 139.263 660.751 139.223V140.973C660.485 141.04 660.185 141.093 659.851 141.133C659.518 141.18 659.191 141.203 658.871 141.203ZM663.809 129.293C663.402 129.293 663.079 129.17 662.839 128.923C662.605 128.67 662.489 128.35 662.489 127.963C662.489 127.57 662.605 127.25 662.839 127.003C663.079 126.757 663.402 126.633 663.809 126.633C664.222 126.633 664.545 126.757 664.779 127.003C665.012 127.25 665.129 127.57 665.129 127.963C665.129 128.35 665.012 128.67 664.779 128.923C664.545 129.17 664.222 129.293 663.809 129.293ZM662.809 141.073V131.073H664.809V141.073H662.809ZM672.19 141.313C671.177 141.313 670.293 141.09 669.54 140.643C668.793 140.19 668.217 139.57 667.81 138.783C667.403 137.99 667.2 137.087 667.2 136.073C667.2 135.053 667.403 134.15 667.81 133.363C668.217 132.577 668.793 131.96 669.54 131.513C670.293 131.06 671.177 130.833 672.19 130.833H672.41C673.43 130.833 674.313 131.06 675.06 131.513C675.807 131.96 676.383 132.577 676.79 133.363C677.197 134.15 677.4 135.053 677.4 136.073C677.4 137.087 677.197 137.99 676.79 138.783C676.383 139.57 675.807 140.19 675.06 140.643C674.313 141.09 673.43 141.313 672.41 141.313H672.19ZM672.2 139.453H672.4C673.313 139.453 674.03 139.147 674.55 138.533C675.07 137.92 675.33 137.1 675.33 136.073C675.33 135.04 675.07 134.22 674.55 133.613C674.03 133 673.313 132.693 672.4 132.693H672.2C671.293 132.693 670.577 133 670.05 133.613C669.53 134.22 669.27 135.04 669.27 136.073C669.27 137.1 669.53 137.92 670.05 138.533C670.577 139.147 671.293 139.453 672.2 139.453ZM679.781 141.073V131.073H681.781V132.743C682.148 132.15 682.605 131.683 683.151 131.343C683.705 131.003 684.345 130.833 685.071 130.833H685.291C686.398 130.833 687.265 131.223 687.891 132.003C688.525 132.783 688.841 133.88 688.841 135.293V141.073H686.841V135.533C686.841 133.64 686.155 132.693 684.781 132.693H684.581C683.901 132.693 683.321 132.903 682.841 133.323C682.368 133.743 682.015 134.273 681.781 134.913V141.073H679.781Z" fill="#2C749E"/>
<path d="M576.618 160.655L589.305 155.22C589.47 155.114 589.674 155.084 589.873 155.137C590.072 155.19 590.249 155.322 590.366 155.504C590.483 155.685 590.53 155.901 590.496 156.104C590.462 156.307 590.351 156.481 590.186 156.587L579.998 165.898C579.919 165.97 579.824 166.022 579.72 166.05C579.615 166.078 579.505 166.082 579.395 166.061C579.285 166.039 579.179 165.994 579.084 165.927C578.988 165.861 578.907 165.774 578.844 165.675L576.345 161.798C576.28 161.7 576.235 161.59 576.214 161.476C576.193 161.361 576.195 161.246 576.221 161.137C576.247 161.028 576.296 160.929 576.365 160.846C576.433 160.762 576.52 160.697 576.618 160.655Z" fill="#FABD62"/>
<path d="M576.618 107.285L589.305 112.719C589.47 112.826 589.674 112.855 589.873 112.802C590.072 112.749 590.249 112.617 590.366 112.436C590.483 112.255 590.53 112.039 590.496 111.835C590.462 111.632 590.351 111.458 590.186 111.352L579.998 102.041C579.919 101.969 579.824 101.917 579.72 101.889C579.615 101.861 579.505 101.858 579.395 101.879C579.285 101.9 579.179 101.946 579.084 102.012C578.988 102.079 578.907 102.165 578.844 102.265L576.345 106.141C576.28 106.24 576.235 106.35 576.214 106.464C576.193 106.578 576.195 106.693 576.221 106.802C576.247 106.911 576.296 107.011 576.365 107.094C576.433 107.177 576.52 107.242 576.618 107.285Z" fill="#FABD62"/>
<path d="M567.342 137.809L588.075 135.798C588.37 135.815 588.661 135.713 588.882 135.513C589.104 135.313 589.238 135.032 589.256 134.732C589.273 134.432 589.172 134.137 588.976 133.913C588.779 133.688 588.502 133.553 588.206 133.535L567.847 129.132C567.689 129.098 567.525 129.099 567.367 129.136C567.209 129.173 567.061 129.244 566.933 129.344C566.804 129.445 566.699 129.572 566.624 129.718C566.549 129.864 566.506 130.024 566.499 130.189L566.125 136.603C566.114 136.767 566.138 136.931 566.195 137.085C566.253 137.238 566.342 137.377 566.458 137.492C566.574 137.607 566.713 137.694 566.865 137.749C567.018 137.804 567.181 137.824 567.342 137.809Z" fill="#FABD62"/>
<path d="M735.063 160.359L721.888 154.715C721.717 154.605 721.505 154.574 721.298 154.629C721.091 154.684 720.907 154.821 720.785 155.009C720.664 155.197 720.616 155.422 720.651 155.633C720.686 155.844 720.801 156.024 720.972 156.135L731.553 165.804C731.635 165.879 731.734 165.933 731.842 165.962C731.951 165.992 732.066 165.995 732.18 165.973C732.294 165.951 732.404 165.904 732.503 165.835C732.602 165.765 732.687 165.676 732.752 165.572L735.347 161.547C735.414 161.444 735.461 161.33 735.483 161.211C735.505 161.093 735.503 160.973 735.476 160.86C735.449 160.747 735.398 160.644 735.327 160.557C735.256 160.47 735.166 160.403 735.063 160.359Z" fill="#FABD62"/>
<path d="M735.063 104.931L721.888 110.575C721.717 110.686 721.505 110.716 721.298 110.661C721.091 110.606 720.907 110.469 720.785 110.281C720.664 110.093 720.616 109.868 720.651 109.657C720.686 109.446 720.801 109.266 720.972 109.155L731.553 99.4858C731.635 99.4108 731.734 99.3568 731.842 99.3277C731.951 99.2985 732.066 99.2948 732.18 99.3169C732.294 99.339 732.404 99.3863 732.503 99.4555C732.602 99.5248 732.687 99.6143 732.752 99.7179L735.347 103.744C735.414 103.846 735.461 103.96 735.483 104.079C735.505 104.197 735.503 104.317 735.476 104.43C735.449 104.543 735.398 104.647 735.327 104.733C735.256 104.82 735.166 104.887 735.063 104.931Z" fill="#FABD62"/>
<path d="M744.697 136.633L723.165 134.545C722.858 134.562 722.556 134.456 722.326 134.248C722.096 134.04 721.957 133.749 721.939 133.437C721.921 133.125 722.025 132.819 722.23 132.586C722.434 132.353 722.721 132.213 723.029 132.195L744.172 127.621C744.337 127.586 744.507 127.588 744.671 127.626C744.835 127.664 744.989 127.738 745.122 127.842C745.255 127.947 745.365 128.079 745.442 128.23C745.52 128.382 745.565 128.548 745.573 128.719L745.96 135.381C745.972 135.551 745.948 135.721 745.888 135.881C745.828 136.04 745.735 136.184 745.615 136.304C745.495 136.423 745.35 136.514 745.192 136.571C745.033 136.628 744.865 136.649 744.697 136.633Z" fill="#FABD62"/>
<rect x="563.058" y="201" width="185" height="145" rx="13" fill="white" stroke="#FCDEB0" stroke-width="4" stroke-linejoin="bevel"/>
<rect x="567.058" y="205" width="177" height="137" rx="9" fill="white" stroke="#FABD62" stroke-width="4" stroke-linejoin="bevel"/>
<rect x="569.058" y="207" width="173" height="133" rx="6" fill="white" stroke="#FABD62" stroke-linejoin="bevel"/>
<path d="M536.647 304.94L551.773 298.461C551.97 298.335 552.213 298.299 552.451 298.363C552.688 298.426 552.899 298.583 553.039 298.799C553.178 299.015 553.234 299.273 553.194 299.515C553.153 299.758 553.02 299.965 552.824 300.091L540.677 311.192C540.583 311.278 540.469 311.34 540.345 311.374C540.221 311.407 540.089 311.411 539.958 311.386C539.827 311.361 539.7 311.306 539.587 311.227C539.473 311.147 539.376 311.045 539.301 310.926L536.322 306.304C536.244 306.187 536.191 306.056 536.166 305.919C536.14 305.783 536.143 305.646 536.174 305.516C536.205 305.386 536.263 305.268 536.345 305.168C536.427 305.069 536.53 304.991 536.647 304.94Z" fill="#FABD62"/>
<path d="M536.647 241.31L551.773 247.789C551.97 247.915 552.213 247.951 552.451 247.887C552.688 247.824 552.899 247.667 553.039 247.451C553.178 247.235 553.234 246.977 553.194 246.735C553.153 246.492 553.02 246.285 552.824 246.159L540.677 235.058C540.583 234.972 540.469 234.91 540.345 234.876C540.221 234.843 540.089 234.839 539.958 234.864C539.827 234.889 539.7 234.944 539.587 235.023C539.473 235.103 539.376 235.205 539.301 235.324L536.322 239.946C536.244 240.063 536.191 240.194 536.166 240.331C536.14 240.467 536.143 240.604 536.174 240.734C536.205 240.864 536.263 240.982 536.345 241.082C536.427 241.181 536.53 241.259 536.647 241.31Z" fill="#FABD62"/>
<path d="M525.588 277.703L550.307 275.305C550.66 275.326 551.006 275.203 551.271 274.965C551.535 274.726 551.695 274.391 551.716 274.034C551.736 273.676 551.616 273.325 551.382 273.057C551.147 272.79 550.817 272.628 550.465 272.607L526.191 267.357C526.002 267.317 525.807 267.319 525.618 267.362C525.43 267.406 525.253 267.491 525.101 267.611C524.948 267.73 524.822 267.883 524.733 268.056C524.644 268.23 524.593 268.421 524.583 268.617L524.138 276.265C524.125 276.46 524.153 276.656 524.222 276.839C524.29 277.022 524.397 277.188 524.535 277.325C524.673 277.461 524.839 277.566 525.021 277.631C525.202 277.697 525.396 277.721 525.588 277.703Z" fill="#FABD62"/>
<path d="M774.471 304.94L759.345 298.461C759.149 298.335 758.905 298.299 758.668 298.363C758.431 298.426 758.219 298.583 758.08 298.799C757.94 299.015 757.885 299.273 757.925 299.515C757.965 299.758 758.098 299.965 758.294 300.091L770.441 311.192C770.536 311.278 770.649 311.34 770.773 311.374C770.897 311.407 771.03 311.411 771.161 311.386C771.292 311.361 771.418 311.306 771.532 311.227C771.645 311.147 771.743 311.045 771.817 310.926L774.797 306.304C774.874 306.187 774.927 306.056 774.953 305.919C774.978 305.783 774.976 305.646 774.945 305.516C774.914 305.386 774.855 305.268 774.773 305.168C774.692 305.069 774.588 304.991 774.471 304.94Z" fill="#FABD62"/>
<path d="M774.471 241.31L759.345 247.789C759.149 247.915 758.905 247.951 758.668 247.887C758.431 247.824 758.219 247.667 758.08 247.451C757.94 247.235 757.885 246.977 757.925 246.735C757.965 246.492 758.098 246.285 758.294 246.159L770.441 235.058C770.536 234.972 770.649 234.91 770.773 234.876C770.897 234.843 771.03 234.839 771.161 234.864C771.292 234.889 771.418 234.944 771.532 235.023C771.645 235.103 771.743 235.205 771.817 235.324L774.797 239.946C774.874 240.063 774.927 240.194 774.953 240.331C774.978 240.467 774.976 240.604 774.945 240.734C774.914 240.864 774.855 240.982 774.773 241.082C774.692 241.181 774.588 241.259 774.471 241.31Z" fill="#FABD62"/>
<path d="M785.53 277.703L760.811 275.305C760.458 275.326 760.112 275.203 759.848 274.965C759.584 274.726 759.424 274.391 759.403 274.034C759.382 273.676 759.502 273.325 759.737 273.057C759.971 272.79 760.301 272.628 760.654 272.607L784.928 267.357C785.116 267.317 785.312 267.319 785.5 267.362C785.688 267.406 785.865 267.491 786.018 267.611C786.171 267.73 786.296 267.883 786.385 268.056C786.475 268.23 786.526 268.421 786.535 268.617L786.98 276.265C786.994 276.46 786.965 276.656 786.897 276.839C786.828 277.022 786.721 277.188 786.583 277.325C786.445 277.461 786.28 277.566 786.098 277.631C785.916 277.697 785.722 277.721 785.53 277.703Z" fill="#FABD62"/>
<path d="M624.634 248.24C623.314 248.24 622.16 247.95 621.174 247.37C620.187 246.783 619.42 245.957 618.874 244.89C618.334 243.823 618.064 242.567 618.064 241.12C618.064 239.667 618.334 238.39 618.874 237.29C619.42 236.183 620.187 235.32 621.174 234.7C622.16 234.073 623.314 233.76 624.634 233.76H624.934C626.234 233.76 627.344 234.06 628.264 234.66C629.19 235.253 629.92 236.05 630.454 237.05L628.664 238.09C628.29 237.377 627.787 236.807 627.154 236.38C626.527 235.953 625.777 235.74 624.904 235.74H624.624C623.797 235.74 623.054 235.95 622.394 236.37C621.74 236.79 621.22 237.397 620.834 238.19C620.454 238.983 620.264 239.943 620.264 241.07C620.264 242.197 620.454 243.147 620.834 243.92C621.22 244.687 621.74 245.27 622.394 245.67C623.054 246.063 623.797 246.26 624.624 246.26H624.904C625.784 246.26 626.53 246.067 627.144 245.68C627.757 245.287 628.257 244.747 628.644 244.06L630.424 245.12C629.877 246.073 629.147 246.833 628.234 247.4C627.32 247.96 626.22 248.24 624.934 248.24H624.634ZM637.074 248.24C636.06 248.24 635.177 248.017 634.424 247.57C633.677 247.117 633.1 246.497 632.694 245.71C632.287 244.917 632.084 244.013 632.084 243C632.084 241.98 632.287 241.077 632.694 240.29C633.1 239.503 633.677 238.887 634.424 238.44C635.177 237.987 636.06 237.76 637.074 237.76H637.294C638.314 237.76 639.197 237.987 639.944 238.44C640.69 238.887 641.267 239.503 641.674 240.29C642.08 241.077 642.284 241.98 642.284 243C642.284 244.013 642.08 244.917 641.674 245.71C641.267 246.497 640.69 247.117 639.944 247.57C639.197 248.017 638.314 248.24 637.294 248.24H637.074ZM637.084 246.38H637.284C638.197 246.38 638.914 246.073 639.434 245.46C639.954 244.847 640.214 244.027 640.214 243C640.214 241.967 639.954 241.147 639.434 240.54C638.914 239.927 638.197 239.62 637.284 239.62H637.084C636.177 239.62 635.46 239.927 634.934 240.54C634.414 241.147 634.154 241.967 634.154 243C634.154 244.027 634.414 244.847 634.934 245.46C635.46 246.073 636.177 246.38 637.084 246.38ZM648.045 248.24C646.892 248.24 646.012 247.85 645.405 247.07C644.798 246.29 644.495 245.193 644.495 243.78V238H646.495V243.54C646.495 245.433 647.182 246.38 648.555 246.38H648.755C649.435 246.38 650.012 246.17 650.485 245.75C650.965 245.33 651.322 244.8 651.555 244.16V238H653.555V248H651.555V246.33C651.188 246.923 650.728 247.39 650.175 247.73C649.628 248.07 648.992 248.24 648.265 248.24H648.045ZM656.501 248V238H658.501V239.67C658.868 239.077 659.324 238.61 659.871 238.27C660.424 237.93 661.064 237.76 661.791 237.76H662.011C663.118 237.76 663.984 238.15 664.611 238.93C665.244 239.71 665.561 240.807 665.561 242.22V248H663.561V242.46C663.561 240.567 662.874 239.62 661.501 239.62H661.301C660.621 239.62 660.041 239.83 659.561 240.25C659.088 240.67 658.734 241.2 658.501 241.84V248H656.501ZM672.837 248.13C671.65 248.13 670.747 247.83 670.127 247.23C669.507 246.63 669.197 245.707 669.197 244.46V239.74H667.237V238H669.197V235.02H671.197V238H674.567V239.74H671.197V244.19C671.197 244.977 671.36 245.523 671.687 245.83C672.013 246.137 672.497 246.29 673.137 246.29C673.443 246.29 673.717 246.277 673.957 246.25C674.203 246.223 674.457 246.19 674.717 246.15V247.9C674.45 247.967 674.15 248.02 673.817 248.06C673.483 248.107 673.157 248.13 672.837 248.13ZM681.044 248.24C680.084 248.24 679.241 248.02 678.514 247.58C677.794 247.14 677.231 246.527 676.824 245.74C676.424 244.953 676.224 244.043 676.224 243.01C676.224 241.977 676.424 241.067 676.824 240.28C677.231 239.487 677.794 238.87 678.514 238.43C679.241 237.983 680.084 237.76 681.044 237.76H681.264C682.138 237.76 682.904 237.977 683.564 238.41C684.231 238.837 684.751 239.457 685.124 240.27C685.498 241.077 685.684 242.05 685.684 243.19V243.8H678.294C678.414 244.62 678.721 245.267 679.214 245.74C679.714 246.207 680.364 246.44 681.164 246.44H681.364C681.844 246.44 682.304 246.343 682.744 246.15C683.184 245.95 683.554 245.683 683.854 245.35L685.084 246.65C684.631 247.137 684.071 247.523 683.404 247.81C682.744 248.097 682.031 248.24 681.264 248.24H681.044ZM680.984 239.56C680.271 239.56 679.674 239.797 679.194 240.27C678.721 240.737 678.421 241.377 678.294 242.19H683.674C683.614 241.45 683.371 240.827 682.944 240.32C682.524 239.813 681.938 239.56 681.184 239.56H680.984ZM688.024 248V238H690.024V239.52C690.691 238.347 691.608 237.76 692.774 237.76C693.094 237.76 693.384 237.787 693.644 237.84V239.86C693.484 239.84 693.311 239.823 693.124 239.81C692.944 239.797 692.768 239.79 692.594 239.79C691.934 239.79 691.394 239.98 690.974 240.36C690.554 240.74 690.238 241.26 690.024 241.92V248H688.024Z" fill="#2C749E"/>
<path d="M589.058 292C589.058 278.193 600.251 267 614.058 267H676.058V317H614.058C600.251 317 589.058 305.807 589.058 292V292Z" fill="white"/>
<path d="M615.122 300.22C614.176 300.22 613.342 300.01 612.622 299.59C611.902 299.163 611.339 298.563 610.932 297.79C610.532 297.01 610.332 296.09 610.332 295.03C610.332 293.97 610.532 293.05 610.932 292.27C611.332 291.49 611.892 290.89 612.612 290.47C613.332 290.043 614.169 289.83 615.122 289.83H615.322C616.096 289.83 616.812 290.02 617.472 290.4C618.132 290.78 618.669 291.297 619.082 291.95L617.872 292.82C617.566 292.347 617.196 291.977 616.762 291.71C616.329 291.437 615.836 291.3 615.282 291.3H615.092C614.132 291.3 613.372 291.64 612.812 292.32C612.252 292.993 611.972 293.897 611.972 295.03C611.972 296.157 612.252 297.06 612.812 297.74C613.372 298.413 614.132 298.75 615.092 298.75H615.282C615.842 298.75 616.342 298.63 616.782 298.39C617.229 298.15 617.612 297.827 617.932 297.42L619.082 298.36C618.656 298.94 618.116 299.397 617.462 299.73C616.809 300.057 616.096 300.22 615.322 300.22H615.122ZM625.798 300.22C624.804 300.22 623.944 299.997 623.218 299.55C622.491 299.103 621.928 298.49 621.528 297.71C621.134 296.93 620.938 296.037 620.938 295.03C620.938 294.017 621.134 293.12 621.528 292.34C621.928 291.56 622.491 290.947 623.218 290.5C623.944 290.053 624.804 289.83 625.798 289.83H625.998C626.991 289.83 627.851 290.053 628.578 290.5C629.304 290.947 629.864 291.56 630.258 292.34C630.658 293.12 630.858 294.017 630.858 295.03C630.858 296.037 630.658 296.93 630.258 297.71C629.864 298.49 629.304 299.103 628.578 299.55C627.851 299.997 626.991 300.22 625.998 300.22H625.798ZM625.808 298.76H625.988C626.981 298.76 627.768 298.42 628.348 297.74C628.928 297.06 629.218 296.157 629.218 295.03C629.218 293.897 628.928 292.993 628.348 292.32C627.768 291.64 626.981 291.3 625.988 291.3H625.808C624.814 291.3 624.028 291.64 623.448 292.32C622.868 292.993 622.578 293.897 622.578 295.03C622.578 296.157 622.868 297.06 623.448 297.74C624.028 298.42 624.814 298.76 625.808 298.76ZM636.87 300.22C635.717 300.22 634.837 299.843 634.23 299.09C633.624 298.337 633.32 297.267 633.32 295.88V290.05H634.9V295.65C634.9 296.677 635.09 297.453 635.47 297.98C635.857 298.5 636.454 298.76 637.26 298.76H637.44C638.18 298.76 638.814 298.52 639.34 298.04C639.867 297.553 640.254 296.947 640.5 296.22V290.05H642.08V300H640.5V298.11C640.134 298.763 639.66 299.28 639.08 299.66C638.5 300.033 637.83 300.22 637.07 300.22H636.87ZM645.277 300V290.05H646.857V291.94C647.224 291.287 647.697 290.773 648.277 290.4C648.857 290.02 649.527 289.83 650.287 289.83H650.487C651.614 289.83 652.487 290.207 653.107 290.96C653.727 291.707 654.037 292.777 654.037 294.17V300H652.457V294.4C652.457 293.373 652.267 292.6 651.887 292.08C651.507 291.56 650.911 291.3 650.097 291.3H649.907C649.167 291.3 648.534 291.54 648.007 292.02C647.487 292.5 647.104 293.103 646.857 293.83V300H645.277ZM661.374 300.12C660.268 300.12 659.414 299.843 658.814 299.29C658.214 298.737 657.914 297.857 657.914 296.65V291.42H655.954V290.05H657.914V287.02H659.494V290.05H663.014V291.42H659.494V296.43C659.494 297.263 659.674 297.847 660.034 298.18C660.401 298.507 660.921 298.67 661.594 298.67C661.888 298.67 662.154 298.657 662.394 298.63C662.634 298.597 662.884 298.553 663.144 298.5V299.89C662.871 299.957 662.581 300.01 662.274 300.05C661.968 300.097 661.668 300.12 661.374 300.12Z" fill="#606BD6"/>
<path d="M589.058 292C589.058 278.193 600.251 267 614.058 267H676.058V317H614.058C600.251 317 589.058 305.807 589.058 292V292Z" stroke="#606BD6" stroke-linejoin="bevel"/>
<path d="M676.058 267H697.058C710.865 267 722.058 278.193 722.058 292V292C722.058 305.807 710.865 317 697.058 317H676.058V267Z" fill="white"/>
<path d="M694.93 300.22C693.803 300.22 692.837 299.93 692.03 299.35C691.223 298.77 690.603 297.94 690.17 296.86C689.743 295.78 689.53 294.493 689.53 293C689.53 291.507 689.743 290.22 690.17 289.14C690.603 288.06 691.223 287.23 692.03 286.65C692.837 286.07 693.803 285.78 694.93 285.78H695.18C696.307 285.78 697.27 286.07 698.07 286.65C698.877 287.23 699.493 288.06 699.92 289.14C700.353 290.22 700.57 291.507 700.57 293C700.57 294.493 700.353 295.78 699.92 296.86C699.493 297.94 698.877 298.77 698.07 299.35C697.27 299.93 696.307 300.22 695.18 300.22H694.93ZM694.94 298.69H695.17C696.33 298.69 697.233 298.213 697.88 297.26C698.533 296.3 698.86 294.88 698.86 293C698.86 291.12 698.533 289.703 697.88 288.75C697.233 287.79 696.33 287.31 695.17 287.31H694.94C693.78 287.31 692.873 287.79 692.22 288.75C691.567 289.703 691.24 291.12 691.24 293C691.24 294.88 691.567 296.3 692.22 297.26C692.873 298.213 693.78 298.69 694.94 298.69Z" fill="#606BD6"/>
<path d="M676.058 267H697.058C710.865 267 722.058 278.193 722.058 292V292C722.058 305.807 710.865 317 697.058 317H676.058V267Z" stroke="#606BD6" stroke-linejoin="bevel"/>
<path d="M656.059 102L656.059 67" stroke="#FABD62" stroke-width="3"/>
<path d="M656.059 199L656.059 164" stroke="#FABD62" stroke-width="3"/>
<path d="M240 128L270 128" stroke="#4977AB" stroke-width="4" stroke-linecap="round" stroke-linejoin="round"/>
<path d="M263 141.4L275 128.2L263 115" stroke="#4977AB" stroke-width="4" stroke-linecap="round" stroke-linejoin="round"/>
<path d="M489 129L519 129" stroke="#4977AB" stroke-width="4" stroke-linecap="round" stroke-linejoin="round"/>
<path d="M512 142.4L524 129.2L512 116" stroke="#4977AB" stroke-width="4" stroke-linecap="round" stroke-linejoin="round"/>
</svg>
