<svg width="504" height="375" viewBox="0 0 504 375" fill="none" xmlns="http://www.w3.org/2000/svg">
<rect x="117.001" y="1" width="255" height="141" rx="6" fill="#343A46" stroke="white" stroke-linejoin="bevel"/>
<path fill-rule="evenodd" clip-rule="evenodd" d="M117.001 135.928V138C117.001 141.314 119.687 144 123.001 144H366.001C369.314 144 372.001 141.314 372.001 138V135.928C372.001 139.241 369.314 141.928 366.001 141.928H123.001C119.687 141.928 117.001 139.241 117.001 135.928Z" fill="white"/>
<path d="M195.707 43.24C194.394 43.24 193.254 43.0067 192.287 42.54C191.321 42.0667 190.514 41.3867 189.867 40.5L191.407 39.1C191.974 39.8467 192.611 40.3967 193.317 40.75C194.031 41.1033 194.824 41.28 195.697 41.28H195.947C196.994 41.28 197.784 41.1 198.317 40.74C198.851 40.38 199.117 39.88 199.117 39.24C199.117 38.7467 198.974 38.3633 198.687 38.09C198.407 37.8167 198.067 37.61 197.667 37.47C197.267 37.33 196.887 37.2233 196.527 37.15L194.257 36.67C193.871 36.59 193.451 36.4733 192.997 36.32C192.551 36.1667 192.124 35.9533 191.717 35.68C191.311 35.4 190.977 35.0367 190.717 34.59C190.457 34.1433 190.327 33.5867 190.327 32.92C190.327 32.0867 190.544 31.36 190.977 30.74C191.417 30.1133 192.034 29.6267 192.827 29.28C193.621 28.9333 194.551 28.76 195.617 28.76H195.867C198.107 28.76 199.831 29.6267 201.037 31.36L199.517 32.62C198.971 31.9 198.394 31.4033 197.787 31.13C197.181 30.8567 196.527 30.72 195.827 30.72H195.577C194.664 30.72 193.924 30.9033 193.357 31.27C192.791 31.63 192.507 32.1233 192.507 32.75C192.507 33.1567 192.617 33.4833 192.837 33.73C193.057 33.97 193.351 34.1567 193.717 34.29C194.091 34.4233 194.494 34.5367 194.927 34.63L197.197 35.11C197.511 35.1767 197.894 35.28 198.347 35.42C198.807 35.56 199.261 35.7733 199.707 36.06C200.161 36.34 200.537 36.7233 200.837 37.21C201.144 37.6967 201.297 38.32 201.297 39.08C201.297 39.9467 201.077 40.69 200.637 41.31C200.197 41.93 199.577 42.4067 198.777 42.74C197.977 43.0733 197.037 43.24 195.957 43.24H195.707ZM208.112 43.24C207.152 43.24 206.302 43.03 205.562 42.61C204.822 42.19 204.242 41.59 203.822 40.81C203.409 40.0233 203.202 39.09 203.202 38.01C203.202 36.9233 203.409 35.99 203.822 35.21C204.235 34.4233 204.809 33.82 205.542 33.4C206.282 32.9733 207.139 32.76 208.112 32.76H208.332C209.105 32.76 209.835 32.96 210.522 33.36C211.215 33.7533 211.775 34.2967 212.202 34.99L210.652 36.07C210.365 35.6167 210.022 35.2633 209.622 35.01C209.222 34.75 208.769 34.62 208.262 34.62H208.062C207.195 34.62 206.512 34.9267 206.012 35.54C205.519 36.1467 205.272 36.9667 205.272 38C205.272 39.0267 205.519 39.8467 206.012 40.46C206.512 41.0733 207.195 41.38 208.062 41.38H208.262C208.769 41.38 209.235 41.2667 209.662 41.04C210.089 40.8133 210.455 40.51 210.762 40.13L212.202 41.35C211.755 41.9367 211.192 42.4 210.512 42.74C209.839 43.0733 209.112 43.24 208.332 43.24H208.112ZM218.837 43.24C217.823 43.24 216.94 43.0167 216.187 42.57C215.44 42.1167 214.863 41.4967 214.457 40.71C214.05 39.9167 213.847 39.0133 213.847 38C213.847 36.98 214.05 36.0767 214.457 35.29C214.863 34.5033 215.44 33.8867 216.187 33.44C216.94 32.9867 217.823 32.76 218.837 32.76H219.057C220.077 32.76 220.96 32.9867 221.707 33.44C222.453 33.8867 223.03 34.5033 223.437 35.29C223.843 36.0767 224.047 36.98 224.047 38C224.047 39.0133 223.843 39.9167 223.437 40.71C223.03 41.4967 222.453 42.1167 221.707 42.57C220.96 43.0167 220.077 43.24 219.057 43.24H218.837ZM218.847 41.38H219.047C219.96 41.38 220.677 41.0733 221.197 40.46C221.717 39.8467 221.977 39.0267 221.977 38C221.977 36.9667 221.717 36.1467 221.197 35.54C220.677 34.9267 219.96 34.62 219.047 34.62H218.847C217.94 34.62 217.223 34.9267 216.697 35.54C216.177 36.1467 215.917 36.9667 215.917 38C215.917 39.0267 216.177 39.8467 216.697 40.46C217.223 41.0733 217.94 41.38 218.847 41.38ZM226.428 43V33H228.428V34.52C229.094 33.3467 230.011 32.76 231.178 32.76C231.498 32.76 231.788 32.7867 232.048 32.84V34.86C231.888 34.84 231.714 34.8233 231.528 34.81C231.348 34.7967 231.171 34.79 230.998 34.79C230.338 34.79 229.798 34.98 229.378 35.36C228.958 35.74 228.641 36.26 228.428 36.92V43H226.428ZM238.256 43.24C237.296 43.24 236.453 43.02 235.726 42.58C235.006 42.14 234.443 41.5267 234.036 40.74C233.636 39.9533 233.436 39.0433 233.436 38.01C233.436 36.9767 233.636 36.0667 234.036 35.28C234.443 34.4867 235.006 33.87 235.726 33.43C236.453 32.9833 237.296 32.76 238.256 32.76H238.476C239.35 32.76 240.116 32.9767 240.776 33.41C241.443 33.8367 241.963 34.4567 242.336 35.27C242.71 36.0767 242.896 37.05 242.896 38.19V38.8H235.506C235.626 39.62 235.933 40.2667 236.426 40.74C236.926 41.2067 237.576 41.44 238.376 41.44H238.576C239.056 41.44 239.516 41.3433 239.956 41.15C240.396 40.95 240.766 40.6833 241.066 40.35L242.296 41.65C241.843 42.1367 241.283 42.5233 240.616 42.81C239.956 43.0967 239.243 43.24 238.476 43.24H238.256ZM238.196 34.56C237.483 34.56 236.886 34.7967 236.406 35.27C235.933 35.7367 235.633 36.3767 235.506 37.19H240.886C240.826 36.45 240.583 35.8267 240.156 35.32C239.736 34.8133 239.15 34.56 238.396 34.56H238.196ZM245.236 43V28.4H247.236V34.57C247.583 33.97 248.036 33.52 248.596 33.22C249.156 32.9133 249.78 32.76 250.466 32.76H250.686C251.573 32.76 252.346 32.9867 253.006 33.44C253.673 33.8867 254.19 34.5067 254.556 35.3C254.923 36.0867 255.106 36.9867 255.106 38C255.106 39.0133 254.923 39.9167 254.556 40.71C254.19 41.4967 253.673 42.1167 253.006 42.57C252.346 43.0167 251.573 43.24 250.686 43.24H250.466C249.806 43.24 249.193 43.1 248.626 42.82C248.066 42.5333 247.603 42.11 247.236 41.55V43H245.236ZM249.986 41.39H250.186C251.06 41.39 251.753 41.0967 252.266 40.51C252.78 39.9233 253.036 39.0867 253.036 38C253.036 36.9133 252.78 36.0767 252.266 35.49C251.753 34.9033 251.06 34.61 250.186 34.61H249.986C249.393 34.61 248.856 34.7867 248.376 35.14C247.903 35.4933 247.523 35.9767 247.236 36.59V39.41C247.523 40.0233 247.903 40.5067 248.376 40.86C248.856 41.2133 249.393 41.39 249.986 41.39ZM261.942 43.24C260.929 43.24 260.045 43.0167 259.292 42.57C258.545 42.1167 257.969 41.4967 257.562 40.71C257.155 39.9167 256.952 39.0133 256.952 38C256.952 36.98 257.155 36.0767 257.562 35.29C257.969 34.5033 258.545 33.8867 259.292 33.44C260.045 32.9867 260.929 32.76 261.942 32.76H262.162C263.182 32.76 264.065 32.9867 264.812 33.44C265.559 33.8867 266.135 34.5033 266.542 35.29C266.949 36.0767 267.152 36.98 267.152 38C267.152 39.0133 266.949 39.9167 266.542 40.71C266.135 41.4967 265.559 42.1167 264.812 42.57C264.065 43.0167 263.182 43.24 262.162 43.24H261.942ZM261.952 41.38H262.152C263.065 41.38 263.782 41.0733 264.302 40.46C264.822 39.8467 265.082 39.0267 265.082 38C265.082 36.9667 264.822 36.1467 264.302 35.54C263.782 34.9267 263.065 34.62 262.152 34.62H261.952C261.045 34.62 260.329 34.9267 259.802 35.54C259.282 36.1467 259.022 36.9667 259.022 38C259.022 39.0267 259.282 39.8467 259.802 40.46C260.329 41.0733 261.045 41.38 261.952 41.38ZM272.253 43.2C271.2 43.2 270.38 42.93 269.793 42.39C269.213 41.8433 268.923 41.1267 268.923 40.24C268.923 39.36 269.25 38.6233 269.903 38.03C270.563 37.4367 271.613 37.14 273.053 37.14H275.773V37.11C275.773 35.43 275 34.59 273.453 34.59C272.807 34.59 272.26 34.7067 271.813 34.94C271.373 35.1733 271.017 35.5 270.743 35.92L269.373 34.81C269.8 34.15 270.36 33.6433 271.053 33.29C271.753 32.9367 272.547 32.76 273.433 32.76H273.653C274.88 32.76 275.867 33.1133 276.613 33.82C277.36 34.5267 277.733 35.5833 277.733 36.99V43H275.813V41.37C275.427 41.9567 274.93 42.41 274.323 42.73C273.717 43.0433 273.027 43.2 272.253 43.2ZM272.693 41.42C273.467 41.42 274.11 41.2467 274.623 40.9C275.137 40.5467 275.52 40.07 275.773 39.47V38.71H273.133C272.347 38.71 271.783 38.8367 271.443 39.09C271.11 39.3367 270.943 39.6733 270.943 40.1C270.943 40.98 271.527 41.42 272.693 41.42ZM280.51 43V33H282.51V34.52C283.176 33.3467 284.093 32.76 285.26 32.76C285.58 32.76 285.87 32.7867 286.13 32.84V34.86C285.97 34.84 285.796 34.8233 285.61 34.81C285.43 34.7967 285.253 34.79 285.08 34.79C284.42 34.79 283.88 34.98 283.46 35.36C283.04 35.74 282.723 36.26 282.51 36.92V43H280.51ZM291.938 43.24C291.052 43.24 290.275 43.0167 289.608 42.57C288.948 42.1167 288.435 41.4967 288.068 40.71C287.702 39.9167 287.518 39.0133 287.518 38C287.518 36.9867 287.702 36.0867 288.068 35.3C288.435 34.5067 288.948 33.8867 289.608 33.44C290.275 32.9867 291.052 32.76 291.938 32.76H292.158C292.818 32.76 293.428 32.9033 293.988 33.19C294.555 33.47 295.022 33.89 295.388 34.45V28.4H297.388V43H295.388V41.43C295.042 42.03 294.588 42.4833 294.028 42.79C293.468 43.09 292.845 43.24 292.158 43.24H291.938ZM292.438 41.39H292.638C293.232 41.39 293.765 41.2133 294.238 40.86C294.718 40.5067 295.102 40.0233 295.388 39.41V36.59C295.102 35.9767 294.718 35.4933 294.238 35.14C293.765 34.7867 293.232 34.61 292.638 34.61H292.438C291.565 34.61 290.872 34.9033 290.358 35.49C289.845 36.0767 289.588 36.9133 289.588 38C289.588 39.0867 289.845 39.9233 290.358 40.51C290.872 41.0967 291.565 41.39 292.438 41.39Z" fill="white"/>
<rect x="138.501" y="59.5" width="212" height="59" rx="29.5" stroke="#C76A15" stroke-width="3" stroke-linejoin="bevel"/>
<rect x="141.501" y="62.5" width="206" height="53" rx="26.5" stroke="#FABD62" stroke-width="3" stroke-linejoin="bevel"/>
<path d="M142.712 89C142.712 75.1929 153.905 64 167.712 64H267.712V114H167.712C153.905 114 142.712 102.807 142.712 89V89Z" fill="#343A46"/>
<path d="M165.479 84.96C165.139 84.96 164.869 84.8567 164.669 84.65C164.469 84.4433 164.369 84.1767 164.369 83.85C164.369 83.5233 164.469 83.2567 164.669 83.05C164.869 82.8433 165.139 82.74 165.479 82.74C165.819 82.74 166.089 82.8433 166.289 83.05C166.489 83.2567 166.589 83.5233 166.589 83.85C166.589 84.1767 166.489 84.4433 166.289 84.65C166.089 84.8567 165.819 84.96 165.479 84.96ZM164.689 97V87.05H166.269V97H164.689ZM172.964 97.22C170.977 97.22 169.537 96.57 168.644 95.27L169.744 94.31C170.45 95.3233 171.52 95.83 172.954 95.83H173.134C173.867 95.83 174.437 95.7033 174.844 95.45C175.257 95.19 175.464 94.8267 175.464 94.36C175.464 93.96 175.324 93.64 175.044 93.4C174.77 93.16 174.304 92.9733 173.644 92.84L171.844 92.47C169.937 92.0833 168.984 91.1933 168.984 89.8C168.984 88.9067 169.337 88.19 170.044 87.65C170.757 87.1033 171.694 86.83 172.854 86.83H173.054C174.747 86.83 176.014 87.4467 176.854 88.68L175.754 89.57C175.42 89.0967 175.03 88.7533 174.584 88.54C174.137 88.3267 173.62 88.22 173.034 88.22H172.854C172.167 88.22 171.61 88.35 171.184 88.61C170.764 88.8633 170.554 89.2167 170.554 89.67C170.554 90.0233 170.684 90.3067 170.944 90.52C171.204 90.7267 171.637 90.8933 172.244 91.02L174.214 91.43C175.1 91.6167 175.79 91.94 176.284 92.4C176.784 92.86 177.034 93.4867 177.034 94.28C177.034 95.1533 176.694 95.8633 176.014 96.41C175.34 96.95 174.394 97.22 173.174 97.22H172.964ZM179.982 97V83H185.682C187.396 83 188.672 83.41 189.512 84.23C190.359 85.05 190.782 86.1567 190.782 87.55C190.782 88.9367 190.359 90.04 189.512 90.86C188.672 91.68 187.396 92.09 185.682 92.09H181.642V97H179.982ZM185.532 84.55H181.642V90.53H185.532C187.899 90.53 189.082 89.5367 189.082 87.55C189.082 85.55 187.899 84.55 185.532 84.55ZM193.439 97V82.4H195.019V97H193.439ZM200.894 97.19C199.847 97.19 199.034 96.9267 198.454 96.4C197.88 95.8733 197.594 95.1667 197.594 94.28C197.594 93.42 197.914 92.7067 198.554 92.14C199.2 91.5667 200.237 91.28 201.664 91.28H204.564V91.07C204.564 89.21 203.714 88.28 202.014 88.28C201.32 88.28 200.737 88.4067 200.264 88.66C199.797 88.9133 199.42 89.2733 199.134 89.74L198.024 88.9C198.424 88.2333 198.96 87.7233 199.634 87.37C200.314 87.01 201.097 86.83 201.984 86.83H202.184C203.39 86.83 204.347 87.18 205.054 87.88C205.76 88.5733 206.114 89.6 206.114 90.96V97H204.584V95.15C204.204 95.7967 203.7 96.3 203.074 96.66C202.447 97.0133 201.72 97.19 200.894 97.19ZM201.194 95.78C202.047 95.78 202.754 95.5733 203.314 95.16C203.874 94.74 204.29 94.1733 204.564 93.46V92.54H201.734C200.807 92.54 200.15 92.6867 199.764 92.98C199.384 93.2733 199.194 93.6733 199.194 94.18C199.194 94.6867 199.36 95.08 199.694 95.36C200.027 95.64 200.527 95.78 201.194 95.78ZM209.621 101.42C209.335 101.42 209.065 101.397 208.811 101.35V99.93C209.031 99.9633 209.235 99.98 209.421 99.98C210.188 99.98 210.801 99.7567 211.261 99.31C211.721 98.87 212.118 98.2567 212.451 97.47C211.638 95.8033 210.868 94.0967 210.141 92.35C209.415 90.5967 208.725 88.83 208.071 87.05H209.891C210.351 88.4833 210.855 89.92 211.401 91.36C211.955 92.8 212.548 94.2367 213.181 95.67L216.141 87.05H217.861L214.031 97.34C213.545 98.6467 212.968 99.6533 212.301 100.36C211.641 101.067 210.748 101.42 209.621 101.42ZM223.693 97.22C222.746 97.22 221.916 97.0033 221.203 96.57C220.49 96.1367 219.933 95.53 219.533 94.75C219.14 93.97 218.943 93.0633 218.943 92.03C218.943 91.0167 219.14 90.12 219.533 89.34C219.926 88.5533 220.473 87.94 221.173 87.5C221.88 87.0533 222.696 86.83 223.623 86.83H223.813C224.693 86.83 225.46 87.05 226.113 87.49C226.766 87.9233 227.27 88.5367 227.623 89.33C227.983 90.1233 228.163 91.0567 228.163 92.13V92.67H220.563C220.67 93.6233 221.003 94.38 221.563 94.94C222.13 95.5 222.863 95.78 223.763 95.78H223.943C224.476 95.78 224.97 95.6733 225.423 95.46C225.883 95.2467 226.27 94.9533 226.583 94.58L227.593 95.61C227.16 96.11 226.623 96.5033 225.983 96.79C225.343 97.0767 224.646 97.22 223.893 97.22H223.693ZM223.593 88.26C222.766 88.26 222.083 88.54 221.543 89.1C221.003 89.66 220.68 90.4133 220.573 91.36H226.573C226.526 90.48 226.26 89.7433 225.773 89.15C225.293 88.5567 224.626 88.26 223.773 88.26H223.593ZM230.743 97V87.05H232.323V88.78C232.637 88.1533 233.037 87.6733 233.523 87.34C234.01 87 234.573 86.83 235.213 86.83C235.52 86.83 235.813 86.86 236.093 86.92V88.5C235.94 88.48 235.773 88.4633 235.593 88.45C235.42 88.4367 235.25 88.43 235.083 88.43C234.357 88.43 233.767 88.6533 233.313 89.1C232.867 89.54 232.537 90.13 232.323 90.87V97H230.743ZM241.762 97C242.208 95.4933 242.718 93.93 243.292 92.31C243.872 90.6833 244.485 89.0767 245.132 87.49C245.785 85.9033 246.438 84.4067 247.092 83H249.132C249.792 84.4067 250.445 85.9033 251.092 87.49C251.738 89.0767 252.352 90.6833 252.932 92.31C253.512 93.93 254.022 95.4933 254.462 97H252.652C252.478 96.36 252.285 95.7033 252.072 95.03C251.865 94.35 251.645 93.66 251.412 92.96H244.752C244.518 93.66 244.295 94.35 244.082 95.03C243.875 95.7033 243.685 96.36 243.512 97H241.762ZM245.292 91.4H250.872C250.438 90.1867 249.982 88.9833 249.502 87.79C249.028 86.5967 248.555 85.47 248.082 84.41C247.615 85.47 247.142 86.5967 246.662 87.79C246.182 88.9833 245.725 90.1867 245.292 91.4Z" fill="#8891EC"/>
<path d="M142.712 89C142.712 75.1929 153.905 64 167.712 64H267.712V114H167.712C153.905 114 142.712 102.807 142.712 89V89Z" stroke="#FABD62" stroke-linejoin="bevel"/>
<path d="M267.501 64H320.501C334.308 64 345.501 75.1929 345.501 89V89C345.501 102.807 334.308 114 320.501 114H267.501V64Z" fill="#343A46"/>
<path d="M281.788 97V89.12H279.898V86.92H281.788V86.24C281.788 84.9067 282.132 83.8933 282.818 83.2C283.505 82.5 284.485 82.15 285.758 82.15C286.132 82.15 286.485 82.1733 286.818 82.22C287.158 82.2667 287.442 82.3267 287.668 82.4V84.59C287.415 84.5367 287.175 84.5 286.948 84.48C286.722 84.4533 286.508 84.44 286.308 84.44C285.742 84.44 285.298 84.5833 284.978 84.87C284.658 85.1567 284.498 85.6167 284.498 86.25V86.92H287.528V89.12H284.498V97H281.788ZM291.459 97.2C290.473 97.2 289.686 96.93 289.099 96.39C288.519 95.85 288.229 95.1267 288.229 94.22C288.229 93.32 288.563 92.58 289.229 92C289.903 91.4133 290.949 91.12 292.369 91.12H294.759V91.07C294.759 89.71 294.113 89.03 292.819 89.03C291.759 89.03 290.959 89.4067 290.419 90.16L288.649 88.77C289.103 88.0767 289.693 87.5533 290.419 87.2C291.153 86.8467 291.979 86.67 292.899 86.67H293.169C294.483 86.67 295.526 87.04 296.299 87.78C297.079 88.52 297.469 89.61 297.469 91.05V97H294.859V95.54C294.486 96.0733 294.009 96.4833 293.429 96.77C292.856 97.0567 292.199 97.2 291.459 97.2ZM292.339 95.04C292.926 95.04 293.419 94.9133 293.819 94.66C294.226 94.4067 294.539 94.0567 294.759 93.61V92.9H292.729C292.076 92.9 291.606 92.9967 291.319 93.19C291.039 93.3833 290.899 93.6533 290.899 94C290.899 94.6933 291.379 95.04 292.339 95.04ZM299.855 97V82.4H302.565V97H299.855ZM308.908 97.25C307.828 97.25 306.912 97.0833 306.158 96.75C305.412 96.41 304.798 95.9067 304.318 95.24L305.918 93.71C306.305 94.2033 306.748 94.5567 307.248 94.77C307.755 94.9767 308.292 95.08 308.858 95.08H309.058C309.598 95.08 310.018 95.0033 310.318 94.85C310.625 94.6967 310.778 94.4767 310.778 94.19C310.778 93.9433 310.675 93.7433 310.468 93.59C310.262 93.4367 309.862 93.2967 309.268 93.17L307.748 92.84C306.748 92.62 305.985 92.2633 305.458 91.77C304.932 91.2767 304.668 90.6567 304.668 89.91C304.668 88.9233 305.058 88.1367 305.838 87.55C306.625 86.9633 307.652 86.67 308.918 86.67H309.198C310.958 86.67 312.308 87.2767 313.248 88.49L311.718 90C311.392 89.6067 311.008 89.3167 310.568 89.13C310.135 88.9433 309.672 88.85 309.178 88.85H308.978C308.452 88.85 308.035 88.9233 307.728 89.07C307.428 89.2167 307.278 89.4333 307.278 89.72C307.278 89.9467 307.378 90.1267 307.578 90.26C307.785 90.3933 308.168 90.5167 308.728 90.63L310.368 90.98C311.362 91.1867 312.118 91.5433 312.638 92.05C313.165 92.5567 313.428 93.2167 313.428 94.03C313.428 94.99 313.052 95.7667 312.298 96.36C311.552 96.9533 310.512 97.25 309.178 97.25H308.908ZM319.775 97.25C318.782 97.25 317.905 97.0333 317.145 96.6C316.385 96.1667 315.792 95.5567 315.365 94.77C314.945 93.9767 314.735 93.05 314.735 91.99C314.735 90.9167 314.945 89.9833 315.365 89.19C315.792 88.39 316.378 87.77 317.125 87.33C317.872 86.89 318.732 86.67 319.705 86.67H319.975C320.902 86.67 321.712 86.8933 322.405 87.34C323.098 87.78 323.638 88.41 324.025 89.23C324.412 90.05 324.605 91.0233 324.605 92.15V92.83H317.485C317.618 93.5033 317.898 94.0267 318.325 94.4C318.758 94.7733 319.325 94.96 320.025 94.96H320.215C321.155 94.96 321.942 94.6333 322.575 93.98L324.015 95.76C323.528 96.22 322.942 96.5833 322.255 96.85C321.568 97.1167 320.832 97.25 320.045 97.25H319.775ZM319.695 88.9C319.115 88.9 318.632 89.0833 318.245 89.45C317.858 89.8167 317.605 90.3333 317.485 91H321.935C321.855 90.3867 321.638 89.8833 321.285 89.49C320.938 89.0967 320.465 88.9 319.865 88.9H319.695Z" fill="#8891EC"/>
<path d="M267.501 64H320.501C334.308 64 345.501 75.1929 345.501 89V89C345.501 102.807 334.308 114 320.501 114H267.501V64Z" stroke="#FABD62" stroke-linejoin="bevel"/>
<path d="M352.896 60.8328L351.219 65.5288C351.17 65.667 351.081 65.7863 350.964 65.8706C350.847 65.9548 350.707 66 350.565 66C350.422 66 350.282 65.9548 350.165 65.8706C350.048 65.7863 349.959 65.667 349.91 65.5288L348.233 60.8328C348.198 60.735 348.143 60.6462 348.072 60.5725C348.001 60.4988 347.915 60.442 347.82 60.4059L343.27 58.6758C343.136 58.6249 343.02 58.5328 342.939 58.412C342.857 58.2911 342.813 58.1473 342.813 58C342.813 57.8527 342.857 57.7089 342.939 57.588C343.02 57.4672 343.136 57.3751 343.27 57.3242L347.82 55.5941C347.915 55.558 348.001 55.5012 348.072 55.4275C348.143 55.3538 348.198 55.265 348.233 55.1672L349.91 50.4713C349.959 50.333 350.048 50.2137 350.165 50.1294C350.282 50.0452 350.422 50 350.565 50C350.707 50 350.847 50.0452 350.964 50.1294C351.081 50.2137 351.17 50.333 351.219 50.4713L352.896 55.1672C352.931 55.265 352.986 55.3538 353.057 55.4275C353.128 55.5012 353.215 55.558 353.309 55.5941L357.859 57.3242C357.993 57.3751 358.109 57.4672 358.19 57.588C358.272 57.7089 358.316 57.8527 358.316 58C358.316 58.1473 358.272 58.2911 358.19 58.412C358.109 58.5328 357.993 58.6249 357.859 58.6758L353.309 60.4059C353.215 60.442 353.128 60.4988 353.057 60.5725C352.986 60.6462 352.931 60.735 352.896 60.8328V60.8328Z" fill="#FABD62"/>
<path d="M359.771 72.7705L358.723 75.7055C358.692 75.7919 358.637 75.8664 358.564 75.9191C358.49 75.9718 358.403 76 358.314 76C358.225 76 358.138 75.9718 358.065 75.9191C357.991 75.8664 357.936 75.7919 357.905 75.7055L356.857 72.7705C356.835 72.7094 356.801 72.6539 356.756 72.6078C356.712 72.5617 356.658 72.5262 356.599 72.5037L353.755 71.4224C353.671 71.3906 353.599 71.333 353.548 71.2575C353.497 71.1819 353.469 71.0921 353.469 71C353.469 70.9079 353.497 70.8181 353.548 70.7425C353.599 70.667 353.671 70.6094 353.755 70.5776L356.599 69.4963C356.658 69.4738 356.712 69.4383 356.756 69.3922C356.801 69.3461 356.835 69.2906 356.857 69.2295L357.905 66.2945C357.936 66.2081 357.991 66.1336 358.065 66.0809C358.138 66.0282 358.225 66 358.314 66C358.403 66 358.49 66.0282 358.564 66.0809C358.637 66.1336 358.692 66.2081 358.723 66.2945L359.771 69.2295C359.793 69.2906 359.827 69.3461 359.872 69.3922C359.916 69.4383 359.97 69.4738 360.029 69.4963L362.873 70.5776C362.957 70.6094 363.029 70.667 363.08 70.7425C363.131 70.8181 363.159 70.9079 363.159 71C363.159 71.0921 363.131 71.1819 363.08 71.2575C363.029 71.333 362.957 71.3906 362.873 71.4224L360.029 72.5037C359.97 72.5262 359.916 72.5617 359.872 72.6078C359.827 72.6539 359.793 72.7094 359.771 72.7705V72.7705Z" fill="#FABD62"/>
<rect x="280" y="226" width="185" height="145" rx="13" fill="#343A46" stroke="#C76A15" stroke-width="4" stroke-linejoin="bevel"/>
<rect x="284" y="230" width="177" height="137" rx="9" fill="#343A46" stroke="#FABD62" stroke-width="4" stroke-linejoin="bevel"/>
<rect x="286" y="232" width="173" height="133" rx="6" fill="#343A46" stroke="#FABD62" stroke-linejoin="bevel"/>
<path d="M253.587 329.941L268.713 323.462C268.909 323.336 269.152 323.3 269.39 323.363C269.627 323.427 269.839 323.584 269.978 323.8C270.117 324.016 270.173 324.274 270.133 324.516C270.093 324.759 269.96 324.966 269.763 325.092L257.617 336.193C257.522 336.279 257.409 336.341 257.284 336.375C257.16 336.408 257.028 336.412 256.897 336.387C256.766 336.362 256.639 336.307 256.526 336.228C256.413 336.148 256.315 336.046 256.24 335.927L253.261 331.305C253.184 331.188 253.13 331.057 253.105 330.92C253.079 330.784 253.082 330.647 253.113 330.517C253.144 330.387 253.202 330.269 253.284 330.169C253.366 330.07 253.469 329.992 253.587 329.941Z" fill="#FABD62"/>
<path d="M253.587 266.31L268.713 272.789C268.909 272.915 269.152 272.951 269.39 272.887C269.627 272.824 269.839 272.667 269.978 272.451C270.117 272.235 270.173 271.977 270.133 271.735C270.093 271.492 269.96 271.285 269.763 271.159L257.617 260.058C257.522 259.972 257.409 259.91 257.284 259.876C257.16 259.843 257.028 259.839 256.897 259.864C256.766 259.889 256.639 259.944 256.526 260.023C256.413 260.103 256.315 260.205 256.24 260.324L253.261 264.946C253.184 265.063 253.13 265.194 253.105 265.331C253.079 265.467 253.082 265.604 253.113 265.734C253.144 265.864 253.202 265.982 253.284 266.082C253.366 266.181 253.469 266.259 253.587 266.31Z" fill="#FABD62"/>
<path d="M242.531 302.704L267.25 300.306C267.602 300.327 267.949 300.204 268.213 299.966C268.477 299.727 268.637 299.392 268.658 299.035C268.679 298.677 268.558 298.326 268.324 298.058C268.089 297.791 267.759 297.629 267.407 297.608L243.133 292.358C242.944 292.318 242.749 292.32 242.561 292.363C242.372 292.407 242.196 292.492 242.043 292.612C241.89 292.731 241.764 292.884 241.675 293.057C241.586 293.231 241.535 293.422 241.526 293.618L241.08 301.266C241.067 301.461 241.095 301.657 241.164 301.84C241.232 302.023 241.339 302.189 241.477 302.326C241.615 302.462 241.781 302.567 241.963 302.632C242.145 302.698 242.338 302.722 242.531 302.704Z" fill="#FABD62"/>
<path d="M491.414 329.943L476.288 323.464C476.091 323.338 475.848 323.302 475.611 323.365C475.373 323.429 475.162 323.586 475.022 323.802C474.883 324.018 474.827 324.276 474.867 324.518C474.908 324.761 475.041 324.968 475.237 325.094L487.384 336.195C487.478 336.281 487.592 336.343 487.716 336.377C487.84 336.41 487.972 336.414 488.103 336.389C488.234 336.364 488.361 336.309 488.474 336.23C488.588 336.15 488.685 336.048 488.76 335.929L491.739 331.307C491.817 331.19 491.87 331.058 491.895 330.922C491.921 330.786 491.918 330.649 491.887 330.519C491.856 330.389 491.798 330.27 491.716 330.171C491.634 330.072 491.531 329.994 491.414 329.943Z" fill="#FABD62"/>
<path d="M491.414 266.311L476.288 272.791C476.091 272.917 475.848 272.953 475.611 272.889C475.373 272.826 475.162 272.669 475.022 272.453C474.883 272.237 474.827 271.979 474.867 271.737C474.908 271.494 475.041 271.287 475.237 271.161L487.384 260.06C487.478 259.974 487.592 259.912 487.716 259.878C487.84 259.845 487.972 259.841 488.103 259.866C488.234 259.891 488.361 259.946 488.474 260.025C488.588 260.105 488.685 260.207 488.76 260.326L491.739 264.948C491.817 265.065 491.87 265.196 491.895 265.333C491.921 265.469 491.918 265.606 491.887 265.736C491.856 265.866 491.798 265.984 491.716 266.084C491.634 266.183 491.531 266.261 491.414 266.311Z" fill="#FABD62"/>
<path d="M502.47 302.706L477.751 300.308C477.398 300.329 477.052 300.206 476.788 299.968C476.524 299.729 476.363 299.394 476.343 299.037C476.322 298.679 476.442 298.328 476.677 298.06C476.911 297.793 477.241 297.631 477.594 297.61L501.867 292.36C502.056 292.32 502.251 292.322 502.44 292.365C502.628 292.409 502.805 292.494 502.958 292.614C503.111 292.733 503.236 292.885 503.325 293.059C503.415 293.233 503.466 293.424 503.475 293.62L503.92 301.268C503.934 301.463 503.905 301.659 503.837 301.842C503.768 302.025 503.661 302.191 503.523 302.328C503.385 302.464 503.22 302.569 503.038 302.634C502.856 302.7 502.662 302.724 502.47 302.706Z" fill="#FABD62"/>
<path d="M341.575 273.24C340.255 273.24 339.102 272.95 338.115 272.37C337.129 271.783 336.362 270.957 335.815 269.89C335.275 268.823 335.005 267.567 335.005 266.12C335.005 264.667 335.275 263.39 335.815 262.29C336.362 261.183 337.129 260.32 338.115 259.7C339.102 259.073 340.255 258.76 341.575 258.76H341.875C343.175 258.76 344.285 259.06 345.205 259.66C346.132 260.253 346.862 261.05 347.395 262.05L345.605 263.09C345.232 262.377 344.729 261.807 344.095 261.38C343.469 260.953 342.719 260.74 341.845 260.74H341.565C340.739 260.74 339.995 260.95 339.335 261.37C338.682 261.79 338.162 262.397 337.775 263.19C337.395 263.983 337.205 264.943 337.205 266.07C337.205 267.197 337.395 268.147 337.775 268.92C338.162 269.687 338.682 270.27 339.335 270.67C339.995 271.063 340.739 271.26 341.565 271.26H341.845C342.725 271.26 343.472 271.067 344.085 270.68C344.699 270.287 345.199 269.747 345.585 269.06L347.365 270.12C346.819 271.073 346.089 271.833 345.175 272.4C344.262 272.96 343.162 273.24 341.875 273.24H341.575ZM354.016 273.24C353.002 273.24 352.119 273.017 351.366 272.57C350.619 272.117 350.042 271.497 349.636 270.71C349.229 269.917 349.026 269.013 349.026 268C349.026 266.98 349.229 266.077 349.636 265.29C350.042 264.503 350.619 263.887 351.366 263.44C352.119 262.987 353.002 262.76 354.016 262.76H354.236C355.256 262.76 356.139 262.987 356.886 263.44C357.632 263.887 358.209 264.503 358.616 265.29C359.022 266.077 359.226 266.98 359.226 268C359.226 269.013 359.022 269.917 358.616 270.71C358.209 271.497 357.632 272.117 356.886 272.57C356.139 273.017 355.256 273.24 354.236 273.24H354.016ZM354.026 271.38H354.226C355.139 271.38 355.856 271.073 356.376 270.46C356.896 269.847 357.156 269.027 357.156 268C357.156 266.967 356.896 266.147 356.376 265.54C355.856 264.927 355.139 264.62 354.226 264.62H354.026C353.119 264.62 352.402 264.927 351.876 265.54C351.356 266.147 351.096 266.967 351.096 268C351.096 269.027 351.356 269.847 351.876 270.46C352.402 271.073 353.119 271.38 354.026 271.38ZM364.987 273.24C363.834 273.24 362.954 272.85 362.347 272.07C361.74 271.29 361.437 270.193 361.437 268.78V263H363.437V268.54C363.437 270.433 364.124 271.38 365.497 271.38H365.697C366.377 271.38 366.954 271.17 367.427 270.75C367.907 270.33 368.264 269.8 368.497 269.16V263H370.497V273H368.497V271.33C368.13 271.923 367.67 272.39 367.117 272.73C366.57 273.07 365.934 273.24 365.207 273.24H364.987ZM373.443 273V263H375.443V264.67C375.809 264.077 376.266 263.61 376.813 263.27C377.366 262.93 378.006 262.76 378.733 262.76H378.953C380.059 262.76 380.926 263.15 381.553 263.93C382.186 264.71 382.503 265.807 382.503 267.22V273H380.503V267.46C380.503 265.567 379.816 264.62 378.443 264.62H378.243C377.563 264.62 376.983 264.83 376.503 265.25C376.029 265.67 375.676 266.2 375.443 266.84V273H373.443ZM389.779 273.13C388.592 273.13 387.689 272.83 387.069 272.23C386.449 271.63 386.139 270.707 386.139 269.46V264.74H384.179V263H386.139V260.02H388.139V263H391.509V264.74H388.139V269.19C388.139 269.977 388.302 270.523 388.629 270.83C388.955 271.137 389.439 271.29 390.079 271.29C390.385 271.29 390.659 271.277 390.899 271.25C391.145 271.223 391.399 271.19 391.659 271.15V272.9C391.392 272.967 391.092 273.02 390.759 273.06C390.425 273.107 390.099 273.13 389.779 273.13ZM397.986 273.24C397.026 273.24 396.183 273.02 395.456 272.58C394.736 272.14 394.173 271.527 393.766 270.74C393.366 269.953 393.166 269.043 393.166 268.01C393.166 266.977 393.366 266.067 393.766 265.28C394.173 264.487 394.736 263.87 395.456 263.43C396.183 262.983 397.026 262.76 397.986 262.76H398.206C399.08 262.76 399.846 262.977 400.506 263.41C401.173 263.837 401.693 264.457 402.066 265.27C402.44 266.077 402.626 267.05 402.626 268.19V268.8H395.236C395.356 269.62 395.663 270.267 396.156 270.74C396.656 271.207 397.306 271.44 398.106 271.44H398.306C398.786 271.44 399.246 271.343 399.686 271.15C400.126 270.95 400.496 270.683 400.796 270.35L402.026 271.65C401.573 272.137 401.013 272.523 400.346 272.81C399.686 273.097 398.973 273.24 398.206 273.24H397.986ZM397.926 264.56C397.213 264.56 396.616 264.797 396.136 265.27C395.663 265.737 395.363 266.377 395.236 267.19H400.616C400.556 266.45 400.313 265.827 399.886 265.32C399.466 264.813 398.88 264.56 398.126 264.56H397.926ZM404.966 273V263H406.966V264.52C407.633 263.347 408.55 262.76 409.716 262.76C410.036 262.76 410.326 262.787 410.586 262.84V264.86C410.426 264.84 410.253 264.823 410.066 264.81C409.886 264.797 409.71 264.79 409.536 264.79C408.876 264.79 408.336 264.98 407.916 265.36C407.496 265.74 407.18 266.26 406.966 266.92V273H404.966Z" fill="white"/>
<path d="M306 317C306 303.193 317.193 292 331 292H393V342H331C317.193 342 306 330.807 306 317V317Z" fill="#343A46"/>
<path d="M332.064 325.22C331.118 325.22 330.284 325.01 329.564 324.59C328.844 324.163 328.281 323.563 327.874 322.79C327.474 322.01 327.274 321.09 327.274 320.03C327.274 318.97 327.474 318.05 327.874 317.27C328.274 316.49 328.834 315.89 329.554 315.47C330.274 315.043 331.111 314.83 332.064 314.83H332.264C333.038 314.83 333.754 315.02 334.414 315.4C335.074 315.78 335.611 316.297 336.024 316.95L334.814 317.82C334.508 317.347 334.138 316.977 333.704 316.71C333.271 316.437 332.778 316.3 332.224 316.3H332.034C331.074 316.3 330.314 316.64 329.754 317.32C329.194 317.993 328.914 318.897 328.914 320.03C328.914 321.157 329.194 322.06 329.754 322.74C330.314 323.413 331.074 323.75 332.034 323.75H332.224C332.784 323.75 333.284 323.63 333.724 323.39C334.171 323.15 334.554 322.827 334.874 322.42L336.024 323.36C335.598 323.94 335.058 324.397 334.404 324.73C333.751 325.057 333.038 325.22 332.264 325.22H332.064ZM342.74 325.22C341.746 325.22 340.886 324.997 340.16 324.55C339.433 324.103 338.87 323.49 338.47 322.71C338.076 321.93 337.88 321.037 337.88 320.03C337.88 319.017 338.076 318.12 338.47 317.34C338.87 316.56 339.433 315.947 340.16 315.5C340.886 315.053 341.746 314.83 342.74 314.83H342.94C343.933 314.83 344.793 315.053 345.52 315.5C346.246 315.947 346.806 316.56 347.2 317.34C347.6 318.12 347.8 319.017 347.8 320.03C347.8 321.037 347.6 321.93 347.2 322.71C346.806 323.49 346.246 324.103 345.52 324.55C344.793 324.997 343.933 325.22 342.94 325.22H342.74ZM342.75 323.76H342.93C343.923 323.76 344.71 323.42 345.29 322.74C345.87 322.06 346.16 321.157 346.16 320.03C346.16 318.897 345.87 317.993 345.29 317.32C344.71 316.64 343.923 316.3 342.93 316.3H342.75C341.756 316.3 340.97 316.64 340.39 317.32C339.81 317.993 339.52 318.897 339.52 320.03C339.52 321.157 339.81 322.06 340.39 322.74C340.97 323.42 341.756 323.76 342.75 323.76ZM353.812 325.22C352.659 325.22 351.779 324.843 351.172 324.09C350.566 323.337 350.262 322.267 350.262 320.88V315.05H351.842V320.65C351.842 321.677 352.032 322.453 352.412 322.98C352.799 323.5 353.396 323.76 354.202 323.76H354.382C355.122 323.76 355.756 323.52 356.282 323.04C356.809 322.553 357.196 321.947 357.442 321.22V315.05H359.022V325H357.442V323.11C357.076 323.763 356.602 324.28 356.022 324.66C355.442 325.033 354.772 325.22 354.012 325.22H353.812ZM362.219 325V315.05H363.799V316.94C364.166 316.287 364.639 315.773 365.219 315.4C365.799 315.02 366.469 314.83 367.229 314.83H367.429C368.556 314.83 369.429 315.207 370.049 315.96C370.669 316.707 370.979 317.777 370.979 319.17V325H369.399V319.4C369.399 318.373 369.209 317.6 368.829 317.08C368.449 316.56 367.853 316.3 367.039 316.3H366.849C366.109 316.3 365.476 316.54 364.949 317.02C364.429 317.5 364.046 318.103 363.799 318.83V325H362.219ZM378.316 325.12C377.21 325.12 376.356 324.843 375.756 324.29C375.156 323.737 374.856 322.857 374.856 321.65V316.42H372.896V315.05H374.856V312.02H376.436V315.05H379.956V316.42H376.436V321.43C376.436 322.263 376.616 322.847 376.976 323.18C377.343 323.507 377.863 323.67 378.536 323.67C378.83 323.67 379.096 323.657 379.336 323.63C379.576 323.597 379.826 323.553 380.086 323.5V324.89C379.813 324.957 379.523 325.01 379.216 325.05C378.91 325.097 378.61 325.12 378.316 325.12Z" fill="#8891EC"/>
<path d="M306 317C306 303.193 317.193 292 331 292H393V342H331C317.193 342 306 330.807 306 317V317Z" stroke="#8891EC" stroke-linejoin="bevel"/>
<path d="M393 292H414C427.807 292 439 303.193 439 317V317C439 330.807 427.807 342 414 342H393V292Z" fill="#343A46"/>
<path d="M411.872 325.22C410.745 325.22 409.779 324.93 408.972 324.35C408.165 323.77 407.545 322.94 407.112 321.86C406.685 320.78 406.472 319.493 406.472 318C406.472 316.507 406.685 315.22 407.112 314.14C407.545 313.06 408.165 312.23 408.972 311.65C409.779 311.07 410.745 310.78 411.872 310.78H412.122C413.249 310.78 414.212 311.07 415.012 311.65C415.819 312.23 416.435 313.06 416.862 314.14C417.295 315.22 417.512 316.507 417.512 318C417.512 319.493 417.295 320.78 416.862 321.86C416.435 322.94 415.819 323.77 415.012 324.35C414.212 324.93 413.249 325.22 412.122 325.22H411.872ZM411.882 323.69H412.112C413.272 323.69 414.175 323.213 414.822 322.26C415.475 321.3 415.802 319.88 415.802 318C415.802 316.12 415.475 314.703 414.822 313.75C414.175 312.79 413.272 312.31 412.112 312.31H411.882C410.722 312.31 409.815 312.79 409.162 313.75C408.509 314.703 408.182 316.12 408.182 318C408.182 319.88 408.509 321.3 409.162 322.26C409.815 323.213 410.722 323.69 411.882 323.69Z" fill="#8891EC"/>
<path d="M393 292H414C427.807 292 439 303.193 439 317V317C439 330.807 427.807 342 414 342H393V292Z" stroke="#8891EC" stroke-linejoin="bevel"/>
<path d="M65.2585 231.865C65.9575 228.626 69.15 226.567 72.3892 227.266L178.193 250.1C181.432 250.799 183.492 253.991 182.793 257.23L160.8 359.137C160.101 362.376 156.908 364.435 153.669 363.736L47.865 340.903C44.6258 340.204 42.5667 337.011 43.2657 333.772L65.2585 231.865Z" fill="#23252F"/>
<path d="M75.6492 255.805L85.9973 267.676C86.133 267.832 86.2972 267.968 86.3974 268.148C86.4565 268.254 86.4928 268.373 86.5026 268.498C86.5209 268.727 86.4473 268.955 86.2983 269.133C86.1492 269.31 85.9367 269.422 85.7077 269.443C85.5836 269.455 85.4602 269.44 85.3453 269.4C85.1502 269.332 84.9882 269.194 84.8114 269.087L71.3378 260.935C71.2311 260.87 71.14 260.782 71.071 260.678C71.0019 260.574 70.9565 260.456 70.9379 260.331C70.9192 260.207 70.9278 260.08 70.9631 259.959C70.9983 259.837 71.0593 259.725 71.1418 259.629L74.3291 255.837C74.4095 255.739 74.5099 255.659 74.6233 255.604C74.7368 255.548 74.8606 255.518 74.9862 255.515C75.1118 255.512 75.2361 255.536 75.3506 255.586C75.4651 255.637 75.567 255.711 75.6492 255.805Z" fill="#FABD62"/>
<path d="M109.068 245.263L109.703 255.61C109.715 255.816 109.771 256.03 109.704 256.225C109.689 256.269 109.668 256.312 109.642 256.351C109.559 256.479 109.427 256.57 109.277 256.603C109.127 256.636 108.969 256.609 108.84 256.527C108.8 256.502 108.763 256.472 108.731 256.439C108.588 256.29 108.549 256.072 108.474 255.879L104.717 246.219C104.687 246.141 104.674 246.058 104.68 245.975C104.686 245.892 104.71 245.812 104.75 245.739C104.791 245.666 104.847 245.602 104.915 245.552C104.982 245.503 105.06 245.468 105.143 245.451L108.359 244.745C108.441 244.726 108.526 244.725 108.609 244.741C108.691 244.758 108.769 244.792 108.836 244.842C108.903 244.891 108.959 244.954 108.999 245.027C109.039 245.1 109.062 245.181 109.068 245.263Z" fill="#FABD62"/>
<path d="M68.8615 329.834L85.5251 314.605C85.6776 314.466 85.8506 314.347 85.9881 314.193C86.133 314.031 86.2332 313.831 86.2758 313.612C86.3386 313.291 86.2713 312.955 86.0888 312.68C85.9063 312.405 85.6235 312.212 85.3027 312.145C85.0848 312.099 84.8615 312.114 84.6557 312.184C84.4602 312.251 84.2837 312.364 84.096 312.45L63.5838 321.876C63.4222 321.951 63.2792 322.06 63.1647 322.196C63.0501 322.333 62.9667 322.493 62.9203 322.666C62.8739 322.839 62.8655 323.02 62.8958 323.198C62.9261 323.375 62.9943 323.544 63.0958 323.694L66.9973 329.577C67.0953 329.728 67.2247 329.857 67.3764 329.954C67.5281 330.051 67.6985 330.114 67.8759 330.138C68.0532 330.163 68.2332 330.148 68.4034 330.096C68.5736 330.043 68.7299 329.954 68.8615 329.834Z" fill="#FABD62"/>
<path d="M56.6102 278.448L77.5025 285.258C77.6989 285.322 77.9055 285.359 78.0938 285.444C78.2844 285.529 78.451 285.665 78.575 285.84C78.7599 286.1 78.835 286.425 78.7837 286.742C78.7324 287.059 78.5589 287.344 78.3014 287.532C78.1287 287.659 77.9278 287.735 77.7199 287.757C77.5144 287.778 77.3068 287.748 77.1002 287.746L55.1263 287.627C54.953 287.626 54.7822 287.587 54.6258 287.512C54.4694 287.437 54.3311 287.328 54.2204 287.194C54.1098 287.059 54.0295 286.901 53.9851 286.732C53.9406 286.562 53.9331 286.385 53.9631 286.211L55.0601 279.425C55.0862 279.252 55.1492 279.086 55.2448 278.939C55.3404 278.792 55.4663 278.667 55.6138 278.574C55.7612 278.481 55.9267 278.422 56.0988 278.4C56.2708 278.378 56.4453 278.395 56.6102 278.448Z" fill="#FABD62"/>
<path d="M164.533 269.576L146.157 278.138C145.877 278.269 145.565 278.352 145.328 278.553C145.225 278.641 145.138 278.748 145.072 278.87C144.93 279.131 144.897 279.439 144.98 279.727C145.063 280.014 145.255 280.257 145.514 280.403C145.635 280.471 145.766 280.515 145.901 280.534C146.207 280.578 146.516 280.482 146.823 280.443L166.934 277.89C167.094 277.869 167.248 277.814 167.384 277.727C167.52 277.64 167.635 277.524 167.723 277.387C167.81 277.251 167.866 277.096 167.888 276.934C167.91 276.773 167.897 276.608 167.85 276.451L166.075 270.305C166.032 270.148 165.955 270.001 165.85 269.876C165.745 269.751 165.615 269.651 165.468 269.581C165.322 269.512 165.162 269.476 165.001 269.475C164.839 269.474 164.68 269.508 164.533 269.576Z" fill="#FABD62"/>
<path d="M132.21 241.275L126.292 258.088C126.219 258.293 126.111 258.489 126.08 258.705C126.059 258.849 126.072 259 126.12 259.145C126.203 259.399 126.386 259.616 126.627 259.749C126.869 259.881 127.15 259.919 127.409 259.853C127.557 259.815 127.691 259.745 127.802 259.649C127.967 259.507 128.074 259.31 128.208 259.139L139.204 245.111C139.291 245 139.35 244.87 139.379 244.731C139.407 244.592 139.403 244.447 139.367 244.307C139.332 244.166 139.265 244.032 139.172 243.916C139.08 243.799 138.963 243.702 138.83 243.631L133.66 240.795C133.528 240.721 133.383 240.675 133.235 240.659C133.087 240.644 132.939 240.659 132.801 240.705C132.663 240.751 132.539 240.825 132.437 240.924C132.335 241.022 132.258 241.142 132.21 241.275Z" fill="#FABD62"/>
<path d="M96.3453 350.107L103.278 331.75C103.348 331.564 103.392 331.368 103.484 331.192C103.568 331.033 103.69 330.897 103.84 330.797C104.073 330.642 104.356 330.587 104.625 330.646C104.895 330.704 105.13 330.87 105.278 331.107C105.374 331.26 105.429 331.435 105.439 331.614C105.451 331.812 105.41 332.009 105.397 332.207L104.142 351.79C104.132 351.944 104.089 352.095 104.017 352.232C103.944 352.368 103.844 352.488 103.722 352.581C103.601 352.675 103.462 352.74 103.314 352.773C103.166 352.806 103.013 352.806 102.866 352.772L97.1025 351.528C96.9547 351.498 96.8155 351.436 96.6945 351.345C96.5734 351.254 96.4734 351.136 96.4014 351.001C96.3294 350.866 96.2871 350.716 96.2774 350.562C96.2677 350.407 96.2909 350.252 96.3453 350.107Z" fill="#FABD62"/>
<path d="M142.928 339.133L134.054 324.441C133.947 324.264 133.811 324.102 133.738 323.909C133.687 323.777 133.668 323.633 133.681 323.489C133.705 323.24 133.826 323.009 134.02 322.847C134.213 322.685 134.461 322.605 134.711 322.625C134.855 322.636 134.993 322.681 135.115 322.753C135.292 322.859 135.428 323.022 135.584 323.158L148.513 334.445C148.615 334.535 148.696 334.646 148.751 334.771C148.805 334.895 148.832 335.03 148.828 335.167C148.825 335.304 148.792 335.438 148.731 335.562C148.671 335.685 148.584 335.794 148.477 335.882L144.349 339.347C144.244 339.437 144.122 339.503 143.99 339.541C143.858 339.579 143.719 339.589 143.584 339.568C143.449 339.548 143.32 339.498 143.207 339.423C143.094 339.348 142.998 339.249 142.928 339.133Z" fill="#FABD62"/>
<path d="M168.326 316.683L143.49 309.727C143.043 309.601 142.601 309.383 142.138 309.415C141.999 309.425 141.861 309.455 141.729 309.505C141.374 309.641 141.086 309.912 140.927 310.26C140.769 310.608 140.753 311.003 140.883 311.36C140.932 311.493 140.999 311.617 141.083 311.728C141.363 312.099 141.817 312.289 142.205 312.545L163.739 326.739C163.911 326.852 164.106 326.926 164.31 326.955C164.514 326.984 164.723 326.968 164.921 326.908C165.119 326.847 165.302 326.745 165.458 326.606C165.614 326.468 165.739 326.297 165.823 326.106L169.214 318.672C169.303 318.483 169.35 318.277 169.353 318.068C169.355 317.86 169.312 317.654 169.228 317.465C169.143 317.276 169.019 317.108 168.863 316.973C168.707 316.837 168.524 316.739 168.326 316.683Z" fill="#FABD62"/>
<path d="M129.001 181L129.001 180L129.001 181ZM228.001 181L228.001 182L228.001 181ZM114.001 230L114.001 225.875L112.001 225.875L112.001 230L114.001 230ZM114.001 217.625L114.001 209.375L112.001 209.375L112.001 217.625L114.001 217.625ZM114.001 201.125L114.001 197L112.001 197L112.001 201.125L114.001 201.125ZM114.001 197C114.001 195.997 114.099 195.018 114.286 194.071L112.324 193.683C112.112 194.757 112.001 195.866 112.001 197L114.001 197ZM116.527 188.666C117.622 187.03 119.031 185.621 120.667 184.526L119.555 182.864C117.701 184.105 116.106 185.7 114.865 187.554L116.527 188.666ZM126.072 182.286C127.019 182.098 127.998 182 129.001 182L129.001 180C127.867 180 126.758 180.111 125.684 180.324L126.072 182.286ZM129.001 182L133.126 182L133.126 180L129.001 180L129.001 182ZM141.376 182L149.626 182L149.626 180L141.376 180L141.376 182ZM157.876 182L166.126 182L166.126 180L157.876 180L157.876 182ZM174.376 182L182.626 182L182.626 180L174.376 180L174.376 182ZM190.876 182L199.126 182L199.126 180L190.876 180L190.876 182ZM207.376 182L215.626 182L215.626 180L207.376 180L207.376 182ZM223.876 182L228.001 182L228.001 180L223.876 180L223.876 182ZM228.001 182C229.135 182 230.244 181.889 231.317 181.676L230.929 179.714C229.983 179.902 229.004 180 228.001 180L228.001 182ZM237.447 179.136C239.3 177.895 240.896 176.3 242.137 174.446L240.475 173.334C239.379 174.97 237.97 176.379 236.334 177.474L237.447 179.136ZM244.677 168.317C244.89 167.243 245.001 166.134 245.001 165L243.001 165C243.001 166.003 242.902 166.982 242.715 167.929L244.677 168.317ZM245.001 165L245.001 159.75L243.001 159.75L243.001 165L245.001 165ZM245.001 149.25L245.001 144L243.001 144L243.001 149.25L245.001 149.25Z" fill="white"/>
<path d="M244.001 144L244.001 165C244.001 173.837 251.164 181 260.001 181L359.001 181C367.837 181 375.001 188.163 375.001 197L375.001 230" stroke="#FABD62" stroke-width="3"/>
</svg>
