<svg width="422" height="253" viewBox="0 0 422 253" fill="none" xmlns="http://www.w3.org/2000/svg">
<rect x="169" y="1" width="83" height="50.2663" rx="6" fill="white" stroke="#2C749E" stroke-linejoin="bevel"/>
<path fill-rule="evenodd" clip-rule="evenodd" d="M169 45.2666V47.0002C169 50.3139 171.686 53.0002 175 53.0002H246C249.314 53.0002 252 50.3139 252 47.0002V45.2666C252 48.5803 249.314 51.2666 246 51.2666H175C171.686 51.2666 169 48.5803 169 45.2666Z" fill="#2C749E"/>
<path d="M201.651 34.24C200.764 34.24 199.987 34.0167 199.321 33.57C198.661 33.1167 198.147 32.4967 197.781 31.71C197.414 30.9167 197.231 30.0133 197.231 29C197.231 27.9867 197.414 27.0867 197.781 26.3C198.147 25.5067 198.661 24.8867 199.321 24.44C199.987 23.9867 200.764 23.76 201.651 23.76H201.871C202.531 23.76 203.141 23.9033 203.701 24.19C204.267 24.47 204.734 24.89 205.101 25.45V19.4H207.101V34H205.101V32.43C204.754 33.03 204.301 33.4833 203.741 33.79C203.181 34.09 202.557 34.24 201.871 34.24H201.651ZM202.151 32.39H202.351C202.944 32.39 203.477 32.2133 203.951 31.86C204.431 31.5067 204.814 31.0233 205.101 30.41V27.59C204.814 26.9767 204.431 26.4933 203.951 26.14C203.477 25.7867 202.944 25.61 202.351 25.61H202.151C201.277 25.61 200.584 25.9033 200.071 26.49C199.557 27.0767 199.301 27.9133 199.301 29C199.301 30.0867 199.557 30.9233 200.071 31.51C200.584 32.0967 201.277 32.39 202.151 32.39ZM211.046 22.22C210.64 22.22 210.316 22.0967 210.076 21.85C209.843 21.5967 209.726 21.2767 209.726 20.89C209.726 20.4967 209.843 20.1767 210.076 19.93C210.316 19.6833 210.64 19.56 211.046 19.56C211.46 19.56 211.783 19.6833 212.016 19.93C212.25 20.1767 212.366 20.4967 212.366 20.89C212.366 21.2767 212.25 21.5967 212.016 21.85C211.783 22.0967 211.46 22.22 211.046 22.22ZM210.046 34V24H212.046V34H210.046ZM217.878 34C217.158 32.38 216.471 30.73 215.818 29.05C215.171 27.3633 214.571 25.68 214.018 24H216.278C216.684 25.38 217.128 26.7633 217.608 28.15C218.094 29.5367 218.608 30.91 219.148 32.27C219.688 30.91 220.198 29.5367 220.678 28.15C221.164 26.7633 221.611 25.38 222.018 24H224.198C223.644 25.68 223.041 27.3633 222.388 29.05C221.741 30.73 221.058 32.38 220.338 34H217.878Z" fill="#2C749E"/>
<rect x="1" y="118" width="173" height="133" rx="6" fill="white" stroke="#2C749E" stroke-linejoin="bevel"/>
<path fill-rule="evenodd" clip-rule="evenodd" d="M1 245V247C1 250.314 3.68629 253 7 253H168C171.314 253 174 250.314 174 247V245C174 248.314 171.314 251 168 251H7C3.68629 251 1 248.314 1 245Z" fill="#2C749E"/>
<path d="M56.5753 160.24C55.2553 160.24 54.102 159.95 53.1153 159.37C52.1286 158.783 51.362 157.957 50.8153 156.89C50.2753 155.823 50.0053 154.567 50.0053 153.12C50.0053 151.667 50.2753 150.39 50.8153 149.29C51.362 148.183 52.1286 147.32 53.1153 146.7C54.102 146.073 55.2553 145.76 56.5753 145.76H56.8753C58.1753 145.76 59.2853 146.06 60.2053 146.66C61.132 147.253 61.862 148.05 62.3953 149.05L60.6053 150.09C60.232 149.377 59.7286 148.807 59.0953 148.38C58.4686 147.953 57.7186 147.74 56.8453 147.74H56.5653C55.7386 147.74 54.9953 147.95 54.3353 148.37C53.682 148.79 53.162 149.397 52.7753 150.19C52.3953 150.983 52.2053 151.943 52.2053 153.07C52.2053 154.197 52.3953 155.147 52.7753 155.92C53.162 156.687 53.682 157.27 54.3353 157.67C54.9953 158.063 55.7386 158.26 56.5653 158.26H56.8453C57.7253 158.26 58.472 158.067 59.0853 157.68C59.6986 157.287 60.1986 156.747 60.5853 156.06L62.3653 157.12C61.8186 158.073 61.0886 158.833 60.1753 159.4C59.262 159.96 58.162 160.24 56.8753 160.24H56.5753ZM69.0155 160.24C68.0021 160.24 67.1188 160.017 66.3655 159.57C65.6188 159.117 65.0421 158.497 64.6355 157.71C64.2288 156.917 64.0255 156.013 64.0255 155C64.0255 153.98 64.2288 153.077 64.6355 152.29C65.0421 151.503 65.6188 150.887 66.3655 150.44C67.1188 149.987 68.0021 149.76 69.0155 149.76H69.2355C70.2555 149.76 71.1388 149.987 71.8855 150.44C72.6321 150.887 73.2088 151.503 73.6155 152.29C74.0221 153.077 74.2255 153.98 74.2255 155C74.2255 156.013 74.0221 156.917 73.6155 157.71C73.2088 158.497 72.6321 159.117 71.8855 159.57C71.1388 160.017 70.2555 160.24 69.2355 160.24H69.0155ZM69.0255 158.38H69.2255C70.1388 158.38 70.8555 158.073 71.3755 157.46C71.8955 156.847 72.1555 156.027 72.1555 155C72.1555 153.967 71.8955 153.147 71.3755 152.54C70.8555 151.927 70.1388 151.62 69.2255 151.62H69.0255C68.1188 151.62 67.4021 151.927 66.8755 152.54C66.3555 153.147 66.0955 153.967 66.0955 155C66.0955 156.027 66.3555 156.847 66.8755 157.46C67.4021 158.073 68.1188 158.38 69.0255 158.38ZM79.9867 160.24C78.8334 160.24 77.9534 159.85 77.3467 159.07C76.7401 158.29 76.4367 157.193 76.4367 155.78V150H78.4367V155.54C78.4367 157.433 79.1234 158.38 80.4967 158.38H80.6967C81.3767 158.38 81.9534 158.17 82.4267 157.75C82.9067 157.33 83.2634 156.8 83.4967 156.16V150H85.4967V160H83.4967V158.33C83.1301 158.923 82.6701 159.39 82.1167 159.73C81.5701 160.07 80.9334 160.24 80.2067 160.24H79.9867ZM88.4427 160V150H90.4427V151.67C90.8093 151.077 91.266 150.61 91.8127 150.27C92.366 149.93 93.006 149.76 93.7327 149.76H93.9527C95.0593 149.76 95.926 150.15 96.5527 150.93C97.186 151.71 97.5027 152.807 97.5027 154.22V160H95.5027V154.46C95.5027 152.567 94.816 151.62 93.4427 151.62H93.2427C92.5627 151.62 91.9827 151.83 91.5027 152.25C91.0293 152.67 90.676 153.2 90.4427 153.84V160H88.4427ZM104.779 160.13C103.592 160.13 102.689 159.83 102.069 159.23C101.449 158.63 101.139 157.707 101.139 156.46V151.74H99.1786V150H101.139V147.02H103.139V150H106.509V151.74H103.139V156.19C103.139 156.977 103.302 157.523 103.629 157.83C103.955 158.137 104.439 158.29 105.079 158.29C105.385 158.29 105.659 158.277 105.899 158.25C106.145 158.223 106.399 158.19 106.659 158.15V159.9C106.392 159.967 106.092 160.02 105.759 160.06C105.425 160.107 105.099 160.13 104.779 160.13ZM112.986 160.24C112.026 160.24 111.183 160.02 110.456 159.58C109.736 159.14 109.173 158.527 108.766 157.74C108.366 156.953 108.166 156.043 108.166 155.01C108.166 153.977 108.366 153.067 108.766 152.28C109.173 151.487 109.736 150.87 110.456 150.43C111.183 149.983 112.026 149.76 112.986 149.76H113.206C114.079 149.76 114.846 149.977 115.506 150.41C116.173 150.837 116.693 151.457 117.066 152.27C117.439 153.077 117.626 154.05 117.626 155.19V155.8H110.236C110.356 156.62 110.663 157.267 111.156 157.74C111.656 158.207 112.306 158.44 113.106 158.44H113.306C113.786 158.44 114.246 158.343 114.686 158.15C115.126 157.95 115.496 157.683 115.796 157.35L117.026 158.65C116.573 159.137 116.013 159.523 115.346 159.81C114.686 160.097 113.973 160.24 113.206 160.24H112.986ZM112.926 151.56C112.213 151.56 111.616 151.797 111.136 152.27C110.663 152.737 110.363 153.377 110.236 154.19H115.616C115.556 153.45 115.313 152.827 114.886 152.32C114.466 151.813 113.879 151.56 113.126 151.56H112.926ZM119.966 160V150H121.966V151.52C122.633 150.347 123.549 149.76 124.716 149.76C125.036 149.76 125.326 149.787 125.586 149.84V151.86C125.426 151.84 125.253 151.823 125.066 151.81C124.886 151.797 124.709 151.79 124.536 151.79C123.876 151.79 123.336 151.98 122.916 152.36C122.496 152.74 122.179 153.26 121.966 153.92V160H119.966Z" fill="#2C749E"/>
<path d="M21 204C21 190.193 32.1929 179 46 179H108V229H46C32.1929 229 21 217.807 21 204V204Z" fill="white"/>
<path d="M47.0641 212.22C46.1175 212.22 45.2841 212.01 44.5641 211.59C43.8441 211.163 43.2808 210.563 42.8741 209.79C42.4741 209.01 42.2741 208.09 42.2741 207.03C42.2741 205.97 42.4741 205.05 42.8741 204.27C43.2741 203.49 43.8341 202.89 44.5541 202.47C45.2741 202.043 46.1108 201.83 47.0641 201.83H47.2641C48.0375 201.83 48.7541 202.02 49.4141 202.4C50.0741 202.78 50.6108 203.297 51.0241 203.95L49.8141 204.82C49.5075 204.347 49.1375 203.977 48.7041 203.71C48.2708 203.437 47.7775 203.3 47.2241 203.3H47.0341C46.0741 203.3 45.3141 203.64 44.7541 204.32C44.1941 204.993 43.9141 205.897 43.9141 207.03C43.9141 208.157 44.1941 209.06 44.7541 209.74C45.3141 210.413 46.0741 210.75 47.0341 210.75H47.2241C47.7841 210.75 48.2841 210.63 48.7241 210.39C49.1708 210.15 49.5541 209.827 49.8741 209.42L51.0241 210.36C50.5975 210.94 50.0575 211.397 49.4041 211.73C48.7508 212.057 48.0375 212.22 47.2641 212.22H47.0641ZM57.7396 212.22C56.7463 212.22 55.8863 211.997 55.1596 211.55C54.4329 211.103 53.8696 210.49 53.4696 209.71C53.0763 208.93 52.8796 208.037 52.8796 207.03C52.8796 206.017 53.0763 205.12 53.4696 204.34C53.8696 203.56 54.4329 202.947 55.1596 202.5C55.8863 202.053 56.7463 201.83 57.7396 201.83H57.9396C58.9329 201.83 59.7929 202.053 60.5196 202.5C61.2463 202.947 61.8063 203.56 62.1996 204.34C62.5996 205.12 62.7996 206.017 62.7996 207.03C62.7996 208.037 62.5996 208.93 62.1996 209.71C61.8063 210.49 61.2463 211.103 60.5196 211.55C59.7929 211.997 58.9329 212.22 57.9396 212.22H57.7396ZM57.7496 210.76H57.9296C58.9229 210.76 59.7096 210.42 60.2896 209.74C60.8696 209.06 61.1596 208.157 61.1596 207.03C61.1596 205.897 60.8696 204.993 60.2896 204.32C59.7096 203.64 58.9229 203.3 57.9296 203.3H57.7496C56.7563 203.3 55.9696 203.64 55.3896 204.32C54.8096 204.993 54.5196 205.897 54.5196 207.03C54.5196 208.157 54.8096 209.06 55.3896 209.74C55.9696 210.42 56.7563 210.76 57.7496 210.76ZM68.8123 212.22C67.6589 212.22 66.7789 211.843 66.1723 211.09C65.5656 210.337 65.2623 209.267 65.2623 207.88V202.05H66.8423V207.65C66.8423 208.677 67.0323 209.453 67.4123 209.98C67.7989 210.5 68.3956 210.76 69.2023 210.76H69.3823C70.1223 210.76 70.7556 210.52 71.2823 210.04C71.8089 209.553 72.1956 208.947 72.4423 208.22V202.05H74.0223V212H72.4423V210.11C72.0756 210.763 71.6023 211.28 71.0223 211.66C70.4423 212.033 69.7723 212.22 69.0123 212.22H68.8123ZM77.2191 212V202.05H78.7991V203.94C79.1658 203.287 79.6391 202.773 80.2191 202.4C80.7991 202.02 81.4691 201.83 82.2291 201.83H82.4291C83.5558 201.83 84.4291 202.207 85.0491 202.96C85.6691 203.707 85.9791 204.777 85.9791 206.17V212H84.3991V206.4C84.3991 205.373 84.2091 204.6 83.8291 204.08C83.4491 203.56 82.8525 203.3 82.0391 203.3H81.8491C81.1091 203.3 80.4758 203.54 79.9491 204.02C79.4291 204.5 79.0458 205.103 78.7991 205.83V212H77.2191ZM93.316 212.12C92.2093 212.12 91.356 211.843 90.756 211.29C90.156 210.737 89.856 209.857 89.856 208.65V203.42H87.896V202.05H89.856V199.02H91.436V202.05H94.956V203.42H91.436V208.43C91.436 209.263 91.616 209.847 91.976 210.18C92.3427 210.507 92.8627 210.67 93.536 210.67C93.8293 210.67 94.096 210.657 94.336 210.63C94.576 210.597 94.826 210.553 95.086 210.5V211.89C94.8127 211.957 94.5227 212.01 94.216 212.05C93.9093 212.097 93.6093 212.12 93.316 212.12Z" fill="#606BD6"/>
<path d="M21 204C21 190.193 32.1929 179 46 179H108V229H46C32.1929 229 21 217.807 21 204V204Z" stroke="#606BD6" stroke-linejoin="bevel"/>
<path d="M108 179H129C142.807 179 154 190.193 154 204V204C154 217.807 142.807 229 129 229H108V179Z" fill="white"/>
<path d="M126.872 212.22C125.745 212.22 124.779 211.93 123.972 211.35C123.165 210.77 122.545 209.94 122.112 208.86C121.685 207.78 121.472 206.493 121.472 205C121.472 203.507 121.685 202.22 122.112 201.14C122.545 200.06 123.165 199.23 123.972 198.65C124.779 198.07 125.745 197.78 126.872 197.78H127.122C128.249 197.78 129.212 198.07 130.012 198.65C130.819 199.23 131.435 200.06 131.862 201.14C132.295 202.22 132.512 203.507 132.512 205C132.512 206.493 132.295 207.78 131.862 208.86C131.435 209.94 130.819 210.77 130.012 211.35C129.212 211.93 128.249 212.22 127.122 212.22H126.872ZM126.882 210.69H127.112C128.272 210.69 129.175 210.213 129.822 209.26C130.475 208.3 130.802 206.88 130.802 205C130.802 203.12 130.475 201.703 129.822 200.75C129.175 199.79 128.272 199.31 127.112 199.31H126.882C125.722 199.31 124.815 199.79 124.162 200.75C123.509 201.703 123.182 203.12 123.182 205C123.182 206.88 123.509 208.3 124.162 209.26C124.815 210.213 125.722 210.69 126.882 210.69Z" fill="#606BD6"/>
<path d="M108 179H129C142.807 179 154 190.193 154 204V204C154 217.807 142.807 229 129 229H108V179Z" stroke="#606BD6" stroke-linejoin="bevel"/>
<rect x="248" y="118" width="173" height="133" rx="6" fill="white" stroke="white" stroke-linejoin="bevel"/>
<path fill-rule="evenodd" clip-rule="evenodd" d="M248 245V247C248 250.314 250.686 253 254 253H415C418.314 253 421 250.314 421 247V245C421 248.314 418.314 251 415 251H254C250.686 251 248 248.314 248 245Z" fill="white"/>
<path d="M303.575 160.24C302.255 160.24 301.102 159.95 300.115 159.37C299.129 158.783 298.362 157.957 297.815 156.89C297.275 155.823 297.005 154.567 297.005 153.12C297.005 151.667 297.275 150.39 297.815 149.29C298.362 148.183 299.129 147.32 300.115 146.7C301.102 146.073 302.255 145.76 303.575 145.76H303.875C305.175 145.76 306.285 146.06 307.205 146.66C308.132 147.253 308.862 148.05 309.395 149.05L307.605 150.09C307.232 149.377 306.729 148.807 306.095 148.38C305.469 147.953 304.719 147.74 303.845 147.74H303.565C302.739 147.74 301.995 147.95 301.335 148.37C300.682 148.79 300.162 149.397 299.775 150.19C299.395 150.983 299.205 151.943 299.205 153.07C299.205 154.197 299.395 155.147 299.775 155.92C300.162 156.687 300.682 157.27 301.335 157.67C301.995 158.063 302.739 158.26 303.565 158.26H303.845C304.725 158.26 305.472 158.067 306.085 157.68C306.699 157.287 307.199 156.747 307.585 156.06L309.365 157.12C308.819 158.073 308.089 158.833 307.175 159.4C306.262 159.96 305.162 160.24 303.875 160.24H303.575ZM316.015 160.24C315.002 160.24 314.119 160.017 313.365 159.57C312.619 159.117 312.042 158.497 311.635 157.71C311.229 156.917 311.025 156.013 311.025 155C311.025 153.98 311.229 153.077 311.635 152.29C312.042 151.503 312.619 150.887 313.365 150.44C314.119 149.987 315.002 149.76 316.015 149.76H316.235C317.255 149.76 318.139 149.987 318.885 150.44C319.632 150.887 320.209 151.503 320.615 152.29C321.022 153.077 321.225 153.98 321.225 155C321.225 156.013 321.022 156.917 320.615 157.71C320.209 158.497 319.632 159.117 318.885 159.57C318.139 160.017 317.255 160.24 316.235 160.24H316.015ZM316.025 158.38H316.225C317.139 158.38 317.855 158.073 318.375 157.46C318.895 156.847 319.155 156.027 319.155 155C319.155 153.967 318.895 153.147 318.375 152.54C317.855 151.927 317.139 151.62 316.225 151.62H316.025C315.119 151.62 314.402 151.927 313.875 152.54C313.355 153.147 313.095 153.967 313.095 155C313.095 156.027 313.355 156.847 313.875 157.46C314.402 158.073 315.119 158.38 316.025 158.38ZM326.987 160.24C325.833 160.24 324.953 159.85 324.347 159.07C323.74 158.29 323.437 157.193 323.437 155.78V150H325.437V155.54C325.437 157.433 326.123 158.38 327.497 158.38H327.697C328.377 158.38 328.953 158.17 329.427 157.75C329.907 157.33 330.263 156.8 330.497 156.16V150H332.497V160H330.497V158.33C330.13 158.923 329.67 159.39 329.117 159.73C328.57 160.07 327.933 160.24 327.207 160.24H326.987ZM335.443 160V150H337.443V151.67C337.809 151.077 338.266 150.61 338.813 150.27C339.366 149.93 340.006 149.76 340.733 149.76H340.953C342.059 149.76 342.926 150.15 343.553 150.93C344.186 151.71 344.503 152.807 344.503 154.22V160H342.503V154.46C342.503 152.567 341.816 151.62 340.443 151.62H340.243C339.563 151.62 338.983 151.83 338.503 152.25C338.029 152.67 337.676 153.2 337.443 153.84V160H335.443ZM351.779 160.13C350.592 160.13 349.689 159.83 349.069 159.23C348.449 158.63 348.139 157.707 348.139 156.46V151.74H346.179V150H348.139V147.02H350.139V150H353.509V151.74H350.139V156.19C350.139 156.977 350.302 157.523 350.629 157.83C350.955 158.137 351.439 158.29 352.079 158.29C352.385 158.29 352.659 158.277 352.899 158.25C353.145 158.223 353.399 158.19 353.659 158.15V159.9C353.392 159.967 353.092 160.02 352.759 160.06C352.425 160.107 352.099 160.13 351.779 160.13ZM359.986 160.24C359.026 160.24 358.183 160.02 357.456 159.58C356.736 159.14 356.173 158.527 355.766 157.74C355.366 156.953 355.166 156.043 355.166 155.01C355.166 153.977 355.366 153.067 355.766 152.28C356.173 151.487 356.736 150.87 357.456 150.43C358.183 149.983 359.026 149.76 359.986 149.76H360.206C361.079 149.76 361.846 149.977 362.506 150.41C363.173 150.837 363.693 151.457 364.066 152.27C364.439 153.077 364.626 154.05 364.626 155.19V155.8H357.236C357.356 156.62 357.663 157.267 358.156 157.74C358.656 158.207 359.306 158.44 360.106 158.44H360.306C360.786 158.44 361.246 158.343 361.686 158.15C362.126 157.95 362.496 157.683 362.796 157.35L364.026 158.65C363.573 159.137 363.013 159.523 362.346 159.81C361.686 160.097 360.973 160.24 360.206 160.24H359.986ZM359.926 151.56C359.213 151.56 358.616 151.797 358.136 152.27C357.663 152.737 357.363 153.377 357.236 154.19H362.616C362.556 153.45 362.313 152.827 361.886 152.32C361.466 151.813 360.879 151.56 360.126 151.56H359.926ZM366.966 160V150H368.966V151.52C369.633 150.347 370.549 149.76 371.716 149.76C372.036 149.76 372.326 149.787 372.586 149.84V151.86C372.426 151.84 372.253 151.823 372.066 151.81C371.886 151.797 371.709 151.79 371.536 151.79C370.876 151.79 370.336 151.98 369.916 152.36C369.496 152.74 369.179 153.26 368.966 153.92V160H366.966Z" fill="white"/>
<path d="M268 204C268 190.193 279.193 179 293 179H355V229H293C279.193 229 268 217.807 268 204V204Z" fill="white"/>
<path d="M294.064 212.22C293.117 212.22 292.284 212.01 291.564 211.59C290.844 211.163 290.281 210.563 289.874 209.79C289.474 209.01 289.274 208.09 289.274 207.03C289.274 205.97 289.474 205.05 289.874 204.27C290.274 203.49 290.834 202.89 291.554 202.47C292.274 202.043 293.111 201.83 294.064 201.83H294.264C295.037 201.83 295.754 202.02 296.414 202.4C297.074 202.78 297.611 203.297 298.024 203.95L296.814 204.82C296.507 204.347 296.137 203.977 295.704 203.71C295.271 203.437 294.777 203.3 294.224 203.3H294.034C293.074 203.3 292.314 203.64 291.754 204.32C291.194 204.993 290.914 205.897 290.914 207.03C290.914 208.157 291.194 209.06 291.754 209.74C292.314 210.413 293.074 210.75 294.034 210.75H294.224C294.784 210.75 295.284 210.63 295.724 210.39C296.171 210.15 296.554 209.827 296.874 209.42L298.024 210.36C297.597 210.94 297.057 211.397 296.404 211.73C295.751 212.057 295.037 212.22 294.264 212.22H294.064ZM304.74 212.22C303.746 212.22 302.886 211.997 302.16 211.55C301.433 211.103 300.87 210.49 300.47 209.71C300.076 208.93 299.88 208.037 299.88 207.03C299.88 206.017 300.076 205.12 300.47 204.34C300.87 203.56 301.433 202.947 302.16 202.5C302.886 202.053 303.746 201.83 304.74 201.83H304.94C305.933 201.83 306.793 202.053 307.52 202.5C308.246 202.947 308.806 203.56 309.2 204.34C309.6 205.12 309.8 206.017 309.8 207.03C309.8 208.037 309.6 208.93 309.2 209.71C308.806 210.49 308.246 211.103 307.52 211.55C306.793 211.997 305.933 212.22 304.94 212.22H304.74ZM304.75 210.76H304.93C305.923 210.76 306.71 210.42 307.29 209.74C307.87 209.06 308.16 208.157 308.16 207.03C308.16 205.897 307.87 204.993 307.29 204.32C306.71 203.64 305.923 203.3 304.93 203.3H304.75C303.756 203.3 302.97 203.64 302.39 204.32C301.81 204.993 301.52 205.897 301.52 207.03C301.52 208.157 301.81 209.06 302.39 209.74C302.97 210.42 303.756 210.76 304.75 210.76ZM315.812 212.22C314.659 212.22 313.779 211.843 313.172 211.09C312.566 210.337 312.262 209.267 312.262 207.88V202.05H313.842V207.65C313.842 208.677 314.032 209.453 314.412 209.98C314.799 210.5 315.396 210.76 316.202 210.76H316.382C317.122 210.76 317.756 210.52 318.282 210.04C318.809 209.553 319.196 208.947 319.442 208.22V202.05H321.022V212H319.442V210.11C319.076 210.763 318.602 211.28 318.022 211.66C317.442 212.033 316.772 212.22 316.012 212.22H315.812ZM324.219 212V202.05H325.799V203.94C326.166 203.287 326.639 202.773 327.219 202.4C327.799 202.02 328.469 201.83 329.229 201.83H329.429C330.556 201.83 331.429 202.207 332.049 202.96C332.669 203.707 332.979 204.777 332.979 206.17V212H331.399V206.4C331.399 205.373 331.209 204.6 330.829 204.08C330.449 203.56 329.852 203.3 329.039 203.3H328.849C328.109 203.3 327.476 203.54 326.949 204.02C326.429 204.5 326.046 205.103 325.799 205.83V212H324.219ZM340.316 212.12C339.209 212.12 338.356 211.843 337.756 211.29C337.156 210.737 336.856 209.857 336.856 208.65V203.42H334.896V202.05H336.856V199.02H338.436V202.05H341.956V203.42H338.436V208.43C338.436 209.263 338.616 209.847 338.976 210.18C339.343 210.507 339.863 210.67 340.536 210.67C340.829 210.67 341.096 210.657 341.336 210.63C341.576 210.597 341.826 210.553 342.086 210.5V211.89C341.813 211.957 341.523 212.01 341.216 212.05C340.909 212.097 340.609 212.12 340.316 212.12Z" fill="white"/>
<path d="M268 204C268 190.193 279.193 179 293 179H355V229H293C279.193 229 268 217.807 268 204V204Z" stroke="white" stroke-linejoin="bevel"/>
<path d="M355 179H376C389.807 179 401 190.193 401 204V204C401 217.807 389.807 229 376 229H355V179Z" fill="white"/>
<path d="M373.872 212.22C372.745 212.22 371.779 211.93 370.972 211.35C370.165 210.77 369.545 209.94 369.112 208.86C368.685 207.78 368.472 206.493 368.472 205C368.472 203.507 368.685 202.22 369.112 201.14C369.545 200.06 370.165 199.23 370.972 198.65C371.779 198.07 372.745 197.78 373.872 197.78H374.122C375.249 197.78 376.212 198.07 377.012 198.65C377.819 199.23 378.435 200.06 378.862 201.14C379.295 202.22 379.512 203.507 379.512 205C379.512 206.493 379.295 207.78 378.862 208.86C378.435 209.94 377.819 210.77 377.012 211.35C376.212 211.93 375.249 212.22 374.122 212.22H373.872ZM373.882 210.69H374.112C375.272 210.69 376.175 210.213 376.822 209.26C377.475 208.3 377.802 206.88 377.802 205C377.802 203.12 377.475 201.703 376.822 200.75C376.175 199.79 375.272 199.31 374.112 199.31H373.882C372.722 199.31 371.815 199.79 371.162 200.75C370.509 201.703 370.182 203.12 370.182 205C370.182 206.88 370.509 208.3 371.162 209.26C371.815 210.213 372.722 210.69 373.882 210.69Z" fill="white"/>
<path d="M355 179H376C389.807 179 401 190.193 401 204V204C401 217.807 389.807 229 376 229H355V179Z" stroke="white" stroke-linejoin="bevel"/>
<path d="M288.207 156.21L300.827 165.63C300.992 165.754 301.181 165.852 301.317 166.008C301.398 166.099 301.458 166.208 301.494 166.327C301.56 166.547 301.537 166.786 301.428 166.991C301.32 167.196 301.136 167.35 300.916 167.419C300.798 167.457 300.674 167.468 300.553 167.453C300.348 167.428 300.16 167.327 299.965 167.26L285.075 162.133C284.957 162.092 284.85 162.026 284.76 161.939C284.671 161.851 284.601 161.745 284.557 161.628C284.512 161.51 284.494 161.384 284.503 161.258C284.512 161.132 284.547 161.009 284.608 160.898L286.924 156.519C286.981 156.406 287.063 156.308 287.162 156.229C287.261 156.151 287.376 156.095 287.498 156.066C287.62 156.037 287.747 156.034 287.869 156.059C287.992 156.084 288.107 156.135 288.207 156.21Z" fill="#FABD62"/>
<path d="M318.65 138.854L321.453 148.834C321.509 149.033 321.608 149.23 321.584 149.436C321.578 149.482 321.567 149.527 321.55 149.572C321.496 149.715 321.387 149.831 321.246 149.895C321.106 149.959 320.947 149.965 320.803 149.913C320.759 149.897 320.717 149.875 320.678 149.849C320.507 149.734 320.423 149.529 320.309 149.357L314.598 140.706C314.552 140.637 314.523 140.558 314.511 140.476C314.499 140.394 314.506 140.31 314.53 140.23C314.554 140.15 314.595 140.076 314.651 140.013C314.707 139.95 314.776 139.9 314.853 139.866L317.848 138.497C317.924 138.461 318.007 138.442 318.091 138.441C318.175 138.44 318.258 138.457 318.334 138.491C318.411 138.525 318.478 138.575 318.533 138.638C318.587 138.701 318.627 138.775 318.65 138.854Z" fill="#FABD62"/>
<path d="M297.189 230.004L310.265 211.602C310.385 211.434 310.529 211.282 310.631 211.102C310.738 210.913 310.794 210.696 310.789 210.474C310.783 210.146 310.646 209.832 310.41 209.602C310.173 209.371 309.856 209.243 309.529 209.245C309.306 209.246 309.091 209.307 308.904 209.419C308.727 209.526 308.579 209.674 308.414 209.798L290.351 223.338C290.209 223.445 290.092 223.582 290.009 223.74C289.926 223.897 289.878 224.071 289.869 224.25C289.86 224.429 289.891 224.608 289.958 224.775C290.025 224.942 290.127 225.093 290.258 225.218L295.312 230.145C295.44 230.273 295.594 230.371 295.763 230.434C295.931 230.497 296.111 230.522 296.29 230.509C296.468 230.495 296.641 230.443 296.796 230.356C296.952 230.269 297.086 230.149 297.189 230.004Z" fill="#FABD62"/>
<path d="M274.373 182.359L296.232 184.609C296.437 184.63 296.647 184.622 296.849 184.665C297.054 184.709 297.245 184.806 297.403 184.951C297.639 185.166 297.781 185.467 297.797 185.789C297.814 186.11 297.705 186.424 297.493 186.663C297.351 186.823 297.17 186.94 296.972 187.005C296.775 187.069 296.566 187.083 296.364 187.126L274.859 191.645C274.69 191.68 274.514 191.678 274.346 191.637C274.177 191.597 274.019 191.52 273.882 191.412C273.746 191.303 273.634 191.166 273.555 191.01C273.475 190.853 273.431 190.681 273.423 190.506L273.064 183.641C273.053 183.466 273.08 183.29 273.142 183.126C273.205 182.963 273.301 182.814 273.426 182.692C273.55 182.57 273.7 182.477 273.863 182.42C274.027 182.362 274.201 182.341 274.373 182.359Z" fill="#FABD62"/>
<path d="M377.996 150.92L361.84 163.165C361.593 163.352 361.306 163.5 361.117 163.746C361.035 163.854 360.972 163.977 360.933 164.11C360.85 164.395 360.882 164.703 361.024 164.967C361.166 165.23 361.405 165.427 361.689 165.515C361.822 165.556 361.959 165.571 362.094 165.562C362.403 165.54 362.685 165.382 362.977 165.279L382.097 158.54C382.249 158.486 382.387 158.399 382.502 158.286C382.617 158.172 382.705 158.035 382.761 157.883C382.818 157.73 382.84 157.567 382.828 157.405C382.815 157.242 382.768 157.084 382.689 156.94L379.657 151.307C379.581 151.162 379.475 151.036 379.346 150.935C379.217 150.835 379.069 150.764 378.911 150.728C378.753 150.691 378.589 150.689 378.431 150.722C378.273 150.755 378.125 150.823 377.996 150.92Z" fill="#FABD62"/>
<path d="M340.43 130.075L338.192 147.758C338.164 147.974 338.1 148.188 338.115 148.405C338.125 148.551 338.169 148.696 338.246 148.828C338.381 149.058 338.606 149.232 338.87 149.31C339.134 149.389 339.417 149.366 339.656 149.247C339.793 149.179 339.909 149.082 339.997 148.965C340.128 148.792 340.192 148.577 340.287 148.381L348.076 132.349C348.137 132.222 348.168 132.082 348.166 131.941C348.165 131.799 348.13 131.658 348.066 131.528C348.001 131.398 347.908 131.282 347.793 131.187C347.678 131.093 347.543 131.022 347.398 130.981L341.746 129.3C341.602 129.255 341.45 129.241 341.302 129.257C341.154 129.273 341.012 129.319 340.887 129.393C340.762 129.467 340.656 129.566 340.577 129.684C340.499 129.801 340.448 129.935 340.43 130.075Z" fill="#FABD62"/>
<path d="M328.331 244.023L331.235 224.617C331.265 224.421 331.266 224.219 331.319 224.028C331.368 223.855 331.458 223.696 331.584 223.566C331.779 223.366 332.043 223.253 332.319 223.253C332.595 223.253 332.86 223.366 333.055 223.566C333.181 223.696 333.271 223.855 333.319 224.028C333.372 224.219 333.374 224.421 333.403 224.617L336.308 244.023C336.33 244.176 336.32 244.333 336.278 244.482C336.236 244.631 336.163 244.768 336.064 244.885C335.965 245.002 335.843 245.096 335.705 245.159C335.568 245.223 335.418 245.255 335.268 245.253L329.371 245.253C329.22 245.255 329.071 245.223 328.933 245.159C328.796 245.096 328.673 245.002 328.575 244.885C328.476 244.768 328.403 244.631 328.361 244.482C328.319 244.333 328.308 244.176 328.331 244.023Z" fill="#FABD62"/>
<path d="M371.55 223.469L359.777 210.98C359.635 210.83 359.468 210.7 359.355 210.527C359.278 210.408 359.229 210.272 359.212 210.128C359.182 209.88 359.252 209.628 359.407 209.429C359.561 209.23 359.788 209.099 360.036 209.066C360.18 209.047 360.324 209.061 360.458 209.107C360.654 209.172 360.821 209.303 361.002 209.403L376.021 217.709C376.14 217.775 376.242 217.866 376.322 217.977C376.401 218.087 376.456 218.214 376.481 218.348C376.507 218.482 376.503 218.621 376.47 218.754C376.436 218.888 376.375 219.013 376.289 219.121L372.984 223.379C372.901 223.489 372.795 223.579 372.674 223.644C372.553 223.71 372.42 223.748 372.284 223.756C372.147 223.765 372.011 223.744 371.884 223.694C371.758 223.644 371.644 223.568 371.55 223.469Z" fill="#FABD62"/>
<path d="M391.641 196.166L365.896 194.606C365.433 194.578 364.955 194.458 364.509 194.587C364.375 194.625 364.247 194.684 364.128 194.761C363.81 194.968 363.586 195.294 363.504 195.668C363.422 196.041 363.49 196.431 363.692 196.752C363.768 196.872 363.86 196.979 363.966 197.07C364.317 197.374 364.801 197.464 365.234 197.632L389.278 206.964C389.471 207.038 389.677 207.069 389.882 207.054C390.088 207.04 390.288 206.98 390.469 206.879C390.65 206.779 390.808 206.639 390.931 206.471C391.054 206.303 391.14 206.11 391.182 205.905L392.929 197.923C392.975 197.719 392.978 197.508 392.937 197.304C392.895 197.1 392.81 196.908 392.687 196.74C392.565 196.573 392.408 196.435 392.227 196.336C392.046 196.237 391.846 196.179 391.641 196.166Z" fill="#FABD62"/>
<path d="M334 118V99.617C334 90.7805 326.837 83.617 318 83.617H227C218.163 83.617 211 76.4536 211 67.617V53" stroke="#96BFD8" stroke-width="2" stroke-dasharray="8 8"/>
<path d="M88 118V99.617C88 90.7805 95.1634 83.617 104 83.617H195C203.837 83.617 211 76.4536 211 67.617V53" stroke="#2C749E" stroke-width="2"/>
</svg>
