<svg width="421" height="253" viewBox="0 0 421 253" fill="none" xmlns="http://www.w3.org/2000/svg">
<rect x="169" y="1" width="83" height="50.2663" rx="6" fill="#343A46" stroke="white" stroke-linejoin="bevel"/>
<path fill-rule="evenodd" clip-rule="evenodd" d="M169 45.2666V47.0002C169 50.3139 171.686 53.0002 175 53.0002H246C249.314 53.0002 252 50.3139 252 47.0002V45.2666C252 48.5803 249.314 51.2666 246 51.2666H175C171.686 51.2666 169 48.5803 169 45.2666Z" fill="white"/>
<path d="M201.651 34.24C200.764 34.24 199.987 34.0167 199.321 33.57C198.661 33.1167 198.147 32.4967 197.781 31.71C197.414 30.9167 197.231 30.0133 197.231 29C197.231 27.9867 197.414 27.0867 197.781 26.3C198.147 25.5067 198.661 24.8867 199.321 24.44C199.987 23.9867 200.764 23.76 201.651 23.76H201.871C202.531 23.76 203.141 23.9033 203.701 24.19C204.267 24.47 204.734 24.89 205.101 25.45V19.4H207.101V34H205.101V32.43C204.754 33.03 204.301 33.4833 203.741 33.79C203.181 34.09 202.557 34.24 201.871 34.24H201.651ZM202.151 32.39H202.351C202.944 32.39 203.477 32.2133 203.951 31.86C204.431 31.5067 204.814 31.0233 205.101 30.41V27.59C204.814 26.9767 204.431 26.4933 203.951 26.14C203.477 25.7867 202.944 25.61 202.351 25.61H202.151C201.277 25.61 200.584 25.9033 200.071 26.49C199.557 27.0767 199.301 27.9133 199.301 29C199.301 30.0867 199.557 30.9233 200.071 31.51C200.584 32.0967 201.277 32.39 202.151 32.39ZM211.046 22.22C210.64 22.22 210.316 22.0967 210.076 21.85C209.843 21.5967 209.726 21.2767 209.726 20.89C209.726 20.4967 209.843 20.1767 210.076 19.93C210.316 19.6833 210.64 19.56 211.046 19.56C211.46 19.56 211.783 19.6833 212.016 19.93C212.25 20.1767 212.366 20.4967 212.366 20.89C212.366 21.2767 212.25 21.5967 212.016 21.85C211.783 22.0967 211.46 22.22 211.046 22.22ZM210.046 34V24H212.046V34H210.046ZM217.878 34C217.158 32.38 216.471 30.73 215.818 29.05C215.171 27.3633 214.571 25.68 214.018 24H216.278C216.684 25.38 217.128 26.7633 217.608 28.15C218.094 29.5367 218.608 30.91 219.148 32.27C219.688 30.91 220.198 29.5367 220.678 28.15C221.164 26.7633 221.611 25.38 222.018 24H224.198C223.644 25.68 223.041 27.3633 222.388 29.05C221.741 30.73 221.058 32.38 220.338 34H217.878Z" fill="white"/>
<rect x="1" y="118" width="173" height="133" rx="6" fill="#343A46" stroke="white" stroke-linejoin="bevel"/>
<path fill-rule="evenodd" clip-rule="evenodd" d="M1 245V247C1 250.314 3.68629 253 7 253H168C171.314 253 174 250.314 174 247V245C174 248.314 171.314 251 168 251H7C3.68629 251 1 248.314 1 245Z" fill="white"/>
<path d="M56.5753 160.24C55.2553 160.24 54.102 159.95 53.1153 159.37C52.1286 158.783 51.362 157.957 50.8153 156.89C50.2753 155.823 50.0053 154.567 50.0053 153.12C50.0053 151.667 50.2753 150.39 50.8153 149.29C51.362 148.183 52.1286 147.32 53.1153 146.7C54.102 146.073 55.2553 145.76 56.5753 145.76H56.8753C58.1753 145.76 59.2853 146.06 60.2053 146.66C61.132 147.253 61.862 148.05 62.3953 149.05L60.6053 150.09C60.232 149.377 59.7286 148.807 59.0953 148.38C58.4686 147.953 57.7186 147.74 56.8453 147.74H56.5653C55.7386 147.74 54.9953 147.95 54.3353 148.37C53.682 148.79 53.162 149.397 52.7753 150.19C52.3953 150.983 52.2053 151.943 52.2053 153.07C52.2053 154.197 52.3953 155.147 52.7753 155.92C53.162 156.687 53.682 157.27 54.3353 157.67C54.9953 158.063 55.7386 158.26 56.5653 158.26H56.8453C57.7253 158.26 58.472 158.067 59.0853 157.68C59.6986 157.287 60.1986 156.747 60.5853 156.06L62.3653 157.12C61.8186 158.073 61.0886 158.833 60.1753 159.4C59.262 159.96 58.162 160.24 56.8753 160.24H56.5753ZM69.0155 160.24C68.0021 160.24 67.1188 160.017 66.3655 159.57C65.6188 159.117 65.0421 158.497 64.6355 157.71C64.2288 156.917 64.0255 156.013 64.0255 155C64.0255 153.98 64.2288 153.077 64.6355 152.29C65.0421 151.503 65.6188 150.887 66.3655 150.44C67.1188 149.987 68.0021 149.76 69.0155 149.76H69.2355C70.2555 149.76 71.1388 149.987 71.8855 150.44C72.6321 150.887 73.2088 151.503 73.6155 152.29C74.0221 153.077 74.2255 153.98 74.2255 155C74.2255 156.013 74.0221 156.917 73.6155 157.71C73.2088 158.497 72.6321 159.117 71.8855 159.57C71.1388 160.017 70.2555 160.24 69.2355 160.24H69.0155ZM69.0255 158.38H69.2255C70.1388 158.38 70.8555 158.073 71.3755 157.46C71.8955 156.847 72.1555 156.027 72.1555 155C72.1555 153.967 71.8955 153.147 71.3755 152.54C70.8555 151.927 70.1388 151.62 69.2255 151.62H69.0255C68.1188 151.62 67.4021 151.927 66.8755 152.54C66.3555 153.147 66.0955 153.967 66.0955 155C66.0955 156.027 66.3555 156.847 66.8755 157.46C67.4021 158.073 68.1188 158.38 69.0255 158.38ZM79.9867 160.24C78.8334 160.24 77.9534 159.85 77.3467 159.07C76.7401 158.29 76.4367 157.193 76.4367 155.78V150H78.4367V155.54C78.4367 157.433 79.1234 158.38 80.4967 158.38H80.6967C81.3767 158.38 81.9534 158.17 82.4267 157.75C82.9067 157.33 83.2634 156.8 83.4967 156.16V150H85.4967V160H83.4967V158.33C83.1301 158.923 82.6701 159.39 82.1167 159.73C81.5701 160.07 80.9334 160.24 80.2067 160.24H79.9867ZM88.4427 160V150H90.4427V151.67C90.8093 151.077 91.266 150.61 91.8127 150.27C92.366 149.93 93.006 149.76 93.7327 149.76H93.9527C95.0593 149.76 95.926 150.15 96.5527 150.93C97.186 151.71 97.5027 152.807 97.5027 154.22V160H95.5027V154.46C95.5027 152.567 94.816 151.62 93.4427 151.62H93.2427C92.5627 151.62 91.9827 151.83 91.5027 152.25C91.0293 152.67 90.676 153.2 90.4427 153.84V160H88.4427ZM104.779 160.13C103.592 160.13 102.689 159.83 102.069 159.23C101.449 158.63 101.139 157.707 101.139 156.46V151.74H99.1786V150H101.139V147.02H103.139V150H106.509V151.74H103.139V156.19C103.139 156.977 103.302 157.523 103.629 157.83C103.955 158.137 104.439 158.29 105.079 158.29C105.385 158.29 105.659 158.277 105.899 158.25C106.145 158.223 106.399 158.19 106.659 158.15V159.9C106.392 159.967 106.092 160.02 105.759 160.06C105.425 160.107 105.099 160.13 104.779 160.13ZM112.986 160.24C112.026 160.24 111.183 160.02 110.456 159.58C109.736 159.14 109.173 158.527 108.766 157.74C108.366 156.953 108.166 156.043 108.166 155.01C108.166 153.977 108.366 153.067 108.766 152.28C109.173 151.487 109.736 150.87 110.456 150.43C111.183 149.983 112.026 149.76 112.986 149.76H113.206C114.079 149.76 114.846 149.977 115.506 150.41C116.173 150.837 116.693 151.457 117.066 152.27C117.439 153.077 117.626 154.05 117.626 155.19V155.8H110.236C110.356 156.62 110.663 157.267 111.156 157.74C111.656 158.207 112.306 158.44 113.106 158.44H113.306C113.786 158.44 114.246 158.343 114.686 158.15C115.126 157.95 115.496 157.683 115.796 157.35L117.026 158.65C116.573 159.137 116.013 159.523 115.346 159.81C114.686 160.097 113.973 160.24 113.206 160.24H112.986ZM112.926 151.56C112.213 151.56 111.616 151.797 111.136 152.27C110.663 152.737 110.363 153.377 110.236 154.19H115.616C115.556 153.45 115.313 152.827 114.886 152.32C114.466 151.813 113.879 151.56 113.126 151.56H112.926ZM119.966 160V150H121.966V151.52C122.633 150.347 123.549 149.76 124.716 149.76C125.036 149.76 125.326 149.787 125.586 149.84V151.86C125.426 151.84 125.253 151.823 125.066 151.81C124.886 151.797 124.709 151.79 124.536 151.79C123.876 151.79 123.336 151.98 122.916 152.36C122.496 152.74 122.179 153.26 121.966 153.92V160H119.966Z" fill="white"/>
<path d="M21 204C21 190.193 32.1929 179 46 179H108V229H46C32.1929 229 21 217.807 21 204V204Z" fill="#343A46"/>
<path d="M47.0641 212.22C46.1175 212.22 45.2841 212.01 44.5641 211.59C43.8441 211.163 43.2808 210.563 42.8741 209.79C42.4741 209.01 42.2741 208.09 42.2741 207.03C42.2741 205.97 42.4741 205.05 42.8741 204.27C43.2741 203.49 43.8341 202.89 44.5541 202.47C45.2741 202.043 46.1108 201.83 47.0641 201.83H47.2641C48.0375 201.83 48.7541 202.02 49.4141 202.4C50.0741 202.78 50.6108 203.297 51.0241 203.95L49.8141 204.82C49.5075 204.347 49.1375 203.977 48.7041 203.71C48.2708 203.437 47.7775 203.3 47.2241 203.3H47.0341C46.0741 203.3 45.3141 203.64 44.7541 204.32C44.1941 204.993 43.9141 205.897 43.9141 207.03C43.9141 208.157 44.1941 209.06 44.7541 209.74C45.3141 210.413 46.0741 210.75 47.0341 210.75H47.2241C47.7841 210.75 48.2841 210.63 48.7241 210.39C49.1708 210.15 49.5541 209.827 49.8741 209.42L51.0241 210.36C50.5975 210.94 50.0575 211.397 49.4041 211.73C48.7508 212.057 48.0375 212.22 47.2641 212.22H47.0641ZM57.7396 212.22C56.7463 212.22 55.8863 211.997 55.1596 211.55C54.4329 211.103 53.8696 210.49 53.4696 209.71C53.0763 208.93 52.8796 208.037 52.8796 207.03C52.8796 206.017 53.0763 205.12 53.4696 204.34C53.8696 203.56 54.4329 202.947 55.1596 202.5C55.8863 202.053 56.7463 201.83 57.7396 201.83H57.9396C58.9329 201.83 59.7929 202.053 60.5196 202.5C61.2463 202.947 61.8063 203.56 62.1996 204.34C62.5996 205.12 62.7996 206.017 62.7996 207.03C62.7996 208.037 62.5996 208.93 62.1996 209.71C61.8063 210.49 61.2463 211.103 60.5196 211.55C59.7929 211.997 58.9329 212.22 57.9396 212.22H57.7396ZM57.7496 210.76H57.9296C58.9229 210.76 59.7096 210.42 60.2896 209.74C60.8696 209.06 61.1596 208.157 61.1596 207.03C61.1596 205.897 60.8696 204.993 60.2896 204.32C59.7096 203.64 58.9229 203.3 57.9296 203.3H57.7496C56.7563 203.3 55.9696 203.64 55.3896 204.32C54.8096 204.993 54.5196 205.897 54.5196 207.03C54.5196 208.157 54.8096 209.06 55.3896 209.74C55.9696 210.42 56.7563 210.76 57.7496 210.76ZM68.8123 212.22C67.6589 212.22 66.7789 211.843 66.1723 211.09C65.5656 210.337 65.2623 209.267 65.2623 207.88V202.05H66.8423V207.65C66.8423 208.677 67.0323 209.453 67.4123 209.98C67.7989 210.5 68.3956 210.76 69.2023 210.76H69.3823C70.1223 210.76 70.7556 210.52 71.2823 210.04C71.8089 209.553 72.1956 208.947 72.4423 208.22V202.05H74.0223V212H72.4423V210.11C72.0756 210.763 71.6023 211.28 71.0223 211.66C70.4423 212.033 69.7723 212.22 69.0123 212.22H68.8123ZM77.2191 212V202.05H78.7991V203.94C79.1658 203.287 79.6391 202.773 80.2191 202.4C80.7991 202.02 81.4691 201.83 82.2291 201.83H82.4291C83.5558 201.83 84.4291 202.207 85.0491 202.96C85.6691 203.707 85.9791 204.777 85.9791 206.17V212H84.3991V206.4C84.3991 205.373 84.2091 204.6 83.8291 204.08C83.4491 203.56 82.8525 203.3 82.0391 203.3H81.8491C81.1091 203.3 80.4758 203.54 79.9491 204.02C79.4291 204.5 79.0458 205.103 78.7991 205.83V212H77.2191ZM93.316 212.12C92.2093 212.12 91.356 211.843 90.756 211.29C90.156 210.737 89.856 209.857 89.856 208.65V203.42H87.896V202.05H89.856V199.02H91.436V202.05H94.956V203.42H91.436V208.43C91.436 209.263 91.616 209.847 91.976 210.18C92.3427 210.507 92.8627 210.67 93.536 210.67C93.8293 210.67 94.096 210.657 94.336 210.63C94.576 210.597 94.826 210.553 95.086 210.5V211.89C94.8127 211.957 94.5227 212.01 94.216 212.05C93.9093 212.097 93.6093 212.12 93.316 212.12Z" fill="#8891EC"/>
<path d="M21 204C21 190.193 32.1929 179 46 179H108V229H46C32.1929 229 21 217.807 21 204V204Z" stroke="#8891EC" stroke-linejoin="bevel"/>
<path d="M108 179H129C142.807 179 154 190.193 154 204V204C154 217.807 142.807 229 129 229H108V179Z" fill="#343A46"/>
<path d="M126.872 212.22C125.745 212.22 124.779 211.93 123.972 211.35C123.165 210.77 122.545 209.94 122.112 208.86C121.685 207.78 121.472 206.493 121.472 205C121.472 203.507 121.685 202.22 122.112 201.14C122.545 200.06 123.165 199.23 123.972 198.65C124.779 198.07 125.745 197.78 126.872 197.78H127.122C128.249 197.78 129.212 198.07 130.012 198.65C130.819 199.23 131.435 200.06 131.862 201.14C132.295 202.22 132.512 203.507 132.512 205C132.512 206.493 132.295 207.78 131.862 208.86C131.435 209.94 130.819 210.77 130.012 211.35C129.212 211.93 128.249 212.22 127.122 212.22H126.872ZM126.882 210.69H127.112C128.272 210.69 129.175 210.213 129.822 209.26C130.475 208.3 130.802 206.88 130.802 205C130.802 203.12 130.475 201.703 129.822 200.75C129.175 199.79 128.272 199.31 127.112 199.31H126.882C125.722 199.31 124.815 199.79 124.162 200.75C123.509 201.703 123.182 203.12 123.182 205C123.182 206.88 123.509 208.3 124.162 209.26C124.815 210.213 125.722 210.69 126.882 210.69Z" fill="#8891EC"/>
<path d="M108 179H129C142.807 179 154 190.193 154 204V204C154 217.807 142.807 229 129 229H108V179Z" stroke="#8891EC" stroke-linejoin="bevel"/>
<path d="M288.207 156.21L300.827 165.63C300.992 165.754 301.181 165.852 301.317 166.008C301.398 166.099 301.458 166.208 301.494 166.327C301.56 166.547 301.537 166.786 301.428 166.991C301.32 167.196 301.136 167.35 300.916 167.419C300.798 167.457 300.674 167.468 300.553 167.453C300.348 167.428 300.16 167.327 299.965 167.26L285.075 162.133C284.957 162.092 284.849 162.026 284.76 161.939C284.671 161.851 284.601 161.745 284.557 161.628C284.512 161.51 284.494 161.384 284.503 161.258C284.512 161.132 284.547 161.009 284.608 160.898L286.923 156.519C286.981 156.406 287.063 156.308 287.162 156.229C287.261 156.151 287.376 156.095 287.498 156.066C287.62 156.037 287.747 156.034 287.869 156.059C287.992 156.084 288.107 156.135 288.207 156.21Z" fill="#FABD62"/>
<path d="M318.65 138.854L321.453 148.834C321.509 149.033 321.608 149.23 321.584 149.436C321.578 149.482 321.567 149.527 321.55 149.572C321.496 149.715 321.387 149.831 321.246 149.895C321.106 149.959 320.947 149.965 320.803 149.913C320.759 149.897 320.717 149.875 320.678 149.849C320.507 149.734 320.423 149.529 320.309 149.357L314.598 140.706C314.552 140.637 314.523 140.558 314.511 140.476C314.499 140.394 314.506 140.31 314.53 140.23C314.554 140.15 314.595 140.076 314.651 140.013C314.707 139.95 314.776 139.9 314.853 139.866L317.848 138.497C317.924 138.461 318.007 138.442 318.091 138.441C318.175 138.44 318.258 138.457 318.334 138.491C318.411 138.525 318.478 138.575 318.533 138.638C318.587 138.701 318.627 138.775 318.65 138.854Z" fill="#FABD62"/>
<path d="M297.189 230.004L310.265 211.602C310.385 211.434 310.529 211.282 310.631 211.102C310.738 210.913 310.794 210.696 310.789 210.474C310.783 210.146 310.646 209.832 310.41 209.602C310.173 209.371 309.856 209.243 309.529 209.245C309.306 209.246 309.091 209.307 308.904 209.419C308.727 209.526 308.579 209.674 308.413 209.798L290.351 223.338C290.209 223.445 290.092 223.582 290.009 223.74C289.926 223.897 289.878 224.071 289.869 224.25C289.86 224.429 289.89 224.608 289.958 224.775C290.025 224.942 290.127 225.093 290.258 225.218L295.312 230.145C295.44 230.273 295.594 230.371 295.763 230.434C295.931 230.497 296.111 230.522 296.29 230.509C296.468 230.495 296.641 230.443 296.796 230.356C296.952 230.269 297.086 230.149 297.189 230.004Z" fill="#FABD62"/>
<path d="M274.373 182.359L296.232 184.609C296.437 184.63 296.647 184.622 296.849 184.665C297.054 184.709 297.245 184.806 297.403 184.951C297.639 185.166 297.781 185.467 297.797 185.789C297.814 186.11 297.705 186.424 297.493 186.663C297.351 186.823 297.17 186.94 296.972 187.005C296.775 187.069 296.566 187.083 296.364 187.126L274.859 191.645C274.689 191.68 274.514 191.678 274.346 191.637C274.177 191.597 274.019 191.52 273.882 191.412C273.746 191.303 273.634 191.166 273.555 191.01C273.475 190.853 273.431 190.681 273.423 190.506L273.064 183.641C273.053 183.466 273.08 183.29 273.142 183.126C273.204 182.963 273.301 182.814 273.426 182.692C273.55 182.57 273.7 182.477 273.863 182.42C274.027 182.362 274.201 182.341 274.373 182.359Z" fill="#FABD62"/>
<path d="M377.996 150.92L361.84 163.165C361.593 163.352 361.306 163.5 361.117 163.746C361.035 163.854 360.972 163.977 360.933 164.11C360.85 164.395 360.882 164.703 361.024 164.967C361.166 165.23 361.405 165.427 361.689 165.515C361.822 165.556 361.959 165.571 362.094 165.562C362.403 165.54 362.685 165.382 362.977 165.279L382.097 158.54C382.249 158.486 382.387 158.399 382.502 158.286C382.617 158.172 382.705 158.035 382.761 157.883C382.818 157.73 382.84 157.567 382.828 157.405C382.815 157.242 382.768 157.084 382.688 156.94L379.657 151.307C379.581 151.162 379.475 151.036 379.346 150.935C379.217 150.835 379.069 150.764 378.911 150.728C378.753 150.691 378.589 150.689 378.431 150.722C378.273 150.755 378.125 150.823 377.996 150.92Z" fill="#FABD62"/>
<path d="M340.43 130.075L338.191 147.758C338.164 147.974 338.1 148.188 338.115 148.405C338.125 148.551 338.169 148.696 338.246 148.828C338.381 149.058 338.606 149.232 338.87 149.31C339.134 149.389 339.417 149.366 339.656 149.247C339.793 149.179 339.909 149.082 339.997 148.965C340.128 148.792 340.192 148.577 340.287 148.381L348.076 132.349C348.137 132.222 348.168 132.082 348.166 131.941C348.165 131.799 348.13 131.658 348.066 131.528C348.001 131.398 347.908 131.282 347.793 131.187C347.677 131.093 347.543 131.022 347.398 130.981L341.746 129.3C341.602 129.255 341.45 129.241 341.302 129.257C341.154 129.273 341.012 129.319 340.887 129.393C340.762 129.467 340.656 129.566 340.577 129.684C340.499 129.801 340.448 129.935 340.43 130.075Z" fill="#FABD62"/>
<path d="M328.331 244.023L331.235 224.617C331.265 224.421 331.266 224.219 331.319 224.028C331.368 223.855 331.458 223.696 331.584 223.566C331.779 223.366 332.043 223.253 332.319 223.253C332.595 223.253 332.86 223.366 333.055 223.566C333.181 223.696 333.271 223.855 333.319 224.028C333.372 224.219 333.374 224.421 333.403 224.617L336.308 244.023C336.33 244.176 336.32 244.333 336.278 244.482C336.236 244.631 336.163 244.768 336.064 244.885C335.965 245.002 335.843 245.096 335.705 245.159C335.568 245.223 335.418 245.255 335.268 245.253L329.371 245.253C329.22 245.255 329.071 245.223 328.933 245.159C328.796 245.096 328.673 245.002 328.575 244.885C328.476 244.768 328.403 244.631 328.361 244.482C328.319 244.333 328.308 244.176 328.331 244.023Z" fill="#FABD62"/>
<path d="M371.55 223.469L359.777 210.98C359.635 210.83 359.468 210.7 359.355 210.527C359.278 210.408 359.229 210.272 359.212 210.128C359.182 209.88 359.252 209.628 359.407 209.429C359.561 209.23 359.788 209.099 360.036 209.066C360.18 209.047 360.324 209.061 360.458 209.107C360.654 209.172 360.821 209.303 361.002 209.403L376.021 217.709C376.14 217.775 376.242 217.866 376.322 217.977C376.401 218.087 376.456 218.214 376.481 218.348C376.507 218.482 376.503 218.621 376.47 218.754C376.436 218.888 376.375 219.013 376.289 219.121L372.984 223.379C372.901 223.489 372.795 223.579 372.674 223.644C372.553 223.71 372.42 223.748 372.284 223.756C372.147 223.765 372.011 223.744 371.884 223.694C371.758 223.644 371.644 223.568 371.55 223.469Z" fill="#FABD62"/>
<path d="M391.641 196.166L365.896 194.606C365.432 194.578 364.955 194.458 364.509 194.587C364.375 194.625 364.247 194.684 364.128 194.761C363.81 194.968 363.585 195.294 363.504 195.668C363.422 196.041 363.49 196.431 363.692 196.752C363.768 196.872 363.86 196.979 363.966 197.07C364.317 197.374 364.801 197.464 365.234 197.632L389.278 206.964C389.471 207.038 389.677 207.069 389.882 207.054C390.088 207.04 390.288 206.98 390.469 206.879C390.65 206.779 390.808 206.639 390.931 206.471C391.054 206.303 391.14 206.11 391.182 205.905L392.928 197.923C392.975 197.719 392.978 197.508 392.937 197.304C392.895 197.1 392.81 196.908 392.687 196.74C392.565 196.573 392.408 196.435 392.227 196.336C392.046 196.237 391.846 196.179 391.641 196.166Z" fill="#FABD62"/>
<path d="M333 118V113.404H335V118H333ZM333 104.213V99.617H335V104.213H333ZM333 99.617C333 98.614 332.902 97.6348 332.714 96.6885L334.676 96.3004C334.889 97.3739 335 98.4829 335 99.617H333ZM330.474 91.2835C329.379 89.6473 327.97 88.2383 326.334 87.1429L327.446 85.481C329.3 86.7219 330.895 88.3174 332.136 90.1708L330.474 91.2835ZM320.929 84.9026C319.982 84.7153 319.003 84.617 318 84.617V82.617C319.134 82.617 320.243 82.7282 321.317 82.9406L320.929 84.9026ZM318 84.617H314.208V82.617H318V84.617ZM306.625 84.617H299.042V82.617H306.625V84.617ZM291.458 84.617H283.875V82.617H291.458V84.617ZM276.292 84.617H268.708V82.617H276.292V84.617ZM261.125 84.617H253.542V82.617H261.125V84.617ZM245.958 84.617H238.375V82.617H245.958V84.617ZM230.792 84.617H227V82.617H230.792V84.617ZM227 84.617C225.866 84.617 224.757 84.5058 223.683 84.2935L224.071 82.3315C225.018 82.5187 225.997 82.617 227 82.617V84.617ZM217.554 81.753C215.7 80.5122 214.105 78.9166 212.864 77.0632L214.526 75.9505C215.621 77.5867 217.03 78.9957 218.666 80.0911L217.554 81.753ZM210.324 70.9337C210.111 69.8602 210 68.7511 210 67.617H212C212 68.6201 212.098 69.5992 212.286 70.5455L210.324 70.9337ZM210 67.617V63.9628H212V67.617H210ZM210 56.6543V53H212V56.6543H210Z" fill="#343A46"/>
<path d="M88 118V99.617C88 90.7805 95.1634 83.617 104 83.617H195C203.837 83.617 211 76.4536 211 67.617V53" stroke="white" stroke-width="2"/>
</svg>
