<svg width="753" height="290" viewBox="0 0 753 290" fill="none" xmlns="http://www.w3.org/2000/svg">
<path d="M308.258 111.865C308.957 108.626 312.15 106.567 315.389 107.266L421.193 130.1C424.432 130.799 426.492 133.991 425.793 137.23L403.8 239.137C403.101 242.376 399.908 244.435 396.669 243.736L290.865 220.903C287.626 220.204 285.567 217.011 286.266 213.772L308.258 111.865Z" fill="#23252F"/>
<path d="M318.649 135.805L328.997 147.676C329.133 147.832 329.297 147.968 329.397 148.148C329.456 148.254 329.493 148.373 329.503 148.498C329.521 148.727 329.447 148.955 329.298 149.133C329.149 149.31 328.937 149.422 328.708 149.443C328.584 149.455 328.46 149.44 328.345 149.4C328.15 149.332 327.988 149.194 327.811 149.087L314.338 140.935C314.231 140.87 314.14 140.782 314.071 140.678C314.002 140.574 313.957 140.456 313.938 140.331C313.919 140.207 313.928 140.08 313.963 139.959C313.998 139.837 314.059 139.725 314.142 139.629L317.329 135.837C317.409 135.739 317.51 135.659 317.623 135.604C317.737 135.548 317.861 135.518 317.986 135.515C318.112 135.512 318.236 135.536 318.351 135.586C318.465 135.637 318.567 135.711 318.649 135.805Z" fill="#FABD62"/>
<path d="M352.068 125.263L352.703 135.609C352.715 135.815 352.771 136.029 352.704 136.225C352.689 136.269 352.668 136.311 352.642 136.351C352.559 136.479 352.427 136.57 352.277 136.603C352.127 136.636 351.969 136.608 351.84 136.527C351.8 136.502 351.763 136.472 351.731 136.438C351.588 136.289 351.549 136.071 351.474 135.879L347.717 126.218C347.687 126.141 347.674 126.058 347.68 125.975C347.686 125.892 347.71 125.811 347.75 125.738C347.791 125.665 347.847 125.602 347.915 125.552C347.982 125.502 348.06 125.468 348.143 125.451L351.359 124.744C351.441 124.725 351.526 124.724 351.609 124.741C351.691 124.758 351.769 124.792 351.836 124.841C351.903 124.891 351.959 124.954 351.999 125.027C352.039 125.099 352.062 125.18 352.068 125.263Z" fill="#FABD62"/>
<path d="M311.861 209.834L328.525 194.605C328.678 194.465 328.851 194.347 328.988 194.193C329.133 194.031 329.233 193.83 329.276 193.612C329.339 193.29 329.271 192.955 329.089 192.68C328.906 192.404 328.624 192.212 328.303 192.145C328.085 192.099 327.862 192.113 327.656 192.184C327.46 192.25 327.284 192.364 327.096 192.45L306.584 201.876C306.422 201.95 306.279 202.06 306.165 202.196C306.05 202.332 305.967 202.492 305.92 202.665C305.874 202.838 305.866 203.02 305.896 203.197C305.926 203.375 305.994 203.544 306.096 203.693L309.997 209.576C310.095 209.728 310.225 209.856 310.376 209.953C310.528 210.05 310.699 210.113 310.876 210.138C311.053 210.162 311.233 210.148 311.403 210.095C311.574 210.043 311.73 209.953 311.861 209.834Z" fill="#FABD62"/>
<path d="M299.61 158.447L320.502 165.258C320.699 165.322 320.906 165.358 321.094 165.443C321.284 165.529 321.451 165.665 321.575 165.839C321.76 166.1 321.835 166.424 321.784 166.741C321.732 167.059 321.559 167.343 321.301 167.532C321.129 167.658 320.928 167.735 320.72 167.756C320.514 167.778 320.307 167.747 320.1 167.746L298.126 167.627C297.953 167.626 297.782 167.586 297.626 167.511C297.469 167.436 297.331 167.328 297.22 167.193C297.11 167.058 297.029 166.901 296.985 166.731C296.941 166.562 296.933 166.384 296.963 166.211L298.06 159.425C298.086 159.251 298.149 159.085 298.245 158.938C298.34 158.791 298.466 158.667 298.614 158.574C298.761 158.481 298.927 158.421 299.099 158.4C299.271 158.378 299.445 158.394 299.61 158.447Z" fill="#FABD62"/>
<path d="M407.533 149.576L389.157 158.137C388.877 158.268 388.565 158.352 388.329 158.552C388.225 158.64 388.138 158.747 388.072 158.869C387.93 159.131 387.897 159.439 387.98 159.726C388.063 160.014 388.255 160.257 388.514 160.402C388.635 160.47 388.766 160.514 388.901 160.533C389.207 160.577 389.516 160.482 389.823 160.443L409.934 157.889C410.094 157.869 410.248 157.813 410.384 157.726C410.52 157.64 410.635 157.524 410.723 157.387C410.81 157.25 410.866 157.096 410.888 156.934C410.91 156.772 410.897 156.607 410.85 156.451L409.075 150.305C409.032 150.147 408.955 150.001 408.85 149.876C408.745 149.751 408.615 149.65 408.468 149.581C408.322 149.511 408.162 149.475 408.001 149.474C407.839 149.473 407.68 149.508 407.533 149.576Z" fill="#FABD62"/>
<path d="M375.21 121.276L369.292 138.088C369.219 138.294 369.111 138.49 369.08 138.705C369.059 138.85 369.072 139.001 369.12 139.146C369.203 139.4 369.386 139.617 369.627 139.749C369.869 139.882 370.15 139.919 370.409 139.853C370.557 139.815 370.691 139.745 370.802 139.65C370.967 139.507 371.074 139.311 371.208 139.14L382.204 125.111C382.291 125 382.35 124.871 382.379 124.732C382.407 124.593 382.403 124.448 382.367 124.307C382.332 124.166 382.265 124.033 382.172 123.916C382.08 123.799 381.963 123.702 381.83 123.631L376.66 120.796C376.528 120.722 376.383 120.675 376.235 120.66C376.087 120.644 375.939 120.66 375.801 120.706C375.663 120.751 375.539 120.826 375.437 120.924C375.335 121.023 375.258 121.143 375.21 121.276Z" fill="#FABD62"/>
<path d="M339.345 230.107L346.278 211.75C346.348 211.564 346.392 211.368 346.484 211.192C346.568 211.033 346.69 210.897 346.84 210.797C347.073 210.642 347.356 210.587 347.625 210.646C347.895 210.704 348.13 210.87 348.278 211.107C348.374 211.26 348.429 211.435 348.439 211.614C348.451 211.812 348.41 212.009 348.397 212.207L347.142 231.79C347.132 231.944 347.089 232.095 347.017 232.232C346.944 232.368 346.844 232.488 346.722 232.581C346.601 232.675 346.462 232.74 346.314 232.773C346.166 232.806 346.013 232.806 345.866 232.772L340.102 231.528C339.955 231.498 339.816 231.436 339.694 231.345C339.573 231.254 339.473 231.136 339.401 231.001C339.329 230.866 339.287 230.716 339.277 230.562C339.268 230.407 339.291 230.252 339.345 230.107Z" fill="#FABD62"/>
<path d="M385.928 219.133L377.054 204.442C376.947 204.265 376.811 204.103 376.738 203.91C376.687 203.777 376.668 203.634 376.681 203.49C376.705 203.24 376.826 203.009 377.02 202.847C377.213 202.685 377.461 202.605 377.711 202.625C377.855 202.637 377.993 202.681 378.115 202.754C378.292 202.86 378.428 203.022 378.584 203.158L391.513 214.446C391.615 214.535 391.696 214.646 391.751 214.771C391.805 214.896 391.832 215.031 391.828 215.168C391.825 215.304 391.792 215.439 391.731 215.562C391.671 215.686 391.584 215.795 391.477 215.882L387.349 219.347C387.244 219.437 387.122 219.503 386.99 219.542C386.858 219.58 386.719 219.589 386.584 219.569C386.449 219.548 386.32 219.499 386.207 219.424C386.094 219.348 385.998 219.249 385.928 219.133Z" fill="#FABD62"/>
<path d="M411.326 196.682L386.49 189.726C386.043 189.601 385.601 189.383 385.138 189.415C384.999 189.424 384.861 189.454 384.729 189.505C384.374 189.64 384.086 189.912 383.927 190.259C383.769 190.607 383.753 191.003 383.883 191.359C383.932 191.493 383.999 191.616 384.083 191.727C384.363 192.098 384.817 192.289 385.205 192.544L406.739 206.739C406.911 206.852 407.106 206.925 407.31 206.954C407.514 206.984 407.723 206.967 407.921 206.907C408.119 206.847 408.302 206.744 408.458 206.606C408.614 206.467 408.739 206.297 408.823 206.106L412.214 198.671C412.303 198.482 412.35 198.276 412.353 198.068C412.355 197.859 412.312 197.654 412.228 197.464C412.143 197.275 412.019 197.107 411.863 196.972C411.707 196.837 411.524 196.738 411.326 196.682Z" fill="#FABD62"/>
<path d="M354.914 53L354.914 56.5625L356.914 56.5625L356.914 53L354.914 53ZM354.914 63.6875L354.914 70.8125L356.914 70.8125L356.914 63.6875L354.914 63.6875ZM354.914 77.9375L354.914 85.0625L356.914 85.0625L356.914 77.9375L354.914 77.9375ZM354.914 92.1875L354.914 99.3125L356.914 99.3125L356.914 92.1875L354.914 92.1875ZM354.914 106.438L354.914 110L356.914 110L356.914 106.438L354.914 106.438Z" fill="#343A46"/>
<rect x="323.914" y="2" width="65" height="50.2663" rx="6" fill="#343A46" stroke="white" stroke-linejoin="bevel"/>
<path fill-rule="evenodd" clip-rule="evenodd" d="M323.914 46.2666V48.0002C323.914 51.3139 326.6 54.0002 329.914 54.0002H382.914C386.228 54.0002 388.914 51.3139 388.914 48.0002V46.2666C388.914 49.5803 386.228 52.2666 382.914 52.2666H329.914C326.6 52.2666 323.914 49.5803 323.914 46.2666Z" fill="white"/>
<path d="M347.565 35.24C346.678 35.24 345.901 35.0167 345.235 34.57C344.575 34.1167 344.061 33.4967 343.695 32.71C343.328 31.9167 343.145 31.0133 343.145 30C343.145 28.9867 343.328 28.0867 343.695 27.3C344.061 26.5067 344.575 25.8867 345.235 25.44C345.901 24.9867 346.678 24.76 347.565 24.76H347.785C348.445 24.76 349.055 24.9033 349.615 25.19C350.181 25.47 350.648 25.89 351.015 26.45V20.4H353.015V35H351.015V33.43C350.668 34.03 350.215 34.4833 349.655 34.79C349.095 35.09 348.471 35.24 347.785 35.24H347.565ZM348.065 33.39H348.265C348.858 33.39 349.391 33.2133 349.865 32.86C350.345 32.5067 350.728 32.0233 351.015 31.41V28.59C350.728 27.9767 350.345 27.4933 349.865 27.14C349.391 26.7867 348.858 26.61 348.265 26.61H348.065C347.191 26.61 346.498 26.9033 345.985 27.49C345.471 28.0767 345.215 28.9133 345.215 30C345.215 31.0867 345.471 31.9233 345.985 32.51C346.498 33.0967 347.191 33.39 348.065 33.39ZM356.96 23.22C356.554 23.22 356.23 23.0967 355.99 22.85C355.757 22.5967 355.64 22.2767 355.64 21.89C355.64 21.4967 355.757 21.1767 355.99 20.93C356.23 20.6833 356.554 20.56 356.96 20.56C357.374 20.56 357.697 20.6833 357.93 20.93C358.164 21.1767 358.28 21.4967 358.28 21.89C358.28 22.2767 358.164 22.5967 357.93 22.85C357.697 23.0967 357.374 23.22 356.96 23.22ZM355.96 35V25H357.96V35H355.96ZM363.792 35C363.072 33.38 362.385 31.73 361.732 30.05C361.085 28.3633 360.485 26.68 359.932 25H362.192C362.598 26.38 363.042 27.7633 363.522 29.15C364.008 30.5367 364.522 31.91 365.062 33.27C365.602 31.91 366.112 30.5367 366.592 29.15C367.078 27.7633 367.525 26.38 367.932 25H370.112C369.558 26.68 368.955 28.3633 368.302 30.05C367.655 31.73 366.972 33.38 366.252 35H363.792Z" fill="white"/>
<path d="M449 102L479 102" stroke="white" stroke-width="4" stroke-linecap="round" stroke-linejoin="round"/>
<path d="M472 115.4L484 102.2L472 89" stroke="white" stroke-width="4" stroke-linecap="round" stroke-linejoin="round"/>
<path d="M212 102L242 102" stroke="white" stroke-width="4" stroke-linecap="round" stroke-linejoin="round"/>
<path d="M235 115.4L247 102.2L235 89" stroke="white" stroke-width="4" stroke-linecap="round" stroke-linejoin="round"/>
<rect x="582" y="2" width="65" height="50.2663" rx="6" fill="#343A46" stroke="white" stroke-linejoin="bevel"/>
<path fill-rule="evenodd" clip-rule="evenodd" d="M582 46.2666V48.0002C582 51.3139 584.686 54.0002 588 54.0002H641C644.314 54.0002 647 51.3139 647 48.0002V46.2666C647 49.5803 644.314 52.2666 641 52.2666H588C584.686 52.2666 582 49.5803 582 46.2666Z" fill="white"/>
<path d="M605.651 35.24C604.764 35.24 603.987 35.0167 603.321 34.57C602.661 34.1167 602.147 33.4967 601.781 32.71C601.414 31.9167 601.231 31.0133 601.231 30C601.231 28.9867 601.414 28.0867 601.781 27.3C602.147 26.5067 602.661 25.8867 603.321 25.44C603.987 24.9867 604.764 24.76 605.651 24.76H605.871C606.531 24.76 607.141 24.9033 607.701 25.19C608.267 25.47 608.734 25.89 609.101 26.45V20.4H611.101V35H609.101V33.43C608.754 34.03 608.301 34.4833 607.741 34.79C607.181 35.09 606.557 35.24 605.871 35.24H605.651ZM606.151 33.39H606.351C606.944 33.39 607.477 33.2133 607.951 32.86C608.431 32.5067 608.814 32.0233 609.101 31.41V28.59C608.814 27.9767 608.431 27.4933 607.951 27.14C607.477 26.7867 606.944 26.61 606.351 26.61H606.151C605.277 26.61 604.584 26.9033 604.071 27.49C603.557 28.0767 603.301 28.9133 603.301 30C603.301 31.0867 603.557 31.9233 604.071 32.51C604.584 33.0967 605.277 33.39 606.151 33.39ZM615.046 23.22C614.64 23.22 614.316 23.0967 614.076 22.85C613.843 22.5967 613.726 22.2767 613.726 21.89C613.726 21.4967 613.843 21.1767 614.076 20.93C614.316 20.6833 614.64 20.56 615.046 20.56C615.46 20.56 615.783 20.6833 616.016 20.93C616.25 21.1767 616.366 21.4967 616.366 21.89C616.366 22.2767 616.25 22.5967 616.016 22.85C615.783 23.0967 615.46 23.22 615.046 23.22ZM614.046 35V25H616.046V35H614.046ZM621.878 35C621.158 33.38 620.471 31.73 619.818 30.05C619.171 28.3633 618.571 26.68 618.018 25H620.278C620.684 26.38 621.128 27.7633 621.608 29.15C622.094 30.5367 622.608 31.91 623.148 33.27C623.688 31.91 624.198 30.5367 624.678 29.15C625.164 27.7633 625.611 26.38 626.018 25H628.198C627.644 26.68 627.041 28.3633 626.388 30.05C625.741 31.73 625.058 33.38 624.338 35H621.878Z" fill="white"/>
<rect x="521.999" y="139" width="185" height="145" rx="13" fill="#343A46" stroke="#C76A15" stroke-width="4" stroke-linejoin="bevel"/>
<rect x="525.999" y="143" width="177" height="137" rx="9" fill="#343A46" stroke="#FABD62" stroke-width="4" stroke-linejoin="bevel"/>
<rect x="527.999" y="145" width="173" height="133" rx="6" fill="#343A46" stroke="#FABD62" stroke-linejoin="bevel"/>
<path d="M495.586 242.94L510.712 236.461C510.908 236.335 511.152 236.299 511.389 236.363C511.626 236.426 511.838 236.583 511.977 236.799C512.117 237.015 512.172 237.273 512.132 237.515C512.092 237.758 511.959 237.965 511.763 238.091L499.616 249.192C499.521 249.278 499.408 249.34 499.284 249.374C499.159 249.407 499.027 249.411 498.896 249.386C498.765 249.361 498.639 249.306 498.525 249.227C498.412 249.147 498.314 249.045 498.239 248.926L495.26 244.304C495.183 244.187 495.13 244.056 495.104 243.919C495.078 243.783 495.081 243.646 495.112 243.516C495.143 243.386 495.202 243.268 495.283 243.168C495.365 243.069 495.468 242.991 495.586 242.94Z" fill="#FABD62"/>
<path d="M495.586 179.309L510.712 185.788C510.908 185.915 511.152 185.95 511.389 185.887C511.626 185.824 511.838 185.667 511.977 185.45C512.117 185.234 512.172 184.977 512.132 184.734C512.092 184.492 511.959 184.285 511.763 184.158L499.616 173.057C499.521 172.971 499.408 172.909 499.284 172.876C499.159 172.842 499.027 172.838 498.896 172.863C498.765 172.889 498.639 172.943 498.525 173.023C498.412 173.102 498.314 173.205 498.239 173.324L495.26 177.945C495.183 178.063 495.13 178.194 495.104 178.33C495.078 178.466 495.081 178.604 495.112 178.734C495.143 178.863 495.202 178.982 495.283 179.081C495.365 179.181 495.468 179.258 495.586 179.309Z" fill="#FABD62"/>
<path d="M484.53 215.703L509.249 213.305C509.601 213.326 509.948 213.203 510.212 212.965C510.476 212.726 510.636 212.391 510.657 212.034C510.678 211.676 510.558 211.325 510.323 211.057C510.088 210.79 509.759 210.628 509.406 210.607L485.132 205.357C484.943 205.317 484.748 205.319 484.56 205.362C484.372 205.406 484.195 205.491 484.042 205.611C483.889 205.73 483.764 205.883 483.674 206.056C483.585 206.23 483.534 206.421 483.525 206.617L483.079 214.265C483.066 214.46 483.094 214.656 483.163 214.839C483.231 215.022 483.338 215.188 483.476 215.325C483.614 215.461 483.78 215.566 483.962 215.631C484.144 215.697 484.338 215.721 484.53 215.703Z" fill="#FABD62"/>
<path d="M733.413 242.942L718.287 236.463C718.091 236.337 717.847 236.301 717.61 236.364C717.372 236.428 717.161 236.585 717.021 236.801C716.882 237.017 716.826 237.275 716.867 237.517C716.907 237.76 717.04 237.967 717.236 238.093L729.383 249.194C729.478 249.28 729.591 249.342 729.715 249.376C729.839 249.409 729.972 249.413 730.103 249.388C730.233 249.363 730.36 249.308 730.473 249.229C730.587 249.149 730.684 249.047 730.759 248.928L733.738 244.306C733.816 244.189 733.869 244.058 733.895 243.921C733.92 243.785 733.917 243.648 733.887 243.518C733.856 243.388 733.797 243.269 733.715 243.17C733.634 243.071 733.53 242.993 733.413 242.942Z" fill="#FABD62"/>
<path d="M733.413 179.311L718.287 185.79C718.091 185.917 717.847 185.952 717.61 185.889C717.372 185.826 717.161 185.669 717.021 185.452C716.882 185.236 716.826 184.979 716.867 184.736C716.907 184.494 717.04 184.287 717.236 184.16L729.383 173.059C729.478 172.973 729.591 172.911 729.715 172.878C729.839 172.844 729.972 172.84 730.103 172.865C730.233 172.891 730.36 172.945 730.473 173.025C730.587 173.104 730.684 173.207 730.759 173.326L733.738 177.947C733.816 178.065 733.869 178.196 733.895 178.332C733.92 178.468 733.917 178.606 733.887 178.736C733.856 178.865 733.797 178.984 733.715 179.083C733.634 179.183 733.53 179.26 733.413 179.311Z" fill="#FABD62"/>
<path d="M744.469 215.705L719.75 213.307C719.397 213.328 719.051 213.205 718.787 212.967C718.523 212.728 718.363 212.393 718.342 212.036C718.321 211.678 718.441 211.327 718.676 211.059C718.91 210.792 719.24 210.63 719.593 210.609L743.867 205.359C744.055 205.319 744.251 205.321 744.439 205.364C744.627 205.408 744.804 205.493 744.957 205.613C745.11 205.732 745.235 205.885 745.324 206.058C745.414 206.232 745.465 206.423 745.474 206.619L745.919 214.267C745.933 214.462 745.904 214.658 745.836 214.841C745.767 215.024 745.66 215.19 745.522 215.327C745.384 215.463 745.219 215.568 745.037 215.633C744.855 215.699 744.661 215.723 744.469 215.705Z" fill="#FABD62"/>
<path d="M583.575 186.24C582.255 186.24 581.101 185.95 580.115 185.37C579.128 184.783 578.361 183.957 577.815 182.89C577.275 181.823 577.005 180.567 577.005 179.12C577.005 177.667 577.275 176.39 577.815 175.29C578.361 174.183 579.128 173.32 580.115 172.7C581.101 172.073 582.255 171.76 583.575 171.76H583.875C585.175 171.76 586.285 172.06 587.205 172.66C588.131 173.253 588.861 174.05 589.395 175.05L587.605 176.09C587.231 175.377 586.728 174.807 586.095 174.38C585.468 173.953 584.718 173.74 583.845 173.74H583.565C582.738 173.74 581.995 173.95 581.335 174.37C580.681 174.79 580.161 175.397 579.775 176.19C579.395 176.983 579.205 177.943 579.205 179.07C579.205 180.197 579.395 181.147 579.775 181.92C580.161 182.687 580.681 183.27 581.335 183.67C581.995 184.063 582.738 184.26 583.565 184.26H583.845C584.725 184.26 585.471 184.067 586.085 183.68C586.698 183.287 587.198 182.747 587.585 182.06L589.365 183.12C588.818 184.073 588.088 184.833 587.175 185.4C586.261 185.96 585.161 186.24 583.875 186.24H583.575ZM596.015 186.24C595.002 186.24 594.118 186.017 593.365 185.57C592.618 185.117 592.042 184.497 591.635 183.71C591.228 182.917 591.025 182.013 591.025 181C591.025 179.98 591.228 179.077 591.635 178.29C592.042 177.503 592.618 176.887 593.365 176.44C594.118 175.987 595.002 175.76 596.015 175.76H596.235C597.255 175.76 598.138 175.987 598.885 176.44C599.632 176.887 600.208 177.503 600.615 178.29C601.022 179.077 601.225 179.98 601.225 181C601.225 182.013 601.022 182.917 600.615 183.71C600.208 184.497 599.632 185.117 598.885 185.57C598.138 186.017 597.255 186.24 596.235 186.24H596.015ZM596.025 184.38H596.225C597.138 184.38 597.855 184.073 598.375 183.46C598.895 182.847 599.155 182.027 599.155 181C599.155 179.967 598.895 179.147 598.375 178.54C597.855 177.927 597.138 177.62 596.225 177.62H596.025C595.118 177.62 594.402 177.927 593.875 178.54C593.355 179.147 593.095 179.967 593.095 181C593.095 182.027 593.355 182.847 593.875 183.46C594.402 184.073 595.118 184.38 596.025 184.38ZM606.986 186.24C605.833 186.24 604.953 185.85 604.346 185.07C603.739 184.29 603.436 183.193 603.436 181.78V176H605.436V181.54C605.436 183.433 606.123 184.38 607.496 184.38H607.696C608.376 184.38 608.953 184.17 609.426 183.75C609.906 183.33 610.263 182.8 610.496 182.16V176H612.496V186H610.496V184.33C610.129 184.923 609.669 185.39 609.116 185.73C608.569 186.07 607.933 186.24 607.206 186.24H606.986ZM615.442 186V176H617.442V177.67C617.809 177.077 618.265 176.61 618.812 176.27C619.365 175.93 620.005 175.76 620.732 175.76H620.952C622.059 175.76 622.925 176.15 623.552 176.93C624.185 177.71 624.502 178.807 624.502 180.22V186H622.502V180.46C622.502 178.567 621.815 177.62 620.442 177.62H620.242C619.562 177.62 618.982 177.83 618.502 178.25C618.029 178.67 617.675 179.2 617.442 179.84V186H615.442ZM631.778 186.13C630.591 186.13 629.688 185.83 629.068 185.23C628.448 184.63 628.138 183.707 628.138 182.46V177.74H626.178V176H628.138V173.02H630.138V176H633.508V177.74H630.138V182.19C630.138 182.977 630.301 183.523 630.628 183.83C630.955 184.137 631.438 184.29 632.078 184.29C632.385 184.29 632.658 184.277 632.898 184.25C633.145 184.223 633.398 184.19 633.658 184.15V185.9C633.391 185.967 633.091 186.02 632.758 186.06C632.425 186.107 632.098 186.13 631.778 186.13ZM639.985 186.24C639.025 186.24 638.182 186.02 637.455 185.58C636.735 185.14 636.172 184.527 635.765 183.74C635.365 182.953 635.165 182.043 635.165 181.01C635.165 179.977 635.365 179.067 635.765 178.28C636.172 177.487 636.735 176.87 637.455 176.43C638.182 175.983 639.025 175.76 639.985 175.76H640.205C641.079 175.76 641.845 175.977 642.505 176.41C643.172 176.837 643.692 177.457 644.065 178.27C644.439 179.077 644.625 180.05 644.625 181.19V181.8H637.235C637.355 182.62 637.662 183.267 638.155 183.74C638.655 184.207 639.305 184.44 640.105 184.44H640.305C640.785 184.44 641.245 184.343 641.685 184.15C642.125 183.95 642.495 183.683 642.795 183.35L644.025 184.65C643.572 185.137 643.012 185.523 642.345 185.81C641.685 186.097 640.972 186.24 640.205 186.24H639.985ZM639.925 177.56C639.212 177.56 638.615 177.797 638.135 178.27C637.662 178.737 637.362 179.377 637.235 180.19H642.615C642.555 179.45 642.312 178.827 641.885 178.32C641.465 177.813 640.879 177.56 640.125 177.56H639.925ZM646.965 186V176H648.965V177.52C649.632 176.347 650.549 175.76 651.715 175.76C652.035 175.76 652.325 175.787 652.585 175.84V177.86C652.425 177.84 652.252 177.823 652.065 177.81C651.885 177.797 651.709 177.79 651.535 177.79C650.875 177.79 650.335 177.98 649.915 178.36C649.495 178.74 649.179 179.26 648.965 179.92V186H646.965Z" fill="white"/>
<path d="M547.999 230C547.999 216.193 559.192 205 572.999 205H634.999V255H572.999C559.192 255 547.999 243.807 547.999 230V230Z" fill="#343A46"/>
<path d="M574.064 238.22C573.117 238.22 572.284 238.01 571.564 237.59C570.844 237.163 570.28 236.563 569.874 235.79C569.474 235.01 569.274 234.09 569.274 233.03C569.274 231.97 569.474 231.05 569.874 230.27C570.274 229.49 570.834 228.89 571.554 228.47C572.274 228.043 573.11 227.83 574.064 227.83H574.264C575.037 227.83 575.754 228.02 576.414 228.4C577.074 228.78 577.61 229.297 578.024 229.95L576.814 230.82C576.507 230.347 576.137 229.977 575.704 229.71C575.27 229.437 574.777 229.3 574.224 229.3H574.034C573.074 229.3 572.314 229.64 571.754 230.32C571.194 230.993 570.914 231.897 570.914 233.03C570.914 234.157 571.194 235.06 571.754 235.74C572.314 236.413 573.074 236.75 574.034 236.75H574.224C574.784 236.75 575.284 236.63 575.724 236.39C576.17 236.15 576.554 235.827 576.874 235.42L578.024 236.36C577.597 236.94 577.057 237.397 576.404 237.73C575.75 238.057 575.037 238.22 574.264 238.22H574.064ZM584.739 238.22C583.746 238.22 582.886 237.997 582.159 237.55C581.432 237.103 580.869 236.49 580.469 235.71C580.076 234.93 579.879 234.037 579.879 233.03C579.879 232.017 580.076 231.12 580.469 230.34C580.869 229.56 581.432 228.947 582.159 228.5C582.886 228.053 583.746 227.83 584.739 227.83H584.939C585.932 227.83 586.792 228.053 587.519 228.5C588.246 228.947 588.806 229.56 589.199 230.34C589.599 231.12 589.799 232.017 589.799 233.03C589.799 234.037 589.599 234.93 589.199 235.71C588.806 236.49 588.246 237.103 587.519 237.55C586.792 237.997 585.932 238.22 584.939 238.22H584.739ZM584.749 236.76H584.929C585.922 236.76 586.709 236.42 587.289 235.74C587.869 235.06 588.159 234.157 588.159 233.03C588.159 231.897 587.869 230.993 587.289 230.32C586.709 229.64 585.922 229.3 584.929 229.3H584.749C583.756 229.3 582.969 229.64 582.389 230.32C581.809 230.993 581.519 231.897 581.519 233.03C581.519 234.157 581.809 235.06 582.389 235.74C582.969 236.42 583.756 236.76 584.749 236.76ZM595.812 238.22C594.658 238.22 593.778 237.843 593.172 237.09C592.565 236.337 592.262 235.267 592.262 233.88V228.05H593.842V233.65C593.842 234.677 594.032 235.453 594.412 235.98C594.798 236.5 595.395 236.76 596.202 236.76H596.382C597.122 236.76 597.755 236.52 598.282 236.04C598.808 235.553 599.195 234.947 599.442 234.22V228.05H601.022V238H599.442V236.11C599.075 236.763 598.602 237.28 598.022 237.66C597.442 238.033 596.772 238.22 596.012 238.22H595.812ZM604.219 238V228.05H605.799V229.94C606.165 229.287 606.639 228.773 607.219 228.4C607.799 228.02 608.469 227.83 609.229 227.83H609.429C610.555 227.83 611.429 228.207 612.049 228.96C612.669 229.707 612.979 230.777 612.979 232.17V238H611.399V232.4C611.399 231.373 611.209 230.6 610.829 230.08C610.449 229.56 609.852 229.3 609.039 229.3H608.849C608.109 229.3 607.475 229.54 606.949 230.02C606.429 230.5 606.045 231.103 605.799 231.83V238H604.219ZM620.315 238.12C619.209 238.12 618.355 237.843 617.755 237.29C617.155 236.737 616.855 235.857 616.855 234.65V229.42H614.895V228.05H616.855V225.02H618.435V228.05H621.955V229.42H618.435V234.43C618.435 235.263 618.615 235.847 618.975 236.18C619.342 236.507 619.862 236.67 620.535 236.67C620.829 236.67 621.095 236.657 621.335 236.63C621.575 236.597 621.825 236.553 622.085 236.5V237.89C621.812 237.957 621.522 238.01 621.215 238.05C620.909 238.097 620.609 238.12 620.315 238.12Z" fill="#8891EC"/>
<path d="M547.999 230C547.999 216.193 559.192 205 572.999 205H634.999V255H572.999C559.192 255 547.999 243.807 547.999 230V230Z" stroke="#8891EC" stroke-linejoin="bevel"/>
<path d="M634.999 205H655.999C669.807 205 680.999 216.193 680.999 230V230C680.999 243.807 669.807 255 655.999 255H634.999V205Z" fill="#343A46"/>
<path d="M653.871 238.22C652.745 238.22 651.778 237.93 650.971 237.35C650.165 236.77 649.545 235.94 649.111 234.86C648.685 233.78 648.471 232.493 648.471 231C648.471 229.507 648.685 228.22 649.111 227.14C649.545 226.06 650.165 225.23 650.971 224.65C651.778 224.07 652.745 223.78 653.871 223.78H654.121C655.248 223.78 656.211 224.07 657.011 224.65C657.818 225.23 658.435 226.06 658.861 227.14C659.295 228.22 659.511 229.507 659.511 231C659.511 232.493 659.295 233.78 658.861 234.86C658.435 235.94 657.818 236.77 657.011 237.35C656.211 237.93 655.248 238.22 654.121 238.22H653.871ZM653.881 236.69H654.111C655.271 236.69 656.175 236.213 656.821 235.26C657.475 234.3 657.801 232.88 657.801 231C657.801 229.12 657.475 227.703 656.821 226.75C656.175 225.79 655.271 225.31 654.111 225.31H653.881C652.721 225.31 651.815 225.79 651.161 226.75C650.508 227.703 650.181 229.12 650.181 231C650.181 232.88 650.508 234.3 651.161 235.26C651.815 236.213 652.721 236.69 653.881 236.69Z" fill="#8891EC"/>
<path d="M634.999 205H655.999C669.807 205 680.999 216.193 680.999 230V230C680.999 243.807 669.807 255 655.999 255H634.999V205Z" stroke="#8891EC" stroke-linejoin="bevel"/>
<path d="M614.895 142L614.895 54" stroke="#FABD62" stroke-width="3"/>
<rect x="62" y="2" width="65" height="50.2663" rx="6" fill="#343A46" stroke="white" stroke-linejoin="bevel"/>
<path fill-rule="evenodd" clip-rule="evenodd" d="M62 46.2666V48.0002C62 51.3139 64.6863 54.0002 68 54.0002H121C124.314 54.0002 127 51.3139 127 48.0002V46.2666C127 49.5803 124.314 52.2666 121 52.2666H68C64.6863 52.2666 62 49.5803 62 46.2666Z" fill="white"/>
<path d="M85.6505 35.24C84.7639 35.24 83.9872 35.0167 83.3205 34.57C82.6605 34.1167 82.1472 33.4967 81.7805 32.71C81.4139 31.9167 81.2305 31.0133 81.2305 30C81.2305 28.9867 81.4139 28.0867 81.7805 27.3C82.1472 26.5067 82.6605 25.8867 83.3205 25.44C83.9872 24.9867 84.7639 24.76 85.6505 24.76H85.8705C86.5305 24.76 87.1405 24.9033 87.7005 25.19C88.2672 25.47 88.7339 25.89 89.1005 26.45V20.4H91.1005V35H89.1005V33.43C88.7539 34.03 88.3005 34.4833 87.7405 34.79C87.1805 35.09 86.5572 35.24 85.8705 35.24H85.6505ZM86.1505 33.39H86.3505C86.9439 33.39 87.4772 33.2133 87.9505 32.86C88.4305 32.5067 88.8139 32.0233 89.1005 31.41V28.59C88.8139 27.9767 88.4305 27.4933 87.9505 27.14C87.4772 26.7867 86.9439 26.61 86.3505 26.61H86.1505C85.2772 26.61 84.5839 26.9033 84.0705 27.49C83.5572 28.0767 83.3005 28.9133 83.3005 30C83.3005 31.0867 83.5572 31.9233 84.0705 32.51C84.5839 33.0967 85.2772 33.39 86.1505 33.39ZM95.0462 23.22C94.6395 23.22 94.3162 23.0967 94.0762 22.85C93.8428 22.5967 93.7262 22.2767 93.7262 21.89C93.7262 21.4967 93.8428 21.1767 94.0762 20.93C94.3162 20.6833 94.6395 20.56 95.0462 20.56C95.4595 20.56 95.7828 20.6833 96.0162 20.93C96.2495 21.1767 96.3662 21.4967 96.3662 21.89C96.3662 22.2767 96.2495 22.5967 96.0162 22.85C95.7828 23.0967 95.4595 23.22 95.0462 23.22ZM94.0462 35V25H96.0462V35H94.0462ZM101.878 35C101.158 33.38 100.471 31.73 99.8176 30.05C99.1709 28.3633 98.5709 26.68 98.0176 25H100.278C100.684 26.38 101.128 27.7633 101.608 29.15C102.094 30.5367 102.608 31.91 103.148 33.27C103.688 31.91 104.198 30.5367 104.678 29.15C105.164 27.7633 105.611 26.38 106.018 25H108.198C107.644 26.68 107.041 28.3633 106.388 30.05C105.741 31.73 105.058 33.38 104.338 35H101.878Z" fill="white"/>
<rect x="68" y="126" width="53" height="50.2663" rx="6" fill="#343A46" stroke="white" stroke-linejoin="bevel"/>
<path fill-rule="evenodd" clip-rule="evenodd" d="M68 170.267V172C68 175.314 70.6863 178 74 178H115C118.314 178 121 175.314 121 172V170.267C121 173.58 118.314 176.267 115 176.267H74C70.6863 176.267 68 173.58 68 170.267Z" fill="white"/>
<path d="M89.8372 160.7V146.5H91.8372V148.07C92.1839 147.47 92.6372 147.02 93.1972 146.72C93.7572 146.413 94.3805 146.26 95.0672 146.26H95.2872C96.1739 146.26 96.9472 146.487 97.6072 146.94C98.2739 147.387 98.7905 148.007 99.1572 148.8C99.5239 149.587 99.7072 150.487 99.7072 151.5C99.7072 152.513 99.5239 153.417 99.1572 154.21C98.7905 154.997 98.2739 155.617 97.6072 156.07C96.9472 156.517 96.1739 156.74 95.2872 156.74H95.0672C94.4072 156.74 93.7939 156.6 93.2272 156.32C92.6672 156.033 92.2039 155.61 91.8372 155.05V160.7H89.8372ZM94.5872 154.89H94.7872C95.6605 154.89 96.3539 154.597 96.8672 154.01C97.3805 153.423 97.6372 152.587 97.6372 151.5C97.6372 150.413 97.3805 149.577 96.8672 148.99C96.3539 148.403 95.6605 148.11 94.7872 148.11H94.5872C93.9939 148.11 93.4572 148.287 92.9772 148.64C92.5039 148.993 92.1239 149.477 91.8372 150.09V152.91C92.1239 153.523 92.5039 154.007 92.9772 154.36C93.4572 154.713 93.9939 154.89 94.5872 154.89Z" fill="white"/>
<path d="M95 126V52" stroke="white" stroke-width="2"/>
</svg>
