<svg width="395" height="248" viewBox="0 0 395 248" fill="none" xmlns="http://www.w3.org/2000/svg">
<rect x="160" y="1" width="79" height="50.2663" rx="6" fill="white" stroke="#2C749E" stroke-linejoin="bevel"/>
<path fill-rule="evenodd" clip-rule="evenodd" d="M160 45.2666V47.0002C160 50.3139 162.686 53.0002 166 53.0002H233C236.314 53.0002 239 50.3139 239 47.0002V45.2666C239 48.5803 236.314 51.2666 233 51.2666H166C162.686 51.2666 160 48.5803 160 45.2666Z" fill="#2C749E"/>
<path d="M190.651 34.24C189.764 34.24 188.987 34.0167 188.321 33.57C187.661 33.1167 187.147 32.4967 186.781 31.71C186.414 30.9167 186.231 30.0133 186.231 29C186.231 27.9867 186.414 27.0867 186.781 26.3C187.147 25.5067 187.661 24.8867 188.321 24.44C188.987 23.9867 189.764 23.76 190.651 23.76H190.871C191.531 23.76 192.141 23.9033 192.701 24.19C193.267 24.47 193.734 24.89 194.101 25.45V19.4H196.101V34H194.101V32.43C193.754 33.03 193.301 33.4833 192.741 33.79C192.181 34.09 191.557 34.24 190.871 34.24H190.651ZM191.151 32.39H191.351C191.944 32.39 192.477 32.2133 192.951 31.86C193.431 31.5067 193.814 31.0233 194.101 30.41V27.59C193.814 26.9767 193.431 26.4933 192.951 26.14C192.477 25.7867 191.944 25.61 191.351 25.61H191.151C190.277 25.61 189.584 25.9033 189.071 26.49C188.557 27.0767 188.301 27.9133 188.301 29C188.301 30.0867 188.557 30.9233 189.071 31.51C189.584 32.0967 190.277 32.39 191.151 32.39ZM200.046 22.22C199.64 22.22 199.316 22.0967 199.076 21.85C198.843 21.5967 198.726 21.2767 198.726 20.89C198.726 20.4967 198.843 20.1767 199.076 19.93C199.316 19.6833 199.64 19.56 200.046 19.56C200.46 19.56 200.783 19.6833 201.016 19.93C201.25 20.1767 201.366 20.4967 201.366 20.89C201.366 21.2767 201.25 21.5967 201.016 21.85C200.783 22.0967 200.46 22.22 200.046 22.22ZM199.046 34V24H201.046V34H199.046ZM206.878 34C206.158 32.38 205.471 30.73 204.818 29.05C204.171 27.3633 203.571 25.68 203.018 24H205.278C205.684 25.38 206.128 26.7633 206.608 28.15C207.094 29.5367 207.608 30.91 208.148 32.27C208.688 30.91 209.198 29.5367 209.678 28.15C210.164 26.7633 210.611 25.38 211.018 24H213.198C212.644 25.68 212.041 27.3633 211.388 29.05C210.741 30.73 210.058 32.38 209.338 34H206.878Z" fill="#2C749E"/>
<rect x="1" y="113" width="173" height="133" rx="6" fill="white" stroke="#2C749E" stroke-linejoin="bevel"/>
<path fill-rule="evenodd" clip-rule="evenodd" d="M1 240V242C1 245.314 3.68629 248 7 248H168C171.314 248 174 245.314 174 242V240C174 243.314 171.314 246 168 246H7C3.68629 246 1 243.314 1 240Z" fill="#2C749E"/>
<path d="M56.5753 155.24C55.2553 155.24 54.102 154.95 53.1153 154.37C52.1286 153.783 51.362 152.957 50.8153 151.89C50.2753 150.823 50.0053 149.567 50.0053 148.12C50.0053 146.667 50.2753 145.39 50.8153 144.29C51.362 143.183 52.1286 142.32 53.1153 141.7C54.102 141.073 55.2553 140.76 56.5753 140.76H56.8753C58.1753 140.76 59.2853 141.06 60.2053 141.66C61.132 142.253 61.862 143.05 62.3953 144.05L60.6053 145.09C60.232 144.377 59.7286 143.807 59.0953 143.38C58.4686 142.953 57.7186 142.74 56.8453 142.74H56.5653C55.7386 142.74 54.9953 142.95 54.3353 143.37C53.682 143.79 53.162 144.397 52.7753 145.19C52.3953 145.983 52.2053 146.943 52.2053 148.07C52.2053 149.197 52.3953 150.147 52.7753 150.92C53.162 151.687 53.682 152.27 54.3353 152.67C54.9953 153.063 55.7386 153.26 56.5653 153.26H56.8453C57.7253 153.26 58.472 153.067 59.0853 152.68C59.6986 152.287 60.1986 151.747 60.5853 151.06L62.3653 152.12C61.8186 153.073 61.0886 153.833 60.1753 154.4C59.262 154.96 58.162 155.24 56.8753 155.24H56.5753ZM69.0155 155.24C68.0021 155.24 67.1188 155.017 66.3655 154.57C65.6188 154.117 65.0421 153.497 64.6355 152.71C64.2288 151.917 64.0255 151.013 64.0255 150C64.0255 148.98 64.2288 148.077 64.6355 147.29C65.0421 146.503 65.6188 145.887 66.3655 145.44C67.1188 144.987 68.0021 144.76 69.0155 144.76H69.2355C70.2555 144.76 71.1388 144.987 71.8855 145.44C72.6321 145.887 73.2088 146.503 73.6155 147.29C74.0221 148.077 74.2255 148.98 74.2255 150C74.2255 151.013 74.0221 151.917 73.6155 152.71C73.2088 153.497 72.6321 154.117 71.8855 154.57C71.1388 155.017 70.2555 155.24 69.2355 155.24H69.0155ZM69.0255 153.38H69.2255C70.1388 153.38 70.8555 153.073 71.3755 152.46C71.8955 151.847 72.1555 151.027 72.1555 150C72.1555 148.967 71.8955 148.147 71.3755 147.54C70.8555 146.927 70.1388 146.62 69.2255 146.62H69.0255C68.1188 146.62 67.4021 146.927 66.8755 147.54C66.3555 148.147 66.0955 148.967 66.0955 150C66.0955 151.027 66.3555 151.847 66.8755 152.46C67.4021 153.073 68.1188 153.38 69.0255 153.38ZM79.9867 155.24C78.8334 155.24 77.9534 154.85 77.3467 154.07C76.7401 153.29 76.4367 152.193 76.4367 150.78V145H78.4367V150.54C78.4367 152.433 79.1234 153.38 80.4967 153.38H80.6967C81.3767 153.38 81.9534 153.17 82.4267 152.75C82.9067 152.33 83.2634 151.8 83.4967 151.16V145H85.4967V155H83.4967V153.33C83.1301 153.923 82.6701 154.39 82.1167 154.73C81.5701 155.07 80.9334 155.24 80.2067 155.24H79.9867ZM88.4427 155V145H90.4427V146.67C90.8093 146.077 91.266 145.61 91.8127 145.27C92.366 144.93 93.006 144.76 93.7327 144.76H93.9527C95.0593 144.76 95.926 145.15 96.5527 145.93C97.186 146.71 97.5027 147.807 97.5027 149.22V155H95.5027V149.46C95.5027 147.567 94.816 146.62 93.4427 146.62H93.2427C92.5627 146.62 91.9827 146.83 91.5027 147.25C91.0293 147.67 90.676 148.2 90.4427 148.84V155H88.4427ZM104.779 155.13C103.592 155.13 102.689 154.83 102.069 154.23C101.449 153.63 101.139 152.707 101.139 151.46V146.74H99.1786V145H101.139V142.02H103.139V145H106.509V146.74H103.139V151.19C103.139 151.977 103.302 152.523 103.629 152.83C103.955 153.137 104.439 153.29 105.079 153.29C105.385 153.29 105.659 153.277 105.899 153.25C106.145 153.223 106.399 153.19 106.659 153.15V154.9C106.392 154.967 106.092 155.02 105.759 155.06C105.425 155.107 105.099 155.13 104.779 155.13ZM112.986 155.24C112.026 155.24 111.183 155.02 110.456 154.58C109.736 154.14 109.173 153.527 108.766 152.74C108.366 151.953 108.166 151.043 108.166 150.01C108.166 148.977 108.366 148.067 108.766 147.28C109.173 146.487 109.736 145.87 110.456 145.43C111.183 144.983 112.026 144.76 112.986 144.76H113.206C114.079 144.76 114.846 144.977 115.506 145.41C116.173 145.837 116.693 146.457 117.066 147.27C117.439 148.077 117.626 149.05 117.626 150.19V150.8H110.236C110.356 151.62 110.663 152.267 111.156 152.74C111.656 153.207 112.306 153.44 113.106 153.44H113.306C113.786 153.44 114.246 153.343 114.686 153.15C115.126 152.95 115.496 152.683 115.796 152.35L117.026 153.65C116.573 154.137 116.013 154.523 115.346 154.81C114.686 155.097 113.973 155.24 113.206 155.24H112.986ZM112.926 146.56C112.213 146.56 111.616 146.797 111.136 147.27C110.663 147.737 110.363 148.377 110.236 149.19H115.616C115.556 148.45 115.313 147.827 114.886 147.32C114.466 146.813 113.879 146.56 113.126 146.56H112.926ZM119.966 155V145H121.966V146.52C122.633 145.347 123.549 144.76 124.716 144.76C125.036 144.76 125.326 144.787 125.586 144.84V146.86C125.426 146.84 125.253 146.823 125.066 146.81C124.886 146.797 124.709 146.79 124.536 146.79C123.876 146.79 123.336 146.98 122.916 147.36C122.496 147.74 122.179 148.26 121.966 148.92V155H119.966Z" fill="#2C749E"/>
<path d="M21 199C21 185.193 32.1929 174 46 174H108V224H46C32.1929 224 21 212.807 21 199V199Z" fill="white"/>
<path d="M47.0641 207.22C46.1175 207.22 45.2841 207.01 44.5641 206.59C43.8441 206.163 43.2808 205.563 42.8741 204.79C42.4741 204.01 42.2741 203.09 42.2741 202.03C42.2741 200.97 42.4741 200.05 42.8741 199.27C43.2741 198.49 43.8341 197.89 44.5541 197.47C45.2741 197.043 46.1108 196.83 47.0641 196.83H47.2641C48.0375 196.83 48.7541 197.02 49.4141 197.4C50.0741 197.78 50.6108 198.297 51.0241 198.95L49.8141 199.82C49.5075 199.347 49.1375 198.977 48.7041 198.71C48.2708 198.437 47.7775 198.3 47.2241 198.3H47.0341C46.0741 198.3 45.3141 198.64 44.7541 199.32C44.1941 199.993 43.9141 200.897 43.9141 202.03C43.9141 203.157 44.1941 204.06 44.7541 204.74C45.3141 205.413 46.0741 205.75 47.0341 205.75H47.2241C47.7841 205.75 48.2841 205.63 48.7241 205.39C49.1708 205.15 49.5541 204.827 49.8741 204.42L51.0241 205.36C50.5975 205.94 50.0575 206.397 49.4041 206.73C48.7508 207.057 48.0375 207.22 47.2641 207.22H47.0641ZM57.7396 207.22C56.7463 207.22 55.8863 206.997 55.1596 206.55C54.4329 206.103 53.8696 205.49 53.4696 204.71C53.0763 203.93 52.8796 203.037 52.8796 202.03C52.8796 201.017 53.0763 200.12 53.4696 199.34C53.8696 198.56 54.4329 197.947 55.1596 197.5C55.8863 197.053 56.7463 196.83 57.7396 196.83H57.9396C58.9329 196.83 59.7929 197.053 60.5196 197.5C61.2463 197.947 61.8063 198.56 62.1996 199.34C62.5996 200.12 62.7996 201.017 62.7996 202.03C62.7996 203.037 62.5996 203.93 62.1996 204.71C61.8063 205.49 61.2463 206.103 60.5196 206.55C59.7929 206.997 58.9329 207.22 57.9396 207.22H57.7396ZM57.7496 205.76H57.9296C58.9229 205.76 59.7096 205.42 60.2896 204.74C60.8696 204.06 61.1596 203.157 61.1596 202.03C61.1596 200.897 60.8696 199.993 60.2896 199.32C59.7096 198.64 58.9229 198.3 57.9296 198.3H57.7496C56.7563 198.3 55.9696 198.64 55.3896 199.32C54.8096 199.993 54.5196 200.897 54.5196 202.03C54.5196 203.157 54.8096 204.06 55.3896 204.74C55.9696 205.42 56.7563 205.76 57.7496 205.76ZM68.8123 207.22C67.6589 207.22 66.7789 206.843 66.1723 206.09C65.5656 205.337 65.2623 204.267 65.2623 202.88V197.05H66.8423V202.65C66.8423 203.677 67.0323 204.453 67.4123 204.98C67.7989 205.5 68.3956 205.76 69.2023 205.76H69.3823C70.1223 205.76 70.7556 205.52 71.2823 205.04C71.8089 204.553 72.1956 203.947 72.4423 203.22V197.05H74.0223V207H72.4423V205.11C72.0756 205.763 71.6023 206.28 71.0223 206.66C70.4423 207.033 69.7723 207.22 69.0123 207.22H68.8123ZM77.2191 207V197.05H78.7991V198.94C79.1658 198.287 79.6391 197.773 80.2191 197.4C80.7991 197.02 81.4691 196.83 82.2291 196.83H82.4291C83.5558 196.83 84.4291 197.207 85.0491 197.96C85.6691 198.707 85.9791 199.777 85.9791 201.17V207H84.3991V201.4C84.3991 200.373 84.2091 199.6 83.8291 199.08C83.4491 198.56 82.8525 198.3 82.0391 198.3H81.8491C81.1091 198.3 80.4758 198.54 79.9491 199.02C79.4291 199.5 79.0458 200.103 78.7991 200.83V207H77.2191ZM93.316 207.12C92.2093 207.12 91.356 206.843 90.756 206.29C90.156 205.737 89.856 204.857 89.856 203.65V198.42H87.896V197.05H89.856V194.02H91.436V197.05H94.956V198.42H91.436V203.43C91.436 204.263 91.616 204.847 91.976 205.18C92.3427 205.507 92.8627 205.67 93.536 205.67C93.8293 205.67 94.096 205.657 94.336 205.63C94.576 205.597 94.826 205.553 95.086 205.5V206.89C94.8127 206.957 94.5227 207.01 94.216 207.05C93.9093 207.097 93.6093 207.12 93.316 207.12Z" fill="#606BD6"/>
<path d="M21 199C21 185.193 32.1929 174 46 174H108V224H46C32.1929 224 21 212.807 21 199V199Z" stroke="#606BD6" stroke-linejoin="bevel"/>
<path d="M108 174H129C142.807 174 154 185.193 154 199V199C154 212.807 142.807 224 129 224H108V174Z" fill="white"/>
<path d="M126.872 207.22C125.745 207.22 124.779 206.93 123.972 206.35C123.165 205.77 122.545 204.94 122.112 203.86C121.685 202.78 121.472 201.493 121.472 200C121.472 198.507 121.685 197.22 122.112 196.14C122.545 195.06 123.165 194.23 123.972 193.65C124.779 193.07 125.745 192.78 126.872 192.78H127.122C128.249 192.78 129.212 193.07 130.012 193.65C130.819 194.23 131.435 195.06 131.862 196.14C132.295 197.22 132.512 198.507 132.512 200C132.512 201.493 132.295 202.78 131.862 203.86C131.435 204.94 130.819 205.77 130.012 206.35C129.212 206.93 128.249 207.22 127.122 207.22H126.872ZM126.882 205.69H127.112C128.272 205.69 129.175 205.213 129.822 204.26C130.475 203.3 130.802 201.88 130.802 200C130.802 198.12 130.475 196.703 129.822 195.75C129.175 194.79 128.272 194.31 127.112 194.31H126.882C125.722 194.31 124.815 194.79 124.162 195.75C123.509 196.703 123.182 198.12 123.182 200C123.182 201.88 123.509 203.3 124.162 204.26C124.815 205.213 125.722 205.69 126.882 205.69Z" fill="#606BD6"/>
<path d="M108 174H129C142.807 174 154 185.193 154 199V199C154 212.807 142.807 224 129 224H108V174Z" stroke="#606BD6" stroke-linejoin="bevel"/>
<rect x="221" y="113" width="173" height="133" rx="6" fill="white" stroke="#2C749E" stroke-linejoin="bevel"/>
<path fill-rule="evenodd" clip-rule="evenodd" d="M221 240V242C221 245.314 223.686 248 227 248H388C391.314 248 394 245.314 394 242V240C394 243.314 391.314 246 388 246H227C223.686 246 221 243.314 221 240Z" fill="#2C749E"/>
<path d="M276.575 155.24C275.255 155.24 274.102 154.95 273.115 154.37C272.129 153.783 271.362 152.957 270.815 151.89C270.275 150.823 270.005 149.567 270.005 148.12C270.005 146.667 270.275 145.39 270.815 144.29C271.362 143.183 272.129 142.32 273.115 141.7C274.102 141.073 275.255 140.76 276.575 140.76H276.875C278.175 140.76 279.285 141.06 280.205 141.66C281.132 142.253 281.862 143.05 282.395 144.05L280.605 145.09C280.232 144.377 279.729 143.807 279.095 143.38C278.469 142.953 277.719 142.74 276.845 142.74H276.565C275.739 142.74 274.995 142.95 274.335 143.37C273.682 143.79 273.162 144.397 272.775 145.19C272.395 145.983 272.205 146.943 272.205 148.07C272.205 149.197 272.395 150.147 272.775 150.92C273.162 151.687 273.682 152.27 274.335 152.67C274.995 153.063 275.739 153.26 276.565 153.26H276.845C277.725 153.26 278.472 153.067 279.085 152.68C279.699 152.287 280.199 151.747 280.585 151.06L282.365 152.12C281.819 153.073 281.089 153.833 280.175 154.4C279.262 154.96 278.162 155.24 276.875 155.24H276.575ZM289.015 155.24C288.002 155.24 287.119 155.017 286.365 154.57C285.619 154.117 285.042 153.497 284.635 152.71C284.229 151.917 284.025 151.013 284.025 150C284.025 148.98 284.229 148.077 284.635 147.29C285.042 146.503 285.619 145.887 286.365 145.44C287.119 144.987 288.002 144.76 289.015 144.76H289.235C290.255 144.76 291.139 144.987 291.885 145.44C292.632 145.887 293.209 146.503 293.615 147.29C294.022 148.077 294.225 148.98 294.225 150C294.225 151.013 294.022 151.917 293.615 152.71C293.209 153.497 292.632 154.117 291.885 154.57C291.139 155.017 290.255 155.24 289.235 155.24H289.015ZM289.025 153.38H289.225C290.139 153.38 290.855 153.073 291.375 152.46C291.895 151.847 292.155 151.027 292.155 150C292.155 148.967 291.895 148.147 291.375 147.54C290.855 146.927 290.139 146.62 289.225 146.62H289.025C288.119 146.62 287.402 146.927 286.875 147.54C286.355 148.147 286.095 148.967 286.095 150C286.095 151.027 286.355 151.847 286.875 152.46C287.402 153.073 288.119 153.38 289.025 153.38ZM299.987 155.24C298.833 155.24 297.953 154.85 297.347 154.07C296.74 153.29 296.437 152.193 296.437 150.78V145H298.437V150.54C298.437 152.433 299.123 153.38 300.497 153.38H300.697C301.377 153.38 301.953 153.17 302.427 152.75C302.907 152.33 303.263 151.8 303.497 151.16V145H305.497V155H303.497V153.33C303.13 153.923 302.67 154.39 302.117 154.73C301.57 155.07 300.933 155.24 300.207 155.24H299.987ZM308.443 155V145H310.443V146.67C310.809 146.077 311.266 145.61 311.813 145.27C312.366 144.93 313.006 144.76 313.733 144.76H313.953C315.059 144.76 315.926 145.15 316.553 145.93C317.186 146.71 317.503 147.807 317.503 149.22V155H315.503V149.46C315.503 147.567 314.816 146.62 313.443 146.62H313.243C312.563 146.62 311.983 146.83 311.503 147.25C311.029 147.67 310.676 148.2 310.443 148.84V155H308.443ZM324.779 155.13C323.592 155.13 322.689 154.83 322.069 154.23C321.449 153.63 321.139 152.707 321.139 151.46V146.74H319.179V145H321.139V142.02H323.139V145H326.509V146.74H323.139V151.19C323.139 151.977 323.302 152.523 323.629 152.83C323.955 153.137 324.439 153.29 325.079 153.29C325.385 153.29 325.659 153.277 325.899 153.25C326.145 153.223 326.399 153.19 326.659 153.15V154.9C326.392 154.967 326.092 155.02 325.759 155.06C325.425 155.107 325.099 155.13 324.779 155.13ZM332.986 155.24C332.026 155.24 331.183 155.02 330.456 154.58C329.736 154.14 329.173 153.527 328.766 152.74C328.366 151.953 328.166 151.043 328.166 150.01C328.166 148.977 328.366 148.067 328.766 147.28C329.173 146.487 329.736 145.87 330.456 145.43C331.183 144.983 332.026 144.76 332.986 144.76H333.206C334.079 144.76 334.846 144.977 335.506 145.41C336.173 145.837 336.693 146.457 337.066 147.27C337.439 148.077 337.626 149.05 337.626 150.19V150.8H330.236C330.356 151.62 330.663 152.267 331.156 152.74C331.656 153.207 332.306 153.44 333.106 153.44H333.306C333.786 153.44 334.246 153.343 334.686 153.15C335.126 152.95 335.496 152.683 335.796 152.35L337.026 153.65C336.573 154.137 336.013 154.523 335.346 154.81C334.686 155.097 333.973 155.24 333.206 155.24H332.986ZM332.926 146.56C332.213 146.56 331.616 146.797 331.136 147.27C330.663 147.737 330.363 148.377 330.236 149.19H335.616C335.556 148.45 335.313 147.827 334.886 147.32C334.466 146.813 333.879 146.56 333.126 146.56H332.926ZM339.966 155V145H341.966V146.52C342.633 145.347 343.549 144.76 344.716 144.76C345.036 144.76 345.326 144.787 345.586 144.84V146.86C345.426 146.84 345.253 146.823 345.066 146.81C344.886 146.797 344.709 146.79 344.536 146.79C343.876 146.79 343.336 146.98 342.916 147.36C342.496 147.74 342.179 148.26 341.966 148.92V155H339.966Z" fill="#2C749E"/>
<path d="M241 199C241 185.193 252.193 174 266 174H328V224H266C252.193 224 241 212.807 241 199V199Z" fill="white"/>
<path d="M267.064 207.22C266.117 207.22 265.284 207.01 264.564 206.59C263.844 206.163 263.281 205.563 262.874 204.79C262.474 204.01 262.274 203.09 262.274 202.03C262.274 200.97 262.474 200.05 262.874 199.27C263.274 198.49 263.834 197.89 264.554 197.47C265.274 197.043 266.111 196.83 267.064 196.83H267.264C268.037 196.83 268.754 197.02 269.414 197.4C270.074 197.78 270.611 198.297 271.024 198.95L269.814 199.82C269.507 199.347 269.137 198.977 268.704 198.71C268.271 198.437 267.777 198.3 267.224 198.3H267.034C266.074 198.3 265.314 198.64 264.754 199.32C264.194 199.993 263.914 200.897 263.914 202.03C263.914 203.157 264.194 204.06 264.754 204.74C265.314 205.413 266.074 205.75 267.034 205.75H267.224C267.784 205.75 268.284 205.63 268.724 205.39C269.171 205.15 269.554 204.827 269.874 204.42L271.024 205.36C270.597 205.94 270.057 206.397 269.404 206.73C268.751 207.057 268.037 207.22 267.264 207.22H267.064ZM277.74 207.22C276.746 207.22 275.886 206.997 275.16 206.55C274.433 206.103 273.87 205.49 273.47 204.71C273.076 203.93 272.88 203.037 272.88 202.03C272.88 201.017 273.076 200.12 273.47 199.34C273.87 198.56 274.433 197.947 275.16 197.5C275.886 197.053 276.746 196.83 277.74 196.83H277.94C278.933 196.83 279.793 197.053 280.52 197.5C281.246 197.947 281.806 198.56 282.2 199.34C282.6 200.12 282.8 201.017 282.8 202.03C282.8 203.037 282.6 203.93 282.2 204.71C281.806 205.49 281.246 206.103 280.52 206.55C279.793 206.997 278.933 207.22 277.94 207.22H277.74ZM277.75 205.76H277.93C278.923 205.76 279.71 205.42 280.29 204.74C280.87 204.06 281.16 203.157 281.16 202.03C281.16 200.897 280.87 199.993 280.29 199.32C279.71 198.64 278.923 198.3 277.93 198.3H277.75C276.756 198.3 275.97 198.64 275.39 199.32C274.81 199.993 274.52 200.897 274.52 202.03C274.52 203.157 274.81 204.06 275.39 204.74C275.97 205.42 276.756 205.76 277.75 205.76ZM288.812 207.22C287.659 207.22 286.779 206.843 286.172 206.09C285.566 205.337 285.262 204.267 285.262 202.88V197.05H286.842V202.65C286.842 203.677 287.032 204.453 287.412 204.98C287.799 205.5 288.396 205.76 289.202 205.76H289.382C290.122 205.76 290.756 205.52 291.282 205.04C291.809 204.553 292.196 203.947 292.442 203.22V197.05H294.022V207H292.442V205.11C292.076 205.763 291.602 206.28 291.022 206.66C290.442 207.033 289.772 207.22 289.012 207.22H288.812ZM297.219 207V197.05H298.799V198.94C299.166 198.287 299.639 197.773 300.219 197.4C300.799 197.02 301.469 196.83 302.229 196.83H302.429C303.556 196.83 304.429 197.207 305.049 197.96C305.669 198.707 305.979 199.777 305.979 201.17V207H304.399V201.4C304.399 200.373 304.209 199.6 303.829 199.08C303.449 198.56 302.852 198.3 302.039 198.3H301.849C301.109 198.3 300.476 198.54 299.949 199.02C299.429 199.5 299.046 200.103 298.799 200.83V207H297.219ZM313.316 207.12C312.209 207.12 311.356 206.843 310.756 206.29C310.156 205.737 309.856 204.857 309.856 203.65V198.42H307.896V197.05H309.856V194.02H311.436V197.05H314.956V198.42H311.436V203.43C311.436 204.263 311.616 204.847 311.976 205.18C312.343 205.507 312.863 205.67 313.536 205.67C313.829 205.67 314.096 205.657 314.336 205.63C314.576 205.597 314.826 205.553 315.086 205.5V206.89C314.813 206.957 314.523 207.01 314.216 207.05C313.909 207.097 313.609 207.12 313.316 207.12Z" fill="#606BD6"/>
<path d="M241 199C241 185.193 252.193 174 266 174H328V224H266C252.193 224 241 212.807 241 199V199Z" stroke="#606BD6" stroke-linejoin="bevel"/>
<path d="M328 174H349C362.807 174 374 185.193 374 199V199C374 212.807 362.807 224 349 224H328V174Z" fill="white"/>
<path d="M346.872 207.22C345.745 207.22 344.779 206.93 343.972 206.35C343.165 205.77 342.545 204.94 342.112 203.86C341.685 202.78 341.472 201.493 341.472 200C341.472 198.507 341.685 197.22 342.112 196.14C342.545 195.06 343.165 194.23 343.972 193.65C344.779 193.07 345.745 192.78 346.872 192.78H347.122C348.249 192.78 349.212 193.07 350.012 193.65C350.819 194.23 351.435 195.06 351.862 196.14C352.295 197.22 352.512 198.507 352.512 200C352.512 201.493 352.295 202.78 351.862 203.86C351.435 204.94 350.819 205.77 350.012 206.35C349.212 206.93 348.249 207.22 347.122 207.22H346.872ZM346.882 205.69H347.112C348.272 205.69 349.175 205.213 349.822 204.26C350.475 203.3 350.802 201.88 350.802 200C350.802 198.12 350.475 196.703 349.822 195.75C349.175 194.79 348.272 194.31 347.112 194.31H346.882C345.722 194.31 344.815 194.79 344.162 195.75C343.509 196.703 343.182 198.12 343.182 200C343.182 201.88 343.509 203.3 344.162 204.26C344.815 205.213 345.722 205.69 346.882 205.69Z" fill="#606BD6"/>
<path d="M328 174H349C362.807 174 374 185.193 374 199V199C374 212.807 362.807 224 349 224H328V174Z" stroke="#606BD6" stroke-linejoin="bevel"/>
<path d="M90 113V99.617C90 90.7805 97.1634 83.617 106 83.617H184C192.837 83.617 200 76.4536 200 67.617V53" stroke="#2C749E" stroke-width="2"/>
<path d="M310 113V99.617C310 90.7805 302.837 83.617 294 83.617H216C207.163 83.617 200 76.4536 200 67.617V53" stroke="#2C749E" stroke-width="2"/>
</svg>
