<svg width="855" height="435" viewBox="0 0 855 435" fill="none" xmlns="http://www.w3.org/2000/svg">
<circle cx="81" cy="251" r="81" fill="#E6F7FF"/>
<path d="M51.0552 259V245H61.2052V246.98H53.1552V251H59.7652V252.98H53.1552V257.02H61.3752V259H51.0552ZM64.1009 259V249H66.1009V250.64C66.4609 250.053 66.9075 249.593 67.4409 249.26C67.9742 248.927 68.5909 248.76 69.2909 248.76H69.5109C70.2842 248.76 70.9342 248.95 71.4609 249.33C71.9875 249.71 72.3775 250.257 72.6309 250.97C73.0175 250.283 73.5109 249.743 74.1109 249.35C74.7109 248.957 75.3909 248.76 76.1509 248.76H76.3709C77.4909 248.76 78.3442 249.15 78.9309 249.93C79.5242 250.71 79.8209 251.807 79.8209 253.22V259H77.8209V253.46C77.8209 251.567 77.1675 250.62 75.8609 250.62H75.6609C75.0009 250.62 74.4409 250.83 73.9809 251.25C73.5275 251.663 73.1875 252.187 72.9609 252.82V259H70.9609V253.46C70.9609 251.567 70.3075 250.62 69.0009 250.62H68.8009C68.1409 250.62 67.5809 250.83 67.1209 251.25C66.6675 251.663 66.3275 252.187 66.1009 252.82V259H64.1009ZM82.597 263.2V249H84.597V250.57C84.9436 249.97 85.397 249.52 85.957 249.22C86.517 248.913 87.1403 248.76 87.827 248.76H88.047C88.9336 248.76 89.707 248.987 90.367 249.44C91.0336 249.887 91.5503 250.507 91.917 251.3C92.2836 252.087 92.467 252.987 92.467 254C92.467 255.013 92.2836 255.917 91.917 256.71C91.5503 257.497 91.0336 258.117 90.367 258.57C89.707 259.017 88.9336 259.24 88.047 259.24H87.827C87.167 259.24 86.5536 259.1 85.987 258.82C85.427 258.533 84.9636 258.11 84.597 257.55V263.2H82.597ZM87.347 257.39H87.547C88.4203 257.39 89.1136 257.097 89.627 256.51C90.1403 255.923 90.397 255.087 90.397 254C90.397 252.913 90.1403 252.077 89.627 251.49C89.1136 250.903 88.4203 250.61 87.547 250.61H87.347C86.7536 250.61 86.217 250.787 85.737 251.14C85.2636 251.493 84.8836 251.977 84.597 252.59V255.41C84.8836 256.023 85.2636 256.507 85.737 256.86C86.217 257.213 86.7536 257.39 87.347 257.39ZM99.3626 259.13C98.1759 259.13 97.2726 258.83 96.6526 258.23C96.0326 257.63 95.7226 256.707 95.7226 255.46V250.74H93.7626V249H95.7226V246.02H97.7226V249H101.093V250.74H97.7226V255.19C97.7226 255.977 97.8859 256.523 98.2126 256.83C98.5392 257.137 99.0226 257.29 99.6626 257.29C99.9692 257.29 100.243 257.277 100.483 257.25C100.729 257.223 100.983 257.19 101.243 257.15V258.9C100.976 258.967 100.676 259.02 100.343 259.06C100.009 259.107 99.6826 259.13 99.3626 259.13ZM103.98 263.44C103.693 263.44 103.423 263.417 103.17 263.37V261.57C103.383 261.603 103.57 261.62 103.73 261.62C104.43 261.62 105 261.42 105.44 261.02C105.88 260.627 106.267 260.047 106.6 259.28C105.78 257.633 105.01 255.947 104.29 254.22C103.57 252.493 102.883 250.753 102.23 249H104.55C104.977 250.34 105.437 251.68 105.93 253.02C106.43 254.353 106.96 255.673 107.52 256.98L110.25 249H112.43L108.52 259.31C108.02 260.63 107.427 261.647 106.74 262.36C106.053 263.08 105.133 263.44 103.98 263.44Z" fill="#2C749E"/>
<path d="M145.841 112.24C144.528 112.24 143.388 112.007 142.421 111.54C141.455 111.067 140.648 110.387 140.001 109.5L141.541 108.1C142.108 108.847 142.745 109.397 143.451 109.75C144.165 110.103 144.958 110.28 145.831 110.28H146.081C147.128 110.28 147.918 110.1 148.451 109.74C148.985 109.38 149.251 108.88 149.251 108.24C149.251 107.747 149.108 107.363 148.821 107.09C148.541 106.817 148.201 106.61 147.801 106.47C147.401 106.33 147.021 106.223 146.661 106.15L144.391 105.67C144.005 105.59 143.585 105.473 143.131 105.32C142.685 105.167 142.258 104.953 141.851 104.68C141.445 104.4 141.111 104.037 140.851 103.59C140.591 103.143 140.461 102.587 140.461 101.92C140.461 101.087 140.678 100.36 141.111 99.74C141.551 99.1133 142.168 98.6267 142.961 98.28C143.755 97.9333 144.685 97.76 145.751 97.76H146.001C148.241 97.76 149.965 98.6267 151.171 100.36L149.651 101.62C149.105 100.9 148.528 100.403 147.921 100.13C147.315 99.8567 146.661 99.72 145.961 99.72H145.711C144.798 99.72 144.058 99.9033 143.491 100.27C142.925 100.63 142.641 101.123 142.641 101.75C142.641 102.157 142.751 102.483 142.971 102.73C143.191 102.97 143.485 103.157 143.851 103.29C144.225 103.423 144.628 103.537 145.061 103.63L147.331 104.11C147.645 104.177 148.028 104.28 148.481 104.42C148.941 104.56 149.395 104.773 149.841 105.06C150.295 105.34 150.671 105.723 150.971 106.21C151.278 106.697 151.431 107.32 151.431 108.08C151.431 108.947 151.211 109.69 150.771 110.31C150.331 110.93 149.711 111.407 148.911 111.74C148.111 112.073 147.171 112.24 146.091 112.24H145.841ZM157.995 112.13C156.809 112.13 155.905 111.83 155.285 111.23C154.665 110.63 154.355 109.707 154.355 108.46V103.74H152.395V102H154.355V99.02H156.355V102H159.725V103.74H156.355V108.19C156.355 108.977 156.519 109.523 156.845 109.83C157.172 110.137 157.655 110.29 158.295 110.29C158.602 110.29 158.875 110.277 159.115 110.25C159.362 110.223 159.615 110.19 159.875 110.15V111.9C159.609 111.967 159.309 112.02 158.975 112.06C158.642 112.107 158.315 112.13 157.995 112.13ZM164.653 112.2C163.6 112.2 162.78 111.93 162.193 111.39C161.613 110.843 161.323 110.127 161.323 109.24C161.323 108.36 161.65 107.623 162.303 107.03C162.963 106.437 164.013 106.14 165.453 106.14H168.173V106.11C168.173 104.43 167.4 103.59 165.853 103.59C165.206 103.59 164.66 103.707 164.213 103.94C163.773 104.173 163.416 104.5 163.143 104.92L161.773 103.81C162.2 103.15 162.76 102.643 163.453 102.29C164.153 101.937 164.946 101.76 165.833 101.76H166.053C167.28 101.76 168.266 102.113 169.013 102.82C169.76 103.527 170.133 104.583 170.133 105.99V112H168.213V110.37C167.826 110.957 167.33 111.41 166.723 111.73C166.116 112.043 165.426 112.2 164.653 112.2ZM165.093 110.42C165.866 110.42 166.51 110.247 167.023 109.9C167.536 109.547 167.92 109.07 168.173 108.47V107.71H165.533C164.746 107.71 164.183 107.837 163.843 108.09C163.51 108.337 163.343 108.673 163.343 109.1C163.343 109.98 163.926 110.42 165.093 110.42ZM172.909 112V102H174.909V103.52C175.576 102.347 176.493 101.76 177.659 101.76C177.979 101.76 178.269 101.787 178.529 101.84V103.86C178.369 103.84 178.196 103.823 178.009 103.81C177.829 103.797 177.653 103.79 177.479 103.79C176.819 103.79 176.279 103.98 175.859 104.36C175.439 104.74 175.123 105.26 174.909 105.92V112H172.909ZM185.261 112.13C184.074 112.13 183.171 111.83 182.551 111.23C181.931 110.63 181.621 109.707 181.621 108.46V103.74H179.661V102H181.621V99.02H183.621V102H186.991V103.74H183.621V108.19C183.621 108.977 183.784 109.523 184.111 109.83C184.438 110.137 184.921 110.29 185.561 110.29C185.868 110.29 186.141 110.277 186.381 110.25C186.628 110.223 186.881 110.19 187.141 110.15V111.9C186.874 111.967 186.574 112.02 186.241 112.06C185.908 112.107 185.581 112.13 185.261 112.13ZM139.734 138.13C138.547 138.13 137.644 137.83 137.024 137.23C136.404 136.63 136.094 135.707 136.094 134.46V129.74H134.134V128H136.094V125.02H138.094V128H141.464V129.74H138.094V134.19C138.094 134.977 138.257 135.523 138.584 135.83C138.91 136.137 139.394 136.29 140.034 136.29C140.34 136.29 140.614 136.277 140.854 136.25C141.1 136.223 141.354 136.19 141.614 136.15V137.9C141.347 137.967 141.047 138.02 140.714 138.06C140.38 138.107 140.054 138.13 139.734 138.13ZM144.351 142.44C144.065 142.44 143.795 142.417 143.541 142.37V140.57C143.755 140.603 143.941 140.62 144.101 140.62C144.801 140.62 145.371 140.42 145.811 140.02C146.251 139.627 146.638 139.047 146.971 138.28C146.151 136.633 145.381 134.947 144.661 133.22C143.941 131.493 143.255 129.753 142.601 128H144.921C145.348 129.34 145.808 130.68 146.301 132.02C146.801 133.353 147.331 134.673 147.891 135.98L150.621 128H152.801L148.891 138.31C148.391 139.63 147.798 140.647 147.111 141.36C146.425 142.08 145.505 142.44 144.351 142.44ZM154.726 142.2V128H156.726V129.57C157.073 128.97 157.526 128.52 158.086 128.22C158.646 127.913 159.269 127.76 159.956 127.76H160.176C161.063 127.76 161.836 127.987 162.496 128.44C163.163 128.887 163.679 129.507 164.046 130.3C164.413 131.087 164.596 131.987 164.596 133C164.596 134.013 164.413 134.917 164.046 135.71C163.679 136.497 163.163 137.117 162.496 137.57C161.836 138.017 161.063 138.24 160.176 138.24H159.956C159.296 138.24 158.683 138.1 158.116 137.82C157.556 137.533 157.093 137.11 156.726 136.55V142.2H154.726ZM159.476 136.39H159.676C160.549 136.39 161.243 136.097 161.756 135.51C162.269 134.923 162.526 134.087 162.526 133C162.526 131.913 162.269 131.077 161.756 130.49C161.243 129.903 160.549 129.61 159.676 129.61H159.476C158.883 129.61 158.346 129.787 157.866 130.14C157.393 130.493 157.013 130.977 156.726 131.59V134.41C157.013 135.023 157.393 135.507 157.866 135.86C158.346 136.213 158.883 136.39 159.476 136.39ZM167.991 126.22C167.585 126.22 167.261 126.097 167.021 125.85C166.788 125.597 166.671 125.277 166.671 124.89C166.671 124.497 166.788 124.177 167.021 123.93C167.261 123.683 167.585 123.56 167.991 123.56C168.405 123.56 168.728 123.683 168.961 123.93C169.195 124.177 169.311 124.497 169.311 124.89C169.311 125.277 169.195 125.597 168.961 125.85C168.728 126.097 168.405 126.22 167.991 126.22ZM166.991 138V128H168.991V138H166.991ZM171.933 138V128H173.933V129.67C174.3 129.077 174.756 128.61 175.303 128.27C175.856 127.93 176.496 127.76 177.223 127.76H177.443C178.55 127.76 179.416 128.15 180.043 128.93C180.676 129.71 180.993 130.807 180.993 132.22V138H178.993V132.46C178.993 130.567 178.306 129.62 176.933 129.62H176.733C176.053 129.62 175.473 129.83 174.993 130.25C174.52 130.67 174.166 131.2 173.933 131.84V138H171.933ZM187.419 134.98C186.952 134.98 186.512 134.933 186.099 134.84C185.832 135.14 185.699 135.417 185.699 135.67C185.699 136.17 186.089 136.42 186.869 136.42H189.229C190.382 136.42 191.262 136.65 191.869 137.11C192.482 137.57 192.789 138.227 192.789 139.08C192.789 140.147 192.305 140.973 191.339 141.56C190.379 142.147 189.029 142.44 187.289 142.44C185.822 142.44 184.689 142.22 183.889 141.78C183.089 141.347 182.689 140.717 182.689 139.89C182.689 138.877 183.332 138.083 184.619 137.51C184.245 137.157 184.059 136.73 184.059 136.23C184.059 135.597 184.342 134.977 184.909 134.37C183.822 133.723 183.279 132.723 183.279 131.37C183.279 130.297 183.642 129.427 184.369 128.76C185.102 128.093 186.119 127.76 187.419 127.76H187.599C188.079 127.76 188.519 127.81 188.919 127.91C189.325 128.01 189.692 128.153 190.019 128.34C190.412 127.58 191.115 127.2 192.129 127.2C192.362 127.2 192.622 127.227 192.909 127.28V128.91C192.715 128.857 192.549 128.823 192.409 128.81C192.269 128.797 192.149 128.79 192.049 128.79C191.549 128.79 191.179 128.893 190.939 129.1C191.472 129.72 191.739 130.477 191.739 131.37C191.739 132.437 191.372 133.307 190.639 133.98C189.912 134.647 188.899 134.98 187.599 134.98H187.419ZM187.429 133.33H187.589C188.302 133.33 188.849 133.153 189.229 132.8C189.615 132.44 189.809 131.963 189.809 131.37C189.809 130.777 189.615 130.303 189.229 129.95C188.849 129.59 188.302 129.41 187.589 129.41H187.429C186.715 129.41 186.165 129.59 185.779 129.95C185.399 130.303 185.209 130.777 185.209 131.37C185.209 131.963 185.399 132.44 185.779 132.8C186.165 133.153 186.715 133.33 187.429 133.33ZM184.649 139.5C184.649 140.367 185.589 140.8 187.469 140.8C188.562 140.8 189.395 140.653 189.969 140.36C190.542 140.067 190.829 139.677 190.829 139.19C190.829 138.47 190.222 138.11 189.009 138.11H186.309C186.229 138.11 186.149 138.107 186.069 138.1C185.622 138.24 185.272 138.43 185.019 138.67C184.772 138.917 184.649 139.193 184.649 139.5Z" fill="#2C749E"/>
<path d="M434.251 50V36H440.111C441.864 36 443.174 36.42 444.041 37.26C444.907 38.0933 445.341 39.2267 445.341 40.66C445.341 42.0867 444.907 43.22 444.041 44.06C443.174 44.9 441.864 45.32 440.111 45.32H436.351V50H434.251ZM439.911 37.96H436.351V43.36H439.911C441.051 43.36 441.881 43.1367 442.401 42.69C442.927 42.2367 443.191 41.56 443.191 40.66C443.191 39.76 442.927 39.0867 442.401 38.64C441.881 38.1867 441.051 37.96 439.911 37.96ZM447.745 50V40H449.745V41.52C450.412 40.3467 451.329 39.76 452.495 39.76C452.815 39.76 453.105 39.7867 453.365 39.84V41.86C453.205 41.84 453.032 41.8233 452.845 41.81C452.665 41.7967 452.489 41.79 452.315 41.79C451.655 41.79 451.115 41.98 450.695 42.36C450.275 42.74 449.959 43.26 449.745 43.92V50H447.745ZM459.574 50.24C458.614 50.24 457.771 50.02 457.044 49.58C456.324 49.14 455.761 48.5267 455.354 47.74C454.954 46.9533 454.754 46.0433 454.754 45.01C454.754 43.9767 454.954 43.0667 455.354 42.28C455.761 41.4867 456.324 40.87 457.044 40.43C457.771 39.9833 458.614 39.76 459.574 39.76H459.794C460.667 39.76 461.434 39.9767 462.094 40.41C462.761 40.8367 463.281 41.4567 463.654 42.27C464.027 43.0767 464.214 44.05 464.214 45.19V45.8H456.824C456.944 46.62 457.251 47.2667 457.744 47.74C458.244 48.2067 458.894 48.44 459.694 48.44H459.894C460.374 48.44 460.834 48.3433 461.274 48.15C461.714 47.95 462.084 47.6833 462.384 47.35L463.614 48.65C463.161 49.1367 462.601 49.5233 461.934 49.81C461.274 50.0967 460.561 50.24 459.794 50.24H459.574ZM459.514 41.56C458.801 41.56 458.204 41.7967 457.724 42.27C457.251 42.7367 456.951 43.3767 456.824 44.19H462.204C462.144 43.45 461.901 42.8267 461.474 42.32C461.054 41.8133 460.467 41.56 459.714 41.56H459.514ZM470.164 50.24C469.157 50.24 468.291 50.0767 467.564 49.75C466.837 49.4233 466.231 48.9367 465.744 48.29L467.104 47.04C467.824 48.0067 468.837 48.49 470.144 48.49H470.344C471.004 48.49 471.514 48.39 471.874 48.19C472.241 47.9833 472.424 47.6867 472.424 47.3C472.424 46.98 472.304 46.7167 472.064 46.51C471.831 46.3033 471.401 46.1367 470.774 46.01L469.064 45.65C467.077 45.2367 466.084 44.31 466.084 42.87C466.084 41.9367 466.447 41.1867 467.174 40.62C467.901 40.0467 468.864 39.76 470.064 39.76H470.284C471.991 39.76 473.301 40.3933 474.214 41.66L472.854 42.79C472.507 42.33 472.117 42.0033 471.684 41.81C471.257 41.61 470.784 41.51 470.264 41.51H470.064C469.471 41.51 468.987 41.6133 468.614 41.82C468.247 42.0267 468.064 42.32 468.064 42.7C468.064 42.9867 468.177 43.2167 468.404 43.39C468.637 43.5567 469.027 43.7 469.574 43.82L471.574 44.25C472.434 44.4367 473.121 44.77 473.634 45.25C474.147 45.7233 474.404 46.3667 474.404 47.18C474.404 48.0667 474.061 48.8 473.374 49.38C472.694 49.9533 471.697 50.24 470.384 50.24H470.164ZM480.242 50.24C479.235 50.24 478.369 50.0767 477.642 49.75C476.915 49.4233 476.309 48.9367 475.822 48.29L477.182 47.04C477.902 48.0067 478.915 48.49 480.222 48.49H480.422C481.082 48.49 481.592 48.39 481.952 48.19C482.319 47.9833 482.502 47.6867 482.502 47.3C482.502 46.98 482.382 46.7167 482.142 46.51C481.909 46.3033 481.479 46.1367 480.852 46.01L479.142 45.65C477.155 45.2367 476.162 44.31 476.162 42.87C476.162 41.9367 476.525 41.1867 477.252 40.62C477.979 40.0467 478.942 39.76 480.142 39.76H480.362C482.069 39.76 483.379 40.3933 484.292 41.66L482.932 42.79C482.585 42.33 482.195 42.0033 481.762 41.81C481.335 41.61 480.862 41.51 480.342 41.51H480.142C479.549 41.51 479.065 41.6133 478.692 41.82C478.325 42.0267 478.142 42.32 478.142 42.7C478.142 42.9867 478.255 43.2167 478.482 43.39C478.715 43.5567 479.105 43.7 479.652 43.82L481.652 44.25C482.512 44.4367 483.199 44.77 483.712 45.25C484.225 45.7233 484.482 46.3667 484.482 47.18C484.482 48.0667 484.139 48.8 483.452 49.38C482.772 49.9533 481.775 50.24 480.462 50.24H480.242ZM494.715 50.24C493.708 50.24 492.841 50.0767 492.115 49.75C491.388 49.4233 490.781 48.9367 490.295 48.29L491.655 47.04C492.375 48.0067 493.388 48.49 494.695 48.49H494.895C495.555 48.49 496.065 48.39 496.425 48.19C496.791 47.9833 496.975 47.6867 496.975 47.3C496.975 46.98 496.855 46.7167 496.615 46.51C496.381 46.3033 495.951 46.1367 495.325 46.01L493.615 45.65C491.628 45.2367 490.635 44.31 490.635 42.87C490.635 41.9367 490.998 41.1867 491.725 40.62C492.451 40.0467 493.415 39.76 494.615 39.76H494.835C496.541 39.76 497.851 40.3933 498.765 41.66L497.405 42.79C497.058 42.33 496.668 42.0033 496.235 41.81C495.808 41.61 495.335 41.51 494.815 41.51H494.615C494.021 41.51 493.538 41.6133 493.165 41.82C492.798 42.0267 492.615 42.32 492.615 42.7C492.615 42.9867 492.728 43.2167 492.955 43.39C493.188 43.5567 493.578 43.7 494.125 43.82L496.125 44.25C496.985 44.4367 497.671 44.77 498.185 45.25C498.698 45.7233 498.955 46.3667 498.955 47.18C498.955 48.0667 498.611 48.8 497.925 49.38C497.245 49.9533 496.248 50.24 494.935 50.24H494.715ZM504.563 50.24C503.41 50.24 502.53 49.85 501.923 49.07C501.316 48.29 501.013 47.1933 501.013 45.78V40H503.013V45.54C503.013 47.4333 503.7 48.38 505.073 48.38H505.273C505.953 48.38 506.53 48.17 507.003 47.75C507.483 47.33 507.84 46.8 508.073 46.16V40H510.073V50H508.073V48.33C507.706 48.9233 507.246 49.39 506.693 49.73C506.146 50.07 505.51 50.24 504.783 50.24H504.563ZM513.019 50V35.4H515.019V41.57C515.365 40.97 515.819 40.52 516.379 40.22C516.939 39.9133 517.562 39.76 518.249 39.76H518.469C519.355 39.76 520.129 39.9867 520.789 40.44C521.455 40.8867 521.972 41.5067 522.339 42.3C522.705 43.0867 522.889 43.9867 522.889 45C522.889 46.0133 522.705 46.9167 522.339 47.71C521.972 48.4967 521.455 49.1167 520.789 49.57C520.129 50.0167 519.355 50.24 518.469 50.24H518.249C517.589 50.24 516.975 50.1 516.409 49.82C515.849 49.5333 515.385 49.11 515.019 48.55V50H513.019ZM517.769 48.39H517.969C518.842 48.39 519.535 48.0967 520.049 47.51C520.562 46.9233 520.819 46.0867 520.819 45C520.819 43.9133 520.562 43.0767 520.049 42.49C519.535 41.9033 518.842 41.61 517.969 41.61H517.769C517.175 41.61 516.639 41.7867 516.159 42.14C515.685 42.4933 515.305 42.9767 515.019 43.59V46.41C515.305 47.0233 515.685 47.5067 516.159 47.86C516.639 48.2133 517.175 48.39 517.769 48.39ZM525.284 50V40H527.284V41.64C527.644 41.0533 528.091 40.5933 528.624 40.26C529.158 39.9267 529.774 39.76 530.474 39.76H530.694C531.468 39.76 532.118 39.95 532.644 40.33C533.171 40.71 533.561 41.2567 533.814 41.97C534.201 41.2833 534.694 40.7433 535.294 40.35C535.894 39.9567 536.574 39.76 537.334 39.76H537.554C538.674 39.76 539.528 40.15 540.114 40.93C540.708 41.71 541.004 42.8067 541.004 44.22V50H539.004V44.46C539.004 42.5667 538.351 41.62 537.044 41.62H536.844C536.184 41.62 535.624 41.83 535.164 42.25C534.711 42.6633 534.371 43.1867 534.144 43.82V50H532.144V44.46C532.144 42.5667 531.491 41.62 530.184 41.62H529.984C529.324 41.62 528.764 41.83 528.304 42.25C527.851 42.6633 527.511 43.1867 527.284 43.82V50H525.284ZM544.781 38.22C544.374 38.22 544.051 38.0967 543.811 37.85C543.577 37.5967 543.461 37.2767 543.461 36.89C543.461 36.4967 543.577 36.1767 543.811 35.93C544.051 35.6833 544.374 35.56 544.781 35.56C545.194 35.56 545.517 35.6833 545.751 35.93C545.984 36.1767 546.101 36.4967 546.101 36.89C546.101 37.2767 545.984 37.5967 545.751 37.85C545.517 38.0967 545.194 38.22 544.781 38.22ZM543.781 50V40H545.781V50H543.781ZM553.222 50.13C552.035 50.13 551.132 49.83 550.512 49.23C549.892 48.63 549.582 47.7067 549.582 46.46V41.74H547.622V40H549.582V37.02H551.582V40H554.952V41.74H551.582V46.19C551.582 46.9767 551.745 47.5233 552.072 47.83C552.399 48.1367 552.882 48.29 553.522 48.29C553.829 48.29 554.102 48.2767 554.342 48.25C554.589 48.2233 554.842 48.19 555.102 48.15V49.9C554.835 49.9667 554.535 50.02 554.202 50.06C553.869 50.1067 553.542 50.13 553.222 50.13Z" fill="#2C749E"/>
<path d="M505.905 192V178H508.245L515.545 189.02V178H517.575V192H515.235L507.935 180.98V192H505.905ZM525.252 192.24C524.292 192.24 523.448 192.02 522.722 191.58C522.002 191.14 521.438 190.527 521.032 189.74C520.632 188.953 520.432 188.043 520.432 187.01C520.432 185.977 520.632 185.067 521.032 184.28C521.438 183.487 522.002 182.87 522.722 182.43C523.448 181.983 524.292 181.76 525.252 181.76H525.472C526.345 181.76 527.112 181.977 527.772 182.41C528.438 182.837 528.958 183.457 529.332 184.27C529.705 185.077 529.892 186.05 529.892 187.19V187.8H522.502C522.622 188.62 522.928 189.267 523.422 189.74C523.922 190.207 524.572 190.44 525.372 190.44H525.572C526.052 190.44 526.512 190.343 526.952 190.15C527.392 189.95 527.762 189.683 528.062 189.35L529.292 190.65C528.838 191.137 528.278 191.523 527.612 191.81C526.952 192.097 526.238 192.24 525.472 192.24H525.252ZM525.192 183.56C524.478 183.56 523.882 183.797 523.402 184.27C522.928 184.737 522.628 185.377 522.502 186.19H527.882C527.822 185.45 527.578 184.827 527.152 184.32C526.732 183.813 526.145 183.56 525.392 183.56H525.192ZM536.732 192.13C535.545 192.13 534.642 191.83 534.022 191.23C533.402 190.63 533.092 189.707 533.092 188.46V183.74H531.132V182H533.092V179.02H535.092V182H538.462V183.74H535.092V188.19C535.092 188.977 535.255 189.523 535.582 189.83C535.908 190.137 536.392 190.29 537.032 190.29C537.338 190.29 537.612 190.277 537.852 190.25C538.098 190.223 538.352 190.19 538.612 190.15V191.9C538.345 191.967 538.045 192.02 537.712 192.06C537.378 192.107 537.052 192.13 536.732 192.13ZM542.979 192C542.379 190.393 541.813 188.753 541.279 187.08C540.753 185.4 540.259 183.707 539.799 182H541.999C542.326 183.38 542.683 184.76 543.069 186.14C543.456 187.52 543.863 188.883 544.289 190.23L546.479 182.62H548.599L550.799 190.26C551.226 188.913 551.633 187.547 552.019 186.16C552.413 184.773 552.773 183.387 553.099 182H555.239C554.779 183.707 554.283 185.4 553.749 187.08C553.223 188.753 552.659 190.393 552.059 192H549.549L547.529 184.96L545.499 192H542.979ZM561.359 192.24C560.346 192.24 559.463 192.017 558.709 191.57C557.963 191.117 557.386 190.497 556.979 189.71C556.573 188.917 556.369 188.013 556.369 187C556.369 185.98 556.573 185.077 556.979 184.29C557.386 183.503 557.963 182.887 558.709 182.44C559.463 181.987 560.346 181.76 561.359 181.76H561.579C562.599 181.76 563.483 181.987 564.229 182.44C564.976 182.887 565.553 183.503 565.959 184.29C566.366 185.077 566.569 185.98 566.569 187C566.569 188.013 566.366 188.917 565.959 189.71C565.553 190.497 564.976 191.117 564.229 191.57C563.483 192.017 562.599 192.24 561.579 192.24H561.359ZM561.369 190.38H561.569C562.483 190.38 563.199 190.073 563.719 189.46C564.239 188.847 564.499 188.027 564.499 187C564.499 185.967 564.239 185.147 563.719 184.54C563.199 183.927 562.483 183.62 561.569 183.62H561.369C560.463 183.62 559.746 183.927 559.219 184.54C558.699 185.147 558.439 185.967 558.439 187C558.439 188.027 558.699 188.847 559.219 189.46C559.746 190.073 560.463 190.38 561.369 190.38ZM568.95 192V182H570.95V183.52C571.617 182.347 572.534 181.76 573.7 181.76C574.02 181.76 574.31 181.787 574.57 181.84V183.86C574.41 183.84 574.237 183.823 574.05 183.81C573.87 183.797 573.694 183.79 573.52 183.79C572.86 183.79 572.32 183.98 571.9 184.36C571.48 184.74 571.164 185.26 570.95 185.92V192H568.95ZM576.509 192V177.4H578.509V186.28C579.309 185.58 580.089 184.867 580.849 184.14C581.609 183.413 582.312 182.7 582.959 182H585.429C584.689 182.813 583.909 183.613 583.089 184.4C582.276 185.187 581.439 185.95 580.579 186.69C581.459 187.47 582.352 188.313 583.259 189.22C584.172 190.127 585.056 191.053 585.909 192H583.299C582.572 191.2 581.786 190.373 580.939 189.52C580.092 188.66 579.282 187.893 578.509 187.22V192H576.509ZM527.761 218.24C526.801 218.24 525.958 218.02 525.231 217.58C524.511 217.14 523.948 216.527 523.541 215.74C523.141 214.953 522.941 214.043 522.941 213.01C522.941 211.977 523.141 211.067 523.541 210.28C523.948 209.487 524.511 208.87 525.231 208.43C525.958 207.983 526.801 207.76 527.761 207.76H527.981C528.855 207.76 529.621 207.977 530.281 208.41C530.948 208.837 531.468 209.457 531.841 210.27C532.215 211.077 532.401 212.05 532.401 213.19V213.8H525.011C525.131 214.62 525.438 215.267 525.931 215.74C526.431 216.207 527.081 216.44 527.881 216.44H528.081C528.561 216.44 529.021 216.343 529.461 216.15C529.901 215.95 530.271 215.683 530.571 215.35L531.801 216.65C531.348 217.137 530.788 217.523 530.121 217.81C529.461 218.097 528.748 218.24 527.981 218.24H527.761ZM527.701 209.56C526.988 209.56 526.391 209.797 525.911 210.27C525.438 210.737 525.138 211.377 525.011 212.19H530.391C530.331 211.45 530.088 210.827 529.661 210.32C529.241 209.813 528.655 209.56 527.901 209.56H527.701ZM534.741 218V208H536.741V209.52C537.408 208.347 538.325 207.76 539.491 207.76C539.811 207.76 540.101 207.787 540.361 207.84V209.86C540.201 209.84 540.028 209.823 539.841 209.81C539.661 209.797 539.485 209.79 539.311 209.79C538.651 209.79 538.111 209.98 537.691 210.36C537.271 210.74 536.955 211.26 536.741 211.92V218H534.741ZM542.3 218V208H544.3V209.52C544.967 208.347 545.883 207.76 547.05 207.76C547.37 207.76 547.66 207.787 547.92 207.84V209.86C547.76 209.84 547.587 209.823 547.4 209.81C547.22 209.797 547.043 209.79 546.87 209.79C546.21 209.79 545.67 209.98 545.25 210.36C544.83 210.74 544.513 211.26 544.3 211.92V218H542.3ZM554.299 218.24C553.285 218.24 552.402 218.017 551.649 217.57C550.902 217.117 550.325 216.497 549.919 215.71C549.512 214.917 549.309 214.013 549.309 213C549.309 211.98 549.512 211.077 549.919 210.29C550.325 209.503 550.902 208.887 551.649 208.44C552.402 207.987 553.285 207.76 554.299 207.76H554.519C555.539 207.76 556.422 207.987 557.169 208.44C557.915 208.887 558.492 209.503 558.899 210.29C559.305 211.077 559.509 211.98 559.509 213C559.509 214.013 559.305 214.917 558.899 215.71C558.492 216.497 557.915 217.117 557.169 217.57C556.422 218.017 555.539 218.24 554.519 218.24H554.299ZM554.309 216.38H554.509C555.422 216.38 556.139 216.073 556.659 215.46C557.179 214.847 557.439 214.027 557.439 213C557.439 211.967 557.179 211.147 556.659 210.54C556.139 209.927 555.422 209.62 554.509 209.62H554.309C553.402 209.62 552.685 209.927 552.159 210.54C551.639 211.147 551.379 211.967 551.379 213C551.379 214.027 551.639 214.847 552.159 215.46C552.685 216.073 553.402 216.38 554.309 216.38ZM561.89 218V208H563.89V209.52C564.557 208.347 565.473 207.76 566.64 207.76C566.96 207.76 567.25 207.787 567.51 207.84V209.86C567.35 209.84 567.177 209.823 566.99 209.81C566.81 209.797 566.633 209.79 566.46 209.79C565.8 209.79 565.26 209.98 564.84 210.36C564.42 210.74 564.103 211.26 563.89 211.92V218H561.89Z" fill="#2C749E"/>
<path d="M734.405 192V178H736.745L744.045 189.02V178H746.075V192H743.735L736.435 180.98V192H734.405ZM753.752 192.24C752.792 192.24 751.948 192.02 751.222 191.58C750.502 191.14 749.938 190.527 749.532 189.74C749.132 188.953 748.932 188.043 748.932 187.01C748.932 185.977 749.132 185.067 749.532 184.28C749.938 183.487 750.502 182.87 751.222 182.43C751.948 181.983 752.792 181.76 753.752 181.76H753.972C754.845 181.76 755.612 181.977 756.272 182.41C756.938 182.837 757.458 183.457 757.832 184.27C758.205 185.077 758.392 186.05 758.392 187.19V187.8H751.002C751.122 188.62 751.428 189.267 751.922 189.74C752.422 190.207 753.072 190.44 753.872 190.44H754.072C754.552 190.44 755.012 190.343 755.452 190.15C755.892 189.95 756.262 189.683 756.562 189.35L757.792 190.65C757.338 191.137 756.778 191.523 756.112 191.81C755.452 192.097 754.738 192.24 753.972 192.24H753.752ZM753.692 183.56C752.978 183.56 752.382 183.797 751.902 184.27C751.428 184.737 751.128 185.377 751.002 186.19H756.382C756.322 185.45 756.078 184.827 755.652 184.32C755.232 183.813 754.645 183.56 753.892 183.56H753.692ZM765.232 192.13C764.045 192.13 763.142 191.83 762.522 191.23C761.902 190.63 761.592 189.707 761.592 188.46V183.74H759.632V182H761.592V179.02H763.592V182H766.962V183.74H763.592V188.19C763.592 188.977 763.755 189.523 764.082 189.83C764.408 190.137 764.892 190.29 765.532 190.29C765.838 190.29 766.112 190.277 766.352 190.25C766.598 190.223 766.852 190.19 767.112 190.15V191.9C766.845 191.967 766.545 192.02 766.212 192.06C765.878 192.107 765.552 192.13 765.232 192.13ZM771.479 192C770.879 190.393 770.313 188.753 769.779 187.08C769.253 185.4 768.759 183.707 768.299 182H770.499C770.826 183.38 771.183 184.76 771.569 186.14C771.956 187.52 772.363 188.883 772.789 190.23L774.979 182.62H777.099L779.299 190.26C779.726 188.913 780.133 187.547 780.519 186.16C780.913 184.773 781.273 183.387 781.599 182H783.739C783.279 183.707 782.783 185.4 782.249 187.08C781.723 188.753 781.159 190.393 780.559 192H778.049L776.029 184.96L773.999 192H771.479ZM789.859 192.24C788.846 192.24 787.963 192.017 787.209 191.57C786.463 191.117 785.886 190.497 785.479 189.71C785.073 188.917 784.869 188.013 784.869 187C784.869 185.98 785.073 185.077 785.479 184.29C785.886 183.503 786.463 182.887 787.209 182.44C787.963 181.987 788.846 181.76 789.859 181.76H790.079C791.099 181.76 791.983 181.987 792.729 182.44C793.476 182.887 794.053 183.503 794.459 184.29C794.866 185.077 795.069 185.98 795.069 187C795.069 188.013 794.866 188.917 794.459 189.71C794.053 190.497 793.476 191.117 792.729 191.57C791.983 192.017 791.099 192.24 790.079 192.24H789.859ZM789.869 190.38H790.069C790.983 190.38 791.699 190.073 792.219 189.46C792.739 188.847 792.999 188.027 792.999 187C792.999 185.967 792.739 185.147 792.219 184.54C791.699 183.927 790.983 183.62 790.069 183.62H789.869C788.963 183.62 788.246 183.927 787.719 184.54C787.199 185.147 786.939 185.967 786.939 187C786.939 188.027 787.199 188.847 787.719 189.46C788.246 190.073 788.963 190.38 789.869 190.38ZM797.45 192V182H799.45V183.52C800.117 182.347 801.034 181.76 802.2 181.76C802.52 181.76 802.81 181.787 803.07 181.84V183.86C802.91 183.84 802.737 183.823 802.55 183.81C802.37 183.797 802.194 183.79 802.02 183.79C801.36 183.79 800.82 183.98 800.4 184.36C799.98 184.74 799.664 185.26 799.45 185.92V192H797.45ZM805.009 192V177.4H807.009V186.28C807.809 185.58 808.589 184.867 809.349 184.14C810.109 183.413 810.812 182.7 811.459 182H813.929C813.189 182.813 812.409 183.613 811.589 184.4C810.776 185.187 809.939 185.95 809.079 186.69C809.959 187.47 810.852 188.313 811.759 189.22C812.672 190.127 813.556 191.053 814.409 192H811.799C811.072 191.2 810.286 190.373 809.439 189.52C808.592 188.66 807.782 187.893 807.009 187.22V192H805.009ZM741.275 218.24C740.269 218.24 739.402 218.077 738.675 217.75C737.949 217.423 737.342 216.937 736.855 216.29L738.215 215.04C738.935 216.007 739.949 216.49 741.255 216.49H741.455C742.115 216.49 742.625 216.39 742.985 216.19C743.352 215.983 743.535 215.687 743.535 215.3C743.535 214.98 743.415 214.717 743.175 214.51C742.942 214.303 742.512 214.137 741.885 214.01L740.175 213.65C738.189 213.237 737.195 212.31 737.195 210.87C737.195 209.937 737.559 209.187 738.285 208.62C739.012 208.047 739.975 207.76 741.175 207.76H741.395C743.102 207.76 744.412 208.393 745.325 209.66L743.965 210.79C743.619 210.33 743.229 210.003 742.795 209.81C742.369 209.61 741.895 209.51 741.375 209.51H741.175C740.582 209.51 740.099 209.613 739.725 209.82C739.359 210.027 739.175 210.32 739.175 210.7C739.175 210.987 739.289 211.217 739.515 211.39C739.749 211.557 740.139 211.7 740.685 211.82L742.685 212.25C743.545 212.437 744.232 212.77 744.745 213.25C745.259 213.723 745.515 214.367 745.515 215.18C745.515 216.067 745.172 216.8 744.485 217.38C743.805 217.953 742.809 218.24 741.495 218.24H741.275ZM751.123 218.24C749.97 218.24 749.09 217.85 748.483 217.07C747.877 216.29 747.573 215.193 747.573 213.78V208H749.573V213.54C749.573 215.433 750.26 216.38 751.633 216.38H751.833C752.513 216.38 753.09 216.17 753.563 215.75C754.043 215.33 754.4 214.8 754.633 214.16V208H756.633V218H754.633V216.33C754.267 216.923 753.807 217.39 753.253 217.73C752.707 218.07 752.07 218.24 751.343 218.24H751.123ZM763.939 218.24C762.979 218.24 762.129 218.03 761.389 217.61C760.649 217.19 760.069 216.59 759.649 215.81C759.236 215.023 759.029 214.09 759.029 213.01C759.029 211.923 759.236 210.99 759.649 210.21C760.063 209.423 760.636 208.82 761.369 208.4C762.109 207.973 762.966 207.76 763.939 207.76H764.159C764.933 207.76 765.663 207.96 766.349 208.36C767.043 208.753 767.603 209.297 768.029 209.99L766.479 211.07C766.193 210.617 765.849 210.263 765.449 210.01C765.049 209.75 764.596 209.62 764.089 209.62H763.889C763.023 209.62 762.339 209.927 761.839 210.54C761.346 211.147 761.099 211.967 761.099 213C761.099 214.027 761.346 214.847 761.839 215.46C762.339 216.073 763.023 216.38 763.889 216.38H764.089C764.596 216.38 765.063 216.267 765.489 216.04C765.916 215.813 766.283 215.51 766.589 215.13L768.029 216.35C767.583 216.937 767.019 217.4 766.339 217.74C765.666 218.073 764.939 218.24 764.159 218.24H763.939ZM774.584 218.24C773.624 218.24 772.774 218.03 772.034 217.61C771.294 217.19 770.714 216.59 770.294 215.81C769.881 215.023 769.674 214.09 769.674 213.01C769.674 211.923 769.881 210.99 770.294 210.21C770.707 209.423 771.281 208.82 772.014 208.4C772.754 207.973 773.611 207.76 774.584 207.76H774.804C775.577 207.76 776.307 207.96 776.994 208.36C777.687 208.753 778.247 209.297 778.674 209.99L777.124 211.07C776.837 210.617 776.494 210.263 776.094 210.01C775.694 209.75 775.241 209.62 774.734 209.62H774.534C773.667 209.62 772.984 209.927 772.484 210.54C771.991 211.147 771.744 211.967 771.744 213C771.744 214.027 771.991 214.847 772.484 215.46C772.984 216.073 773.667 216.38 774.534 216.38H774.734C775.241 216.38 775.707 216.267 776.134 216.04C776.561 215.813 776.927 215.51 777.234 215.13L778.674 216.35C778.227 216.937 777.664 217.4 776.984 217.74C776.311 218.073 775.584 218.24 774.804 218.24H774.584ZM785.138 218.24C784.178 218.24 783.335 218.02 782.608 217.58C781.888 217.14 781.325 216.527 780.918 215.74C780.518 214.953 780.318 214.043 780.318 213.01C780.318 211.977 780.518 211.067 780.918 210.28C781.325 209.487 781.888 208.87 782.608 208.43C783.335 207.983 784.178 207.76 785.138 207.76H785.358C786.232 207.76 786.998 207.977 787.658 208.41C788.325 208.837 788.845 209.457 789.218 210.27C789.592 211.077 789.778 212.05 789.778 213.19V213.8H782.388C782.508 214.62 782.815 215.267 783.308 215.74C783.808 216.207 784.458 216.44 785.258 216.44H785.458C785.938 216.44 786.398 216.343 786.838 216.15C787.278 215.95 787.648 215.683 787.948 215.35L789.178 216.65C788.725 217.137 788.165 217.523 787.498 217.81C786.838 218.097 786.125 218.24 785.358 218.24H785.138ZM785.078 209.56C784.365 209.56 783.768 209.797 783.288 210.27C782.815 210.737 782.515 211.377 782.388 212.19H787.768C787.708 211.45 787.465 210.827 787.038 210.32C786.618 209.813 786.032 209.56 785.278 209.56H785.078ZM795.728 218.24C794.722 218.24 793.855 218.077 793.128 217.75C792.402 217.423 791.795 216.937 791.308 216.29L792.668 215.04C793.388 216.007 794.402 216.49 795.708 216.49H795.908C796.568 216.49 797.078 216.39 797.438 216.19C797.805 215.983 797.988 215.687 797.988 215.3C797.988 214.98 797.868 214.717 797.628 214.51C797.395 214.303 796.965 214.137 796.338 214.01L794.628 213.65C792.642 213.237 791.648 212.31 791.648 210.87C791.648 209.937 792.012 209.187 792.738 208.62C793.465 208.047 794.428 207.76 795.628 207.76H795.848C797.555 207.76 798.865 208.393 799.778 209.66L798.418 210.79C798.072 210.33 797.682 210.003 797.248 209.81C796.822 209.61 796.348 209.51 795.828 209.51H795.628C795.035 209.51 794.552 209.613 794.178 209.82C793.812 210.027 793.628 210.32 793.628 210.7C793.628 210.987 793.742 211.217 793.968 211.39C794.202 211.557 794.592 211.7 795.138 211.82L797.138 212.25C797.998 212.437 798.685 212.77 799.198 213.25C799.712 213.723 799.968 214.367 799.968 215.18C799.968 216.067 799.625 216.8 798.938 217.38C798.258 217.953 797.262 218.24 795.948 218.24H795.728ZM805.807 218.24C804.8 218.24 803.933 218.077 803.207 217.75C802.48 217.423 801.873 216.937 801.387 216.29L802.747 215.04C803.467 216.007 804.48 216.49 805.787 216.49H805.987C806.647 216.49 807.157 216.39 807.517 216.19C807.883 215.983 808.067 215.687 808.067 215.3C808.067 214.98 807.947 214.717 807.707 214.51C807.473 214.303 807.043 214.137 806.417 214.01L804.707 213.65C802.72 213.237 801.727 212.31 801.727 210.87C801.727 209.937 802.09 209.187 802.817 208.62C803.543 208.047 804.507 207.76 805.707 207.76H805.927C807.633 207.76 808.943 208.393 809.857 209.66L808.497 210.79C808.15 210.33 807.76 210.003 807.327 209.81C806.9 209.61 806.427 209.51 805.907 209.51H805.707C805.113 209.51 804.63 209.613 804.257 209.82C803.89 210.027 803.707 210.32 803.707 210.7C803.707 210.987 803.82 211.217 804.047 211.39C804.28 211.557 804.67 211.7 805.217 211.82L807.217 212.25C808.077 212.437 808.763 212.77 809.277 213.25C809.79 213.723 810.047 214.367 810.047 215.18C810.047 216.067 809.703 216.8 809.017 217.38C808.337 217.953 807.34 218.24 806.027 218.24H805.807Z" fill="#2C749E"/>
<circle cx="329" cy="81" r="81" fill="#E6F7FF"/>
<path d="M302.919 89V77.02H298.239V75H309.719V77.02H305.039V89H302.919ZM311.326 93.44C311.039 93.44 310.769 93.4167 310.516 93.37V91.57C310.729 91.6033 310.916 91.62 311.076 91.62C311.776 91.62 312.346 91.42 312.786 91.02C313.226 90.6267 313.612 90.0467 313.946 89.28C313.126 87.6333 312.356 85.9467 311.636 84.22C310.916 82.4933 310.229 80.7533 309.576 79H311.896C312.322 80.34 312.782 81.68 313.276 83.02C313.776 84.3533 314.306 85.6733 314.866 86.98L317.596 79H319.776L315.866 89.31C315.366 90.63 314.772 91.6467 314.086 92.36C313.399 93.08 312.479 93.44 311.326 93.44ZM321.7 93.2V79H323.7V80.57C324.047 79.97 324.5 79.52 325.06 79.22C325.62 78.9133 326.244 78.76 326.93 78.76H327.15C328.037 78.76 328.81 78.9867 329.47 79.44C330.137 79.8867 330.654 80.5067 331.02 81.3C331.387 82.0867 331.57 82.9867 331.57 84C331.57 85.0133 331.387 85.9167 331.02 86.71C330.654 87.4967 330.137 88.1167 329.47 88.57C328.81 89.0167 328.037 89.24 327.15 89.24H326.93C326.27 89.24 325.657 89.1 325.09 88.82C324.53 88.5333 324.067 88.11 323.7 87.55V93.2H321.7ZM326.45 87.39H326.65C327.524 87.39 328.217 87.0967 328.73 86.51C329.244 85.9233 329.5 85.0867 329.5 84C329.5 82.9133 329.244 82.0767 328.73 81.49C328.217 80.9033 327.524 80.61 326.65 80.61H326.45C325.857 80.61 325.32 80.7867 324.84 81.14C324.367 81.4933 323.987 81.9767 323.7 82.59V85.41C323.987 86.0233 324.367 86.5067 324.84 86.86C325.32 87.2133 325.857 87.39 326.45 87.39ZM334.966 77.22C334.559 77.22 334.236 77.0967 333.996 76.85C333.763 76.5967 333.646 76.2767 333.646 75.89C333.646 75.4967 333.763 75.1767 333.996 74.93C334.236 74.6833 334.559 74.56 334.966 74.56C335.379 74.56 335.703 74.6833 335.936 74.93C336.169 75.1767 336.286 75.4967 336.286 75.89C336.286 76.2767 336.169 76.5967 335.936 76.85C335.703 77.0967 335.379 77.22 334.966 77.22ZM333.966 89V79H335.966V89H333.966ZM338.907 89V79H340.908V80.67C341.274 80.0767 341.731 79.61 342.278 79.27C342.831 78.93 343.471 78.76 344.198 78.76H344.418C345.524 78.76 346.391 79.15 347.018 79.93C347.651 80.71 347.968 81.8067 347.968 83.22V89H345.968V83.46C345.968 81.5667 345.281 80.62 343.908 80.62H343.708C343.028 80.62 342.448 80.83 341.968 81.25C341.494 81.67 341.141 82.2 340.908 82.84V89H338.907ZM354.393 85.98C353.927 85.98 353.487 85.9333 353.073 85.84C352.807 86.14 352.673 86.4167 352.673 86.67C352.673 87.17 353.063 87.42 353.843 87.42H356.203C357.357 87.42 358.237 87.65 358.843 88.11C359.457 88.57 359.763 89.2267 359.763 90.08C359.763 91.1467 359.28 91.9733 358.313 92.56C357.353 93.1467 356.003 93.44 354.263 93.44C352.797 93.44 351.663 93.22 350.863 92.78C350.063 92.3467 349.663 91.7167 349.663 90.89C349.663 89.8767 350.307 89.0833 351.593 88.51C351.22 88.1567 351.033 87.73 351.033 87.23C351.033 86.5967 351.317 85.9767 351.883 85.37C350.797 84.7233 350.253 83.7233 350.253 82.37C350.253 81.2967 350.617 80.4267 351.343 79.76C352.077 79.0933 353.093 78.76 354.393 78.76H354.573C355.053 78.76 355.493 78.81 355.893 78.91C356.3 79.01 356.667 79.1533 356.993 79.34C357.387 78.58 358.09 78.2 359.103 78.2C359.337 78.2 359.597 78.2267 359.883 78.28V79.91C359.69 79.8567 359.523 79.8233 359.383 79.81C359.243 79.7967 359.123 79.79 359.023 79.79C358.523 79.79 358.153 79.8933 357.913 80.1C358.447 80.72 358.713 81.4767 358.713 82.37C358.713 83.4367 358.347 84.3067 357.613 84.98C356.887 85.6467 355.873 85.98 354.573 85.98H354.393ZM354.403 84.33H354.563C355.277 84.33 355.823 84.1533 356.203 83.8C356.59 83.44 356.783 82.9633 356.783 82.37C356.783 81.7767 356.59 81.3033 356.203 80.95C355.823 80.59 355.277 80.41 354.563 80.41H354.403C353.69 80.41 353.14 80.59 352.753 80.95C352.373 81.3033 352.183 81.7767 352.183 82.37C352.183 82.9633 352.373 83.44 352.753 83.8C353.14 84.1533 353.69 84.33 354.403 84.33ZM351.623 90.5C351.623 91.3667 352.563 91.8 354.443 91.8C355.537 91.8 356.37 91.6533 356.943 91.36C357.517 91.0667 357.803 90.6767 357.803 90.19C357.803 89.47 357.197 89.11 355.983 89.11H353.283C353.203 89.11 353.123 89.1067 353.043 89.1C352.597 89.24 352.247 89.43 351.993 89.67C351.747 89.9167 351.623 90.1933 351.623 90.5Z" fill="#2C749E"/>
<circle cx="664" cy="82" r="81" fill="#E6F7FF"/>
<path d="M617.933 90.24C616.62 90.24 615.48 90.0067 614.513 89.54C613.547 89.0667 612.74 88.3867 612.093 87.5L613.633 86.1C614.2 86.8467 614.837 87.3967 615.543 87.75C616.257 88.1033 617.05 88.28 617.923 88.28H618.173C619.22 88.28 620.01 88.1 620.543 87.74C621.077 87.38 621.343 86.88 621.343 86.24C621.343 85.7467 621.2 85.3633 620.913 85.09C620.633 84.8167 620.293 84.61 619.893 84.47C619.493 84.33 619.113 84.2233 618.753 84.15L616.483 83.67C616.097 83.59 615.677 83.4733 615.223 83.32C614.777 83.1667 614.35 82.9533 613.943 82.68C613.537 82.4 613.203 82.0367 612.943 81.59C612.683 81.1433 612.553 80.5867 612.553 79.92C612.553 79.0867 612.77 78.36 613.203 77.74C613.643 77.1133 614.26 76.6267 615.053 76.28C615.847 75.9333 616.777 75.76 617.843 75.76H618.093C620.333 75.76 622.057 76.6267 623.263 78.36L621.743 79.62C621.197 78.9 620.62 78.4033 620.013 78.13C619.407 77.8567 618.753 77.72 618.053 77.72H617.803C616.89 77.72 616.15 77.9033 615.583 78.27C615.017 78.63 614.733 79.1233 614.733 79.75C614.733 80.1567 614.843 80.4833 615.063 80.73C615.283 80.97 615.577 81.1567 615.943 81.29C616.317 81.4233 616.72 81.5367 617.153 81.63L619.423 82.11C619.737 82.1767 620.12 82.28 620.573 82.42C621.033 82.56 621.487 82.7733 621.933 83.06C622.387 83.34 622.763 83.7233 623.063 84.21C623.37 84.6967 623.523 85.32 623.523 86.08C623.523 86.9467 623.303 87.69 622.863 88.31C622.423 88.93 621.803 89.4067 621.003 89.74C620.203 90.0733 619.263 90.24 618.183 90.24H617.933ZM629.358 90.24C628.204 90.24 627.324 89.85 626.718 89.07C626.111 88.29 625.808 87.1933 625.808 85.78V80H627.808V85.54C627.808 87.4333 628.494 88.38 629.868 88.38H630.068C630.748 88.38 631.324 88.17 631.798 87.75C632.278 87.33 632.634 86.8 632.868 86.16V80H634.868V90H632.868V88.33C632.501 88.9233 632.041 89.39 631.488 89.73C630.941 90.07 630.304 90.24 629.578 90.24H629.358ZM637.814 90V75.4H639.814V81.57C640.16 80.97 640.614 80.52 641.174 80.22C641.734 79.9133 642.357 79.76 643.044 79.76H643.264C644.15 79.76 644.924 79.9867 645.584 80.44C646.25 80.8867 646.767 81.5067 647.134 82.3C647.5 83.0867 647.684 83.9867 647.684 85C647.684 86.0133 647.5 86.9167 647.134 87.71C646.767 88.4967 646.25 89.1167 645.584 89.57C644.924 90.0167 644.15 90.24 643.264 90.24H643.044C642.384 90.24 641.77 90.1 641.204 89.82C640.644 89.5333 640.18 89.11 639.814 88.55V90H637.814ZM642.564 88.39H642.764C643.637 88.39 644.33 88.0967 644.844 87.51C645.357 86.9233 645.614 86.0867 645.614 85C645.614 83.9133 645.357 83.0767 644.844 82.49C644.33 81.9033 643.637 81.61 642.764 81.61H642.564C641.97 81.61 641.434 81.7867 640.954 82.14C640.48 82.4933 640.1 82.9767 639.814 83.59V86.41C640.1 87.0233 640.48 87.5067 640.954 87.86C641.434 88.2133 641.97 88.39 642.564 88.39ZM650.079 90V80H652.079V81.64C652.439 81.0533 652.886 80.5933 653.419 80.26C653.953 79.9267 654.569 79.76 655.269 79.76H655.489C656.263 79.76 656.913 79.95 657.439 80.33C657.966 80.71 658.356 81.2567 658.609 81.97C658.996 81.2833 659.489 80.7433 660.089 80.35C660.689 79.9567 661.369 79.76 662.129 79.76H662.349C663.469 79.76 664.323 80.15 664.909 80.93C665.503 81.71 665.799 82.8067 665.799 84.22V90H663.799V84.46C663.799 82.5667 663.146 81.62 661.839 81.62H661.639C660.979 81.62 660.419 81.83 659.959 82.25C659.506 82.6633 659.166 83.1867 658.939 83.82V90H656.939V84.46C656.939 82.5667 656.286 81.62 654.979 81.62H654.779C654.119 81.62 653.559 81.83 653.099 82.25C652.646 82.6633 652.306 83.1867 652.079 83.82V90H650.079ZM669.575 78.22C669.169 78.22 668.845 78.0967 668.605 77.85C668.372 77.5967 668.255 77.2767 668.255 76.89C668.255 76.4967 668.372 76.1767 668.605 75.93C668.845 75.6833 669.169 75.56 669.575 75.56C669.989 75.56 670.312 75.6833 670.545 75.93C670.779 76.1767 670.895 76.4967 670.895 76.89C670.895 77.2767 670.779 77.5967 670.545 77.85C670.312 78.0967 669.989 78.22 669.575 78.22ZM668.575 90V80H670.575V90H668.575ZM678.017 90.13C676.83 90.13 675.927 89.83 675.307 89.23C674.687 88.63 674.377 87.7067 674.377 86.46V81.74H672.417V80H674.377V77.02H676.377V80H679.747V81.74H676.377V86.19C676.377 86.9767 676.54 87.5233 676.867 87.83C677.194 88.1367 677.677 88.29 678.317 88.29C678.624 88.29 678.897 88.2767 679.137 88.25C679.384 88.2233 679.637 88.19 679.897 88.15V89.9C679.63 89.9667 679.33 90.02 678.997 90.06C678.664 90.1067 678.337 90.13 678.017 90.13ZM686.454 90.13C685.268 90.13 684.364 89.83 683.744 89.23C683.124 88.63 682.814 87.7067 682.814 86.46V81.74H680.854V80H682.814V77.02H684.814V80H688.184V81.74H684.814V86.19C684.814 86.9767 684.978 87.5233 685.304 87.83C685.631 88.1367 686.114 88.29 686.754 88.29C687.061 88.29 687.334 88.2767 687.574 88.25C687.821 88.2233 688.074 88.19 688.334 88.15V89.9C688.068 89.9667 687.768 90.02 687.434 90.06C687.101 90.1067 686.774 90.13 686.454 90.13ZM691.392 78.22C690.985 78.22 690.662 78.0967 690.422 77.85C690.189 77.5967 690.072 77.2767 690.072 76.89C690.072 76.4967 690.189 76.1767 690.422 75.93C690.662 75.6833 690.985 75.56 691.392 75.56C691.805 75.56 692.129 75.6833 692.362 75.93C692.595 76.1767 692.712 76.4967 692.712 76.89C692.712 77.2767 692.595 77.5967 692.362 77.85C692.129 78.0967 691.805 78.22 691.392 78.22ZM690.392 90V80H692.392V90H690.392ZM695.333 90V80H697.333V81.67C697.7 81.0767 698.157 80.61 698.703 80.27C699.257 79.93 699.897 79.76 700.623 79.76H700.843C701.95 79.76 702.817 80.15 703.443 80.93C704.077 81.71 704.393 82.8067 704.393 84.22V90H702.393V84.46C702.393 82.5667 701.707 81.62 700.333 81.62H700.133C699.453 81.62 698.873 81.83 698.393 82.25C697.92 82.67 697.567 83.2 697.333 83.84V90H695.333ZM710.819 86.98C710.353 86.98 709.913 86.9333 709.499 86.84C709.233 87.14 709.099 87.4167 709.099 87.67C709.099 88.17 709.489 88.42 710.269 88.42H712.629C713.783 88.42 714.663 88.65 715.269 89.11C715.883 89.57 716.189 90.2267 716.189 91.08C716.189 92.1467 715.706 92.9733 714.739 93.56C713.779 94.1467 712.429 94.44 710.689 94.44C709.223 94.44 708.089 94.22 707.289 93.78C706.489 93.3467 706.089 92.7167 706.089 91.89C706.089 90.8767 706.733 90.0833 708.019 89.51C707.646 89.1567 707.459 88.73 707.459 88.23C707.459 87.5967 707.743 86.9767 708.309 86.37C707.223 85.7233 706.679 84.7233 706.679 83.37C706.679 82.2967 707.043 81.4267 707.769 80.76C708.503 80.0933 709.519 79.76 710.819 79.76H710.999C711.479 79.76 711.919 79.81 712.319 79.91C712.726 80.01 713.093 80.1533 713.419 80.34C713.813 79.58 714.516 79.2 715.529 79.2C715.763 79.2 716.023 79.2267 716.309 79.28V80.91C716.116 80.8567 715.949 80.8233 715.809 80.81C715.669 80.7967 715.549 80.79 715.449 80.79C714.949 80.79 714.579 80.8933 714.339 81.1C714.873 81.72 715.139 82.4767 715.139 83.37C715.139 84.4367 714.773 85.3067 714.039 85.98C713.313 86.6467 712.299 86.98 710.999 86.98H710.819ZM710.829 85.33H710.989C711.703 85.33 712.249 85.1533 712.629 84.8C713.016 84.44 713.209 83.9633 713.209 83.37C713.209 82.7767 713.016 82.3033 712.629 81.95C712.249 81.59 711.703 81.41 710.989 81.41H710.829C710.116 81.41 709.566 81.59 709.179 81.95C708.799 82.3033 708.609 82.7767 708.609 83.37C708.609 83.9633 708.799 84.44 709.179 84.8C709.566 85.1533 710.116 85.33 710.829 85.33ZM708.049 91.5C708.049 92.3667 708.989 92.8 710.869 92.8C711.963 92.8 712.796 92.6533 713.369 92.36C713.943 92.0667 714.229 91.6767 714.229 91.19C714.229 90.47 713.623 90.11 712.409 90.11H709.709C709.629 90.11 709.549 90.1067 709.469 90.1C709.023 90.24 708.673 90.43 708.419 90.67C708.173 90.9167 708.049 91.1933 708.049 91.5Z" fill="#2C749E"/>
<circle cx="543" cy="354" r="81" fill="#E6F7FF"/>
<path d="M520.829 362V348H530.979V349.98H522.929V354H529.539V355.98H522.929V360.02H531.149V362H520.829ZM533.874 362V352H535.874V353.52C536.541 352.347 537.458 351.76 538.624 351.76C538.944 351.76 539.234 351.787 539.494 351.84V353.86C539.334 353.84 539.161 353.823 538.974 353.81C538.794 353.797 538.618 353.79 538.444 353.79C537.784 353.79 537.244 353.98 536.824 354.36C536.404 354.74 536.088 355.26 535.874 355.92V362H533.874ZM541.433 362V352H543.433V353.52C544.1 352.347 545.016 351.76 546.183 351.76C546.503 351.76 546.793 351.787 547.053 351.84V353.86C546.893 353.84 546.72 353.823 546.533 353.81C546.353 353.797 546.176 353.79 546.003 353.79C545.343 353.79 544.803 353.98 544.383 354.36C543.963 354.74 543.646 355.26 543.433 355.92V362H541.433ZM553.431 362.24C552.418 362.24 551.535 362.017 550.781 361.57C550.035 361.117 549.458 360.497 549.051 359.71C548.645 358.917 548.441 358.013 548.441 357C548.441 355.98 548.645 355.077 549.051 354.29C549.458 353.503 550.035 352.887 550.781 352.44C551.535 351.987 552.418 351.76 553.431 351.76H553.651C554.671 351.76 555.555 351.987 556.301 352.44C557.048 352.887 557.625 353.503 558.031 354.29C558.438 355.077 558.641 355.98 558.641 357C558.641 358.013 558.438 358.917 558.031 359.71C557.625 360.497 557.048 361.117 556.301 361.57C555.555 362.017 554.671 362.24 553.651 362.24H553.431ZM553.441 360.38H553.641C554.555 360.38 555.271 360.073 555.791 359.46C556.311 358.847 556.571 358.027 556.571 357C556.571 355.967 556.311 355.147 555.791 354.54C555.271 353.927 554.555 353.62 553.641 353.62H553.441C552.535 353.62 551.818 353.927 551.291 354.54C550.771 355.147 550.511 355.967 550.511 357C550.511 358.027 550.771 358.847 551.291 359.46C551.818 360.073 552.535 360.38 553.441 360.38ZM561.023 362V352H563.023V353.52C563.689 352.347 564.606 351.76 565.773 351.76C566.093 351.76 566.383 351.787 566.643 351.84V353.86C566.483 353.84 566.309 353.823 566.123 353.81C565.943 353.797 565.766 353.79 565.593 353.79C564.933 353.79 564.393 353.98 563.973 354.36C563.553 354.74 563.236 355.26 563.023 355.92V362H561.023Z" fill="#2C749E"/>
<circle cx="774" cy="354" r="81" fill="#E6F7FF"/>
<path d="M741.732 362.24C740.419 362.24 739.279 362.007 738.312 361.54C737.345 361.067 736.539 360.387 735.892 359.5L737.432 358.1C737.999 358.847 738.635 359.397 739.342 359.75C740.055 360.103 740.849 360.28 741.722 360.28H741.972C743.019 360.28 743.809 360.1 744.342 359.74C744.875 359.38 745.142 358.88 745.142 358.24C745.142 357.747 744.999 357.363 744.712 357.09C744.432 356.817 744.092 356.61 743.692 356.47C743.292 356.33 742.912 356.223 742.552 356.15L740.282 355.67C739.895 355.59 739.475 355.473 739.022 355.32C738.575 355.167 738.149 354.953 737.742 354.68C737.335 354.4 737.002 354.037 736.742 353.59C736.482 353.143 736.352 352.587 736.352 351.92C736.352 351.087 736.569 350.36 737.002 349.74C737.442 349.113 738.059 348.627 738.852 348.28C739.645 347.933 740.575 347.76 741.642 347.76H741.892C744.132 347.76 745.855 348.627 747.062 350.36L745.542 351.62C744.995 350.9 744.419 350.403 743.812 350.13C743.205 349.857 742.552 349.72 741.852 349.72H741.602C740.689 349.72 739.949 349.903 739.382 350.27C738.815 350.63 738.532 351.123 738.532 351.75C738.532 352.157 738.642 352.483 738.862 352.73C739.082 352.97 739.375 353.157 739.742 353.29C740.115 353.423 740.519 353.537 740.952 353.63L743.222 354.11C743.535 354.177 743.919 354.28 744.372 354.42C744.832 354.56 745.285 354.773 745.732 355.06C746.185 355.34 746.562 355.723 746.862 356.21C747.169 356.697 747.322 357.32 747.322 358.08C747.322 358.947 747.102 359.69 746.662 360.31C746.222 360.93 745.602 361.407 744.802 361.74C744.002 362.073 743.062 362.24 741.982 362.24H741.732ZM753.157 362.24C752.003 362.24 751.123 361.85 750.517 361.07C749.91 360.29 749.607 359.193 749.607 357.78V352H751.607V357.54C751.607 359.433 752.293 360.38 753.667 360.38H753.867C754.547 360.38 755.123 360.17 755.597 359.75C756.077 359.33 756.433 358.8 756.667 358.16V352H758.667V362H756.667V360.33C756.3 360.923 755.84 361.39 755.287 361.73C754.74 362.07 754.103 362.24 753.377 362.24H753.157ZM765.973 362.24C765.013 362.24 764.163 362.03 763.423 361.61C762.683 361.19 762.103 360.59 761.683 359.81C761.269 359.023 761.063 358.09 761.063 357.01C761.063 355.923 761.269 354.99 761.683 354.21C762.096 353.423 762.669 352.82 763.403 352.4C764.143 351.973 764.999 351.76 765.973 351.76H766.193C766.966 351.76 767.696 351.96 768.383 352.36C769.076 352.753 769.636 353.297 770.063 353.99L768.513 355.07C768.226 354.617 767.883 354.263 767.483 354.01C767.083 353.75 766.629 353.62 766.123 353.62H765.923C765.056 353.62 764.373 353.927 763.873 354.54C763.379 355.147 763.133 355.967 763.133 357C763.133 358.027 763.379 358.847 763.873 359.46C764.373 360.073 765.056 360.38 765.923 360.38H766.123C766.629 360.38 767.096 360.267 767.523 360.04C767.949 359.813 768.316 359.51 768.623 359.13L770.063 360.35C769.616 360.937 769.053 361.4 768.373 361.74C767.699 362.073 766.973 362.24 766.193 362.24H765.973ZM776.617 362.24C775.657 362.24 774.807 362.03 774.067 361.61C773.327 361.19 772.747 360.59 772.327 359.81C771.914 359.023 771.707 358.09 771.707 357.01C771.707 355.923 771.914 354.99 772.327 354.21C772.74 353.423 773.314 352.82 774.047 352.4C774.787 351.973 775.644 351.76 776.617 351.76H776.837C777.61 351.76 778.34 351.96 779.027 352.36C779.72 352.753 780.28 353.297 780.707 353.99L779.157 355.07C778.87 354.617 778.527 354.263 778.127 354.01C777.727 353.75 777.274 353.62 776.767 353.62H776.567C775.7 353.62 775.017 353.927 774.517 354.54C774.024 355.147 773.777 355.967 773.777 357C773.777 358.027 774.024 358.847 774.517 359.46C775.017 360.073 775.7 360.38 776.567 360.38H776.767C777.274 360.38 777.74 360.267 778.167 360.04C778.594 359.813 778.96 359.51 779.267 359.13L780.707 360.35C780.26 360.937 779.697 361.4 779.017 361.74C778.344 362.073 777.617 362.24 776.837 362.24H776.617ZM787.172 362.24C786.212 362.24 785.368 362.02 784.642 361.58C783.922 361.14 783.358 360.527 782.952 359.74C782.552 358.953 782.352 358.043 782.352 357.01C782.352 355.977 782.552 355.067 782.952 354.28C783.358 353.487 783.922 352.87 784.642 352.43C785.368 351.983 786.212 351.76 787.172 351.76H787.392C788.265 351.76 789.032 351.977 789.692 352.41C790.358 352.837 790.878 353.457 791.252 354.27C791.625 355.077 791.812 356.05 791.812 357.19V357.8H784.422C784.542 358.62 784.848 359.267 785.342 359.74C785.842 360.207 786.492 360.44 787.292 360.44H787.492C787.972 360.44 788.432 360.343 788.872 360.15C789.312 359.95 789.682 359.683 789.982 359.35L791.212 360.65C790.758 361.137 790.198 361.523 789.532 361.81C788.872 362.097 788.158 362.24 787.392 362.24H787.172ZM787.112 353.56C786.398 353.56 785.802 353.797 785.322 354.27C784.848 354.737 784.548 355.377 784.422 356.19H789.802C789.742 355.45 789.498 354.827 789.072 354.32C788.652 353.813 788.065 353.56 787.312 353.56H787.112ZM797.762 362.24C796.755 362.24 795.888 362.077 795.162 361.75C794.435 361.423 793.828 360.937 793.342 360.29L794.702 359.04C795.422 360.007 796.435 360.49 797.742 360.49H797.942C798.602 360.49 799.112 360.39 799.472 360.19C799.838 359.983 800.022 359.687 800.022 359.3C800.022 358.98 799.902 358.717 799.662 358.51C799.428 358.303 798.998 358.137 798.372 358.01L796.662 357.65C794.675 357.237 793.682 356.31 793.682 354.87C793.682 353.937 794.045 353.187 794.772 352.62C795.498 352.047 796.462 351.76 797.662 351.76H797.882C799.588 351.76 800.898 352.393 801.812 353.66L800.452 354.79C800.105 354.33 799.715 354.003 799.282 353.81C798.855 353.61 798.382 353.51 797.862 353.51H797.662C797.068 353.51 796.585 353.613 796.212 353.82C795.845 354.027 795.662 354.32 795.662 354.7C795.662 354.987 795.775 355.217 796.002 355.39C796.235 355.557 796.625 355.7 797.172 355.82L799.172 356.25C800.032 356.437 800.718 356.77 801.232 357.25C801.745 357.723 802.002 358.367 802.002 359.18C802.002 360.067 801.658 360.8 800.972 361.38C800.292 361.953 799.295 362.24 797.982 362.24H797.762ZM807.84 362.24C806.833 362.24 805.966 362.077 805.24 361.75C804.513 361.423 803.906 360.937 803.42 360.29L804.78 359.04C805.5 360.007 806.513 360.49 807.82 360.49H808.02C808.68 360.49 809.19 360.39 809.55 360.19C809.916 359.983 810.1 359.687 810.1 359.3C810.1 358.98 809.98 358.717 809.74 358.51C809.506 358.303 809.076 358.137 808.45 358.01L806.74 357.65C804.753 357.237 803.76 356.31 803.76 354.87C803.76 353.937 804.123 353.187 804.85 352.62C805.576 352.047 806.54 351.76 807.74 351.76H807.96C809.666 351.76 810.976 352.393 811.89 353.66L810.53 354.79C810.183 354.33 809.793 354.003 809.36 353.81C808.933 353.61 808.46 353.51 807.94 353.51H807.74C807.146 353.51 806.663 353.613 806.29 353.82C805.923 354.027 805.74 354.32 805.74 354.7C805.74 354.987 805.853 355.217 806.08 355.39C806.313 355.557 806.703 355.7 807.25 355.82L809.25 356.25C810.11 356.437 810.796 356.77 811.31 357.25C811.823 357.723 812.08 358.367 812.08 359.18C812.08 360.067 811.736 360.8 811.05 361.38C810.37 361.953 809.373 362.24 808.06 362.24H807.84Z" fill="#2C749E"/>
<path d="M248.466 129.319C248.642 128.51 248.129 127.711 247.319 127.534L234.129 124.66C233.32 124.483 232.52 124.996 232.344 125.806C232.168 126.615 232.681 127.414 233.49 127.591L245.215 130.146L242.66 141.871C242.483 142.68 242.996 143.48 243.806 143.656C244.615 143.832 245.414 143.319 245.591 142.51L248.466 129.319ZM152.81 191.262L247.81 130.262L246.19 127.738L151.19 188.738L152.81 191.262Z" fill="#2C749E"/>
<path d="M571.061 82.0607C571.646 81.4749 571.646 80.5251 571.061 79.9393L561.515 70.3934C560.929 69.8076 559.979 69.8076 559.393 70.3934C558.808 70.9792 558.808 71.9289 559.393 72.5147L567.879 81L559.393 89.4853C558.808 90.0711 558.808 91.0208 559.393 91.6066C559.979 92.1924 560.929 92.1924 561.515 91.6066L571.061 82.0607ZM418 82.5H570V79.5H418V82.5Z" fill="#2C749E"/>
<path d="M736.427 270.386C737.193 270.703 738.07 270.339 738.386 269.573L743.543 257.097C743.86 256.331 743.495 255.454 742.73 255.137C741.964 254.821 741.087 255.185 740.771 255.951L736.187 267.041L725.097 262.457C724.331 262.14 723.454 262.505 723.137 263.27C722.821 264.036 723.185 264.913 723.951 265.229L736.427 270.386ZM691.615 163.575L735.615 269.575L738.385 268.425L694.385 162.425L691.615 163.575Z" fill="#2C749E"/>
<path d="M579.529 270.404C578.753 270.696 577.888 270.304 577.596 269.529L572.838 256.895C572.546 256.12 572.938 255.255 573.713 254.963C574.488 254.671 575.354 255.062 575.646 255.838L579.875 267.068L591.105 262.838C591.88 262.546 592.745 262.938 593.037 263.713C593.329 264.488 592.938 265.354 592.162 265.646L579.529 270.404ZM628.366 163.619L580.366 269.619L577.634 268.381L625.634 162.381L628.366 163.619Z" fill="#2C749E"/>
</svg>
