<svg width="521" height="385" viewBox="0 0 521 385" fill="none" xmlns="http://www.w3.org/2000/svg">
<g clip-path="url(#clip0_622_5882)">
<g filter="url(#filter0_d_622_5882)">
<path d="M21 329C21 325.686 23.6863 323 27 323H204.777C208.09 323 210.777 325.686 210.777 329V375C210.777 378.314 208.09 381 204.777 381H27C23.6863 381 21 378.314 21 375V329Z" fill="#343A46"/>
<path d="M91.5396 360V346H97.3996C99.1529 346 100.463 346.42 101.33 347.26C102.196 348.093 102.63 349.227 102.63 350.66C102.63 352.087 102.196 353.22 101.33 354.06C100.463 354.9 99.1529 355.32 97.3996 355.32H93.6396V360H91.5396ZM97.1996 347.96H93.6396V353.36H97.1996C98.3396 353.36 99.1696 353.137 99.6896 352.69C100.216 352.237 100.48 351.56 100.48 350.66C100.48 349.76 100.216 349.087 99.6896 348.64C99.1696 348.187 98.3396 347.96 97.1996 347.96ZM107.364 360.2C106.31 360.2 105.49 359.93 104.904 359.39C104.324 358.843 104.034 358.127 104.034 357.24C104.034 356.36 104.36 355.623 105.014 355.03C105.674 354.437 106.724 354.14 108.164 354.14H110.884V354.11C110.884 352.43 110.11 351.59 108.564 351.59C107.917 351.59 107.37 351.707 106.924 351.94C106.484 352.173 106.127 352.5 105.854 352.92L104.484 351.81C104.91 351.15 105.47 350.643 106.164 350.29C106.864 349.937 107.657 349.76 108.544 349.76H108.764C109.99 349.76 110.977 350.113 111.724 350.82C112.47 351.527 112.844 352.583 112.844 353.99V360H110.924V358.37C110.537 358.957 110.04 359.41 109.434 359.73C108.827 360.043 108.137 360.2 107.364 360.2ZM107.804 358.42C108.577 358.42 109.22 358.247 109.734 357.9C110.247 357.547 110.63 357.07 110.884 356.47V355.71H108.244C107.457 355.71 106.894 355.837 106.554 356.09C106.22 356.337 106.054 356.673 106.054 357.1C106.054 357.98 106.637 358.42 107.804 358.42ZM115.62 360V350H117.62V351.67C117.987 351.077 118.444 350.61 118.99 350.27C119.544 349.93 120.184 349.76 120.91 349.76H121.13C122.237 349.76 123.104 350.15 123.73 350.93C124.364 351.71 124.68 352.807 124.68 354.22V360H122.68V354.46C122.68 352.567 121.994 351.62 120.62 351.62H120.42C119.74 351.62 119.16 351.83 118.68 352.25C118.207 352.67 117.854 353.2 117.62 353.84V360H115.62ZM131.726 360.24C130.766 360.24 129.923 360.02 129.196 359.58C128.476 359.14 127.913 358.527 127.506 357.74C127.106 356.953 126.906 356.043 126.906 355.01C126.906 353.977 127.106 353.067 127.506 352.28C127.913 351.487 128.476 350.87 129.196 350.43C129.923 349.983 130.766 349.76 131.726 349.76H131.946C132.82 349.76 133.586 349.977 134.246 350.41C134.913 350.837 135.433 351.457 135.806 352.27C136.18 353.077 136.366 354.05 136.366 355.19V355.8H128.976C129.096 356.62 129.403 357.267 129.896 357.74C130.396 358.207 131.046 358.44 131.846 358.44H132.046C132.526 358.44 132.986 358.343 133.426 358.15C133.866 357.95 134.236 357.683 134.536 357.35L135.766 358.65C135.313 359.137 134.753 359.523 134.086 359.81C133.426 360.097 132.713 360.24 131.946 360.24H131.726ZM131.666 351.56C130.953 351.56 130.356 351.797 129.876 352.27C129.403 352.737 129.103 353.377 128.976 354.19H134.356C134.296 353.45 134.053 352.827 133.626 352.32C133.206 351.813 132.62 351.56 131.866 351.56H131.666ZM138.706 360V345.4H140.706V360H138.706Z" fill="white"/>
<path d="M27 323.5H204.777V322.5H27V323.5ZM210.277 329V375H211.277V329H210.277ZM204.777 380.5H27V381.5H204.777V380.5ZM21.5 375V329H20.5V375H21.5ZM27 380.5C23.9624 380.5 21.5 378.038 21.5 375H20.5C20.5 378.59 23.4101 381.5 27 381.5V380.5ZM210.277 375C210.277 378.038 207.814 380.5 204.777 380.5V381.5C208.367 381.5 211.277 378.59 211.277 375H210.277ZM204.777 323.5C207.814 323.5 210.277 325.962 210.277 329H211.277C211.277 325.41 208.367 322.5 204.777 322.5V323.5ZM27 322.5C23.4101 322.5 20.5 325.41 20.5 329H21.5C21.5 325.962 23.9624 323.5 27 323.5V322.5Z" fill="white"/>
</g>
<g filter="url(#filter1_d_622_5882)">
<path d="M300 329C300 325.686 302.686 323 306 323H483.777C487.09 323 489.777 325.686 489.777 329V375C489.777 378.314 487.09 381 483.777 381H306C302.686 381 300 378.314 300 375V329Z" fill="#343A46"/>
<path d="M370.54 360V346H376.4C378.153 346 379.463 346.42 380.33 347.26C381.196 348.093 381.63 349.227 381.63 350.66C381.63 352.087 381.196 353.22 380.33 354.06C379.463 354.9 378.153 355.32 376.4 355.32H372.64V360H370.54ZM376.2 347.96H372.64V353.36H376.2C377.34 353.36 378.17 353.137 378.69 352.69C379.216 352.237 379.48 351.56 379.48 350.66C379.48 349.76 379.216 349.087 378.69 348.64C378.17 348.187 377.34 347.96 376.2 347.96ZM386.364 360.2C385.31 360.2 384.49 359.93 383.904 359.39C383.324 358.843 383.034 358.127 383.034 357.24C383.034 356.36 383.36 355.623 384.014 355.03C384.674 354.437 385.724 354.14 387.164 354.14H389.884V354.11C389.884 352.43 389.11 351.59 387.564 351.59C386.917 351.59 386.37 351.707 385.924 351.94C385.484 352.173 385.127 352.5 384.854 352.92L383.484 351.81C383.91 351.15 384.47 350.643 385.164 350.29C385.864 349.937 386.657 349.76 387.544 349.76H387.764C388.99 349.76 389.977 350.113 390.724 350.82C391.47 351.527 391.844 352.583 391.844 353.99V360H389.924V358.37C389.537 358.957 389.04 359.41 388.434 359.73C387.827 360.043 387.137 360.2 386.364 360.2ZM386.804 358.42C387.577 358.42 388.22 358.247 388.734 357.9C389.247 357.547 389.63 357.07 389.884 356.47V355.71H387.244C386.457 355.71 385.894 355.837 385.554 356.09C385.22 356.337 385.054 356.673 385.054 357.1C385.054 357.98 385.637 358.42 386.804 358.42ZM394.62 360V350H396.62V351.67C396.987 351.077 397.444 350.61 397.99 350.27C398.544 349.93 399.184 349.76 399.91 349.76H400.13C401.237 349.76 402.104 350.15 402.73 350.93C403.364 351.71 403.68 352.807 403.68 354.22V360H401.68V354.46C401.68 352.567 400.994 351.62 399.62 351.62H399.42C398.74 351.62 398.16 351.83 397.68 352.25C397.207 352.67 396.854 353.2 396.62 353.84V360H394.62ZM410.726 360.24C409.766 360.24 408.923 360.02 408.196 359.58C407.476 359.14 406.913 358.527 406.506 357.74C406.106 356.953 405.906 356.043 405.906 355.01C405.906 353.977 406.106 353.067 406.506 352.28C406.913 351.487 407.476 350.87 408.196 350.43C408.923 349.983 409.766 349.76 410.726 349.76H410.946C411.82 349.76 412.586 349.977 413.246 350.41C413.913 350.837 414.433 351.457 414.806 352.27C415.18 353.077 415.366 354.05 415.366 355.19V355.8H407.976C408.096 356.62 408.403 357.267 408.896 357.74C409.396 358.207 410.046 358.44 410.846 358.44H411.046C411.526 358.44 411.986 358.343 412.426 358.15C412.866 357.95 413.236 357.683 413.536 357.35L414.766 358.65C414.313 359.137 413.753 359.523 413.086 359.81C412.426 360.097 411.713 360.24 410.946 360.24H410.726ZM410.666 351.56C409.953 351.56 409.356 351.797 408.876 352.27C408.403 352.737 408.103 353.377 407.976 354.19H413.356C413.296 353.45 413.053 352.827 412.626 352.32C412.206 351.813 411.62 351.56 410.866 351.56H410.666ZM417.706 360V345.4H419.706V360H417.706Z" fill="white"/>
<path d="M306 323.5H483.777V322.5H306V323.5ZM489.277 329V375H490.277V329H489.277ZM483.777 380.5H306V381.5H483.777V380.5ZM300.5 375V329H299.5V375H300.5ZM306 380.5C302.962 380.5 300.5 378.038 300.5 375H299.5C299.5 378.59 302.41 381.5 306 381.5V380.5ZM489.277 375C489.277 378.038 486.814 380.5 483.777 380.5V381.5C487.367 381.5 490.277 378.59 490.277 375H489.277ZM483.777 323.5C486.814 323.5 489.277 325.962 489.277 329H490.277C490.277 325.41 487.367 322.5 483.777 322.5V323.5ZM306 322.5C302.41 322.5 299.5 325.41 299.5 329H300.5C300.5 325.962 302.962 323.5 306 323.5V322.5Z" fill="white"/>
</g>
<path d="M114.939 320.061C115.525 320.646 116.475 320.646 117.061 320.061L126.607 310.515C127.192 309.929 127.192 308.979 126.607 308.393C126.021 307.808 125.071 307.808 124.485 308.393L116 316.879L107.515 308.393C106.929 307.808 105.979 307.808 105.393 308.393C104.808 308.979 104.808 309.929 105.393 310.515L114.939 320.061ZM117.5 319V199.061H114.5V319H117.5ZM132 184.561H240V181.561H132V184.561ZM257.5 167.061V137H254.5V167.061H257.5ZM240 184.561C249.665 184.561 257.5 176.726 257.5 167.061H254.5C254.5 175.07 248.008 181.561 240 181.561V184.561ZM117.5 199.061C117.5 191.053 123.992 184.561 132 184.561V181.561C122.335 181.561 114.5 189.397 114.5 199.061H117.5Z" fill="#FABD62"/>
<path d="M397.061 320.061C396.475 320.646 395.525 320.646 394.939 320.061L385.393 310.515C384.808 309.929 384.808 308.979 385.393 308.393C385.979 307.808 386.929 307.808 387.515 308.393L396 316.879L404.485 308.393C405.071 307.808 406.021 307.808 406.607 308.393C407.192 308.979 407.192 309.929 406.607 310.515L397.061 320.061ZM394.5 319V199.061H397.5V319H394.5ZM380 184.561H272V181.561H380V184.561ZM254.5 167.061V137H257.5V167.061H254.5ZM272 184.561C262.335 184.561 254.5 176.726 254.5 167.061H257.5C257.5 175.07 263.992 181.561 272 181.561V184.561ZM394.5 199.061C394.5 191.053 388.008 184.561 380 184.561V181.561C389.665 181.561 397.5 189.397 397.5 199.061H394.5Z" fill="#FABD62"/>
<rect x="133.229" y="1" width="240" height="135" rx="6" fill="#343A46"/>
<rect x="133.229" y="1" width="240" height="135" rx="6" stroke="white" stroke-linejoin="bevel"/>
<path fill-rule="evenodd" clip-rule="evenodd" d="M133 130V133C133 136.314 135.686 139 139 139H367C370.314 139 373 136.314 373 133V130C373 133.314 370.314 136 367 136H139C135.686 136 133 133.314 133 130Z" fill="white"/>
<path d="M205.713 34C206.153 32.4667 206.66 30.8833 207.233 29.25C207.806 27.6167 208.41 26.01 209.043 24.43C209.683 22.8433 210.323 21.3667 210.963 20H213.483C214.123 21.3667 214.763 22.8433 215.403 24.43C216.043 26.01 216.646 27.6167 217.213 29.25C217.786 30.8833 218.293 32.4667 218.733 34H216.443C216.29 33.4133 216.12 32.81 215.933 32.19C215.753 31.57 215.563 30.94 215.363 30.3H209.013C208.813 30.94 208.62 31.57 208.433 32.19C208.253 32.81 208.086 33.4133 207.933 34H205.713ZM209.673 28.34H214.703C214.303 27.1933 213.886 26.0667 213.453 24.96C213.026 23.8467 212.603 22.8033 212.183 21.83C211.77 22.8033 211.346 23.8467 210.913 24.96C210.486 26.0667 210.073 27.1933 209.673 28.34ZM224.914 34.24C223.954 34.24 223.104 34.03 222.364 33.61C221.624 33.19 221.044 32.59 220.624 31.81C220.211 31.0233 220.004 30.09 220.004 29.01C220.004 27.9233 220.211 26.99 220.624 26.21C221.037 25.4233 221.611 24.82 222.344 24.4C223.084 23.9733 223.941 23.76 224.914 23.76H225.134C225.907 23.76 226.637 23.96 227.324 24.36C228.017 24.7533 228.577 25.2967 229.004 25.99L227.454 27.07C227.167 26.6167 226.824 26.2633 226.424 26.01C226.024 25.75 225.571 25.62 225.064 25.62H224.864C223.997 25.62 223.314 25.9267 222.814 26.54C222.321 27.1467 222.074 27.9667 222.074 29C222.074 30.0267 222.321 30.8467 222.814 31.46C223.314 32.0733 223.997 32.38 224.864 32.38H225.064C225.571 32.38 226.037 32.2667 226.464 32.04C226.891 31.8133 227.257 31.51 227.564 31.13L229.004 32.35C228.557 32.9367 227.994 33.4 227.314 33.74C226.641 34.0733 225.914 34.24 225.134 34.24H224.914ZM235.559 34.24C234.599 34.24 233.749 34.03 233.009 33.61C232.269 33.19 231.689 32.59 231.269 31.81C230.855 31.0233 230.649 30.09 230.649 29.01C230.649 27.9233 230.855 26.99 231.269 26.21C231.682 25.4233 232.255 24.82 232.989 24.4C233.729 23.9733 234.585 23.76 235.559 23.76H235.779C236.552 23.76 237.282 23.96 237.969 24.36C238.662 24.7533 239.222 25.2967 239.649 25.99L238.099 27.07C237.812 26.6167 237.469 26.2633 237.069 26.01C236.669 25.75 236.215 25.62 235.709 25.62H235.509C234.642 25.62 233.959 25.9267 233.459 26.54C232.965 27.1467 232.719 27.9667 232.719 29C232.719 30.0267 232.965 30.8467 233.459 31.46C233.959 32.0733 234.642 32.38 235.509 32.38H235.709C236.215 32.38 236.682 32.2667 237.109 32.04C237.535 31.8133 237.902 31.51 238.209 31.13L239.649 32.35C239.202 32.9367 238.639 33.4 237.959 33.74C237.285 34.0733 236.559 34.24 235.779 34.24H235.559ZM246.283 34.24C245.27 34.24 244.386 34.0167 243.633 33.57C242.886 33.1167 242.31 32.4967 241.903 31.71C241.496 30.9167 241.293 30.0133 241.293 29C241.293 27.98 241.496 27.0767 241.903 26.29C242.31 25.5033 242.886 24.8867 243.633 24.44C244.386 23.9867 245.27 23.76 246.283 23.76H246.503C247.523 23.76 248.406 23.9867 249.153 24.44C249.9 24.8867 250.476 25.5033 250.883 26.29C251.29 27.0767 251.493 27.98 251.493 29C251.493 30.0133 251.29 30.9167 250.883 31.71C250.476 32.4967 249.9 33.1167 249.153 33.57C248.406 34.0167 247.523 34.24 246.503 34.24H246.283ZM246.293 32.38H246.493C247.406 32.38 248.123 32.0733 248.643 31.46C249.163 30.8467 249.423 30.0267 249.423 29C249.423 27.9667 249.163 27.1467 248.643 26.54C248.123 25.9267 247.406 25.62 246.493 25.62H246.293C245.386 25.62 244.67 25.9267 244.143 26.54C243.623 27.1467 243.363 27.9667 243.363 29C243.363 30.0267 243.623 30.8467 244.143 31.46C244.67 32.0733 245.386 32.38 246.293 32.38ZM253.874 34V24H255.874V25.52C256.541 24.3467 257.458 23.76 258.624 23.76C258.944 23.76 259.234 23.7867 259.494 23.84V25.86C259.334 25.84 259.161 25.8233 258.974 25.81C258.794 25.7967 258.618 25.79 258.444 25.79C257.784 25.79 257.244 25.98 256.824 26.36C256.404 26.74 256.088 27.26 255.874 27.92V34H253.874ZM265.303 34.24C264.416 34.24 263.64 34.0167 262.973 33.57C262.313 33.1167 261.8 32.4967 261.433 31.71C261.066 30.9167 260.883 30.0133 260.883 29C260.883 27.9867 261.066 27.0867 261.433 26.3C261.8 25.5067 262.313 24.8867 262.973 24.44C263.64 23.9867 264.416 23.76 265.303 23.76H265.523C266.183 23.76 266.793 23.9033 267.353 24.19C267.92 24.47 268.386 24.89 268.753 25.45V19.4H270.753V34H268.753V32.43C268.406 33.03 267.953 33.4833 267.393 33.79C266.833 34.09 266.21 34.24 265.523 34.24H265.303ZM265.803 32.39H266.003C266.596 32.39 267.13 32.2133 267.603 31.86C268.083 31.5067 268.466 31.0233 268.753 30.41V27.59C268.466 26.9767 268.083 26.4933 267.603 26.14C267.13 25.7867 266.596 25.61 266.003 25.61H265.803C264.93 25.61 264.236 25.9033 263.723 26.49C263.21 27.0767 262.953 27.9133 262.953 29C262.953 30.0867 263.21 30.9233 263.723 31.51C264.236 32.0967 264.93 32.39 265.803 32.39ZM274.699 22.22C274.292 22.22 273.969 22.0967 273.729 21.85C273.495 21.5967 273.379 21.2767 273.379 20.89C273.379 20.4967 273.495 20.1767 273.729 19.93C273.969 19.6833 274.292 19.56 274.699 19.56C275.112 19.56 275.435 19.6833 275.669 19.93C275.902 20.1767 276.019 20.4967 276.019 20.89C276.019 21.2767 275.902 21.5967 275.669 21.85C275.435 22.0967 275.112 22.22 274.699 22.22ZM273.699 34V24H275.699V34H273.699ZM283.08 34.24C282.067 34.24 281.183 34.0167 280.43 33.57C279.683 33.1167 279.107 32.4967 278.7 31.71C278.293 30.9167 278.09 30.0133 278.09 29C278.09 27.98 278.293 27.0767 278.7 26.29C279.107 25.5033 279.683 24.8867 280.43 24.44C281.183 23.9867 282.067 23.76 283.08 23.76H283.3C284.32 23.76 285.203 23.9867 285.95 24.44C286.697 24.8867 287.273 25.5033 287.68 26.29C288.087 27.0767 288.29 27.98 288.29 29C288.29 30.0133 288.087 30.9167 287.68 31.71C287.273 32.4967 286.697 33.1167 285.95 33.57C285.203 34.0167 284.32 34.24 283.3 34.24H283.08ZM283.09 32.38H283.29C284.203 32.38 284.92 32.0733 285.44 31.46C285.96 30.8467 286.22 30.0267 286.22 29C286.22 27.9667 285.96 27.1467 285.44 26.54C284.92 25.9267 284.203 25.62 283.29 25.62H283.09C282.183 25.62 281.467 25.9267 280.94 26.54C280.42 27.1467 280.16 27.9667 280.16 29C280.16 30.0267 280.42 30.8467 280.94 31.46C281.467 32.0733 282.183 32.38 283.09 32.38ZM290.671 34V24H292.671V25.67C293.038 25.0767 293.495 24.61 294.041 24.27C294.595 23.93 295.235 23.76 295.961 23.76H296.181C297.288 23.76 298.155 24.15 298.781 24.93C299.415 25.71 299.731 26.8067 299.731 28.22V34H297.731V28.46C297.731 26.5667 297.045 25.62 295.671 25.62H295.471C294.791 25.62 294.211 25.83 293.731 26.25C293.258 26.67 292.905 27.2 292.671 27.84V34H290.671Z" fill="white"/>
<rect x="155.229" y="54" width="196" height="59" rx="29.5" stroke="#C76A15" stroke-width="4" stroke-linejoin="bevel"/>
<rect x="158.229" y="57" width="190" height="53" rx="26.5" stroke="#FABD62" stroke-width="4" stroke-linejoin="bevel"/>
<path d="M160 84C160 70.1929 171.193 59 185 59H302.871V109H185C171.193 109 160 97.8071 160 84V84Z" fill="#343A46"/>
<path d="M186.102 92.19C185.055 92.19 184.242 91.9267 183.662 91.4C183.089 90.8733 182.802 90.1667 182.802 89.28C182.802 88.42 183.122 87.7067 183.762 87.14C184.409 86.5667 185.445 86.28 186.872 86.28H189.772V86.07C189.772 84.21 188.922 83.28 187.222 83.28C186.529 83.28 185.945 83.4067 185.472 83.66C185.005 83.9133 184.629 84.2733 184.342 84.74L183.232 83.9C183.632 83.2333 184.169 82.7233 184.842 82.37C185.522 82.01 186.305 81.83 187.192 81.83H187.392C188.599 81.83 189.555 82.18 190.262 82.88C190.969 83.5733 191.322 84.6 191.322 85.96V92H189.792V90.15C189.412 90.7967 188.909 91.3 188.282 91.66C187.655 92.0133 186.929 92.19 186.102 92.19ZM186.402 90.78C187.255 90.78 187.962 90.5733 188.522 90.16C189.082 89.74 189.499 89.1733 189.772 88.46V87.54H186.942C186.015 87.54 185.359 87.6867 184.972 87.98C184.592 88.2733 184.402 88.6733 184.402 89.18C184.402 89.6867 184.569 90.08 184.902 90.36C185.235 90.64 185.735 90.78 186.402 90.78ZM198.59 92.22C197.643 92.22 196.81 92.01 196.09 91.59C195.37 91.1633 194.806 90.5633 194.4 89.79C194 89.01 193.8 88.09 193.8 87.03C193.8 85.97 194 85.05 194.4 84.27C194.8 83.49 195.36 82.89 196.08 82.47C196.8 82.0433 197.636 81.83 198.59 81.83H198.79C199.563 81.83 200.28 82.02 200.94 82.4C201.6 82.78 202.136 83.2967 202.55 83.95L201.34 84.82C201.033 84.3467 200.663 83.9767 200.23 83.71C199.796 83.4367 199.303 83.3 198.75 83.3H198.56C197.6 83.3 196.84 83.64 196.28 84.32C195.72 84.9933 195.44 85.8967 195.44 87.03C195.44 88.1567 195.72 89.06 196.28 89.74C196.84 90.4133 197.6 90.75 198.56 90.75H198.75C199.31 90.75 199.81 90.63 200.25 90.39C200.696 90.15 201.08 89.8267 201.4 89.42L202.55 90.36C202.123 90.94 201.583 91.3967 200.93 91.73C200.276 92.0567 199.563 92.22 198.79 92.22H198.59ZM209.275 92.12C208.168 92.12 207.315 91.8433 206.715 91.29C206.115 90.7367 205.815 89.8567 205.815 88.65V83.42H203.855V82.05H205.815V79.02H207.395V82.05H210.915V83.42H207.395V88.43C207.395 89.2633 207.575 89.8467 207.935 90.18C208.302 90.5067 208.822 90.67 209.495 90.67C209.788 90.67 210.055 90.6567 210.295 90.63C210.535 90.5967 210.785 90.5533 211.045 90.5V91.89C210.772 91.9567 210.482 92.01 210.175 92.05C209.868 92.0967 209.568 92.12 209.275 92.12ZM214.105 79.96C213.765 79.96 213.495 79.8567 213.295 79.65C213.095 79.4433 212.995 79.1767 212.995 78.85C212.995 78.5233 213.095 78.2567 213.295 78.05C213.495 77.8433 213.765 77.74 214.105 77.74C214.445 77.74 214.715 77.8433 214.915 78.05C215.115 78.2567 215.215 78.5233 215.215 78.85C215.215 79.1767 215.115 79.4433 214.915 79.65C214.715 79.8567 214.445 79.96 214.105 79.96ZM213.315 92V82.05H214.895V92H213.315ZM221.01 92C220.29 90.3867 219.6 88.7467 218.94 87.08C218.287 85.4133 217.677 83.7367 217.11 82.05H218.89C219.337 83.4967 219.823 84.9433 220.35 86.39C220.883 87.83 221.44 89.2633 222.02 90.69C222.607 89.2633 223.163 87.83 223.69 86.39C224.217 84.9433 224.707 83.4967 225.16 82.05H226.87C226.303 83.7367 225.693 85.4133 225.04 87.08C224.387 88.7467 223.7 90.3867 222.98 92H221.01ZM232.768 92.22C231.822 92.22 230.992 92.0033 230.278 91.57C229.565 91.1367 229.008 90.53 228.608 89.75C228.215 88.97 228.018 88.0633 228.018 87.03C228.018 86.0167 228.215 85.12 228.608 84.34C229.002 83.5533 229.548 82.94 230.248 82.5C230.955 82.0533 231.772 81.83 232.698 81.83H232.888C233.768 81.83 234.535 82.05 235.188 82.49C235.842 82.9233 236.345 83.5367 236.698 84.33C237.058 85.1233 237.238 86.0567 237.238 87.13V87.67H229.638C229.745 88.6233 230.078 89.38 230.638 89.94C231.205 90.5 231.938 90.78 232.838 90.78H233.018C233.552 90.78 234.045 90.6733 234.498 90.46C234.958 90.2467 235.345 89.9533 235.658 89.58L236.668 90.61C236.235 91.11 235.698 91.5033 235.058 91.79C234.418 92.0767 233.722 92.22 232.968 92.22H232.768ZM232.668 83.26C231.842 83.26 231.158 83.54 230.618 84.1C230.078 84.66 229.755 85.4133 229.648 86.36H235.648C235.602 85.48 235.335 84.7433 234.848 84.15C234.368 83.5567 233.702 83.26 232.848 83.26H232.668ZM240.269 92V78H241.939V92H240.269ZM245.58 92V82.05H247.16V83.94C247.527 83.2867 248 82.7733 248.58 82.4C249.16 82.02 249.83 81.83 250.59 81.83H250.79C251.917 81.83 252.79 82.2067 253.41 82.96C254.03 83.7067 254.34 84.7767 254.34 86.17V92H252.76V86.4C252.76 85.3733 252.57 84.6 252.19 84.08C251.81 83.56 251.214 83.3 250.4 83.3H250.21C249.47 83.3 248.837 83.54 248.31 84.02C247.79 84.5 247.407 85.1033 247.16 85.83V92H245.58ZM261.177 92.22C260.297 92.22 259.531 92 258.877 91.56C258.224 91.12 257.714 90.51 257.347 89.73C256.987 88.95 256.807 88.05 256.807 87.03C256.807 86.0033 256.987 85.1 257.347 84.32C257.714 83.54 258.224 82.93 258.877 82.49C259.531 82.05 260.297 81.83 261.177 81.83H261.377C262.097 81.83 262.757 81.99 263.357 82.31C263.957 82.6233 264.444 83.0967 264.817 83.73V77.4H266.397V92H264.817V90.21C264.457 90.8767 263.977 91.38 263.377 91.72C262.784 92.0533 262.117 92.22 261.377 92.22H261.177ZM261.547 90.77H261.737C262.477 90.77 263.107 90.5533 263.627 90.12C264.154 89.68 264.551 89.1133 264.817 88.42V85.63C264.551 84.9367 264.154 84.3733 263.627 83.94C263.101 83.5067 262.471 83.29 261.737 83.29H261.547C260.594 83.29 259.837 83.6167 259.277 84.27C258.724 84.9233 258.447 85.8433 258.447 87.03C258.447 88.2167 258.724 89.1367 259.277 89.79C259.837 90.4433 260.594 90.77 261.547 90.77ZM273.784 92.22C272.837 92.22 272.007 92.0033 271.294 91.57C270.581 91.1367 270.024 90.53 269.624 89.75C269.231 88.97 269.034 88.0633 269.034 87.03C269.034 86.0167 269.231 85.12 269.624 84.34C270.017 83.5533 270.564 82.94 271.264 82.5C271.971 82.0533 272.787 81.83 273.714 81.83H273.904C274.784 81.83 275.551 82.05 276.204 82.49C276.857 82.9233 277.361 83.5367 277.714 84.33C278.074 85.1233 278.254 86.0567 278.254 87.13V87.67H270.654C270.761 88.6233 271.094 89.38 271.654 89.94C272.221 90.5 272.954 90.78 273.854 90.78H274.034C274.567 90.78 275.061 90.6733 275.514 90.46C275.974 90.2467 276.361 89.9533 276.674 89.58L277.684 90.61C277.251 91.11 276.714 91.5033 276.074 91.79C275.434 92.0767 274.737 92.22 273.984 92.22H273.784ZM273.684 83.26C272.857 83.26 272.174 83.54 271.634 84.1C271.094 84.66 270.771 85.4133 270.664 86.36H276.664C276.617 85.48 276.351 84.7433 275.864 84.15C275.384 83.5567 274.717 83.26 273.864 83.26H273.684ZM279.099 92C279.646 91.1733 280.242 90.3333 280.889 89.48C281.536 88.6267 282.189 87.8033 282.849 87.01C282.196 86.2167 281.549 85.3967 280.909 84.55C280.276 83.6967 279.689 82.8633 279.149 82.05H281.039C281.439 82.6767 281.889 83.34 282.389 84.04C282.896 84.7333 283.402 85.4033 283.909 86.05C284.409 85.41 284.909 84.74 285.409 84.04C285.909 83.34 286.352 82.6767 286.739 82.05H288.549C288.009 82.87 287.419 83.7033 286.779 84.55C286.139 85.3967 285.492 86.2133 284.839 87C285.499 87.8 286.149 88.63 286.789 89.49C287.436 90.3433 288.029 91.18 288.569 92H286.679C286.272 91.3667 285.816 90.6967 285.309 89.99C284.802 89.2833 284.292 88.6067 283.779 87.96C283.272 88.6067 282.766 89.2833 282.259 89.99C281.752 90.6967 281.306 91.3667 280.919 92H279.099Z" fill="#8891EC"/>
<path d="M160 84C160 70.1929 171.193 59 185 59H302.871V109H185C171.193 109 160 97.8071 160 84V84Z" stroke="#FABD62" stroke-linejoin="bevel"/>
<path d="M300.078 59H321.001C334.808 59 346.001 70.1929 346.001 84V84C346.001 97.8071 334.808 109 321.001 109H300.078V59Z" fill="#343A46"/>
<path d="M318.781 92V81L316.081 83.44L314.411 81.5L318.291 78H321.591V92H318.781Z" fill="#8891EC"/>
<path d="M300.078 59H321.001C334.808 59 346.001 70.1929 346.001 84V84C346.001 97.8071 334.808 109 321.001 109H300.078V59Z" stroke="#FABD62" stroke-linejoin="bevel"/>
<path d="M356.739 55.8328L354.992 60.5288C354.94 60.667 354.847 60.7863 354.725 60.8706C354.603 60.9548 354.458 61 354.309 61C354.16 61 354.015 60.9548 353.893 60.8706C353.771 60.7863 353.678 60.667 353.626 60.5288L351.879 55.8328C351.842 55.735 351.785 55.6462 351.711 55.5725C351.636 55.4988 351.547 55.442 351.448 55.4059L346.705 53.6758C346.565 53.6249 346.444 53.5328 346.359 53.412C346.274 53.2911 346.229 53.1473 346.229 53C346.229 52.8527 346.274 52.7089 346.359 52.588C346.444 52.4672 346.565 52.3751 346.705 52.3242L351.448 50.5941C351.547 50.558 351.636 50.5012 351.711 50.4275C351.785 50.3538 351.842 50.265 351.879 50.1672L353.626 45.4713C353.678 45.333 353.771 45.2137 353.893 45.1294C354.015 45.0452 354.16 45 354.309 45C354.458 45 354.603 45.0452 354.725 45.1294C354.847 45.2137 354.94 45.333 354.992 45.4713L356.739 50.1672C356.776 50.265 356.833 50.3538 356.907 50.4275C356.982 50.5012 357.072 50.558 357.17 50.5941L361.914 52.3242C362.053 52.3751 362.174 52.4672 362.259 52.588C362.344 52.7089 362.39 52.8527 362.39 53C362.39 53.1473 362.344 53.2911 362.259 53.412C362.174 53.5328 362.053 53.6249 361.914 53.6758L357.17 55.4059C357.072 55.442 356.982 55.4988 356.907 55.5725C356.833 55.6462 356.776 55.735 356.739 55.8328Z" fill="#FABD62"/>
<path d="M363.908 67.7705L362.816 70.7055C362.784 70.7919 362.726 70.8664 362.649 70.9191C362.573 70.9718 362.482 71 362.389 71C362.296 71 362.205 70.9718 362.129 70.9191C362.053 70.8664 361.995 70.7919 361.963 70.7055L360.87 67.7705C360.848 67.7094 360.812 67.6539 360.765 67.6078C360.719 67.5617 360.663 67.5262 360.601 67.5037L357.636 66.4224C357.549 66.3906 357.474 66.333 357.421 66.2575C357.367 66.1819 357.339 66.0921 357.339 66C357.339 65.9079 357.367 65.8181 357.421 65.7425C357.474 65.667 357.549 65.6094 357.636 65.5776L360.601 64.4963C360.663 64.4738 360.719 64.4383 360.765 64.3922C360.812 64.3461 360.848 64.2906 360.87 64.2295L361.963 61.2945C361.995 61.2081 362.053 61.1336 362.129 61.0809C362.205 61.0282 362.296 61 362.389 61C362.482 61 362.573 61.0282 362.649 61.0809C362.726 61.1336 362.784 61.2081 362.816 61.2945L363.908 64.2295C363.931 64.2906 363.967 64.3461 364.013 64.3922C364.06 64.4383 364.116 64.4738 364.177 64.4963L367.142 65.5776C367.229 65.6094 367.305 65.667 367.358 65.7425C367.411 65.8181 367.44 65.9079 367.44 66C367.44 66.0921 367.411 66.1819 367.358 66.2575C367.305 66.333 367.229 66.3906 367.142 66.4224L364.177 67.5037C364.116 67.5262 364.06 67.5617 364.013 67.6078C363.967 67.6539 363.931 67.7094 363.908 67.7705Z" fill="#FABD62"/>
<rect x="302" y="225" width="190" height="62" rx="31" stroke="#C76A15" stroke-width="4" stroke-linejoin="bevel"/>
<rect x="306.106" y="229" width="183" height="54" rx="27" stroke="#FABD62" stroke-width="4" stroke-linejoin="bevel"/>
<path d="M308.213 256C308.213 242.193 319.406 231 333.213 231H415.213V281H333.213C319.406 281 308.213 269.807 308.213 256V256Z" fill="#8891EC"/>
<path d="M330.925 251.96C330.585 251.96 330.315 251.857 330.115 251.65C329.915 251.443 329.815 251.177 329.815 250.85C329.815 250.523 329.915 250.257 330.115 250.05C330.315 249.843 330.585 249.74 330.925 249.74C331.265 249.74 331.535 249.843 331.735 250.05C331.935 250.257 332.035 250.523 332.035 250.85C332.035 251.177 331.935 251.443 331.735 251.65C331.535 251.857 331.265 251.96 330.925 251.96ZM330.135 264V254.05H331.715V264H330.135ZM338.41 264.22C336.424 264.22 334.984 263.57 334.09 262.27L335.19 261.31C335.897 262.323 336.967 262.83 338.4 262.83H338.58C339.314 262.83 339.884 262.703 340.29 262.45C340.704 262.19 340.91 261.827 340.91 261.36C340.91 260.96 340.77 260.64 340.49 260.4C340.217 260.16 339.75 259.973 339.09 259.84L337.29 259.47C335.384 259.083 334.43 258.193 334.43 256.8C334.43 255.907 334.784 255.19 335.49 254.65C336.204 254.103 337.14 253.83 338.3 253.83H338.5C340.194 253.83 341.46 254.447 342.3 255.68L341.2 256.57C340.867 256.097 340.477 255.753 340.03 255.54C339.584 255.327 339.067 255.22 338.48 255.22H338.3C337.614 255.22 337.057 255.35 336.63 255.61C336.21 255.863 336 256.217 336 256.67C336 257.023 336.13 257.307 336.39 257.52C336.65 257.727 337.084 257.893 337.69 258.02L339.66 258.43C340.547 258.617 341.237 258.94 341.73 259.4C342.23 259.86 342.48 260.487 342.48 261.28C342.48 262.153 342.14 262.863 341.46 263.41C340.787 263.95 339.84 264.22 338.62 264.22H338.41ZM344.259 264C344.706 262.493 345.216 260.93 345.789 259.31C346.369 257.683 346.982 256.077 347.629 254.49C348.282 252.903 348.936 251.407 349.589 250H351.629C352.289 251.407 352.942 252.903 353.589 254.49C354.236 256.077 354.849 257.683 355.429 259.31C356.009 260.93 356.519 262.493 356.959 264H355.149C354.976 263.36 354.782 262.703 354.569 262.03C354.362 261.35 354.142 260.66 353.909 259.96H347.249C347.016 260.66 346.792 261.35 346.579 262.03C346.372 262.703 346.182 263.36 346.009 264H344.259ZM347.789 258.4H353.369C352.936 257.187 352.479 255.983 351.999 254.79C351.526 253.597 351.052 252.47 350.579 251.41C350.112 252.47 349.639 253.597 349.159 254.79C348.679 255.983 348.222 257.187 347.789 258.4ZM363.261 264.22C362.315 264.22 361.481 264.01 360.761 263.59C360.041 263.163 359.478 262.563 359.071 261.79C358.671 261.01 358.471 260.09 358.471 259.03C358.471 257.97 358.671 257.05 359.071 256.27C359.471 255.49 360.031 254.89 360.751 254.47C361.471 254.043 362.308 253.83 363.261 253.83H363.461C364.235 253.83 364.951 254.02 365.611 254.4C366.271 254.78 366.808 255.297 367.221 255.95L366.011 256.82C365.705 256.347 365.335 255.977 364.901 255.71C364.468 255.437 363.975 255.3 363.421 255.3H363.231C362.271 255.3 361.511 255.64 360.951 256.32C360.391 256.993 360.111 257.897 360.111 259.03C360.111 260.157 360.391 261.06 360.951 261.74C361.511 262.413 362.271 262.75 363.231 262.75H363.421C363.981 262.75 364.481 262.63 364.921 262.39C365.368 262.15 365.751 261.827 366.071 261.42L367.221 262.36C366.795 262.94 366.255 263.397 365.601 263.73C364.948 264.057 364.235 264.22 363.461 264.22H363.261ZM373.947 264.12C372.84 264.12 371.987 263.843 371.387 263.29C370.787 262.737 370.487 261.857 370.487 260.65V255.42H368.527V254.05H370.487V251.02H372.067V254.05H375.587V255.42H372.067V260.43C372.067 261.263 372.247 261.847 372.607 262.18C372.974 262.507 373.494 262.67 374.167 262.67C374.46 262.67 374.727 262.657 374.967 262.63C375.207 262.597 375.457 262.553 375.717 262.5V263.89C375.444 263.957 375.154 264.01 374.847 264.05C374.54 264.097 374.24 264.12 373.947 264.12ZM378.777 251.96C378.437 251.96 378.167 251.857 377.967 251.65C377.767 251.443 377.667 251.177 377.667 250.85C377.667 250.523 377.767 250.257 377.967 250.05C378.167 249.843 378.437 249.74 378.777 249.74C379.117 249.74 379.387 249.843 379.587 250.05C379.787 250.257 379.887 250.523 379.887 250.85C379.887 251.177 379.787 251.443 379.587 251.65C379.387 251.857 379.117 251.96 378.777 251.96ZM377.987 264V254.05H379.567V264H377.987ZM385.682 264C384.962 262.387 384.272 260.747 383.612 259.08C382.959 257.413 382.349 255.737 381.782 254.05H383.562C384.009 255.497 384.495 256.943 385.022 258.39C385.555 259.83 386.112 261.263 386.692 262.69C387.279 261.263 387.835 259.83 388.362 258.39C388.889 256.943 389.379 255.497 389.832 254.05H391.542C390.975 255.737 390.365 257.413 389.712 259.08C389.059 260.747 388.372 262.387 387.652 264H385.682ZM397.44 264.22C396.493 264.22 395.663 264.003 394.95 263.57C394.237 263.137 393.68 262.53 393.28 261.75C392.887 260.97 392.69 260.063 392.69 259.03C392.69 258.017 392.887 257.12 393.28 256.34C393.673 255.553 394.22 254.94 394.92 254.5C395.627 254.053 396.443 253.83 397.37 253.83H397.56C398.44 253.83 399.207 254.05 399.86 254.49C400.513 254.923 401.017 255.537 401.37 256.33C401.73 257.123 401.91 258.057 401.91 259.13V259.67H394.31C394.417 260.623 394.75 261.38 395.31 261.94C395.877 262.5 396.61 262.78 397.51 262.78H397.69C398.223 262.78 398.717 262.673 399.17 262.46C399.63 262.247 400.017 261.953 400.33 261.58L401.34 262.61C400.907 263.11 400.37 263.503 399.73 263.79C399.09 264.077 398.393 264.22 397.64 264.22H397.44ZM397.34 255.26C396.513 255.26 395.83 255.54 395.29 256.1C394.75 256.66 394.427 257.413 394.32 258.36H400.32C400.273 257.48 400.007 256.743 399.52 256.15C399.04 255.557 398.373 255.26 397.52 255.26H397.34Z" fill="#343A46"/>
<path d="M308.213 256C308.213 242.193 319.406 231 333.213 231H415.213V281H333.213C319.406 281 308.213 269.807 308.213 256V256Z" stroke="#343A46" stroke-linejoin="bevel"/>
<path d="M415.213 231H462.213C476.02 231 487.213 242.193 487.213 256V256C487.213 269.807 476.02 281 462.213 281H415.213V231Z" fill="#8891EC"/>
<path d="M433.343 264.14C432.069 264.14 431.096 263.823 430.423 263.19C429.749 262.557 429.413 261.587 429.413 260.28V256.12H427.433V253.92H429.413V251.02H432.123V253.92H435.343V256.12H432.123V259.86C432.123 260.587 432.279 261.09 432.593 261.37C432.913 261.643 433.366 261.78 433.953 261.78C434.239 261.78 434.506 261.767 434.753 261.74C434.999 261.707 435.246 261.663 435.493 261.61V263.86C435.186 263.947 434.849 264.013 434.483 264.06C434.116 264.113 433.736 264.14 433.343 264.14ZM437.194 264V253.92H439.824V255.5C440.484 254.28 441.401 253.67 442.574 253.67C442.881 253.67 443.187 253.7 443.494 253.76V256.38C443.334 256.353 443.147 256.333 442.934 256.32C442.721 256.307 442.531 256.3 442.364 256.3C441.731 256.3 441.214 256.46 440.814 256.78C440.414 257.1 440.111 257.543 439.904 258.11V264H437.194ZM448.57 264.25C447.437 264.25 446.574 263.847 445.98 263.04C445.387 262.233 445.09 261.137 445.09 259.75V253.92H447.8V259.45C447.8 261.037 448.347 261.83 449.44 261.83H449.65C450.137 261.83 450.574 261.68 450.96 261.38C451.354 261.08 451.66 260.673 451.88 260.16V253.92H454.59V264H451.97V262.4C451.61 262.993 451.167 263.45 450.64 263.77C450.12 264.09 449.52 264.25 448.84 264.25H448.57ZM461.665 264.25C460.672 264.25 459.795 264.033 459.035 263.6C458.275 263.167 457.682 262.557 457.255 261.77C456.835 260.977 456.625 260.05 456.625 258.99C456.625 257.917 456.835 256.983 457.255 256.19C457.682 255.39 458.268 254.77 459.015 254.33C459.762 253.89 460.622 253.67 461.595 253.67H461.865C462.792 253.67 463.602 253.893 464.295 254.34C464.988 254.78 465.528 255.41 465.915 256.23C466.302 257.05 466.495 258.023 466.495 259.15V259.83H459.375C459.508 260.503 459.788 261.027 460.215 261.4C460.648 261.773 461.215 261.96 461.915 261.96H462.105C463.045 261.96 463.832 261.633 464.465 260.98L465.905 262.76C465.418 263.22 464.832 263.583 464.145 263.85C463.458 264.117 462.722 264.25 461.935 264.25H461.665ZM461.585 255.9C461.005 255.9 460.522 256.083 460.135 256.45C459.748 256.817 459.495 257.333 459.375 258H463.825C463.745 257.387 463.528 256.883 463.175 256.49C462.828 256.097 462.355 255.9 461.755 255.9H461.585Z" fill="#343A46"/>
<path d="M415.213 231H462.213C476.02 231 487.213 242.193 487.213 256V256C487.213 269.807 476.02 281 462.213 281H415.213V231Z" stroke="#343A46" stroke-linejoin="bevel"/>
<path d="M504.447 229.833L502.717 234.529C502.666 234.667 502.574 234.786 502.453 234.871C502.332 234.955 502.188 235 502.041 235C501.894 235 501.75 234.955 501.629 234.871C501.508 234.786 501.416 234.667 501.365 234.529L499.635 229.833C499.599 229.735 499.542 229.646 499.469 229.572C499.395 229.499 499.306 229.442 499.208 229.406L494.512 227.676C494.374 227.625 494.255 227.533 494.17 227.412C494.086 227.291 494.041 227.147 494.041 227C494.041 226.853 494.086 226.709 494.17 226.588C494.255 226.467 494.374 226.375 494.512 226.324L499.208 224.594C499.306 224.558 499.395 224.501 499.469 224.428C499.542 224.354 499.599 224.265 499.635 224.167L501.365 219.471C501.416 219.333 501.508 219.214 501.629 219.129C501.75 219.045 501.894 219 502.041 219C502.188 219 502.332 219.045 502.453 219.129C502.574 219.214 502.666 219.333 502.717 219.471L504.447 224.167C504.483 224.265 504.54 224.354 504.613 224.428C504.687 224.501 504.776 224.558 504.874 224.594L509.57 226.324C509.708 226.375 509.827 226.467 509.912 226.588C509.996 226.709 510.041 226.853 510.041 227C510.041 227.147 509.996 227.291 509.912 227.412C509.827 227.533 509.708 227.625 509.57 227.676L504.874 229.406C504.776 229.442 504.687 229.499 504.613 229.572C504.54 229.646 504.483 229.735 504.447 229.833Z" fill="#FABD62"/>
<path d="M511.545 241.77L510.463 244.705C510.432 244.792 510.374 244.866 510.298 244.919C510.223 244.972 510.133 245 510.041 245C509.949 245 509.859 244.972 509.784 244.919C509.708 244.866 509.65 244.792 509.619 244.705L508.537 241.77C508.515 241.709 508.479 241.654 508.433 241.608C508.387 241.562 508.332 241.526 508.271 241.504L505.336 240.422C505.249 240.391 505.175 240.333 505.122 240.257C505.069 240.182 505.041 240.092 505.041 240C505.041 239.908 505.069 239.818 505.122 239.743C505.175 239.667 505.249 239.609 505.336 239.578L508.271 238.496C508.332 238.474 508.387 238.438 508.433 238.392C508.479 238.346 508.515 238.291 508.537 238.23L509.619 235.295C509.65 235.208 509.708 235.134 509.784 235.081C509.859 235.028 509.949 235 510.041 235C510.133 235 510.223 235.028 510.298 235.081C510.374 235.134 510.432 235.208 510.463 235.295L511.545 238.23C511.567 238.291 511.603 238.346 511.649 238.392C511.695 238.438 511.75 238.474 511.812 238.496L514.746 239.578C514.833 239.609 514.907 239.667 514.96 239.743C515.013 239.818 515.041 239.908 515.041 240C515.041 240.092 515.013 240.182 514.96 240.257C514.907 240.333 514.833 240.391 514.746 240.422L511.812 241.504C511.75 241.526 511.695 241.562 511.649 241.608C511.603 241.654 511.567 241.709 511.545 241.77Z" fill="#FABD62"/>
<rect x="10" y="229" width="197" height="62" rx="31" stroke="#C76A15" stroke-width="4" stroke-linejoin="bevel"/>
<rect x="14" y="233" width="189" height="54" rx="27" stroke="#FABD62" stroke-width="4" stroke-linejoin="bevel"/>
<path d="M16 260C16 246.193 27.1929 235 41 235H123V285H41C27.1929 285 16 273.807 16 260V260Z" fill="#8891EC"/>
<path d="M38.7123 255.96C38.3723 255.96 38.1023 255.857 37.9023 255.65C37.7023 255.443 37.6023 255.177 37.6023 254.85C37.6023 254.523 37.7023 254.257 37.9023 254.05C38.1023 253.843 38.3723 253.74 38.7123 253.74C39.0523 253.74 39.3223 253.843 39.5223 254.05C39.7223 254.257 39.8223 254.523 39.8223 254.85C39.8223 255.177 39.7223 255.443 39.5223 255.65C39.3223 255.857 39.0523 255.96 38.7123 255.96ZM37.9223 268V258.05H39.5023V268H37.9223ZM46.1974 268.22C44.2108 268.22 42.7708 267.57 41.8774 266.27L42.9774 265.31C43.6841 266.323 44.7541 266.83 46.1874 266.83H46.3674C47.1008 266.83 47.6708 266.703 48.0774 266.45C48.4908 266.19 48.6974 265.827 48.6974 265.36C48.6974 264.96 48.5574 264.64 48.2774 264.4C48.0041 264.16 47.5374 263.973 46.8774 263.84L45.0774 263.47C43.1708 263.083 42.2174 262.193 42.2174 260.8C42.2174 259.907 42.5708 259.19 43.2774 258.65C43.9908 258.103 44.9274 257.83 46.0874 257.83H46.2874C47.9808 257.83 49.2474 258.447 50.0874 259.68L48.9874 260.57C48.6541 260.097 48.2641 259.753 47.8174 259.54C47.3708 259.327 46.8541 259.22 46.2674 259.22H46.0874C45.4008 259.22 44.8441 259.35 44.4174 259.61C43.9974 259.863 43.7874 260.217 43.7874 260.67C43.7874 261.023 43.9174 261.307 44.1774 261.52C44.4374 261.727 44.8708 261.893 45.4774 262.02L47.4474 262.43C48.3341 262.617 49.0241 262.94 49.5174 263.4C50.0174 263.86 50.2674 264.487 50.2674 265.28C50.2674 266.153 49.9274 266.863 49.2474 267.41C48.5741 267.95 47.6274 268.22 46.4074 268.22H46.1974ZM52.046 268C52.4927 266.493 53.0027 264.93 53.576 263.31C54.156 261.683 54.7693 260.077 55.416 258.49C56.0693 256.903 56.7227 255.407 57.376 254H59.416C60.076 255.407 60.7293 256.903 61.376 258.49C62.0227 260.077 62.636 261.683 63.216 263.31C63.796 264.93 64.306 266.493 64.746 268H62.936C62.7627 267.36 62.5693 266.703 62.356 266.03C62.1493 265.35 61.9293 264.66 61.696 263.96H55.036C54.8027 264.66 54.5793 265.35 54.366 266.03C54.1593 266.703 53.9693 267.36 53.796 268H52.046ZM55.576 262.4H61.156C60.7227 261.187 60.266 259.983 59.786 258.79C59.3127 257.597 58.8393 256.47 58.366 255.41C57.8993 256.47 57.426 257.597 56.946 258.79C56.466 259.983 56.0093 261.187 55.576 262.4ZM71.0485 268.22C70.1018 268.22 69.2685 268.01 68.5485 267.59C67.8285 267.163 67.2652 266.563 66.8585 265.79C66.4585 265.01 66.2585 264.09 66.2585 263.03C66.2585 261.97 66.4585 261.05 66.8585 260.27C67.2585 259.49 67.8185 258.89 68.5385 258.47C69.2585 258.043 70.0952 257.83 71.0485 257.83H71.2485C72.0218 257.83 72.7385 258.02 73.3985 258.4C74.0585 258.78 74.5952 259.297 75.0085 259.95L73.7985 260.82C73.4918 260.347 73.1218 259.977 72.6885 259.71C72.2552 259.437 71.7618 259.3 71.2085 259.3H71.0185C70.0585 259.3 69.2985 259.64 68.7385 260.32C68.1785 260.993 67.8985 261.897 67.8985 263.03C67.8985 264.157 68.1785 265.06 68.7385 265.74C69.2985 266.413 70.0585 266.75 71.0185 266.75H71.2085C71.7685 266.75 72.2685 266.63 72.7085 266.39C73.1552 266.15 73.5385 265.827 73.8585 265.42L75.0085 266.36C74.5818 266.94 74.0418 267.397 73.3885 267.73C72.7352 268.057 72.0218 268.22 71.2485 268.22H71.0485ZM81.734 268.12C80.6273 268.12 79.774 267.843 79.174 267.29C78.574 266.737 78.274 265.857 78.274 264.65V259.42H76.314V258.05H78.274V255.02H79.854V258.05H83.374V259.42H79.854V264.43C79.854 265.263 80.034 265.847 80.394 266.18C80.7607 266.507 81.2807 266.67 81.954 266.67C82.2473 266.67 82.514 266.657 82.754 266.63C82.994 266.597 83.244 266.553 83.504 266.5V267.89C83.2307 267.957 82.9407 268.01 82.634 268.05C82.3273 268.097 82.0273 268.12 81.734 268.12ZM86.5638 255.96C86.2238 255.96 85.9538 255.857 85.7538 255.65C85.5538 255.443 85.4538 255.177 85.4538 254.85C85.4538 254.523 85.5538 254.257 85.7538 254.05C85.9538 253.843 86.2238 253.74 86.5638 253.74C86.9038 253.74 87.1738 253.843 87.3738 254.05C87.5738 254.257 87.6738 254.523 87.6738 254.85C87.6738 255.177 87.5738 255.443 87.3738 255.65C87.1738 255.857 86.9038 255.96 86.5638 255.96ZM85.7738 268V258.05H87.3538V268H85.7738ZM93.469 268C92.749 266.387 92.059 264.747 91.399 263.08C90.7457 261.413 90.1357 259.737 89.569 258.05H91.349C91.7957 259.497 92.2823 260.943 92.809 262.39C93.3423 263.83 93.899 265.263 94.479 266.69C95.0657 265.263 95.6223 263.83 96.149 262.39C96.6757 260.943 97.1657 259.497 97.619 258.05H99.329C98.7623 259.737 98.1523 261.413 97.499 263.08C96.8457 264.747 96.159 266.387 95.439 268H93.469ZM105.227 268.22C104.281 268.22 103.451 268.003 102.737 267.57C102.024 267.137 101.467 266.53 101.067 265.75C100.674 264.97 100.477 264.063 100.477 263.03C100.477 262.017 100.674 261.12 101.067 260.34C101.461 259.553 102.007 258.94 102.707 258.5C103.414 258.053 104.231 257.83 105.157 257.83H105.347C106.227 257.83 106.994 258.05 107.647 258.49C108.301 258.923 108.804 259.537 109.157 260.33C109.517 261.123 109.697 262.057 109.697 263.13V263.67H102.097C102.204 264.623 102.537 265.38 103.097 265.94C103.664 266.5 104.397 266.78 105.297 266.78H105.477C106.011 266.78 106.504 266.673 106.957 266.46C107.417 266.247 107.804 265.953 108.117 265.58L109.127 266.61C108.694 267.11 108.157 267.503 107.517 267.79C106.877 268.077 106.181 268.22 105.427 268.22H105.227ZM105.127 259.26C104.301 259.26 103.617 259.54 103.077 260.1C102.537 260.66 102.214 261.413 102.107 262.36H108.107C108.061 261.48 107.794 260.743 107.307 260.15C106.827 259.557 106.161 259.26 105.307 259.26H105.127Z" fill="#343A46"/>
<path d="M16 260C16 246.193 27.1929 235 41 235H123V285H41C27.1929 285 16 273.807 16 260V260Z" stroke="#343A46" stroke-linejoin="bevel"/>
<path d="M123 235H176C189.807 235 201 246.193 201 260V260C201 273.807 189.807 285 176 285H123V235Z" fill="#8891EC"/>
<path d="M137.288 268V260.12H135.398V257.92H137.288V257.24C137.288 255.907 137.631 254.893 138.318 254.2C139.004 253.5 139.984 253.15 141.258 253.15C141.631 253.15 141.984 253.173 142.318 253.22C142.658 253.267 142.941 253.327 143.168 253.4V255.59C142.914 255.537 142.674 255.5 142.448 255.48C142.221 255.453 142.008 255.44 141.808 255.44C141.241 255.44 140.798 255.583 140.478 255.87C140.158 256.157 139.998 256.617 139.998 257.25V257.92H143.028V260.12H139.998V268H137.288ZM146.959 268.2C145.972 268.2 145.185 267.93 144.599 267.39C144.019 266.85 143.729 266.127 143.729 265.22C143.729 264.32 144.062 263.58 144.729 263C145.402 262.413 146.449 262.12 147.869 262.12H150.259V262.07C150.259 260.71 149.612 260.03 148.319 260.03C147.259 260.03 146.459 260.407 145.919 261.16L144.149 259.77C144.602 259.077 145.192 258.553 145.919 258.2C146.652 257.847 147.479 257.67 148.399 257.67H148.669C149.982 257.67 151.025 258.04 151.799 258.78C152.579 259.52 152.969 260.61 152.969 262.05V268H150.359V266.54C149.985 267.073 149.509 267.483 148.929 267.77C148.355 268.057 147.699 268.2 146.959 268.2ZM147.839 266.04C148.425 266.04 148.919 265.913 149.319 265.66C149.725 265.407 150.039 265.057 150.259 264.61V263.9H148.229C147.575 263.9 147.105 263.997 146.819 264.19C146.539 264.383 146.399 264.653 146.399 265C146.399 265.693 146.879 266.04 147.839 266.04ZM155.354 268V253.4H158.064V268H155.354ZM164.408 268.25C163.328 268.25 162.411 268.083 161.658 267.75C160.911 267.41 160.298 266.907 159.818 266.24L161.418 264.71C161.804 265.203 162.248 265.557 162.748 265.77C163.254 265.977 163.791 266.08 164.358 266.08H164.558C165.098 266.08 165.518 266.003 165.818 265.85C166.124 265.697 166.278 265.477 166.278 265.19C166.278 264.943 166.174 264.743 165.968 264.59C165.761 264.437 165.361 264.297 164.768 264.17L163.248 263.84C162.248 263.62 161.484 263.263 160.958 262.77C160.431 262.277 160.168 261.657 160.168 260.91C160.168 259.923 160.558 259.137 161.338 258.55C162.124 257.963 163.151 257.67 164.418 257.67H164.698C166.458 257.67 167.808 258.277 168.748 259.49L167.218 261C166.891 260.607 166.508 260.317 166.068 260.13C165.634 259.943 165.171 259.85 164.678 259.85H164.478C163.951 259.85 163.534 259.923 163.228 260.07C162.928 260.217 162.778 260.433 162.778 260.72C162.778 260.947 162.878 261.127 163.078 261.26C163.284 261.393 163.668 261.517 164.228 261.63L165.868 261.98C166.861 262.187 167.618 262.543 168.138 263.05C168.664 263.557 168.928 264.217 168.928 265.03C168.928 265.99 168.551 266.767 167.798 267.36C167.051 267.953 166.011 268.25 164.678 268.25H164.408ZM175.274 268.25C174.281 268.25 173.404 268.033 172.644 267.6C171.884 267.167 171.291 266.557 170.864 265.77C170.444 264.977 170.234 264.05 170.234 262.99C170.234 261.917 170.444 260.983 170.864 260.19C171.291 259.39 171.878 258.77 172.624 258.33C173.371 257.89 174.231 257.67 175.204 257.67H175.474C176.401 257.67 177.211 257.893 177.904 258.34C178.598 258.78 179.138 259.41 179.524 260.23C179.911 261.05 180.104 262.023 180.104 263.15V263.83H172.984C173.118 264.503 173.398 265.027 173.824 265.4C174.258 265.773 174.824 265.96 175.524 265.96H175.714C176.654 265.96 177.441 265.633 178.074 264.98L179.514 266.76C179.028 267.22 178.441 267.583 177.754 267.85C177.068 268.117 176.331 268.25 175.544 268.25H175.274ZM175.194 259.9C174.614 259.9 174.131 260.083 173.744 260.45C173.358 260.817 173.104 261.333 172.984 262H177.434C177.354 261.387 177.138 260.883 176.784 260.49C176.438 260.097 175.964 259.9 175.364 259.9H175.194Z" fill="#343A46"/>
<path d="M123 235H176C189.807 235 201 246.193 201 260V260C201 273.807 189.807 285 176 285H123V235Z" stroke="#343A46" stroke-linejoin="bevel"/>
<path d="M212.234 233.833L210.504 238.529C210.453 238.667 210.361 238.786 210.24 238.871C210.119 238.955 209.975 239 209.828 239C209.681 239 209.537 238.955 209.416 238.871C209.295 238.786 209.203 238.667 209.152 238.529L207.422 233.833C207.386 233.735 207.329 233.646 207.256 233.572C207.182 233.499 207.093 233.442 206.995 233.406L202.299 231.676C202.161 231.625 202.042 231.533 201.958 231.412C201.873 231.291 201.828 231.147 201.828 231C201.828 230.853 201.873 230.709 201.958 230.588C202.042 230.467 202.161 230.375 202.299 230.324L206.995 228.594C207.093 228.558 207.182 228.501 207.256 228.428C207.329 228.354 207.386 228.265 207.422 228.167L209.152 223.471C209.203 223.333 209.295 223.214 209.416 223.129C209.537 223.045 209.681 223 209.828 223C209.975 223 210.119 223.045 210.24 223.129C210.361 223.214 210.453 223.333 210.504 223.471L212.234 228.167C212.27 228.265 212.327 228.354 212.401 228.428C212.474 228.501 212.563 228.558 212.661 228.594L217.357 230.324C217.495 230.375 217.614 230.467 217.699 230.588C217.783 230.709 217.828 230.853 217.828 231C217.828 231.147 217.783 231.291 217.699 231.412C217.614 231.533 217.495 231.625 217.357 231.676L212.661 233.406C212.563 233.442 212.474 233.499 212.401 233.572C212.327 233.646 212.27 233.735 212.234 233.833Z" fill="#FABD62"/>
<path d="M219.332 245.77L218.251 248.705C218.219 248.792 218.161 248.866 218.086 248.919C218.01 248.972 217.92 249 217.828 249C217.736 249 217.646 248.972 217.571 248.919C217.495 248.866 217.438 248.792 217.406 248.705L216.324 245.77C216.302 245.709 216.266 245.654 216.22 245.608C216.174 245.562 216.119 245.526 216.058 245.504L213.123 244.422C213.036 244.391 212.962 244.333 212.909 244.257C212.856 244.182 212.828 244.092 212.828 244C212.828 243.908 212.856 243.818 212.909 243.743C212.962 243.667 213.036 243.609 213.123 243.578L216.058 242.496C216.119 242.474 216.174 242.438 216.22 242.392C216.266 242.346 216.302 242.291 216.324 242.23L217.406 239.295C217.438 239.208 217.495 239.134 217.571 239.081C217.646 239.028 217.736 239 217.828 239C217.92 239 218.01 239.028 218.086 239.081C218.161 239.134 218.219 239.208 218.251 239.295L219.332 242.23C219.354 242.291 219.39 242.346 219.436 242.392C219.482 242.438 219.537 242.474 219.599 242.496L222.534 243.578C222.62 243.609 222.695 243.667 222.747 243.743C222.8 243.818 222.828 243.908 222.828 244C222.828 244.092 222.8 244.182 222.747 244.257C222.695 244.333 222.62 244.391 222.534 244.422L219.599 245.504C219.537 245.526 219.482 245.562 219.436 245.608C219.39 245.654 219.354 245.709 219.332 245.77Z" fill="#FABD62"/>
</g>
<defs>
<filter id="filter0_d_622_5882" x="20.5" y="322.5" width="190.776" height="61" filterUnits="userSpaceOnUse" color-interpolation-filters="sRGB">
<feFlood flood-opacity="0" result="BackgroundImageFix"/>
<feColorMatrix in="SourceAlpha" type="matrix" values="0 0 0 0 0 0 0 0 0 0 0 0 0 0 0 0 0 0 127 0" result="hardAlpha"/>
<feOffset dy="2"/>
<feComposite in2="hardAlpha" operator="out"/>
<feColorMatrix type="matrix" values="0 0 0 0 1 0 0 0 0 1 0 0 0 0 1 0 0 0 1 0"/>
<feBlend mode="normal" in2="BackgroundImageFix" result="effect1_dropShadow_622_5882"/>
<feBlend mode="normal" in="SourceGraphic" in2="effect1_dropShadow_622_5882" result="shape"/>
</filter>
<filter id="filter1_d_622_5882" x="299.5" y="322.5" width="190.776" height="61" filterUnits="userSpaceOnUse" color-interpolation-filters="sRGB">
<feFlood flood-opacity="0" result="BackgroundImageFix"/>
<feColorMatrix in="SourceAlpha" type="matrix" values="0 0 0 0 0 0 0 0 0 0 0 0 0 0 0 0 0 0 127 0" result="hardAlpha"/>
<feOffset dy="2"/>
<feComposite in2="hardAlpha" operator="out"/>
<feColorMatrix type="matrix" values="0 0 0 0 1 0 0 0 0 1 0 0 0 0 1 0 0 0 1 0"/>
<feBlend mode="normal" in2="BackgroundImageFix" result="effect1_dropShadow_622_5882"/>
<feBlend mode="normal" in="SourceGraphic" in2="effect1_dropShadow_622_5882" result="shape"/>
</filter>
<clipPath id="clip0_622_5882">
<rect width="521" height="385" fill="white"/>
</clipPath>
</defs>
</svg>
