<svg width="410" height="385" viewBox="0 0 410 385" fill="none" xmlns="http://www.w3.org/2000/svg">
<g clip-path="url(#clip0_426_4837)">
<g filter="url(#filter0_d_426_4837)">
<path d="M4 330C4 326.686 6.68629 324 10 324H158C161.314 324 164 326.686 164 330V376C164 379.314 161.314 382 158 382H10C6.6863 382 4 379.314 4 376V330Z" fill="white"/>
<path d="M37.6588 361V347H40.1588L45.0588 355.59L49.9288 347H52.4288V361H50.3888V349.92L46.0088 357.64H44.0788L39.6988 349.97V361H37.6588ZM56.5211 365.44C56.2344 365.44 55.9644 365.417 55.7111 365.37V363.57C55.9244 363.603 56.1111 363.62 56.2711 363.62C56.9711 363.62 57.5411 363.42 57.9811 363.02C58.4211 362.627 58.8078 362.047 59.1411 361.28C58.3211 359.633 57.5511 357.947 56.8311 356.22C56.1111 354.493 55.4244 352.753 54.7711 351H57.0911C57.5178 352.34 57.9778 353.68 58.4711 355.02C58.9711 356.353 59.5011 357.673 60.0611 358.98L62.7911 351H64.9711L61.0611 361.31C60.5611 362.63 59.9678 363.647 59.2811 364.36C58.5944 365.08 57.6744 365.44 56.5211 365.44ZM67.3658 361V347H73.3258C74.8658 347 76.0324 347.323 76.8258 347.97C77.6191 348.617 78.0158 349.5 78.0158 350.62C78.0158 351.307 77.8524 351.917 77.5258 352.45C77.1991 352.983 76.6224 353.38 75.7958 353.64C76.8424 353.887 77.6024 354.317 78.0758 354.93C78.5558 355.543 78.7958 356.287 78.7958 357.16C78.7958 358.367 78.3724 359.31 77.5258 359.99C76.6858 360.663 75.4758 361 73.8958 361H67.3658ZM73.2058 348.94H69.4658V353.04H73.2958C74.1891 353.04 74.8458 352.873 75.2658 352.54C75.6924 352.2 75.9058 351.68 75.9058 350.98C75.9058 350.28 75.6858 349.767 75.2458 349.44C74.8058 349.107 74.1258 348.94 73.2058 348.94ZM73.8158 354.96H69.4658V359.06H73.8658C75.7191 359.06 76.6458 358.377 76.6458 357.01C76.6458 356.317 76.4358 355.803 76.0158 355.47C75.6024 355.13 74.8691 354.96 73.8158 354.96ZM84.5531 361.24C83.3998 361.24 82.5198 360.85 81.9131 360.07C81.3065 359.29 81.0031 358.193 81.0031 356.78V351H83.0031V356.54C83.0031 358.433 83.6898 359.38 85.0631 359.38H85.2631C85.9431 359.38 86.5198 359.17 86.9931 358.75C87.4731 358.33 87.8298 357.8 88.0631 357.16V351H90.0631V361H88.0631V359.33C87.6965 359.923 87.2365 360.39 86.6831 360.73C86.1365 361.07 85.4998 361.24 84.7731 361.24H84.5531ZM97.5091 361.13C96.3224 361.13 95.4191 360.83 94.7991 360.23C94.1791 359.63 93.8691 358.707 93.8691 357.46V352.74H91.9091V351H93.8691V348.02H95.8691V351H99.2391V352.74H95.8691V357.19C95.8691 357.977 96.0324 358.523 96.3591 358.83C96.6857 359.137 97.1691 359.29 97.8091 359.29C98.1157 359.29 98.3891 359.277 98.6291 359.25C98.8757 359.223 99.1291 359.19 99.3891 359.15V360.9C99.1224 360.967 98.8224 361.02 98.4891 361.06C98.1557 361.107 97.8291 361.13 97.5091 361.13ZM105.947 361.13C104.76 361.13 103.857 360.83 103.237 360.23C102.617 359.63 102.307 358.707 102.307 357.46V352.74H100.347V351H102.307V348.02H104.307V351H107.677V352.74H104.307V357.19C104.307 357.977 104.47 358.523 104.797 358.83C105.123 359.137 105.607 359.29 106.247 359.29C106.553 359.29 106.827 359.277 107.067 359.25C107.313 359.223 107.567 359.19 107.827 359.15V360.9C107.56 360.967 107.26 361.02 106.927 361.06C106.593 361.107 106.267 361.13 105.947 361.13ZM114.324 361.24C113.311 361.24 112.427 361.017 111.674 360.57C110.927 360.117 110.351 359.497 109.944 358.71C109.537 357.917 109.334 357.013 109.334 356C109.334 354.98 109.537 354.077 109.944 353.29C110.351 352.503 110.927 351.887 111.674 351.44C112.427 350.987 113.311 350.76 114.324 350.76H114.544C115.564 350.76 116.447 350.987 117.194 351.44C117.941 351.887 118.517 352.503 118.924 353.29C119.331 354.077 119.534 354.98 119.534 356C119.534 357.013 119.331 357.917 118.924 358.71C118.517 359.497 117.941 360.117 117.194 360.57C116.447 361.017 115.564 361.24 114.544 361.24H114.324ZM114.334 359.38H114.534C115.447 359.38 116.164 359.073 116.684 358.46C117.204 357.847 117.464 357.027 117.464 356C117.464 354.967 117.204 354.147 116.684 353.54C116.164 352.927 115.447 352.62 114.534 352.62H114.334C113.427 352.62 112.711 352.927 112.184 353.54C111.664 354.147 111.404 354.967 111.404 356C111.404 357.027 111.664 357.847 112.184 358.46C112.711 359.073 113.427 359.38 114.334 359.38ZM121.915 361V351H123.915V352.67C124.282 352.077 124.739 351.61 125.285 351.27C125.839 350.93 126.479 350.76 127.205 350.76H127.425C128.532 350.76 129.399 351.15 130.025 351.93C130.659 352.71 130.975 353.807 130.975 355.22V361H128.975V355.46C128.975 353.567 128.289 352.62 126.915 352.62H126.715C126.035 352.62 125.455 352.83 124.975 353.25C124.502 353.67 124.149 354.2 123.915 354.84V361H121.915Z" fill="#2C749E"/>
<path d="M10 324.5H158V323.5H10V324.5ZM163.5 330V376H164.5V330H163.5ZM158 381.5H10V382.5H158V381.5ZM4.5 376V330H3.5V376H4.5ZM10 381.5C6.96244 381.5 4.5 379.038 4.5 376H3.5C3.5 379.59 6.41015 382.5 10 382.5V381.5ZM163.5 376C163.5 379.038 161.038 381.5 158 381.5V382.5C161.59 382.5 164.5 379.59 164.5 376H163.5ZM158 324.5C161.038 324.5 163.5 326.962 163.5 330H164.5C164.5 326.41 161.59 323.5 158 323.5V324.5ZM10 323.5C6.41015 323.5 3.5 326.41 3.5 330H4.5C4.5 326.962 6.96243 324.5 10 324.5V323.5Z" fill="#2C749E"/>
</g>
<g filter="url(#filter1_d_426_4837)">
<path d="M247 330C247 326.686 249.686 324 253 324H401C404.314 324 407 326.686 407 330V376C407 379.314 404.314 382 401 382H253C249.686 382 247 379.314 247 376V330Z" fill="white"/>
<path d="M280.659 361V347H283.159L288.059 355.59L292.929 347H295.429V361H293.389V349.92L289.009 357.64H287.079L282.699 349.97V361H280.659ZM299.521 365.44C299.234 365.44 298.964 365.417 298.711 365.37V363.57C298.924 363.603 299.111 363.62 299.271 363.62C299.971 363.62 300.541 363.42 300.981 363.02C301.421 362.627 301.808 362.047 302.141 361.28C301.321 359.633 300.551 357.947 299.831 356.22C299.111 354.493 298.424 352.753 297.771 351H300.091C300.518 352.34 300.978 353.68 301.471 355.02C301.971 356.353 302.501 357.673 303.061 358.98L305.791 351H307.971L304.061 361.31C303.561 362.63 302.968 363.647 302.281 364.36C301.594 365.08 300.674 365.44 299.521 365.44ZM310.366 361V347H316.326C317.866 347 319.032 347.323 319.826 347.97C320.619 348.617 321.016 349.5 321.016 350.62C321.016 351.307 320.852 351.917 320.526 352.45C320.199 352.983 319.622 353.38 318.796 353.64C319.842 353.887 320.602 354.317 321.076 354.93C321.556 355.543 321.796 356.287 321.796 357.16C321.796 358.367 321.372 359.31 320.526 359.99C319.686 360.663 318.476 361 316.896 361H310.366ZM316.206 348.94H312.466V353.04H316.296C317.189 353.04 317.846 352.873 318.266 352.54C318.692 352.2 318.906 351.68 318.906 350.98C318.906 350.28 318.686 349.767 318.246 349.44C317.806 349.107 317.126 348.94 316.206 348.94ZM316.816 354.96H312.466V359.06H316.866C318.719 359.06 319.646 358.377 319.646 357.01C319.646 356.317 319.436 355.803 319.016 355.47C318.602 355.13 317.869 354.96 316.816 354.96ZM327.553 361.24C326.4 361.24 325.52 360.85 324.913 360.07C324.306 359.29 324.003 358.193 324.003 356.78V351H326.003V356.54C326.003 358.433 326.69 359.38 328.063 359.38H328.263C328.943 359.38 329.52 359.17 329.993 358.75C330.473 358.33 330.83 357.8 331.063 357.16V351H333.063V361H331.063V359.33C330.696 359.923 330.236 360.39 329.683 360.73C329.136 361.07 328.5 361.24 327.773 361.24H327.553ZM340.509 361.13C339.322 361.13 338.419 360.83 337.799 360.23C337.179 359.63 336.869 358.707 336.869 357.46V352.74H334.909V351H336.869V348.02H338.869V351H342.239V352.74H338.869V357.19C338.869 357.977 339.032 358.523 339.359 358.83C339.686 359.137 340.169 359.29 340.809 359.29C341.116 359.29 341.389 359.277 341.629 359.25C341.876 359.223 342.129 359.19 342.389 359.15V360.9C342.122 360.967 341.822 361.02 341.489 361.06C341.156 361.107 340.829 361.13 340.509 361.13ZM348.947 361.13C347.76 361.13 346.857 360.83 346.237 360.23C345.617 359.63 345.307 358.707 345.307 357.46V352.74H343.347V351H345.307V348.02H347.307V351H350.677V352.74H347.307V357.19C347.307 357.977 347.47 358.523 347.797 358.83C348.123 359.137 348.607 359.29 349.247 359.29C349.553 359.29 349.827 359.277 350.067 359.25C350.313 359.223 350.567 359.19 350.827 359.15V360.9C350.56 360.967 350.26 361.02 349.927 361.06C349.593 361.107 349.267 361.13 348.947 361.13ZM357.324 361.24C356.311 361.24 355.427 361.017 354.674 360.57C353.927 360.117 353.351 359.497 352.944 358.71C352.537 357.917 352.334 357.013 352.334 356C352.334 354.98 352.537 354.077 352.944 353.29C353.351 352.503 353.927 351.887 354.674 351.44C355.427 350.987 356.311 350.76 357.324 350.76H357.544C358.564 350.76 359.447 350.987 360.194 351.44C360.941 351.887 361.517 352.503 361.924 353.29C362.331 354.077 362.534 354.98 362.534 356C362.534 357.013 362.331 357.917 361.924 358.71C361.517 359.497 360.941 360.117 360.194 360.57C359.447 361.017 358.564 361.24 357.544 361.24H357.324ZM357.334 359.38H357.534C358.447 359.38 359.164 359.073 359.684 358.46C360.204 357.847 360.464 357.027 360.464 356C360.464 354.967 360.204 354.147 359.684 353.54C359.164 352.927 358.447 352.62 357.534 352.62H357.334C356.427 352.62 355.711 352.927 355.184 353.54C354.664 354.147 354.404 354.967 354.404 356C354.404 357.027 354.664 357.847 355.184 358.46C355.711 359.073 356.427 359.38 357.334 359.38ZM364.915 361V351H366.915V352.67C367.282 352.077 367.739 351.61 368.285 351.27C368.839 350.93 369.479 350.76 370.205 350.76H370.425C371.532 350.76 372.399 351.15 373.025 351.93C373.659 352.71 373.975 353.807 373.975 355.22V361H371.975V355.46C371.975 353.567 371.289 352.62 369.915 352.62H369.715C369.035 352.62 368.455 352.83 367.975 353.25C367.502 353.67 367.149 354.2 366.915 354.84V361H364.915Z" fill="#2C749E"/>
<path d="M253 324.5H401V323.5H253V324.5ZM406.5 330V376H407.5V330H406.5ZM401 381.5H253V382.5H401V381.5ZM247.5 376V330H246.5V376H247.5ZM253 381.5C249.962 381.5 247.5 379.038 247.5 376H246.5C246.5 379.59 249.41 382.5 253 382.5V381.5ZM406.5 376C406.5 379.038 404.038 381.5 401 381.5V382.5C404.59 382.5 407.5 379.59 407.5 376H406.5ZM401 324.5C404.038 324.5 406.5 326.962 406.5 330H407.5C407.5 326.41 404.59 323.5 401 323.5V324.5ZM253 323.5C249.41 323.5 246.5 326.41 246.5 330H247.5C247.5 326.962 249.962 324.5 253 324.5V323.5Z" fill="#2C749E"/>
</g>
<rect x="304" y="326" width="24" height="14" fill="white"/>
<rect x="84" y="326" width="24" height="14" fill="white"/>
<path d="M94.9393 321.061C95.5251 321.646 96.4749 321.646 97.0607 321.061L106.607 311.515C107.192 310.929 107.192 309.979 106.607 309.393C106.021 308.808 105.071 308.808 104.485 309.393L96 317.879L87.5147 309.393C86.9289 308.808 85.9792 308.808 85.3934 309.393C84.8076 309.979 84.8076 310.929 85.3934 311.515L94.9393 321.061ZM97.5 320V200.061H94.5V320H97.5ZM112 185.561H190V182.561H112V185.561ZM207.5 168.061V138H204.5V168.061H207.5ZM190 185.561C199.665 185.561 207.5 177.726 207.5 168.061H204.5C204.5 176.07 198.008 182.561 190 182.561V185.561ZM97.5 200.061C97.5 192.053 103.992 185.561 112 185.561V182.561C102.335 182.561 94.5 190.396 94.5 200.061H97.5Z" fill="#FABD62"/>
<path d="M317.061 321.061C316.475 321.646 315.525 321.646 314.939 321.061L305.393 311.515C304.808 310.929 304.808 309.979 305.393 309.393C305.979 308.808 306.929 308.808 307.515 309.393L316 317.879L324.485 309.393C325.071 308.808 326.021 308.808 326.607 309.393C327.192 309.979 327.192 310.929 326.607 311.515L317.061 321.061ZM314.5 320V200.061H317.5V320H314.5ZM300 185.561H222V182.561H300V185.561ZM204.5 168.061V138H207.5V168.061H204.5ZM222 185.561C212.335 185.561 204.5 177.726 204.5 168.061H207.5C207.5 176.07 213.992 182.561 222 182.561V185.561ZM314.5 200.061C314.5 192.053 308.008 185.561 300 185.561V182.561C309.665 182.561 317.5 190.396 317.5 200.061H314.5Z" fill="#FABD62"/>
<rect x="78" y="6" width="255" height="135" rx="6" fill="white"/>
<rect x="78" y="6" width="255" height="135" rx="6" stroke="#2C749E" stroke-linejoin="bevel"/>
<path fill-rule="evenodd" clip-rule="evenodd" d="M78 135V138C78 141.314 80.6863 144 84 144H327C330.314 144 333 141.314 333 138V135C333 138.314 330.314 141 327 141H84C80.6863 141 78 138.314 78 135Z" fill="#2C749E"/>
<path d="M173.065 39V25H175.565L180.465 33.59L185.335 25H187.835V39H185.795V27.92L181.415 35.64H179.485L175.105 27.97V39H173.065ZM191.927 43.44C191.641 43.44 191.371 43.4167 191.117 43.37V41.57C191.331 41.6033 191.517 41.62 191.677 41.62C192.377 41.62 192.947 41.42 193.387 41.02C193.827 40.6267 194.214 40.0467 194.547 39.28C193.727 37.6333 192.957 35.9467 192.237 34.22C191.517 32.4933 190.831 30.7533 190.177 29H192.497C192.924 30.34 193.384 31.68 193.877 33.02C194.377 34.3533 194.907 35.6733 195.467 36.98L198.197 29H200.377L196.467 39.31C195.967 40.63 195.374 41.6467 194.687 42.36C194.001 43.08 193.081 43.44 191.927 43.44ZM201.582 39C202.022 37.4667 202.529 35.8833 203.102 34.25C203.675 32.6167 204.279 31.01 204.912 29.43C205.552 27.8433 206.192 26.3667 206.832 25H209.352C209.992 26.3667 210.632 27.8433 211.272 29.43C211.912 31.01 212.515 32.6167 213.082 34.25C213.655 35.8833 214.162 37.4667 214.602 39H212.312C212.159 38.4133 211.989 37.81 211.802 37.19C211.622 36.57 211.432 35.94 211.232 35.3H204.882C204.682 35.94 204.489 36.57 204.302 37.19C204.122 37.81 203.955 38.4133 203.802 39H201.582ZM205.542 33.34H210.572C210.172 32.1933 209.755 31.0667 209.322 29.96C208.895 28.8467 208.472 27.8033 208.052 26.83C207.639 27.8033 207.215 28.8467 206.782 29.96C206.355 31.0667 205.942 32.1933 205.542 33.34ZM216.814 43.2V29H218.814V30.57C219.16 29.97 219.614 29.52 220.174 29.22C220.734 28.9133 221.357 28.76 222.044 28.76H222.264C223.15 28.76 223.924 28.9867 224.584 29.44C225.25 29.8867 225.767 30.5067 226.134 31.3C226.5 32.0867 226.684 32.9867 226.684 34C226.684 35.0133 226.5 35.9167 226.134 36.71C225.767 37.4967 225.25 38.1167 224.584 38.57C223.924 39.0167 223.15 39.24 222.264 39.24H222.044C221.384 39.24 220.77 39.1 220.204 38.82C219.644 38.5333 219.18 38.11 218.814 37.55V43.2H216.814ZM221.564 37.39H221.764C222.637 37.39 223.33 37.0967 223.844 36.51C224.357 35.9233 224.614 35.0867 224.614 34C224.614 32.9133 224.357 32.0767 223.844 31.49C223.33 30.9033 222.637 30.61 221.764 30.61H221.564C220.97 30.61 220.434 30.7867 219.954 31.14C219.48 31.4933 219.1 31.9767 218.814 32.59V35.41C219.1 36.0233 219.48 36.5067 219.954 36.86C220.434 37.2133 220.97 37.39 221.564 37.39ZM229.079 43.2V29H231.079V30.57C231.426 29.97 231.879 29.52 232.439 29.22C232.999 28.9133 233.623 28.76 234.309 28.76H234.529C235.416 28.76 236.189 28.9867 236.849 29.44C237.516 29.8867 238.033 30.5067 238.399 31.3C238.766 32.0867 238.949 32.9867 238.949 34C238.949 35.0133 238.766 35.9167 238.399 36.71C238.033 37.4967 237.516 38.1167 236.849 38.57C236.189 39.0167 235.416 39.24 234.529 39.24H234.309C233.649 39.24 233.036 39.1 232.469 38.82C231.909 38.5333 231.446 38.11 231.079 37.55V43.2H229.079ZM233.829 37.39H234.029C234.903 37.39 235.596 37.0967 236.109 36.51C236.623 35.9233 236.879 35.0867 236.879 34C236.879 32.9133 236.623 32.0767 236.109 31.49C235.596 30.9033 234.903 30.61 234.029 30.61H233.829C233.236 30.61 232.699 30.7867 232.219 31.14C231.746 31.4933 231.366 31.9767 231.079 32.59V35.41C231.366 36.0233 231.746 36.5067 232.219 36.86C232.699 37.2133 233.236 37.39 233.829 37.39Z" fill="#2C749E"/>
<rect x="133" y="58" width="145" height="62" rx="31" stroke="#FCDEB0" stroke-width="4" stroke-linejoin="bevel"/>
<rect x="137" y="62" width="137" height="54" rx="27" stroke="#FABD62" stroke-width="4" stroke-linejoin="bevel"/>
<path d="M139 89C139 75.1929 150.193 64 164 64H226V114H164C150.193 114 139 102.807 139 89V89Z" fill="white"/>
<path d="M165.064 97.22C164.117 97.22 163.284 97.01 162.564 96.59C161.844 96.1633 161.281 95.5633 160.874 94.79C160.474 94.01 160.274 93.09 160.274 92.03C160.274 90.97 160.474 90.05 160.874 89.27C161.274 88.49 161.834 87.89 162.554 87.47C163.274 87.0433 164.111 86.83 165.064 86.83H165.264C166.037 86.83 166.754 87.02 167.414 87.4C168.074 87.78 168.611 88.2967 169.024 88.95L167.814 89.82C167.507 89.3467 167.137 88.9767 166.704 88.71C166.271 88.4367 165.777 88.3 165.224 88.3H165.034C164.074 88.3 163.314 88.64 162.754 89.32C162.194 89.9933 161.914 90.8967 161.914 92.03C161.914 93.1567 162.194 94.06 162.754 94.74C163.314 95.4133 164.074 95.75 165.034 95.75H165.224C165.784 95.75 166.284 95.63 166.724 95.39C167.171 95.15 167.554 94.8267 167.874 94.42L169.024 95.36C168.597 95.94 168.057 96.3967 167.404 96.73C166.751 97.0567 166.037 97.22 165.264 97.22H165.064ZM175.74 97.22C174.746 97.22 173.886 96.9967 173.16 96.55C172.433 96.1033 171.87 95.49 171.47 94.71C171.076 93.93 170.88 93.0367 170.88 92.03C170.88 91.0167 171.076 90.12 171.47 89.34C171.87 88.56 172.433 87.9467 173.16 87.5C173.886 87.0533 174.746 86.83 175.74 86.83H175.94C176.933 86.83 177.793 87.0533 178.52 87.5C179.246 87.9467 179.806 88.56 180.2 89.34C180.6 90.12 180.8 91.0167 180.8 92.03C180.8 93.0367 180.6 93.93 180.2 94.71C179.806 95.49 179.246 96.1033 178.52 96.55C177.793 96.9967 176.933 97.22 175.94 97.22H175.74ZM175.75 95.76H175.93C176.923 95.76 177.71 95.42 178.29 94.74C178.87 94.06 179.16 93.1567 179.16 92.03C179.16 90.8967 178.87 89.9933 178.29 89.32C177.71 88.64 176.923 88.3 175.93 88.3H175.75C174.756 88.3 173.97 88.64 173.39 89.32C172.81 89.9933 172.52 90.8967 172.52 92.03C172.52 93.1567 172.81 94.06 173.39 94.74C173.97 95.42 174.756 95.76 175.75 95.76ZM186.812 97.22C185.659 97.22 184.779 96.8433 184.172 96.09C183.566 95.3367 183.262 94.2667 183.262 92.88V87.05H184.842V92.65C184.842 93.6767 185.032 94.4533 185.412 94.98C185.799 95.5 186.396 95.76 187.202 95.76H187.382C188.122 95.76 188.756 95.52 189.282 95.04C189.809 94.5533 190.196 93.9467 190.442 93.22V87.05H192.022V97H190.442V95.11C190.076 95.7633 189.602 96.28 189.022 96.66C188.442 97.0333 187.772 97.22 187.012 97.22H186.812ZM195.219 97V87.05H196.799V88.94C197.166 88.2867 197.639 87.7733 198.219 87.4C198.799 87.02 199.469 86.83 200.229 86.83H200.429C201.556 86.83 202.429 87.2067 203.049 87.96C203.669 88.7067 203.979 89.7767 203.979 91.17V97H202.399V91.4C202.399 90.3733 202.209 89.6 201.829 89.08C201.449 88.56 200.852 88.3 200.039 88.3H199.849C199.109 88.3 198.476 88.54 197.949 89.02C197.429 89.5 197.046 90.1033 196.799 90.83V97H195.219ZM211.316 97.12C210.209 97.12 209.356 96.8433 208.756 96.29C208.156 95.7367 207.856 94.8567 207.856 93.65V88.42H205.896V87.05H207.856V84.02H209.436V87.05H212.956V88.42H209.436V93.43C209.436 94.2633 209.616 94.8467 209.976 95.18C210.343 95.5067 210.863 95.67 211.536 95.67C211.829 95.67 212.096 95.6567 212.336 95.63C212.576 95.5967 212.826 95.5533 213.086 95.5V96.89C212.813 96.9567 212.523 97.01 212.216 97.05C211.909 97.0967 211.609 97.12 211.316 97.12Z" fill="#606BD6"/>
<path d="M139 89C139 75.1929 150.193 64 164 64H226V114H164C150.193 114 139 102.807 139 89V89Z" stroke="#FABD62" stroke-linejoin="bevel"/>
<path d="M227 64H247C260.807 64 272 75.1929 272 89V89C272 102.807 260.807 114 247 114H227V64Z" fill="white"/>
<path d="M245.24 97V86L242.54 88.44L240.87 86.5L244.75 83H248.05V97H245.24Z" fill="#606BD6"/>
<path d="M227 64H247C260.807 64 272 75.1929 272 89V89C272 102.807 260.807 114 247 114H227V64Z" stroke="#FABD62" stroke-linejoin="bevel"/>
<path d="M282.406 62.8328L280.676 67.5288C280.625 67.667 280.533 67.7863 280.412 67.8706C280.291 67.9548 280.147 68 280 68C279.853 68 279.709 67.9548 279.588 67.8706C279.467 67.7863 279.375 67.667 279.324 67.5288L277.594 62.8328C277.558 62.735 277.501 62.6462 277.428 62.5725C277.354 62.4988 277.265 62.442 277.167 62.4059L272.471 60.6758C272.333 60.6249 272.214 60.5328 272.129 60.412C272.045 60.2911 272 60.1473 272 60C272 59.8527 272.045 59.7089 272.129 59.588C272.214 59.4672 272.333 59.3751 272.471 59.3242L277.167 57.5941C277.265 57.558 277.354 57.5012 277.428 57.4275C277.501 57.3538 277.558 57.265 277.594 57.1672L279.324 52.4713C279.375 52.333 279.467 52.2137 279.588 52.1294C279.709 52.0452 279.853 52 280 52C280.147 52 280.291 52.0452 280.412 52.1294C280.533 52.2137 280.625 52.333 280.676 52.4713L282.406 57.1672C282.442 57.265 282.499 57.3538 282.572 57.4275C282.646 57.5012 282.735 57.558 282.833 57.5941L287.529 59.3242C287.667 59.3751 287.786 59.4672 287.871 59.588C287.955 59.7089 288 59.8527 288 60C288 60.1473 287.955 60.2911 287.871 60.412C287.786 60.5328 287.667 60.6249 287.529 60.6758L282.833 62.4059C282.735 62.442 282.646 62.4988 282.572 62.5725C282.499 62.6462 282.442 62.735 282.406 62.8328V62.8328Z" fill="#FABD62"/>
<path d="M289.504 74.7705L288.422 77.7055C288.391 77.7919 288.333 77.8664 288.257 77.9191C288.182 77.9718 288.092 78 288 78C287.908 78 287.818 77.9718 287.743 77.9191C287.667 77.8664 287.609 77.7919 287.578 77.7055L286.496 74.7705C286.474 74.7094 286.438 74.6539 286.392 74.6078C286.346 74.5617 286.291 74.5262 286.23 74.5037L283.295 73.4224C283.208 73.3906 283.134 73.333 283.081 73.2575C283.028 73.1819 283 73.0921 283 73C283 72.9079 283.028 72.8181 283.081 72.7425C283.134 72.667 283.208 72.6094 283.295 72.5776L286.23 71.4963C286.291 71.4738 286.346 71.4383 286.392 71.3922C286.438 71.3461 286.474 71.2906 286.496 71.2295L287.578 68.2945C287.609 68.2081 287.667 68.1336 287.743 68.0809C287.818 68.0282 287.908 68 288 68C288.092 68 288.182 68.0282 288.257 68.0809C288.333 68.1336 288.391 68.2081 288.422 68.2945L289.504 71.2295C289.526 71.2906 289.562 71.3461 289.608 71.3922C289.654 71.4383 289.709 71.4738 289.77 71.4963L292.705 72.5776C292.792 72.6094 292.866 72.667 292.919 72.7425C292.972 72.8181 293 72.9079 293 73C293 73.0921 292.972 73.1819 292.919 73.2575C292.866 73.333 292.792 73.3906 292.705 73.4224L289.77 74.5037C289.709 74.5262 289.654 74.5617 289.608 74.6078C289.562 74.6539 289.526 74.7094 289.504 74.7705V74.7705Z" fill="#FABD62"/>
<rect x="23" y="226" width="145" height="62" rx="31" stroke="#FCDEB0" stroke-width="4" stroke-linejoin="bevel"/>
<rect x="27" y="230" width="137" height="54" rx="27" stroke="#FABD62" stroke-width="4" stroke-linejoin="bevel"/>
<path d="M29 257C29 243.193 40.1929 232 54 232H116V282H54C40.1929 282 29 270.807 29 257V257Z" fill="#606BD6"/>
<path d="M54.9374 265.24C53.9774 265.24 53.1274 265.03 52.3874 264.61C51.6474 264.19 51.0674 263.59 50.6474 262.81C50.2341 262.023 50.0274 261.09 50.0274 260.01C50.0274 258.923 50.2341 257.99 50.6474 257.21C51.0608 256.423 51.6341 255.82 52.3674 255.4C53.1074 254.973 53.9641 254.76 54.9374 254.76H55.1574C55.9308 254.76 56.6608 254.96 57.3474 255.36C58.0408 255.753 58.6008 256.297 59.0274 256.99L57.4774 258.07C57.1908 257.617 56.8474 257.263 56.4474 257.01C56.0474 256.75 55.5941 256.62 55.0874 256.62H54.8874C54.0208 256.62 53.3374 256.927 52.8374 257.54C52.3441 258.147 52.0974 258.967 52.0974 260C52.0974 261.027 52.3441 261.847 52.8374 262.46C53.3374 263.073 54.0208 263.38 54.8874 263.38H55.0874C55.5941 263.38 56.0608 263.267 56.4874 263.04C56.9141 262.813 57.2808 262.51 57.5874 262.13L59.0274 263.35C58.5808 263.937 58.0174 264.4 57.3374 264.74C56.6641 265.073 55.9374 265.24 55.1574 265.24H54.9374ZM65.662 265.24C64.6486 265.24 63.7653 265.017 63.012 264.57C62.2653 264.117 61.6886 263.497 61.282 262.71C60.8753 261.917 60.672 261.013 60.672 260C60.672 258.98 60.8753 258.077 61.282 257.29C61.6886 256.503 62.2653 255.887 63.012 255.44C63.7653 254.987 64.6486 254.76 65.662 254.76H65.882C66.902 254.76 67.7853 254.987 68.532 255.44C69.2786 255.887 69.8553 256.503 70.262 257.29C70.6686 258.077 70.872 258.98 70.872 260C70.872 261.013 70.6686 261.917 70.262 262.71C69.8553 263.497 69.2786 264.117 68.532 264.57C67.7853 265.017 66.902 265.24 65.882 265.24H65.662ZM65.672 263.38H65.872C66.7853 263.38 67.502 263.073 68.022 262.46C68.542 261.847 68.802 261.027 68.802 260C68.802 258.967 68.542 258.147 68.022 257.54C67.502 256.927 66.7853 256.62 65.872 256.62H65.672C64.7653 256.62 64.0486 256.927 63.522 257.54C63.002 258.147 62.742 258.967 62.742 260C62.742 261.027 63.002 261.847 63.522 262.46C64.0486 263.073 64.7653 263.38 65.672 263.38ZM76.6332 265.24C75.4799 265.24 74.5999 264.85 73.9932 264.07C73.3865 263.29 73.0832 262.193 73.0832 260.78V255H75.0832V260.54C75.0832 262.433 75.7699 263.38 77.1432 263.38H77.3432C78.0232 263.38 78.5999 263.17 79.0732 262.75C79.5532 262.33 79.9099 261.8 80.1432 261.16V255H82.1432V265H80.1432V263.33C79.7765 263.923 79.3165 264.39 78.7632 264.73C78.2165 265.07 77.5799 265.24 76.8532 265.24H76.6332ZM85.0891 265V255H87.0891V256.67C87.4558 256.077 87.9125 255.61 88.4591 255.27C89.0125 254.93 89.6525 254.76 90.3791 254.76H90.5991C91.7058 254.76 92.5725 255.15 93.1991 255.93C93.8325 256.71 94.1491 257.807 94.1491 259.22V265H92.1491V259.46C92.1491 257.567 91.4625 256.62 90.0891 256.62H89.8891C89.2091 256.62 88.6291 256.83 88.1491 257.25C87.6758 257.67 87.3225 258.2 87.0891 258.84V265H85.0891ZM101.425 265.13C100.238 265.13 99.3351 264.83 98.7151 264.23C98.0951 263.63 97.7851 262.707 97.7851 261.46V256.74H95.8251V255H97.7851V252.02H99.7851V255H103.155V256.74H99.7851V261.19C99.7851 261.977 99.9484 262.523 100.275 262.83C100.602 263.137 101.085 263.29 101.725 263.29C102.032 263.29 102.305 263.277 102.545 263.25C102.792 263.223 103.045 263.19 103.305 263.15V264.9C103.038 264.967 102.738 265.02 102.405 265.06C102.072 265.107 101.745 265.13 101.425 265.13Z" fill="white"/>
<path d="M29 257C29 243.193 40.1929 232 54 232H116V282H54C40.1929 282 29 270.807 29 257V257Z" stroke="white" stroke-linejoin="bevel"/>
<path d="M117 232H137C150.807 232 162 243.193 162 257V257C162 270.807 150.807 282 137 282H117V232Z" fill="#606BD6"/>
<path d="M135.24 265V254L132.54 256.44L130.87 254.5L134.75 251H138.05V265H135.24Z" fill="white"/>
<path d="M117 232H137C150.807 232 162 243.193 162 257V257C162 270.807 150.807 282 137 282H117V232Z" stroke="white" stroke-linejoin="bevel"/>
<path d="M172.406 230.833L170.676 235.529C170.625 235.667 170.533 235.786 170.412 235.871C170.291 235.955 170.147 236 170 236C169.853 236 169.709 235.955 169.588 235.871C169.467 235.786 169.375 235.667 169.324 235.529L167.594 230.833C167.558 230.735 167.501 230.646 167.428 230.572C167.354 230.499 167.265 230.442 167.167 230.406L162.471 228.676C162.333 228.625 162.214 228.533 162.129 228.412C162.045 228.291 162 228.147 162 228C162 227.853 162.045 227.709 162.129 227.588C162.214 227.467 162.333 227.375 162.471 227.324L167.167 225.594C167.265 225.558 167.354 225.501 167.428 225.428C167.501 225.354 167.558 225.265 167.594 225.167L169.324 220.471C169.375 220.333 169.467 220.214 169.588 220.129C169.709 220.045 169.853 220 170 220C170.147 220 170.291 220.045 170.412 220.129C170.533 220.214 170.625 220.333 170.676 220.471L172.406 225.167C172.442 225.265 172.499 225.354 172.572 225.428C172.646 225.501 172.735 225.558 172.833 225.594L177.529 227.324C177.667 227.375 177.786 227.467 177.871 227.588C177.955 227.709 178 227.853 178 228C178 228.147 177.955 228.291 177.871 228.412C177.786 228.533 177.667 228.625 177.529 228.676L172.833 230.406C172.735 230.442 172.646 230.499 172.572 230.572C172.499 230.646 172.442 230.735 172.406 230.833V230.833Z" fill="#FABD62"/>
<path d="M179.504 242.77L178.422 245.705C178.391 245.792 178.333 245.866 178.257 245.919C178.182 245.972 178.092 246 178 246C177.908 246 177.818 245.972 177.743 245.919C177.667 245.866 177.609 245.792 177.578 245.705L176.496 242.77C176.474 242.709 176.438 242.654 176.392 242.608C176.346 242.562 176.291 242.526 176.23 242.504L173.295 241.422C173.208 241.391 173.134 241.333 173.081 241.257C173.028 241.182 173 241.092 173 241C173 240.908 173.028 240.818 173.081 240.743C173.134 240.667 173.208 240.609 173.295 240.578L176.23 239.496C176.291 239.474 176.346 239.438 176.392 239.392C176.438 239.346 176.474 239.291 176.496 239.23L177.578 236.295C177.609 236.208 177.667 236.134 177.743 236.081C177.818 236.028 177.908 236 178 236C178.092 236 178.182 236.028 178.257 236.081C178.333 236.134 178.391 236.208 178.422 236.295L179.504 239.23C179.526 239.291 179.562 239.346 179.608 239.392C179.654 239.438 179.709 239.474 179.77 239.496L182.705 240.578C182.792 240.609 182.866 240.667 182.919 240.743C182.972 240.818 183 240.908 183 241C183 241.092 182.972 241.182 182.919 241.257C182.866 241.333 182.792 241.391 182.705 241.422L179.77 242.504C179.709 242.526 179.654 242.562 179.608 242.608C179.562 242.654 179.526 242.709 179.504 242.77V242.77Z" fill="#FABD62"/>
<rect x="243" y="226" width="145" height="62" rx="31" stroke="#FCDEB0" stroke-width="4" stroke-linejoin="bevel"/>
<rect x="247" y="230" width="137" height="54" rx="27" stroke="#FABD62" stroke-width="4" stroke-linejoin="bevel"/>
<path d="M249 257C249 243.193 260.193 232 274 232H336V282H274C260.193 282 249 270.807 249 257V257Z" fill="#606BD6"/>
<path d="M274.937 265.24C273.977 265.24 273.127 265.03 272.387 264.61C271.647 264.19 271.067 263.59 270.647 262.81C270.234 262.023 270.027 261.09 270.027 260.01C270.027 258.923 270.234 257.99 270.647 257.21C271.061 256.423 271.634 255.82 272.367 255.4C273.107 254.973 273.964 254.76 274.937 254.76H275.157C275.931 254.76 276.661 254.96 277.347 255.36C278.041 255.753 278.601 256.297 279.027 256.99L277.477 258.07C277.191 257.617 276.847 257.263 276.447 257.01C276.047 256.75 275.594 256.62 275.087 256.62H274.887C274.021 256.62 273.337 256.927 272.837 257.54C272.344 258.147 272.097 258.967 272.097 260C272.097 261.027 272.344 261.847 272.837 262.46C273.337 263.073 274.021 263.38 274.887 263.38H275.087C275.594 263.38 276.061 263.267 276.487 263.04C276.914 262.813 277.281 262.51 277.587 262.13L279.027 263.35C278.581 263.937 278.017 264.4 277.337 264.74C276.664 265.073 275.937 265.24 275.157 265.24H274.937ZM285.662 265.24C284.649 265.24 283.765 265.017 283.012 264.57C282.265 264.117 281.689 263.497 281.282 262.71C280.875 261.917 280.672 261.013 280.672 260C280.672 258.98 280.875 258.077 281.282 257.29C281.689 256.503 282.265 255.887 283.012 255.44C283.765 254.987 284.649 254.76 285.662 254.76H285.882C286.902 254.76 287.785 254.987 288.532 255.44C289.279 255.887 289.855 256.503 290.262 257.29C290.669 258.077 290.872 258.98 290.872 260C290.872 261.013 290.669 261.917 290.262 262.71C289.855 263.497 289.279 264.117 288.532 264.57C287.785 265.017 286.902 265.24 285.882 265.24H285.662ZM285.672 263.38H285.872C286.785 263.38 287.502 263.073 288.022 262.46C288.542 261.847 288.802 261.027 288.802 260C288.802 258.967 288.542 258.147 288.022 257.54C287.502 256.927 286.785 256.62 285.872 256.62H285.672C284.765 256.62 284.049 256.927 283.522 257.54C283.002 258.147 282.742 258.967 282.742 260C282.742 261.027 283.002 261.847 283.522 262.46C284.049 263.073 284.765 263.38 285.672 263.38ZM296.633 265.24C295.48 265.24 294.6 264.85 293.993 264.07C293.387 263.29 293.083 262.193 293.083 260.78V255H295.083V260.54C295.083 262.433 295.77 263.38 297.143 263.38H297.343C298.023 263.38 298.6 263.17 299.073 262.75C299.553 262.33 299.91 261.8 300.143 261.16V255H302.143V265H300.143V263.33C299.777 263.923 299.317 264.39 298.763 264.73C298.217 265.07 297.58 265.24 296.853 265.24H296.633ZM305.089 265V255H307.089V256.67C307.456 256.077 307.912 255.61 308.459 255.27C309.012 254.93 309.652 254.76 310.379 254.76H310.599C311.706 254.76 312.572 255.15 313.199 255.93C313.832 256.71 314.149 257.807 314.149 259.22V265H312.149V259.46C312.149 257.567 311.462 256.62 310.089 256.62H309.889C309.209 256.62 308.629 256.83 308.149 257.25C307.676 257.67 307.322 258.2 307.089 258.84V265H305.089ZM321.425 265.13C320.238 265.13 319.335 264.83 318.715 264.23C318.095 263.63 317.785 262.707 317.785 261.46V256.74H315.825V255H317.785V252.02H319.785V255H323.155V256.74H319.785V261.19C319.785 261.977 319.948 262.523 320.275 262.83C320.602 263.137 321.085 263.29 321.725 263.29C322.032 263.29 322.305 263.277 322.545 263.25C322.792 263.223 323.045 263.19 323.305 263.15V264.9C323.038 264.967 322.738 265.02 322.405 265.06C322.072 265.107 321.745 265.13 321.425 265.13Z" fill="white"/>
<path d="M249 257C249 243.193 260.193 232 274 232H336V282H274C260.193 282 249 270.807 249 257V257Z" stroke="white" stroke-linejoin="bevel"/>
<path d="M337 232H357C370.807 232 382 243.193 382 257V257C382 270.807 370.807 282 357 282H337V232Z" fill="#606BD6"/>
<path d="M355.24 265V254L352.54 256.44L350.87 254.5L354.75 251H358.05V265H355.24Z" fill="white"/>
<path d="M337 232H357C370.807 232 382 243.193 382 257V257C382 270.807 370.807 282 357 282H337V232Z" stroke="white" stroke-linejoin="bevel"/>
<path d="M392.406 230.833L390.676 235.529C390.625 235.667 390.533 235.786 390.412 235.871C390.291 235.955 390.147 236 390 236C389.853 236 389.709 235.955 389.588 235.871C389.467 235.786 389.375 235.667 389.324 235.529L387.594 230.833C387.558 230.735 387.501 230.646 387.428 230.572C387.354 230.499 387.265 230.442 387.167 230.406L382.471 228.676C382.333 228.625 382.214 228.533 382.129 228.412C382.045 228.291 382 228.147 382 228C382 227.853 382.045 227.709 382.129 227.588C382.214 227.467 382.333 227.375 382.471 227.324L387.167 225.594C387.265 225.558 387.354 225.501 387.428 225.428C387.501 225.354 387.558 225.265 387.594 225.167L389.324 220.471C389.375 220.333 389.467 220.214 389.588 220.129C389.709 220.045 389.853 220 390 220C390.147 220 390.291 220.045 390.412 220.129C390.533 220.214 390.625 220.333 390.676 220.471L392.406 225.167C392.442 225.265 392.499 225.354 392.572 225.428C392.646 225.501 392.735 225.558 392.833 225.594L397.529 227.324C397.667 227.375 397.786 227.467 397.871 227.588C397.955 227.709 398 227.853 398 228C398 228.147 397.955 228.291 397.871 228.412C397.786 228.533 397.667 228.625 397.529 228.676L392.833 230.406C392.735 230.442 392.646 230.499 392.572 230.572C392.499 230.646 392.442 230.735 392.406 230.833V230.833Z" fill="#FABD62"/>
<path d="M399.504 242.77L398.422 245.705C398.391 245.792 398.333 245.866 398.257 245.919C398.182 245.972 398.092 246 398 246C397.908 246 397.818 245.972 397.743 245.919C397.667 245.866 397.609 245.792 397.578 245.705L396.496 242.77C396.474 242.709 396.438 242.654 396.392 242.608C396.346 242.562 396.291 242.526 396.23 242.504L393.295 241.422C393.208 241.391 393.134 241.333 393.081 241.257C393.028 241.182 393 241.092 393 241C393 240.908 393.028 240.818 393.081 240.743C393.134 240.667 393.208 240.609 393.295 240.578L396.23 239.496C396.291 239.474 396.346 239.438 396.392 239.392C396.438 239.346 396.474 239.291 396.496 239.23L397.578 236.295C397.609 236.208 397.667 236.134 397.743 236.081C397.818 236.028 397.908 236 398 236C398.092 236 398.182 236.028 398.257 236.081C398.333 236.134 398.391 236.208 398.422 236.295L399.504 239.23C399.526 239.291 399.562 239.346 399.608 239.392C399.654 239.438 399.709 239.474 399.77 239.496L402.705 240.578C402.792 240.609 402.866 240.667 402.919 240.743C402.972 240.818 403 240.908 403 241C403 241.092 402.972 241.182 402.919 241.257C402.866 241.333 402.792 241.391 402.705 241.422L399.77 242.504C399.709 242.526 399.654 242.562 399.608 242.608C399.562 242.654 399.526 242.709 399.504 242.77V242.77Z" fill="#FABD62"/>
</g>
<defs>
<filter id="filter0_d_426_4837" x="3.5" y="323.5" width="161" height="61" filterUnits="userSpaceOnUse" color-interpolation-filters="sRGB">
<feFlood flood-opacity="0" result="BackgroundImageFix"/>
<feColorMatrix in="SourceAlpha" type="matrix" values="0 0 0 0 0 0 0 0 0 0 0 0 0 0 0 0 0 0 127 0" result="hardAlpha"/>
<feOffset dy="2"/>
<feComposite in2="hardAlpha" operator="out"/>
<feColorMatrix type="matrix" values="0 0 0 0 0.235294 0 0 0 0 0.435294 0 0 0 0 0.635294 0 0 0 1 0"/>
<feBlend mode="normal" in2="BackgroundImageFix" result="effect1_dropShadow_426_4837"/>
<feBlend mode="normal" in="SourceGraphic" in2="effect1_dropShadow_426_4837" result="shape"/>
</filter>
<filter id="filter1_d_426_4837" x="246.5" y="323.5" width="161" height="61" filterUnits="userSpaceOnUse" color-interpolation-filters="sRGB">
<feFlood flood-opacity="0" result="BackgroundImageFix"/>
<feColorMatrix in="SourceAlpha" type="matrix" values="0 0 0 0 0 0 0 0 0 0 0 0 0 0 0 0 0 0 127 0" result="hardAlpha"/>
<feOffset dy="2"/>
<feComposite in2="hardAlpha" operator="out"/>
<feColorMatrix type="matrix" values="0 0 0 0 0.235294 0 0 0 0 0.435294 0 0 0 0 0.635294 0 0 0 1 0"/>
<feBlend mode="normal" in2="BackgroundImageFix" result="effect1_dropShadow_426_4837"/>
<feBlend mode="normal" in="SourceGraphic" in2="effect1_dropShadow_426_4837" result="shape"/>
</filter>
<clipPath id="clip0_426_4837">
<rect width="410" height="385" fill="white"/>
</clipPath>
</defs>
</svg>
