<svg width="487" height="385" viewBox="0 0 487 385" fill="none" xmlns="http://www.w3.org/2000/svg">
<g clip-path="url(#clip0_622_5938)">
<g filter="url(#filter0_d_622_5938)">
<path d="M3 331C3 327.686 5.68629 325 9 325H186.777C190.09 325 192.777 327.686 192.777 331V377C192.777 380.314 190.09 383 186.777 383H9.00001C5.6863 383 3 380.314 3 377V331Z" fill="#343A46"/>
<path d="M73.5396 362V348H79.3996C81.1529 348 82.4629 348.42 83.3296 349.26C84.1963 350.093 84.6296 351.227 84.6296 352.66C84.6296 354.087 84.1963 355.22 83.3296 356.06C82.4629 356.9 81.1529 357.32 79.3996 357.32H75.6396V362H73.5396ZM79.1996 349.96H75.6396V355.36H79.1996C80.3396 355.36 81.1696 355.137 81.6896 354.69C82.2163 354.237 82.4796 353.56 82.4796 352.66C82.4796 351.76 82.2163 351.087 81.6896 350.64C81.1696 350.187 80.3396 349.96 79.1996 349.96ZM89.3638 362.2C88.3105 362.2 87.4905 361.93 86.9038 361.39C86.3238 360.843 86.0338 360.127 86.0338 359.24C86.0338 358.36 86.3605 357.623 87.0138 357.03C87.6738 356.437 88.7238 356.14 90.1638 356.14H92.8838V356.11C92.8838 354.43 92.1105 353.59 90.5638 353.59C89.9172 353.59 89.3705 353.707 88.9238 353.94C88.4838 354.173 88.1272 354.5 87.8538 354.92L86.4838 353.81C86.9105 353.15 87.4705 352.643 88.1638 352.29C88.8638 351.937 89.6572 351.76 90.5438 351.76H90.7638C91.9905 351.76 92.9772 352.113 93.7238 352.82C94.4705 353.527 94.8438 354.583 94.8438 355.99V362H92.9238V360.37C92.5372 360.957 92.0405 361.41 91.4338 361.73C90.8272 362.043 90.1372 362.2 89.3638 362.2ZM89.8038 360.42C90.5772 360.42 91.2205 360.247 91.7338 359.9C92.2472 359.547 92.6305 359.07 92.8838 358.47V357.71H90.2438C89.4572 357.71 88.8938 357.837 88.5538 358.09C88.2205 358.337 88.0538 358.673 88.0538 359.1C88.0538 359.98 88.6372 360.42 89.8038 360.42ZM97.6204 362V352H99.6204V353.67C99.9871 353.077 100.444 352.61 100.99 352.27C101.544 351.93 102.184 351.76 102.91 351.76H103.13C104.237 351.76 105.104 352.15 105.73 352.93C106.364 353.71 106.68 354.807 106.68 356.22V362H104.68V356.46C104.68 354.567 103.994 353.62 102.62 353.62H102.42C101.74 353.62 101.16 353.83 100.68 354.25C100.207 354.67 99.8537 355.2 99.6204 355.84V362H97.6204ZM113.726 362.24C112.766 362.24 111.923 362.02 111.196 361.58C110.476 361.14 109.913 360.527 109.506 359.74C109.106 358.953 108.906 358.043 108.906 357.01C108.906 355.977 109.106 355.067 109.506 354.28C109.913 353.487 110.476 352.87 111.196 352.43C111.923 351.983 112.766 351.76 113.726 351.76H113.946C114.82 351.76 115.586 351.977 116.246 352.41C116.913 352.837 117.433 353.457 117.806 354.27C118.18 355.077 118.366 356.05 118.366 357.19V357.8H110.976C111.096 358.62 111.403 359.267 111.896 359.74C112.396 360.207 113.046 360.44 113.846 360.44H114.046C114.526 360.44 114.986 360.343 115.426 360.15C115.866 359.95 116.236 359.683 116.536 359.35L117.766 360.65C117.313 361.137 116.753 361.523 116.086 361.81C115.426 362.097 114.713 362.24 113.946 362.24H113.726ZM113.666 353.56C112.953 353.56 112.356 353.797 111.876 354.27C111.403 354.737 111.103 355.377 110.976 356.19H116.356C116.296 355.45 116.053 354.827 115.626 354.32C115.206 353.813 114.62 353.56 113.866 353.56H113.666ZM120.706 362V347.4H122.706V362H120.706Z" fill="white"/>
<path d="M9 325.5H186.777V324.5H9V325.5ZM192.277 331V377H193.277V331H192.277ZM186.777 382.5H9.00001V383.5H186.777V382.5ZM3.5 377V331H2.5V377H3.5ZM9.00001 382.5C5.96244 382.5 3.5 380.038 3.5 377H2.5C2.5 380.59 5.41015 383.5 9.00001 383.5V382.5ZM192.277 377C192.277 380.038 189.814 382.5 186.777 382.5V383.5C190.366 383.5 193.277 380.59 193.277 377H192.277ZM186.777 325.5C189.814 325.5 192.277 327.962 192.277 331H193.277C193.277 327.41 190.366 324.5 186.777 324.5V325.5ZM9 324.5C5.41015 324.5 2.5 327.41 2.5 331H3.5C3.5 327.962 5.96243 325.5 9 325.5V324.5Z" fill="white"/>
</g>
<g filter="url(#filter1_d_622_5938)">
<path d="M291.223 331C291.223 327.686 293.909 325 297.223 325H474.999C478.313 325 480.999 327.686 480.999 331V377C480.999 380.314 478.313 383 474.999 383H297.223C293.909 383 291.223 380.314 291.223 377V331Z" fill="#343A46"/>
<path d="M361.762 362V348H367.622C369.376 348 370.686 348.42 371.552 349.26C372.419 350.093 372.852 351.227 372.852 352.66C372.852 354.087 372.419 355.22 371.552 356.06C370.686 356.9 369.376 357.32 367.622 357.32H363.862V362H361.762ZM367.422 349.96H363.862V355.36H367.422C368.562 355.36 369.392 355.137 369.912 354.69C370.439 354.237 370.702 353.56 370.702 352.66C370.702 351.76 370.439 351.087 369.912 350.64C369.392 350.187 368.562 349.96 367.422 349.96ZM377.586 362.2C376.533 362.2 375.713 361.93 375.126 361.39C374.546 360.843 374.256 360.127 374.256 359.24C374.256 358.36 374.583 357.623 375.236 357.03C375.896 356.437 376.946 356.14 378.386 356.14H381.106V356.11C381.106 354.43 380.333 353.59 378.786 353.59C378.14 353.59 377.593 353.707 377.146 353.94C376.706 354.173 376.35 354.5 376.076 354.92L374.706 353.81C375.133 353.15 375.693 352.643 376.386 352.29C377.086 351.937 377.88 351.76 378.766 351.76H378.986C380.213 351.76 381.2 352.113 381.946 352.82C382.693 353.527 383.066 354.583 383.066 355.99V362H381.146V360.37C380.76 360.957 380.263 361.41 379.656 361.73C379.05 362.043 378.36 362.2 377.586 362.2ZM378.026 360.42C378.8 360.42 379.443 360.247 379.956 359.9C380.47 359.547 380.853 359.07 381.106 358.47V357.71H378.466C377.68 357.71 377.116 357.837 376.776 358.09C376.443 358.337 376.276 358.673 376.276 359.1C376.276 359.98 376.86 360.42 378.026 360.42ZM385.843 362V352H387.843V353.67C388.21 353.077 388.666 352.61 389.213 352.27C389.766 351.93 390.406 351.76 391.133 351.76H391.353C392.46 351.76 393.326 352.15 393.953 352.93C394.586 353.71 394.903 354.807 394.903 356.22V362H392.903V356.46C392.903 354.567 392.216 353.62 390.843 353.62H390.643C389.963 353.62 389.383 353.83 388.903 354.25C388.43 354.67 388.076 355.2 387.843 355.84V362H385.843ZM401.949 362.24C400.989 362.24 400.146 362.02 399.419 361.58C398.699 361.14 398.136 360.527 397.729 359.74C397.329 358.953 397.129 358.043 397.129 357.01C397.129 355.977 397.329 355.067 397.729 354.28C398.136 353.487 398.699 352.87 399.419 352.43C400.146 351.983 400.989 351.76 401.949 351.76H402.169C403.042 351.76 403.809 351.977 404.469 352.41C405.136 352.837 405.656 353.457 406.029 354.27C406.402 355.077 406.589 356.05 406.589 357.19V357.8H399.199C399.319 358.62 399.626 359.267 400.119 359.74C400.619 360.207 401.269 360.44 402.069 360.44H402.269C402.749 360.44 403.209 360.343 403.649 360.15C404.089 359.95 404.459 359.683 404.759 359.35L405.989 360.65C405.536 361.137 404.976 361.523 404.309 361.81C403.649 362.097 402.936 362.24 402.169 362.24H401.949ZM401.889 353.56C401.176 353.56 400.579 353.797 400.099 354.27C399.626 354.737 399.326 355.377 399.199 356.19H404.579C404.519 355.45 404.276 354.827 403.849 354.32C403.429 353.813 402.842 353.56 402.089 353.56H401.889ZM408.929 362V347.4H410.929V362H408.929Z" fill="white"/>
<path d="M297.223 325.5H474.999V324.5H297.223V325.5ZM480.499 331V377H481.499V331H480.499ZM474.999 382.5H297.223V383.5H474.999V382.5ZM291.723 377V331H290.723V377H291.723ZM297.223 382.5C294.185 382.5 291.723 380.038 291.723 377H290.723C290.723 380.59 293.633 383.5 297.223 383.5V382.5ZM480.499 377C480.499 380.038 478.037 382.5 474.999 382.5V383.5C478.589 383.5 481.499 380.59 481.499 377H480.499ZM474.999 325.5C478.037 325.5 480.499 327.962 480.499 331H481.499C481.499 327.41 478.589 324.5 474.999 324.5V325.5ZM297.223 324.5C293.633 324.5 290.723 327.41 290.723 331H291.723C291.723 327.962 294.185 325.5 297.223 325.5V324.5Z" fill="white"/>
</g>
<path d="M97.2929 315.707C97.6834 316.098 98.3166 316.098 98.7071 315.707L105.071 309.343C105.462 308.953 105.462 308.319 105.071 307.929C104.681 307.538 104.047 307.538 103.657 307.929L98 313.586L92.3431 307.929C91.9526 307.538 91.3195 307.538 90.9289 307.929C90.5384 308.319 90.5384 308.953 90.9289 309.343L97.2929 315.707ZM99 315V197.302H97V315H99ZM114 182.302H222V180.302H114V182.302ZM239 165.302V136H237V165.302H239ZM222 182.302C231.389 182.302 239 174.691 239 165.302H237C237 173.587 230.284 180.302 222 180.302V182.302ZM99 197.302C99 189.018 105.716 182.302 114 182.302V180.302C104.611 180.302 97 187.913 97 197.302H99Z" fill="white"/>
<path d="M378.707 315.707C378.317 316.098 377.683 316.098 377.293 315.707L370.929 309.343C370.538 308.953 370.538 308.319 370.929 307.929C371.319 307.538 371.953 307.538 372.343 307.929L378 313.586L383.657 307.929C384.047 307.538 384.681 307.538 385.071 307.929C385.462 308.319 385.462 308.953 385.071 309.343L378.707 315.707ZM377 315V197.302H379V315H377ZM362 182.302H254V180.302H362V182.302ZM237 165.302V136H239V165.302H237ZM254 182.302C244.611 182.302 237 174.691 237 165.302H239C239 173.587 245.716 180.302 254 180.302V182.302ZM377 197.302C377 189.018 370.284 182.302 362 182.302V180.302C371.389 180.302 379 187.913 379 197.302H377Z" fill="white"/>
<rect x="127" y="1" width="240" height="133" rx="6" fill="#343A46" stroke="white" stroke-linejoin="bevel"/>
<path fill-rule="evenodd" clip-rule="evenodd" d="M127 128V130C127 133.314 129.686 136 133 136H361C364.314 136 367 133.314 367 130V128C367 131.314 364.314 134 361 134H133C129.686 134 127 131.314 127 128Z" fill="white"/>
<path d="M199.713 43C200.153 41.4667 200.66 39.8833 201.233 38.25C201.806 36.6167 202.41 35.01 203.043 33.43C203.683 31.8433 204.323 30.3667 204.963 29H207.483C208.123 30.3667 208.763 31.8433 209.403 33.43C210.043 35.01 210.646 36.6167 211.213 38.25C211.786 39.8833 212.293 41.4667 212.733 43H210.443C210.29 42.4133 210.12 41.81 209.933 41.19C209.753 40.57 209.563 39.94 209.363 39.3H203.013C202.813 39.94 202.62 40.57 202.433 41.19C202.253 41.81 202.086 42.4133 201.933 43H199.713ZM203.673 37.34H208.703C208.303 36.1933 207.886 35.0667 207.453 33.96C207.026 32.8467 206.603 31.8033 206.183 30.83C205.77 31.8033 205.346 32.8467 204.913 33.96C204.486 35.0667 204.073 36.1933 203.673 37.34ZM218.914 43.24C217.954 43.24 217.104 43.03 216.364 42.61C215.624 42.19 215.044 41.59 214.624 40.81C214.211 40.0233 214.004 39.09 214.004 38.01C214.004 36.9233 214.211 35.99 214.624 35.21C215.037 34.4233 215.611 33.82 216.344 33.4C217.084 32.9733 217.941 32.76 218.914 32.76H219.134C219.907 32.76 220.637 32.96 221.324 33.36C222.017 33.7533 222.577 34.2967 223.004 34.99L221.454 36.07C221.167 35.6167 220.824 35.2633 220.424 35.01C220.024 34.75 219.571 34.62 219.064 34.62H218.864C217.997 34.62 217.314 34.9267 216.814 35.54C216.321 36.1467 216.074 36.9667 216.074 38C216.074 39.0267 216.321 39.8467 216.814 40.46C217.314 41.0733 217.997 41.38 218.864 41.38H219.064C219.571 41.38 220.037 41.2667 220.464 41.04C220.891 40.8133 221.257 40.51 221.564 40.13L223.004 41.35C222.557 41.9367 221.994 42.4 221.314 42.74C220.641 43.0733 219.914 43.24 219.134 43.24H218.914ZM229.559 43.24C228.599 43.24 227.749 43.03 227.009 42.61C226.269 42.19 225.689 41.59 225.269 40.81C224.855 40.0233 224.649 39.09 224.649 38.01C224.649 36.9233 224.855 35.99 225.269 35.21C225.682 34.4233 226.255 33.82 226.989 33.4C227.729 32.9733 228.585 32.76 229.559 32.76H229.779C230.552 32.76 231.282 32.96 231.969 33.36C232.662 33.7533 233.222 34.2967 233.649 34.99L232.099 36.07C231.812 35.6167 231.469 35.2633 231.069 35.01C230.669 34.75 230.215 34.62 229.709 34.62H229.509C228.642 34.62 227.959 34.9267 227.459 35.54C226.965 36.1467 226.719 36.9667 226.719 38C226.719 39.0267 226.965 39.8467 227.459 40.46C227.959 41.0733 228.642 41.38 229.509 41.38H229.709C230.215 41.38 230.682 41.2667 231.109 41.04C231.535 40.8133 231.902 40.51 232.209 40.13L233.649 41.35C233.202 41.9367 232.639 42.4 231.959 42.74C231.285 43.0733 230.559 43.24 229.779 43.24H229.559ZM240.283 43.24C239.27 43.24 238.386 43.0167 237.633 42.57C236.886 42.1167 236.31 41.4967 235.903 40.71C235.496 39.9167 235.293 39.0133 235.293 38C235.293 36.98 235.496 36.0767 235.903 35.29C236.31 34.5033 236.886 33.8867 237.633 33.44C238.386 32.9867 239.27 32.76 240.283 32.76H240.503C241.523 32.76 242.406 32.9867 243.153 33.44C243.9 33.8867 244.476 34.5033 244.883 35.29C245.29 36.0767 245.493 36.98 245.493 38C245.493 39.0133 245.29 39.9167 244.883 40.71C244.476 41.4967 243.9 42.1167 243.153 42.57C242.406 43.0167 241.523 43.24 240.503 43.24H240.283ZM240.293 41.38H240.493C241.406 41.38 242.123 41.0733 242.643 40.46C243.163 39.8467 243.423 39.0267 243.423 38C243.423 36.9667 243.163 36.1467 242.643 35.54C242.123 34.9267 241.406 34.62 240.493 34.62H240.293C239.386 34.62 238.67 34.9267 238.143 35.54C237.623 36.1467 237.363 36.9667 237.363 38C237.363 39.0267 237.623 39.8467 238.143 40.46C238.67 41.0733 239.386 41.38 240.293 41.38ZM247.874 43V33H249.874V34.52C250.541 33.3467 251.458 32.76 252.624 32.76C252.944 32.76 253.234 32.7867 253.494 32.84V34.86C253.334 34.84 253.161 34.8233 252.974 34.81C252.794 34.7967 252.618 34.79 252.444 34.79C251.784 34.79 251.244 34.98 250.824 35.36C250.404 35.74 250.088 36.26 249.874 36.92V43H247.874ZM259.303 43.24C258.416 43.24 257.64 43.0167 256.973 42.57C256.313 42.1167 255.8 41.4967 255.433 40.71C255.066 39.9167 254.883 39.0133 254.883 38C254.883 36.9867 255.066 36.0867 255.433 35.3C255.8 34.5067 256.313 33.8867 256.973 33.44C257.64 32.9867 258.416 32.76 259.303 32.76H259.523C260.183 32.76 260.793 32.9033 261.353 33.19C261.92 33.47 262.386 33.89 262.753 34.45V28.4H264.753V43H262.753V41.43C262.406 42.03 261.953 42.4833 261.393 42.79C260.833 43.09 260.21 43.24 259.523 43.24H259.303ZM259.803 41.39H260.003C260.596 41.39 261.13 41.2133 261.603 40.86C262.083 40.5067 262.466 40.0233 262.753 39.41V36.59C262.466 35.9767 262.083 35.4933 261.603 35.14C261.13 34.7867 260.596 34.61 260.003 34.61H259.803C258.93 34.61 258.236 34.9033 257.723 35.49C257.21 36.0767 256.953 36.9133 256.953 38C256.953 39.0867 257.21 39.9233 257.723 40.51C258.236 41.0967 258.93 41.39 259.803 41.39ZM268.699 31.22C268.292 31.22 267.969 31.0967 267.729 30.85C267.495 30.5967 267.379 30.2767 267.379 29.89C267.379 29.4967 267.495 29.1767 267.729 28.93C267.969 28.6833 268.292 28.56 268.699 28.56C269.112 28.56 269.435 28.6833 269.669 28.93C269.902 29.1767 270.019 29.4967 270.019 29.89C270.019 30.2767 269.902 30.5967 269.669 30.85C269.435 31.0967 269.112 31.22 268.699 31.22ZM267.699 43V33H269.699V43H267.699ZM277.08 43.24C276.067 43.24 275.183 43.0167 274.43 42.57C273.683 42.1167 273.107 41.4967 272.7 40.71C272.293 39.9167 272.09 39.0133 272.09 38C272.09 36.98 272.293 36.0767 272.7 35.29C273.107 34.5033 273.683 33.8867 274.43 33.44C275.183 32.9867 276.067 32.76 277.08 32.76H277.3C278.32 32.76 279.203 32.9867 279.95 33.44C280.697 33.8867 281.273 34.5033 281.68 35.29C282.087 36.0767 282.29 36.98 282.29 38C282.29 39.0133 282.087 39.9167 281.68 40.71C281.273 41.4967 280.697 42.1167 279.95 42.57C279.203 43.0167 278.32 43.24 277.3 43.24H277.08ZM277.09 41.38H277.29C278.203 41.38 278.92 41.0733 279.44 40.46C279.96 39.8467 280.22 39.0267 280.22 38C280.22 36.9667 279.96 36.1467 279.44 35.54C278.92 34.9267 278.203 34.62 277.29 34.62H277.09C276.183 34.62 275.467 34.9267 274.94 35.54C274.42 36.1467 274.16 36.9667 274.16 38C274.16 39.0267 274.42 39.8467 274.94 40.46C275.467 41.0733 276.183 41.38 277.09 41.38ZM284.671 43V33H286.671V34.67C287.038 34.0767 287.495 33.61 288.041 33.27C288.595 32.93 289.235 32.76 289.961 32.76H290.181C291.288 32.76 292.155 33.15 292.781 33.93C293.415 34.71 293.731 35.8067 293.731 37.22V43H291.731V37.46C291.731 35.5667 291.045 34.62 289.671 34.62H289.471C288.791 34.62 288.211 34.83 287.731 35.25C287.258 35.67 286.905 36.2 286.671 36.84V43H284.671Z" fill="white"/>
<path d="M154 85C154 71.1929 165.193 60 179 60H294V110H179C165.193 110 154 98.8071 154 85V85Z" fill="#343A46"/>
<path d="M178.666 93.19C177.62 93.19 176.806 92.9267 176.226 92.4C175.653 91.8733 175.366 91.1667 175.366 90.28C175.366 89.42 175.686 88.7067 176.326 88.14C176.973 87.5667 178.01 87.28 179.436 87.28H182.336V87.07C182.336 85.21 181.486 84.28 179.786 84.28C179.093 84.28 178.51 84.4067 178.036 84.66C177.57 84.9133 177.193 85.2733 176.906 85.74L175.796 84.9C176.196 84.2333 176.733 83.7233 177.406 83.37C178.086 83.01 178.87 82.83 179.756 82.83H179.956C181.163 82.83 182.12 83.18 182.826 83.88C183.533 84.5733 183.886 85.6 183.886 86.96V93H182.356V91.15C181.976 91.7967 181.473 92.3 180.846 92.66C180.22 93.0133 179.493 93.19 178.666 93.19ZM178.966 91.78C179.82 91.78 180.526 91.5733 181.086 91.16C181.646 90.74 182.063 90.1733 182.336 89.46V88.54H179.506C178.58 88.54 177.923 88.6867 177.536 88.98C177.156 89.2733 176.966 89.6733 176.966 90.18C176.966 90.6867 177.133 91.08 177.466 91.36C177.8 91.64 178.3 91.78 178.966 91.78ZM191.154 93.22C190.207 93.22 189.374 93.01 188.654 92.59C187.934 92.1633 187.371 91.5633 186.964 90.79C186.564 90.01 186.364 89.09 186.364 88.03C186.364 86.97 186.564 86.05 186.964 85.27C187.364 84.49 187.924 83.89 188.644 83.47C189.364 83.0433 190.201 82.83 191.154 82.83H191.354C192.127 82.83 192.844 83.02 193.504 83.4C194.164 83.78 194.701 84.2967 195.114 84.95L193.904 85.82C193.597 85.3467 193.227 84.9767 192.794 84.71C192.361 84.4367 191.867 84.3 191.314 84.3H191.124C190.164 84.3 189.404 84.64 188.844 85.32C188.284 85.9933 188.004 86.8967 188.004 88.03C188.004 89.1567 188.284 90.06 188.844 90.74C189.404 91.4133 190.164 91.75 191.124 91.75H191.314C191.874 91.75 192.374 91.63 192.814 91.39C193.261 91.15 193.644 90.8267 193.964 90.42L195.114 91.36C194.687 91.94 194.147 92.3967 193.494 92.73C192.841 93.0567 192.127 93.22 191.354 93.22H191.154ZM201.839 93.12C200.733 93.12 199.879 92.8433 199.279 92.29C198.679 91.7367 198.379 90.8567 198.379 89.65V84.42H196.419V83.05H198.379V80.02H199.959V83.05H203.479V84.42H199.959V89.43C199.959 90.2633 200.139 90.8467 200.499 91.18C200.866 91.5067 201.386 91.67 202.059 91.67C202.353 91.67 202.619 91.6567 202.859 91.63C203.099 91.5967 203.349 91.5533 203.609 91.5V92.89C203.336 92.9567 203.046 93.01 202.739 93.05C202.433 93.0967 202.133 93.12 201.839 93.12ZM206.669 80.96C206.329 80.96 206.059 80.8567 205.859 80.65C205.659 80.4433 205.559 80.1767 205.559 79.85C205.559 79.5233 205.659 79.2567 205.859 79.05C206.059 78.8433 206.329 78.74 206.669 78.74C207.009 78.74 207.279 78.8433 207.479 79.05C207.679 79.2567 207.779 79.5233 207.779 79.85C207.779 80.1767 207.679 80.4433 207.479 80.65C207.279 80.8567 207.009 80.96 206.669 80.96ZM205.879 93V83.05H207.459V93H205.879ZM213.574 93C212.854 91.3867 212.164 89.7467 211.504 88.08C210.851 86.4133 210.241 84.7367 209.674 83.05H211.454C211.901 84.4967 212.388 85.9433 212.914 87.39C213.448 88.83 214.004 90.2633 214.584 91.69C215.171 90.2633 215.728 88.83 216.254 87.39C216.781 85.9433 217.271 84.4967 217.724 83.05H219.434C218.868 84.7367 218.258 86.4133 217.604 88.08C216.951 89.7467 216.264 91.3867 215.544 93H213.574ZM225.333 93.22C224.386 93.22 223.556 93.0033 222.843 92.57C222.129 92.1367 221.573 91.53 221.173 90.75C220.779 89.97 220.583 89.0633 220.583 88.03C220.583 87.0167 220.779 86.12 221.173 85.34C221.566 84.5533 222.113 83.94 222.813 83.5C223.519 83.0533 224.336 82.83 225.263 82.83H225.453C226.333 82.83 227.099 83.05 227.753 83.49C228.406 83.9233 228.909 84.5367 229.263 85.33C229.623 86.1233 229.803 87.0567 229.803 88.13V88.67H222.203C222.309 89.6233 222.643 90.38 223.203 90.94C223.769 91.5 224.503 91.78 225.403 91.78H225.583C226.116 91.78 226.609 91.6733 227.063 91.46C227.523 91.2467 227.909 90.9533 228.223 90.58L229.233 91.61C228.799 92.11 228.263 92.5033 227.623 92.79C226.983 93.0767 226.286 93.22 225.533 93.22H225.333ZM225.233 84.26C224.406 84.26 223.723 84.54 223.183 85.1C222.643 85.66 222.319 86.4133 222.213 87.36H228.213C228.166 86.48 227.899 85.7433 227.413 85.15C226.933 84.5567 226.266 84.26 225.413 84.26H225.233ZM232.833 93V79H234.503V93H232.833ZM238.145 93V83.05H239.725V84.94C240.092 84.2867 240.565 83.7733 241.145 83.4C241.725 83.02 242.395 82.83 243.155 82.83H243.355C244.482 82.83 245.355 83.2067 245.975 83.96C246.595 84.7067 246.905 85.7767 246.905 87.17V93H245.325V87.4C245.325 86.3733 245.135 85.6 244.755 85.08C244.375 84.56 243.778 84.3 242.965 84.3H242.775C242.035 84.3 241.402 84.54 240.875 85.02C240.355 85.5 239.972 86.1033 239.725 86.83V93H238.145ZM253.742 93.22C252.862 93.22 252.095 93 251.442 92.56C250.788 92.12 250.278 91.51 249.912 90.73C249.552 89.95 249.372 89.05 249.372 88.03C249.372 87.0033 249.552 86.1 249.912 85.32C250.278 84.54 250.788 83.93 251.442 83.49C252.095 83.05 252.862 82.83 253.742 82.83H253.942C254.662 82.83 255.322 82.99 255.922 83.31C256.522 83.6233 257.008 84.0967 257.382 84.73V78.4H258.962V93H257.382V91.21C257.022 91.8767 256.542 92.38 255.942 92.72C255.348 93.0533 254.682 93.22 253.942 93.22H253.742ZM254.112 91.77H254.302C255.042 91.77 255.672 91.5533 256.192 91.12C256.718 90.68 257.115 90.1133 257.382 89.42V86.63C257.115 85.9367 256.718 85.3733 256.192 84.94C255.665 84.5067 255.035 84.29 254.302 84.29H254.112C253.158 84.29 252.402 84.6167 251.842 85.27C251.288 85.9233 251.012 86.8433 251.012 88.03C251.012 89.2167 251.288 90.1367 251.842 90.79C252.402 91.4433 253.158 91.77 254.112 91.77ZM266.348 93.22C265.402 93.22 264.572 93.0033 263.858 92.57C263.145 92.1367 262.588 91.53 262.188 90.75C261.795 89.97 261.598 89.0633 261.598 88.03C261.598 87.0167 261.795 86.12 262.188 85.34C262.582 84.5533 263.128 83.94 263.828 83.5C264.535 83.0533 265.352 82.83 266.278 82.83H266.468C267.348 82.83 268.115 83.05 268.768 83.49C269.422 83.9233 269.925 84.5367 270.278 85.33C270.638 86.1233 270.818 87.0567 270.818 88.13V88.67H263.218C263.325 89.6233 263.658 90.38 264.218 90.94C264.785 91.5 265.518 91.78 266.418 91.78H266.598C267.132 91.78 267.625 91.6733 268.078 91.46C268.538 91.2467 268.925 90.9533 269.238 90.58L270.248 91.61C269.815 92.11 269.278 92.5033 268.638 92.79C267.998 93.0767 267.302 93.22 266.548 93.22H266.348ZM266.248 84.26C265.422 84.26 264.738 84.54 264.198 85.1C263.658 85.66 263.335 86.4133 263.228 87.36H269.228C269.182 86.48 268.915 85.7433 268.428 85.15C267.948 84.5567 267.282 84.26 266.428 84.26H266.248ZM271.663 93C272.21 92.1733 272.807 91.3333 273.453 90.48C274.1 89.6267 274.753 88.8033 275.413 88.01C274.76 87.2167 274.113 86.3967 273.473 85.55C272.84 84.6967 272.253 83.8633 271.713 83.05H273.603C274.003 83.6767 274.453 84.34 274.953 85.04C275.46 85.7333 275.967 86.4033 276.473 87.05C276.973 86.41 277.473 85.74 277.973 85.04C278.473 84.34 278.917 83.6767 279.303 83.05H281.113C280.573 83.87 279.983 84.7033 279.343 85.55C278.703 86.3967 278.057 87.2133 277.403 88C278.063 88.8 278.713 89.63 279.353 90.49C280 91.3433 280.593 92.18 281.133 93H279.243C278.837 92.3667 278.38 91.6967 277.873 90.99C277.367 90.2833 276.857 89.6067 276.343 88.96C275.837 89.6067 275.33 90.2833 274.823 90.99C274.317 91.6967 273.87 92.3667 273.483 93H271.663Z" fill="#8891EC"/>
<path d="M154 85C154 71.1929 165.193 60 179 60H294V110H179C165.193 110 154 98.8071 154 85V85Z" stroke="#8891EC" stroke-linejoin="bevel"/>
<path d="M294 60H315C328.807 60 340 71.1929 340 85V85C340 98.8071 328.807 110 315 110H294V60Z" fill="#343A46"/>
<path d="M312.872 93.22C311.745 93.22 310.779 92.93 309.972 92.35C309.165 91.77 308.545 90.94 308.112 89.86C307.685 88.78 307.472 87.4933 307.472 86C307.472 84.5067 307.685 83.22 308.112 82.14C308.545 81.06 309.165 80.23 309.972 79.65C310.779 79.07 311.745 78.78 312.872 78.78H313.122C314.249 78.78 315.212 79.07 316.012 79.65C316.819 80.23 317.435 81.06 317.862 82.14C318.295 83.22 318.512 84.5067 318.512 86C318.512 87.4933 318.295 88.78 317.862 89.86C317.435 90.94 316.819 91.77 316.012 92.35C315.212 92.93 314.249 93.22 313.122 93.22H312.872ZM312.882 91.69H313.112C314.272 91.69 315.175 91.2133 315.822 90.26C316.475 89.3 316.802 87.88 316.802 86C316.802 84.12 316.475 82.7033 315.822 81.75C315.175 80.79 314.272 80.31 313.112 80.31H312.882C311.722 80.31 310.815 80.79 310.162 81.75C309.509 82.7033 309.182 84.12 309.182 86C309.182 87.88 309.509 89.3 310.162 90.26C310.815 91.2133 311.722 91.69 312.882 91.69Z" fill="#8891EC"/>
<path d="M294 60H315C328.807 60 340 71.1929 340 85V85C340 98.8071 328.807 110 315 110H294V60Z" stroke="#8891EC" stroke-linejoin="bevel"/>
<path d="M9 258C9 244.193 20.1929 233 34 233H116V283H34C20.1929 283 9 271.807 9 258V258Z" fill="#8891EC"/>
<path d="M31.7123 253.96C31.3723 253.96 31.1023 253.857 30.9023 253.65C30.7023 253.443 30.6023 253.177 30.6023 252.85C30.6023 252.523 30.7023 252.257 30.9023 252.05C31.1023 251.843 31.3723 251.74 31.7123 251.74C32.0523 251.74 32.3223 251.843 32.5223 252.05C32.7223 252.257 32.8223 252.523 32.8223 252.85C32.8223 253.177 32.7223 253.443 32.5223 253.65C32.3223 253.857 32.0523 253.96 31.7123 253.96ZM30.9223 266V256.05H32.5023V266H30.9223ZM39.1974 266.22C37.2108 266.22 35.7708 265.57 34.8774 264.27L35.9774 263.31C36.6841 264.323 37.7541 264.83 39.1874 264.83H39.3674C40.1008 264.83 40.6708 264.703 41.0774 264.45C41.4908 264.19 41.6974 263.827 41.6974 263.36C41.6974 262.96 41.5574 262.64 41.2774 262.4C41.0041 262.16 40.5374 261.973 39.8774 261.84L38.0774 261.47C36.1708 261.083 35.2174 260.193 35.2174 258.8C35.2174 257.907 35.5708 257.19 36.2774 256.65C36.9908 256.103 37.9274 255.83 39.0874 255.83H39.2874C40.9808 255.83 42.2474 256.447 43.0874 257.68L41.9874 258.57C41.6541 258.097 41.2641 257.753 40.8174 257.54C40.3708 257.327 39.8541 257.22 39.2674 257.22H39.0874C38.4008 257.22 37.8441 257.35 37.4174 257.61C36.9974 257.863 36.7874 258.217 36.7874 258.67C36.7874 259.023 36.9174 259.307 37.1774 259.52C37.4374 259.727 37.8708 259.893 38.4774 260.02L40.4474 260.43C41.3341 260.617 42.0241 260.94 42.5174 261.4C43.0174 261.86 43.2674 262.487 43.2674 263.28C43.2674 264.153 42.9274 264.863 42.2474 265.41C41.5741 265.95 40.6274 266.22 39.4074 266.22H39.1974ZM45.046 266C45.4927 264.493 46.0027 262.93 46.576 261.31C47.156 259.683 47.7693 258.077 48.416 256.49C49.0693 254.903 49.7227 253.407 50.376 252H52.416C53.076 253.407 53.7293 254.903 54.376 256.49C55.0227 258.077 55.636 259.683 56.216 261.31C56.796 262.93 57.306 264.493 57.746 266H55.936C55.7627 265.36 55.5693 264.703 55.356 264.03C55.1493 263.35 54.9293 262.66 54.696 261.96H48.036C47.8027 262.66 47.5793 263.35 47.366 264.03C47.1593 264.703 46.9693 265.36 46.796 266H45.046ZM48.576 260.4H54.156C53.7227 259.187 53.266 257.983 52.786 256.79C52.3127 255.597 51.8393 254.47 51.366 253.41C50.8993 254.47 50.426 255.597 49.946 256.79C49.466 257.983 49.0093 259.187 48.576 260.4ZM64.0485 266.22C63.1018 266.22 62.2685 266.01 61.5485 265.59C60.8285 265.163 60.2652 264.563 59.8585 263.79C59.4585 263.01 59.2585 262.09 59.2585 261.03C59.2585 259.97 59.4585 259.05 59.8585 258.27C60.2585 257.49 60.8185 256.89 61.5385 256.47C62.2585 256.043 63.0952 255.83 64.0485 255.83H64.2485C65.0218 255.83 65.7385 256.02 66.3985 256.4C67.0585 256.78 67.5952 257.297 68.0085 257.95L66.7985 258.82C66.4918 258.347 66.1218 257.977 65.6885 257.71C65.2552 257.437 64.7618 257.3 64.2085 257.3H64.0185C63.0585 257.3 62.2985 257.64 61.7385 258.32C61.1785 258.993 60.8985 259.897 60.8985 261.03C60.8985 262.157 61.1785 263.06 61.7385 263.74C62.2985 264.413 63.0585 264.75 64.0185 264.75H64.2085C64.7685 264.75 65.2685 264.63 65.7085 264.39C66.1552 264.15 66.5385 263.827 66.8585 263.42L68.0085 264.36C67.5818 264.94 67.0418 265.397 66.3885 265.73C65.7352 266.057 65.0218 266.22 64.2485 266.22H64.0485ZM74.734 266.12C73.6273 266.12 72.774 265.843 72.174 265.29C71.574 264.737 71.274 263.857 71.274 262.65V257.42H69.314V256.05H71.274V253.02H72.854V256.05H76.374V257.42H72.854V262.43C72.854 263.263 73.034 263.847 73.394 264.18C73.7607 264.507 74.2807 264.67 74.954 264.67C75.2473 264.67 75.514 264.657 75.754 264.63C75.994 264.597 76.244 264.553 76.504 264.5V265.89C76.2307 265.957 75.9407 266.01 75.634 266.05C75.3273 266.097 75.0273 266.12 74.734 266.12ZM79.5638 253.96C79.2238 253.96 78.9538 253.857 78.7538 253.65C78.5538 253.443 78.4538 253.177 78.4538 252.85C78.4538 252.523 78.5538 252.257 78.7538 252.05C78.9538 251.843 79.2238 251.74 79.5638 251.74C79.9038 251.74 80.1738 251.843 80.3738 252.05C80.5738 252.257 80.6738 252.523 80.6738 252.85C80.6738 253.177 80.5738 253.443 80.3738 253.65C80.1738 253.857 79.9038 253.96 79.5638 253.96ZM78.7738 266V256.05H80.3538V266H78.7738ZM86.469 266C85.749 264.387 85.059 262.747 84.399 261.08C83.7457 259.413 83.1357 257.737 82.569 256.05H84.349C84.7957 257.497 85.2823 258.943 85.809 260.39C86.3423 261.83 86.899 263.263 87.479 264.69C88.0657 263.263 88.6223 261.83 89.149 260.39C89.6757 258.943 90.1657 257.497 90.619 256.05H92.329C91.7623 257.737 91.1523 259.413 90.499 261.08C89.8457 262.747 89.159 264.387 88.439 266H86.469ZM98.2273 266.22C97.2806 266.22 96.4506 266.003 95.7373 265.57C95.0239 265.137 94.4673 264.53 94.0673 263.75C93.6739 262.97 93.4773 262.063 93.4773 261.03C93.4773 260.017 93.6739 259.12 94.0673 258.34C94.4606 257.553 95.0073 256.94 95.7073 256.5C96.4139 256.053 97.2306 255.83 98.1573 255.83H98.3473C99.2273 255.83 99.9939 256.05 100.647 256.49C101.301 256.923 101.804 257.537 102.157 258.33C102.517 259.123 102.697 260.057 102.697 261.13V261.67H95.0973C95.2039 262.623 95.5373 263.38 96.0973 263.94C96.6639 264.5 97.3973 264.78 98.2973 264.78H98.4773C99.0106 264.78 99.5039 264.673 99.9573 264.46C100.417 264.247 100.804 263.953 101.117 263.58L102.127 264.61C101.694 265.11 101.157 265.503 100.517 265.79C99.8773 266.077 99.1806 266.22 98.4273 266.22H98.2273ZM98.1273 257.26C97.3006 257.26 96.6173 257.54 96.0773 258.1C95.5373 258.66 95.2139 259.413 95.1073 260.36H101.107C101.061 259.48 100.794 258.743 100.307 258.15C99.8273 257.557 99.1606 257.26 98.3073 257.26H98.1273Z" fill="#343A46"/>
<path d="M9 258C9 244.193 20.1929 233 34 233H116V283H34C20.1929 283 9 271.807 9 258V258Z" stroke="#343A46" stroke-linejoin="bevel"/>
<path d="M116 233H162C175.807 233 187 244.193 187 258V258C187 271.807 175.807 283 162 283H116V233Z" fill="#8891EC"/>
<path d="M134.005 266.12C132.899 266.12 132.045 265.843 131.445 265.29C130.845 264.737 130.545 263.857 130.545 262.65V257.42H128.585V256.05H130.545V253.02H132.125V256.05H135.645V257.42H132.125V262.43C132.125 263.263 132.305 263.847 132.665 264.18C133.032 264.507 133.552 264.67 134.225 264.67C134.519 264.67 134.785 264.657 135.025 264.63C135.265 264.597 135.515 264.553 135.775 264.5V265.89C135.502 265.957 135.212 266.01 134.905 266.05C134.599 266.097 134.299 266.12 134.005 266.12ZM138.045 266V256.05H139.625V257.78C139.939 257.153 140.339 256.673 140.825 256.34C141.312 256 141.875 255.83 142.515 255.83C142.822 255.83 143.115 255.86 143.395 255.92V257.5C143.242 257.48 143.075 257.463 142.895 257.45C142.722 257.437 142.552 257.43 142.385 257.43C141.659 257.43 141.069 257.653 140.615 258.1C140.169 258.54 139.839 259.13 139.625 259.87V266H138.045ZM148.857 266.22C147.704 266.22 146.824 265.843 146.217 265.09C145.611 264.337 145.307 263.267 145.307 261.88V256.05H146.887V261.65C146.887 262.677 147.077 263.453 147.457 263.98C147.844 264.5 148.441 264.76 149.247 264.76H149.427C150.167 264.76 150.801 264.52 151.327 264.04C151.854 263.553 152.241 262.947 152.487 262.22V256.05H154.067V266H152.487V264.11C152.121 264.763 151.647 265.28 151.067 265.66C150.487 266.033 149.817 266.22 149.057 266.22H148.857ZM161.444 266.22C160.497 266.22 159.667 266.003 158.954 265.57C158.241 265.137 157.684 264.53 157.284 263.75C156.891 262.97 156.694 262.063 156.694 261.03C156.694 260.017 156.891 259.12 157.284 258.34C157.677 257.553 158.224 256.94 158.924 256.5C159.631 256.053 160.447 255.83 161.374 255.83H161.564C162.444 255.83 163.211 256.05 163.864 256.49C164.517 256.923 165.021 257.537 165.374 258.33C165.734 259.123 165.914 260.057 165.914 261.13V261.67H158.314C158.421 262.623 158.754 263.38 159.314 263.94C159.881 264.5 160.614 264.78 161.514 264.78H161.694C162.227 264.78 162.721 264.673 163.174 264.46C163.634 264.247 164.021 263.953 164.334 263.58L165.344 264.61C164.911 265.11 164.374 265.503 163.734 265.79C163.094 266.077 162.397 266.22 161.644 266.22H161.444ZM161.344 257.26C160.517 257.26 159.834 257.54 159.294 258.1C158.754 258.66 158.431 259.413 158.324 260.36H164.324C164.277 259.48 164.011 258.743 163.524 258.15C163.044 257.557 162.377 257.26 161.524 257.26H161.344Z" fill="#343A46"/>
<path d="M116 233H162C175.807 233 187 244.193 187 258V258C187 271.807 175.807 283 162 283H116V233Z" stroke="#343A46" stroke-linejoin="bevel"/>
<path d="M294 258C294 244.193 305.193 233 319 233H401V283H319C305.193 283 294 271.807 294 258V258Z" fill="#8891EC"/>
<path d="M316.712 253.96C316.372 253.96 316.102 253.857 315.902 253.65C315.702 253.443 315.602 253.177 315.602 252.85C315.602 252.523 315.702 252.257 315.902 252.05C316.102 251.843 316.372 251.74 316.712 251.74C317.052 251.74 317.322 251.843 317.522 252.05C317.722 252.257 317.822 252.523 317.822 252.85C317.822 253.177 317.722 253.443 317.522 253.65C317.322 253.857 317.052 253.96 316.712 253.96ZM315.922 266V256.05H317.502V266H315.922ZM324.197 266.22C322.211 266.22 320.771 265.57 319.877 264.27L320.977 263.31C321.684 264.323 322.754 264.83 324.187 264.83H324.367C325.101 264.83 325.671 264.703 326.077 264.45C326.491 264.19 326.697 263.827 326.697 263.36C326.697 262.96 326.557 262.64 326.277 262.4C326.004 262.16 325.537 261.973 324.877 261.84L323.077 261.47C321.171 261.083 320.217 260.193 320.217 258.8C320.217 257.907 320.571 257.19 321.277 256.65C321.991 256.103 322.927 255.83 324.087 255.83H324.287C325.981 255.83 327.247 256.447 328.087 257.68L326.987 258.57C326.654 258.097 326.264 257.753 325.817 257.54C325.371 257.327 324.854 257.22 324.267 257.22H324.087C323.401 257.22 322.844 257.35 322.417 257.61C321.997 257.863 321.787 258.217 321.787 258.67C321.787 259.023 321.917 259.307 322.177 259.52C322.437 259.727 322.871 259.893 323.477 260.02L325.447 260.43C326.334 260.617 327.024 260.94 327.517 261.4C328.017 261.86 328.267 262.487 328.267 263.28C328.267 264.153 327.927 264.863 327.247 265.41C326.574 265.95 325.627 266.22 324.407 266.22H324.197ZM330.046 266C330.493 264.493 331.003 262.93 331.576 261.31C332.156 259.683 332.769 258.077 333.416 256.49C334.069 254.903 334.723 253.407 335.376 252H337.416C338.076 253.407 338.729 254.903 339.376 256.49C340.023 258.077 340.636 259.683 341.216 261.31C341.796 262.93 342.306 264.493 342.746 266H340.936C340.763 265.36 340.569 264.703 340.356 264.03C340.149 263.35 339.929 262.66 339.696 261.96H333.036C332.803 262.66 332.579 263.35 332.366 264.03C332.159 264.703 331.969 265.36 331.796 266H330.046ZM333.576 260.4H339.156C338.723 259.187 338.266 257.983 337.786 256.79C337.313 255.597 336.839 254.47 336.366 253.41C335.899 254.47 335.426 255.597 334.946 256.79C334.466 257.983 334.009 259.187 333.576 260.4ZM349.049 266.22C348.102 266.22 347.269 266.01 346.549 265.59C345.829 265.163 345.265 264.563 344.859 263.79C344.459 263.01 344.259 262.09 344.259 261.03C344.259 259.97 344.459 259.05 344.859 258.27C345.259 257.49 345.819 256.89 346.539 256.47C347.259 256.043 348.095 255.83 349.049 255.83H349.249C350.022 255.83 350.739 256.02 351.399 256.4C352.059 256.78 352.595 257.297 353.009 257.95L351.799 258.82C351.492 258.347 351.122 257.977 350.689 257.71C350.255 257.437 349.762 257.3 349.209 257.3H349.019C348.059 257.3 347.299 257.64 346.739 258.32C346.179 258.993 345.899 259.897 345.899 261.03C345.899 262.157 346.179 263.06 346.739 263.74C347.299 264.413 348.059 264.75 349.019 264.75H349.209C349.769 264.75 350.269 264.63 350.709 264.39C351.155 264.15 351.539 263.827 351.859 263.42L353.009 264.36C352.582 264.94 352.042 265.397 351.389 265.73C350.735 266.057 350.022 266.22 349.249 266.22H349.049ZM359.734 266.12C358.627 266.12 357.774 265.843 357.174 265.29C356.574 264.737 356.274 263.857 356.274 262.65V257.42H354.314V256.05H356.274V253.02H357.854V256.05H361.374V257.42H357.854V262.43C357.854 263.263 358.034 263.847 358.394 264.18C358.761 264.507 359.281 264.67 359.954 264.67C360.247 264.67 360.514 264.657 360.754 264.63C360.994 264.597 361.244 264.553 361.504 264.5V265.89C361.231 265.957 360.941 266.01 360.634 266.05C360.327 266.097 360.027 266.12 359.734 266.12ZM364.564 253.96C364.224 253.96 363.954 253.857 363.754 253.65C363.554 253.443 363.454 253.177 363.454 252.85C363.454 252.523 363.554 252.257 363.754 252.05C363.954 251.843 364.224 251.74 364.564 251.74C364.904 251.74 365.174 251.843 365.374 252.05C365.574 252.257 365.674 252.523 365.674 252.85C365.674 253.177 365.574 253.443 365.374 253.65C365.174 253.857 364.904 253.96 364.564 253.96ZM363.774 266V256.05H365.354V266H363.774ZM371.469 266C370.749 264.387 370.059 262.747 369.399 261.08C368.746 259.413 368.136 257.737 367.569 256.05H369.349C369.796 257.497 370.282 258.943 370.809 260.39C371.342 261.83 371.899 263.263 372.479 264.69C373.066 263.263 373.622 261.83 374.149 260.39C374.676 258.943 375.166 257.497 375.619 256.05H377.329C376.762 257.737 376.152 259.413 375.499 261.08C374.846 262.747 374.159 264.387 373.439 266H371.469ZM383.227 266.22C382.281 266.22 381.451 266.003 380.737 265.57C380.024 265.137 379.467 264.53 379.067 263.75C378.674 262.97 378.477 262.063 378.477 261.03C378.477 260.017 378.674 259.12 379.067 258.34C379.461 257.553 380.007 256.94 380.707 256.5C381.414 256.053 382.231 255.83 383.157 255.83H383.347C384.227 255.83 384.994 256.05 385.647 256.49C386.301 256.923 386.804 257.537 387.157 258.33C387.517 259.123 387.697 260.057 387.697 261.13V261.67H380.097C380.204 262.623 380.537 263.38 381.097 263.94C381.664 264.5 382.397 264.78 383.297 264.78H383.477C384.011 264.78 384.504 264.673 384.957 264.46C385.417 264.247 385.804 263.953 386.117 263.58L387.127 264.61C386.694 265.11 386.157 265.503 385.517 265.79C384.877 266.077 384.181 266.22 383.427 266.22H383.227ZM383.127 257.26C382.301 257.26 381.617 257.54 381.077 258.1C380.537 258.66 380.214 259.413 380.107 260.36H386.107C386.061 259.48 385.794 258.743 385.307 258.15C384.827 257.557 384.161 257.26 383.307 257.26H383.127Z" fill="#343A46"/>
<path d="M294 258C294 244.193 305.193 233 319 233H401V283H319C305.193 283 294 271.807 294 258V258Z" stroke="#343A46" stroke-linejoin="bevel"/>
<path d="M401 233H453C466.807 233 478 244.193 478 258V258C478 271.807 466.807 283 453 283H401V233Z" fill="#8891EC"/>
<path d="M415.59 266V257.42H413.72V256.05H415.59V254.8C415.59 253.62 415.89 252.723 416.49 252.11C417.09 251.49 417.92 251.18 418.98 251.18C419.607 251.18 420.157 251.25 420.63 251.39V252.8C420.357 252.727 420.103 252.677 419.87 252.65C419.643 252.623 419.42 252.61 419.2 252.61C417.847 252.61 417.17 253.303 417.17 254.69V256.05H420.56V257.42H417.17V266H415.59ZM424.848 266.19C423.801 266.19 422.988 265.927 422.408 265.4C421.835 264.873 421.548 264.167 421.548 263.28C421.548 262.42 421.868 261.707 422.508 261.14C423.155 260.567 424.191 260.28 425.618 260.28H428.518V260.07C428.518 258.21 427.668 257.28 425.968 257.28C425.275 257.28 424.691 257.407 424.218 257.66C423.751 257.913 423.375 258.273 423.088 258.74L421.978 257.9C422.378 257.233 422.915 256.723 423.588 256.37C424.268 256.01 425.051 255.83 425.938 255.83H426.138C427.345 255.83 428.301 256.18 429.008 256.88C429.715 257.573 430.068 258.6 430.068 259.96V266H428.538V264.15C428.158 264.797 427.655 265.3 427.028 265.66C426.401 266.013 425.675 266.19 424.848 266.19ZM425.148 264.78C426.001 264.78 426.708 264.573 427.268 264.16C427.828 263.74 428.245 263.173 428.518 262.46V261.54H425.688C424.761 261.54 424.105 261.687 423.718 261.98C423.338 262.273 423.148 262.673 423.148 263.18C423.148 263.687 423.315 264.08 423.648 264.36C423.981 264.64 424.481 264.78 425.148 264.78ZM433.116 266V251.4H434.696V266H433.116ZM441.391 266.22C439.404 266.22 437.964 265.57 437.071 264.27L438.171 263.31C438.877 264.323 439.947 264.83 441.381 264.83H441.561C442.294 264.83 442.864 264.703 443.271 264.45C443.684 264.19 443.891 263.827 443.891 263.36C443.891 262.96 443.751 262.64 443.471 262.4C443.197 262.16 442.731 261.973 442.071 261.84L440.271 261.47C438.364 261.083 437.411 260.193 437.411 258.8C437.411 257.907 437.764 257.19 438.471 256.65C439.184 256.103 440.121 255.83 441.281 255.83H441.481C443.174 255.83 444.441 256.447 445.281 257.68L444.181 258.57C443.847 258.097 443.457 257.753 443.011 257.54C442.564 257.327 442.047 257.22 441.461 257.22H441.281C440.594 257.22 440.037 257.35 439.611 257.61C439.191 257.863 438.981 258.217 438.981 258.67C438.981 259.023 439.111 259.307 439.371 259.52C439.631 259.727 440.064 259.893 440.671 260.02L442.641 260.43C443.527 260.617 444.217 260.94 444.711 261.4C445.211 261.86 445.461 262.487 445.461 263.28C445.461 264.153 445.121 264.863 444.441 265.41C443.767 265.95 442.821 266.22 441.601 266.22H441.391ZM452.139 266.22C451.193 266.22 450.363 266.003 449.649 265.57C448.936 265.137 448.379 264.53 447.979 263.75C447.586 262.97 447.389 262.063 447.389 261.03C447.389 260.017 447.586 259.12 447.979 258.34C448.373 257.553 448.919 256.94 449.619 256.5C450.326 256.053 451.143 255.83 452.069 255.83H452.259C453.139 255.83 453.906 256.05 454.559 256.49C455.213 256.923 455.716 257.537 456.069 258.33C456.429 259.123 456.609 260.057 456.609 261.13V261.67H449.009C449.116 262.623 449.449 263.38 450.009 263.94C450.576 264.5 451.309 264.78 452.209 264.78H452.389C452.923 264.78 453.416 264.673 453.869 264.46C454.329 264.247 454.716 263.953 455.029 263.58L456.039 264.61C455.606 265.11 455.069 265.503 454.429 265.79C453.789 266.077 453.093 266.22 452.339 266.22H452.139ZM452.039 257.26C451.213 257.26 450.529 257.54 449.989 258.1C449.449 258.66 449.126 259.413 449.019 260.36H455.019C454.973 259.48 454.706 258.743 454.219 258.15C453.739 257.557 453.073 257.26 452.219 257.26H452.039Z" fill="#343A46"/>
<path d="M401 233H453C466.807 233 478 244.193 478 258V258C478 271.807 466.807 283 453 283H401V233Z" stroke="#343A46" stroke-linejoin="bevel"/>
</g>
<defs>
<filter id="filter0_d_622_5938" x="2.5" y="324.5" width="190.776" height="61" filterUnits="userSpaceOnUse" color-interpolation-filters="sRGB">
<feFlood flood-opacity="0" result="BackgroundImageFix"/>
<feColorMatrix in="SourceAlpha" type="matrix" values="0 0 0 0 0 0 0 0 0 0 0 0 0 0 0 0 0 0 127 0" result="hardAlpha"/>
<feOffset dy="2"/>
<feComposite in2="hardAlpha" operator="out"/>
<feColorMatrix type="matrix" values="0 0 0 0 1 0 0 0 0 1 0 0 0 0 1 0 0 0 1 0"/>
<feBlend mode="normal" in2="BackgroundImageFix" result="effect1_dropShadow_622_5938"/>
<feBlend mode="normal" in="SourceGraphic" in2="effect1_dropShadow_622_5938" result="shape"/>
</filter>
<filter id="filter1_d_622_5938" x="290.723" y="324.5" width="190.776" height="61" filterUnits="userSpaceOnUse" color-interpolation-filters="sRGB">
<feFlood flood-opacity="0" result="BackgroundImageFix"/>
<feColorMatrix in="SourceAlpha" type="matrix" values="0 0 0 0 0 0 0 0 0 0 0 0 0 0 0 0 0 0 127 0" result="hardAlpha"/>
<feOffset dy="2"/>
<feComposite in2="hardAlpha" operator="out"/>
<feColorMatrix type="matrix" values="0 0 0 0 1 0 0 0 0 1 0 0 0 0 1 0 0 0 1 0"/>
<feBlend mode="normal" in2="BackgroundImageFix" result="effect1_dropShadow_622_5938"/>
<feBlend mode="normal" in="SourceGraphic" in2="effect1_dropShadow_622_5938" result="shape"/>
</filter>
<clipPath id="clip0_622_5938">
<rect width="487" height="385" fill="white"/>
</clipPath>
</defs>
</svg>
