<svg width="410" height="385" viewBox="0 0 410 385" fill="none" xmlns="http://www.w3.org/2000/svg">
<g filter="url(#filter0_d_426_4901)">
<path d="M4 330C4 326.686 6.68629 324 10 324H158C161.314 324 164 326.686 164 330V376C164 379.314 161.314 382 158 382H10C6.6863 382 4 379.314 4 376V330Z" fill="white"/>
<path d="M37.6588 361V347H40.1588L45.0588 355.59L49.9288 347H52.4288V361H50.3888V349.92L46.0088 357.64H44.0788L39.6988 349.97V361H37.6588ZM56.5211 365.44C56.2344 365.44 55.9644 365.417 55.7111 365.37V363.57C55.9244 363.603 56.1111 363.62 56.2711 363.62C56.9711 363.62 57.5411 363.42 57.9811 363.02C58.4211 362.627 58.8078 362.047 59.1411 361.28C58.3211 359.633 57.5511 357.947 56.8311 356.22C56.1111 354.493 55.4244 352.753 54.7711 351H57.0911C57.5178 352.34 57.9778 353.68 58.4711 355.02C58.9711 356.353 59.5011 357.673 60.0611 358.98L62.7911 351H64.9711L61.0611 361.31C60.5611 362.63 59.9678 363.647 59.2811 364.36C58.5944 365.08 57.6744 365.44 56.5211 365.44ZM67.3658 361V347H73.3258C74.8658 347 76.0324 347.323 76.8258 347.97C77.6191 348.617 78.0158 349.5 78.0158 350.62C78.0158 351.307 77.8524 351.917 77.5258 352.45C77.1991 352.983 76.6224 353.38 75.7958 353.64C76.8424 353.887 77.6024 354.317 78.0758 354.93C78.5558 355.543 78.7958 356.287 78.7958 357.16C78.7958 358.367 78.3724 359.31 77.5258 359.99C76.6858 360.663 75.4758 361 73.8958 361H67.3658ZM73.2058 348.94H69.4658V353.04H73.2958C74.1891 353.04 74.8458 352.873 75.2658 352.54C75.6924 352.2 75.9058 351.68 75.9058 350.98C75.9058 350.28 75.6858 349.767 75.2458 349.44C74.8058 349.107 74.1258 348.94 73.2058 348.94ZM73.8158 354.96H69.4658V359.06H73.8658C75.7191 359.06 76.6458 358.377 76.6458 357.01C76.6458 356.317 76.4358 355.803 76.0158 355.47C75.6024 355.13 74.8691 354.96 73.8158 354.96ZM84.5531 361.24C83.3998 361.24 82.5198 360.85 81.9131 360.07C81.3065 359.29 81.0031 358.193 81.0031 356.78V351H83.0031V356.54C83.0031 358.433 83.6898 359.38 85.0631 359.38H85.2631C85.9431 359.38 86.5198 359.17 86.9931 358.75C87.4731 358.33 87.8298 357.8 88.0631 357.16V351H90.0631V361H88.0631V359.33C87.6965 359.923 87.2365 360.39 86.6831 360.73C86.1365 361.07 85.4998 361.24 84.7731 361.24H84.5531ZM97.5091 361.13C96.3224 361.13 95.4191 360.83 94.7991 360.23C94.1791 359.63 93.8691 358.707 93.8691 357.46V352.74H91.9091V351H93.8691V348.02H95.8691V351H99.2391V352.74H95.8691V357.19C95.8691 357.977 96.0324 358.523 96.3591 358.83C96.6857 359.137 97.1691 359.29 97.8091 359.29C98.1157 359.29 98.3891 359.277 98.6291 359.25C98.8757 359.223 99.1291 359.19 99.3891 359.15V360.9C99.1224 360.967 98.8224 361.02 98.4891 361.06C98.1557 361.107 97.8291 361.13 97.5091 361.13ZM105.947 361.13C104.76 361.13 103.857 360.83 103.237 360.23C102.617 359.63 102.307 358.707 102.307 357.46V352.74H100.347V351H102.307V348.02H104.307V351H107.677V352.74H104.307V357.19C104.307 357.977 104.47 358.523 104.797 358.83C105.123 359.137 105.607 359.29 106.247 359.29C106.553 359.29 106.827 359.277 107.067 359.25C107.313 359.223 107.567 359.19 107.827 359.15V360.9C107.56 360.967 107.26 361.02 106.927 361.06C106.593 361.107 106.267 361.13 105.947 361.13ZM114.324 361.24C113.311 361.24 112.427 361.017 111.674 360.57C110.927 360.117 110.351 359.497 109.944 358.71C109.537 357.917 109.334 357.013 109.334 356C109.334 354.98 109.537 354.077 109.944 353.29C110.351 352.503 110.927 351.887 111.674 351.44C112.427 350.987 113.311 350.76 114.324 350.76H114.544C115.564 350.76 116.447 350.987 117.194 351.44C117.941 351.887 118.517 352.503 118.924 353.29C119.331 354.077 119.534 354.98 119.534 356C119.534 357.013 119.331 357.917 118.924 358.71C118.517 359.497 117.941 360.117 117.194 360.57C116.447 361.017 115.564 361.24 114.544 361.24H114.324ZM114.334 359.38H114.534C115.447 359.38 116.164 359.073 116.684 358.46C117.204 357.847 117.464 357.027 117.464 356C117.464 354.967 117.204 354.147 116.684 353.54C116.164 352.927 115.447 352.62 114.534 352.62H114.334C113.427 352.62 112.711 352.927 112.184 353.54C111.664 354.147 111.404 354.967 111.404 356C111.404 357.027 111.664 357.847 112.184 358.46C112.711 359.073 113.427 359.38 114.334 359.38ZM121.915 361V351H123.915V352.67C124.282 352.077 124.739 351.61 125.285 351.27C125.839 350.93 126.479 350.76 127.205 350.76H127.425C128.532 350.76 129.399 351.15 130.025 351.93C130.659 352.71 130.975 353.807 130.975 355.22V361H128.975V355.46C128.975 353.567 128.289 352.62 126.915 352.62H126.715C126.035 352.62 125.455 352.83 124.975 353.25C124.502 353.67 124.149 354.2 123.915 354.84V361H121.915Z" fill="#2C749E"/>
<path d="M10 324.5H158V323.5H10V324.5ZM163.5 330V376H164.5V330H163.5ZM158 381.5H10V382.5H158V381.5ZM4.5 376V330H3.5V376H4.5ZM10 381.5C6.96244 381.5 4.5 379.038 4.5 376H3.5C3.5 379.59 6.41015 382.5 10 382.5V381.5ZM163.5 376C163.5 379.038 161.038 381.5 158 381.5V382.5C161.59 382.5 164.5 379.59 164.5 376H163.5ZM158 324.5C161.038 324.5 163.5 326.962 163.5 330H164.5C164.5 326.41 161.59 323.5 158 323.5V324.5ZM10 323.5C6.41015 323.5 3.5 326.41 3.5 330H4.5C4.5 326.962 6.96243 324.5 10 324.5V323.5Z" fill="#2C749E"/>
</g>
<g filter="url(#filter1_d_426_4901)">
<path d="M247 330C247 326.686 249.686 324 253 324H401C404.314 324 407 326.686 407 330V376C407 379.314 404.314 382 401 382H253C249.686 382 247 379.314 247 376V330Z" fill="white"/>
<path d="M280.659 361V347H283.159L288.059 355.59L292.929 347H295.429V361H293.389V349.92L289.009 357.64H287.079L282.699 349.97V361H280.659ZM299.521 365.44C299.234 365.44 298.964 365.417 298.711 365.37V363.57C298.924 363.603 299.111 363.62 299.271 363.62C299.971 363.62 300.541 363.42 300.981 363.02C301.421 362.627 301.808 362.047 302.141 361.28C301.321 359.633 300.551 357.947 299.831 356.22C299.111 354.493 298.424 352.753 297.771 351H300.091C300.518 352.34 300.978 353.68 301.471 355.02C301.971 356.353 302.501 357.673 303.061 358.98L305.791 351H307.971L304.061 361.31C303.561 362.63 302.968 363.647 302.281 364.36C301.594 365.08 300.674 365.44 299.521 365.44ZM310.366 361V347H316.326C317.866 347 319.032 347.323 319.826 347.97C320.619 348.617 321.016 349.5 321.016 350.62C321.016 351.307 320.852 351.917 320.526 352.45C320.199 352.983 319.622 353.38 318.796 353.64C319.842 353.887 320.602 354.317 321.076 354.93C321.556 355.543 321.796 356.287 321.796 357.16C321.796 358.367 321.372 359.31 320.526 359.99C319.686 360.663 318.476 361 316.896 361H310.366ZM316.206 348.94H312.466V353.04H316.296C317.189 353.04 317.846 352.873 318.266 352.54C318.692 352.2 318.906 351.68 318.906 350.98C318.906 350.28 318.686 349.767 318.246 349.44C317.806 349.107 317.126 348.94 316.206 348.94ZM316.816 354.96H312.466V359.06H316.866C318.719 359.06 319.646 358.377 319.646 357.01C319.646 356.317 319.436 355.803 319.016 355.47C318.602 355.13 317.869 354.96 316.816 354.96ZM327.553 361.24C326.4 361.24 325.52 360.85 324.913 360.07C324.306 359.29 324.003 358.193 324.003 356.78V351H326.003V356.54C326.003 358.433 326.69 359.38 328.063 359.38H328.263C328.943 359.38 329.52 359.17 329.993 358.75C330.473 358.33 330.83 357.8 331.063 357.16V351H333.063V361H331.063V359.33C330.696 359.923 330.236 360.39 329.683 360.73C329.136 361.07 328.5 361.24 327.773 361.24H327.553ZM340.509 361.13C339.322 361.13 338.419 360.83 337.799 360.23C337.179 359.63 336.869 358.707 336.869 357.46V352.74H334.909V351H336.869V348.02H338.869V351H342.239V352.74H338.869V357.19C338.869 357.977 339.032 358.523 339.359 358.83C339.686 359.137 340.169 359.29 340.809 359.29C341.116 359.29 341.389 359.277 341.629 359.25C341.876 359.223 342.129 359.19 342.389 359.15V360.9C342.122 360.967 341.822 361.02 341.489 361.06C341.156 361.107 340.829 361.13 340.509 361.13ZM348.947 361.13C347.76 361.13 346.857 360.83 346.237 360.23C345.617 359.63 345.307 358.707 345.307 357.46V352.74H343.347V351H345.307V348.02H347.307V351H350.677V352.74H347.307V357.19C347.307 357.977 347.47 358.523 347.797 358.83C348.123 359.137 348.607 359.29 349.247 359.29C349.553 359.29 349.827 359.277 350.067 359.25C350.313 359.223 350.567 359.19 350.827 359.15V360.9C350.56 360.967 350.26 361.02 349.927 361.06C349.593 361.107 349.267 361.13 348.947 361.13ZM357.324 361.24C356.311 361.24 355.427 361.017 354.674 360.57C353.927 360.117 353.351 359.497 352.944 358.71C352.537 357.917 352.334 357.013 352.334 356C352.334 354.98 352.537 354.077 352.944 353.29C353.351 352.503 353.927 351.887 354.674 351.44C355.427 350.987 356.311 350.76 357.324 350.76H357.544C358.564 350.76 359.447 350.987 360.194 351.44C360.941 351.887 361.517 352.503 361.924 353.29C362.331 354.077 362.534 354.98 362.534 356C362.534 357.013 362.331 357.917 361.924 358.71C361.517 359.497 360.941 360.117 360.194 360.57C359.447 361.017 358.564 361.24 357.544 361.24H357.324ZM357.334 359.38H357.534C358.447 359.38 359.164 359.073 359.684 358.46C360.204 357.847 360.464 357.027 360.464 356C360.464 354.967 360.204 354.147 359.684 353.54C359.164 352.927 358.447 352.62 357.534 352.62H357.334C356.427 352.62 355.711 352.927 355.184 353.54C354.664 354.147 354.404 354.967 354.404 356C354.404 357.027 354.664 357.847 355.184 358.46C355.711 359.073 356.427 359.38 357.334 359.38ZM364.915 361V351H366.915V352.67C367.282 352.077 367.739 351.61 368.285 351.27C368.839 350.93 369.479 350.76 370.205 350.76H370.425C371.532 350.76 372.399 351.15 373.025 351.93C373.659 352.71 373.975 353.807 373.975 355.22V361H371.975V355.46C371.975 353.567 371.289 352.62 369.915 352.62H369.715C369.035 352.62 368.455 352.83 367.975 353.25C367.502 353.67 367.149 354.2 366.915 354.84V361H364.915Z" fill="#2C749E"/>
<path d="M253 324.5H401V323.5H253V324.5ZM406.5 330V376H407.5V330H406.5ZM401 381.5H253V382.5H401V381.5ZM247.5 376V330H246.5V376H247.5ZM253 381.5C249.962 381.5 247.5 379.038 247.5 376H246.5C246.5 379.59 249.41 382.5 253 382.5V381.5ZM406.5 376C406.5 379.038 404.038 381.5 401 381.5V382.5C404.59 382.5 407.5 379.59 407.5 376H406.5ZM401 324.5C404.038 324.5 406.5 326.962 406.5 330H407.5C407.5 326.41 404.59 323.5 401 323.5V324.5ZM253 323.5C249.41 323.5 246.5 326.41 246.5 330H247.5C247.5 326.962 249.962 324.5 253 324.5V323.5Z" fill="#2C749E"/>
</g>
<rect x="88" y="328" width="16" height="14" fill="white"/>
<rect x="308" y="328" width="16" height="14" fill="white"/>
<path d="M95.2929 320.707C95.6834 321.098 96.3166 321.098 96.7071 320.707L103.071 314.343C103.462 313.953 103.462 313.319 103.071 312.929C102.681 312.538 102.047 312.538 101.657 312.929L96 318.586L90.3431 312.929C89.9526 312.538 89.3195 312.538 88.9289 312.929C88.5384 313.319 88.5384 313.953 88.9289 314.343L95.2929 320.707ZM97 320V202.302H95V320H97ZM112 187.302H190V185.302H112V187.302ZM207 170.302V141H205V170.302H207ZM190 187.302C199.389 187.302 207 179.691 207 170.302H205C205 178.587 198.284 185.302 190 185.302V187.302ZM97 202.302C97 194.018 103.716 187.302 112 187.302V185.302C102.611 185.302 95 192.913 95 202.302H97Z" fill="#2C749E"/>
<path d="M316.707 320.707C316.317 321.098 315.683 321.098 315.293 320.707L308.929 314.343C308.538 313.953 308.538 313.319 308.929 312.929C309.319 312.538 309.953 312.538 310.343 312.929L316 318.586L321.657 312.929C322.047 312.538 322.681 312.538 323.071 312.929C323.462 313.319 323.462 313.953 323.071 314.343L316.707 320.707ZM315 320V202.302H317V320H315ZM300 187.302H222V185.302H300V187.302ZM205 170.302V141H207V170.302H205ZM222 187.302C212.611 187.302 205 179.691 205 170.302H207C207 178.587 213.716 185.302 222 185.302V187.302ZM315 202.302C315 194.018 308.284 187.302 300 187.302V185.302C309.389 185.302 317 192.913 317 202.302H315Z" fill="#2C749E"/>
<rect x="95" y="6" width="221" height="133" rx="6" fill="white" stroke="#2C749E" stroke-linejoin="bevel"/>
<path fill-rule="evenodd" clip-rule="evenodd" d="M95 133V135C95 138.314 97.6863 141 101 141H310C313.314 141 316 138.314 316 135V133C316 136.314 313.314 139 310 139H101C97.6863 139 95 136.314 95 133Z" fill="#2C749E"/>
<path d="M173.065 48V34H175.565L180.465 42.59L185.335 34H187.835V48H185.795V36.92L181.415 44.64H179.485L175.105 36.97V48H173.065ZM191.927 52.44C191.641 52.44 191.371 52.4167 191.117 52.37V50.57C191.331 50.6033 191.517 50.62 191.677 50.62C192.377 50.62 192.947 50.42 193.387 50.02C193.827 49.6267 194.214 49.0467 194.547 48.28C193.727 46.6333 192.957 44.9467 192.237 43.22C191.517 41.4933 190.831 39.7533 190.177 38H192.497C192.924 39.34 193.384 40.68 193.877 42.02C194.377 43.3533 194.907 44.6733 195.467 45.98L198.197 38H200.377L196.467 48.31C195.967 49.63 195.374 50.6467 194.687 51.36C194.001 52.08 193.081 52.44 191.927 52.44ZM201.582 48C202.022 46.4667 202.529 44.8833 203.102 43.25C203.675 41.6167 204.279 40.01 204.912 38.43C205.552 36.8433 206.192 35.3667 206.832 34H209.352C209.992 35.3667 210.632 36.8433 211.272 38.43C211.912 40.01 212.515 41.6167 213.082 43.25C213.655 44.8833 214.162 46.4667 214.602 48H212.312C212.159 47.4133 211.989 46.81 211.802 46.19C211.622 45.57 211.432 44.94 211.232 44.3H204.882C204.682 44.94 204.489 45.57 204.302 46.19C204.122 46.81 203.955 47.4133 203.802 48H201.582ZM205.542 42.34H210.572C210.172 41.1933 209.755 40.0667 209.322 38.96C208.895 37.8467 208.472 36.8033 208.052 35.83C207.639 36.8033 207.215 37.8467 206.782 38.96C206.355 40.0667 205.942 41.1933 205.542 42.34ZM216.814 52.2V38H218.814V39.57C219.16 38.97 219.614 38.52 220.174 38.22C220.734 37.9133 221.357 37.76 222.044 37.76H222.264C223.15 37.76 223.924 37.9867 224.584 38.44C225.25 38.8867 225.767 39.5067 226.134 40.3C226.5 41.0867 226.684 41.9867 226.684 43C226.684 44.0133 226.5 44.9167 226.134 45.71C225.767 46.4967 225.25 47.1167 224.584 47.57C223.924 48.0167 223.15 48.24 222.264 48.24H222.044C221.384 48.24 220.77 48.1 220.204 47.82C219.644 47.5333 219.18 47.11 218.814 46.55V52.2H216.814ZM221.564 46.39H221.764C222.637 46.39 223.33 46.0967 223.844 45.51C224.357 44.9233 224.614 44.0867 224.614 43C224.614 41.9133 224.357 41.0767 223.844 40.49C223.33 39.9033 222.637 39.61 221.764 39.61H221.564C220.97 39.61 220.434 39.7867 219.954 40.14C219.48 40.4933 219.1 40.9767 218.814 41.59V44.41C219.1 45.0233 219.48 45.5067 219.954 45.86C220.434 46.2133 220.97 46.39 221.564 46.39ZM229.079 52.2V38H231.079V39.57C231.426 38.97 231.879 38.52 232.439 38.22C232.999 37.9133 233.623 37.76 234.309 37.76H234.529C235.416 37.76 236.189 37.9867 236.849 38.44C237.516 38.8867 238.033 39.5067 238.399 40.3C238.766 41.0867 238.949 41.9867 238.949 43C238.949 44.0133 238.766 44.9167 238.399 45.71C238.033 46.4967 237.516 47.1167 236.849 47.57C236.189 48.0167 235.416 48.24 234.529 48.24H234.309C233.649 48.24 233.036 48.1 232.469 47.82C231.909 47.5333 231.446 47.11 231.079 46.55V52.2H229.079ZM233.829 46.39H234.029C234.903 46.39 235.596 46.0967 236.109 45.51C236.623 44.9233 236.879 44.0867 236.879 43C236.879 41.9133 236.623 41.0767 236.109 40.49C235.596 39.9033 234.903 39.61 234.029 39.61H233.829C233.236 39.61 232.699 39.7867 232.219 40.14C231.746 40.4933 231.366 40.9767 231.079 41.59V44.41C231.366 45.0233 231.746 45.5067 232.219 45.86C232.699 46.2133 233.236 46.39 233.829 46.39Z" fill="#2C749E"/>
<path d="M139 90C139 76.1929 150.193 65 164 65H226V115H164C150.193 115 139 103.807 139 90V90Z" fill="white"/>
<path d="M165.064 98.22C164.117 98.22 163.284 98.01 162.564 97.59C161.844 97.1633 161.281 96.5633 160.874 95.79C160.474 95.01 160.274 94.09 160.274 93.03C160.274 91.97 160.474 91.05 160.874 90.27C161.274 89.49 161.834 88.89 162.554 88.47C163.274 88.0433 164.111 87.83 165.064 87.83H165.264C166.037 87.83 166.754 88.02 167.414 88.4C168.074 88.78 168.611 89.2967 169.024 89.95L167.814 90.82C167.507 90.3467 167.137 89.9767 166.704 89.71C166.271 89.4367 165.777 89.3 165.224 89.3H165.034C164.074 89.3 163.314 89.64 162.754 90.32C162.194 90.9933 161.914 91.8967 161.914 93.03C161.914 94.1567 162.194 95.06 162.754 95.74C163.314 96.4133 164.074 96.75 165.034 96.75H165.224C165.784 96.75 166.284 96.63 166.724 96.39C167.171 96.15 167.554 95.8267 167.874 95.42L169.024 96.36C168.597 96.94 168.057 97.3967 167.404 97.73C166.751 98.0567 166.037 98.22 165.264 98.22H165.064ZM175.74 98.22C174.746 98.22 173.886 97.9967 173.16 97.55C172.433 97.1033 171.87 96.49 171.47 95.71C171.076 94.93 170.88 94.0367 170.88 93.03C170.88 92.0167 171.076 91.12 171.47 90.34C171.87 89.56 172.433 88.9467 173.16 88.5C173.886 88.0533 174.746 87.83 175.74 87.83H175.94C176.933 87.83 177.793 88.0533 178.52 88.5C179.246 88.9467 179.806 89.56 180.2 90.34C180.6 91.12 180.8 92.0167 180.8 93.03C180.8 94.0367 180.6 94.93 180.2 95.71C179.806 96.49 179.246 97.1033 178.52 97.55C177.793 97.9967 176.933 98.22 175.94 98.22H175.74ZM175.75 96.76H175.93C176.923 96.76 177.71 96.42 178.29 95.74C178.87 95.06 179.16 94.1567 179.16 93.03C179.16 91.8967 178.87 90.9933 178.29 90.32C177.71 89.64 176.923 89.3 175.93 89.3H175.75C174.756 89.3 173.97 89.64 173.39 90.32C172.81 90.9933 172.52 91.8967 172.52 93.03C172.52 94.1567 172.81 95.06 173.39 95.74C173.97 96.42 174.756 96.76 175.75 96.76ZM186.812 98.22C185.659 98.22 184.779 97.8433 184.172 97.09C183.566 96.3367 183.262 95.2667 183.262 93.88V88.05H184.842V93.65C184.842 94.6767 185.032 95.4533 185.412 95.98C185.799 96.5 186.396 96.76 187.202 96.76H187.382C188.122 96.76 188.756 96.52 189.282 96.04C189.809 95.5533 190.196 94.9467 190.442 94.22V88.05H192.022V98H190.442V96.11C190.076 96.7633 189.602 97.28 189.022 97.66C188.442 98.0333 187.772 98.22 187.012 98.22H186.812ZM195.219 98V88.05H196.799V89.94C197.166 89.2867 197.639 88.7733 198.219 88.4C198.799 88.02 199.469 87.83 200.229 87.83H200.429C201.556 87.83 202.429 88.2067 203.049 88.96C203.669 89.7067 203.979 90.7767 203.979 92.17V98H202.399V92.4C202.399 91.3733 202.209 90.6 201.829 90.08C201.449 89.56 200.852 89.3 200.039 89.3H199.849C199.109 89.3 198.476 89.54 197.949 90.02C197.429 90.5 197.046 91.1033 196.799 91.83V98H195.219ZM211.316 98.12C210.209 98.12 209.356 97.8433 208.756 97.29C208.156 96.7367 207.856 95.8567 207.856 94.65V89.42H205.896V88.05H207.856V85.02H209.436V88.05H212.956V89.42H209.436V94.43C209.436 95.2633 209.616 95.8467 209.976 96.18C210.343 96.5067 210.863 96.67 211.536 96.67C211.829 96.67 212.096 96.6567 212.336 96.63C212.576 96.5967 212.826 96.5533 213.086 96.5V97.89C212.813 97.9567 212.523 98.01 212.216 98.05C211.909 98.0967 211.609 98.12 211.316 98.12Z" fill="#606BD6"/>
<path d="M139 90C139 76.1929 150.193 65 164 65H226V115H164C150.193 115 139 103.807 139 90V90Z" stroke="#606BD6" stroke-linejoin="bevel"/>
<path d="M226 65H247C260.807 65 272 76.1929 272 90V90C272 103.807 260.807 115 247 115H226V65Z" fill="white"/>
<path d="M244.872 98.22C243.745 98.22 242.779 97.93 241.972 97.35C241.165 96.77 240.545 95.94 240.112 94.86C239.685 93.78 239.472 92.4933 239.472 91C239.472 89.5067 239.685 88.22 240.112 87.14C240.545 86.06 241.165 85.23 241.972 84.65C242.779 84.07 243.745 83.78 244.872 83.78H245.122C246.249 83.78 247.212 84.07 248.012 84.65C248.819 85.23 249.435 86.06 249.862 87.14C250.295 88.22 250.512 89.5067 250.512 91C250.512 92.4933 250.295 93.78 249.862 94.86C249.435 95.94 248.819 96.77 248.012 97.35C247.212 97.93 246.249 98.22 245.122 98.22H244.872ZM244.882 96.69H245.112C246.272 96.69 247.175 96.2133 247.822 95.26C248.475 94.3 248.802 92.88 248.802 91C248.802 89.12 248.475 87.7033 247.822 86.75C247.175 85.79 246.272 85.31 245.112 85.31H244.882C243.722 85.31 242.815 85.79 242.162 86.75C241.509 87.7033 241.182 89.12 241.182 91C241.182 92.88 241.509 94.3 242.162 95.26C242.815 96.2133 243.722 96.69 244.882 96.69Z" fill="#606BD6"/>
<path d="M226 65H247C260.807 65 272 76.1929 272 90V90C272 103.807 260.807 115 247 115H226V65Z" stroke="#606BD6" stroke-linejoin="bevel"/>
<path d="M30 257C30 243.193 41.1929 232 55 232H117V282H55C41.1929 282 30 270.807 30 257V257Z" fill="#606BD6"/>
<path d="M56.0641 265.22C55.1175 265.22 54.2841 265.01 53.5641 264.59C52.8441 264.163 52.2808 263.563 51.8741 262.79C51.4741 262.01 51.2741 261.09 51.2741 260.03C51.2741 258.97 51.4741 258.05 51.8741 257.27C52.2741 256.49 52.8341 255.89 53.5541 255.47C54.2741 255.043 55.1108 254.83 56.0641 254.83H56.2641C57.0375 254.83 57.7541 255.02 58.4141 255.4C59.0741 255.78 59.6108 256.297 60.0241 256.95L58.8141 257.82C58.5075 257.347 58.1375 256.977 57.7041 256.71C57.2708 256.437 56.7775 256.3 56.2241 256.3H56.0341C55.0741 256.3 54.3141 256.64 53.7541 257.32C53.1941 257.993 52.9141 258.897 52.9141 260.03C52.9141 261.157 53.1941 262.06 53.7541 262.74C54.3141 263.413 55.0741 263.75 56.0341 263.75H56.2241C56.7841 263.75 57.2841 263.63 57.7241 263.39C58.1708 263.15 58.5541 262.827 58.8741 262.42L60.0241 263.36C59.5975 263.94 59.0575 264.397 58.4041 264.73C57.7508 265.057 57.0375 265.22 56.2641 265.22H56.0641ZM66.7396 265.22C65.7463 265.22 64.8863 264.997 64.1596 264.55C63.4329 264.103 62.8696 263.49 62.4696 262.71C62.0763 261.93 61.8796 261.037 61.8796 260.03C61.8796 259.017 62.0763 258.12 62.4696 257.34C62.8696 256.56 63.4329 255.947 64.1596 255.5C64.8863 255.053 65.7463 254.83 66.7396 254.83H66.9396C67.9329 254.83 68.7929 255.053 69.5196 255.5C70.2463 255.947 70.8063 256.56 71.1996 257.34C71.5996 258.12 71.7996 259.017 71.7996 260.03C71.7996 261.037 71.5996 261.93 71.1996 262.71C70.8063 263.49 70.2463 264.103 69.5196 264.55C68.7929 264.997 67.9329 265.22 66.9396 265.22H66.7396ZM66.7496 263.76H66.9296C67.9229 263.76 68.7096 263.42 69.2896 262.74C69.8696 262.06 70.1596 261.157 70.1596 260.03C70.1596 258.897 69.8696 257.993 69.2896 257.32C68.7096 256.64 67.9229 256.3 66.9296 256.3H66.7496C65.7563 256.3 64.9696 256.64 64.3896 257.32C63.8096 257.993 63.5196 258.897 63.5196 260.03C63.5196 261.157 63.8096 262.06 64.3896 262.74C64.9696 263.42 65.7563 263.76 66.7496 263.76ZM77.8123 265.22C76.6589 265.22 75.7789 264.843 75.1723 264.09C74.5656 263.337 74.2623 262.267 74.2623 260.88V255.05H75.8423V260.65C75.8423 261.677 76.0323 262.453 76.4123 262.98C76.7989 263.5 77.3956 263.76 78.2023 263.76H78.3823C79.1223 263.76 79.7556 263.52 80.2823 263.04C80.8089 262.553 81.1956 261.947 81.4423 261.22V255.05H83.0223V265H81.4423V263.11C81.0756 263.763 80.6023 264.28 80.0223 264.66C79.4423 265.033 78.7723 265.22 78.0123 265.22H77.8123ZM86.2191 265V255.05H87.7991V256.94C88.1658 256.287 88.6391 255.773 89.2191 255.4C89.7991 255.02 90.4691 254.83 91.2291 254.83H91.4291C92.5558 254.83 93.4291 255.207 94.0491 255.96C94.6691 256.707 94.9791 257.777 94.9791 259.17V265H93.3991V259.4C93.3991 258.373 93.2091 257.6 92.8291 257.08C92.4491 256.56 91.8525 256.3 91.0391 256.3H90.8491C90.1091 256.3 89.4758 256.54 88.9491 257.02C88.4291 257.5 88.0458 258.103 87.7991 258.83V265H86.2191ZM102.316 265.12C101.209 265.12 100.356 264.843 99.756 264.29C99.156 263.737 98.856 262.857 98.856 261.65V256.42H96.896V255.05H98.856V252.02H100.436V255.05H103.956V256.42H100.436V261.43C100.436 262.263 100.616 262.847 100.976 263.18C101.343 263.507 101.863 263.67 102.536 263.67C102.829 263.67 103.096 263.657 103.336 263.63C103.576 263.597 103.826 263.553 104.086 263.5V264.89C103.813 264.957 103.523 265.01 103.216 265.05C102.909 265.097 102.609 265.12 102.316 265.12Z" fill="white"/>
<path d="M30 257C30 243.193 41.1929 232 55 232H117V282H55C41.1929 282 30 270.807 30 257V257Z" stroke="white" stroke-linejoin="bevel"/>
<path d="M117 232H138C151.807 232 163 243.193 163 257V257C163 270.807 151.807 282 138 282H117V232Z" fill="#606BD6"/>
<path d="M135.872 265.22C134.745 265.22 133.779 264.93 132.972 264.35C132.165 263.77 131.545 262.94 131.112 261.86C130.685 260.78 130.472 259.493 130.472 258C130.472 256.507 130.685 255.22 131.112 254.14C131.545 253.06 132.165 252.23 132.972 251.65C133.779 251.07 134.745 250.78 135.872 250.78H136.122C137.249 250.78 138.212 251.07 139.012 251.65C139.819 252.23 140.435 253.06 140.862 254.14C141.295 255.22 141.512 256.507 141.512 258C141.512 259.493 141.295 260.78 140.862 261.86C140.435 262.94 139.819 263.77 139.012 264.35C138.212 264.93 137.249 265.22 136.122 265.22H135.872ZM135.882 263.69H136.112C137.272 263.69 138.175 263.213 138.822 262.26C139.475 261.3 139.802 259.88 139.802 258C139.802 256.12 139.475 254.703 138.822 253.75C138.175 252.79 137.272 252.31 136.112 252.31H135.882C134.722 252.31 133.815 252.79 133.162 253.75C132.509 254.703 132.182 256.12 132.182 258C132.182 259.88 132.509 261.3 133.162 262.26C133.815 263.213 134.722 263.69 135.882 263.69Z" fill="white"/>
<path d="M117 232H138C151.807 232 163 243.193 163 257V257C163 270.807 151.807 282 138 282H117V232Z" stroke="white" stroke-linejoin="bevel"/>
<path d="M249 257C249 243.193 260.193 232 274 232H336V282H274C260.193 282 249 270.807 249 257V257Z" fill="#606BD6"/>
<path d="M275.064 265.22C274.117 265.22 273.284 265.01 272.564 264.59C271.844 264.163 271.281 263.563 270.874 262.79C270.474 262.01 270.274 261.09 270.274 260.03C270.274 258.97 270.474 258.05 270.874 257.27C271.274 256.49 271.834 255.89 272.554 255.47C273.274 255.043 274.111 254.83 275.064 254.83H275.264C276.037 254.83 276.754 255.02 277.414 255.4C278.074 255.78 278.611 256.297 279.024 256.95L277.814 257.82C277.507 257.347 277.137 256.977 276.704 256.71C276.271 256.437 275.777 256.3 275.224 256.3H275.034C274.074 256.3 273.314 256.64 272.754 257.32C272.194 257.993 271.914 258.897 271.914 260.03C271.914 261.157 272.194 262.06 272.754 262.74C273.314 263.413 274.074 263.75 275.034 263.75H275.224C275.784 263.75 276.284 263.63 276.724 263.39C277.171 263.15 277.554 262.827 277.874 262.42L279.024 263.36C278.597 263.94 278.057 264.397 277.404 264.73C276.751 265.057 276.037 265.22 275.264 265.22H275.064ZM285.74 265.22C284.746 265.22 283.886 264.997 283.16 264.55C282.433 264.103 281.87 263.49 281.47 262.71C281.076 261.93 280.88 261.037 280.88 260.03C280.88 259.017 281.076 258.12 281.47 257.34C281.87 256.56 282.433 255.947 283.16 255.5C283.886 255.053 284.746 254.83 285.74 254.83H285.94C286.933 254.83 287.793 255.053 288.52 255.5C289.246 255.947 289.806 256.56 290.2 257.34C290.6 258.12 290.8 259.017 290.8 260.03C290.8 261.037 290.6 261.93 290.2 262.71C289.806 263.49 289.246 264.103 288.52 264.55C287.793 264.997 286.933 265.22 285.94 265.22H285.74ZM285.75 263.76H285.93C286.923 263.76 287.71 263.42 288.29 262.74C288.87 262.06 289.16 261.157 289.16 260.03C289.16 258.897 288.87 257.993 288.29 257.32C287.71 256.64 286.923 256.3 285.93 256.3H285.75C284.756 256.3 283.97 256.64 283.39 257.32C282.81 257.993 282.52 258.897 282.52 260.03C282.52 261.157 282.81 262.06 283.39 262.74C283.97 263.42 284.756 263.76 285.75 263.76ZM296.812 265.22C295.659 265.22 294.779 264.843 294.172 264.09C293.566 263.337 293.262 262.267 293.262 260.88V255.05H294.842V260.65C294.842 261.677 295.032 262.453 295.412 262.98C295.799 263.5 296.396 263.76 297.202 263.76H297.382C298.122 263.76 298.756 263.52 299.282 263.04C299.809 262.553 300.196 261.947 300.442 261.22V255.05H302.022V265H300.442V263.11C300.076 263.763 299.602 264.28 299.022 264.66C298.442 265.033 297.772 265.22 297.012 265.22H296.812ZM305.219 265V255.05H306.799V256.94C307.166 256.287 307.639 255.773 308.219 255.4C308.799 255.02 309.469 254.83 310.229 254.83H310.429C311.556 254.83 312.429 255.207 313.049 255.96C313.669 256.707 313.979 257.777 313.979 259.17V265H312.399V259.4C312.399 258.373 312.209 257.6 311.829 257.08C311.449 256.56 310.852 256.3 310.039 256.3H309.849C309.109 256.3 308.476 256.54 307.949 257.02C307.429 257.5 307.046 258.103 306.799 258.83V265H305.219ZM321.316 265.12C320.209 265.12 319.356 264.843 318.756 264.29C318.156 263.737 317.856 262.857 317.856 261.65V256.42H315.896V255.05H317.856V252.02H319.436V255.05H322.956V256.42H319.436V261.43C319.436 262.263 319.616 262.847 319.976 263.18C320.343 263.507 320.863 263.67 321.536 263.67C321.829 263.67 322.096 263.657 322.336 263.63C322.576 263.597 322.826 263.553 323.086 263.5V264.89C322.813 264.957 322.523 265.01 322.216 265.05C321.909 265.097 321.609 265.12 321.316 265.12Z" fill="white"/>
<path d="M249 257C249 243.193 260.193 232 274 232H336V282H274C260.193 282 249 270.807 249 257V257Z" stroke="white" stroke-linejoin="bevel"/>
<path d="M336 232H357C370.807 232 382 243.193 382 257V257C382 270.807 370.807 282 357 282H336V232Z" fill="#606BD6"/>
<path d="M354.872 265.22C353.745 265.22 352.779 264.93 351.972 264.35C351.165 263.77 350.545 262.94 350.112 261.86C349.685 260.78 349.472 259.493 349.472 258C349.472 256.507 349.685 255.22 350.112 254.14C350.545 253.06 351.165 252.23 351.972 251.65C352.779 251.07 353.745 250.78 354.872 250.78H355.122C356.249 250.78 357.212 251.07 358.012 251.65C358.819 252.23 359.435 253.06 359.862 254.14C360.295 255.22 360.512 256.507 360.512 258C360.512 259.493 360.295 260.78 359.862 261.86C359.435 262.94 358.819 263.77 358.012 264.35C357.212 264.93 356.249 265.22 355.122 265.22H354.872ZM354.882 263.69H355.112C356.272 263.69 357.175 263.213 357.822 262.26C358.475 261.3 358.802 259.88 358.802 258C358.802 256.12 358.475 254.703 357.822 253.75C357.175 252.79 356.272 252.31 355.112 252.31H354.882C353.722 252.31 352.815 252.79 352.162 253.75C351.509 254.703 351.182 256.12 351.182 258C351.182 259.88 351.509 261.3 352.162 262.26C352.815 263.213 353.722 263.69 354.882 263.69Z" fill="white"/>
<path d="M336 232H357C370.807 232 382 243.193 382 257V257C382 270.807 370.807 282 357 282H336V232Z" stroke="white" stroke-linejoin="bevel"/>
<defs>
<filter id="filter0_d_426_4901" x="3.5" y="323.5" width="161" height="61" filterUnits="userSpaceOnUse" color-interpolation-filters="sRGB">
<feFlood flood-opacity="0" result="BackgroundImageFix"/>
<feColorMatrix in="SourceAlpha" type="matrix" values="0 0 0 0 0 0 0 0 0 0 0 0 0 0 0 0 0 0 127 0" result="hardAlpha"/>
<feOffset dy="2"/>
<feComposite in2="hardAlpha" operator="out"/>
<feColorMatrix type="matrix" values="0 0 0 0 0.235294 0 0 0 0 0.435294 0 0 0 0 0.635294 0 0 0 1 0"/>
<feBlend mode="normal" in2="BackgroundImageFix" result="effect1_dropShadow_426_4901"/>
<feBlend mode="normal" in="SourceGraphic" in2="effect1_dropShadow_426_4901" result="shape"/>
</filter>
<filter id="filter1_d_426_4901" x="246.5" y="323.5" width="161" height="61" filterUnits="userSpaceOnUse" color-interpolation-filters="sRGB">
<feFlood flood-opacity="0" result="BackgroundImageFix"/>
<feColorMatrix in="SourceAlpha" type="matrix" values="0 0 0 0 0 0 0 0 0 0 0 0 0 0 0 0 0 0 127 0" result="hardAlpha"/>
<feOffset dy="2"/>
<feComposite in2="hardAlpha" operator="out"/>
<feColorMatrix type="matrix" values="0 0 0 0 0.235294 0 0 0 0 0.435294 0 0 0 0 0.635294 0 0 0 1 0"/>
<feBlend mode="normal" in2="BackgroundImageFix" result="effect1_dropShadow_426_4901"/>
<feBlend mode="normal" in="SourceGraphic" in2="effect1_dropShadow_426_4901" result="shape"/>
</filter>
</defs>
</svg>
