<svg width="478" height="368" viewBox="0 0 478 368" fill="none" xmlns="http://www.w3.org/2000/svg">
<g filter="url(#filter0_d_620_6291)">
<path d="M126.832 7C126.832 3.68629 129.518 1 132.832 1H336.832C340.146 1 342.832 3.68629 342.832 7V100C342.832 103.314 340.146 106 336.832 106H132.832C129.518 106 126.832 103.314 126.832 100V7Z" fill="white"/>
<path d="M187.545 61.5C187.985 59.9667 188.492 58.3833 189.065 56.75C189.638 55.1167 190.242 53.51 190.875 51.93C191.515 50.3433 192.155 48.8667 192.795 47.5H195.315C195.955 48.8667 196.595 50.3433 197.235 51.93C197.875 53.51 198.478 55.1167 199.045 56.75C199.618 58.3833 200.125 59.9667 200.565 61.5H198.275C198.122 60.9133 197.952 60.31 197.765 59.69C197.585 59.07 197.395 58.44 197.195 57.8H190.845C190.645 58.44 190.452 59.07 190.265 59.69C190.085 60.31 189.918 60.9133 189.765 61.5H187.545ZM191.505 55.84H196.535C196.135 54.6933 195.718 53.5667 195.285 52.46C194.858 51.3467 194.435 50.3033 194.015 49.33C193.602 50.3033 193.178 51.3467 192.745 52.46C192.318 53.5667 191.905 54.6933 191.505 55.84ZM206.746 61.74C205.786 61.74 204.936 61.53 204.196 61.11C203.456 60.69 202.876 60.09 202.456 59.31C202.043 58.5233 201.836 57.59 201.836 56.51C201.836 55.4233 202.043 54.49 202.456 53.71C202.869 52.9233 203.443 52.32 204.176 51.9C204.916 51.4733 205.773 51.26 206.746 51.26H206.966C207.739 51.26 208.469 51.46 209.156 51.86C209.849 52.2533 210.409 52.7967 210.836 53.49L209.286 54.57C208.999 54.1167 208.656 53.7633 208.256 53.51C207.856 53.25 207.403 53.12 206.896 53.12H206.696C205.829 53.12 205.146 53.4267 204.646 54.04C204.153 54.6467 203.906 55.4667 203.906 56.5C203.906 57.5267 204.153 58.3467 204.646 58.96C205.146 59.5733 205.829 59.88 206.696 59.88H206.896C207.403 59.88 207.869 59.7667 208.296 59.54C208.723 59.3133 209.089 59.01 209.396 58.63L210.836 59.85C210.389 60.4367 209.826 60.9 209.146 61.24C208.473 61.5733 207.746 61.74 206.966 61.74H206.746ZM217.391 61.74C216.431 61.74 215.581 61.53 214.841 61.11C214.101 60.69 213.521 60.09 213.101 59.31C212.687 58.5233 212.481 57.59 212.481 56.51C212.481 55.4233 212.687 54.49 213.101 53.71C213.514 52.9233 214.087 52.32 214.821 51.9C215.561 51.4733 216.417 51.26 217.391 51.26H217.611C218.384 51.26 219.114 51.46 219.801 51.86C220.494 52.2533 221.054 52.7967 221.481 53.49L219.931 54.57C219.644 54.1167 219.301 53.7633 218.901 53.51C218.501 53.25 218.047 53.12 217.541 53.12H217.341C216.474 53.12 215.791 53.4267 215.291 54.04C214.797 54.6467 214.551 55.4667 214.551 56.5C214.551 57.5267 214.797 58.3467 215.291 58.96C215.791 59.5733 216.474 59.88 217.341 59.88H217.541C218.047 59.88 218.514 59.7667 218.941 59.54C219.367 59.3133 219.734 59.01 220.041 58.63L221.481 59.85C221.034 60.4367 220.471 60.9 219.791 61.24C219.117 61.5733 218.391 61.74 217.611 61.74H217.391ZM228.115 61.74C227.102 61.74 226.218 61.5167 225.465 61.07C224.718 60.6167 224.142 59.9967 223.735 59.21C223.328 58.4167 223.125 57.5133 223.125 56.5C223.125 55.48 223.328 54.5767 223.735 53.79C224.142 53.0033 224.718 52.3867 225.465 51.94C226.218 51.4867 227.102 51.26 228.115 51.26H228.335C229.355 51.26 230.238 51.4867 230.985 51.94C231.732 52.3867 232.308 53.0033 232.715 53.79C233.122 54.5767 233.325 55.48 233.325 56.5C233.325 57.5133 233.122 58.4167 232.715 59.21C232.308 59.9967 231.732 60.6167 230.985 61.07C230.238 61.5167 229.355 61.74 228.335 61.74H228.115ZM228.125 59.88H228.325C229.238 59.88 229.955 59.5733 230.475 58.96C230.995 58.3467 231.255 57.5267 231.255 56.5C231.255 55.4667 230.995 54.6467 230.475 54.04C229.955 53.4267 229.238 53.12 228.325 53.12H228.125C227.218 53.12 226.502 53.4267 225.975 54.04C225.455 54.6467 225.195 55.4667 225.195 56.5C225.195 57.5267 225.455 58.3467 225.975 58.96C226.502 59.5733 227.218 59.88 228.125 59.88ZM235.706 61.5V51.5H237.706V53.02C238.373 51.8467 239.29 51.26 240.456 51.26C240.776 51.26 241.066 51.2867 241.326 51.34V53.36C241.166 53.34 240.993 53.3233 240.806 53.31C240.626 53.2967 240.45 53.29 240.276 53.29C239.616 53.29 239.076 53.48 238.656 53.86C238.236 54.24 237.92 54.76 237.706 55.42V61.5H235.706ZM247.135 61.74C246.248 61.74 245.472 61.5167 244.805 61.07C244.145 60.6167 243.632 59.9967 243.265 59.21C242.898 58.4167 242.715 57.5133 242.715 56.5C242.715 55.4867 242.898 54.5867 243.265 53.8C243.632 53.0067 244.145 52.3867 244.805 51.94C245.472 51.4867 246.248 51.26 247.135 51.26H247.355C248.015 51.26 248.625 51.4033 249.185 51.69C249.752 51.97 250.218 52.39 250.585 52.95V46.9H252.585V61.5H250.585V59.93C250.238 60.53 249.785 60.9833 249.225 61.29C248.665 61.59 248.042 61.74 247.355 61.74H247.135ZM247.635 59.89H247.835C248.428 59.89 248.962 59.7133 249.435 59.36C249.915 59.0067 250.298 58.5233 250.585 57.91V55.09C250.298 54.4767 249.915 53.9933 249.435 53.64C248.962 53.2867 248.428 53.11 247.835 53.11H247.635C246.762 53.11 246.068 53.4033 245.555 53.99C245.042 54.5767 244.785 55.4133 244.785 56.5C244.785 57.5867 245.042 58.4233 245.555 59.01C246.068 59.5967 246.762 59.89 247.635 59.89ZM256.531 49.72C256.124 49.72 255.801 49.5967 255.561 49.35C255.327 49.0967 255.211 48.7767 255.211 48.39C255.211 47.9967 255.327 47.6767 255.561 47.43C255.801 47.1833 256.124 47.06 256.531 47.06C256.944 47.06 257.267 47.1833 257.501 47.43C257.734 47.6767 257.851 47.9967 257.851 48.39C257.851 48.7767 257.734 49.0967 257.501 49.35C257.267 49.5967 256.944 49.72 256.531 49.72ZM255.531 61.5V51.5H257.531V61.5H255.531ZM264.912 61.74C263.899 61.74 263.015 61.5167 262.262 61.07C261.515 60.6167 260.939 59.9967 260.532 59.21C260.125 58.4167 259.922 57.5133 259.922 56.5C259.922 55.48 260.125 54.5767 260.532 53.79C260.939 53.0033 261.515 52.3867 262.262 51.94C263.015 51.4867 263.899 51.26 264.912 51.26H265.132C266.152 51.26 267.035 51.4867 267.782 51.94C268.529 52.3867 269.105 53.0033 269.512 53.79C269.919 54.5767 270.122 55.48 270.122 56.5C270.122 57.5133 269.919 58.4167 269.512 59.21C269.105 59.9967 268.529 60.6167 267.782 61.07C267.035 61.5167 266.152 61.74 265.132 61.74H264.912ZM264.922 59.88H265.122C266.035 59.88 266.752 59.5733 267.272 58.96C267.792 58.3467 268.052 57.5267 268.052 56.5C268.052 55.4667 267.792 54.6467 267.272 54.04C266.752 53.4267 266.035 53.12 265.122 53.12H264.922C264.015 53.12 263.299 53.4267 262.772 54.04C262.252 54.6467 261.992 55.4667 261.992 56.5C261.992 57.5267 262.252 58.3467 262.772 58.96C263.299 59.5733 264.015 59.88 264.922 59.88ZM272.503 61.5V51.5H274.503V53.17C274.87 52.5767 275.327 52.11 275.873 51.77C276.427 51.43 277.067 51.26 277.793 51.26H278.013C279.12 51.26 279.987 51.65 280.613 52.43C281.247 53.21 281.563 54.3067 281.563 55.72V61.5H279.563V55.96C279.563 54.0667 278.877 53.12 277.503 53.12H277.303C276.623 53.12 276.043 53.33 275.563 53.75C275.09 54.17 274.737 54.7 274.503 55.34V61.5H272.503Z" fill="#2C749E"/>
<path d="M132.832 1.5H336.832V0.5H132.832V1.5ZM342.332 7V100H343.332V7H342.332ZM336.832 105.5H132.832V106.5H336.832V105.5ZM127.332 100V7H126.332V100H127.332ZM132.832 105.5C129.794 105.5 127.332 103.038 127.332 100H126.332C126.332 103.59 129.242 106.5 132.832 106.5V105.5ZM342.332 100C342.332 103.038 339.87 105.5 336.832 105.5V106.5C340.422 106.5 343.332 103.59 343.332 100H342.332ZM336.832 1.5C339.87 1.5 342.332 3.96243 342.332 7H343.332C343.332 3.41015 340.422 0.5 336.832 0.5V1.5ZM132.832 0.5C129.242 0.5 126.332 3.41015 126.332 7H127.332C127.332 3.96243 129.794 1.5 132.832 1.5V0.5Z" fill="#2C749E"/>
</g>
<g filter="url(#filter1_d_620_6291)">
<path d="M1 241C1 237.686 3.68629 235 7 235H215C218.314 235 221 237.686 221 241V359C221 362.314 218.314 365 215 365H6.99999C3.68629 365 1 362.314 1 359V241Z" fill="white"/>
<path d="M86.6509 276V262H92.5109C94.2643 262 95.5743 262.42 96.4409 263.26C97.3076 264.093 97.7409 265.227 97.7409 266.66C97.7409 268.087 97.3076 269.22 96.4409 270.06C95.5743 270.9 94.2643 271.32 92.5109 271.32H88.7509V276H86.6509ZM92.3109 263.96H88.7509V269.36H92.3109C93.4509 269.36 94.2809 269.137 94.8009 268.69C95.3276 268.237 95.5909 267.56 95.5909 266.66C95.5909 265.76 95.3276 265.087 94.8009 264.64C94.2809 264.187 93.4509 263.96 92.3109 263.96ZM102.475 276.2C101.422 276.2 100.602 275.93 100.015 275.39C99.4352 274.843 99.1452 274.127 99.1452 273.24C99.1452 272.36 99.4718 271.623 100.125 271.03C100.785 270.437 101.835 270.14 103.275 270.14H105.995V270.11C105.995 268.43 105.222 267.59 103.675 267.59C103.028 267.59 102.482 267.707 102.035 267.94C101.595 268.173 101.238 268.5 100.965 268.92L99.5952 267.81C100.022 267.15 100.582 266.643 101.275 266.29C101.975 265.937 102.768 265.76 103.655 265.76H103.875C105.102 265.76 106.088 266.113 106.835 266.82C107.582 267.527 107.955 268.583 107.955 269.99V276H106.035V274.37C105.648 274.957 105.152 275.41 104.545 275.73C103.938 276.043 103.248 276.2 102.475 276.2ZM102.915 274.42C103.688 274.42 104.332 274.247 104.845 273.9C105.358 273.547 105.742 273.07 105.995 272.47V271.71H103.355C102.568 271.71 102.005 271.837 101.665 272.09C101.332 272.337 101.165 272.673 101.165 273.1C101.165 273.98 101.748 274.42 102.915 274.42ZM110.732 276V266H112.732V267.67C113.098 267.077 113.555 266.61 114.102 266.27C114.655 265.93 115.295 265.76 116.022 265.76H116.242C117.348 265.76 118.215 266.15 118.842 266.93C119.475 267.71 119.792 268.807 119.792 270.22V276H117.792V270.46C117.792 268.567 117.105 267.62 115.732 267.62H115.532C114.852 267.62 114.272 267.83 113.792 268.25C113.318 268.67 112.965 269.2 112.732 269.84V276H110.732ZM126.838 276.24C125.878 276.24 125.034 276.02 124.308 275.58C123.588 275.14 123.024 274.527 122.618 273.74C122.218 272.953 122.018 272.043 122.018 271.01C122.018 269.977 122.218 269.067 122.618 268.28C123.024 267.487 123.588 266.87 124.308 266.43C125.034 265.983 125.878 265.76 126.838 265.76H127.058C127.931 265.76 128.698 265.977 129.358 266.41C130.024 266.837 130.544 267.457 130.918 268.27C131.291 269.077 131.478 270.05 131.478 271.19V271.8H124.088C124.208 272.62 124.514 273.267 125.008 273.74C125.508 274.207 126.158 274.44 126.958 274.44H127.158C127.638 274.44 128.098 274.343 128.538 274.15C128.978 273.95 129.348 273.683 129.648 273.35L130.878 274.65C130.424 275.137 129.864 275.523 129.198 275.81C128.538 276.097 127.824 276.24 127.058 276.24H126.838ZM126.778 267.56C126.064 267.56 125.468 267.797 124.988 268.27C124.514 268.737 124.214 269.377 124.088 270.19H129.468C129.408 269.45 129.164 268.827 128.738 268.32C128.318 267.813 127.731 267.56 126.978 267.56H126.778ZM133.818 276V261.4H135.818V276H133.818Z" fill="#2C749E"/>
<path d="M19 320C19 306.193 30.1929 295 44 295H126V345H44C30.1929 345 19 333.807 19 320V320Z" fill="white"/>
<path d="M41.7123 315.96C41.3723 315.96 41.1023 315.857 40.9023 315.65C40.7023 315.443 40.6023 315.177 40.6023 314.85C40.6023 314.523 40.7023 314.257 40.9023 314.05C41.1023 313.843 41.3723 313.74 41.7123 313.74C42.0523 313.74 42.3223 313.843 42.5223 314.05C42.7223 314.257 42.8223 314.523 42.8223 314.85C42.8223 315.177 42.7223 315.443 42.5223 315.65C42.3223 315.857 42.0523 315.96 41.7123 315.96ZM40.9223 328V318.05H42.5023V328H40.9223ZM49.1974 328.22C47.2108 328.22 45.7708 327.57 44.8774 326.27L45.9774 325.31C46.6841 326.323 47.7541 326.83 49.1874 326.83H49.3674C50.1008 326.83 50.6708 326.703 51.0774 326.45C51.4908 326.19 51.6974 325.827 51.6974 325.36C51.6974 324.96 51.5574 324.64 51.2774 324.4C51.0041 324.16 50.5374 323.973 49.8774 323.84L48.0774 323.47C46.1708 323.083 45.2174 322.193 45.2174 320.8C45.2174 319.907 45.5708 319.19 46.2774 318.65C46.9908 318.103 47.9274 317.83 49.0874 317.83H49.2874C50.9808 317.83 52.2474 318.447 53.0874 319.68L51.9874 320.57C51.6541 320.097 51.2641 319.753 50.8174 319.54C50.3708 319.327 49.8541 319.22 49.2674 319.22H49.0874C48.4008 319.22 47.8441 319.35 47.4174 319.61C46.9974 319.863 46.7874 320.217 46.7874 320.67C46.7874 321.023 46.9174 321.307 47.1774 321.52C47.4374 321.727 47.8708 321.893 48.4774 322.02L50.4474 322.43C51.3341 322.617 52.0241 322.94 52.5174 323.4C53.0174 323.86 53.2674 324.487 53.2674 325.28C53.2674 326.153 52.9274 326.863 52.2474 327.41C51.5741 327.95 50.6274 328.22 49.4074 328.22H49.1974ZM55.046 328C55.4927 326.493 56.0027 324.93 56.576 323.31C57.156 321.683 57.7693 320.077 58.416 318.49C59.0693 316.903 59.7227 315.407 60.376 314H62.416C63.076 315.407 63.7293 316.903 64.376 318.49C65.0227 320.077 65.636 321.683 66.216 323.31C66.796 324.93 67.306 326.493 67.746 328H65.936C65.7627 327.36 65.5693 326.703 65.356 326.03C65.1493 325.35 64.9293 324.66 64.696 323.96H58.036C57.8027 324.66 57.5793 325.35 57.366 326.03C57.1593 326.703 56.9693 327.36 56.796 328H55.046ZM58.576 322.4H64.156C63.7227 321.187 63.266 319.983 62.786 318.79C62.3127 317.597 61.8393 316.47 61.366 315.41C60.8993 316.47 60.426 317.597 59.946 318.79C59.466 319.983 59.0093 321.187 58.576 322.4ZM74.0485 328.22C73.1018 328.22 72.2685 328.01 71.5485 327.59C70.8285 327.163 70.2652 326.563 69.8585 325.79C69.4585 325.01 69.2585 324.09 69.2585 323.03C69.2585 321.97 69.4585 321.05 69.8585 320.27C70.2585 319.49 70.8185 318.89 71.5385 318.47C72.2585 318.043 73.0952 317.83 74.0485 317.83H74.2485C75.0218 317.83 75.7385 318.02 76.3985 318.4C77.0585 318.78 77.5952 319.297 78.0085 319.95L76.7985 320.82C76.4918 320.347 76.1218 319.977 75.6885 319.71C75.2552 319.437 74.7618 319.3 74.2085 319.3H74.0185C73.0585 319.3 72.2985 319.64 71.7385 320.32C71.1785 320.993 70.8985 321.897 70.8985 323.03C70.8985 324.157 71.1785 325.06 71.7385 325.74C72.2985 326.413 73.0585 326.75 74.0185 326.75H74.2085C74.7685 326.75 75.2685 326.63 75.7085 326.39C76.1552 326.15 76.5385 325.827 76.8585 325.42L78.0085 326.36C77.5818 326.94 77.0418 327.397 76.3885 327.73C75.7352 328.057 75.0218 328.22 74.2485 328.22H74.0485ZM84.734 328.12C83.6273 328.12 82.774 327.843 82.174 327.29C81.574 326.737 81.274 325.857 81.274 324.65V319.42H79.314V318.05H81.274V315.02H82.854V318.05H86.374V319.42H82.854V324.43C82.854 325.263 83.034 325.847 83.394 326.18C83.7607 326.507 84.2807 326.67 84.954 326.67C85.2473 326.67 85.514 326.657 85.754 326.63C85.994 326.597 86.244 326.553 86.504 326.5V327.89C86.2307 327.957 85.9407 328.01 85.634 328.05C85.3273 328.097 85.0273 328.12 84.734 328.12ZM89.5638 315.96C89.2238 315.96 88.9538 315.857 88.7538 315.65C88.5538 315.443 88.4538 315.177 88.4538 314.85C88.4538 314.523 88.5538 314.257 88.7538 314.05C88.9538 313.843 89.2238 313.74 89.5638 313.74C89.9038 313.74 90.1738 313.843 90.3738 314.05C90.5738 314.257 90.6738 314.523 90.6738 314.85C90.6738 315.177 90.5738 315.443 90.3738 315.65C90.1738 315.857 89.9038 315.96 89.5638 315.96ZM88.7738 328V318.05H90.3538V328H88.7738ZM96.469 328C95.749 326.387 95.059 324.747 94.399 323.08C93.7457 321.413 93.1357 319.737 92.569 318.05H94.349C94.7957 319.497 95.2823 320.943 95.809 322.39C96.3423 323.83 96.899 325.263 97.479 326.69C98.0657 325.263 98.6223 323.83 99.149 322.39C99.6757 320.943 100.166 319.497 100.619 318.05H102.329C101.762 319.737 101.152 321.413 100.499 323.08C99.8457 324.747 99.159 326.387 98.439 328H96.469ZM108.227 328.22C107.281 328.22 106.451 328.003 105.737 327.57C105.024 327.137 104.467 326.53 104.067 325.75C103.674 324.97 103.477 324.063 103.477 323.03C103.477 322.017 103.674 321.12 104.067 320.34C104.461 319.553 105.007 318.94 105.707 318.5C106.414 318.053 107.231 317.83 108.157 317.83H108.347C109.227 317.83 109.994 318.05 110.647 318.49C111.301 318.923 111.804 319.537 112.157 320.33C112.517 321.123 112.697 322.057 112.697 323.13V323.67H105.097C105.204 324.623 105.537 325.38 106.097 325.94C106.664 326.5 107.397 326.78 108.297 326.78H108.477C109.011 326.78 109.504 326.673 109.957 326.46C110.417 326.247 110.804 325.953 111.117 325.58L112.127 326.61C111.694 327.11 111.157 327.503 110.517 327.79C109.877 328.077 109.181 328.22 108.427 328.22H108.227ZM108.127 319.26C107.301 319.26 106.617 319.54 106.077 320.1C105.537 320.66 105.214 321.413 105.107 322.36H111.107C111.061 321.48 110.794 320.743 110.307 320.15C109.827 319.557 109.161 319.26 108.307 319.26H108.127Z" fill="#606BD6"/>
<path d="M19 320C19 306.193 30.1929 295 44 295H126V345H44C30.1929 345 19 333.807 19 320V320Z" stroke="#606BD6" stroke-linejoin="bevel"/>
<path d="M126 295H178C191.807 295 203 306.193 203 320V320C203 333.807 191.807 345 178 345H126V295Z" fill="white"/>
<path d="M140.59 328V319.42H138.72V318.05H140.59V316.8C140.59 315.62 140.89 314.723 141.49 314.11C142.09 313.49 142.92 313.18 143.98 313.18C144.607 313.18 145.157 313.25 145.63 313.39V314.8C145.357 314.727 145.103 314.677 144.87 314.65C144.643 314.623 144.42 314.61 144.2 314.61C142.847 314.61 142.17 315.303 142.17 316.69V318.05H145.56V319.42H142.17V328H140.59ZM149.848 328.19C148.801 328.19 147.988 327.927 147.408 327.4C146.835 326.873 146.548 326.167 146.548 325.28C146.548 324.42 146.868 323.707 147.508 323.14C148.155 322.567 149.191 322.28 150.618 322.28H153.518V322.07C153.518 320.21 152.668 319.28 150.968 319.28C150.275 319.28 149.691 319.407 149.218 319.66C148.751 319.913 148.375 320.273 148.088 320.74L146.978 319.9C147.378 319.233 147.915 318.723 148.588 318.37C149.268 318.01 150.051 317.83 150.938 317.83H151.138C152.345 317.83 153.301 318.18 154.008 318.88C154.715 319.573 155.068 320.6 155.068 321.96V328H153.538V326.15C153.158 326.797 152.655 327.3 152.028 327.66C151.401 328.013 150.675 328.19 149.848 328.19ZM150.148 326.78C151.001 326.78 151.708 326.573 152.268 326.16C152.828 325.74 153.245 325.173 153.518 324.46V323.54H150.688C149.761 323.54 149.105 323.687 148.718 323.98C148.338 324.273 148.148 324.673 148.148 325.18C148.148 325.687 148.315 326.08 148.648 326.36C148.981 326.64 149.481 326.78 150.148 326.78ZM158.116 328V313.4H159.696V328H158.116ZM166.391 328.22C164.404 328.22 162.964 327.57 162.071 326.27L163.171 325.31C163.877 326.323 164.947 326.83 166.381 326.83H166.561C167.294 326.83 167.864 326.703 168.271 326.45C168.684 326.19 168.891 325.827 168.891 325.36C168.891 324.96 168.751 324.64 168.471 324.4C168.197 324.16 167.731 323.973 167.071 323.84L165.271 323.47C163.364 323.083 162.411 322.193 162.411 320.8C162.411 319.907 162.764 319.19 163.471 318.65C164.184 318.103 165.121 317.83 166.281 317.83H166.481C168.174 317.83 169.441 318.447 170.281 319.68L169.181 320.57C168.847 320.097 168.457 319.753 168.011 319.54C167.564 319.327 167.047 319.22 166.461 319.22H166.281C165.594 319.22 165.037 319.35 164.611 319.61C164.191 319.863 163.981 320.217 163.981 320.67C163.981 321.023 164.111 321.307 164.371 321.52C164.631 321.727 165.064 321.893 165.671 322.02L167.641 322.43C168.527 322.617 169.217 322.94 169.711 323.4C170.211 323.86 170.461 324.487 170.461 325.28C170.461 326.153 170.121 326.863 169.441 327.41C168.767 327.95 167.821 328.22 166.601 328.22H166.391ZM177.139 328.22C176.193 328.22 175.363 328.003 174.649 327.57C173.936 327.137 173.379 326.53 172.979 325.75C172.586 324.97 172.389 324.063 172.389 323.03C172.389 322.017 172.586 321.12 172.979 320.34C173.373 319.553 173.919 318.94 174.619 318.5C175.326 318.053 176.143 317.83 177.069 317.83H177.259C178.139 317.83 178.906 318.05 179.559 318.49C180.213 318.923 180.716 319.537 181.069 320.33C181.429 321.123 181.609 322.057 181.609 323.13V323.67H174.009C174.116 324.623 174.449 325.38 175.009 325.94C175.576 326.5 176.309 326.78 177.209 326.78H177.389C177.923 326.78 178.416 326.673 178.869 326.46C179.329 326.247 179.716 325.953 180.029 325.58L181.039 326.61C180.606 327.11 180.069 327.503 179.429 327.79C178.789 328.077 178.093 328.22 177.339 328.22H177.139ZM177.039 319.26C176.213 319.26 175.529 319.54 174.989 320.1C174.449 320.66 174.126 321.413 174.019 322.36H180.019C179.973 321.48 179.706 320.743 179.219 320.15C178.739 319.557 178.073 319.26 177.219 319.26H177.039Z" fill="#606BD6"/>
<path d="M126 295H178C191.807 295 203 306.193 203 320V320C203 333.807 191.807 345 178 345H126V295Z" stroke="#606BD6" stroke-linejoin="bevel"/>
<path d="M7 235.5H215V234.5H7V235.5ZM220.5 241V359H221.5V241H220.5ZM215 364.5H6.99999V365.5H215V364.5ZM1.5 359V241H0.5V359H1.5ZM6.99999 364.5C3.96243 364.5 1.5 362.038 1.5 359H0.5C0.5 362.59 3.41014 365.5 6.99999 365.5V364.5ZM220.5 359C220.5 362.038 218.038 364.5 215 364.5V365.5C218.59 365.5 221.5 362.59 221.5 359H220.5ZM215 235.5C218.038 235.5 220.5 237.962 220.5 241H221.5C221.5 237.41 218.59 234.5 215 234.5V235.5ZM7 234.5C3.41015 234.5 0.5 237.41 0.5 241H1.5C1.5 237.962 3.96243 235.5 7 235.5V234.5Z" fill="#2C749E"/>
</g>
<g filter="url(#filter2_d_620_6291)">
<path d="M257 241C257 237.686 259.686 235 263 235H471C474.314 235 477 237.686 477 241V359C477 362.314 474.314 365 471 365H263C259.686 365 257 362.314 257 359V241Z" fill="white"/>
<path d="M342.651 276V262H348.511C350.264 262 351.574 262.42 352.441 263.26C353.308 264.093 353.741 265.227 353.741 266.66C353.741 268.087 353.308 269.22 352.441 270.06C351.574 270.9 350.264 271.32 348.511 271.32H344.751V276H342.651ZM348.311 263.96H344.751V269.36H348.311C349.451 269.36 350.281 269.137 350.801 268.69C351.328 268.237 351.591 267.56 351.591 266.66C351.591 265.76 351.328 265.087 350.801 264.64C350.281 264.187 349.451 263.96 348.311 263.96ZM358.475 276.2C357.422 276.2 356.602 275.93 356.015 275.39C355.435 274.843 355.145 274.127 355.145 273.24C355.145 272.36 355.472 271.623 356.125 271.03C356.785 270.437 357.835 270.14 359.275 270.14H361.995V270.11C361.995 268.43 361.222 267.59 359.675 267.59C359.028 267.59 358.482 267.707 358.035 267.94C357.595 268.173 357.238 268.5 356.965 268.92L355.595 267.81C356.022 267.15 356.582 266.643 357.275 266.29C357.975 265.937 358.768 265.76 359.655 265.76H359.875C361.102 265.76 362.088 266.113 362.835 266.82C363.582 267.527 363.955 268.583 363.955 269.99V276H362.035V274.37C361.648 274.957 361.152 275.41 360.545 275.73C359.938 276.043 359.248 276.2 358.475 276.2ZM358.915 274.42C359.688 274.42 360.332 274.247 360.845 273.9C361.358 273.547 361.742 273.07 361.995 272.47V271.71H359.355C358.568 271.71 358.005 271.837 357.665 272.09C357.332 272.337 357.165 272.673 357.165 273.1C357.165 273.98 357.748 274.42 358.915 274.42ZM366.732 276V266H368.732V267.67C369.098 267.077 369.555 266.61 370.102 266.27C370.655 265.93 371.295 265.76 372.022 265.76H372.242C373.348 265.76 374.215 266.15 374.842 266.93C375.475 267.71 375.792 268.807 375.792 270.22V276H373.792V270.46C373.792 268.567 373.105 267.62 371.732 267.62H371.532C370.852 267.62 370.272 267.83 369.792 268.25C369.318 268.67 368.965 269.2 368.732 269.84V276H366.732ZM382.838 276.24C381.878 276.24 381.034 276.02 380.308 275.58C379.588 275.14 379.024 274.527 378.618 273.74C378.218 272.953 378.018 272.043 378.018 271.01C378.018 269.977 378.218 269.067 378.618 268.28C379.024 267.487 379.588 266.87 380.308 266.43C381.034 265.983 381.878 265.76 382.838 265.76H383.058C383.931 265.76 384.698 265.977 385.358 266.41C386.024 266.837 386.544 267.457 386.918 268.27C387.291 269.077 387.478 270.05 387.478 271.19V271.8H380.088C380.208 272.62 380.514 273.267 381.008 273.74C381.508 274.207 382.158 274.44 382.958 274.44H383.158C383.638 274.44 384.098 274.343 384.538 274.15C384.978 273.95 385.348 273.683 385.648 273.35L386.878 274.65C386.424 275.137 385.864 275.523 385.198 275.81C384.538 276.097 383.824 276.24 383.058 276.24H382.838ZM382.778 267.56C382.064 267.56 381.468 267.797 380.988 268.27C380.514 268.737 380.214 269.377 380.088 270.19H385.468C385.408 269.45 385.164 268.827 384.738 268.32C384.318 267.813 383.731 267.56 382.978 267.56H382.778ZM389.818 276V261.4H391.818V276H389.818Z" fill="#2C749E"/>
<path d="M275 320C275 306.193 286.193 295 300 295H382V345H300C286.193 345 275 333.807 275 320V320Z" fill="white"/>
<path d="M297.712 315.96C297.372 315.96 297.102 315.857 296.902 315.65C296.702 315.443 296.602 315.177 296.602 314.85C296.602 314.523 296.702 314.257 296.902 314.05C297.102 313.843 297.372 313.74 297.712 313.74C298.052 313.74 298.322 313.843 298.522 314.05C298.722 314.257 298.822 314.523 298.822 314.85C298.822 315.177 298.722 315.443 298.522 315.65C298.322 315.857 298.052 315.96 297.712 315.96ZM296.922 328V318.05H298.502V328H296.922ZM305.197 328.22C303.211 328.22 301.771 327.57 300.877 326.27L301.977 325.31C302.684 326.323 303.754 326.83 305.187 326.83H305.367C306.101 326.83 306.671 326.703 307.077 326.45C307.491 326.19 307.697 325.827 307.697 325.36C307.697 324.96 307.557 324.64 307.277 324.4C307.004 324.16 306.537 323.973 305.877 323.84L304.077 323.47C302.171 323.083 301.217 322.193 301.217 320.8C301.217 319.907 301.571 319.19 302.277 318.65C302.991 318.103 303.927 317.83 305.087 317.83H305.287C306.981 317.83 308.247 318.447 309.087 319.68L307.987 320.57C307.654 320.097 307.264 319.753 306.817 319.54C306.371 319.327 305.854 319.22 305.267 319.22H305.087C304.401 319.22 303.844 319.35 303.417 319.61C302.997 319.863 302.787 320.217 302.787 320.67C302.787 321.023 302.917 321.307 303.177 321.52C303.437 321.727 303.871 321.893 304.477 322.02L306.447 322.43C307.334 322.617 308.024 322.94 308.517 323.4C309.017 323.86 309.267 324.487 309.267 325.28C309.267 326.153 308.927 326.863 308.247 327.41C307.574 327.95 306.627 328.22 305.407 328.22H305.197ZM311.046 328C311.493 326.493 312.003 324.93 312.576 323.31C313.156 321.683 313.769 320.077 314.416 318.49C315.069 316.903 315.723 315.407 316.376 314H318.416C319.076 315.407 319.729 316.903 320.376 318.49C321.023 320.077 321.636 321.683 322.216 323.31C322.796 324.93 323.306 326.493 323.746 328H321.936C321.763 327.36 321.569 326.703 321.356 326.03C321.149 325.35 320.929 324.66 320.696 323.96H314.036C313.803 324.66 313.579 325.35 313.366 326.03C313.159 326.703 312.969 327.36 312.796 328H311.046ZM314.576 322.4H320.156C319.723 321.187 319.266 319.983 318.786 318.79C318.313 317.597 317.839 316.47 317.366 315.41C316.899 316.47 316.426 317.597 315.946 318.79C315.466 319.983 315.009 321.187 314.576 322.4ZM330.049 328.22C329.102 328.22 328.269 328.01 327.549 327.59C326.829 327.163 326.265 326.563 325.859 325.79C325.459 325.01 325.259 324.09 325.259 323.03C325.259 321.97 325.459 321.05 325.859 320.27C326.259 319.49 326.819 318.89 327.539 318.47C328.259 318.043 329.095 317.83 330.049 317.83H330.249C331.022 317.83 331.739 318.02 332.399 318.4C333.059 318.78 333.595 319.297 334.009 319.95L332.799 320.82C332.492 320.347 332.122 319.977 331.689 319.71C331.255 319.437 330.762 319.3 330.209 319.3H330.019C329.059 319.3 328.299 319.64 327.739 320.32C327.179 320.993 326.899 321.897 326.899 323.03C326.899 324.157 327.179 325.06 327.739 325.74C328.299 326.413 329.059 326.75 330.019 326.75H330.209C330.769 326.75 331.269 326.63 331.709 326.39C332.155 326.15 332.539 325.827 332.859 325.42L334.009 326.36C333.582 326.94 333.042 327.397 332.389 327.73C331.735 328.057 331.022 328.22 330.249 328.22H330.049ZM340.734 328.12C339.627 328.12 338.774 327.843 338.174 327.29C337.574 326.737 337.274 325.857 337.274 324.65V319.42H335.314V318.05H337.274V315.02H338.854V318.05H342.374V319.42H338.854V324.43C338.854 325.263 339.034 325.847 339.394 326.18C339.761 326.507 340.281 326.67 340.954 326.67C341.247 326.67 341.514 326.657 341.754 326.63C341.994 326.597 342.244 326.553 342.504 326.5V327.89C342.231 327.957 341.941 328.01 341.634 328.05C341.327 328.097 341.027 328.12 340.734 328.12ZM345.564 315.96C345.224 315.96 344.954 315.857 344.754 315.65C344.554 315.443 344.454 315.177 344.454 314.85C344.454 314.523 344.554 314.257 344.754 314.05C344.954 313.843 345.224 313.74 345.564 313.74C345.904 313.74 346.174 313.843 346.374 314.05C346.574 314.257 346.674 314.523 346.674 314.85C346.674 315.177 346.574 315.443 346.374 315.65C346.174 315.857 345.904 315.96 345.564 315.96ZM344.774 328V318.05H346.354V328H344.774ZM352.469 328C351.749 326.387 351.059 324.747 350.399 323.08C349.746 321.413 349.136 319.737 348.569 318.05H350.349C350.796 319.497 351.282 320.943 351.809 322.39C352.342 323.83 352.899 325.263 353.479 326.69C354.066 325.263 354.622 323.83 355.149 322.39C355.676 320.943 356.166 319.497 356.619 318.05H358.329C357.762 319.737 357.152 321.413 356.499 323.08C355.846 324.747 355.159 326.387 354.439 328H352.469ZM364.227 328.22C363.281 328.22 362.451 328.003 361.737 327.57C361.024 327.137 360.467 326.53 360.067 325.75C359.674 324.97 359.477 324.063 359.477 323.03C359.477 322.017 359.674 321.12 360.067 320.34C360.461 319.553 361.007 318.94 361.707 318.5C362.414 318.053 363.231 317.83 364.157 317.83H364.347C365.227 317.83 365.994 318.05 366.647 318.49C367.301 318.923 367.804 319.537 368.157 320.33C368.517 321.123 368.697 322.057 368.697 323.13V323.67H361.097C361.204 324.623 361.537 325.38 362.097 325.94C362.664 326.5 363.397 326.78 364.297 326.78H364.477C365.011 326.78 365.504 326.673 365.957 326.46C366.417 326.247 366.804 325.953 367.117 325.58L368.127 326.61C367.694 327.11 367.157 327.503 366.517 327.79C365.877 328.077 365.181 328.22 364.427 328.22H364.227ZM364.127 319.26C363.301 319.26 362.617 319.54 362.077 320.1C361.537 320.66 361.214 321.413 361.107 322.36H367.107C367.061 321.48 366.794 320.743 366.307 320.15C365.827 319.557 365.161 319.26 364.307 319.26H364.127Z" fill="#606BD6"/>
<path d="M275 320C275 306.193 286.193 295 300 295H382V345H300C286.193 345 275 333.807 275 320V320Z" stroke="#606BD6" stroke-linejoin="bevel"/>
<path d="M382 295H434C447.807 295 459 306.193 459 320V320C459 333.807 447.807 345 434 345H382V295Z" fill="white"/>
<path d="M396.59 328V319.42H394.72V318.05H396.59V316.8C396.59 315.62 396.89 314.723 397.49 314.11C398.09 313.49 398.92 313.18 399.98 313.18C400.607 313.18 401.157 313.25 401.63 313.39V314.8C401.357 314.727 401.103 314.677 400.87 314.65C400.643 314.623 400.42 314.61 400.2 314.61C398.847 314.61 398.17 315.303 398.17 316.69V318.05H401.56V319.42H398.17V328H396.59ZM405.848 328.19C404.801 328.19 403.988 327.927 403.408 327.4C402.835 326.873 402.548 326.167 402.548 325.28C402.548 324.42 402.868 323.707 403.508 323.14C404.155 322.567 405.191 322.28 406.618 322.28H409.518V322.07C409.518 320.21 408.668 319.28 406.968 319.28C406.275 319.28 405.691 319.407 405.218 319.66C404.751 319.913 404.375 320.273 404.088 320.74L402.978 319.9C403.378 319.233 403.915 318.723 404.588 318.37C405.268 318.01 406.051 317.83 406.938 317.83H407.138C408.345 317.83 409.301 318.18 410.008 318.88C410.715 319.573 411.068 320.6 411.068 321.96V328H409.538V326.15C409.158 326.797 408.655 327.3 408.028 327.66C407.401 328.013 406.675 328.19 405.848 328.19ZM406.148 326.78C407.001 326.78 407.708 326.573 408.268 326.16C408.828 325.74 409.245 325.173 409.518 324.46V323.54H406.688C405.761 323.54 405.105 323.687 404.718 323.98C404.338 324.273 404.148 324.673 404.148 325.18C404.148 325.687 404.315 326.08 404.648 326.36C404.981 326.64 405.481 326.78 406.148 326.78ZM414.116 328V313.4H415.696V328H414.116ZM422.391 328.22C420.404 328.22 418.964 327.57 418.071 326.27L419.171 325.31C419.877 326.323 420.947 326.83 422.381 326.83H422.561C423.294 326.83 423.864 326.703 424.271 326.45C424.684 326.19 424.891 325.827 424.891 325.36C424.891 324.96 424.751 324.64 424.471 324.4C424.197 324.16 423.731 323.973 423.071 323.84L421.271 323.47C419.364 323.083 418.411 322.193 418.411 320.8C418.411 319.907 418.764 319.19 419.471 318.65C420.184 318.103 421.121 317.83 422.281 317.83H422.481C424.174 317.83 425.441 318.447 426.281 319.68L425.181 320.57C424.847 320.097 424.457 319.753 424.011 319.54C423.564 319.327 423.047 319.22 422.461 319.22H422.281C421.594 319.22 421.037 319.35 420.611 319.61C420.191 319.863 419.981 320.217 419.981 320.67C419.981 321.023 420.111 321.307 420.371 321.52C420.631 321.727 421.064 321.893 421.671 322.02L423.641 322.43C424.527 322.617 425.217 322.94 425.711 323.4C426.211 323.86 426.461 324.487 426.461 325.28C426.461 326.153 426.121 326.863 425.441 327.41C424.767 327.95 423.821 328.22 422.601 328.22H422.391ZM433.139 328.22C432.193 328.22 431.363 328.003 430.649 327.57C429.936 327.137 429.379 326.53 428.979 325.75C428.586 324.97 428.389 324.063 428.389 323.03C428.389 322.017 428.586 321.12 428.979 320.34C429.373 319.553 429.919 318.94 430.619 318.5C431.326 318.053 432.143 317.83 433.069 317.83H433.259C434.139 317.83 434.906 318.05 435.559 318.49C436.213 318.923 436.716 319.537 437.069 320.33C437.429 321.123 437.609 322.057 437.609 323.13V323.67H430.009C430.116 324.623 430.449 325.38 431.009 325.94C431.576 326.5 432.309 326.78 433.209 326.78H433.389C433.923 326.78 434.416 326.673 434.869 326.46C435.329 326.247 435.716 325.953 436.029 325.58L437.039 326.61C436.606 327.11 436.069 327.503 435.429 327.79C434.789 328.077 434.093 328.22 433.339 328.22H433.139ZM433.039 319.26C432.213 319.26 431.529 319.54 430.989 320.1C430.449 320.66 430.126 321.413 430.019 322.36H436.019C435.973 321.48 435.706 320.743 435.219 320.15C434.739 319.557 434.073 319.26 433.219 319.26H433.039Z" fill="#606BD6"/>
<path d="M382 295H434C447.807 295 459 306.193 459 320V320C459 333.807 447.807 345 434 345H382V295Z" stroke="#606BD6" stroke-linejoin="bevel"/>
<path d="M263 235.5H471V234.5H263V235.5ZM476.5 241V359H477.5V241H476.5ZM471 364.5H263V365.5H471V364.5ZM257.5 359V241H256.5V359H257.5ZM263 364.5C259.962 364.5 257.5 362.038 257.5 359H256.5C256.5 362.59 259.41 365.5 263 365.5V364.5ZM476.5 359C476.5 362.038 474.038 364.5 471 364.5V365.5C474.59 365.5 477.5 362.59 477.5 359H476.5ZM471 235.5C474.038 235.5 476.5 237.962 476.5 241H477.5C477.5 237.41 474.59 234.5 471 234.5V235.5ZM263 234.5C259.41 234.5 256.5 237.41 256.5 241H257.5C257.5 237.962 259.962 235.5 263 235.5V234.5Z" fill="#2C749E"/>
</g>
<path d="M363.353 235V187.827C363.353 178.99 356.189 171.827 347.353 171.827H235.19V106" stroke="#2C749E" stroke-width="2"/>
<path d="M107.026 235V187.827C107.026 178.99 114.19 171.827 123.026 171.827H235.189V106" stroke="#2C749E" stroke-width="2"/>
<defs>
<filter id="filter0_d_620_6291" x="126.332" y="0.5" width="217" height="108" filterUnits="userSpaceOnUse" color-interpolation-filters="sRGB">
<feFlood flood-opacity="0" result="BackgroundImageFix"/>
<feColorMatrix in="SourceAlpha" type="matrix" values="0 0 0 0 0 0 0 0 0 0 0 0 0 0 0 0 0 0 127 0" result="hardAlpha"/>
<feOffset dy="2"/>
<feComposite in2="hardAlpha" operator="out"/>
<feColorMatrix type="matrix" values="0 0 0 0 0.235294 0 0 0 0 0.435294 0 0 0 0 0.635294 0 0 0 1 0"/>
<feBlend mode="normal" in2="BackgroundImageFix" result="effect1_dropShadow_620_6291"/>
<feBlend mode="normal" in="SourceGraphic" in2="effect1_dropShadow_620_6291" result="shape"/>
</filter>
<filter id="filter1_d_620_6291" x="0.5" y="234.5" width="221" height="133" filterUnits="userSpaceOnUse" color-interpolation-filters="sRGB">
<feFlood flood-opacity="0" result="BackgroundImageFix"/>
<feColorMatrix in="SourceAlpha" type="matrix" values="0 0 0 0 0 0 0 0 0 0 0 0 0 0 0 0 0 0 127 0" result="hardAlpha"/>
<feOffset dy="2"/>
<feComposite in2="hardAlpha" operator="out"/>
<feColorMatrix type="matrix" values="0 0 0 0 0.235294 0 0 0 0 0.435294 0 0 0 0 0.635294 0 0 0 1 0"/>
<feBlend mode="normal" in2="BackgroundImageFix" result="effect1_dropShadow_620_6291"/>
<feBlend mode="normal" in="SourceGraphic" in2="effect1_dropShadow_620_6291" result="shape"/>
</filter>
<filter id="filter2_d_620_6291" x="256.5" y="234.5" width="221" height="133" filterUnits="userSpaceOnUse" color-interpolation-filters="sRGB">
<feFlood flood-opacity="0" result="BackgroundImageFix"/>
<feColorMatrix in="SourceAlpha" type="matrix" values="0 0 0 0 0 0 0 0 0 0 0 0 0 0 0 0 0 0 127 0" result="hardAlpha"/>
<feOffset dy="2"/>
<feComposite in2="hardAlpha" operator="out"/>
<feColorMatrix type="matrix" values="0 0 0 0 0.235294 0 0 0 0 0.435294 0 0 0 0 0.635294 0 0 0 1 0"/>
<feBlend mode="normal" in2="BackgroundImageFix" result="effect1_dropShadow_620_6291"/>
<feBlend mode="normal" in="SourceGraphic" in2="effect1_dropShadow_620_6291" result="shape"/>
</filter>
</defs>
</svg>
