<svg width="481" height="368" viewBox="0 0 481 368" fill="none" xmlns="http://www.w3.org/2000/svg">
<g filter="url(#filter0_d_620_6297)">
<path d="M128.152 7C128.152 3.68629 130.839 1 134.152 1H338.152C341.466 1 344.152 3.68629 344.152 7V100C344.152 103.314 341.466 106 338.152 106H134.152C130.839 106 128.152 103.314 128.152 100V7Z" fill="white"/>
<path d="M188.865 61.5C189.305 59.9667 189.812 58.3833 190.385 56.75C190.959 55.1167 191.562 53.51 192.195 51.93C192.835 50.3433 193.475 48.8667 194.115 47.5H196.635C197.275 48.8667 197.915 50.3433 198.555 51.93C199.195 53.51 199.799 55.1167 200.365 56.75C200.939 58.3833 201.445 59.9667 201.885 61.5H199.595C199.442 60.9133 199.272 60.31 199.085 59.69C198.905 59.07 198.715 58.44 198.515 57.8H192.165C191.965 58.44 191.772 59.07 191.585 59.69C191.405 60.31 191.239 60.9133 191.085 61.5H188.865ZM192.825 55.84H197.855C197.455 54.6933 197.039 53.5667 196.605 52.46C196.179 51.3467 195.755 50.3033 195.335 49.33C194.922 50.3033 194.499 51.3467 194.065 52.46C193.639 53.5667 193.225 54.6933 192.825 55.84ZM208.066 61.74C207.106 61.74 206.256 61.53 205.516 61.11C204.776 60.69 204.196 60.09 203.776 59.31C203.363 58.5233 203.156 57.59 203.156 56.51C203.156 55.4233 203.363 54.49 203.776 53.71C204.19 52.9233 204.763 52.32 205.496 51.9C206.236 51.4733 207.093 51.26 208.066 51.26H208.286C209.06 51.26 209.79 51.46 210.476 51.86C211.17 52.2533 211.73 52.7967 212.156 53.49L210.606 54.57C210.32 54.1167 209.976 53.7633 209.576 53.51C209.176 53.25 208.723 53.12 208.216 53.12H208.016C207.15 53.12 206.466 53.4267 205.966 54.04C205.473 54.6467 205.226 55.4667 205.226 56.5C205.226 57.5267 205.473 58.3467 205.966 58.96C206.466 59.5733 207.15 59.88 208.016 59.88H208.216C208.723 59.88 209.19 59.7667 209.616 59.54C210.043 59.3133 210.41 59.01 210.716 58.63L212.156 59.85C211.71 60.4367 211.146 60.9 210.466 61.24C209.793 61.5733 209.066 61.74 208.286 61.74H208.066ZM218.711 61.74C217.751 61.74 216.901 61.53 216.161 61.11C215.421 60.69 214.841 60.09 214.421 59.31C214.008 58.5233 213.801 57.59 213.801 56.51C213.801 55.4233 214.008 54.49 214.421 53.71C214.834 52.9233 215.408 52.32 216.141 51.9C216.881 51.4733 217.738 51.26 218.711 51.26H218.931C219.704 51.26 220.434 51.46 221.121 51.86C221.814 52.2533 222.374 52.7967 222.801 53.49L221.251 54.57C220.964 54.1167 220.621 53.7633 220.221 53.51C219.821 53.25 219.368 53.12 218.861 53.12H218.661C217.794 53.12 217.111 53.4267 216.611 54.04C216.118 54.6467 215.871 55.4667 215.871 56.5C215.871 57.5267 216.118 58.3467 216.611 58.96C217.111 59.5733 217.794 59.88 218.661 59.88H218.861C219.368 59.88 219.834 59.7667 220.261 59.54C220.688 59.3133 221.054 59.01 221.361 58.63L222.801 59.85C222.354 60.4367 221.791 60.9 221.111 61.24C220.438 61.5733 219.711 61.74 218.931 61.74H218.711ZM229.435 61.74C228.422 61.74 227.539 61.5167 226.785 61.07C226.039 60.6167 225.462 59.9967 225.055 59.21C224.649 58.4167 224.445 57.5133 224.445 56.5C224.445 55.48 224.649 54.5767 225.055 53.79C225.462 53.0033 226.039 52.3867 226.785 51.94C227.539 51.4867 228.422 51.26 229.435 51.26H229.655C230.675 51.26 231.559 51.4867 232.305 51.94C233.052 52.3867 233.629 53.0033 234.035 53.79C234.442 54.5767 234.645 55.48 234.645 56.5C234.645 57.5133 234.442 58.4167 234.035 59.21C233.629 59.9967 233.052 60.6167 232.305 61.07C231.559 61.5167 230.675 61.74 229.655 61.74H229.435ZM229.445 59.88H229.645C230.559 59.88 231.275 59.5733 231.795 58.96C232.315 58.3467 232.575 57.5267 232.575 56.5C232.575 55.4667 232.315 54.6467 231.795 54.04C231.275 53.4267 230.559 53.12 229.645 53.12H229.445C228.539 53.12 227.822 53.4267 227.295 54.04C226.775 54.6467 226.515 55.4667 226.515 56.5C226.515 57.5267 226.775 58.3467 227.295 58.96C227.822 59.5733 228.539 59.88 229.445 59.88ZM237.027 61.5V51.5H239.027V53.02C239.693 51.8467 240.61 51.26 241.777 51.26C242.097 51.26 242.387 51.2867 242.647 51.34V53.36C242.487 53.34 242.313 53.3233 242.127 53.31C241.947 53.2967 241.77 53.29 241.597 53.29C240.937 53.29 240.397 53.48 239.977 53.86C239.557 54.24 239.24 54.76 239.027 55.42V61.5H237.027ZM248.455 61.74C247.569 61.74 246.792 61.5167 246.125 61.07C245.465 60.6167 244.952 59.9967 244.585 59.21C244.219 58.4167 244.035 57.5133 244.035 56.5C244.035 55.4867 244.219 54.5867 244.585 53.8C244.952 53.0067 245.465 52.3867 246.125 51.94C246.792 51.4867 247.569 51.26 248.455 51.26H248.675C249.335 51.26 249.945 51.4033 250.505 51.69C251.072 51.97 251.539 52.39 251.905 52.95V46.9H253.905V61.5H251.905V59.93C251.559 60.53 251.105 60.9833 250.545 61.29C249.985 61.59 249.362 61.74 248.675 61.74H248.455ZM248.955 59.89H249.155C249.749 59.89 250.282 59.7133 250.755 59.36C251.235 59.0067 251.619 58.5233 251.905 57.91V55.09C251.619 54.4767 251.235 53.9933 250.755 53.64C250.282 53.2867 249.749 53.11 249.155 53.11H248.955C248.082 53.11 247.389 53.4033 246.875 53.99C246.362 54.5767 246.105 55.4133 246.105 56.5C246.105 57.5867 246.362 58.4233 246.875 59.01C247.389 59.5967 248.082 59.89 248.955 59.89ZM257.851 49.72C257.444 49.72 257.121 49.5967 256.881 49.35C256.648 49.0967 256.531 48.7767 256.531 48.39C256.531 47.9967 256.648 47.6767 256.881 47.43C257.121 47.1833 257.444 47.06 257.851 47.06C258.264 47.06 258.588 47.1833 258.821 47.43C259.054 47.6767 259.171 47.9967 259.171 48.39C259.171 48.7767 259.054 49.0967 258.821 49.35C258.588 49.5967 258.264 49.72 257.851 49.72ZM256.851 61.5V51.5H258.851V61.5H256.851ZM266.232 61.74C265.219 61.74 264.336 61.5167 263.582 61.07C262.836 60.6167 262.259 59.9967 261.852 59.21C261.446 58.4167 261.242 57.5133 261.242 56.5C261.242 55.48 261.446 54.5767 261.852 53.79C262.259 53.0033 262.836 52.3867 263.582 51.94C264.336 51.4867 265.219 51.26 266.232 51.26H266.452C267.472 51.26 268.356 51.4867 269.102 51.94C269.849 52.3867 270.426 53.0033 270.832 53.79C271.239 54.5767 271.442 55.48 271.442 56.5C271.442 57.5133 271.239 58.4167 270.832 59.21C270.426 59.9967 269.849 60.6167 269.102 61.07C268.356 61.5167 267.472 61.74 266.452 61.74H266.232ZM266.242 59.88H266.442C267.356 59.88 268.072 59.5733 268.592 58.96C269.112 58.3467 269.372 57.5267 269.372 56.5C269.372 55.4667 269.112 54.6467 268.592 54.04C268.072 53.4267 267.356 53.12 266.442 53.12H266.242C265.336 53.12 264.619 53.4267 264.092 54.04C263.572 54.6467 263.312 55.4667 263.312 56.5C263.312 57.5267 263.572 58.3467 264.092 58.96C264.619 59.5733 265.336 59.88 266.242 59.88ZM273.824 61.5V51.5H275.824V53.17C276.19 52.5767 276.647 52.11 277.194 51.77C277.747 51.43 278.387 51.26 279.114 51.26H279.334C280.44 51.26 281.307 51.65 281.934 52.43C282.567 53.21 282.884 54.3067 282.884 55.72V61.5H280.884V55.96C280.884 54.0667 280.197 53.12 278.824 53.12H278.624C277.944 53.12 277.364 53.33 276.884 53.75C276.41 54.17 276.057 54.7 275.824 55.34V61.5H273.824Z" fill="#2C749E"/>
<path d="M134.152 1.5H338.152V0.5H134.152V1.5ZM343.652 7V100H344.652V7H343.652ZM338.152 105.5H134.152V106.5H338.152V105.5ZM128.652 100V7H127.652V100H128.652ZM134.152 105.5C131.115 105.5 128.652 103.038 128.652 100H127.652C127.652 103.59 130.562 106.5 134.152 106.5V105.5ZM343.652 100C343.652 103.038 341.19 105.5 338.152 105.5V106.5C341.742 106.5 344.652 103.59 344.652 100H343.652ZM338.152 1.5C341.19 1.5 343.652 3.96243 343.652 7H344.652C344.652 3.41015 341.742 0.5 338.152 0.5V1.5ZM134.152 0.5C130.562 0.5 127.652 3.41015 127.652 7H128.652C128.652 3.96243 131.115 1.5 134.152 1.5V0.5Z" fill="#2C749E"/>
</g>
<g filter="url(#filter1_d_620_6297)">
<rect x="1" y="235" width="220" height="130" rx="6" fill="white"/>
<path d="M86.1509 274V260H92.0109C93.7643 260 95.0743 260.42 95.9409 261.26C96.8076 262.093 97.2409 263.227 97.2409 264.66C97.2409 266.087 96.8076 267.22 95.9409 268.06C95.0743 268.9 93.7643 269.32 92.0109 269.32H88.2509V274H86.1509ZM91.8109 261.96H88.2509V267.36H91.8109C92.9509 267.36 93.7809 267.137 94.3009 266.69C94.8276 266.237 95.0909 265.56 95.0909 264.66C95.0909 263.76 94.8276 263.087 94.3009 262.64C93.7809 262.187 92.9509 261.96 91.8109 261.96ZM101.975 274.2C100.922 274.2 100.102 273.93 99.5152 273.39C98.9352 272.843 98.6452 272.127 98.6452 271.24C98.6452 270.36 98.9718 269.623 99.6252 269.03C100.285 268.437 101.335 268.14 102.775 268.14H105.495V268.11C105.495 266.43 104.722 265.59 103.175 265.59C102.528 265.59 101.982 265.707 101.535 265.94C101.095 266.173 100.738 266.5 100.465 266.92L99.0952 265.81C99.5218 265.15 100.082 264.643 100.775 264.29C101.475 263.937 102.268 263.76 103.155 263.76H103.375C104.602 263.76 105.588 264.113 106.335 264.82C107.082 265.527 107.455 266.583 107.455 267.99V274H105.535V272.37C105.148 272.957 104.652 273.41 104.045 273.73C103.438 274.043 102.748 274.2 101.975 274.2ZM102.415 272.42C103.188 272.42 103.832 272.247 104.345 271.9C104.858 271.547 105.242 271.07 105.495 270.47V269.71H102.855C102.068 269.71 101.505 269.837 101.165 270.09C100.832 270.337 100.665 270.673 100.665 271.1C100.665 271.98 101.248 272.42 102.415 272.42ZM110.232 274V264H112.232V265.67C112.598 265.077 113.055 264.61 113.602 264.27C114.155 263.93 114.795 263.76 115.522 263.76H115.742C116.848 263.76 117.715 264.15 118.342 264.93C118.975 265.71 119.292 266.807 119.292 268.22V274H117.292V268.46C117.292 266.567 116.605 265.62 115.232 265.62H115.032C114.352 265.62 113.772 265.83 113.292 266.25C112.818 266.67 112.465 267.2 112.232 267.84V274H110.232ZM126.338 274.24C125.378 274.24 124.534 274.02 123.808 273.58C123.088 273.14 122.524 272.527 122.118 271.74C121.718 270.953 121.518 270.043 121.518 269.01C121.518 267.977 121.718 267.067 122.118 266.28C122.524 265.487 123.088 264.87 123.808 264.43C124.534 263.983 125.378 263.76 126.338 263.76H126.558C127.431 263.76 128.198 263.977 128.858 264.41C129.524 264.837 130.044 265.457 130.418 266.27C130.791 267.077 130.978 268.05 130.978 269.19V269.8H123.588C123.708 270.62 124.014 271.267 124.508 271.74C125.008 272.207 125.658 272.44 126.458 272.44H126.658C127.138 272.44 127.598 272.343 128.038 272.15C128.478 271.95 128.848 271.683 129.148 271.35L130.378 272.65C129.924 273.137 129.364 273.523 128.698 273.81C128.038 274.097 127.324 274.24 126.558 274.24H126.338ZM126.278 265.56C125.564 265.56 124.968 265.797 124.488 266.27C124.014 266.737 123.714 267.377 123.588 268.19H128.968C128.908 267.45 128.664 266.827 128.238 266.32C127.818 265.813 127.231 265.56 126.478 265.56H126.278ZM133.318 274V259.4H135.318V274H133.318Z" fill="#2C749E"/>
<rect x="16.1816" y="289" width="190" height="62" rx="31" stroke="#FCDEB0" stroke-width="4" stroke-linejoin="bevel"/>
<rect x="20.1406" y="293" width="182.082" height="54" rx="27" stroke="#FABD62" stroke-width="4" stroke-linejoin="bevel"/>
<path d="M21.1816 320C21.1816 306.193 32.3745 295 46.1816 295H128.182V345H46.1816C32.3745 345 21.1816 333.807 21.1816 320V320Z" fill="white"/>
<path d="M43.8939 315.96C43.5539 315.96 43.2839 315.857 43.0839 315.65C42.8839 315.443 42.7839 315.177 42.7839 314.85C42.7839 314.523 42.8839 314.257 43.0839 314.05C43.2839 313.843 43.5539 313.74 43.8939 313.74C44.2339 313.74 44.5039 313.843 44.7039 314.05C44.9039 314.257 45.0039 314.523 45.0039 314.85C45.0039 315.177 44.9039 315.443 44.7039 315.65C44.5039 315.857 44.2339 315.96 43.8939 315.96ZM43.1039 328V318.05H44.6839V328H43.1039ZM51.3791 328.22C49.3924 328.22 47.9524 327.57 47.0591 326.27L48.1591 325.31C48.8657 326.323 49.9357 326.83 51.3691 326.83H51.5491C52.2824 326.83 52.8524 326.703 53.2591 326.45C53.6724 326.19 53.8791 325.827 53.8791 325.36C53.8791 324.96 53.7391 324.64 53.4591 324.4C53.1857 324.16 52.7191 323.973 52.0591 323.84L50.2591 323.47C48.3524 323.083 47.3991 322.193 47.3991 320.8C47.3991 319.907 47.7524 319.19 48.4591 318.65C49.1724 318.103 50.1091 317.83 51.2691 317.83H51.4691C53.1624 317.83 54.4291 318.447 55.2691 319.68L54.1691 320.57C53.8357 320.097 53.4457 319.753 52.9991 319.54C52.5524 319.327 52.0357 319.22 51.4491 319.22H51.2691C50.5824 319.22 50.0257 319.35 49.5991 319.61C49.1791 319.863 48.9691 320.217 48.9691 320.67C48.9691 321.023 49.0991 321.307 49.3591 321.52C49.6191 321.727 50.0524 321.893 50.6591 322.02L52.6291 322.43C53.5157 322.617 54.2057 322.94 54.6991 323.4C55.1991 323.86 55.4491 324.487 55.4491 325.28C55.4491 326.153 55.1091 326.863 54.4291 327.41C53.7557 327.95 52.8091 328.22 51.5891 328.22H51.3791ZM57.2277 328C57.6743 326.493 58.1843 324.93 58.7577 323.31C59.3377 321.683 59.951 320.077 60.5977 318.49C61.251 316.903 61.9043 315.407 62.5577 314H64.5977C65.2577 315.407 65.911 316.903 66.5577 318.49C67.2043 320.077 67.8177 321.683 68.3977 323.31C68.9777 324.93 69.4877 326.493 69.9277 328H68.1177C67.9443 327.36 67.751 326.703 67.5377 326.03C67.331 325.35 67.111 324.66 66.8777 323.96H60.2177C59.9843 324.66 59.761 325.35 59.5477 326.03C59.341 326.703 59.151 327.36 58.9777 328H57.2277ZM60.7577 322.4H66.3377C65.9043 321.187 65.4477 319.983 64.9677 318.79C64.4943 317.597 64.021 316.47 63.5477 315.41C63.081 316.47 62.6077 317.597 62.1277 318.79C61.6477 319.983 61.191 321.187 60.7577 322.4ZM76.2302 328.22C75.2835 328.22 74.4502 328.01 73.7302 327.59C73.0102 327.163 72.4468 326.563 72.0402 325.79C71.6402 325.01 71.4402 324.09 71.4402 323.03C71.4402 321.97 71.6402 321.05 72.0402 320.27C72.4402 319.49 73.0002 318.89 73.7202 318.47C74.4402 318.043 75.2768 317.83 76.2302 317.83H76.4302C77.2035 317.83 77.9202 318.02 78.5802 318.4C79.2402 318.78 79.7768 319.297 80.1902 319.95L78.9802 320.82C78.6735 320.347 78.3035 319.977 77.8702 319.71C77.4368 319.437 76.9435 319.3 76.3902 319.3H76.2002C75.2402 319.3 74.4802 319.64 73.9202 320.32C73.3602 320.993 73.0802 321.897 73.0802 323.03C73.0802 324.157 73.3602 325.06 73.9202 325.74C74.4802 326.413 75.2402 326.75 76.2002 326.75H76.3902C76.9502 326.75 77.4502 326.63 77.8902 326.39C78.3368 326.15 78.7202 325.827 79.0402 325.42L80.1902 326.36C79.7635 326.94 79.2235 327.397 78.5702 327.73C77.9168 328.057 77.2035 328.22 76.4302 328.22H76.2302ZM86.9156 328.12C85.809 328.12 84.9556 327.843 84.3556 327.29C83.7556 326.737 83.4556 325.857 83.4556 324.65V319.42H81.4956V318.05H83.4556V315.02H85.0356V318.05H88.5556V319.42H85.0356V324.43C85.0356 325.263 85.2156 325.847 85.5756 326.18C85.9423 326.507 86.4623 326.67 87.1356 326.67C87.429 326.67 87.6956 326.657 87.9356 326.63C88.1756 326.597 88.4256 326.553 88.6856 326.5V327.89C88.4123 327.957 88.1223 328.01 87.8156 328.05C87.509 328.097 87.209 328.12 86.9156 328.12ZM91.7455 315.96C91.4055 315.96 91.1355 315.857 90.9355 315.65C90.7355 315.443 90.6355 315.177 90.6355 314.85C90.6355 314.523 90.7355 314.257 90.9355 314.05C91.1355 313.843 91.4055 313.74 91.7455 313.74C92.0855 313.74 92.3555 313.843 92.5555 314.05C92.7555 314.257 92.8555 314.523 92.8555 314.85C92.8555 315.177 92.7555 315.443 92.5555 315.65C92.3555 315.857 92.0855 315.96 91.7455 315.96ZM90.9555 328V318.05H92.5355V328H90.9555ZM98.6506 328C97.9306 326.387 97.2406 324.747 96.5806 323.08C95.9273 321.413 95.3173 319.737 94.7506 318.05H96.5306C96.9773 319.497 97.464 320.943 97.9906 322.39C98.524 323.83 99.0806 325.263 99.6606 326.69C100.247 325.263 100.804 323.83 101.331 322.39C101.857 320.943 102.347 319.497 102.801 318.05H104.511C103.944 319.737 103.334 321.413 102.681 323.08C102.027 324.747 101.341 326.387 100.621 328H98.6506ZM110.409 328.22C109.462 328.22 108.632 328.003 107.919 327.57C107.206 327.137 106.649 326.53 106.249 325.75C105.856 324.97 105.659 324.063 105.659 323.03C105.659 322.017 105.856 321.12 106.249 320.34C106.642 319.553 107.189 318.94 107.889 318.5C108.596 318.053 109.412 317.83 110.339 317.83H110.529C111.409 317.83 112.176 318.05 112.829 318.49C113.482 318.923 113.986 319.537 114.339 320.33C114.699 321.123 114.879 322.057 114.879 323.13V323.67H107.279C107.386 324.623 107.719 325.38 108.279 325.94C108.846 326.5 109.579 326.78 110.479 326.78H110.659C111.192 326.78 111.686 326.673 112.139 326.46C112.599 326.247 112.986 325.953 113.299 325.58L114.309 326.61C113.876 327.11 113.339 327.503 112.699 327.79C112.059 328.077 111.362 328.22 110.609 328.22H110.409ZM110.309 319.26C109.482 319.26 108.799 319.54 108.259 320.1C107.719 320.66 107.396 321.413 107.289 322.36H113.289C113.242 321.48 112.976 320.743 112.489 320.15C112.009 319.557 111.342 319.26 110.489 319.26H110.309Z" fill="#606BD6"/>
<path d="M21.1816 320C21.1816 306.193 32.3745 295 46.1816 295H128.182V345H46.1816C32.3745 345 21.1816 333.807 21.1816 320V320Z" stroke="#FABD62" stroke-linejoin="bevel"/>
<path d="M128.182 295H175.182C188.989 295 200.182 306.193 200.182 320V320C200.182 333.807 188.989 345 175.182 345H128.182V295Z" fill="white"/>
<path d="M146.311 328.14C145.038 328.14 144.065 327.823 143.391 327.19C142.718 326.557 142.381 325.587 142.381 324.28V320.12H140.401V317.92H142.381V315.02H145.091V317.92H148.311V320.12H145.091V323.86C145.091 324.587 145.248 325.09 145.561 325.37C145.881 325.643 146.335 325.78 146.921 325.78C147.208 325.78 147.475 325.767 147.721 325.74C147.968 325.707 148.215 325.663 148.461 325.61V327.86C148.155 327.947 147.818 328.013 147.451 328.06C147.085 328.113 146.705 328.14 146.311 328.14ZM150.163 328V317.92H152.793V319.5C153.453 318.28 154.369 317.67 155.543 317.67C155.849 317.67 156.156 317.7 156.463 317.76V320.38C156.303 320.353 156.116 320.333 155.903 320.32C155.689 320.307 155.499 320.3 155.333 320.3C154.699 320.3 154.183 320.46 153.783 320.78C153.383 321.1 153.079 321.543 152.873 322.11V328H150.163ZM161.539 328.25C160.406 328.25 159.543 327.847 158.949 327.04C158.356 326.233 158.059 325.137 158.059 323.75V317.92H160.769V323.45C160.769 325.037 161.316 325.83 162.409 325.83H162.619C163.106 325.83 163.543 325.68 163.929 325.38C164.323 325.08 164.629 324.673 164.849 324.16V317.92H167.559V328H164.939V326.4C164.579 326.993 164.136 327.45 163.609 327.77C163.089 328.09 162.489 328.25 161.809 328.25H161.539ZM174.634 328.25C173.64 328.25 172.764 328.033 172.004 327.6C171.244 327.167 170.65 326.557 170.224 325.77C169.804 324.977 169.594 324.05 169.594 322.99C169.594 321.917 169.804 320.983 170.224 320.19C170.65 319.39 171.237 318.77 171.984 318.33C172.73 317.89 173.59 317.67 174.564 317.67H174.834C175.76 317.67 176.57 317.893 177.264 318.34C177.957 318.78 178.497 319.41 178.884 320.23C179.27 321.05 179.464 322.023 179.464 323.15V323.83H172.344C172.477 324.503 172.757 325.027 173.184 325.4C173.617 325.773 174.184 325.96 174.884 325.96H175.074C176.014 325.96 176.8 325.633 177.434 324.98L178.874 326.76C178.387 327.22 177.8 327.583 177.114 327.85C176.427 328.117 175.69 328.25 174.904 328.25H174.634ZM174.554 319.9C173.974 319.9 173.49 320.083 173.104 320.45C172.717 320.817 172.464 321.333 172.344 322H176.794C176.714 321.387 176.497 320.883 176.144 320.49C175.797 320.097 175.324 319.9 174.724 319.9H174.554Z" fill="#606BD6"/>
<path d="M128.182 295H175.182C188.989 295 200.182 306.193 200.182 320V320C200.182 333.807 188.989 345 175.182 345H128.182V295Z" stroke="#FABD62" stroke-linejoin="bevel"/>
<path d="M205.443 284.833L203.696 289.529C203.644 289.667 203.551 289.786 203.429 289.871C203.307 289.955 203.162 290 203.013 290C202.864 290 202.719 289.955 202.597 289.871C202.475 289.786 202.382 289.667 202.331 289.529L200.583 284.833C200.547 284.735 200.489 284.646 200.415 284.572C200.34 284.499 200.251 284.442 200.152 284.406L195.409 282.676C195.269 282.625 195.148 282.533 195.063 282.412C194.978 282.291 194.933 282.147 194.933 282C194.933 281.853 194.978 281.709 195.063 281.588C195.148 281.467 195.269 281.375 195.409 281.324L200.152 279.594C200.251 279.558 200.34 279.501 200.415 279.428C200.489 279.354 200.547 279.265 200.583 279.167L202.331 274.471C202.382 274.333 202.475 274.214 202.597 274.129C202.719 274.045 202.864 274 203.013 274C203.162 274 203.307 274.045 203.429 274.129C203.551 274.214 203.644 274.333 203.696 274.471L205.443 279.167C205.48 279.265 205.537 279.354 205.612 279.428C205.686 279.501 205.776 279.558 205.874 279.594L210.618 281.324C210.757 281.375 210.878 281.467 210.963 281.588C211.048 281.709 211.094 281.853 211.094 282C211.094 282.147 211.048 282.291 210.963 282.412C210.878 282.533 210.757 282.625 210.618 282.676L205.874 284.406C205.776 284.442 205.686 284.499 205.612 284.572C205.537 284.646 205.48 284.735 205.443 284.833V284.833Z" fill="#FABD62"/>
<path d="M212.612 296.77L211.52 299.705C211.488 299.792 211.43 299.866 211.353 299.919C211.277 299.972 211.186 300 211.093 300C211 300 210.91 299.972 210.833 299.919C210.757 299.866 210.699 299.792 210.667 299.705L209.574 296.77C209.552 296.709 209.516 296.654 209.469 296.608C209.423 296.562 209.367 296.526 209.305 296.504L206.34 295.422C206.253 295.391 206.178 295.333 206.125 295.257C206.071 295.182 206.043 295.092 206.043 295C206.043 294.908 206.071 294.818 206.125 294.743C206.178 294.667 206.253 294.609 206.34 294.578L209.305 293.496C209.367 293.474 209.423 293.438 209.469 293.392C209.516 293.346 209.552 293.291 209.574 293.23L210.667 290.295C210.699 290.208 210.757 290.134 210.833 290.081C210.91 290.028 211 290 211.093 290C211.186 290 211.277 290.028 211.353 290.081C211.43 290.134 211.488 290.208 211.52 290.295L212.612 293.23C212.635 293.291 212.671 293.346 212.717 293.392C212.764 293.438 212.82 293.474 212.882 293.496L215.846 294.578C215.933 294.609 216.009 294.667 216.062 294.743C216.115 294.818 216.144 294.908 216.144 295C216.144 295.092 216.115 295.182 216.062 295.257C216.009 295.333 215.933 295.391 215.846 295.422L212.882 296.504C212.82 296.526 212.764 296.562 212.717 296.608C212.671 296.654 212.635 296.709 212.612 296.77V296.77Z" fill="#FABD62"/>
<rect x="1" y="235" width="220" height="130" rx="6" stroke="#2C749E" stroke-linejoin="bevel"/>
</g>
<g filter="url(#filter2_d_620_6297)">
<rect x="260.015" y="235" width="220" height="130" rx="6" fill="white"/>
<path d="M345.666 276V262H351.526C353.279 262 354.589 262.42 355.456 263.26C356.322 264.093 356.756 265.227 356.756 266.66C356.756 268.087 356.322 269.22 355.456 270.06C354.589 270.9 353.279 271.32 351.526 271.32H347.766V276H345.666ZM351.326 263.96H347.766V269.36H351.326C352.466 269.36 353.296 269.137 353.816 268.69C354.342 268.237 354.606 267.56 354.606 266.66C354.606 265.76 354.342 265.087 353.816 264.64C353.296 264.187 352.466 263.96 351.326 263.96ZM361.49 276.2C360.436 276.2 359.616 275.93 359.03 275.39C358.45 274.843 358.16 274.127 358.16 273.24C358.16 272.36 358.486 271.623 359.14 271.03C359.8 270.437 360.85 270.14 362.29 270.14H365.01V270.11C365.01 268.43 364.236 267.59 362.69 267.59C362.043 267.59 361.496 267.707 361.05 267.94C360.61 268.173 360.253 268.5 359.98 268.92L358.61 267.81C359.036 267.15 359.596 266.643 360.29 266.29C360.99 265.937 361.783 265.76 362.67 265.76H362.89C364.116 265.76 365.103 266.113 365.85 266.82C366.596 267.527 366.97 268.583 366.97 269.99V276H365.05V274.37C364.663 274.957 364.166 275.41 363.56 275.73C362.953 276.043 362.263 276.2 361.49 276.2ZM361.93 274.42C362.703 274.42 363.346 274.247 363.86 273.9C364.373 273.547 364.756 273.07 365.01 272.47V271.71H362.37C361.583 271.71 361.02 271.837 360.68 272.09C360.346 272.337 360.18 272.673 360.18 273.1C360.18 273.98 360.763 274.42 361.93 274.42ZM369.746 276V266H371.746V267.67C372.113 267.077 372.57 266.61 373.116 266.27C373.67 265.93 374.31 265.76 375.036 265.76H375.256C376.363 265.76 377.23 266.15 377.856 266.93C378.49 267.71 378.806 268.807 378.806 270.22V276H376.806V270.46C376.806 268.567 376.12 267.62 374.746 267.62H374.546C373.866 267.62 373.286 267.83 372.806 268.25C372.333 268.67 371.98 269.2 371.746 269.84V276H369.746ZM385.852 276.24C384.892 276.24 384.049 276.02 383.322 275.58C382.602 275.14 382.039 274.527 381.632 273.74C381.232 272.953 381.032 272.043 381.032 271.01C381.032 269.977 381.232 269.067 381.632 268.28C382.039 267.487 382.602 266.87 383.322 266.43C384.049 265.983 384.892 265.76 385.852 265.76H386.072C386.946 265.76 387.712 265.977 388.372 266.41C389.039 266.837 389.559 267.457 389.932 268.27C390.306 269.077 390.492 270.05 390.492 271.19V271.8H383.102C383.222 272.62 383.529 273.267 384.022 273.74C384.522 274.207 385.172 274.44 385.972 274.44H386.172C386.652 274.44 387.112 274.343 387.552 274.15C387.992 273.95 388.362 273.683 388.662 273.35L389.892 274.65C389.439 275.137 388.879 275.523 388.212 275.81C387.552 276.097 386.839 276.24 386.072 276.24H385.852ZM385.792 267.56C385.079 267.56 384.482 267.797 384.002 268.27C383.529 268.737 383.229 269.377 383.102 270.19H388.482C388.422 269.45 388.179 268.827 387.752 268.32C387.332 267.813 386.746 267.56 385.992 267.56H385.792ZM392.832 276V261.4H394.832V276H392.832Z" fill="#2C749E"/>
<path d="M278.015 320C278.015 306.193 289.208 295 303.015 295H385.015V345H303.015C289.208 345 278.015 333.807 278.015 320V320Z" fill="white"/>
<path d="M300.727 315.96C300.387 315.96 300.117 315.857 299.917 315.65C299.717 315.443 299.617 315.177 299.617 314.85C299.617 314.523 299.717 314.257 299.917 314.05C300.117 313.843 300.387 313.74 300.727 313.74C301.067 313.74 301.337 313.843 301.537 314.05C301.737 314.257 301.837 314.523 301.837 314.85C301.837 315.177 301.737 315.443 301.537 315.65C301.337 315.857 301.067 315.96 300.727 315.96ZM299.937 328V318.05H301.517V328H299.937ZM308.212 328.22C306.225 328.22 304.785 327.57 303.892 326.27L304.992 325.31C305.699 326.323 306.769 326.83 308.202 326.83H308.382C309.115 326.83 309.685 326.703 310.092 326.45C310.505 326.19 310.712 325.827 310.712 325.36C310.712 324.96 310.572 324.64 310.292 324.4C310.019 324.16 309.552 323.973 308.892 323.84L307.092 323.47C305.185 323.083 304.232 322.193 304.232 320.8C304.232 319.907 304.585 319.19 305.292 318.65C306.005 318.103 306.942 317.83 308.102 317.83H308.302C309.995 317.83 311.262 318.447 312.102 319.68L311.002 320.57C310.669 320.097 310.279 319.753 309.832 319.54C309.385 319.327 308.869 319.22 308.282 319.22H308.102C307.415 319.22 306.859 319.35 306.432 319.61C306.012 319.863 305.802 320.217 305.802 320.67C305.802 321.023 305.932 321.307 306.192 321.52C306.452 321.727 306.885 321.893 307.492 322.02L309.462 322.43C310.349 322.617 311.039 322.94 311.532 323.4C312.032 323.86 312.282 324.487 312.282 325.28C312.282 326.153 311.942 326.863 311.262 327.41C310.589 327.95 309.642 328.22 308.422 328.22H308.212ZM314.061 328C314.507 326.493 315.017 324.93 315.591 323.31C316.171 321.683 316.784 320.077 317.431 318.49C318.084 316.903 318.737 315.407 319.391 314H321.431C322.091 315.407 322.744 316.903 323.391 318.49C324.037 320.077 324.651 321.683 325.231 323.31C325.811 324.93 326.321 326.493 326.761 328H324.951C324.777 327.36 324.584 326.703 324.371 326.03C324.164 325.35 323.944 324.66 323.711 323.96H317.051C316.817 324.66 316.594 325.35 316.381 326.03C316.174 326.703 315.984 327.36 315.811 328H314.061ZM317.591 322.4H323.171C322.737 321.187 322.281 319.983 321.801 318.79C321.327 317.597 320.854 316.47 320.381 315.41C319.914 316.47 319.441 317.597 318.961 318.79C318.481 319.983 318.024 321.187 317.591 322.4ZM333.063 328.22C332.116 328.22 331.283 328.01 330.563 327.59C329.843 327.163 329.28 326.563 328.873 325.79C328.473 325.01 328.273 324.09 328.273 323.03C328.273 321.97 328.473 321.05 328.873 320.27C329.273 319.49 329.833 318.89 330.553 318.47C331.273 318.043 332.11 317.83 333.063 317.83H333.263C334.036 317.83 334.753 318.02 335.413 318.4C336.073 318.78 336.61 319.297 337.023 319.95L335.813 320.82C335.506 320.347 335.136 319.977 334.703 319.71C334.27 319.437 333.776 319.3 333.223 319.3H333.033C332.073 319.3 331.313 319.64 330.753 320.32C330.193 320.993 329.913 321.897 329.913 323.03C329.913 324.157 330.193 325.06 330.753 325.74C331.313 326.413 332.073 326.75 333.033 326.75H333.223C333.783 326.75 334.283 326.63 334.723 326.39C335.17 326.15 335.553 325.827 335.873 325.42L337.023 326.36C336.596 326.94 336.056 327.397 335.403 327.73C334.75 328.057 334.036 328.22 333.263 328.22H333.063ZM343.749 328.12C342.642 328.12 341.789 327.843 341.189 327.29C340.589 326.737 340.289 325.857 340.289 324.65V319.42H338.329V318.05H340.289V315.02H341.869V318.05H345.389V319.42H341.869V324.43C341.869 325.263 342.049 325.847 342.409 326.18C342.775 326.507 343.295 326.67 343.969 326.67C344.262 326.67 344.529 326.657 344.769 326.63C345.009 326.597 345.259 326.553 345.519 326.5V327.89C345.245 327.957 344.955 328.01 344.649 328.05C344.342 328.097 344.042 328.12 343.749 328.12ZM348.578 315.96C348.238 315.96 347.968 315.857 347.768 315.65C347.568 315.443 347.468 315.177 347.468 314.85C347.468 314.523 347.568 314.257 347.768 314.05C347.968 313.843 348.238 313.74 348.578 313.74C348.918 313.74 349.188 313.843 349.388 314.05C349.588 314.257 349.688 314.523 349.688 314.85C349.688 315.177 349.588 315.443 349.388 315.65C349.188 315.857 348.918 315.96 348.578 315.96ZM347.788 328V318.05H349.368V328H347.788ZM355.484 328C354.764 326.387 354.074 324.747 353.414 323.08C352.76 321.413 352.15 319.737 351.584 318.05H353.364C353.81 319.497 354.297 320.943 354.824 322.39C355.357 323.83 355.914 325.263 356.494 326.69C357.08 325.263 357.637 323.83 358.164 322.39C358.69 320.943 359.18 319.497 359.634 318.05H361.344C360.777 319.737 360.167 321.413 359.514 323.08C358.86 324.747 358.174 326.387 357.454 328H355.484ZM367.242 328.22C366.295 328.22 365.465 328.003 364.752 327.57C364.039 327.137 363.482 326.53 363.082 325.75C362.689 324.97 362.492 324.063 362.492 323.03C362.492 322.017 362.689 321.12 363.082 320.34C363.475 319.553 364.022 318.94 364.722 318.5C365.429 318.053 366.245 317.83 367.172 317.83H367.362C368.242 317.83 369.009 318.05 369.662 318.49C370.315 318.923 370.819 319.537 371.172 320.33C371.532 321.123 371.712 322.057 371.712 323.13V323.67H364.112C364.219 324.623 364.552 325.38 365.112 325.94C365.679 326.5 366.412 326.78 367.312 326.78H367.492C368.025 326.78 368.519 326.673 368.972 326.46C369.432 326.247 369.819 325.953 370.132 325.58L371.142 326.61C370.709 327.11 370.172 327.503 369.532 327.79C368.892 328.077 368.195 328.22 367.442 328.22H367.242ZM367.142 319.26C366.315 319.26 365.632 319.54 365.092 320.1C364.552 320.66 364.229 321.413 364.122 322.36H370.122C370.075 321.48 369.809 320.743 369.322 320.15C368.842 319.557 368.175 319.26 367.322 319.26H367.142Z" fill="#606BD6"/>
<path d="M278.015 320C278.015 306.193 289.208 295 303.015 295H385.015V345H303.015C289.208 345 278.015 333.807 278.015 320V320Z" stroke="#606BD6" stroke-linejoin="bevel"/>
<path d="M385.015 295H437.015C450.822 295 462.015 306.193 462.015 320V320C462.015 333.807 450.822 345 437.015 345H385.015V295Z" fill="white"/>
<path d="M399.605 328V319.42H397.735V318.05H399.605V316.8C399.605 315.62 399.905 314.723 400.505 314.11C401.105 313.49 401.935 313.18 402.995 313.18C403.621 313.18 404.171 313.25 404.645 313.39V314.8C404.371 314.727 404.118 314.677 403.885 314.65C403.658 314.623 403.435 314.61 403.215 314.61C401.861 314.61 401.185 315.303 401.185 316.69V318.05H404.575V319.42H401.185V328H399.605ZM408.863 328.19C407.816 328.19 407.003 327.927 406.423 327.4C405.849 326.873 405.563 326.167 405.563 325.28C405.563 324.42 405.883 323.707 406.523 323.14C407.169 322.567 408.206 322.28 409.633 322.28H412.533V322.07C412.533 320.21 411.683 319.28 409.983 319.28C409.289 319.28 408.706 319.407 408.233 319.66C407.766 319.913 407.389 320.273 407.103 320.74L405.993 319.9C406.393 319.233 406.929 318.723 407.603 318.37C408.283 318.01 409.066 317.83 409.953 317.83H410.153C411.359 317.83 412.316 318.18 413.023 318.88C413.729 319.573 414.083 320.6 414.083 321.96V328H412.553V326.15C412.173 326.797 411.669 327.3 411.043 327.66C410.416 328.013 409.689 328.19 408.863 328.19ZM409.163 326.78C410.016 326.78 410.723 326.573 411.283 326.16C411.843 325.74 412.259 325.173 412.533 324.46V323.54H409.703C408.776 323.54 408.119 323.687 407.733 323.98C407.353 324.273 407.163 324.673 407.163 325.18C407.163 325.687 407.329 326.08 407.663 326.36C407.996 326.64 408.496 326.78 409.163 326.78ZM417.13 328V313.4H418.71V328H417.13ZM425.405 328.22C423.419 328.22 421.979 327.57 421.085 326.27L422.185 325.31C422.892 326.323 423.962 326.83 425.395 326.83H425.575C426.309 326.83 426.879 326.703 427.285 326.45C427.699 326.19 427.905 325.827 427.905 325.36C427.905 324.96 427.765 324.64 427.485 324.4C427.212 324.16 426.745 323.973 426.085 323.84L424.285 323.47C422.379 323.083 421.425 322.193 421.425 320.8C421.425 319.907 421.779 319.19 422.485 318.65C423.199 318.103 424.135 317.83 425.295 317.83H425.495C427.189 317.83 428.455 318.447 429.295 319.68L428.195 320.57C427.862 320.097 427.472 319.753 427.025 319.54C426.579 319.327 426.062 319.22 425.475 319.22H425.295C424.609 319.22 424.052 319.35 423.625 319.61C423.205 319.863 422.995 320.217 422.995 320.67C422.995 321.023 423.125 321.307 423.385 321.52C423.645 321.727 424.079 321.893 424.685 322.02L426.655 322.43C427.542 322.617 428.232 322.94 428.725 323.4C429.225 323.86 429.475 324.487 429.475 325.28C429.475 326.153 429.135 326.863 428.455 327.41C427.782 327.95 426.835 328.22 425.615 328.22H425.405ZM436.154 328.22C435.207 328.22 434.377 328.003 433.664 327.57C432.951 327.137 432.394 326.53 431.994 325.75C431.601 324.97 431.404 324.063 431.404 323.03C431.404 322.017 431.601 321.12 431.994 320.34C432.387 319.553 432.934 318.94 433.634 318.5C434.341 318.053 435.157 317.83 436.084 317.83H436.274C437.154 317.83 437.921 318.05 438.574 318.49C439.227 318.923 439.731 319.537 440.084 320.33C440.444 321.123 440.624 322.057 440.624 323.13V323.67H433.024C433.131 324.623 433.464 325.38 434.024 325.94C434.591 326.5 435.324 326.78 436.224 326.78H436.404C436.937 326.78 437.431 326.673 437.884 326.46C438.344 326.247 438.731 325.953 439.044 325.58L440.054 326.61C439.621 327.11 439.084 327.503 438.444 327.79C437.804 328.077 437.107 328.22 436.354 328.22H436.154ZM436.054 319.26C435.227 319.26 434.544 319.54 434.004 320.1C433.464 320.66 433.141 321.413 433.034 322.36H439.034C438.987 321.48 438.721 320.743 438.234 320.15C437.754 319.557 437.087 319.26 436.234 319.26H436.054Z" fill="#606BD6"/>
<path d="M385.015 295H437.015C450.822 295 462.015 306.193 462.015 320V320C462.015 333.807 450.822 345 437.015 345H385.015V295Z" stroke="#606BD6" stroke-linejoin="bevel"/>
<rect x="260.015" y="235" width="220" height="130" rx="6" stroke="#2C749E" stroke-linejoin="bevel"/>
</g>
<path d="M367.152 235V187.827C367.152 178.99 359.989 171.827 351.152 171.827H237.645V106" stroke="#2C749E" stroke-width="2"/>
<path d="M108.138 235V187.827C108.138 178.99 115.301 171.827 124.138 171.827H237.645V106" stroke="#2C749E" stroke-width="2"/>
<defs>
<filter id="filter0_d_620_6297" x="127.652" y="0.5" width="217" height="108" filterUnits="userSpaceOnUse" color-interpolation-filters="sRGB">
<feFlood flood-opacity="0" result="BackgroundImageFix"/>
<feColorMatrix in="SourceAlpha" type="matrix" values="0 0 0 0 0 0 0 0 0 0 0 0 0 0 0 0 0 0 127 0" result="hardAlpha"/>
<feOffset dy="2"/>
<feComposite in2="hardAlpha" operator="out"/>
<feColorMatrix type="matrix" values="0 0 0 0 0.235294 0 0 0 0 0.435294 0 0 0 0 0.635294 0 0 0 1 0"/>
<feBlend mode="normal" in2="BackgroundImageFix" result="effect1_dropShadow_620_6297"/>
<feBlend mode="normal" in="SourceGraphic" in2="effect1_dropShadow_620_6297" result="shape"/>
</filter>
<filter id="filter1_d_620_6297" x="0.5" y="234.5" width="221" height="133" filterUnits="userSpaceOnUse" color-interpolation-filters="sRGB">
<feFlood flood-opacity="0" result="BackgroundImageFix"/>
<feColorMatrix in="SourceAlpha" type="matrix" values="0 0 0 0 0 0 0 0 0 0 0 0 0 0 0 0 0 0 127 0" result="hardAlpha"/>
<feOffset dy="2"/>
<feComposite in2="hardAlpha" operator="out"/>
<feColorMatrix type="matrix" values="0 0 0 0 0.235294 0 0 0 0 0.435294 0 0 0 0 0.635294 0 0 0 1 0"/>
<feBlend mode="normal" in2="BackgroundImageFix" result="effect1_dropShadow_620_6297"/>
<feBlend mode="normal" in="SourceGraphic" in2="effect1_dropShadow_620_6297" result="shape"/>
</filter>
<filter id="filter2_d_620_6297" x="259.515" y="234.5" width="221" height="133" filterUnits="userSpaceOnUse" color-interpolation-filters="sRGB">
<feFlood flood-opacity="0" result="BackgroundImageFix"/>
<feColorMatrix in="SourceAlpha" type="matrix" values="0 0 0 0 0 0 0 0 0 0 0 0 0 0 0 0 0 0 127 0" result="hardAlpha"/>
<feOffset dy="2"/>
<feComposite in2="hardAlpha" operator="out"/>
<feColorMatrix type="matrix" values="0 0 0 0 0.235294 0 0 0 0 0.435294 0 0 0 0 0.635294 0 0 0 1 0"/>
<feBlend mode="normal" in2="BackgroundImageFix" result="effect1_dropShadow_620_6297"/>
<feBlend mode="normal" in="SourceGraphic" in2="effect1_dropShadow_620_6297" result="shape"/>
</filter>
</defs>
</svg>
