<svg width="408" height="368" viewBox="0 0 408 368" fill="none" xmlns="http://www.w3.org/2000/svg">
<g filter="url(#filter0_d_419_4571)">
<path d="M109 7C109 3.68629 111.686 1 115 1H289C292.314 1 295 3.68629 295 7V100C295 103.314 292.314 106 289 106H115C111.686 106 109 103.314 109 100V7Z" fill="#343A46"/>
<path d="M169.565 61.5V47.5H172.065L176.965 56.09L181.835 47.5H184.335V61.5H182.295V50.42L177.915 58.14H175.985L171.605 50.47V61.5H169.565ZM188.427 65.94C188.141 65.94 187.871 65.9167 187.617 65.87V64.07C187.831 64.1033 188.017 64.12 188.177 64.12C188.877 64.12 189.447 63.92 189.887 63.52C190.327 63.1267 190.714 62.5467 191.047 61.78C190.227 60.1333 189.457 58.4467 188.737 56.72C188.017 54.9933 187.331 53.2533 186.677 51.5H188.997C189.424 52.84 189.884 54.18 190.377 55.52C190.877 56.8533 191.407 58.1733 191.967 59.48L194.697 51.5H196.877L192.967 61.81C192.467 63.13 191.874 64.1467 191.187 64.86C190.501 65.58 189.581 65.94 188.427 65.94ZM198.082 61.5C198.522 59.9667 199.029 58.3833 199.602 56.75C200.175 55.1167 200.779 53.51 201.412 51.93C202.052 50.3433 202.692 48.8667 203.332 47.5H205.852C206.492 48.8667 207.132 50.3433 207.772 51.93C208.412 53.51 209.015 55.1167 209.582 56.75C210.155 58.3833 210.662 59.9667 211.102 61.5H208.812C208.659 60.9133 208.489 60.31 208.302 59.69C208.122 59.07 207.932 58.44 207.732 57.8H201.382C201.182 58.44 200.989 59.07 200.802 59.69C200.622 60.31 200.455 60.9133 200.302 61.5H198.082ZM202.042 55.84H207.072C206.672 54.6933 206.255 53.5667 205.822 52.46C205.395 51.3467 204.972 50.3033 204.552 49.33C204.139 50.3033 203.715 51.3467 203.282 52.46C202.855 53.5667 202.442 54.6933 202.042 55.84ZM213.314 65.7V51.5H215.314V53.07C215.66 52.47 216.114 52.02 216.674 51.72C217.234 51.4133 217.857 51.26 218.544 51.26H218.764C219.65 51.26 220.424 51.4867 221.084 51.94C221.75 52.3867 222.267 53.0067 222.634 53.8C223 54.5867 223.184 55.4867 223.184 56.5C223.184 57.5133 223 58.4167 222.634 59.21C222.267 59.9967 221.75 60.6167 221.084 61.07C220.424 61.5167 219.65 61.74 218.764 61.74H218.544C217.884 61.74 217.27 61.6 216.704 61.32C216.144 61.0333 215.68 60.61 215.314 60.05V65.7H213.314ZM218.064 59.89H218.264C219.137 59.89 219.83 59.5967 220.344 59.01C220.857 58.4233 221.114 57.5867 221.114 56.5C221.114 55.4133 220.857 54.5767 220.344 53.99C219.83 53.4033 219.137 53.11 218.264 53.11H218.064C217.47 53.11 216.934 53.2867 216.454 53.64C215.98 53.9933 215.6 54.4767 215.314 55.09V57.91C215.6 58.5233 215.98 59.0067 216.454 59.36C216.934 59.7133 217.47 59.89 218.064 59.89ZM225.579 65.7V51.5H227.579V53.07C227.926 52.47 228.379 52.02 228.939 51.72C229.499 51.4133 230.123 51.26 230.809 51.26H231.029C231.916 51.26 232.689 51.4867 233.349 51.94C234.016 52.3867 234.533 53.0067 234.899 53.8C235.266 54.5867 235.449 55.4867 235.449 56.5C235.449 57.5133 235.266 58.4167 234.899 59.21C234.533 59.9967 234.016 60.6167 233.349 61.07C232.689 61.5167 231.916 61.74 231.029 61.74H230.809C230.149 61.74 229.536 61.6 228.969 61.32C228.409 61.0333 227.946 60.61 227.579 60.05V65.7H225.579ZM230.329 59.89H230.529C231.403 59.89 232.096 59.5967 232.609 59.01C233.123 58.4233 233.379 57.5867 233.379 56.5C233.379 55.4133 233.123 54.5767 232.609 53.99C232.096 53.4033 231.403 53.11 230.529 53.11H230.329C229.736 53.11 229.199 53.2867 228.719 53.64C228.246 53.9933 227.866 54.4767 227.579 55.09V57.91C227.866 58.5233 228.246 59.0067 228.719 59.36C229.199 59.7133 229.736 59.89 230.329 59.89Z" fill="white"/>
<path d="M115 1.5H289V0.5H115V1.5ZM294.5 7V100H295.5V7H294.5ZM289 105.5H115V106.5H289V105.5ZM109.5 100V7H108.5V100H109.5ZM115 105.5C111.962 105.5 109.5 103.038 109.5 100H108.5C108.5 103.59 111.41 106.5 115 106.5V105.5ZM294.5 100C294.5 103.038 292.038 105.5 289 105.5V106.5C292.59 106.5 295.5 103.59 295.5 100H294.5ZM289 1.5C292.038 1.5 294.5 3.96243 294.5 7H295.5C295.5 3.41015 292.59 0.5 289 0.5V1.5ZM115 0.5C111.41 0.5 108.5 3.41015 108.5 7H109.5C109.5 3.96243 111.962 1.5 115 1.5V0.5Z" fill="white"/>
</g>
<g filter="url(#filter1_d_419_4571)">
<rect x="1" y="235" width="185" height="130" rx="6" fill="#343A46"/>
<path d="M47.1588 276V262H49.6588L54.5588 270.59L59.4288 262H61.9288V276H59.8888V264.92L55.5088 272.64H53.5788L49.1988 264.97V276H47.1588ZM66.0211 280.44C65.7344 280.44 65.4644 280.417 65.2111 280.37V278.57C65.4244 278.603 65.6111 278.62 65.7711 278.62C66.4711 278.62 67.0411 278.42 67.4811 278.02C67.9211 277.627 68.3078 277.047 68.6411 276.28C67.8211 274.633 67.0511 272.947 66.3311 271.22C65.6111 269.493 64.9244 267.753 64.2711 266H66.5911C67.0178 267.34 67.4778 268.68 67.9711 270.02C68.4711 271.353 69.0011 272.673 69.5611 273.98L72.2911 266H74.4711L70.5611 276.31C70.0611 277.63 69.4678 278.647 68.7811 279.36C68.0944 280.08 67.1744 280.44 66.0211 280.44ZM76.8658 276V262H82.8258C84.3658 262 85.5324 262.323 86.3258 262.97C87.1191 263.617 87.5158 264.5 87.5158 265.62C87.5158 266.307 87.3524 266.917 87.0258 267.45C86.6991 267.983 86.1224 268.38 85.2958 268.64C86.3424 268.887 87.1024 269.317 87.5758 269.93C88.0558 270.543 88.2958 271.287 88.2958 272.16C88.2958 273.367 87.8724 274.31 87.0258 274.99C86.1858 275.663 84.9758 276 83.3958 276H76.8658ZM82.7058 263.94H78.9658V268.04H82.7958C83.6891 268.04 84.3458 267.873 84.7658 267.54C85.1924 267.2 85.4058 266.68 85.4058 265.98C85.4058 265.28 85.1858 264.767 84.7458 264.44C84.3058 264.107 83.6258 263.94 82.7058 263.94ZM83.3158 269.96H78.9658V274.06H83.3658C85.2191 274.06 86.1458 273.377 86.1458 272.01C86.1458 271.317 85.9358 270.803 85.5158 270.47C85.1024 270.13 84.3691 269.96 83.3158 269.96ZM94.0531 276.24C92.8998 276.24 92.0198 275.85 91.4131 275.07C90.8065 274.29 90.5031 273.193 90.5031 271.78V266H92.5031V271.54C92.5031 273.433 93.1898 274.38 94.5631 274.38H94.7631C95.4431 274.38 96.0198 274.17 96.4931 273.75C96.9731 273.33 97.3298 272.8 97.5631 272.16V266H99.5631V276H97.5631V274.33C97.1965 274.923 96.7365 275.39 96.1831 275.73C95.6365 276.07 94.9998 276.24 94.2731 276.24H94.0531ZM107.009 276.13C105.822 276.13 104.919 275.83 104.299 275.23C103.679 274.63 103.369 273.707 103.369 272.46V267.74H101.409V266H103.369V263.02H105.369V266H108.739V267.74H105.369V272.19C105.369 272.977 105.532 273.523 105.859 273.83C106.186 274.137 106.669 274.29 107.309 274.29C107.616 274.29 107.889 274.277 108.129 274.25C108.376 274.223 108.629 274.19 108.889 274.15V275.9C108.622 275.967 108.322 276.02 107.989 276.06C107.656 276.107 107.329 276.13 107.009 276.13ZM115.447 276.13C114.26 276.13 113.357 275.83 112.737 275.23C112.117 274.63 111.807 273.707 111.807 272.46V267.74H109.847V266H111.807V263.02H113.807V266H117.177V267.74H113.807V272.19C113.807 272.977 113.97 273.523 114.297 273.83C114.623 274.137 115.107 274.29 115.747 274.29C116.053 274.29 116.327 274.277 116.567 274.25C116.813 274.223 117.067 274.19 117.327 274.15V275.9C117.06 275.967 116.76 276.02 116.427 276.06C116.093 276.107 115.767 276.13 115.447 276.13ZM123.824 276.24C122.811 276.24 121.927 276.017 121.174 275.57C120.427 275.117 119.851 274.497 119.444 273.71C119.037 272.917 118.834 272.013 118.834 271C118.834 269.98 119.037 269.077 119.444 268.29C119.851 267.503 120.427 266.887 121.174 266.44C121.927 265.987 122.811 265.76 123.824 265.76H124.044C125.064 265.76 125.947 265.987 126.694 266.44C127.441 266.887 128.017 267.503 128.424 268.29C128.831 269.077 129.034 269.98 129.034 271C129.034 272.013 128.831 272.917 128.424 273.71C128.017 274.497 127.441 275.117 126.694 275.57C125.947 276.017 125.064 276.24 124.044 276.24H123.824ZM123.834 274.38H124.034C124.947 274.38 125.664 274.073 126.184 273.46C126.704 272.847 126.964 272.027 126.964 271C126.964 269.967 126.704 269.147 126.184 268.54C125.664 267.927 124.947 267.62 124.034 267.62H123.834C122.927 267.62 122.211 267.927 121.684 268.54C121.164 269.147 120.904 269.967 120.904 271C120.904 272.027 121.164 272.847 121.684 273.46C122.211 274.073 122.927 274.38 123.834 274.38ZM131.415 276V266H133.415V267.67C133.782 267.077 134.239 266.61 134.785 266.27C135.339 265.93 135.979 265.76 136.705 265.76H136.925C138.032 265.76 138.899 266.15 139.525 266.93C140.159 267.71 140.475 268.807 140.475 270.22V276H138.475V270.46C138.475 268.567 137.789 267.62 136.415 267.62H136.215C135.535 267.62 134.955 267.83 134.475 268.25C134.002 268.67 133.649 269.2 133.415 269.84V276H131.415Z" fill="white"/>
<rect x="21" y="289" width="145" height="62" rx="31" stroke="#C76A15" stroke-width="4" stroke-linejoin="bevel"/>
<rect x="25" y="293" width="137" height="54" rx="27" stroke="#FABD62" stroke-width="4" stroke-linejoin="bevel"/>
<path d="M27 320C27 306.193 38.1929 295 52 295H114V345H52C38.1929 345 27 333.807 27 320V320Z" fill="#343A46"/>
<path d="M53.0641 328.22C52.1175 328.22 51.2841 328.01 50.5641 327.59C49.8441 327.163 49.2808 326.563 48.8741 325.79C48.4741 325.01 48.2741 324.09 48.2741 323.03C48.2741 321.97 48.4741 321.05 48.8741 320.27C49.2741 319.49 49.8341 318.89 50.5541 318.47C51.2741 318.043 52.1108 317.83 53.0641 317.83H53.2641C54.0375 317.83 54.7541 318.02 55.4141 318.4C56.0741 318.78 56.6108 319.297 57.0241 319.95L55.8141 320.82C55.5075 320.347 55.1375 319.977 54.7041 319.71C54.2708 319.437 53.7775 319.3 53.2241 319.3H53.0341C52.0741 319.3 51.3141 319.64 50.7541 320.32C50.1941 320.993 49.9141 321.897 49.9141 323.03C49.9141 324.157 50.1941 325.06 50.7541 325.74C51.3141 326.413 52.0741 326.75 53.0341 326.75H53.2241C53.7841 326.75 54.2841 326.63 54.7241 326.39C55.1708 326.15 55.5541 325.827 55.8741 325.42L57.0241 326.36C56.5975 326.94 56.0575 327.397 55.4041 327.73C54.7508 328.057 54.0375 328.22 53.2641 328.22H53.0641ZM63.7396 328.22C62.7463 328.22 61.8863 327.997 61.1596 327.55C60.4329 327.103 59.8696 326.49 59.4696 325.71C59.0763 324.93 58.8796 324.037 58.8796 323.03C58.8796 322.017 59.0763 321.12 59.4696 320.34C59.8696 319.56 60.4329 318.947 61.1596 318.5C61.8863 318.053 62.7463 317.83 63.7396 317.83H63.9396C64.9329 317.83 65.7929 318.053 66.5196 318.5C67.2463 318.947 67.8063 319.56 68.1996 320.34C68.5996 321.12 68.7996 322.017 68.7996 323.03C68.7996 324.037 68.5996 324.93 68.1996 325.71C67.8063 326.49 67.2463 327.103 66.5196 327.55C65.7929 327.997 64.9329 328.22 63.9396 328.22H63.7396ZM63.7496 326.76H63.9296C64.9229 326.76 65.7096 326.42 66.2896 325.74C66.8696 325.06 67.1596 324.157 67.1596 323.03C67.1596 321.897 66.8696 320.993 66.2896 320.32C65.7096 319.64 64.9229 319.3 63.9296 319.3H63.7496C62.7563 319.3 61.9696 319.64 61.3896 320.32C60.8096 320.993 60.5196 321.897 60.5196 323.03C60.5196 324.157 60.8096 325.06 61.3896 325.74C61.9696 326.42 62.7563 326.76 63.7496 326.76ZM74.8123 328.22C73.6589 328.22 72.7789 327.843 72.1723 327.09C71.5656 326.337 71.2623 325.267 71.2623 323.88V318.05H72.8423V323.65C72.8423 324.677 73.0323 325.453 73.4123 325.98C73.7989 326.5 74.3956 326.76 75.2023 326.76H75.3823C76.1223 326.76 76.7556 326.52 77.2823 326.04C77.8089 325.553 78.1956 324.947 78.4423 324.22V318.05H80.0223V328H78.4423V326.11C78.0756 326.763 77.6023 327.28 77.0223 327.66C76.4423 328.033 75.7723 328.22 75.0123 328.22H74.8123ZM83.2191 328V318.05H84.7991V319.94C85.1658 319.287 85.6391 318.773 86.2191 318.4C86.7991 318.02 87.4691 317.83 88.2291 317.83H88.4291C89.5558 317.83 90.4291 318.207 91.0491 318.96C91.6691 319.707 91.9791 320.777 91.9791 322.17V328H90.3991V322.4C90.3991 321.373 90.2091 320.6 89.8291 320.08C89.4491 319.56 88.8525 319.3 88.0391 319.3H87.8491C87.1091 319.3 86.4758 319.54 85.9491 320.02C85.4291 320.5 85.0458 321.103 84.7991 321.83V328H83.2191ZM99.316 328.12C98.2093 328.12 97.356 327.843 96.756 327.29C96.156 326.737 95.856 325.857 95.856 324.65V319.42H93.896V318.05H95.856V315.02H97.436V318.05H100.956V319.42H97.436V324.43C97.436 325.263 97.616 325.847 97.976 326.18C98.3427 326.507 98.8627 326.67 99.536 326.67C99.8293 326.67 100.096 326.657 100.336 326.63C100.576 326.597 100.826 326.553 101.086 326.5V327.89C100.813 327.957 100.523 328.01 100.216 328.05C99.9093 328.097 99.6093 328.12 99.316 328.12Z" fill="#8891EC"/>
<path d="M27 320C27 306.193 38.1929 295 52 295H114V345H52C38.1929 345 27 333.807 27 320V320Z" stroke="#FABD62" stroke-linejoin="bevel"/>
<path d="M115 295H135C148.807 295 160 306.193 160 320V320C160 333.807 148.807 345 135 345H115V295Z" fill="#343A46"/>
<path d="M133.24 328V317L130.54 319.44L128.87 317.5L132.75 314H136.05V328H133.24Z" fill="#8891EC"/>
<path d="M115 295H135C148.807 295 160 306.193 160 320V320C160 333.807 148.807 345 135 345H115V295Z" stroke="#FABD62" stroke-linejoin="bevel"/>
<path d="M170.406 293.833L168.676 298.529C168.625 298.667 168.533 298.786 168.412 298.871C168.291 298.955 168.147 299 168 299C167.853 299 167.709 298.955 167.588 298.871C167.467 298.786 167.375 298.667 167.324 298.529L165.594 293.833C165.558 293.735 165.501 293.646 165.428 293.572C165.354 293.499 165.265 293.442 165.167 293.406L160.471 291.676C160.333 291.625 160.214 291.533 160.129 291.412C160.045 291.291 160 291.147 160 291C160 290.853 160.045 290.709 160.129 290.588C160.214 290.467 160.333 290.375 160.471 290.324L165.167 288.594C165.265 288.558 165.354 288.501 165.428 288.428C165.501 288.354 165.558 288.265 165.594 288.167L167.324 283.471C167.375 283.333 167.467 283.214 167.588 283.129C167.709 283.045 167.853 283 168 283C168.147 283 168.291 283.045 168.412 283.129C168.533 283.214 168.625 283.333 168.676 283.471L170.406 288.167C170.442 288.265 170.499 288.354 170.572 288.428C170.646 288.501 170.735 288.558 170.833 288.594L175.529 290.324C175.667 290.375 175.786 290.467 175.871 290.588C175.955 290.709 176 290.853 176 291C176 291.147 175.955 291.291 175.871 291.412C175.786 291.533 175.667 291.625 175.529 291.676L170.833 293.406C170.735 293.442 170.646 293.499 170.572 293.572C170.499 293.646 170.442 293.735 170.406 293.833V293.833Z" fill="#FABD62"/>
<path d="M177.504 305.77L176.422 308.705C176.391 308.792 176.333 308.866 176.257 308.919C176.182 308.972 176.092 309 176 309C175.908 309 175.818 308.972 175.743 308.919C175.667 308.866 175.609 308.792 175.578 308.705L174.496 305.77C174.474 305.709 174.438 305.654 174.392 305.608C174.346 305.562 174.291 305.526 174.23 305.504L171.295 304.422C171.208 304.391 171.134 304.333 171.081 304.257C171.028 304.182 171 304.092 171 304C171 303.908 171.028 303.818 171.081 303.743C171.134 303.667 171.208 303.609 171.295 303.578L174.23 302.496C174.291 302.474 174.346 302.438 174.392 302.392C174.438 302.346 174.474 302.291 174.496 302.23L175.578 299.295C175.609 299.208 175.667 299.134 175.743 299.081C175.818 299.028 175.908 299 176 299C176.092 299 176.182 299.028 176.257 299.081C176.333 299.134 176.391 299.208 176.422 299.295L177.504 302.23C177.526 302.291 177.562 302.346 177.608 302.392C177.654 302.438 177.709 302.474 177.77 302.496L180.705 303.578C180.792 303.609 180.866 303.667 180.919 303.743C180.972 303.818 181 303.908 181 304C181 304.092 180.972 304.182 180.919 304.257C180.866 304.333 180.792 304.391 180.705 304.422L177.77 305.504C177.709 305.526 177.654 305.562 177.608 305.608C177.562 305.654 177.526 305.709 177.504 305.77V305.77Z" fill="#FABD62"/>
<rect x="1" y="235" width="185" height="130" rx="6" stroke="white" stroke-linejoin="bevel"/>
</g>
<g filter="url(#filter2_d_419_4571)">
<path d="M221 241C221 237.686 223.686 235 227 235H401C404.314 235 407 237.686 407 241V359C407 362.314 404.314 365 401 365H227C223.686 365 221 362.314 221 359V241Z" fill="#343A46"/>
<path d="M267.659 276V262H270.159L275.059 270.59L279.929 262H282.429V276H280.389V264.92L276.009 272.64H274.079L269.699 264.97V276H267.659ZM286.521 280.44C286.234 280.44 285.964 280.417 285.711 280.37V278.57C285.924 278.603 286.111 278.62 286.271 278.62C286.971 278.62 287.541 278.42 287.981 278.02C288.421 277.627 288.808 277.047 289.141 276.28C288.321 274.633 287.551 272.947 286.831 271.22C286.111 269.493 285.424 267.753 284.771 266H287.091C287.518 267.34 287.978 268.68 288.471 270.02C288.971 271.353 289.501 272.673 290.061 273.98L292.791 266H294.971L291.061 276.31C290.561 277.63 289.968 278.647 289.281 279.36C288.594 280.08 287.674 280.44 286.521 280.44ZM297.366 276V262H303.326C304.866 262 306.032 262.323 306.826 262.97C307.619 263.617 308.016 264.5 308.016 265.62C308.016 266.307 307.852 266.917 307.526 267.45C307.199 267.983 306.622 268.38 305.796 268.64C306.842 268.887 307.602 269.317 308.076 269.93C308.556 270.543 308.796 271.287 308.796 272.16C308.796 273.367 308.372 274.31 307.526 274.99C306.686 275.663 305.476 276 303.896 276H297.366ZM303.206 263.94H299.466V268.04H303.296C304.189 268.04 304.846 267.873 305.266 267.54C305.692 267.2 305.906 266.68 305.906 265.98C305.906 265.28 305.686 264.767 305.246 264.44C304.806 264.107 304.126 263.94 303.206 263.94ZM303.816 269.96H299.466V274.06H303.866C305.719 274.06 306.646 273.377 306.646 272.01C306.646 271.317 306.436 270.803 306.016 270.47C305.602 270.13 304.869 269.96 303.816 269.96ZM314.553 276.24C313.4 276.24 312.52 275.85 311.913 275.07C311.306 274.29 311.003 273.193 311.003 271.78V266H313.003V271.54C313.003 273.433 313.69 274.38 315.063 274.38H315.263C315.943 274.38 316.52 274.17 316.993 273.75C317.473 273.33 317.83 272.8 318.063 272.16V266H320.063V276H318.063V274.33C317.696 274.923 317.236 275.39 316.683 275.73C316.136 276.07 315.5 276.24 314.773 276.24H314.553ZM327.509 276.13C326.322 276.13 325.419 275.83 324.799 275.23C324.179 274.63 323.869 273.707 323.869 272.46V267.74H321.909V266H323.869V263.02H325.869V266H329.239V267.74H325.869V272.19C325.869 272.977 326.032 273.523 326.359 273.83C326.686 274.137 327.169 274.29 327.809 274.29C328.116 274.29 328.389 274.277 328.629 274.25C328.876 274.223 329.129 274.19 329.389 274.15V275.9C329.122 275.967 328.822 276.02 328.489 276.06C328.156 276.107 327.829 276.13 327.509 276.13ZM335.947 276.13C334.76 276.13 333.857 275.83 333.237 275.23C332.617 274.63 332.307 273.707 332.307 272.46V267.74H330.347V266H332.307V263.02H334.307V266H337.677V267.74H334.307V272.19C334.307 272.977 334.47 273.523 334.797 273.83C335.123 274.137 335.607 274.29 336.247 274.29C336.553 274.29 336.827 274.277 337.067 274.25C337.313 274.223 337.567 274.19 337.827 274.15V275.9C337.56 275.967 337.26 276.02 336.927 276.06C336.593 276.107 336.267 276.13 335.947 276.13ZM344.324 276.24C343.311 276.24 342.427 276.017 341.674 275.57C340.927 275.117 340.351 274.497 339.944 273.71C339.537 272.917 339.334 272.013 339.334 271C339.334 269.98 339.537 269.077 339.944 268.29C340.351 267.503 340.927 266.887 341.674 266.44C342.427 265.987 343.311 265.76 344.324 265.76H344.544C345.564 265.76 346.447 265.987 347.194 266.44C347.941 266.887 348.517 267.503 348.924 268.29C349.331 269.077 349.534 269.98 349.534 271C349.534 272.013 349.331 272.917 348.924 273.71C348.517 274.497 347.941 275.117 347.194 275.57C346.447 276.017 345.564 276.24 344.544 276.24H344.324ZM344.334 274.38H344.534C345.447 274.38 346.164 274.073 346.684 273.46C347.204 272.847 347.464 272.027 347.464 271C347.464 269.967 347.204 269.147 346.684 268.54C346.164 267.927 345.447 267.62 344.534 267.62H344.334C343.427 267.62 342.711 267.927 342.184 268.54C341.664 269.147 341.404 269.967 341.404 271C341.404 272.027 341.664 272.847 342.184 273.46C342.711 274.073 343.427 274.38 344.334 274.38ZM351.915 276V266H353.915V267.67C354.282 267.077 354.739 266.61 355.285 266.27C355.839 265.93 356.479 265.76 357.205 265.76H357.425C358.532 265.76 359.399 266.15 360.025 266.93C360.659 267.71 360.975 268.807 360.975 270.22V276H358.975V270.46C358.975 268.567 358.289 267.62 356.915 267.62H356.715C356.035 267.62 355.455 267.83 354.975 268.25C354.502 268.67 354.149 269.2 353.915 269.84V276H351.915Z" fill="white"/>
<path d="M247.5 320C247.5 306.193 258.693 295 272.5 295H334.5V345H272.5C258.693 345 247.5 333.807 247.5 320V320Z" fill="#343A46"/>
<path d="M273.564 328.22C272.617 328.22 271.784 328.01 271.064 327.59C270.344 327.163 269.781 326.563 269.374 325.79C268.974 325.01 268.774 324.09 268.774 323.03C268.774 321.97 268.974 321.05 269.374 320.27C269.774 319.49 270.334 318.89 271.054 318.47C271.774 318.043 272.611 317.83 273.564 317.83H273.764C274.537 317.83 275.254 318.02 275.914 318.4C276.574 318.78 277.111 319.297 277.524 319.95L276.314 320.82C276.007 320.347 275.637 319.977 275.204 319.71C274.771 319.437 274.277 319.3 273.724 319.3H273.534C272.574 319.3 271.814 319.64 271.254 320.32C270.694 320.993 270.414 321.897 270.414 323.03C270.414 324.157 270.694 325.06 271.254 325.74C271.814 326.413 272.574 326.75 273.534 326.75H273.724C274.284 326.75 274.784 326.63 275.224 326.39C275.671 326.15 276.054 325.827 276.374 325.42L277.524 326.36C277.097 326.94 276.557 327.397 275.904 327.73C275.251 328.057 274.537 328.22 273.764 328.22H273.564ZM284.24 328.22C283.246 328.22 282.386 327.997 281.66 327.55C280.933 327.103 280.37 326.49 279.97 325.71C279.576 324.93 279.38 324.037 279.38 323.03C279.38 322.017 279.576 321.12 279.97 320.34C280.37 319.56 280.933 318.947 281.66 318.5C282.386 318.053 283.246 317.83 284.24 317.83H284.44C285.433 317.83 286.293 318.053 287.02 318.5C287.746 318.947 288.306 319.56 288.7 320.34C289.1 321.12 289.3 322.017 289.3 323.03C289.3 324.037 289.1 324.93 288.7 325.71C288.306 326.49 287.746 327.103 287.02 327.55C286.293 327.997 285.433 328.22 284.44 328.22H284.24ZM284.25 326.76H284.43C285.423 326.76 286.21 326.42 286.79 325.74C287.37 325.06 287.66 324.157 287.66 323.03C287.66 321.897 287.37 320.993 286.79 320.32C286.21 319.64 285.423 319.3 284.43 319.3H284.25C283.256 319.3 282.47 319.64 281.89 320.32C281.31 320.993 281.02 321.897 281.02 323.03C281.02 324.157 281.31 325.06 281.89 325.74C282.47 326.42 283.256 326.76 284.25 326.76ZM295.312 328.22C294.159 328.22 293.279 327.843 292.672 327.09C292.066 326.337 291.762 325.267 291.762 323.88V318.05H293.342V323.65C293.342 324.677 293.532 325.453 293.912 325.98C294.299 326.5 294.896 326.76 295.702 326.76H295.882C296.622 326.76 297.256 326.52 297.782 326.04C298.309 325.553 298.696 324.947 298.942 324.22V318.05H300.522V328H298.942V326.11C298.576 326.763 298.102 327.28 297.522 327.66C296.942 328.033 296.272 328.22 295.512 328.22H295.312ZM303.719 328V318.05H305.299V319.94C305.666 319.287 306.139 318.773 306.719 318.4C307.299 318.02 307.969 317.83 308.729 317.83H308.929C310.056 317.83 310.929 318.207 311.549 318.96C312.169 319.707 312.479 320.777 312.479 322.17V328H310.899V322.4C310.899 321.373 310.709 320.6 310.329 320.08C309.949 319.56 309.352 319.3 308.539 319.3H308.349C307.609 319.3 306.976 319.54 306.449 320.02C305.929 320.5 305.546 321.103 305.299 321.83V328H303.719ZM319.816 328.12C318.709 328.12 317.856 327.843 317.256 327.29C316.656 326.737 316.356 325.857 316.356 324.65V319.42H314.396V318.05H316.356V315.02H317.936V318.05H321.456V319.42H317.936V324.43C317.936 325.263 318.116 325.847 318.476 326.18C318.843 326.507 319.363 326.67 320.036 326.67C320.329 326.67 320.596 326.657 320.836 326.63C321.076 326.597 321.326 326.553 321.586 326.5V327.89C321.313 327.957 321.023 328.01 320.716 328.05C320.409 328.097 320.109 328.12 319.816 328.12Z" fill="#8891EC"/>
<path d="M247.5 320C247.5 306.193 258.693 295 272.5 295H334.5V345H272.5C258.693 345 247.5 333.807 247.5 320V320Z" stroke="#8891EC" stroke-linejoin="bevel"/>
<path d="M334.5 295H355.5C369.307 295 380.5 306.193 380.5 320V320C380.5 333.807 369.307 345 355.5 345H334.5V295Z" fill="#343A46"/>
<path d="M353.372 328.22C352.245 328.22 351.279 327.93 350.472 327.35C349.665 326.77 349.045 325.94 348.612 324.86C348.185 323.78 347.972 322.493 347.972 321C347.972 319.507 348.185 318.22 348.612 317.14C349.045 316.06 349.665 315.23 350.472 314.65C351.279 314.07 352.245 313.78 353.372 313.78H353.622C354.749 313.78 355.712 314.07 356.512 314.65C357.319 315.23 357.935 316.06 358.362 317.14C358.795 318.22 359.012 319.507 359.012 321C359.012 322.493 358.795 323.78 358.362 324.86C357.935 325.94 357.319 326.77 356.512 327.35C355.712 327.93 354.749 328.22 353.622 328.22H353.372ZM353.382 326.69H353.612C354.772 326.69 355.675 326.213 356.322 325.26C356.975 324.3 357.302 322.88 357.302 321C357.302 319.12 356.975 317.703 356.322 316.75C355.675 315.79 354.772 315.31 353.612 315.31H353.382C352.222 315.31 351.315 315.79 350.662 316.75C350.009 317.703 349.682 319.12 349.682 321C349.682 322.88 350.009 324.3 350.662 325.26C351.315 326.213 352.222 326.69 353.382 326.69Z" fill="#8891EC"/>
<path d="M334.5 295H355.5C369.307 295 380.5 306.193 380.5 320V320C380.5 333.807 369.307 345 355.5 345H334.5V295Z" stroke="#8891EC" stroke-linejoin="bevel"/>
<path d="M227 235.5H401V234.5H227V235.5ZM406.5 241V359H407.5V241H406.5ZM401 364.5H227V365.5H401V364.5ZM221.5 359V241H220.5V359H221.5ZM227 364.5C223.962 364.5 221.5 362.038 221.5 359H220.5C220.5 362.59 223.41 365.5 227 365.5V364.5ZM406.5 359C406.5 362.038 404.038 364.5 401 364.5V365.5C404.59 365.5 407.5 362.59 407.5 359H406.5ZM401 235.5C404.038 235.5 406.5 237.962 406.5 241H407.5C407.5 237.41 404.59 234.5 401 234.5V235.5ZM227 234.5C223.41 234.5 220.5 237.41 220.5 241H221.5C221.5 237.962 223.962 235.5 227 235.5V234.5Z" fill="white"/>
</g>
<path d="M312 235V187.827C312 178.99 304.837 171.827 296 171.827H202V106" stroke="white" stroke-width="2"/>
<path d="M92 235V187.827C92 178.99 99.1634 171.827 108 171.827H202V106" stroke="white" stroke-width="2"/>
<defs>
<filter id="filter0_d_419_4571" x="108.5" y="0.5" width="187" height="108" filterUnits="userSpaceOnUse" color-interpolation-filters="sRGB">
<feFlood flood-opacity="0" result="BackgroundImageFix"/>
<feColorMatrix in="SourceAlpha" type="matrix" values="0 0 0 0 0 0 0 0 0 0 0 0 0 0 0 0 0 0 127 0" result="hardAlpha"/>
<feOffset dy="2"/>
<feComposite in2="hardAlpha" operator="out"/>
<feColorMatrix type="matrix" values="0 0 0 0 1 0 0 0 0 1 0 0 0 0 1 0 0 0 1 0"/>
<feBlend mode="normal" in2="BackgroundImageFix" result="effect1_dropShadow_419_4571"/>
<feBlend mode="normal" in="SourceGraphic" in2="effect1_dropShadow_419_4571" result="shape"/>
</filter>
<filter id="filter1_d_419_4571" x="0.5" y="234.5" width="186" height="133" filterUnits="userSpaceOnUse" color-interpolation-filters="sRGB">
<feFlood flood-opacity="0" result="BackgroundImageFix"/>
<feColorMatrix in="SourceAlpha" type="matrix" values="0 0 0 0 0 0 0 0 0 0 0 0 0 0 0 0 0 0 127 0" result="hardAlpha"/>
<feOffset dy="2"/>
<feComposite in2="hardAlpha" operator="out"/>
<feColorMatrix type="matrix" values="0 0 0 0 1 0 0 0 0 1 0 0 0 0 1 0 0 0 1 0"/>
<feBlend mode="normal" in2="BackgroundImageFix" result="effect1_dropShadow_419_4571"/>
<feBlend mode="normal" in="SourceGraphic" in2="effect1_dropShadow_419_4571" result="shape"/>
</filter>
<filter id="filter2_d_419_4571" x="220.5" y="234.5" width="187" height="133" filterUnits="userSpaceOnUse" color-interpolation-filters="sRGB">
<feFlood flood-opacity="0" result="BackgroundImageFix"/>
<feColorMatrix in="SourceAlpha" type="matrix" values="0 0 0 0 0 0 0 0 0 0 0 0 0 0 0 0 0 0 127 0" result="hardAlpha"/>
<feOffset dy="2"/>
<feComposite in2="hardAlpha" operator="out"/>
<feColorMatrix type="matrix" values="0 0 0 0 1 0 0 0 0 1 0 0 0 0 1 0 0 0 1 0"/>
<feBlend mode="normal" in2="BackgroundImageFix" result="effect1_dropShadow_419_4571"/>
<feBlend mode="normal" in="SourceGraphic" in2="effect1_dropShadow_419_4571" result="shape"/>
</filter>
</defs>
</svg>
