<svg width="430" height="314" viewBox="0 0 430 314" fill="none" xmlns="http://www.w3.org/2000/svg">
<rect x="31" y="34" width="368" height="278" rx="6" fill="white"/>
<rect x="51" y="54" width="328" height="154" rx="6" fill="#FDE7C7"/>
<path d="M78.2 98.288C77.432 98.288 76.696 98.152 75.992 97.88C75.304 97.608 74.696 97.216 74.168 96.704C73.64 96.176 73.216 95.536 72.896 94.784C72.592 94.016 72.44 93.152 72.44 92.192C72.44 91.216 72.592 90.352 72.896 89.6C73.216 88.832 73.64 88.184 74.168 87.656C74.696 87.128 75.304 86.728 75.992 86.456C76.696 86.184 77.432 86.048 78.2 86.048C78.968 86.048 79.696 86.184 80.384 86.456C81.088 86.728 81.704 87.128 82.232 87.656C82.76 88.184 83.176 88.832 83.48 89.6C83.8 90.352 83.96 91.216 83.96 92.192C83.96 93.152 83.8 94.016 83.48 94.784C83.176 95.536 82.76 96.176 82.232 96.704C81.704 97.216 81.088 97.608 80.384 97.88C79.696 98.152 78.968 98.288 78.2 98.288ZM78.2 96.656C78.76 96.656 79.264 96.552 79.712 96.344C80.176 96.12 80.568 95.816 80.888 95.432C81.224 95.032 81.48 94.56 81.656 94.016C81.832 93.472 81.92 92.864 81.92 92.192C81.92 91.52 81.832 90.912 81.656 90.368C81.48 89.808 81.224 89.328 80.888 88.928C80.568 88.528 80.176 88.224 79.712 88.016C79.264 87.792 78.76 87.68 78.2 87.68C77.64 87.68 77.128 87.792 76.664 88.016C76.216 88.224 75.824 88.528 75.488 88.928C75.168 89.328 74.92 89.808 74.744 90.368C74.568 90.912 74.48 91.52 74.48 92.192C74.48 92.864 74.568 93.472 74.744 94.016C74.92 94.56 75.168 95.032 75.488 95.432C75.824 95.816 76.216 96.12 76.664 96.344C77.128 96.552 77.64 96.656 78.2 96.656ZM87.6226 98V86.336H89.2546L89.4226 88.328H89.5186C90.1266 87.672 90.7826 87.128 91.4866 86.696C92.1906 86.264 92.9986 86.048 93.9106 86.048C95.3026 86.048 96.3186 86.448 96.9586 87.248C97.6146 88.032 97.9426 89.2 97.9426 90.752V98H95.9746V91.016C95.9746 89.912 95.7666 89.096 95.3506 88.568C94.9346 88.024 94.2466 87.752 93.2866 87.752C92.9346 87.752 92.6066 87.8 92.3026 87.896C92.0146 87.976 91.7266 88.104 91.4386 88.28C91.1506 88.456 90.8546 88.68 90.5506 88.952C90.2466 89.208 89.9266 89.512 89.5906 89.864V98H87.6226ZM107.101 98.288C105.949 98.288 104.885 98.08 103.909 97.664C102.949 97.248 102.109 96.68 101.389 95.96L102.589 94.568C103.181 95.16 103.869 95.64 104.653 96.008C105.437 96.36 106.285 96.536 107.197 96.536C108.285 96.536 109.125 96.304 109.717 95.84C110.325 95.376 110.629 94.776 110.629 94.04C110.629 93.624 110.557 93.272 110.413 92.984C110.269 92.696 110.069 92.448 109.813 92.24C109.557 92.032 109.253 91.848 108.901 91.688C108.565 91.528 108.197 91.36 107.797 91.184L105.541 90.2C105.141 90.04 104.741 89.848 104.341 89.624C103.941 89.4 103.573 89.128 103.237 88.808C102.917 88.488 102.653 88.112 102.445 87.68C102.237 87.232 102.133 86.72 102.133 86.144C102.133 85.552 102.261 85 102.517 84.488C102.773 83.976 103.125 83.536 103.573 83.168C104.037 82.784 104.581 82.488 105.205 82.28C105.845 82.072 106.541 81.968 107.293 81.968C108.285 81.968 109.197 82.152 110.029 82.52C110.861 82.872 111.565 83.336 112.141 83.912L111.085 85.208C110.573 84.744 110.005 84.384 109.381 84.128C108.757 83.856 108.037 83.72 107.221 83.72C106.309 83.72 105.573 83.928 105.013 84.344C104.453 84.744 104.173 85.304 104.173 86.024C104.173 86.408 104.253 86.736 104.413 87.008C104.589 87.264 104.805 87.496 105.061 87.704C105.333 87.896 105.637 88.064 105.973 88.208C106.309 88.352 106.645 88.496 106.981 88.64L109.189 89.6C109.669 89.792 110.117 90.016 110.533 90.272C110.965 90.512 111.333 90.8 111.637 91.136C111.957 91.456 112.205 91.84 112.381 92.288C112.573 92.72 112.669 93.224 112.669 93.8C112.669 94.424 112.541 95.008 112.285 95.552C112.029 96.096 111.661 96.576 111.181 96.992C110.701 97.392 110.117 97.712 109.429 97.952C108.741 98.176 107.965 98.288 107.101 98.288ZM120.076 98.288C118.668 98.288 117.636 97.896 116.98 97.112C116.34 96.312 116.02 95.136 116.02 93.584V86.336H118.012V93.32C118.012 94.424 118.212 95.248 118.612 95.792C119.028 96.32 119.724 96.584 120.7 96.584C121.372 96.584 121.98 96.416 122.524 96.08C123.068 95.728 123.668 95.176 124.324 94.424V86.336H126.292V98H124.684L124.516 95.96H124.42C123.828 96.648 123.18 97.208 122.476 97.64C121.788 98.072 120.988 98.288 120.076 98.288ZM136.243 98.288C135.683 98.288 135.075 98.152 134.419 97.88C133.779 97.592 133.179 97.2 132.619 96.704H132.547L132.379 98H130.795V80.912H132.763V85.568L132.691 87.824H132.763C133.291 87.28 133.899 86.848 134.587 86.528C135.291 86.208 135.987 86.048 136.675 86.048C137.459 86.048 138.155 86.192 138.763 86.48C139.371 86.752 139.875 87.152 140.275 87.68C140.691 88.192 141.003 88.816 141.211 89.552C141.419 90.272 141.523 91.08 141.523 91.976C141.523 92.968 141.379 93.856 141.091 94.64C140.803 95.424 140.411 96.088 139.915 96.632C139.435 97.176 138.875 97.592 138.235 97.88C137.595 98.152 136.931 98.288 136.243 98.288ZM135.931 96.632C136.443 96.632 136.915 96.528 137.347 96.32C137.779 96.096 138.155 95.792 138.475 95.408C138.795 95.008 139.043 94.52 139.219 93.944C139.395 93.368 139.483 92.72 139.483 92C139.483 91.36 139.419 90.776 139.291 90.248C139.163 89.72 138.963 89.272 138.691 88.904C138.435 88.52 138.099 88.224 137.683 88.016C137.267 87.808 136.771 87.704 136.195 87.704C135.683 87.704 135.131 87.848 134.539 88.136C133.963 88.408 133.371 88.848 132.763 89.456V95.264C133.323 95.76 133.883 96.112 134.443 96.32C135.019 96.528 135.515 96.632 135.931 96.632ZM144.345 98V86.336H145.929L146.097 87.872H146.145C146.449 87.328 146.801 86.888 147.201 86.552C147.601 86.216 148.137 86.048 148.809 86.048C149.945 86.048 150.681 86.72 151.017 88.064C151.353 87.44 151.721 86.952 152.121 86.6C152.537 86.232 153.081 86.048 153.753 86.048C154.569 86.048 155.201 86.36 155.649 86.984C156.113 87.592 156.345 88.48 156.345 89.648V98H154.377V89.792C154.377 88.432 153.961 87.752 153.129 87.752C152.713 87.752 152.377 87.904 152.121 88.208C151.865 88.496 151.577 88.944 151.257 89.552V98H149.433V89.792C149.433 89.12 149.337 88.616 149.145 88.28C148.969 87.928 148.665 87.752 148.233 87.752C147.817 87.752 147.465 87.904 147.177 88.208C146.889 88.496 146.601 88.944 146.313 89.552V98H144.345ZM164.928 98V87.944H159.504V86.336H166.896V98H164.928ZM165.696 83.888C165.248 83.888 164.872 83.752 164.568 83.48C164.264 83.192 164.112 82.816 164.112 82.352C164.112 81.888 164.264 81.52 164.568 81.248C164.872 80.96 165.248 80.816 165.696 80.816C166.144 80.816 166.52 80.96 166.824 81.248C167.128 81.52 167.28 81.888 167.28 82.352C167.28 82.816 167.128 83.192 166.824 83.48C166.52 83.752 166.144 83.888 165.696 83.888ZM181.19 98.288C180.342 98.288 179.63 98.176 179.054 97.952C178.478 97.712 178.014 97.384 177.662 96.968C177.31 96.536 177.054 96.024 176.894 95.432C176.75 94.84 176.678 94.184 176.678 93.464V87.944H173.39V86.456L176.75 86.336L177.014 82.592H178.646V86.336H184.382V87.944H178.646V93.488C178.646 94.016 178.694 94.48 178.79 94.88C178.886 95.264 179.046 95.592 179.27 95.864C179.494 96.136 179.798 96.344 180.182 96.488C180.566 96.616 181.038 96.68 181.598 96.68C182.158 96.68 182.662 96.632 183.11 96.536C183.558 96.44 183.99 96.312 184.406 96.152L184.838 97.592C184.31 97.784 183.75 97.944 183.158 98.072C182.582 98.216 181.926 98.288 181.19 98.288ZM196.517 102.224C194.853 100.928 193.533 99.368 192.557 97.544C191.597 95.72 191.117 93.648 191.117 91.328C191.117 89.008 191.597 86.936 192.557 85.112C193.533 83.288 194.853 81.728 196.517 80.432L197.597 81.44C195.981 82.8 194.789 84.28 194.021 85.88C193.269 87.48 192.893 89.296 192.893 91.328C192.893 93.36 193.269 95.176 194.021 96.776C194.789 98.376 195.981 99.856 197.597 101.216L196.517 102.224ZM204.524 102.224L203.444 101.216C205.06 99.856 206.244 98.376 206.996 96.776C207.764 95.176 208.148 93.36 208.148 91.328C208.148 89.296 207.764 87.48 206.996 85.88C206.244 84.28 205.06 82.8 203.444 81.44L204.524 80.432C206.188 81.728 207.5 83.288 208.46 85.112C209.436 86.936 209.924 89.008 209.924 91.328C209.924 93.648 209.436 95.72 208.46 97.544C207.5 99.368 206.188 100.928 204.524 102.224ZM225.49 101.648C224.738 101.648 224.082 101.592 223.522 101.48C222.962 101.384 222.498 101.216 222.13 100.976C221.762 100.736 221.49 100.408 221.314 99.992C221.138 99.592 221.05 99.08 221.05 98.456C221.05 98.024 221.058 97.616 221.074 97.232C221.106 96.832 221.13 96.448 221.146 96.08C221.178 95.712 221.202 95.344 221.218 94.976C221.25 94.608 221.266 94.224 221.266 93.824C221.266 93.584 221.218 93.36 221.122 93.152C221.026 92.928 220.85 92.728 220.594 92.552C220.338 92.376 219.978 92.232 219.514 92.12C219.066 92.008 218.49 91.952 217.786 91.952V90.704C218.49 90.704 219.066 90.648 219.514 90.536C219.978 90.424 220.338 90.28 220.594 90.104C220.85 89.928 221.026 89.736 221.122 89.528C221.218 89.304 221.266 89.072 221.266 88.832C221.266 88.064 221.226 87.312 221.146 86.576C221.082 85.824 221.05 85.032 221.05 84.2C221.05 83.576 221.138 83.064 221.314 82.664C221.49 82.248 221.762 81.92 222.13 81.68C222.498 81.44 222.962 81.272 223.522 81.176C224.082 81.064 224.738 81.008 225.49 81.008H226.954V82.136H225.706C225.098 82.136 224.594 82.176 224.194 82.256C223.81 82.336 223.506 82.464 223.282 82.64C223.074 82.816 222.93 83.048 222.85 83.336C222.77 83.608 222.73 83.936 222.73 84.32C222.73 85.008 222.754 85.72 222.802 86.456C222.85 87.176 222.874 87.912 222.874 88.664C222.874 89.448 222.714 90.048 222.394 90.464C222.09 90.864 221.522 91.136 220.69 91.28V91.376C221.522 91.52 222.09 91.8 222.394 92.216C222.714 92.616 222.874 93.208 222.874 93.992C222.874 94.808 222.85 95.552 222.802 96.224C222.754 96.896 222.73 97.6 222.73 98.336C222.73 98.72 222.77 99.048 222.85 99.32C222.93 99.608 223.074 99.84 223.282 100.016C223.506 100.192 223.81 100.32 224.194 100.4C224.594 100.48 225.098 100.52 225.706 100.52H226.954V101.648H225.49ZM236.497 98.288C235.953 98.288 235.489 98.104 235.105 97.736C234.737 97.368 234.553 96.88 234.553 96.272C234.553 95.664 234.737 95.176 235.105 94.808C235.489 94.424 235.953 94.232 236.497 94.232C237.041 94.232 237.497 94.424 237.865 94.808C238.249 95.176 238.441 95.664 238.441 96.272C238.441 96.88 238.249 97.368 237.865 97.736C237.497 98.104 237.041 98.288 236.497 98.288ZM250.888 98.288C250.344 98.288 249.88 98.104 249.496 97.736C249.128 97.368 248.944 96.88 248.944 96.272C248.944 95.664 249.128 95.176 249.496 94.808C249.88 94.424 250.344 94.232 250.888 94.232C251.432 94.232 251.888 94.424 252.256 94.808C252.64 95.176 252.832 95.664 252.832 96.272C252.832 96.88 252.64 97.368 252.256 97.736C251.888 98.104 251.432 98.288 250.888 98.288ZM265.278 98.288C264.734 98.288 264.27 98.104 263.886 97.736C263.518 97.368 263.334 96.88 263.334 96.272C263.334 95.664 263.518 95.176 263.886 94.808C264.27 94.424 264.734 94.232 265.278 94.232C265.822 94.232 266.278 94.424 266.646 94.808C267.03 95.176 267.222 95.664 267.222 96.272C267.222 96.88 267.03 97.368 266.646 97.736C266.278 98.104 265.822 98.288 265.278 98.288ZM274.845 101.648V100.52H276.069C276.677 100.52 277.173 100.48 277.557 100.4C277.957 100.32 278.269 100.192 278.493 100.016C278.717 99.84 278.869 99.608 278.949 99.32C279.029 99.048 279.069 98.72 279.069 98.336C279.069 97.6 279.045 96.896 278.997 96.224C278.949 95.552 278.925 94.808 278.925 93.992C278.925 93.208 279.077 92.616 279.381 92.216C279.685 91.8 280.253 91.52 281.085 91.376V91.28C280.253 91.136 279.685 90.864 279.381 90.464C279.077 90.048 278.925 89.448 278.925 88.664C278.925 87.912 278.949 87.176 278.997 86.456C279.045 85.72 279.069 85.008 279.069 84.32C279.069 83.936 279.029 83.608 278.949 83.336C278.869 83.048 278.717 82.816 278.493 82.64C278.269 82.464 277.957 82.336 277.557 82.256C277.173 82.176 276.677 82.136 276.069 82.136H274.845V81.008H276.309C277.061 81.008 277.709 81.064 278.253 81.176C278.813 81.272 279.277 81.44 279.645 81.68C280.013 81.92 280.285 82.248 280.461 82.664C280.637 83.064 280.725 83.576 280.725 84.2C280.725 85.032 280.685 85.824 280.605 86.576C280.541 87.312 280.509 88.064 280.509 88.832C280.509 89.072 280.557 89.304 280.653 89.528C280.749 89.736 280.925 89.928 281.181 90.104C281.437 90.28 281.789 90.424 282.237 90.536C282.701 90.648 283.285 90.704 283.989 90.704V91.952C283.285 91.952 282.701 92.008 282.237 92.12C281.789 92.232 281.437 92.376 281.181 92.552C280.925 92.728 280.749 92.928 280.653 93.152C280.557 93.36 280.509 93.584 280.509 93.824C280.509 94.224 280.517 94.608 280.533 94.976C280.565 95.344 280.589 95.712 280.605 96.08C280.637 96.448 280.661 96.832 280.677 97.232C280.709 97.616 280.725 98.024 280.725 98.456C280.725 99.08 280.637 99.592 280.461 99.992C280.285 100.408 280.013 100.736 279.645 100.976C279.277 101.216 278.813 101.384 278.253 101.48C277.709 101.592 277.061 101.648 276.309 101.648H274.845Z" fill="#4E5769"/>
<path d="M78.584 140V129.944H73.16V128.336H80.552V140H78.584ZM79.352 125.888C78.904 125.888 78.528 125.752 78.224 125.48C77.92 125.192 77.768 124.816 77.768 124.352C77.768 123.888 77.92 123.52 78.224 123.248C78.528 122.96 78.904 122.816 79.352 122.816C79.8 122.816 80.176 122.96 80.48 123.248C80.784 123.52 80.936 123.888 80.936 124.352C80.936 124.816 80.784 125.192 80.48 125.48C80.176 125.752 79.8 125.888 79.352 125.888ZM92.8306 140.288C91.6786 140.288 90.6146 140.112 89.6386 139.76C88.6626 139.392 87.8146 138.96 87.0946 138.464L88.0066 137.168C88.6786 137.648 89.4146 138.032 90.2146 138.32C91.0306 138.608 91.9826 138.752 93.0706 138.752C94.0626 138.752 94.7986 138.576 95.2786 138.224C95.7746 137.856 96.0226 137.424 96.0226 136.928C96.0226 136.704 95.9826 136.496 95.9026 136.304C95.8226 136.112 95.6466 135.928 95.3746 135.752C95.1186 135.576 94.7506 135.408 94.2706 135.248C93.7906 135.088 93.1586 134.928 92.3746 134.768C90.8546 134.448 89.7106 134.024 88.9426 133.496C88.1906 132.952 87.8146 132.24 87.8146 131.36C87.8146 130.896 87.9186 130.464 88.1266 130.064C88.3346 129.648 88.6386 129.296 89.0386 129.008C89.4546 128.704 89.9586 128.472 90.5506 128.312C91.1586 128.136 91.8626 128.048 92.6626 128.048C93.5586 128.048 94.4226 128.2 95.2546 128.504C96.0866 128.792 96.7906 129.136 97.3666 129.536L96.4066 130.808C95.8626 130.44 95.2626 130.144 94.6066 129.92C93.9506 129.696 93.2466 129.584 92.4946 129.584C91.5026 129.584 90.8066 129.752 90.4066 130.088C90.0066 130.424 89.8066 130.816 89.8066 131.264C89.8066 131.776 90.0706 132.168 90.5986 132.44C91.1266 132.696 91.9906 132.952 93.1906 133.208C94.1666 133.416 94.9666 133.64 95.5906 133.88C96.2146 134.104 96.7026 134.36 97.0546 134.648C97.4226 134.936 97.6706 135.256 97.7986 135.608C97.9426 135.96 98.0146 136.36 98.0146 136.808C98.0146 137.288 97.9026 137.736 97.6786 138.152C97.4546 138.568 97.1186 138.936 96.6706 139.256C96.2386 139.576 95.6946 139.824 95.0386 140C94.3986 140.192 93.6626 140.288 92.8306 140.288ZM102.997 140V124.256H104.965V138.296H112.765V140H102.997ZM121.372 140.288C120.604 140.288 119.868 140.152 119.164 139.88C118.476 139.608 117.868 139.216 117.34 138.704C116.812 138.176 116.388 137.536 116.068 136.784C115.764 136.016 115.612 135.152 115.612 134.192C115.612 133.216 115.764 132.352 116.068 131.6C116.388 130.832 116.812 130.184 117.34 129.656C117.868 129.128 118.476 128.728 119.164 128.456C119.868 128.184 120.604 128.048 121.372 128.048C122.14 128.048 122.868 128.184 123.556 128.456C124.26 128.728 124.876 129.128 125.404 129.656C125.932 130.184 126.348 130.832 126.652 131.6C126.972 132.352 127.132 133.216 127.132 134.192C127.132 135.152 126.972 136.016 126.652 136.784C126.348 137.536 125.932 138.176 125.404 138.704C124.876 139.216 124.26 139.608 123.556 139.88C122.868 140.152 122.14 140.288 121.372 140.288ZM121.372 138.656C121.932 138.656 122.436 138.552 122.884 138.344C123.348 138.12 123.74 137.816 124.06 137.432C124.396 137.032 124.652 136.56 124.828 136.016C125.004 135.472 125.092 134.864 125.092 134.192C125.092 133.52 125.004 132.912 124.828 132.368C124.652 131.808 124.396 131.328 124.06 130.928C123.74 130.528 123.348 130.224 122.884 130.016C122.436 129.792 121.932 129.68 121.372 129.68C120.812 129.68 120.3 129.792 119.836 130.016C119.388 130.224 118.996 130.528 118.66 130.928C118.34 131.328 118.092 131.808 117.916 132.368C117.74 132.912 117.652 133.52 117.652 134.192C117.652 134.864 117.74 135.472 117.916 136.016C118.092 136.56 118.34 137.032 118.66 137.432C118.996 137.816 119.388 138.12 119.836 138.344C120.3 138.552 120.812 138.656 121.372 138.656ZM135.667 145.376C133.955 145.376 132.627 145.096 131.683 144.536C130.755 143.976 130.291 143.176 130.291 142.136C130.291 141.672 130.451 141.216 130.771 140.768C131.107 140.32 131.587 139.912 132.211 139.544V139.448C131.891 139.272 131.611 139.032 131.371 138.728C131.131 138.424 131.011 138.024 131.011 137.528C131.011 137.16 131.131 136.784 131.371 136.4C131.611 136 131.955 135.648 132.403 135.344V135.248C132.003 134.944 131.659 134.544 131.371 134.048C131.099 133.536 130.963 132.928 130.963 132.224C130.963 131.584 131.083 131.008 131.323 130.496C131.579 129.984 131.915 129.552 132.331 129.2C132.747 128.832 133.227 128.552 133.771 128.36C134.331 128.152 134.923 128.048 135.547 128.048C136.187 128.048 136.763 128.144 137.275 128.336H142.099V129.944H139.075C139.347 130.216 139.579 130.56 139.771 130.976C139.963 131.392 140.059 131.832 140.059 132.296C140.059 132.92 139.939 133.48 139.699 133.976C139.475 134.472 139.155 134.896 138.739 135.248C138.339 135.584 137.859 135.848 137.299 136.04C136.755 136.216 136.171 136.304 135.547 136.304C135.243 136.304 134.915 136.272 134.562 136.208C134.227 136.128 133.899 136.016 133.579 135.872C132.971 136.256 132.667 136.704 132.667 137.216C132.667 137.68 132.875 138.024 133.291 138.248C133.723 138.456 134.323 138.56 135.091 138.56H137.707C139.211 138.56 140.323 138.768 141.043 139.184C141.779 139.6 142.147 140.304 142.147 141.296C142.147 141.84 141.995 142.36 141.691 142.856C141.387 143.352 140.955 143.784 140.395 144.152C139.835 144.52 139.155 144.816 138.355 145.04C137.555 145.264 136.659 145.376 135.667 145.376ZM135.547 134.984C136.299 134.984 136.931 134.736 137.443 134.24C137.971 133.744 138.235 133.072 138.235 132.224C138.235 131.824 138.163 131.456 138.019 131.12C137.875 130.784 137.683 130.496 137.443 130.256C137.203 130.016 136.915 129.832 136.579 129.704C136.259 129.56 135.915 129.488 135.547 129.488C135.179 129.488 134.827 129.56 134.491 129.704C134.171 129.832 133.891 130.016 133.651 130.256C133.411 130.496 133.219 130.784 133.075 131.12C132.931 131.456 132.859 131.824 132.859 132.224C132.859 133.072 133.123 133.744 133.651 134.24C134.179 134.736 134.811 134.984 135.547 134.984ZM135.811 143.936C136.483 143.936 137.091 143.872 137.635 143.744C138.179 143.616 138.643 143.44 139.027 143.216C139.411 143.008 139.699 142.76 139.891 142.472C140.099 142.2 140.203 141.912 140.203 141.608C140.203 141.048 139.979 140.672 139.531 140.48C139.099 140.288 138.435 140.192 137.539 140.192H135.259C134.923 140.192 134.603 140.176 134.299 140.144C134.011 140.128 133.739 140.08 133.483 140C132.923 140.304 132.531 140.616 132.307 140.936C132.099 141.272 131.995 141.608 131.995 141.944C131.995 142.552 132.315 143.032 132.955 143.384C133.611 143.752 134.563 143.936 135.811 143.936ZM150.057 145.376C148.345 145.376 147.017 145.096 146.073 144.536C145.145 143.976 144.681 143.176 144.681 142.136C144.681 141.672 144.841 141.216 145.161 140.768C145.497 140.32 145.977 139.912 146.601 139.544V139.448C146.281 139.272 146.001 139.032 145.761 138.728C145.521 138.424 145.401 138.024 145.401 137.528C145.401 137.16 145.521 136.784 145.761 136.4C146.001 136 146.345 135.648 146.793 135.344V135.248C146.393 134.944 146.049 134.544 145.761 134.048C145.489 133.536 145.353 132.928 145.353 132.224C145.353 131.584 145.473 131.008 145.713 130.496C145.969 129.984 146.305 129.552 146.721 129.2C147.137 128.832 147.617 128.552 148.161 128.36C148.721 128.152 149.313 128.048 149.937 128.048C150.577 128.048 151.153 128.144 151.665 128.336H156.489V129.944H153.465C153.737 130.216 153.969 130.56 154.161 130.976C154.353 131.392 154.449 131.832 154.449 132.296C154.449 132.92 154.329 133.48 154.089 133.976C153.865 134.472 153.545 134.896 153.129 135.248C152.729 135.584 152.249 135.848 151.689 136.04C151.145 136.216 150.561 136.304 149.937 136.304C149.633 136.304 149.305 136.272 148.953 136.208C148.617 136.128 148.289 136.016 147.969 135.872C147.361 136.256 147.057 136.704 147.057 137.216C147.057 137.68 147.265 138.024 147.681 138.248C148.113 138.456 148.713 138.56 149.481 138.56H152.097C153.601 138.56 154.713 138.768 155.433 139.184C156.169 139.6 156.537 140.304 156.537 141.296C156.537 141.84 156.385 142.36 156.081 142.856C155.777 143.352 155.345 143.784 154.785 144.152C154.225 144.52 153.545 144.816 152.745 145.04C151.945 145.264 151.049 145.376 150.057 145.376ZM149.937 134.984C150.689 134.984 151.321 134.736 151.833 134.24C152.361 133.744 152.625 133.072 152.625 132.224C152.625 131.824 152.553 131.456 152.409 131.12C152.265 130.784 152.073 130.496 151.833 130.256C151.593 130.016 151.305 129.832 150.969 129.704C150.649 129.56 150.305 129.488 149.937 129.488C149.569 129.488 149.217 129.56 148.881 129.704C148.561 129.832 148.281 130.016 148.041 130.256C147.801 130.496 147.609 130.784 147.465 131.12C147.321 131.456 147.249 131.824 147.249 132.224C147.249 133.072 147.513 133.744 148.041 134.24C148.569 134.736 149.201 134.984 149.937 134.984ZM150.201 143.936C150.873 143.936 151.481 143.872 152.025 143.744C152.569 143.616 153.033 143.44 153.417 143.216C153.801 143.008 154.089 142.76 154.281 142.472C154.489 142.2 154.593 141.912 154.593 141.608C154.593 141.048 154.369 140.672 153.921 140.48C153.489 140.288 152.825 140.192 151.929 140.192H149.649C149.313 140.192 148.993 140.176 148.689 140.144C148.401 140.128 148.129 140.08 147.873 140C147.313 140.304 146.921 140.616 146.697 140.936C146.489 141.272 146.385 141.608 146.385 141.944C146.385 142.552 146.705 143.032 147.345 143.384C148.001 143.752 148.953 143.936 150.201 143.936ZM165.264 140.288C164.384 140.288 163.56 140.152 162.792 139.88C162.04 139.608 161.376 139.208 160.8 138.68C160.24 138.152 159.792 137.512 159.456 136.76C159.136 135.992 158.976 135.12 158.976 134.144C158.976 133.2 159.136 132.352 159.456 131.6C159.792 130.848 160.232 130.208 160.776 129.68C161.336 129.152 161.968 128.752 162.672 128.48C163.392 128.192 164.144 128.048 164.928 128.048C165.76 128.048 166.504 128.184 167.16 128.456C167.832 128.712 168.392 129.08 168.84 129.56C169.304 130.04 169.656 130.616 169.896 131.288C170.136 131.96 170.256 132.704 170.256 133.52C170.256 133.744 170.248 133.96 170.232 134.168C170.216 134.376 170.192 134.56 170.16 134.72H160.968C161.096 136.048 161.576 137.048 162.408 137.72C163.256 138.376 164.288 138.704 165.504 138.704C166.208 138.704 166.84 138.608 167.4 138.416C167.976 138.208 168.528 137.936 169.056 137.6L169.776 138.896C169.2 139.28 168.536 139.608 167.784 139.88C167.048 140.152 166.208 140.288 165.264 140.288ZM164.976 129.608C164.496 129.608 164.032 129.688 163.584 129.848C163.152 130.008 162.76 130.24 162.408 130.544C162.056 130.832 161.76 131.2 161.52 131.648C161.28 132.096 161.112 132.608 161.016 133.184H168.456C168.376 131.984 168.024 131.088 167.4 130.496C166.792 129.904 165.984 129.608 164.976 129.608ZM178.238 140.288C177.47 140.288 176.774 140.152 176.15 139.88C175.542 139.608 175.014 139.216 174.566 138.704C174.118 138.176 173.774 137.536 173.534 136.784C173.294 136.032 173.174 135.168 173.174 134.192C173.174 133.248 173.318 132.4 173.606 131.648C173.91 130.88 174.302 130.232 174.782 129.704C175.278 129.176 175.846 128.768 176.486 128.48C177.126 128.192 177.79 128.048 178.478 128.048C179.182 128.048 179.806 128.184 180.35 128.456C180.91 128.712 181.446 129.08 181.958 129.56H182.03L181.934 127.4V122.912H183.902V140H182.27L182.102 138.464H182.03C181.55 138.96 180.974 139.392 180.302 139.76C179.646 140.112 178.958 140.288 178.238 140.288ZM178.646 138.632C179.798 138.632 180.894 138.048 181.934 136.88V131.072C181.406 130.576 180.886 130.224 180.374 130.016C179.878 129.808 179.374 129.704 178.862 129.704C178.35 129.704 177.87 129.816 177.422 130.04C176.99 130.248 176.606 130.552 176.27 130.952C175.95 131.336 175.694 131.8 175.502 132.344C175.31 132.888 175.214 133.496 175.214 134.168C175.214 135.576 175.51 136.672 176.102 137.456C176.71 138.24 177.558 138.632 178.646 138.632ZM188.405 140V138.296H192.317V125.936H188.405V124.256H198.245V125.936H194.333V138.296H198.245V140H188.405ZM202.748 140V128.336H204.38L204.548 130.328H204.644C205.252 129.672 205.908 129.128 206.612 128.696C207.316 128.264 208.124 128.048 209.036 128.048C210.428 128.048 211.444 128.448 212.084 129.248C212.74 130.032 213.068 131.2 213.068 132.752V140H211.1V133.016C211.1 131.912 210.892 131.096 210.476 130.568C210.06 130.024 209.372 129.752 208.412 129.752C208.06 129.752 207.732 129.8 207.428 129.896C207.14 129.976 206.852 130.104 206.564 130.28C206.276 130.456 205.98 130.68 205.676 130.952C205.372 131.208 205.052 131.512 204.716 131.864V140H202.748ZM225.298 144.224C223.634 142.928 222.314 141.368 221.338 139.544C220.378 137.72 219.898 135.648 219.898 133.328C219.898 131.008 220.378 128.936 221.338 127.112C222.314 125.288 223.634 123.728 225.298 122.432L226.378 123.44C224.762 124.8 223.57 126.28 222.802 127.88C222.05 129.48 221.674 131.296 221.674 133.328C221.674 135.36 222.05 137.176 222.802 138.776C223.57 140.376 224.762 141.856 226.378 143.216L225.298 144.224ZM233.305 144.224L232.225 143.216C233.841 141.856 235.025 140.376 235.777 138.776C236.545 137.176 236.929 135.36 236.929 133.328C236.929 131.296 236.545 129.48 235.777 127.88C235.025 126.28 233.841 124.8 232.225 123.44L233.305 122.432C234.969 123.728 236.281 125.288 237.241 127.112C238.217 128.936 238.705 131.008 238.705 133.328C238.705 135.648 238.217 137.72 237.241 139.544C236.281 141.368 234.969 142.928 233.305 144.224ZM254.272 143.648C253.52 143.648 252.864 143.592 252.304 143.48C251.744 143.384 251.28 143.216 250.912 142.976C250.544 142.736 250.272 142.408 250.096 141.992C249.92 141.592 249.832 141.08 249.832 140.456C249.832 140.024 249.84 139.616 249.855 139.232C249.888 138.832 249.912 138.448 249.928 138.08C249.96 137.712 249.984 137.344 250 136.976C250.032 136.608 250.048 136.224 250.048 135.824C250.048 135.584 250 135.36 249.904 135.152C249.808 134.928 249.632 134.728 249.376 134.552C249.12 134.376 248.76 134.232 248.296 134.12C247.848 134.008 247.272 133.952 246.568 133.952V132.704C247.272 132.704 247.848 132.648 248.296 132.536C248.76 132.424 249.12 132.28 249.376 132.104C249.632 131.928 249.808 131.736 249.904 131.528C250 131.304 250.048 131.072 250.048 130.832C250.048 130.064 250.008 129.312 249.928 128.576C249.864 127.824 249.832 127.032 249.832 126.2C249.832 125.576 249.92 125.064 250.096 124.664C250.272 124.248 250.544 123.92 250.912 123.68C251.28 123.44 251.744 123.272 252.304 123.176C252.864 123.064 253.52 123.008 254.272 123.008H255.736V124.136H254.488C253.88 124.136 253.376 124.176 252.976 124.256C252.592 124.336 252.288 124.464 252.064 124.64C251.856 124.816 251.712 125.048 251.632 125.336C251.552 125.608 251.512 125.936 251.512 126.32C251.512 127.008 251.536 127.72 251.584 128.456C251.632 129.176 251.656 129.912 251.656 130.664C251.656 131.448 251.496 132.048 251.176 132.464C250.872 132.864 250.304 133.136 249.472 133.28V133.376C250.304 133.52 250.872 133.8 251.176 134.216C251.496 134.616 251.656 135.208 251.656 135.992C251.656 136.808 251.632 137.552 251.584 138.224C251.536 138.896 251.512 139.6 251.512 140.336C251.512 140.72 251.552 141.048 251.632 141.32C251.712 141.608 251.856 141.84 252.064 142.016C252.288 142.192 252.592 142.32 252.976 142.4C253.376 142.48 253.88 142.52 254.488 142.52H255.736V143.648H254.272ZM265.278 140.288C264.734 140.288 264.27 140.104 263.886 139.736C263.518 139.368 263.334 138.88 263.334 138.272C263.334 137.664 263.518 137.176 263.886 136.808C264.27 136.424 264.734 136.232 265.278 136.232C265.822 136.232 266.278 136.424 266.646 136.808C267.03 137.176 267.222 137.664 267.222 138.272C267.222 138.88 267.03 139.368 266.646 139.736C266.278 140.104 265.822 140.288 265.278 140.288ZM279.669 140.288C279.125 140.288 278.661 140.104 278.277 139.736C277.909 139.368 277.725 138.88 277.725 138.272C277.725 137.664 277.909 137.176 278.277 136.808C278.661 136.424 279.125 136.232 279.669 136.232C280.213 136.232 280.669 136.424 281.037 136.808C281.421 137.176 281.613 137.664 281.613 138.272C281.613 138.88 281.421 139.368 281.037 139.736C280.669 140.104 280.213 140.288 279.669 140.288ZM294.059 140.288C293.515 140.288 293.051 140.104 292.667 139.736C292.299 139.368 292.115 138.88 292.115 138.272C292.115 137.664 292.299 137.176 292.667 136.808C293.051 136.424 293.515 136.232 294.059 136.232C294.603 136.232 295.059 136.424 295.427 136.808C295.811 137.176 296.003 137.664 296.003 138.272C296.003 138.88 295.811 139.368 295.427 139.736C295.059 140.104 294.603 140.288 294.059 140.288ZM303.626 143.648V142.52H304.85C305.458 142.52 305.954 142.48 306.338 142.4C306.738 142.32 307.05 142.192 307.274 142.016C307.498 141.84 307.65 141.608 307.73 141.32C307.81 141.048 307.85 140.72 307.85 140.336C307.85 139.6 307.826 138.896 307.778 138.224C307.73 137.552 307.706 136.808 307.706 135.992C307.706 135.208 307.858 134.616 308.162 134.216C308.466 133.8 309.034 133.52 309.866 133.376V133.28C309.034 133.136 308.466 132.864 308.162 132.464C307.858 132.048 307.706 131.448 307.706 130.664C307.706 129.912 307.73 129.176 307.778 128.456C307.826 127.72 307.85 127.008 307.85 126.32C307.85 125.936 307.81 125.608 307.73 125.336C307.65 125.048 307.498 124.816 307.274 124.64C307.05 124.464 306.738 124.336 306.338 124.256C305.954 124.176 305.458 124.136 304.85 124.136H303.626V123.008H305.09C305.842 123.008 306.49 123.064 307.034 123.176C307.594 123.272 308.058 123.44 308.426 123.68C308.794 123.92 309.066 124.248 309.242 124.664C309.418 125.064 309.506 125.576 309.506 126.2C309.506 127.032 309.466 127.824 309.386 128.576C309.322 129.312 309.29 130.064 309.29 130.832C309.29 131.072 309.338 131.304 309.434 131.528C309.53 131.736 309.706 131.928 309.962 132.104C310.218 132.28 310.57 132.424 311.018 132.536C311.482 132.648 312.066 132.704 312.77 132.704V133.952C312.066 133.952 311.482 134.008 311.018 134.12C310.57 134.232 310.218 134.376 309.962 134.552C309.706 134.728 309.53 134.928 309.434 135.152C309.338 135.36 309.29 135.584 309.29 135.824C309.29 136.224 309.298 136.608 309.314 136.976C309.346 137.344 309.37 137.712 309.386 138.08C309.418 138.448 309.442 138.832 309.458 139.232C309.49 139.616 309.506 140.024 309.506 140.456C309.506 141.08 309.418 141.592 309.242 141.992C309.066 142.408 308.794 142.736 308.426 142.976C308.058 143.216 307.594 143.384 307.034 143.48C306.49 143.592 305.842 143.648 305.09 143.648H303.626Z" fill="#4E5769"/>
<path d="M78.2 182.288C77.432 182.288 76.696 182.152 75.992 181.88C75.304 181.608 74.696 181.216 74.168 180.704C73.64 180.176 73.216 179.536 72.896 178.784C72.592 178.016 72.44 177.152 72.44 176.192C72.44 175.216 72.592 174.352 72.896 173.6C73.216 172.832 73.64 172.184 74.168 171.656C74.696 171.128 75.304 170.728 75.992 170.456C76.696 170.184 77.432 170.048 78.2 170.048C78.968 170.048 79.696 170.184 80.384 170.456C81.088 170.728 81.704 171.128 82.232 171.656C82.76 172.184 83.176 172.832 83.48 173.6C83.8 174.352 83.96 175.216 83.96 176.192C83.96 177.152 83.8 178.016 83.48 178.784C83.176 179.536 82.76 180.176 82.232 180.704C81.704 181.216 81.088 181.608 80.384 181.88C79.696 182.152 78.968 182.288 78.2 182.288ZM78.2 180.656C78.76 180.656 79.264 180.552 79.712 180.344C80.176 180.12 80.568 179.816 80.888 179.432C81.224 179.032 81.48 178.56 81.656 178.016C81.832 177.472 81.92 176.864 81.92 176.192C81.92 175.52 81.832 174.912 81.656 174.368C81.48 173.808 81.224 173.328 80.888 172.928C80.568 172.528 80.176 172.224 79.712 172.016C79.264 171.792 78.76 171.68 78.2 171.68C77.64 171.68 77.128 171.792 76.664 172.016C76.216 172.224 75.824 172.528 75.488 172.928C75.168 173.328 74.92 173.808 74.744 174.368C74.568 174.912 74.48 175.52 74.48 176.192C74.48 176.864 74.568 177.472 74.744 178.016C74.92 178.56 75.168 179.032 75.488 179.432C75.824 179.816 76.216 180.12 76.664 180.344C77.128 180.552 77.64 180.656 78.2 180.656ZM87.6226 182V170.336H89.2546L89.4226 172.328H89.5186C90.1266 171.672 90.7826 171.128 91.4866 170.696C92.1906 170.264 92.9986 170.048 93.9106 170.048C95.3026 170.048 96.3186 170.448 96.9586 171.248C97.6146 172.032 97.9426 173.2 97.9426 174.752V182H95.9746V175.016C95.9746 173.912 95.7666 173.096 95.3506 172.568C94.9346 172.024 94.2466 171.752 93.2866 171.752C92.9346 171.752 92.6066 171.8 92.3026 171.896C92.0146 171.976 91.7266 172.104 91.4386 172.28C91.1506 172.456 90.8546 172.68 90.5506 172.952C90.2466 173.208 89.9266 173.512 89.5906 173.864V182H87.6226ZM108.205 182.288C107.229 182.288 106.325 182.104 105.493 181.736C104.661 181.368 103.933 180.84 103.309 180.152C102.701 179.448 102.221 178.592 101.869 177.584C101.517 176.56 101.341 175.408 101.341 174.128C101.341 172.864 101.517 171.728 101.869 170.72C102.221 169.712 102.709 168.856 103.333 168.152C103.957 167.448 104.701 166.912 105.565 166.544C106.429 166.16 107.373 165.968 108.397 165.968C109.341 165.968 110.173 166.16 110.893 166.544C111.629 166.928 112.229 167.376 112.693 167.888L111.565 169.16C111.149 168.728 110.685 168.384 110.173 168.128C109.661 167.856 109.069 167.72 108.397 167.72C107.645 167.72 106.957 167.872 106.333 168.176C105.725 168.464 105.205 168.888 104.773 169.448C104.341 169.992 104.005 170.656 103.765 171.44C103.525 172.224 103.405 173.104 103.405 174.08C103.405 175.072 103.525 175.968 103.765 176.768C104.005 177.552 104.341 178.224 104.773 178.784C105.205 179.344 105.725 179.776 106.333 180.08C106.957 180.384 107.645 180.536 108.397 180.536C109.117 180.536 109.757 180.384 110.317 180.08C110.893 179.776 111.437 179.344 111.949 178.784L113.077 180.008C112.453 180.728 111.749 181.288 110.965 181.688C110.181 182.088 109.261 182.288 108.205 182.288ZM123.94 182.288C122.692 182.288 121.74 181.936 121.084 181.232C120.428 180.528 120.1 179.48 120.1 178.088V166.52H115.948V164.912H122.068V178.232C122.068 179.096 122.276 179.72 122.692 180.104C123.108 180.472 123.668 180.656 124.372 180.656C125.06 180.656 125.788 180.48 126.556 180.128L127.06 181.592C126.516 181.816 126.02 181.984 125.572 182.096C125.124 182.224 124.58 182.288 123.94 182.288ZM136.147 182V171.944H130.723V170.336H138.115V182H136.147ZM136.915 167.888C136.467 167.888 136.091 167.752 135.787 167.48C135.483 167.192 135.331 166.816 135.331 166.352C135.331 165.888 135.483 165.52 135.787 165.248C136.091 164.96 136.467 164.816 136.915 164.816C137.363 164.816 137.739 164.96 138.043 165.248C138.347 165.52 138.499 165.888 138.499 166.352C138.499 166.816 138.347 167.192 138.043 167.48C137.739 167.752 137.363 167.888 136.915 167.888ZM151.257 182.288C150.345 182.288 149.497 182.152 148.713 181.88C147.945 181.608 147.273 181.216 146.697 180.704C146.121 180.176 145.673 179.536 145.353 178.784C145.033 178.016 144.873 177.152 144.873 176.192C144.873 175.216 145.041 174.352 145.377 173.6C145.729 172.832 146.201 172.184 146.793 171.656C147.385 171.128 148.073 170.728 148.857 170.456C149.657 170.184 150.497 170.048 151.377 170.048C152.337 170.048 153.161 170.216 153.849 170.552C154.553 170.888 155.145 171.288 155.625 171.752L154.641 173.024C154.161 172.608 153.657 172.28 153.129 172.04C152.617 171.8 152.057 171.68 151.449 171.68C150.777 171.68 150.161 171.792 149.601 172.016C149.041 172.224 148.561 172.528 148.161 172.928C147.777 173.328 147.473 173.808 147.249 174.368C147.025 174.912 146.913 175.52 146.913 176.192C146.913 176.864 147.017 177.472 147.225 178.016C147.449 178.56 147.753 179.032 148.137 179.432C148.537 179.816 149.009 180.12 149.553 180.344C150.113 180.552 150.729 180.656 151.401 180.656C152.121 180.656 152.777 180.52 153.369 180.248C153.977 179.96 154.521 179.608 155.001 179.192L155.889 180.464C155.233 181.04 154.513 181.488 153.729 181.808C152.945 182.128 152.121 182.288 151.257 182.288ZM159.888 182V164.912H161.856V176.48H161.952L168.24 170.336H170.496L165.84 174.92L171.12 182H168.912L164.616 176.12L161.856 178.832V182H159.888ZM182.126 186.224C180.462 184.928 179.142 183.368 178.166 181.544C177.206 179.72 176.726 177.648 176.726 175.328C176.726 173.008 177.206 170.936 178.166 169.112C179.142 167.288 180.462 165.728 182.126 164.432L183.206 165.44C181.59 166.8 180.398 168.28 179.63 169.88C178.878 171.48 178.502 173.296 178.502 175.328C178.502 177.36 178.878 179.176 179.63 180.776C180.398 182.376 181.59 183.856 183.206 185.216L182.126 186.224ZM190.133 186.224L189.053 185.216C190.669 183.856 191.853 182.376 192.605 180.776C193.373 179.176 193.757 177.36 193.757 175.328C193.757 173.296 193.373 171.48 192.605 169.88C191.853 168.28 190.669 166.8 189.053 165.44L190.133 164.432C191.797 165.728 193.109 167.288 194.069 169.112C195.045 170.936 195.533 173.008 195.533 175.328C195.533 177.648 195.045 179.72 194.069 181.544C193.109 183.368 191.797 184.928 190.133 186.224ZM211.1 185.648C210.348 185.648 209.692 185.592 209.132 185.48C208.572 185.384 208.108 185.216 207.74 184.976C207.372 184.736 207.1 184.408 206.924 183.992C206.748 183.592 206.66 183.08 206.66 182.456C206.66 182.024 206.668 181.616 206.684 181.232C206.716 180.832 206.74 180.448 206.756 180.08C206.788 179.712 206.812 179.344 206.828 178.976C206.86 178.608 206.876 178.224 206.876 177.824C206.876 177.584 206.828 177.36 206.732 177.152C206.636 176.928 206.46 176.728 206.204 176.552C205.948 176.376 205.588 176.232 205.124 176.12C204.676 176.008 204.1 175.952 203.396 175.952V174.704C204.1 174.704 204.676 174.648 205.124 174.536C205.588 174.424 205.948 174.28 206.204 174.104C206.46 173.928 206.636 173.736 206.732 173.528C206.828 173.304 206.876 173.072 206.876 172.832C206.876 172.064 206.836 171.312 206.756 170.576C206.692 169.824 206.66 169.032 206.66 168.2C206.66 167.576 206.748 167.064 206.924 166.664C207.1 166.248 207.372 165.92 207.74 165.68C208.108 165.44 208.572 165.272 209.132 165.176C209.692 165.064 210.348 165.008 211.1 165.008H212.564V166.136H211.316C210.708 166.136 210.204 166.176 209.804 166.256C209.42 166.336 209.116 166.464 208.892 166.64C208.684 166.816 208.54 167.048 208.46 167.336C208.38 167.608 208.34 167.936 208.34 168.32C208.34 169.008 208.364 169.72 208.412 170.456C208.46 171.176 208.484 171.912 208.484 172.664C208.484 173.448 208.324 174.048 208.004 174.464C207.7 174.864 207.132 175.136 206.3 175.28V175.376C207.132 175.52 207.7 175.8 208.004 176.216C208.324 176.616 208.484 177.208 208.484 177.992C208.484 178.808 208.46 179.552 208.412 180.224C208.364 180.896 208.34 181.6 208.34 182.336C208.34 182.72 208.38 183.048 208.46 183.32C208.54 183.608 208.684 183.84 208.892 184.016C209.116 184.192 209.42 184.32 209.804 184.4C210.204 184.48 210.708 184.52 211.316 184.52H212.564V185.648H211.1ZM222.106 182.288C221.562 182.288 221.098 182.104 220.714 181.736C220.346 181.368 220.162 180.88 220.162 180.272C220.162 179.664 220.346 179.176 220.714 178.808C221.098 178.424 221.562 178.232 222.106 178.232C222.65 178.232 223.106 178.424 223.474 178.808C223.858 179.176 224.05 179.664 224.05 180.272C224.05 180.88 223.858 181.368 223.474 181.736C223.106 182.104 222.65 182.288 222.106 182.288ZM236.497 182.288C235.953 182.288 235.489 182.104 235.105 181.736C234.737 181.368 234.553 180.88 234.553 180.272C234.553 179.664 234.737 179.176 235.105 178.808C235.489 178.424 235.953 178.232 236.497 178.232C237.041 178.232 237.497 178.424 237.865 178.808C238.249 179.176 238.441 179.664 238.441 180.272C238.441 180.88 238.249 181.368 237.865 181.736C237.497 182.104 237.041 182.288 236.497 182.288ZM250.888 182.288C250.344 182.288 249.88 182.104 249.496 181.736C249.128 181.368 248.944 180.88 248.944 180.272C248.944 179.664 249.128 179.176 249.496 178.808C249.88 178.424 250.344 178.232 250.888 178.232C251.432 178.232 251.888 178.424 252.256 178.808C252.64 179.176 252.832 179.664 252.832 180.272C252.832 180.88 252.64 181.368 252.256 181.736C251.888 182.104 251.432 182.288 250.888 182.288ZM260.454 185.648V184.52H261.678C262.286 184.52 262.782 184.48 263.166 184.4C263.566 184.32 263.878 184.192 264.102 184.016C264.326 183.84 264.478 183.608 264.558 183.32C264.638 183.048 264.678 182.72 264.678 182.336C264.678 181.6 264.654 180.896 264.606 180.224C264.558 179.552 264.534 178.808 264.534 177.992C264.534 177.208 264.686 176.616 264.99 176.216C265.294 175.8 265.862 175.52 266.694 175.376V175.28C265.862 175.136 265.294 174.864 264.99 174.464C264.686 174.048 264.534 173.448 264.534 172.664C264.534 171.912 264.558 171.176 264.606 170.456C264.654 169.72 264.678 169.008 264.678 168.32C264.678 167.936 264.638 167.608 264.558 167.336C264.478 167.048 264.326 166.816 264.102 166.64C263.878 166.464 263.566 166.336 263.166 166.256C262.782 166.176 262.286 166.136 261.678 166.136H260.454V165.008H261.918C262.67 165.008 263.318 165.064 263.862 165.176C264.422 165.272 264.886 165.44 265.254 165.68C265.622 165.92 265.894 166.248 266.07 166.664C266.246 167.064 266.334 167.576 266.334 168.2C266.334 169.032 266.294 169.824 266.214 170.576C266.15 171.312 266.118 172.064 266.118 172.832C266.118 173.072 266.166 173.304 266.262 173.528C266.358 173.736 266.534 173.928 266.79 174.104C267.046 174.28 267.398 174.424 267.846 174.536C268.31 174.648 268.894 174.704 269.598 174.704V175.952C268.894 175.952 268.31 176.008 267.846 176.12C267.398 176.232 267.046 176.376 266.79 176.552C266.534 176.728 266.358 176.928 266.262 177.152C266.166 177.36 266.118 177.584 266.118 177.824C266.118 178.224 266.126 178.608 266.142 178.976C266.174 179.344 266.198 179.712 266.214 180.08C266.246 180.448 266.27 180.832 266.286 181.232C266.318 181.616 266.334 182.024 266.334 182.456C266.334 183.08 266.246 183.592 266.07 183.992C265.894 184.408 265.622 184.736 265.254 184.976C264.886 185.216 264.422 185.384 263.862 185.48C263.318 185.592 262.67 185.648 261.918 185.648H260.454Z" fill="#4E5769"/>
<rect x="31" y="34" width="368" height="278" rx="6" stroke="#2C749E" stroke-linejoin="bevel"/>
</svg>
