<svg width="430" height="437" viewBox="0 0 430 437" fill="none" xmlns="http://www.w3.org/2000/svg">
<rect x="9" y="43" width="411" height="392" rx="6" fill="white"/>
<rect x="29" y="63" width="371" height="123" rx="6" fill="#FDE7C7"/>
<path d="M52.192 96V80.256H61.864V81.936H54.208V87.264H60.688V88.944H54.208V96H52.192ZM70.5906 96.288C69.8226 96.288 69.0866 96.152 68.3826 95.88C67.6946 95.608 67.0866 95.216 66.5586 94.704C66.0306 94.176 65.6066 93.536 65.2866 92.784C64.9826 92.016 64.8306 91.152 64.8306 90.192C64.8306 89.216 64.9826 88.352 65.2866 87.6C65.6066 86.832 66.0306 86.184 66.5586 85.656C67.0866 85.128 67.6946 84.728 68.3826 84.456C69.0866 84.184 69.8226 84.048 70.5906 84.048C71.3586 84.048 72.0866 84.184 72.7746 84.456C73.4786 84.728 74.0946 85.128 74.6226 85.656C75.1506 86.184 75.5666 86.832 75.8706 87.6C76.1906 88.352 76.3506 89.216 76.3506 90.192C76.3506 91.152 76.1906 92.016 75.8706 92.784C75.5666 93.536 75.1506 94.176 74.6226 94.704C74.0946 95.216 73.4786 95.608 72.7746 95.88C72.0866 96.152 71.3586 96.288 70.5906 96.288ZM70.5906 94.656C71.1506 94.656 71.6546 94.552 72.1026 94.344C72.5666 94.12 72.9586 93.816 73.2786 93.432C73.6146 93.032 73.8706 92.56 74.0466 92.016C74.2226 91.472 74.3106 90.864 74.3106 90.192C74.3106 89.52 74.2226 88.912 74.0466 88.368C73.8706 87.808 73.6146 87.328 73.2786 86.928C72.9586 86.528 72.5666 86.224 72.1026 86.016C71.6546 85.792 71.1506 85.68 70.5906 85.68C70.0306 85.68 69.5186 85.792 69.0546 86.016C68.6066 86.224 68.2146 86.528 67.8786 86.928C67.5586 87.328 67.3106 87.808 67.1346 88.368C66.9586 88.912 66.8706 89.52 66.8706 90.192C66.8706 90.864 66.9586 91.472 67.1346 92.016C67.3106 92.56 67.5586 93.032 67.8786 93.432C68.2146 93.816 68.6066 94.12 69.0546 94.344C69.5186 94.552 70.0306 94.656 70.5906 94.656ZM81.2853 96V84.336H82.9173L83.0853 87.096H83.1573C83.7653 86.152 84.5093 85.408 85.3893 84.864C86.2853 84.32 87.2773 84.048 88.3653 84.048C88.7973 84.048 89.1973 84.088 89.5653 84.168C89.9333 84.232 90.3012 84.352 90.6693 84.528L90.2133 86.232C89.7973 86.088 89.4453 85.984 89.1573 85.92C88.8853 85.856 88.5173 85.824 88.0533 85.824C87.1733 85.824 86.3253 86.08 85.5093 86.592C84.7093 87.088 83.9573 87.944 83.2533 89.16V96H81.2853ZM93.5639 96V84.336H95.1479L95.3159 85.872H95.3639C95.6679 85.328 96.0199 84.888 96.4199 84.552C96.8199 84.216 97.3559 84.048 98.0279 84.048C99.1639 84.048 99.8999 84.72 100.236 86.064C100.572 85.44 100.94 84.952 101.34 84.6C101.756 84.232 102.3 84.048 102.972 84.048C103.788 84.048 104.42 84.36 104.868 84.984C105.332 85.592 105.564 86.48 105.564 87.648V96H103.596V87.792C103.596 86.432 103.18 85.752 102.348 85.752C101.932 85.752 101.596 85.904 101.34 86.208C101.084 86.496 100.796 86.944 100.476 87.552V96H98.6519V87.792C98.6519 87.12 98.5559 86.616 98.3639 86.28C98.1879 85.928 97.8839 85.752 97.4519 85.752C97.0359 85.752 96.6839 85.904 96.3959 86.208C96.1079 86.496 95.8199 86.944 95.5319 87.552V96H93.5639ZM116.955 100.224C115.291 98.928 113.971 97.368 112.995 95.544C112.035 93.72 111.555 91.648 111.555 89.328C111.555 87.008 112.035 84.936 112.995 83.112C113.971 81.288 115.291 79.728 116.955 78.432L118.035 79.44C116.419 80.8 115.227 82.28 114.459 83.88C113.707 85.48 113.331 87.296 113.331 89.328C113.331 91.36 113.707 93.176 114.459 94.776C115.227 96.376 116.419 97.856 118.035 99.216L116.955 100.224ZM124.961 100.224L123.881 99.216C125.497 97.856 126.681 96.376 127.433 94.776C128.201 93.176 128.585 91.36 128.585 89.328C128.585 87.296 128.201 85.48 127.433 83.88C126.681 82.28 125.497 80.8 123.881 79.44L124.961 78.432C126.625 79.728 127.937 81.288 128.897 83.112C129.873 84.936 130.361 87.008 130.361 89.328C130.361 91.648 129.873 93.72 128.897 95.544C127.937 97.368 126.625 98.928 124.961 100.224ZM145.928 99.648C145.176 99.648 144.52 99.592 143.96 99.48C143.4 99.384 142.936 99.216 142.568 98.976C142.2 98.736 141.928 98.408 141.752 97.992C141.576 97.592 141.488 97.08 141.488 96.456C141.488 96.024 141.496 95.616 141.512 95.232C141.544 94.832 141.568 94.448 141.584 94.08C141.616 93.712 141.64 93.344 141.656 92.976C141.688 92.608 141.704 92.224 141.704 91.824C141.704 91.584 141.656 91.36 141.56 91.152C141.464 90.928 141.288 90.728 141.032 90.552C140.776 90.376 140.416 90.232 139.952 90.12C139.504 90.008 138.928 89.952 138.224 89.952V88.704C138.928 88.704 139.504 88.648 139.952 88.536C140.416 88.424 140.776 88.28 141.032 88.104C141.288 87.928 141.464 87.736 141.56 87.528C141.656 87.304 141.704 87.072 141.704 86.832C141.704 86.064 141.664 85.312 141.584 84.576C141.52 83.824 141.488 83.032 141.488 82.2C141.488 81.576 141.576 81.064 141.752 80.664C141.928 80.248 142.2 79.92 142.568 79.68C142.936 79.44 143.4 79.272 143.96 79.176C144.52 79.064 145.176 79.008 145.928 79.008H147.392V80.136H146.144C145.536 80.136 145.032 80.176 144.632 80.256C144.248 80.336 143.944 80.464 143.72 80.64C143.512 80.816 143.368 81.048 143.288 81.336C143.208 81.608 143.168 81.936 143.168 82.32C143.168 83.008 143.192 83.72 143.24 84.456C143.288 85.176 143.312 85.912 143.312 86.664C143.312 87.448 143.152 88.048 142.832 88.464C142.528 88.864 141.96 89.136 141.128 89.28V89.376C141.96 89.52 142.528 89.8 142.832 90.216C143.152 90.616 143.312 91.208 143.312 91.992C143.312 92.808 143.288 93.552 143.24 94.224C143.192 94.896 143.168 95.6 143.168 96.336C143.168 96.72 143.208 97.048 143.288 97.32C143.368 97.608 143.512 97.84 143.72 98.016C143.944 98.192 144.248 98.32 144.632 98.4C145.032 98.48 145.536 98.52 146.144 98.52H147.392V99.648H145.928ZM99.3719 133.288C98.6039 133.288 97.8679 133.152 97.1639 132.88C96.4759 132.608 95.8679 132.216 95.3399 131.704C94.8119 131.176 94.3879 130.536 94.0679 129.784C93.7639 129.016 93.6119 128.152 93.6119 127.192C93.6119 126.216 93.7639 125.352 94.0679 124.6C94.3879 123.832 94.8119 123.184 95.3399 122.656C95.8679 122.128 96.4759 121.728 97.1639 121.456C97.8679 121.184 98.6039 121.048 99.3719 121.048C100.14 121.048 100.868 121.184 101.556 121.456C102.26 121.728 102.876 122.128 103.404 122.656C103.932 123.184 104.348 123.832 104.652 124.6C104.972 125.352 105.132 126.216 105.132 127.192C105.132 128.152 104.972 129.016 104.652 129.784C104.348 130.536 103.932 131.176 103.404 131.704C102.876 132.216 102.26 132.608 101.556 132.88C100.868 133.152 100.14 133.288 99.3719 133.288ZM99.3719 131.656C99.9319 131.656 100.436 131.552 100.884 131.344C101.348 131.12 101.74 130.816 102.06 130.432C102.396 130.032 102.652 129.56 102.828 129.016C103.004 128.472 103.092 127.864 103.092 127.192C103.092 126.52 103.004 125.912 102.828 125.368C102.652 124.808 102.396 124.328 102.06 123.928C101.74 123.528 101.348 123.224 100.884 123.016C100.436 122.792 99.9319 122.68 99.3719 122.68C98.8119 122.68 98.2999 122.792 97.8359 123.016C97.3879 123.224 96.9959 123.528 96.6599 123.928C96.3399 124.328 96.0919 124.808 95.9159 125.368C95.7399 125.912 95.6519 126.52 95.6519 127.192C95.6519 127.864 95.7399 128.472 95.9159 129.016C96.0919 129.56 96.3399 130.032 96.6599 130.432C96.9959 130.816 97.3879 131.12 97.8359 131.344C98.2999 131.552 98.8119 131.656 99.3719 131.656ZM108.795 133V121.336H110.427L110.595 123.328H110.691C111.299 122.672 111.955 122.128 112.659 121.696C113.363 121.264 114.171 121.048 115.083 121.048C116.475 121.048 117.491 121.448 118.131 122.248C118.787 123.032 119.115 124.2 119.115 125.752V133H117.147V126.016C117.147 124.912 116.939 124.096 116.523 123.568C116.107 123.024 115.419 122.752 114.459 122.752C114.107 122.752 113.779 122.8 113.475 122.896C113.187 122.976 112.899 123.104 112.611 123.28C112.323 123.456 112.027 123.68 111.723 123.952C111.419 124.208 111.099 124.512 110.763 124.864V133H108.795ZM129.377 133.288C128.401 133.288 127.497 133.104 126.665 132.736C125.833 132.368 125.105 131.84 124.481 131.152C123.873 130.448 123.393 129.592 123.041 128.584C122.689 127.56 122.513 126.408 122.513 125.128C122.513 123.864 122.689 122.728 123.041 121.72C123.393 120.712 123.881 119.856 124.505 119.152C125.129 118.448 125.873 117.912 126.737 117.544C127.601 117.16 128.545 116.968 129.569 116.968C130.513 116.968 131.345 117.16 132.065 117.544C132.801 117.928 133.401 118.376 133.865 118.888L132.737 120.16C132.321 119.728 131.857 119.384 131.345 119.128C130.833 118.856 130.241 118.72 129.569 118.72C128.817 118.72 128.129 118.872 127.505 119.176C126.897 119.464 126.377 119.888 125.945 120.448C125.513 120.992 125.177 121.656 124.937 122.44C124.697 123.224 124.577 124.104 124.577 125.08C124.577 126.072 124.697 126.968 124.937 127.768C125.177 128.552 125.513 129.224 125.945 129.784C126.377 130.344 126.897 130.776 127.505 131.08C128.129 131.384 128.817 131.536 129.569 131.536C130.289 131.536 130.929 131.384 131.489 131.08C132.065 130.776 132.609 130.344 133.121 129.784L134.249 131.008C133.625 131.728 132.921 132.288 132.137 132.688C131.353 133.088 130.433 133.288 129.377 133.288ZM145.112 133.288C143.864 133.288 142.912 132.936 142.256 132.232C141.6 131.528 141.272 130.48 141.272 129.088V117.52H137.12V115.912H143.24V129.232C143.24 130.096 143.448 130.72 143.864 131.104C144.28 131.472 144.84 131.656 145.544 131.656C146.232 131.656 146.96 131.48 147.728 131.128L148.232 132.592C147.688 132.816 147.192 132.984 146.744 133.096C146.296 133.224 145.752 133.288 145.112 133.288ZM157.318 133V122.944H151.894V121.336H159.286V133H157.318ZM158.086 118.888C157.638 118.888 157.262 118.752 156.958 118.48C156.654 118.192 156.502 117.816 156.502 117.352C156.502 116.888 156.654 116.52 156.958 116.248C157.262 115.96 157.638 115.816 158.086 115.816C158.534 115.816 158.91 115.96 159.214 116.248C159.518 116.52 159.67 116.888 159.67 117.352C159.67 117.816 159.518 118.192 159.214 118.48C158.91 118.752 158.534 118.888 158.086 118.888ZM172.429 133.288C171.517 133.288 170.669 133.152 169.885 132.88C169.117 132.608 168.445 132.216 167.869 131.704C167.293 131.176 166.845 130.536 166.525 129.784C166.205 129.016 166.045 128.152 166.045 127.192C166.045 126.216 166.213 125.352 166.549 124.6C166.901 123.832 167.373 123.184 167.965 122.656C168.557 122.128 169.245 121.728 170.029 121.456C170.829 121.184 171.669 121.048 172.549 121.048C173.509 121.048 174.333 121.216 175.021 121.552C175.725 121.888 176.317 122.288 176.797 122.752L175.813 124.024C175.333 123.608 174.829 123.28 174.301 123.04C173.789 122.8 173.229 122.68 172.621 122.68C171.949 122.68 171.333 122.792 170.773 123.016C170.213 123.224 169.733 123.528 169.333 123.928C168.949 124.328 168.645 124.808 168.421 125.368C168.197 125.912 168.085 126.52 168.085 127.192C168.085 127.864 168.189 128.472 168.397 129.016C168.621 129.56 168.925 130.032 169.309 130.432C169.709 130.816 170.181 131.12 170.725 131.344C171.285 131.552 171.901 131.656 172.573 131.656C173.293 131.656 173.949 131.52 174.541 131.248C175.149 130.96 175.693 130.608 176.173 130.192L177.061 131.464C176.405 132.04 175.685 132.488 174.901 132.808C174.117 133.128 173.293 133.288 172.429 133.288ZM181.06 133V115.912H183.028V127.48H183.124L189.412 121.336H191.668L187.012 125.92L192.292 133H190.084L185.788 127.12L183.028 129.832V133H181.06ZM203.298 137.224C201.634 135.928 200.314 134.368 199.338 132.544C198.378 130.72 197.898 128.648 197.898 126.328C197.898 124.008 198.378 121.936 199.338 120.112C200.314 118.288 201.634 116.728 203.298 115.432L204.378 116.44C202.762 117.8 201.57 119.28 200.802 120.88C200.05 122.48 199.674 124.296 199.674 126.328C199.674 128.36 200.05 130.176 200.802 131.776C201.57 133.376 202.762 134.856 204.378 136.216L203.298 137.224ZM211.305 137.224L210.225 136.216C211.841 134.856 213.025 133.376 213.777 131.776C214.545 130.176 214.929 128.36 214.929 126.328C214.929 124.296 214.545 122.48 213.777 120.88C213.025 119.28 211.841 117.8 210.225 116.44L211.305 115.432C212.969 116.728 214.281 118.288 215.241 120.112C216.217 121.936 216.705 124.008 216.705 126.328C216.705 128.648 216.217 130.72 215.241 132.544C214.281 134.368 212.969 135.928 211.305 137.224ZM232.272 136.648C231.52 136.648 230.864 136.592 230.304 136.48C229.744 136.384 229.28 136.216 228.912 135.976C228.544 135.736 228.272 135.408 228.096 134.992C227.92 134.592 227.832 134.08 227.832 133.456C227.832 133.024 227.84 132.616 227.855 132.232C227.888 131.832 227.912 131.448 227.928 131.08C227.96 130.712 227.984 130.344 228 129.976C228.032 129.608 228.048 129.224 228.048 128.824C228.048 128.584 228 128.36 227.904 128.152C227.808 127.928 227.632 127.728 227.376 127.552C227.12 127.376 226.76 127.232 226.296 127.12C225.848 127.008 225.272 126.952 224.568 126.952V125.704C225.272 125.704 225.848 125.648 226.296 125.536C226.76 125.424 227.12 125.28 227.376 125.104C227.632 124.928 227.808 124.736 227.904 124.528C228 124.304 228.048 124.072 228.048 123.832C228.048 123.064 228.008 122.312 227.928 121.576C227.864 120.824 227.832 120.032 227.832 119.2C227.832 118.576 227.92 118.064 228.096 117.664C228.272 117.248 228.544 116.92 228.912 116.68C229.28 116.44 229.744 116.272 230.304 116.176C230.864 116.064 231.52 116.008 232.272 116.008H233.736V117.136H232.488C231.88 117.136 231.376 117.176 230.976 117.256C230.592 117.336 230.288 117.464 230.064 117.64C229.856 117.816 229.712 118.048 229.632 118.336C229.552 118.608 229.512 118.936 229.512 119.32C229.512 120.008 229.536 120.72 229.584 121.456C229.632 122.176 229.656 122.912 229.656 123.664C229.656 124.448 229.496 125.048 229.176 125.464C228.872 125.864 228.304 126.136 227.472 126.28V126.376C228.304 126.52 228.872 126.8 229.176 127.216C229.496 127.616 229.656 128.208 229.656 128.992C229.656 129.808 229.632 130.552 229.584 131.224C229.536 131.896 229.512 132.6 229.512 133.336C229.512 133.72 229.552 134.048 229.632 134.32C229.712 134.608 229.856 134.84 230.064 135.016C230.288 135.192 230.592 135.32 230.976 135.4C231.376 135.48 231.88 135.52 232.488 135.52H233.736V136.648H232.272ZM243.278 133.288C242.734 133.288 242.27 133.104 241.886 132.736C241.518 132.368 241.334 131.88 241.334 131.272C241.334 130.664 241.518 130.176 241.886 129.808C242.27 129.424 242.734 129.232 243.278 129.232C243.822 129.232 244.278 129.424 244.646 129.808C245.03 130.176 245.222 130.664 245.222 131.272C245.222 131.88 245.03 132.368 244.646 132.736C244.278 133.104 243.822 133.288 243.278 133.288ZM257.669 133.288C257.125 133.288 256.661 133.104 256.277 132.736C255.909 132.368 255.725 131.88 255.725 131.272C255.725 130.664 255.909 130.176 256.277 129.808C256.661 129.424 257.125 129.232 257.669 129.232C258.213 129.232 258.669 129.424 259.037 129.808C259.421 130.176 259.613 130.664 259.613 131.272C259.613 131.88 259.421 132.368 259.037 132.736C258.669 133.104 258.213 133.288 257.669 133.288ZM272.059 133.288C271.515 133.288 271.051 133.104 270.667 132.736C270.299 132.368 270.115 131.88 270.115 131.272C270.115 130.664 270.299 130.176 270.667 129.808C271.051 129.424 271.515 129.232 272.059 129.232C272.603 129.232 273.059 129.424 273.427 129.808C273.811 130.176 274.003 130.664 274.003 131.272C274.003 131.88 273.811 132.368 273.427 132.736C273.059 133.104 272.603 133.288 272.059 133.288ZM281.626 136.648V135.52H282.85C283.458 135.52 283.954 135.48 284.338 135.4C284.738 135.32 285.05 135.192 285.274 135.016C285.498 134.84 285.65 134.608 285.73 134.32C285.81 134.048 285.85 133.72 285.85 133.336C285.85 132.6 285.826 131.896 285.778 131.224C285.73 130.552 285.706 129.808 285.706 128.992C285.706 128.208 285.858 127.616 286.162 127.216C286.466 126.8 287.034 126.52 287.866 126.376V126.28C287.034 126.136 286.466 125.864 286.162 125.464C285.858 125.048 285.706 124.448 285.706 123.664C285.706 122.912 285.73 122.176 285.778 121.456C285.826 120.72 285.85 120.008 285.85 119.32C285.85 118.936 285.81 118.608 285.73 118.336C285.65 118.048 285.498 117.816 285.274 117.64C285.05 117.464 284.738 117.336 284.338 117.256C283.954 117.176 283.458 117.136 282.85 117.136H281.626V116.008H283.09C283.842 116.008 284.49 116.064 285.034 116.176C285.594 116.272 286.058 116.44 286.426 116.68C286.794 116.92 287.066 117.248 287.242 117.664C287.418 118.064 287.506 118.576 287.506 119.2C287.506 120.032 287.466 120.824 287.386 121.576C287.322 122.312 287.29 123.064 287.29 123.832C287.29 124.072 287.338 124.304 287.434 124.528C287.53 124.736 287.706 124.928 287.962 125.104C288.218 125.28 288.57 125.424 289.018 125.536C289.482 125.648 290.066 125.704 290.77 125.704V126.952C290.066 126.952 289.482 127.008 289.018 127.12C288.57 127.232 288.218 127.376 287.962 127.552C287.706 127.728 287.53 127.928 287.434 128.152C287.338 128.36 287.29 128.584 287.29 128.824C287.29 129.224 287.298 129.608 287.314 129.976C287.346 130.344 287.37 130.712 287.386 131.08C287.418 131.448 287.442 131.832 287.458 132.232C287.49 132.616 287.506 133.024 287.506 133.456C287.506 134.08 287.418 134.592 287.242 134.992C287.066 135.408 286.794 135.736 286.426 135.976C286.058 136.216 285.594 136.384 285.034 136.48C284.49 136.592 283.842 136.648 283.09 136.648H281.626ZM99.3719 170.288C98.6039 170.288 97.8679 170.152 97.1639 169.88C96.4759 169.608 95.8679 169.216 95.3399 168.704C94.8119 168.176 94.3879 167.536 94.0679 166.784C93.7639 166.016 93.6119 165.152 93.6119 164.192C93.6119 163.216 93.7639 162.352 94.0679 161.6C94.3879 160.832 94.8119 160.184 95.3399 159.656C95.8679 159.128 96.4759 158.728 97.1639 158.456C97.8679 158.184 98.6039 158.048 99.3719 158.048C100.14 158.048 100.868 158.184 101.556 158.456C102.26 158.728 102.876 159.128 103.404 159.656C103.932 160.184 104.348 160.832 104.652 161.6C104.972 162.352 105.132 163.216 105.132 164.192C105.132 165.152 104.972 166.016 104.652 166.784C104.348 167.536 103.932 168.176 103.404 168.704C102.876 169.216 102.26 169.608 101.556 169.88C100.868 170.152 100.14 170.288 99.3719 170.288ZM99.3719 168.656C99.9319 168.656 100.436 168.552 100.884 168.344C101.348 168.12 101.74 167.816 102.06 167.432C102.396 167.032 102.652 166.56 102.828 166.016C103.004 165.472 103.092 164.864 103.092 164.192C103.092 163.52 103.004 162.912 102.828 162.368C102.652 161.808 102.396 161.328 102.06 160.928C101.74 160.528 101.348 160.224 100.884 160.016C100.436 159.792 99.9319 159.68 99.3719 159.68C98.8119 159.68 98.2999 159.792 97.8359 160.016C97.3879 160.224 96.9959 160.528 96.6599 160.928C96.3399 161.328 96.0919 161.808 95.9159 162.368C95.7399 162.912 95.6519 163.52 95.6519 164.192C95.6519 164.864 95.7399 165.472 95.9159 166.016C96.0919 166.56 96.3399 167.032 96.6599 167.432C96.9959 167.816 97.3879 168.12 97.8359 168.344C98.2999 168.552 98.8119 168.656 99.3719 168.656ZM108.795 170V158.336H110.427L110.595 160.328H110.691C111.299 159.672 111.955 159.128 112.659 158.696C113.363 158.264 114.171 158.048 115.083 158.048C116.475 158.048 117.491 158.448 118.131 159.248C118.787 160.032 119.115 161.2 119.115 162.752V170H117.147V163.016C117.147 161.912 116.939 161.096 116.523 160.568C116.107 160.024 115.419 159.752 114.459 159.752C114.107 159.752 113.779 159.8 113.475 159.896C113.187 159.976 112.899 160.104 112.611 160.28C112.323 160.456 112.027 160.68 111.723 160.952C111.419 161.208 111.099 161.512 110.763 161.864V170H108.795ZM128.273 170.288C127.121 170.288 126.057 170.08 125.081 169.664C124.121 169.248 123.281 168.68 122.561 167.96L123.761 166.568C124.353 167.16 125.041 167.64 125.825 168.008C126.609 168.36 127.457 168.536 128.369 168.536C129.457 168.536 130.297 168.304 130.889 167.84C131.497 167.376 131.801 166.776 131.801 166.04C131.801 165.624 131.729 165.272 131.585 164.984C131.441 164.696 131.241 164.448 130.985 164.24C130.729 164.032 130.425 163.848 130.073 163.688C129.737 163.528 129.369 163.36 128.969 163.184L126.713 162.2C126.313 162.04 125.913 161.848 125.513 161.624C125.113 161.4 124.745 161.128 124.409 160.808C124.089 160.488 123.825 160.112 123.617 159.68C123.409 159.232 123.305 158.72 123.305 158.144C123.305 157.552 123.433 157 123.689 156.488C123.945 155.976 124.297 155.536 124.745 155.168C125.209 154.784 125.753 154.488 126.377 154.28C127.017 154.072 127.713 153.968 128.465 153.968C129.457 153.968 130.369 154.152 131.201 154.52C132.033 154.872 132.737 155.336 133.313 155.912L132.257 157.208C131.745 156.744 131.177 156.384 130.553 156.128C129.929 155.856 129.209 155.72 128.393 155.72C127.481 155.72 126.745 155.928 126.185 156.344C125.625 156.744 125.345 157.304 125.345 158.024C125.345 158.408 125.425 158.736 125.585 159.008C125.761 159.264 125.977 159.496 126.233 159.704C126.505 159.896 126.809 160.064 127.145 160.208C127.481 160.352 127.817 160.496 128.153 160.64L130.361 161.6C130.841 161.792 131.289 162.016 131.705 162.272C132.137 162.512 132.505 162.8 132.809 163.136C133.129 163.456 133.377 163.84 133.553 164.288C133.745 164.72 133.841 165.224 133.841 165.8C133.841 166.424 133.713 167.008 133.457 167.552C133.201 168.096 132.833 168.576 132.353 168.992C131.873 169.392 131.289 169.712 130.601 169.952C129.913 170.176 129.137 170.288 128.273 170.288ZM141.248 170.288C139.84 170.288 138.808 169.896 138.152 169.112C137.512 168.312 137.192 167.136 137.192 165.584V158.336H139.184V165.32C139.184 166.424 139.384 167.248 139.784 167.792C140.2 168.32 140.896 168.584 141.872 168.584C142.544 168.584 143.152 168.416 143.696 168.08C144.24 167.728 144.84 167.176 145.496 166.424V158.336H147.464V170H145.856L145.688 167.96H145.592C145 168.648 144.352 169.208 143.648 169.64C142.96 170.072 142.16 170.288 141.248 170.288ZM157.414 170.288C156.854 170.288 156.246 170.152 155.59 169.88C154.95 169.592 154.35 169.2 153.79 168.704H153.718L153.55 170H151.966V152.912H153.934V157.568L153.862 159.824H153.934C154.462 159.28 155.07 158.848 155.758 158.528C156.462 158.208 157.158 158.048 157.846 158.048C158.63 158.048 159.326 158.192 159.934 158.48C160.542 158.752 161.046 159.152 161.446 159.68C161.862 160.192 162.174 160.816 162.382 161.552C162.59 162.272 162.694 163.08 162.694 163.976C162.694 164.968 162.55 165.856 162.262 166.64C161.974 167.424 161.582 168.088 161.086 168.632C160.606 169.176 160.046 169.592 159.406 169.88C158.766 170.152 158.102 170.288 157.414 170.288ZM157.102 168.632C157.614 168.632 158.086 168.528 158.518 168.32C158.95 168.096 159.326 167.792 159.646 167.408C159.966 167.008 160.214 166.52 160.39 165.944C160.566 165.368 160.654 164.72 160.654 164C160.654 163.36 160.59 162.776 160.462 162.248C160.334 161.72 160.134 161.272 159.862 160.904C159.606 160.52 159.27 160.224 158.854 160.016C158.438 159.808 157.942 159.704 157.366 159.704C156.854 159.704 156.302 159.848 155.71 160.136C155.134 160.408 154.542 160.848 153.934 161.456V167.264C154.494 167.76 155.054 168.112 155.614 168.32C156.19 168.528 156.686 168.632 157.102 168.632ZM165.517 170V158.336H167.101L167.269 159.872H167.317C167.621 159.328 167.973 158.888 168.373 158.552C168.773 158.216 169.309 158.048 169.981 158.048C171.117 158.048 171.853 158.72 172.189 160.064C172.525 159.44 172.893 158.952 173.293 158.6C173.709 158.232 174.253 158.048 174.925 158.048C175.741 158.048 176.373 158.36 176.821 158.984C177.285 159.592 177.517 160.48 177.517 161.648V170H175.549V161.792C175.549 160.432 175.133 159.752 174.301 159.752C173.885 159.752 173.549 159.904 173.293 160.208C173.037 160.496 172.749 160.944 172.429 161.552V170H170.605V161.792C170.605 161.12 170.509 160.616 170.317 160.28C170.141 159.928 169.837 159.752 169.405 159.752C168.989 159.752 168.637 159.904 168.349 160.208C168.061 160.496 167.773 160.944 167.485 161.552V170H165.517ZM186.1 170V159.944H180.676V158.336H188.068V170H186.1ZM186.868 155.888C186.42 155.888 186.044 155.752 185.74 155.48C185.436 155.192 185.284 154.816 185.284 154.352C185.284 153.888 185.436 153.52 185.74 153.248C186.044 152.96 186.42 152.816 186.868 152.816C187.316 152.816 187.692 152.96 187.996 153.248C188.3 153.52 188.452 153.888 188.452 154.352C188.452 154.816 188.3 155.192 187.996 155.48C187.692 155.752 187.316 155.888 186.868 155.888ZM202.362 170.288C201.514 170.288 200.802 170.176 200.226 169.952C199.65 169.712 199.186 169.384 198.834 168.968C198.482 168.536 198.226 168.024 198.066 167.432C197.922 166.84 197.85 166.184 197.85 165.464V159.944H194.562V158.456L197.922 158.336L198.186 154.592H199.818V158.336H205.554V159.944H199.818V165.488C199.818 166.016 199.866 166.48 199.962 166.88C200.058 167.264 200.218 167.592 200.442 167.864C200.666 168.136 200.97 168.344 201.354 168.488C201.738 168.616 202.21 168.68 202.77 168.68C203.33 168.68 203.834 168.632 204.282 168.536C204.73 168.44 205.162 168.312 205.578 168.152L206.01 169.592C205.482 169.784 204.922 169.944 204.33 170.072C203.754 170.216 203.098 170.288 202.362 170.288ZM217.689 174.224C216.025 172.928 214.705 171.368 213.729 169.544C212.769 167.72 212.289 165.648 212.289 163.328C212.289 161.008 212.769 158.936 213.729 157.112C214.705 155.288 216.025 153.728 217.689 152.432L218.769 153.44C217.153 154.8 215.961 156.28 215.193 157.88C214.441 159.48 214.065 161.296 214.065 163.328C214.065 165.36 214.441 167.176 215.193 168.776C215.961 170.376 217.153 171.856 218.769 173.216L217.689 174.224ZM225.696 174.224L224.616 173.216C226.232 171.856 227.416 170.376 228.168 168.776C228.936 167.176 229.32 165.36 229.32 163.328C229.32 161.296 228.936 159.48 228.168 157.88C227.416 156.28 226.232 154.8 224.616 153.44L225.696 152.432C227.36 153.728 228.672 155.288 229.632 157.112C230.608 158.936 231.096 161.008 231.096 163.328C231.096 165.648 230.608 167.72 229.632 169.544C228.672 171.368 227.36 172.928 225.696 174.224ZM246.662 173.648C245.91 173.648 245.254 173.592 244.694 173.48C244.134 173.384 243.67 173.216 243.302 172.976C242.934 172.736 242.662 172.408 242.486 171.992C242.31 171.592 242.222 171.08 242.222 170.456C242.222 170.024 242.23 169.616 242.246 169.232C242.278 168.832 242.302 168.448 242.318 168.08C242.35 167.712 242.374 167.344 242.39 166.976C242.422 166.608 242.438 166.224 242.438 165.824C242.438 165.584 242.39 165.36 242.294 165.152C242.198 164.928 242.022 164.728 241.766 164.552C241.51 164.376 241.15 164.232 240.686 164.12C240.238 164.008 239.662 163.952 238.958 163.952V162.704C239.662 162.704 240.238 162.648 240.686 162.536C241.15 162.424 241.51 162.28 241.766 162.104C242.022 161.928 242.198 161.736 242.294 161.528C242.39 161.304 242.438 161.072 242.438 160.832C242.438 160.064 242.398 159.312 242.318 158.576C242.254 157.824 242.222 157.032 242.222 156.2C242.222 155.576 242.31 155.064 242.486 154.664C242.662 154.248 242.934 153.92 243.302 153.68C243.67 153.44 244.134 153.272 244.694 153.176C245.254 153.064 245.91 153.008 246.662 153.008H248.126V154.136H246.878C246.27 154.136 245.766 154.176 245.366 154.256C244.982 154.336 244.678 154.464 244.454 154.64C244.246 154.816 244.102 155.048 244.022 155.336C243.942 155.608 243.902 155.936 243.902 156.32C243.902 157.008 243.926 157.72 243.974 158.456C244.022 159.176 244.046 159.912 244.046 160.664C244.046 161.448 243.886 162.048 243.566 162.464C243.262 162.864 242.694 163.136 241.862 163.28V163.376C242.694 163.52 243.262 163.8 243.566 164.216C243.886 164.616 244.046 165.208 244.046 165.992C244.046 166.808 244.022 167.552 243.974 168.224C243.926 168.896 243.902 169.6 243.902 170.336C243.902 170.72 243.942 171.048 244.022 171.32C244.102 171.608 244.246 171.84 244.454 172.016C244.678 172.192 244.982 172.32 245.366 172.4C245.766 172.48 246.27 172.52 246.878 172.52H248.126V173.648H246.662ZM257.669 170.288C257.125 170.288 256.661 170.104 256.277 169.736C255.909 169.368 255.725 168.88 255.725 168.272C255.725 167.664 255.909 167.176 256.277 166.808C256.661 166.424 257.125 166.232 257.669 166.232C258.213 166.232 258.669 166.424 259.037 166.808C259.421 167.176 259.613 167.664 259.613 168.272C259.613 168.88 259.421 169.368 259.037 169.736C258.669 170.104 258.213 170.288 257.669 170.288ZM272.059 170.288C271.515 170.288 271.051 170.104 270.667 169.736C270.299 169.368 270.115 168.88 270.115 168.272C270.115 167.664 270.299 167.176 270.667 166.808C271.051 166.424 271.515 166.232 272.059 166.232C272.603 166.232 273.059 166.424 273.427 166.808C273.811 167.176 274.003 167.664 274.003 168.272C274.003 168.88 273.811 169.368 273.427 169.736C273.059 170.104 272.603 170.288 272.059 170.288ZM286.45 170.288C285.906 170.288 285.442 170.104 285.058 169.736C284.69 169.368 284.506 168.88 284.506 168.272C284.506 167.664 284.69 167.176 285.058 166.808C285.442 166.424 285.906 166.232 286.45 166.232C286.994 166.232 287.45 166.424 287.818 166.808C288.202 167.176 288.394 167.664 288.394 168.272C288.394 168.88 288.202 169.368 287.818 169.736C287.45 170.104 286.994 170.288 286.45 170.288ZM296.017 173.648V172.52H297.241C297.849 172.52 298.345 172.48 298.729 172.4C299.129 172.32 299.441 172.192 299.665 172.016C299.889 171.84 300.041 171.608 300.121 171.32C300.201 171.048 300.241 170.72 300.241 170.336C300.241 169.6 300.217 168.896 300.169 168.224C300.121 167.552 300.097 166.808 300.097 165.992C300.097 165.208 300.249 164.616 300.553 164.216C300.857 163.8 301.425 163.52 302.257 163.376V163.28C301.425 163.136 300.857 162.864 300.553 162.464C300.249 162.048 300.097 161.448 300.097 160.664C300.097 159.912 300.121 159.176 300.169 158.456C300.217 157.72 300.241 157.008 300.241 156.32C300.241 155.936 300.201 155.608 300.121 155.336C300.041 155.048 299.889 154.816 299.665 154.64C299.441 154.464 299.129 154.336 298.729 154.256C298.345 154.176 297.849 154.136 297.241 154.136H296.017V153.008H297.481C298.233 153.008 298.881 153.064 299.425 153.176C299.985 153.272 300.449 153.44 300.817 153.68C301.185 153.92 301.457 154.248 301.633 154.664C301.809 155.064 301.897 155.576 301.897 156.2C301.897 157.032 301.857 157.824 301.777 158.576C301.713 159.312 301.681 160.064 301.681 160.832C301.681 161.072 301.729 161.304 301.825 161.528C301.921 161.736 302.097 161.928 302.353 162.104C302.609 162.28 302.961 162.424 303.409 162.536C303.873 162.648 304.457 162.704 305.161 162.704V163.952C304.457 163.952 303.873 164.008 303.409 164.12C302.961 164.232 302.609 164.376 302.353 164.552C302.097 164.728 301.921 164.928 301.825 165.152C301.729 165.36 301.681 165.584 301.681 165.824C301.681 166.224 301.689 166.608 301.705 166.976C301.737 167.344 301.761 167.712 301.777 168.08C301.809 168.448 301.833 168.832 301.849 169.232C301.881 169.616 301.897 170.024 301.897 170.456C301.897 171.08 301.809 171.592 301.633 171.992C301.457 172.408 301.185 172.736 300.817 172.976C300.449 173.216 299.985 173.384 299.425 173.48C298.881 173.592 298.233 173.648 297.481 173.648H296.017Z" fill="#4E5769"/>
<rect x="29" y="194" width="371" height="160" rx="6" fill="#E7E9FB"/>
<path d="M104.004 225.848L95.0519 219.776V218.288L104.004 212.216V214.112L96.7799 218.984V219.08L104.004 223.952V225.848ZM112.371 227V216.944H109.035V215.456L112.371 215.336V214.352C112.371 212.928 112.747 211.784 113.499 210.92C114.267 210.056 115.459 209.624 117.075 209.624C118.227 209.624 119.347 209.848 120.435 210.296L119.979 211.784C119.499 211.56 119.051 211.416 118.635 211.352C118.235 211.272 117.779 211.232 117.267 211.232C116.211 211.232 115.451 211.504 114.987 212.048C114.539 212.576 114.315 213.32 114.315 214.28V215.336H119.211V216.944H114.315V227H112.371ZM128.153 227.288C127.385 227.288 126.649 227.152 125.945 226.88C125.257 226.608 124.649 226.216 124.121 225.704C123.593 225.176 123.169 224.536 122.849 223.784C122.545 223.016 122.393 222.152 122.393 221.192C122.393 220.216 122.545 219.352 122.849 218.6C123.169 217.832 123.593 217.184 124.121 216.656C124.649 216.128 125.257 215.728 125.945 215.456C126.649 215.184 127.385 215.048 128.153 215.048C128.921 215.048 129.649 215.184 130.337 215.456C131.041 215.728 131.657 216.128 132.185 216.656C132.713 217.184 133.129 217.832 133.433 218.6C133.753 219.352 133.913 220.216 133.913 221.192C133.913 222.152 133.753 223.016 133.433 223.784C133.129 224.536 132.713 225.176 132.185 225.704C131.657 226.216 131.041 226.608 130.337 226.88C129.649 227.152 128.921 227.288 128.153 227.288ZM128.153 225.656C128.713 225.656 129.217 225.552 129.665 225.344C130.129 225.12 130.521 224.816 130.841 224.432C131.177 224.032 131.433 223.56 131.609 223.016C131.785 222.472 131.873 221.864 131.873 221.192C131.873 220.52 131.785 219.912 131.609 219.368C131.433 218.808 131.177 218.328 130.841 217.928C130.521 217.528 130.129 217.224 129.665 217.016C129.217 216.792 128.713 216.68 128.153 216.68C127.593 216.68 127.081 216.792 126.617 217.016C126.169 217.224 125.777 217.528 125.441 217.928C125.121 218.328 124.873 218.808 124.697 219.368C124.521 219.912 124.433 220.52 124.433 221.192C124.433 221.864 124.521 222.472 124.697 223.016C124.873 223.56 125.121 224.032 125.441 224.432C125.777 224.816 126.169 225.12 126.617 225.344C127.081 225.552 127.593 225.656 128.153 225.656ZM138.848 227V215.336H140.48L140.648 218.096H140.72C141.328 217.152 142.072 216.408 142.952 215.864C143.848 215.32 144.84 215.048 145.928 215.048C146.36 215.048 146.76 215.088 147.128 215.168C147.496 215.232 147.864 215.352 148.232 215.528L147.776 217.232C147.36 217.088 147.008 216.984 146.72 216.92C146.448 216.856 146.08 216.824 145.616 216.824C144.736 216.824 143.888 217.08 143.072 217.592C142.272 218.088 141.52 218.944 140.816 220.16V227H138.848ZM151.126 227V215.336H152.71L152.878 216.872H152.926C153.23 216.328 153.582 215.888 153.982 215.552C154.382 215.216 154.918 215.048 155.59 215.048C156.726 215.048 157.462 215.72 157.798 217.064C158.134 216.44 158.502 215.952 158.902 215.6C159.318 215.232 159.862 215.048 160.534 215.048C161.35 215.048 161.982 215.36 162.43 215.984C162.894 216.592 163.126 217.48 163.126 218.648V227H161.158V218.792C161.158 217.432 160.742 216.752 159.91 216.752C159.494 216.752 159.158 216.904 158.902 217.208C158.646 217.496 158.358 217.944 158.038 218.552V227H156.214V218.792C156.214 218.12 156.118 217.616 155.926 217.28C155.75 216.928 155.446 216.752 155.014 216.752C154.598 216.752 154.246 216.904 153.958 217.208C153.67 217.496 153.382 217.944 153.094 218.552V227H151.126ZM185.716 227.288C184.948 227.288 184.212 227.152 183.508 226.88C182.82 226.608 182.212 226.216 181.684 225.704C181.156 225.176 180.732 224.536 180.412 223.784C180.108 223.016 179.956 222.152 179.956 221.192C179.956 220.216 180.108 219.352 180.412 218.6C180.732 217.832 181.156 217.184 181.684 216.656C182.212 216.128 182.82 215.728 183.508 215.456C184.212 215.184 184.948 215.048 185.716 215.048C186.484 215.048 187.212 215.184 187.9 215.456C188.604 215.728 189.22 216.128 189.748 216.656C190.276 217.184 190.692 217.832 190.996 218.6C191.316 219.352 191.476 220.216 191.476 221.192C191.476 222.152 191.316 223.016 190.996 223.784C190.692 224.536 190.276 225.176 189.748 225.704C189.22 226.216 188.604 226.608 187.9 226.88C187.212 227.152 186.484 227.288 185.716 227.288ZM185.716 225.656C186.276 225.656 186.78 225.552 187.228 225.344C187.692 225.12 188.084 224.816 188.404 224.432C188.74 224.032 188.996 223.56 189.172 223.016C189.348 222.472 189.436 221.864 189.436 221.192C189.436 220.52 189.348 219.912 189.172 219.368C188.996 218.808 188.74 218.328 188.404 217.928C188.084 217.528 187.692 217.224 187.228 217.016C186.78 216.792 186.276 216.68 185.716 216.68C185.156 216.68 184.644 216.792 184.18 217.016C183.732 217.224 183.34 217.528 183.004 217.928C182.684 218.328 182.436 218.808 182.26 219.368C182.084 219.912 181.996 220.52 181.996 221.192C181.996 221.864 182.084 222.472 182.26 223.016C182.436 223.56 182.684 224.032 183.004 224.432C183.34 224.816 183.732 225.12 184.18 225.344C184.644 225.552 185.156 225.656 185.716 225.656ZM195.138 227V215.336H196.77L196.938 217.328H197.034C197.642 216.672 198.298 216.128 199.002 215.696C199.706 215.264 200.514 215.048 201.426 215.048C202.818 215.048 203.834 215.448 204.474 216.248C205.13 217.032 205.458 218.2 205.458 219.752V227H203.49V220.016C203.49 218.912 203.282 218.096 202.866 217.568C202.45 217.024 201.762 216.752 200.802 216.752C200.45 216.752 200.122 216.8 199.818 216.896C199.53 216.976 199.242 217.104 198.954 217.28C198.666 217.456 198.37 217.68 198.066 217.952C197.762 218.208 197.442 218.512 197.106 218.864V227H195.138ZM214.617 227.288C213.465 227.288 212.401 227.08 211.425 226.664C210.465 226.248 209.625 225.68 208.905 224.96L210.105 223.568C210.697 224.16 211.385 224.64 212.169 225.008C212.953 225.36 213.801 225.536 214.713 225.536C215.801 225.536 216.641 225.304 217.233 224.84C217.841 224.376 218.145 223.776 218.145 223.04C218.145 222.624 218.073 222.272 217.929 221.984C217.785 221.696 217.585 221.448 217.329 221.24C217.073 221.032 216.769 220.848 216.417 220.688C216.081 220.528 215.713 220.36 215.313 220.184L213.057 219.2C212.657 219.04 212.257 218.848 211.857 218.624C211.457 218.4 211.089 218.128 210.753 217.808C210.433 217.488 210.169 217.112 209.961 216.68C209.753 216.232 209.649 215.72 209.649 215.144C209.649 214.552 209.777 214 210.033 213.488C210.289 212.976 210.641 212.536 211.089 212.168C211.553 211.784 212.097 211.488 212.721 211.28C213.361 211.072 214.057 210.968 214.809 210.968C215.801 210.968 216.713 211.152 217.545 211.52C218.377 211.872 219.081 212.336 219.657 212.912L218.601 214.208C218.089 213.744 217.521 213.384 216.897 213.128C216.273 212.856 215.553 212.72 214.737 212.72C213.825 212.72 213.089 212.928 212.529 213.344C211.969 213.744 211.689 214.304 211.689 215.024C211.689 215.408 211.769 215.736 211.929 216.008C212.105 216.264 212.321 216.496 212.577 216.704C212.849 216.896 213.153 217.064 213.489 217.208C213.825 217.352 214.161 217.496 214.497 217.64L216.705 218.6C217.185 218.792 217.633 219.016 218.049 219.272C218.481 219.512 218.849 219.8 219.153 220.136C219.473 220.456 219.721 220.84 219.897 221.288C220.089 221.72 220.185 222.224 220.185 222.8C220.185 223.424 220.057 224.008 219.801 224.552C219.545 225.096 219.177 225.576 218.697 225.992C218.217 226.392 217.633 226.712 216.945 226.952C216.257 227.176 215.481 227.288 214.617 227.288ZM227.592 227.288C226.184 227.288 225.152 226.896 224.496 226.112C223.856 225.312 223.536 224.136 223.536 222.584V215.336H225.528V222.32C225.528 223.424 225.728 224.248 226.128 224.792C226.544 225.32 227.24 225.584 228.216 225.584C228.888 225.584 229.496 225.416 230.04 225.08C230.584 224.728 231.184 224.176 231.84 223.424V215.336H233.807V227H232.2L232.032 224.96H231.936C231.344 225.648 230.696 226.208 229.992 226.64C229.304 227.072 228.504 227.288 227.592 227.288ZM243.758 227.288C243.198 227.288 242.59 227.152 241.934 226.88C241.294 226.592 240.694 226.2 240.134 225.704H240.062L239.894 227H238.31V209.912H240.278V214.568L240.206 216.824H240.278C240.806 216.28 241.414 215.848 242.102 215.528C242.806 215.208 243.502 215.048 244.19 215.048C244.974 215.048 245.67 215.192 246.278 215.48C246.886 215.752 247.39 216.152 247.79 216.68C248.206 217.192 248.518 217.816 248.726 218.552C248.934 219.272 249.038 220.08 249.038 220.976C249.038 221.968 248.894 222.856 248.606 223.64C248.318 224.424 247.926 225.088 247.43 225.632C246.95 226.176 246.39 226.592 245.75 226.88C245.11 227.152 244.446 227.288 243.758 227.288ZM243.446 225.632C243.958 225.632 244.43 225.528 244.862 225.32C245.294 225.096 245.67 224.792 245.99 224.408C246.31 224.008 246.558 223.52 246.734 222.944C246.91 222.368 246.998 221.72 246.998 221C246.998 220.36 246.934 219.776 246.806 219.248C246.678 218.72 246.478 218.272 246.206 217.904C245.95 217.52 245.614 217.224 245.198 217.016C244.782 216.808 244.286 216.704 243.71 216.704C243.198 216.704 242.646 216.848 242.054 217.136C241.478 217.408 240.886 217.848 240.278 218.456V224.264C240.838 224.76 241.398 225.112 241.958 225.32C242.534 225.528 243.03 225.632 243.446 225.632ZM251.861 227V215.336H253.445L253.613 216.872H253.661C253.965 216.328 254.317 215.888 254.717 215.552C255.117 215.216 255.653 215.048 256.325 215.048C257.461 215.048 258.197 215.72 258.533 217.064C258.869 216.44 259.237 215.952 259.637 215.6C260.053 215.232 260.597 215.048 261.269 215.048C262.085 215.048 262.717 215.36 263.165 215.984C263.629 216.592 263.861 217.48 263.861 218.648V227H261.893V218.792C261.893 217.432 261.477 216.752 260.645 216.752C260.229 216.752 259.893 216.904 259.637 217.208C259.381 217.496 259.093 217.944 258.773 218.552V227H256.949V218.792C256.949 218.12 256.853 217.616 256.661 217.28C256.485 216.928 256.181 216.752 255.749 216.752C255.333 216.752 254.981 216.904 254.693 217.208C254.405 217.496 254.117 217.944 253.829 218.552V227H251.861ZM272.443 227V216.944H267.019V215.336H274.411V227H272.443ZM273.211 212.888C272.763 212.888 272.387 212.752 272.083 212.48C271.779 212.192 271.627 211.816 271.627 211.352C271.627 210.888 271.779 210.52 272.083 210.248C272.387 209.96 272.763 209.816 273.211 209.816C273.659 209.816 274.035 209.96 274.339 210.248C274.643 210.52 274.795 210.888 274.795 211.352C274.795 211.816 274.643 212.192 274.339 212.48C274.035 212.752 273.659 212.888 273.211 212.888ZM288.706 227.288C287.858 227.288 287.146 227.176 286.57 226.952C285.994 226.712 285.53 226.384 285.178 225.968C284.826 225.536 284.57 225.024 284.41 224.432C284.266 223.84 284.194 223.184 284.194 222.464V216.944H280.906V215.456L284.266 215.336L284.53 211.592H286.162V215.336H291.898V216.944H286.162V222.488C286.162 223.016 286.21 223.48 286.306 223.88C286.402 224.264 286.562 224.592 286.786 224.864C287.01 225.136 287.314 225.344 287.698 225.488C288.082 225.616 288.554 225.68 289.114 225.68C289.674 225.68 290.178 225.632 290.626 225.536C291.074 225.44 291.506 225.312 291.922 225.152L292.354 226.592C291.826 226.784 291.266 226.944 290.674 227.072C290.098 227.216 289.442 227.288 288.706 227.288ZM296.209 225.848V223.952L303.433 219.08V218.984L296.209 214.112V212.216L305.161 218.288V219.776L296.209 225.848ZM147.176 262.848L138.224 256.776V255.288L147.176 249.216V251.112L139.952 255.984V256.08L147.176 260.952V262.848ZM157.318 264V253.944H151.894V252.336H159.286V264H157.318ZM158.086 249.888C157.638 249.888 157.262 249.752 156.958 249.48C156.654 249.192 156.502 248.816 156.502 248.352C156.502 247.888 156.654 247.52 156.958 247.248C157.262 246.96 157.638 246.816 158.086 246.816C158.534 246.816 158.91 246.96 159.214 247.248C159.518 247.52 159.67 247.888 159.67 248.352C159.67 248.816 159.518 249.192 159.214 249.48C158.91 249.752 158.534 249.888 158.086 249.888ZM166.357 264V252.336H167.989L168.157 254.328H168.253C168.861 253.672 169.517 253.128 170.221 252.696C170.925 252.264 171.733 252.048 172.645 252.048C174.037 252.048 175.053 252.448 175.693 253.248C176.349 254.032 176.677 255.2 176.677 256.752V264H174.709V257.016C174.709 255.912 174.501 255.096 174.085 254.568C173.669 254.024 172.981 253.752 172.021 253.752C171.669 253.752 171.341 253.8 171.037 253.896C170.749 253.976 170.461 254.104 170.173 254.28C169.885 254.456 169.589 254.68 169.285 254.952C168.981 255.208 168.661 255.512 168.325 255.864V264H166.357ZM180.748 268.92V252.336H182.38L182.548 253.824H182.62C183.164 253.312 183.788 252.888 184.492 252.552C185.212 252.216 185.932 252.048 186.652 252.048C187.436 252.048 188.124 252.192 188.716 252.48C189.324 252.752 189.828 253.152 190.228 253.68C190.644 254.192 190.956 254.816 191.164 255.552C191.372 256.272 191.476 257.088 191.476 258C191.476 258.992 191.332 259.88 191.044 260.664C190.756 261.432 190.364 262.088 189.868 262.632C189.388 263.176 188.828 263.592 188.188 263.88C187.548 264.152 186.876 264.288 186.172 264.288C185.628 264.288 185.036 264.16 184.396 263.904C183.772 263.632 183.204 263.256 182.692 262.776H182.62L182.716 264.984V268.92H180.748ZM185.836 262.632C186.892 262.632 187.756 262.224 188.428 261.408C189.1 260.592 189.436 259.456 189.436 258C189.436 257.36 189.372 256.776 189.244 256.248C189.116 255.72 188.916 255.272 188.644 254.904C188.388 254.52 188.052 254.224 187.636 254.016C187.22 253.808 186.724 253.704 186.148 253.704C185.636 253.704 185.084 253.848 184.492 254.136C183.916 254.408 183.324 254.848 182.716 255.456V261.264C183.276 261.76 183.836 262.112 184.396 262.32C184.956 262.528 185.436 262.632 185.836 262.632ZM198.81 264.288C197.402 264.288 196.37 263.896 195.714 263.112C195.074 262.312 194.754 261.136 194.754 259.584V252.336H196.746V259.32C196.746 260.424 196.946 261.248 197.346 261.792C197.762 262.32 198.458 262.584 199.434 262.584C200.106 262.584 200.714 262.416 201.258 262.08C201.802 261.728 202.402 261.176 203.058 260.424V252.336H205.026V264H203.418L203.25 261.96H203.154C202.562 262.648 201.914 263.208 201.21 263.64C200.522 264.072 199.722 264.288 198.81 264.288ZM216.753 264.288C215.905 264.288 215.193 264.176 214.617 263.952C214.041 263.712 213.577 263.384 213.225 262.968C212.873 262.536 212.617 262.024 212.457 261.432C212.313 260.84 212.241 260.184 212.241 259.464V253.944H208.953V252.456L212.313 252.336L212.577 248.592H214.209V252.336H219.945V253.944H214.209V259.488C214.209 260.016 214.257 260.48 214.353 260.88C214.449 261.264 214.609 261.592 214.833 261.864C215.057 262.136 215.361 262.344 215.745 262.488C216.129 262.616 216.601 262.68 217.161 262.68C217.721 262.68 218.225 262.632 218.673 262.536C219.121 262.44 219.553 262.312 219.969 262.152L220.401 263.592C219.873 263.784 219.313 263.944 218.721 264.072C218.145 264.216 217.489 264.288 216.753 264.288ZM243.278 264.288C242.51 264.288 241.774 264.152 241.07 263.88C240.382 263.608 239.774 263.216 239.246 262.704C238.718 262.176 238.294 261.536 237.974 260.784C237.67 260.016 237.518 259.152 237.518 258.192C237.518 257.216 237.67 256.352 237.974 255.6C238.294 254.832 238.718 254.184 239.246 253.656C239.774 253.128 240.382 252.728 241.07 252.456C241.774 252.184 242.51 252.048 243.278 252.048C244.046 252.048 244.774 252.184 245.462 252.456C246.166 252.728 246.782 253.128 247.31 253.656C247.838 254.184 248.254 254.832 248.558 255.6C248.878 256.352 249.038 257.216 249.038 258.192C249.038 259.152 248.878 260.016 248.558 260.784C248.254 261.536 247.838 262.176 247.31 262.704C246.782 263.216 246.166 263.608 245.462 263.88C244.774 264.152 244.046 264.288 243.278 264.288ZM243.278 262.656C243.838 262.656 244.342 262.552 244.79 262.344C245.254 262.12 245.646 261.816 245.966 261.432C246.302 261.032 246.558 260.56 246.734 260.016C246.91 259.472 246.998 258.864 246.998 258.192C246.998 257.52 246.91 256.912 246.734 256.368C246.558 255.808 246.302 255.328 245.966 254.928C245.646 254.528 245.254 254.224 244.79 254.016C244.342 253.792 243.838 253.68 243.278 253.68C242.718 253.68 242.206 253.792 241.742 254.016C241.294 254.224 240.902 254.528 240.566 254.928C240.246 255.328 239.998 255.808 239.822 256.368C239.646 256.912 239.558 257.52 239.558 258.192C239.558 258.864 239.646 259.472 239.822 260.016C239.998 260.56 240.246 261.032 240.566 261.432C240.902 261.816 241.294 262.12 241.742 262.344C242.206 262.552 242.718 262.656 243.278 262.656ZM252.701 264V252.336H254.333L254.501 254.328H254.597C255.205 253.672 255.861 253.128 256.565 252.696C257.269 252.264 258.077 252.048 258.989 252.048C260.381 252.048 261.397 252.448 262.037 253.248C262.693 254.032 263.021 255.2 263.021 256.752V264H261.053V257.016C261.053 255.912 260.845 255.096 260.429 254.568C260.013 254.024 259.325 253.752 258.365 253.752C258.013 253.752 257.685 253.8 257.381 253.896C257.093 253.976 256.805 254.104 256.517 254.28C256.229 254.456 255.933 254.68 255.629 254.952C255.325 255.208 255.005 255.512 254.669 255.864V264H252.701ZM273.283 264.288C272.307 264.288 271.403 264.104 270.571 263.736C269.739 263.368 269.011 262.84 268.387 262.152C267.779 261.448 267.299 260.592 266.947 259.584C266.595 258.56 266.419 257.408 266.419 256.128C266.419 254.864 266.595 253.728 266.947 252.72C267.299 251.712 267.787 250.856 268.411 250.152C269.035 249.448 269.779 248.912 270.643 248.544C271.507 248.16 272.451 247.968 273.475 247.968C274.419 247.968 275.251 248.16 275.971 248.544C276.707 248.928 277.307 249.376 277.771 249.888L276.643 251.16C276.227 250.728 275.763 250.384 275.251 250.128C274.739 249.856 274.147 249.72 273.475 249.72C272.723 249.72 272.035 249.872 271.411 250.176C270.803 250.464 270.283 250.888 269.851 251.448C269.419 251.992 269.083 252.656 268.843 253.44C268.603 254.224 268.483 255.104 268.483 256.08C268.483 257.072 268.603 257.968 268.843 258.768C269.083 259.552 269.419 260.224 269.851 260.784C270.283 261.344 270.803 261.776 271.411 262.08C272.035 262.384 272.723 262.536 273.475 262.536C274.195 262.536 274.835 262.384 275.395 262.08C275.971 261.776 276.515 261.344 277.027 260.784L278.155 262.008C277.531 262.728 276.827 263.288 276.043 263.688C275.259 264.088 274.339 264.288 273.283 264.288ZM289.018 264.288C287.77 264.288 286.818 263.936 286.162 263.232C285.506 262.528 285.178 261.48 285.178 260.088V248.52H281.026V246.912H287.146V260.232C287.146 261.096 287.354 261.72 287.77 262.104C288.186 262.472 288.746 262.656 289.45 262.656C290.138 262.656 290.866 262.48 291.634 262.128L292.138 263.592C291.594 263.816 291.098 263.984 290.65 264.096C290.202 264.224 289.658 264.288 289.018 264.288ZM301.225 264V253.944H295.801V252.336H303.193V264H301.225ZM301.993 249.888C301.545 249.888 301.169 249.752 300.865 249.48C300.561 249.192 300.409 248.816 300.409 248.352C300.409 247.888 300.561 247.52 300.865 247.248C301.169 246.96 301.545 246.816 301.993 246.816C302.441 246.816 302.817 246.96 303.121 247.248C303.425 247.52 303.577 247.888 303.577 248.352C303.577 248.816 303.425 249.192 303.121 249.48C302.817 249.752 302.441 249.888 301.993 249.888ZM316.335 264.288C315.423 264.288 314.575 264.152 313.791 263.88C313.023 263.608 312.351 263.216 311.775 262.704C311.199 262.176 310.751 261.536 310.431 260.784C310.111 260.016 309.951 259.152 309.951 258.192C309.951 257.216 310.119 256.352 310.455 255.6C310.807 254.832 311.279 254.184 311.871 253.656C312.463 253.128 313.151 252.728 313.935 252.456C314.735 252.184 315.575 252.048 316.455 252.048C317.415 252.048 318.239 252.216 318.927 252.552C319.631 252.888 320.223 253.288 320.703 253.752L319.719 255.024C319.239 254.608 318.735 254.28 318.207 254.04C317.695 253.8 317.135 253.68 316.527 253.68C315.855 253.68 315.239 253.792 314.679 254.016C314.119 254.224 313.639 254.528 313.239 254.928C312.855 255.328 312.551 255.808 312.327 256.368C312.103 256.912 311.991 257.52 311.991 258.192C311.991 258.864 312.095 259.472 312.303 260.016C312.527 260.56 312.831 261.032 313.215 261.432C313.615 261.816 314.087 262.12 314.631 262.344C315.191 262.552 315.807 262.656 316.479 262.656C317.199 262.656 317.855 262.52 318.447 262.248C319.055 261.96 319.599 261.608 320.079 261.192L320.967 262.464C320.311 263.04 319.591 263.488 318.807 263.808C318.023 264.128 317.199 264.288 316.335 264.288ZM324.966 264V246.912H326.934V258.48H327.03L333.318 252.336H335.574L330.918 256.92L336.198 264H333.99L329.694 258.12L326.934 260.832V264H324.966ZM353.579 267.84L361.451 246.96H363.227L355.355 267.84H353.579ZM368.162 262.848V260.952L375.386 256.08V255.984L368.162 251.112V249.216L377.114 255.288V256.776L368.162 262.848ZM147.176 299.848L138.224 293.776V292.288L147.176 286.216V288.112L139.952 292.984V293.08L147.176 297.952V299.848ZM157.318 301V290.944H151.894V289.336H159.286V301H157.318ZM158.086 286.888C157.638 286.888 157.262 286.752 156.958 286.48C156.654 286.192 156.502 285.816 156.502 285.352C156.502 284.888 156.654 284.52 156.958 284.248C157.262 283.96 157.638 283.816 158.086 283.816C158.534 283.816 158.91 283.96 159.214 284.248C159.518 284.52 159.67 284.888 159.67 285.352C159.67 285.816 159.518 286.192 159.214 286.48C158.91 286.752 158.534 286.888 158.086 286.888ZM166.357 301V289.336H167.989L168.157 291.328H168.253C168.861 290.672 169.517 290.128 170.221 289.696C170.925 289.264 171.733 289.048 172.645 289.048C174.037 289.048 175.053 289.448 175.693 290.248C176.349 291.032 176.677 292.2 176.677 293.752V301H174.709V294.016C174.709 292.912 174.501 292.096 174.085 291.568C173.669 291.024 172.981 290.752 172.021 290.752C171.669 290.752 171.341 290.8 171.037 290.896C170.749 290.976 170.461 291.104 170.173 291.28C169.885 291.456 169.589 291.68 169.285 291.952C168.981 292.208 168.661 292.512 168.325 292.864V301H166.357ZM180.748 305.92V289.336H182.38L182.548 290.824H182.62C183.164 290.312 183.788 289.888 184.492 289.552C185.212 289.216 185.932 289.048 186.652 289.048C187.436 289.048 188.124 289.192 188.716 289.48C189.324 289.752 189.828 290.152 190.228 290.68C190.644 291.192 190.956 291.816 191.164 292.552C191.372 293.272 191.476 294.088 191.476 295C191.476 295.992 191.332 296.88 191.044 297.664C190.756 298.432 190.364 299.088 189.868 299.632C189.388 300.176 188.828 300.592 188.188 300.88C187.548 301.152 186.876 301.288 186.172 301.288C185.628 301.288 185.036 301.16 184.396 300.904C183.772 300.632 183.204 300.256 182.692 299.776H182.62L182.716 301.984V305.92H180.748ZM185.836 299.632C186.892 299.632 187.756 299.224 188.428 298.408C189.1 297.592 189.436 296.456 189.436 295C189.436 294.36 189.372 293.776 189.244 293.248C189.116 292.72 188.916 292.272 188.644 291.904C188.388 291.52 188.052 291.224 187.636 291.016C187.22 290.808 186.724 290.704 186.148 290.704C185.636 290.704 185.084 290.848 184.492 291.136C183.916 291.408 183.324 291.848 182.716 292.456V298.264C183.276 298.76 183.836 299.112 184.396 299.32C184.956 299.528 185.436 299.632 185.836 299.632ZM198.81 301.288C197.402 301.288 196.37 300.896 195.714 300.112C195.074 299.312 194.754 298.136 194.754 296.584V289.336H196.746V296.32C196.746 297.424 196.946 298.248 197.346 298.792C197.762 299.32 198.458 299.584 199.434 299.584C200.106 299.584 200.714 299.416 201.258 299.08C201.802 298.728 202.402 298.176 203.058 297.424V289.336H205.026V301H203.418L203.25 298.96H203.154C202.562 299.648 201.914 300.208 201.21 300.64C200.522 301.072 199.722 301.288 198.81 301.288ZM216.753 301.288C215.905 301.288 215.193 301.176 214.617 300.952C214.041 300.712 213.577 300.384 213.225 299.968C212.873 299.536 212.617 299.024 212.457 298.432C212.313 297.84 212.241 297.184 212.241 296.464V290.944H208.953V289.456L212.313 289.336L212.577 285.592H214.209V289.336H219.945V290.944H214.209V296.488C214.209 297.016 214.257 297.48 214.353 297.88C214.449 298.264 214.609 298.592 214.833 298.864C215.057 299.136 215.361 299.344 215.745 299.488C216.129 299.616 216.601 299.68 217.161 299.68C217.721 299.68 218.225 299.632 218.673 299.536C219.121 299.44 219.553 299.312 219.969 299.152L220.401 300.592C219.873 300.784 219.313 300.944 218.721 301.072C218.145 301.216 217.489 301.288 216.753 301.288ZM243.278 301.288C242.51 301.288 241.774 301.152 241.07 300.88C240.382 300.608 239.774 300.216 239.246 299.704C238.718 299.176 238.294 298.536 237.974 297.784C237.67 297.016 237.518 296.152 237.518 295.192C237.518 294.216 237.67 293.352 237.974 292.6C238.294 291.832 238.718 291.184 239.246 290.656C239.774 290.128 240.382 289.728 241.07 289.456C241.774 289.184 242.51 289.048 243.278 289.048C244.046 289.048 244.774 289.184 245.462 289.456C246.166 289.728 246.782 290.128 247.31 290.656C247.838 291.184 248.254 291.832 248.558 292.6C248.878 293.352 249.038 294.216 249.038 295.192C249.038 296.152 248.878 297.016 248.558 297.784C248.254 298.536 247.838 299.176 247.31 299.704C246.782 300.216 246.166 300.608 245.462 300.88C244.774 301.152 244.046 301.288 243.278 301.288ZM243.278 299.656C243.838 299.656 244.342 299.552 244.79 299.344C245.254 299.12 245.646 298.816 245.966 298.432C246.302 298.032 246.558 297.56 246.734 297.016C246.91 296.472 246.998 295.864 246.998 295.192C246.998 294.52 246.91 293.912 246.734 293.368C246.558 292.808 246.302 292.328 245.966 291.928C245.646 291.528 245.254 291.224 244.79 291.016C244.342 290.792 243.838 290.68 243.278 290.68C242.718 290.68 242.206 290.792 241.742 291.016C241.294 291.224 240.902 291.528 240.566 291.928C240.246 292.328 239.998 292.808 239.822 293.368C239.646 293.912 239.558 294.52 239.558 295.192C239.558 295.864 239.646 296.472 239.822 297.016C239.998 297.56 240.246 298.032 240.566 298.432C240.902 298.816 241.294 299.12 241.742 299.344C242.206 299.552 242.718 299.656 243.278 299.656ZM252.701 301V289.336H254.333L254.501 291.328H254.597C255.205 290.672 255.861 290.128 256.565 289.696C257.269 289.264 258.077 289.048 258.989 289.048C260.381 289.048 261.397 289.448 262.037 290.248C262.693 291.032 263.021 292.2 263.021 293.752V301H261.053V294.016C261.053 292.912 260.845 292.096 260.429 291.568C260.013 291.024 259.325 290.752 258.365 290.752C258.013 290.752 257.685 290.8 257.381 290.896C257.093 290.976 256.805 291.104 256.517 291.28C256.229 291.456 255.933 291.68 255.629 291.952C255.325 292.208 255.005 292.512 254.669 292.864V301H252.701ZM273.283 301.288C272.307 301.288 271.403 301.104 270.571 300.736C269.739 300.368 269.011 299.84 268.387 299.152C267.779 298.448 267.299 297.592 266.947 296.584C266.595 295.56 266.419 294.408 266.419 293.128C266.419 291.864 266.595 290.728 266.947 289.72C267.299 288.712 267.787 287.856 268.411 287.152C269.035 286.448 269.779 285.912 270.643 285.544C271.507 285.16 272.451 284.968 273.475 284.968C274.419 284.968 275.251 285.16 275.971 285.544C276.707 285.928 277.307 286.376 277.771 286.888L276.643 288.16C276.227 287.728 275.763 287.384 275.251 287.128C274.739 286.856 274.147 286.72 273.475 286.72C272.723 286.72 272.035 286.872 271.411 287.176C270.803 287.464 270.283 287.888 269.851 288.448C269.419 288.992 269.083 289.656 268.843 290.44C268.603 291.224 268.483 292.104 268.483 293.08C268.483 294.072 268.603 294.968 268.843 295.768C269.083 296.552 269.419 297.224 269.851 297.784C270.283 298.344 270.803 298.776 271.411 299.08C272.035 299.384 272.723 299.536 273.475 299.536C274.195 299.536 274.835 299.384 275.395 299.08C275.971 298.776 276.515 298.344 277.027 297.784L278.155 299.008C277.531 299.728 276.827 300.288 276.043 300.688C275.259 301.088 274.339 301.288 273.283 301.288ZM289.018 301.288C287.77 301.288 286.818 300.936 286.162 300.232C285.506 299.528 285.178 298.48 285.178 297.088V285.52H281.026V283.912H287.146V297.232C287.146 298.096 287.354 298.72 287.77 299.104C288.186 299.472 288.746 299.656 289.45 299.656C290.138 299.656 290.866 299.48 291.634 299.128L292.138 300.592C291.594 300.816 291.098 300.984 290.65 301.096C290.202 301.224 289.658 301.288 289.018 301.288ZM301.225 301V290.944H295.801V289.336H303.193V301H301.225ZM301.993 286.888C301.545 286.888 301.169 286.752 300.865 286.48C300.561 286.192 300.409 285.816 300.409 285.352C300.409 284.888 300.561 284.52 300.865 284.248C301.169 283.96 301.545 283.816 301.993 283.816C302.441 283.816 302.817 283.96 303.121 284.248C303.425 284.52 303.577 284.888 303.577 285.352C303.577 285.816 303.425 286.192 303.121 286.48C302.817 286.752 302.441 286.888 301.993 286.888ZM316.335 301.288C315.423 301.288 314.575 301.152 313.791 300.88C313.023 300.608 312.351 300.216 311.775 299.704C311.199 299.176 310.751 298.536 310.431 297.784C310.111 297.016 309.951 296.152 309.951 295.192C309.951 294.216 310.119 293.352 310.455 292.6C310.807 291.832 311.279 291.184 311.871 290.656C312.463 290.128 313.151 289.728 313.935 289.456C314.735 289.184 315.575 289.048 316.455 289.048C317.415 289.048 318.239 289.216 318.927 289.552C319.631 289.888 320.223 290.288 320.703 290.752L319.719 292.024C319.239 291.608 318.735 291.28 318.207 291.04C317.695 290.8 317.135 290.68 316.527 290.68C315.855 290.68 315.239 290.792 314.679 291.016C314.119 291.224 313.639 291.528 313.239 291.928C312.855 292.328 312.551 292.808 312.327 293.368C312.103 293.912 311.991 294.52 311.991 295.192C311.991 295.864 312.095 296.472 312.303 297.016C312.527 297.56 312.831 298.032 313.215 298.432C313.615 298.816 314.087 299.12 314.631 299.344C315.191 299.552 315.807 299.656 316.479 299.656C317.199 299.656 317.855 299.52 318.447 299.248C319.055 298.96 319.599 298.608 320.079 298.192L320.967 299.464C320.311 300.04 319.591 300.488 318.807 300.808C318.023 301.128 317.199 301.288 316.335 301.288ZM324.966 301V283.912H326.934V295.48H327.03L333.318 289.336H335.574L330.918 293.92L336.198 301H333.99L329.694 295.12L326.934 297.832V301H324.966ZM353.579 304.84L361.451 283.96H363.227L355.355 304.84H353.579ZM368.162 299.848V297.952L375.386 293.08V292.984L368.162 288.112V286.216L377.114 292.288V293.776L368.162 299.848ZM104.004 336.848L95.0519 330.776V329.288L104.004 323.216V325.112L96.7799 329.984V330.08L104.004 334.952V336.848ZM108.939 341.84L116.811 320.96H118.587L110.715 341.84H108.939ZM126.761 338V327.944H123.425V326.456L126.761 326.336V325.352C126.761 323.928 127.137 322.784 127.889 321.92C128.657 321.056 129.849 320.624 131.465 320.624C132.617 320.624 133.737 320.848 134.825 321.296L134.369 322.784C133.889 322.56 133.441 322.416 133.025 322.352C132.625 322.272 132.169 322.232 131.657 322.232C130.601 322.232 129.841 322.504 129.377 323.048C128.929 323.576 128.705 324.32 128.705 325.28V326.336H133.601V327.944H128.705V338H126.761ZM142.544 338.288C141.776 338.288 141.04 338.152 140.336 337.88C139.648 337.608 139.04 337.216 138.512 336.704C137.984 336.176 137.56 335.536 137.24 334.784C136.936 334.016 136.784 333.152 136.784 332.192C136.784 331.216 136.936 330.352 137.24 329.6C137.56 328.832 137.984 328.184 138.512 327.656C139.04 327.128 139.648 326.728 140.336 326.456C141.04 326.184 141.776 326.048 142.544 326.048C143.312 326.048 144.04 326.184 144.728 326.456C145.432 326.728 146.048 327.128 146.576 327.656C147.104 328.184 147.52 328.832 147.824 329.6C148.144 330.352 148.304 331.216 148.304 332.192C148.304 333.152 148.144 334.016 147.824 334.784C147.52 335.536 147.104 336.176 146.576 336.704C146.048 337.216 145.432 337.608 144.728 337.88C144.04 338.152 143.312 338.288 142.544 338.288ZM142.544 336.656C143.104 336.656 143.608 336.552 144.056 336.344C144.52 336.12 144.912 335.816 145.232 335.432C145.568 335.032 145.824 334.56 146 334.016C146.176 333.472 146.264 332.864 146.264 332.192C146.264 331.52 146.176 330.912 146 330.368C145.824 329.808 145.568 329.328 145.232 328.928C144.912 328.528 144.52 328.224 144.056 328.016C143.608 327.792 143.104 327.68 142.544 327.68C141.984 327.68 141.472 327.792 141.008 328.016C140.56 328.224 140.168 328.528 139.832 328.928C139.512 329.328 139.264 329.808 139.088 330.368C138.912 330.912 138.824 331.52 138.824 332.192C138.824 332.864 138.912 333.472 139.088 334.016C139.264 334.56 139.512 335.032 139.832 335.432C140.168 335.816 140.56 336.12 141.008 336.344C141.472 336.552 141.984 336.656 142.544 336.656ZM153.238 338V326.336H154.87L155.038 329.096H155.11C155.718 328.152 156.462 327.408 157.342 326.864C158.238 326.32 159.23 326.048 160.318 326.048C160.75 326.048 161.15 326.088 161.518 326.168C161.886 326.232 162.254 326.352 162.622 326.528L162.166 328.232C161.75 328.088 161.398 327.984 161.11 327.92C160.838 327.856 160.47 327.824 160.006 327.824C159.126 327.824 158.278 328.08 157.462 328.592C156.662 329.088 155.91 329.944 155.206 331.16V338H153.238ZM165.517 338V326.336H167.101L167.269 327.872H167.317C167.621 327.328 167.973 326.888 168.373 326.552C168.773 326.216 169.309 326.048 169.981 326.048C171.117 326.048 171.853 326.72 172.189 328.064C172.525 327.44 172.893 326.952 173.293 326.6C173.709 326.232 174.253 326.048 174.925 326.048C175.741 326.048 176.373 326.36 176.821 326.984C177.285 327.592 177.517 328.48 177.517 329.648V338H175.549V329.792C175.549 328.432 175.133 327.752 174.301 327.752C173.885 327.752 173.549 327.904 173.293 328.208C173.037 328.496 172.749 328.944 172.429 329.552V338H170.605V329.792C170.605 329.12 170.509 328.616 170.317 328.28C170.141 327.928 169.837 327.752 169.405 327.752C168.989 327.752 168.637 327.904 168.349 328.208C168.061 328.496 167.773 328.944 167.485 329.552V338H165.517ZM181.084 336.848V334.952L188.308 330.08V329.984L181.084 325.112V323.216L190.036 329.288V330.776L181.084 336.848Z" fill="#4E5769"/>
<rect x="29" y="362" width="371" height="49" rx="6" fill="#FDE7C7"/>
<path d="M51.376 398.648V397.52H52.6C53.208 397.52 53.704 397.48 54.088 397.4C54.488 397.32 54.8 397.192 55.024 397.016C55.248 396.84 55.4 396.608 55.48 396.32C55.56 396.048 55.6 395.72 55.6 395.336C55.6 394.6 55.576 393.896 55.528 393.224C55.48 392.552 55.456 391.808 55.456 390.992C55.456 390.208 55.608 389.616 55.912 389.216C56.216 388.8 56.784 388.52 57.616 388.376V388.28C56.784 388.136 56.216 387.864 55.912 387.464C55.608 387.048 55.456 386.448 55.456 385.664C55.456 384.912 55.48 384.176 55.528 383.456C55.576 382.72 55.6 382.008 55.6 381.32C55.6 380.936 55.56 380.608 55.48 380.336C55.4 380.048 55.248 379.816 55.024 379.64C54.8 379.464 54.488 379.336 54.088 379.256C53.704 379.176 53.208 379.136 52.6 379.136H51.376V378.008H52.84C53.592 378.008 54.24 378.064 54.784 378.176C55.344 378.272 55.808 378.44 56.176 378.68C56.544 378.92 56.816 379.248 56.992 379.664C57.168 380.064 57.256 380.576 57.256 381.2C57.256 382.032 57.216 382.824 57.136 383.576C57.072 384.312 57.04 385.064 57.04 385.832C57.04 386.072 57.088 386.304 57.184 386.528C57.28 386.736 57.456 386.928 57.712 387.104C57.968 387.28 58.32 387.424 58.768 387.536C59.232 387.648 59.816 387.704 60.52 387.704V388.952C59.816 388.952 59.232 389.008 58.768 389.12C58.32 389.232 57.968 389.376 57.712 389.552C57.456 389.728 57.28 389.928 57.184 390.152C57.088 390.36 57.04 390.584 57.04 390.824C57.04 391.224 57.048 391.608 57.064 391.976C57.096 392.344 57.12 392.712 57.136 393.08C57.168 393.448 57.192 393.832 57.208 394.232C57.24 394.616 57.256 395.024 57.256 395.456C57.256 396.08 57.168 396.592 56.992 396.992C56.816 397.408 56.544 397.736 56.176 397.976C55.808 398.216 55.344 398.384 54.784 398.48C54.24 398.592 53.592 398.648 52.84 398.648H51.376Z" fill="#4E5769"/>
<rect x="9" y="43" width="411" height="392" rx="6" stroke="#2C749E" stroke-linejoin="bevel"/>
</svg>
