<svg width="430" height="437" viewBox="0 0 430 437" fill="none" xmlns="http://www.w3.org/2000/svg">
<rect x="9" y="42.9999" width="383" height="392" rx="6" fill="#23252F"/>
<rect x="29" y="62.9999" width="343" height="123" rx="6" fill="#FDE7C7"/>
<path d="M52.192 95.9999V80.2559H61.864V81.9359H54.208V87.2639H60.688V88.9439H54.208V95.9999H52.192ZM70.5906 96.2879C69.8226 96.2879 69.0866 96.1519 68.3826 95.8799C67.6946 95.6079 67.0866 95.2159 66.5586 94.7039C66.0306 94.1759 65.6066 93.5359 65.2866 92.7839C64.9826 92.0159 64.8306 91.1519 64.8306 90.1919C64.8306 89.2159 64.9826 88.3519 65.2866 87.5999C65.6066 86.8319 66.0306 86.1839 66.5586 85.6559C67.0866 85.1279 67.6946 84.7279 68.3826 84.4559C69.0866 84.1839 69.8226 84.0479 70.5906 84.0479C71.3586 84.0479 72.0866 84.1839 72.7746 84.4559C73.4786 84.7279 74.0946 85.1279 74.6226 85.6559C75.1506 86.1839 75.5666 86.8319 75.8706 87.5999C76.1906 88.3519 76.3506 89.2159 76.3506 90.1919C76.3506 91.1519 76.1906 92.0159 75.8706 92.7839C75.5666 93.5359 75.1506 94.1759 74.6226 94.7039C74.0946 95.2159 73.4786 95.6079 72.7746 95.8799C72.0866 96.1519 71.3586 96.2879 70.5906 96.2879ZM70.5906 94.6559C71.1506 94.6559 71.6546 94.5519 72.1026 94.3439C72.5666 94.1199 72.9586 93.8159 73.2786 93.4319C73.6146 93.0319 73.8706 92.5599 74.0466 92.0159C74.2226 91.4719 74.3106 90.8639 74.3106 90.1919C74.3106 89.5199 74.2226 88.9119 74.0466 88.3679C73.8706 87.8079 73.6146 87.3279 73.2786 86.9279C72.9586 86.5279 72.5666 86.2239 72.1026 86.0159C71.6546 85.7919 71.1506 85.6799 70.5906 85.6799C70.0306 85.6799 69.5186 85.7919 69.0546 86.0159C68.6066 86.2239 68.2146 86.5279 67.8786 86.9279C67.5586 87.3279 67.3106 87.8079 67.1346 88.3679C66.9586 88.9119 66.8706 89.5199 66.8706 90.1919C66.8706 90.8639 66.9586 91.4719 67.1346 92.0159C67.3106 92.5599 67.5586 93.0319 67.8786 93.4319C68.2146 93.8159 68.6066 94.1199 69.0546 94.3439C69.5186 94.5519 70.0306 94.6559 70.5906 94.6559ZM81.2853 95.9999V84.3359H82.9173L83.0853 87.0959H83.1573C83.7653 86.1519 84.5093 85.4079 85.3893 84.8639C86.2853 84.3199 87.2773 84.0479 88.3653 84.0479C88.7973 84.0479 89.1973 84.0879 89.5653 84.1679C89.9333 84.2319 90.3012 84.3519 90.6693 84.5279L90.2133 86.2319C89.7973 86.0879 89.4453 85.9839 89.1573 85.9199C88.8853 85.8559 88.5173 85.8239 88.0533 85.8239C87.1733 85.8239 86.3253 86.0799 85.5093 86.5919C84.7093 87.0879 83.9573 87.9439 83.2533 89.1599V95.9999H81.2853ZM93.5639 95.9999V84.3359H95.1479L95.3159 85.8719H95.3639C95.6679 85.3279 96.0199 84.8879 96.4199 84.5519C96.8199 84.2159 97.3559 84.0479 98.0279 84.0479C99.1639 84.0479 99.8999 84.7199 100.236 86.0639C100.572 85.4399 100.94 84.9519 101.34 84.5999C101.756 84.2319 102.3 84.0479 102.972 84.0479C103.788 84.0479 104.42 84.3599 104.868 84.9839C105.332 85.5919 105.564 86.4799 105.564 87.6479V95.9999H103.596V87.7919C103.596 86.4319 103.18 85.7519 102.348 85.7519C101.932 85.7519 101.596 85.9039 101.34 86.2079C101.084 86.4959 100.796 86.9439 100.476 87.5519V95.9999H98.6519V87.7919C98.6519 87.1199 98.5559 86.6159 98.3639 86.2799C98.1879 85.9279 97.8839 85.7519 97.4519 85.7519C97.0359 85.7519 96.6839 85.9039 96.3959 86.2079C96.1079 86.4959 95.8199 86.9439 95.5319 87.5519V95.9999H93.5639ZM116.955 100.224C115.291 98.9279 113.971 97.3679 112.995 95.5439C112.035 93.7199 111.555 91.6479 111.555 89.3279C111.555 87.0079 112.035 84.9359 112.995 83.1119C113.971 81.2879 115.291 79.7279 116.955 78.4319L118.035 79.4399C116.419 80.7999 115.227 82.2799 114.459 83.8799C113.707 85.4799 113.331 87.2959 113.331 89.3279C113.331 91.3599 113.707 93.1759 114.459 94.7759C115.227 96.3759 116.419 97.8559 118.035 99.2159L116.955 100.224ZM124.961 100.224L123.881 99.2159C125.497 97.8559 126.681 96.3759 127.433 94.7759C128.201 93.1759 128.585 91.3599 128.585 89.3279C128.585 87.2959 128.201 85.4799 127.433 83.8799C126.681 82.2799 125.497 80.7999 123.881 79.4399L124.961 78.4319C126.625 79.7279 127.937 81.2879 128.897 83.1119C129.873 84.9359 130.361 87.0079 130.361 89.3279C130.361 91.6479 129.873 93.7199 128.897 95.5439C127.937 97.3679 126.625 98.9279 124.961 100.224ZM160.318 99.6479C159.566 99.6479 158.91 99.5919 158.35 99.4799C157.79 99.3839 157.326 99.2159 156.958 98.9759C156.59 98.7359 156.318 98.4079 156.142 97.9919C155.966 97.5919 155.878 97.0799 155.878 96.4559C155.878 96.0239 155.886 95.6159 155.902 95.2319C155.934 94.8319 155.958 94.4479 155.974 94.0799C156.006 93.7119 156.03 93.3439 156.046 92.9759C156.078 92.6079 156.094 92.2239 156.094 91.8239C156.094 91.5839 156.046 91.3599 155.95 91.1519C155.854 90.9279 155.678 90.7279 155.422 90.5519C155.166 90.3759 154.806 90.2319 154.342 90.1199C153.894 90.0079 153.318 89.9519 152.614 89.9519V88.7039C153.318 88.7039 153.894 88.6479 154.342 88.5359C154.806 88.4239 155.166 88.2799 155.422 88.1039C155.678 87.9279 155.854 87.7359 155.95 87.5279C156.046 87.3039 156.094 87.0719 156.094 86.8319C156.094 86.0639 156.054 85.3119 155.974 84.5759C155.91 83.8239 155.878 83.0319 155.878 82.1999C155.878 81.5759 155.966 81.0639 156.142 80.6639C156.318 80.2479 156.59 79.9199 156.958 79.6799C157.326 79.4399 157.79 79.2719 158.35 79.1759C158.91 79.0639 159.566 79.0079 160.318 79.0079H161.782V80.1359H160.534C159.926 80.1359 159.422 80.1759 159.022 80.2559C158.638 80.3359 158.334 80.4639 158.11 80.6399C157.902 80.8159 157.758 81.0479 157.678 81.3359C157.598 81.6079 157.558 81.9359 157.558 82.3199C157.558 83.0079 157.582 83.7199 157.63 84.4559C157.678 85.1759 157.702 85.9119 157.702 86.6639C157.702 87.4479 157.542 88.0479 157.222 88.4639C156.918 88.8639 156.35 89.1359 155.518 89.2799V89.3759C156.35 89.5199 156.918 89.7999 157.222 90.2159C157.542 90.6159 157.702 91.2079 157.702 91.9919C157.702 92.8079 157.678 93.5519 157.63 94.2239C157.582 94.8959 157.558 95.5999 157.558 96.3359C157.558 96.7199 157.598 97.0479 157.678 97.3199C157.758 97.6079 157.902 97.8399 158.11 98.0159C158.334 98.1919 158.638 98.3199 159.022 98.3999C159.422 98.4799 159.926 98.5199 160.534 98.5199H161.782V99.6479H160.318ZM84.9813 133.288C84.2133 133.288 83.4773 133.152 82.7733 132.88C82.0853 132.608 81.4773 132.216 80.9492 131.704C80.4213 131.176 79.9973 130.536 79.6773 129.784C79.3733 129.016 79.2213 128.152 79.2213 127.192C79.2213 126.216 79.3733 125.352 79.6773 124.6C79.9973 123.832 80.4213 123.184 80.9492 122.656C81.4773 122.128 82.0853 121.728 82.7733 121.456C83.4773 121.184 84.2133 121.048 84.9813 121.048C85.7493 121.048 86.4773 121.184 87.1653 121.456C87.8693 121.728 88.4853 122.128 89.0133 122.656C89.5413 123.184 89.9573 123.832 90.2613 124.6C90.5813 125.352 90.7413 126.216 90.7413 127.192C90.7413 128.152 90.5813 129.016 90.2613 129.784C89.9573 130.536 89.5413 131.176 89.0133 131.704C88.4853 132.216 87.8693 132.608 87.1653 132.88C86.4773 133.152 85.7493 133.288 84.9813 133.288ZM84.9813 131.656C85.5413 131.656 86.0453 131.552 86.4933 131.344C86.9573 131.12 87.3493 130.816 87.6693 130.432C88.0053 130.032 88.2613 129.56 88.4373 129.016C88.6133 128.472 88.7013 127.864 88.7013 127.192C88.7013 126.52 88.6133 125.912 88.4373 125.368C88.2613 124.808 88.0053 124.328 87.6693 123.928C87.3493 123.528 86.9573 123.224 86.4933 123.016C86.0453 122.792 85.5413 122.68 84.9813 122.68C84.4213 122.68 83.9093 122.792 83.4453 123.016C82.9973 123.224 82.6053 123.528 82.2693 123.928C81.9493 124.328 81.7013 124.808 81.5253 125.368C81.3493 125.912 81.2613 126.52 81.2613 127.192C81.2613 127.864 81.3493 128.472 81.5253 129.016C81.7013 129.56 81.9493 130.032 82.2693 130.432C82.6053 130.816 82.9973 131.12 83.4453 131.344C83.9093 131.552 84.4213 131.656 84.9813 131.656ZM94.4039 133V121.336H96.0359L96.2039 123.328H96.2999C96.9079 122.672 97.5639 122.128 98.2679 121.696C98.9719 121.264 99.7799 121.048 100.692 121.048C102.084 121.048 103.1 121.448 103.74 122.248C104.396 123.032 104.724 124.2 104.724 125.752V133H102.756V126.016C102.756 124.912 102.548 124.096 102.132 123.568C101.716 123.024 101.028 122.752 100.068 122.752C99.7159 122.752 99.3879 122.8 99.0839 122.896C98.7959 122.976 98.5079 123.104 98.2199 123.28C97.9319 123.456 97.6359 123.68 97.3319 123.952C97.0279 124.208 96.7079 124.512 96.3719 124.864V133H94.4039ZM114.987 133.288C114.011 133.288 113.107 133.104 112.275 132.736C111.443 132.368 110.715 131.84 110.09 131.152C109.483 130.448 109.003 129.592 108.651 128.584C108.299 127.56 108.123 126.408 108.123 125.128C108.123 123.864 108.299 122.728 108.651 121.72C109.003 120.712 109.491 119.856 110.115 119.152C110.739 118.448 111.483 117.912 112.347 117.544C113.211 117.16 114.155 116.968 115.179 116.968C116.123 116.968 116.955 117.16 117.675 117.544C118.411 117.928 119.011 118.376 119.475 118.888L118.347 120.16C117.931 119.728 117.467 119.384 116.955 119.128C116.443 118.856 115.851 118.72 115.179 118.72C114.427 118.72 113.739 118.872 113.115 119.176C112.507 119.464 111.987 119.888 111.555 120.448C111.123 120.992 110.787 121.656 110.547 122.44C110.307 123.224 110.187 124.104 110.187 125.08C110.187 126.072 110.307 126.968 110.547 127.768C110.787 128.552 111.123 129.224 111.555 129.784C111.987 130.344 112.507 130.776 113.115 131.08C113.739 131.384 114.427 131.536 115.179 131.536C115.899 131.536 116.539 131.384 117.099 131.08C117.675 130.776 118.219 130.344 118.731 129.784L119.859 131.008C119.235 131.728 118.531 132.288 117.747 132.688C116.963 133.088 116.043 133.288 114.987 133.288ZM130.721 133.288C129.473 133.288 128.521 132.936 127.865 132.232C127.209 131.528 126.881 130.48 126.881 129.088V117.52H122.729V115.912H128.849V129.232C128.849 130.096 129.057 130.72 129.473 131.104C129.889 131.472 130.449 131.656 131.153 131.656C131.841 131.656 132.569 131.48 133.337 131.128L133.841 132.592C133.297 132.816 132.801 132.984 132.353 133.096C131.905 133.224 131.361 133.288 130.721 133.288ZM142.928 133V122.944H137.504V121.336H144.896V133H142.928ZM143.696 118.888C143.248 118.888 142.872 118.752 142.568 118.48C142.264 118.192 142.112 117.816 142.112 117.352C142.112 116.888 142.264 116.52 142.568 116.248C142.872 115.96 143.248 115.816 143.696 115.816C144.144 115.816 144.52 115.96 144.824 116.248C145.128 116.52 145.28 116.888 145.28 117.352C145.28 117.816 145.128 118.192 144.824 118.48C144.52 118.752 144.144 118.888 143.696 118.888ZM158.038 133.288C157.126 133.288 156.278 133.152 155.494 132.88C154.726 132.608 154.054 132.216 153.478 131.704C152.902 131.176 152.454 130.536 152.134 129.784C151.814 129.016 151.654 128.152 151.654 127.192C151.654 126.216 151.822 125.352 152.158 124.6C152.51 123.832 152.982 123.184 153.574 122.656C154.166 122.128 154.854 121.728 155.638 121.456C156.438 121.184 157.278 121.048 158.158 121.048C159.118 121.048 159.942 121.216 160.63 121.552C161.334 121.888 161.926 122.288 162.406 122.752L161.422 124.024C160.942 123.608 160.438 123.28 159.91 123.04C159.398 122.8 158.838 122.68 158.23 122.68C157.558 122.68 156.942 122.792 156.382 123.016C155.822 123.224 155.342 123.528 154.942 123.928C154.558 124.328 154.254 124.808 154.03 125.368C153.806 125.912 153.694 126.52 153.694 127.192C153.694 127.864 153.798 128.472 154.006 129.016C154.23 129.56 154.534 130.032 154.918 130.432C155.318 130.816 155.79 131.12 156.334 131.344C156.894 131.552 157.51 131.656 158.182 131.656C158.902 131.656 159.558 131.52 160.15 131.248C160.758 130.96 161.302 130.608 161.782 130.192L162.67 131.464C162.014 132.04 161.294 132.488 160.51 132.808C159.726 133.128 158.902 133.288 158.038 133.288ZM166.669 133V115.912H168.637V127.48H168.733L175.021 121.336H177.277L172.621 125.92L177.901 133H175.693L171.397 127.12L168.637 129.832V133H166.669ZM188.908 137.224C187.244 135.928 185.924 134.368 184.948 132.544C183.988 130.72 183.508 128.648 183.508 126.328C183.508 124.008 183.988 121.936 184.948 120.112C185.924 118.288 187.244 116.728 188.908 115.432L189.988 116.44C188.372 117.8 187.18 119.28 186.412 120.88C185.66 122.48 185.284 124.296 185.284 126.328C185.284 128.36 185.66 130.176 186.412 131.776C187.18 133.376 188.372 134.856 189.988 136.216L188.908 137.224ZM196.914 137.224L195.834 136.216C197.45 134.856 198.634 133.376 199.386 131.776C200.154 130.176 200.538 128.36 200.538 126.328C200.538 124.296 200.154 122.48 199.386 120.88C198.634 119.28 197.45 117.8 195.834 116.44L196.914 115.432C198.578 116.728 199.89 118.288 200.85 120.112C201.826 121.936 202.314 124.008 202.314 126.328C202.314 128.648 201.826 130.72 200.85 132.544C199.89 134.368 198.578 135.928 196.914 137.224ZM232.272 136.648C231.52 136.648 230.864 136.592 230.304 136.48C229.744 136.384 229.28 136.216 228.912 135.976C228.544 135.736 228.272 135.408 228.096 134.992C227.92 134.592 227.832 134.08 227.832 133.456C227.832 133.024 227.84 132.616 227.855 132.232C227.888 131.832 227.912 131.448 227.928 131.08C227.96 130.712 227.984 130.344 228 129.976C228.032 129.608 228.048 129.224 228.048 128.824C228.048 128.584 228 128.36 227.904 128.152C227.808 127.928 227.632 127.728 227.376 127.552C227.12 127.376 226.76 127.232 226.296 127.12C225.848 127.008 225.272 126.952 224.568 126.952V125.704C225.272 125.704 225.848 125.648 226.296 125.536C226.76 125.424 227.12 125.28 227.376 125.104C227.632 124.928 227.808 124.736 227.904 124.528C228 124.304 228.048 124.072 228.048 123.832C228.048 123.064 228.008 122.312 227.928 121.576C227.864 120.824 227.832 120.032 227.832 119.2C227.832 118.576 227.92 118.064 228.096 117.664C228.272 117.248 228.544 116.92 228.912 116.68C229.28 116.44 229.744 116.272 230.304 116.176C230.864 116.064 231.52 116.008 232.272 116.008H233.736V117.136H232.488C231.88 117.136 231.376 117.176 230.976 117.256C230.592 117.336 230.288 117.464 230.064 117.64C229.856 117.816 229.712 118.048 229.632 118.336C229.552 118.608 229.512 118.936 229.512 119.32C229.512 120.008 229.536 120.72 229.584 121.456C229.632 122.176 229.656 122.912 229.656 123.664C229.656 124.448 229.496 125.048 229.176 125.464C228.872 125.864 228.304 126.136 227.472 126.28V126.376C228.304 126.52 228.872 126.8 229.176 127.216C229.496 127.616 229.656 128.208 229.656 128.992C229.656 129.808 229.632 130.552 229.584 131.224C229.536 131.896 229.512 132.6 229.512 133.336C229.512 133.72 229.552 134.048 229.632 134.32C229.712 134.608 229.856 134.84 230.064 135.016C230.288 135.192 230.592 135.32 230.976 135.4C231.376 135.48 231.88 135.52 232.488 135.52H233.736V136.648H232.272ZM243.278 133.288C242.734 133.288 242.27 133.104 241.886 132.736C241.518 132.368 241.334 131.88 241.334 131.272C241.334 130.664 241.518 130.176 241.886 129.808C242.27 129.424 242.734 129.232 243.278 129.232C243.822 129.232 244.278 129.424 244.646 129.808C245.03 130.176 245.222 130.664 245.222 131.272C245.222 131.88 245.03 132.368 244.646 132.736C244.278 133.104 243.822 133.288 243.278 133.288ZM257.669 133.288C257.125 133.288 256.661 133.104 256.277 132.736C255.909 132.368 255.725 131.88 255.725 131.272C255.725 130.664 255.909 130.176 256.277 129.808C256.661 129.424 257.125 129.232 257.669 129.232C258.213 129.232 258.669 129.424 259.037 129.808C259.421 130.176 259.613 130.664 259.613 131.272C259.613 131.88 259.421 132.368 259.037 132.736C258.669 133.104 258.213 133.288 257.669 133.288ZM272.059 133.288C271.515 133.288 271.051 133.104 270.667 132.736C270.299 132.368 270.115 131.88 270.115 131.272C270.115 130.664 270.299 130.176 270.667 129.808C271.051 129.424 271.515 129.232 272.059 129.232C272.603 129.232 273.059 129.424 273.427 129.808C273.811 130.176 274.003 130.664 274.003 131.272C274.003 131.88 273.811 132.368 273.427 132.736C273.059 133.104 272.603 133.288 272.059 133.288ZM281.626 136.648V135.52H282.85C283.458 135.52 283.954 135.48 284.338 135.4C284.738 135.32 285.05 135.192 285.274 135.016C285.498 134.84 285.65 134.608 285.73 134.32C285.81 134.048 285.85 133.72 285.85 133.336C285.85 132.6 285.826 131.896 285.778 131.224C285.73 130.552 285.706 129.808 285.706 128.992C285.706 128.208 285.858 127.616 286.162 127.216C286.466 126.8 287.034 126.52 287.866 126.376V126.28C287.034 126.136 286.466 125.864 286.162 125.464C285.858 125.048 285.706 124.448 285.706 123.664C285.706 122.912 285.73 122.176 285.778 121.456C285.826 120.72 285.85 120.008 285.85 119.32C285.85 118.936 285.81 118.608 285.73 118.336C285.65 118.048 285.498 117.816 285.274 117.64C285.05 117.464 284.738 117.336 284.338 117.256C283.954 117.176 283.458 117.136 282.85 117.136H281.626V116.008H283.09C283.842 116.008 284.49 116.064 285.034 116.176C285.594 116.272 286.058 116.44 286.426 116.68C286.794 116.92 287.066 117.248 287.242 117.664C287.418 118.064 287.506 118.576 287.506 119.2C287.506 120.032 287.466 120.824 287.386 121.576C287.322 122.312 287.29 123.064 287.29 123.832C287.29 124.072 287.338 124.304 287.434 124.528C287.53 124.736 287.706 124.928 287.962 125.104C288.218 125.28 288.57 125.424 289.018 125.536C289.482 125.648 290.066 125.704 290.77 125.704V126.952C290.066 126.952 289.482 127.008 289.018 127.12C288.57 127.232 288.218 127.376 287.962 127.552C287.706 127.728 287.53 127.928 287.434 128.152C287.338 128.36 287.29 128.584 287.29 128.824C287.29 129.224 287.298 129.608 287.314 129.976C287.346 130.344 287.37 130.712 287.386 131.08C287.418 131.448 287.442 131.832 287.458 132.232C287.49 132.616 287.506 133.024 287.506 133.456C287.506 134.08 287.418 134.592 287.242 134.992C287.066 135.408 286.794 135.736 286.426 135.976C286.058 136.216 285.594 136.384 285.034 136.48C284.49 136.592 283.842 136.648 283.09 136.648H281.626ZM84.9813 170.288C84.2133 170.288 83.4773 170.152 82.7733 169.88C82.0853 169.608 81.4773 169.216 80.9492 168.704C80.4213 168.176 79.9973 167.536 79.6773 166.784C79.3733 166.016 79.2213 165.152 79.2213 164.192C79.2213 163.216 79.3733 162.352 79.6773 161.6C79.9973 160.832 80.4213 160.184 80.9492 159.656C81.4773 159.128 82.0853 158.728 82.7733 158.456C83.4773 158.184 84.2133 158.048 84.9813 158.048C85.7493 158.048 86.4773 158.184 87.1653 158.456C87.8693 158.728 88.4853 159.128 89.0133 159.656C89.5413 160.184 89.9573 160.832 90.2613 161.6C90.5813 162.352 90.7413 163.216 90.7413 164.192C90.7413 165.152 90.5813 166.016 90.2613 166.784C89.9573 167.536 89.5413 168.176 89.0133 168.704C88.4853 169.216 87.8693 169.608 87.1653 169.88C86.4773 170.152 85.7493 170.288 84.9813 170.288ZM84.9813 168.656C85.5413 168.656 86.0453 168.552 86.4933 168.344C86.9573 168.12 87.3493 167.816 87.6693 167.432C88.0053 167.032 88.2613 166.56 88.4373 166.016C88.6133 165.472 88.7013 164.864 88.7013 164.192C88.7013 163.52 88.6133 162.912 88.4373 162.368C88.2613 161.808 88.0053 161.328 87.6693 160.928C87.3493 160.528 86.9573 160.224 86.4933 160.016C86.0453 159.792 85.5413 159.68 84.9813 159.68C84.4213 159.68 83.9093 159.792 83.4453 160.016C82.9973 160.224 82.6053 160.528 82.2693 160.928C81.9493 161.328 81.7013 161.808 81.5253 162.368C81.3493 162.912 81.2613 163.52 81.2613 164.192C81.2613 164.864 81.3493 165.472 81.5253 166.016C81.7013 166.56 81.9493 167.032 82.2693 167.432C82.6053 167.816 82.9973 168.12 83.4453 168.344C83.9093 168.552 84.4213 168.656 84.9813 168.656ZM94.4039 170V158.336H96.0359L96.2039 160.328H96.2999C96.9079 159.672 97.5639 159.128 98.2679 158.696C98.9719 158.264 99.7799 158.048 100.692 158.048C102.084 158.048 103.1 158.448 103.74 159.248C104.396 160.032 104.724 161.2 104.724 162.752V170H102.756V163.016C102.756 161.912 102.548 161.096 102.132 160.568C101.716 160.024 101.028 159.752 100.068 159.752C99.7159 159.752 99.3879 159.8 99.0839 159.896C98.7959 159.976 98.5079 160.104 98.2199 160.28C97.9319 160.456 97.6359 160.68 97.3319 160.952C97.0279 161.208 96.7079 161.512 96.3719 161.864V170H94.4039ZM113.883 170.288C112.731 170.288 111.667 170.08 110.691 169.664C109.731 169.248 108.891 168.68 108.171 167.96L109.371 166.568C109.963 167.16 110.651 167.64 111.435 168.008C112.219 168.36 113.067 168.536 113.979 168.536C115.067 168.536 115.907 168.304 116.499 167.84C117.107 167.376 117.411 166.776 117.411 166.04C117.411 165.624 117.339 165.272 117.195 164.984C117.051 164.696 116.851 164.448 116.595 164.24C116.339 164.032 116.035 163.848 115.683 163.688C115.347 163.528 114.979 163.36 114.579 163.184L112.323 162.2C111.923 162.04 111.523 161.848 111.123 161.624C110.723 161.4 110.355 161.128 110.019 160.808C109.699 160.488 109.435 160.112 109.227 159.68C109.019 159.232 108.915 158.72 108.915 158.144C108.915 157.552 109.043 157 109.299 156.488C109.555 155.976 109.907 155.536 110.355 155.168C110.819 154.784 111.363 154.488 111.987 154.28C112.627 154.072 113.323 153.968 114.075 153.968C115.067 153.968 115.979 154.152 116.811 154.52C117.643 154.872 118.347 155.336 118.923 155.912L117.867 157.208C117.355 156.744 116.787 156.384 116.163 156.128C115.539 155.856 114.819 155.72 114.003 155.72C113.091 155.72 112.355 155.928 111.795 156.344C111.235 156.744 110.955 157.304 110.955 158.024C110.955 158.408 111.035 158.736 111.195 159.008C111.371 159.264 111.587 159.496 111.843 159.704C112.115 159.896 112.419 160.064 112.755 160.208C113.091 160.352 113.427 160.496 113.763 160.64L115.971 161.6C116.451 161.792 116.899 162.016 117.315 162.272C117.747 162.512 118.115 162.8 118.419 163.136C118.739 163.456 118.987 163.84 119.163 164.288C119.355 164.72 119.451 165.224 119.451 165.8C119.451 166.424 119.323 167.008 119.067 167.552C118.811 168.096 118.443 168.576 117.963 168.992C117.483 169.392 116.899 169.712 116.211 169.952C115.523 170.176 114.747 170.288 113.883 170.288ZM126.857 170.288C125.449 170.288 124.417 169.896 123.761 169.112C123.121 168.312 122.801 167.136 122.801 165.584V158.336H124.793V165.32C124.793 166.424 124.993 167.248 125.393 167.792C125.809 168.32 126.505 168.584 127.481 168.584C128.153 168.584 128.761 168.416 129.305 168.08C129.849 167.728 130.449 167.176 131.105 166.424V158.336H133.073V170H131.465L131.297 167.96H131.201C130.609 168.648 129.961 169.208 129.257 169.64C128.569 170.072 127.769 170.288 126.857 170.288ZM143.024 170.288C142.464 170.288 141.856 170.152 141.2 169.88C140.56 169.592 139.96 169.2 139.4 168.704H139.328L139.16 170H137.576V152.912H139.544V157.568L139.472 159.824H139.544C140.072 159.28 140.68 158.848 141.368 158.528C142.072 158.208 142.768 158.048 143.456 158.048C144.24 158.048 144.936 158.192 145.544 158.48C146.152 158.752 146.656 159.152 147.056 159.68C147.472 160.192 147.784 160.816 147.992 161.552C148.2 162.272 148.304 163.08 148.304 163.976C148.304 164.968 148.16 165.856 147.872 166.64C147.584 167.424 147.192 168.088 146.696 168.632C146.216 169.176 145.656 169.592 145.016 169.88C144.376 170.152 143.712 170.288 143.024 170.288ZM142.712 168.632C143.224 168.632 143.696 168.528 144.128 168.32C144.56 168.096 144.936 167.792 145.256 167.408C145.576 167.008 145.824 166.52 146 165.944C146.176 165.368 146.264 164.72 146.264 164C146.264 163.36 146.2 162.776 146.072 162.248C145.944 161.72 145.744 161.272 145.472 160.904C145.216 160.52 144.88 160.224 144.464 160.016C144.048 159.808 143.552 159.704 142.976 159.704C142.464 159.704 141.912 159.848 141.32 160.136C140.744 160.408 140.152 160.848 139.544 161.456V167.264C140.104 167.76 140.664 168.112 141.224 168.32C141.8 168.528 142.296 168.632 142.712 168.632ZM151.126 170V158.336H152.71L152.878 159.872H152.926C153.23 159.328 153.582 158.888 153.982 158.552C154.382 158.216 154.918 158.048 155.59 158.048C156.726 158.048 157.462 158.72 157.798 160.064C158.134 159.44 158.502 158.952 158.902 158.6C159.318 158.232 159.862 158.048 160.534 158.048C161.35 158.048 161.982 158.36 162.43 158.984C162.894 159.592 163.126 160.48 163.126 161.648V170H161.158V161.792C161.158 160.432 160.742 159.752 159.91 159.752C159.494 159.752 159.158 159.904 158.902 160.208C158.646 160.496 158.358 160.944 158.038 161.552V170H156.214V161.792C156.214 161.12 156.118 160.616 155.926 160.28C155.75 159.928 155.446 159.752 155.014 159.752C154.598 159.752 154.246 159.904 153.958 160.208C153.67 160.496 153.382 160.944 153.094 161.552V170H151.126ZM171.709 170V159.944H166.285V158.336H173.677V170H171.709ZM172.477 155.888C172.029 155.888 171.653 155.752 171.349 155.48C171.045 155.192 170.893 154.816 170.893 154.352C170.893 153.888 171.045 153.52 171.349 153.248C171.653 152.96 172.029 152.816 172.477 152.816C172.925 152.816 173.301 152.96 173.605 153.248C173.909 153.52 174.061 153.888 174.061 154.352C174.061 154.816 173.909 155.192 173.605 155.48C173.301 155.752 172.925 155.888 172.477 155.888ZM187.972 170.288C187.124 170.288 186.412 170.176 185.836 169.952C185.26 169.712 184.796 169.384 184.444 168.968C184.092 168.536 183.836 168.024 183.676 167.432C183.532 166.84 183.46 166.184 183.46 165.464V159.944H180.172V158.456L183.532 158.336L183.796 154.592H185.428V158.336H191.164V159.944H185.428V165.488C185.428 166.016 185.476 166.48 185.572 166.88C185.668 167.264 185.828 167.592 186.052 167.864C186.276 168.136 186.58 168.344 186.964 168.488C187.348 168.616 187.82 168.68 188.38 168.68C188.94 168.68 189.444 168.632 189.892 168.536C190.34 168.44 190.772 168.312 191.188 168.152L191.62 169.592C191.092 169.784 190.532 169.944 189.94 170.072C189.364 170.216 188.708 170.288 187.972 170.288ZM203.298 174.224C201.634 172.928 200.314 171.368 199.338 169.544C198.378 167.72 197.898 165.648 197.898 163.328C197.898 161.008 198.378 158.936 199.338 157.112C200.314 155.288 201.634 153.728 203.298 152.432L204.378 153.44C202.762 154.8 201.57 156.28 200.802 157.88C200.05 159.48 199.674 161.296 199.674 163.328C199.674 165.36 200.05 167.176 200.802 168.776C201.57 170.376 202.762 171.856 204.378 173.216L203.298 174.224ZM211.305 174.224L210.225 173.216C211.841 171.856 213.025 170.376 213.777 168.776C214.545 167.176 214.929 165.36 214.929 163.328C214.929 161.296 214.545 159.48 213.777 157.88C213.025 156.28 211.841 154.8 210.225 153.44L211.305 152.432C212.969 153.728 214.281 155.288 215.241 157.112C216.217 158.936 216.705 161.008 216.705 163.328C216.705 165.648 216.217 167.72 215.241 169.544C214.281 171.368 212.969 172.928 211.305 174.224ZM246.662 173.648C245.91 173.648 245.254 173.592 244.694 173.48C244.134 173.384 243.67 173.216 243.302 172.976C242.934 172.736 242.662 172.408 242.486 171.992C242.31 171.592 242.222 171.08 242.222 170.456C242.222 170.024 242.23 169.616 242.246 169.232C242.278 168.832 242.302 168.448 242.318 168.08C242.35 167.712 242.374 167.344 242.39 166.976C242.422 166.608 242.438 166.224 242.438 165.824C242.438 165.584 242.39 165.36 242.294 165.152C242.198 164.928 242.022 164.728 241.766 164.552C241.51 164.376 241.15 164.232 240.686 164.12C240.238 164.008 239.662 163.952 238.958 163.952V162.704C239.662 162.704 240.238 162.648 240.686 162.536C241.15 162.424 241.51 162.28 241.766 162.104C242.022 161.928 242.198 161.736 242.294 161.528C242.39 161.304 242.438 161.072 242.438 160.832C242.438 160.064 242.398 159.312 242.318 158.576C242.254 157.824 242.222 157.032 242.222 156.2C242.222 155.576 242.31 155.064 242.486 154.664C242.662 154.248 242.934 153.92 243.302 153.68C243.67 153.44 244.134 153.272 244.694 153.176C245.254 153.064 245.91 153.008 246.662 153.008H248.126V154.136H246.878C246.27 154.136 245.766 154.176 245.366 154.256C244.982 154.336 244.678 154.464 244.454 154.64C244.246 154.816 244.102 155.048 244.022 155.336C243.942 155.608 243.902 155.936 243.902 156.32C243.902 157.008 243.926 157.72 243.974 158.456C244.022 159.176 244.046 159.912 244.046 160.664C244.046 161.448 243.886 162.048 243.566 162.464C243.262 162.864 242.694 163.136 241.862 163.28V163.376C242.694 163.52 243.262 163.8 243.566 164.216C243.886 164.616 244.046 165.208 244.046 165.992C244.046 166.808 244.022 167.552 243.974 168.224C243.926 168.896 243.902 169.6 243.902 170.336C243.902 170.72 243.942 171.048 244.022 171.32C244.102 171.608 244.246 171.84 244.454 172.016C244.678 172.192 244.982 172.32 245.366 172.4C245.766 172.48 246.27 172.52 246.878 172.52H248.126V173.648H246.662ZM257.669 170.288C257.125 170.288 256.661 170.104 256.277 169.736C255.909 169.368 255.725 168.88 255.725 168.272C255.725 167.664 255.909 167.176 256.277 166.808C256.661 166.424 257.125 166.232 257.669 166.232C258.213 166.232 258.669 166.424 259.037 166.808C259.421 167.176 259.613 167.664 259.613 168.272C259.613 168.88 259.421 169.368 259.037 169.736C258.669 170.104 258.213 170.288 257.669 170.288ZM272.059 170.288C271.515 170.288 271.051 170.104 270.667 169.736C270.299 169.368 270.115 168.88 270.115 168.272C270.115 167.664 270.299 167.176 270.667 166.808C271.051 166.424 271.515 166.232 272.059 166.232C272.603 166.232 273.059 166.424 273.427 166.808C273.811 167.176 274.003 167.664 274.003 168.272C274.003 168.88 273.811 169.368 273.427 169.736C273.059 170.104 272.603 170.288 272.059 170.288ZM286.45 170.288C285.906 170.288 285.442 170.104 285.058 169.736C284.69 169.368 284.506 168.88 284.506 168.272C284.506 167.664 284.69 167.176 285.058 166.808C285.442 166.424 285.906 166.232 286.45 166.232C286.994 166.232 287.45 166.424 287.818 166.808C288.202 167.176 288.394 167.664 288.394 168.272C288.394 168.88 288.202 169.368 287.818 169.736C287.45 170.104 286.994 170.288 286.45 170.288ZM296.017 173.648V172.52H297.241C297.849 172.52 298.345 172.48 298.729 172.4C299.129 172.32 299.441 172.192 299.665 172.016C299.889 171.84 300.041 171.608 300.121 171.32C300.201 171.048 300.241 170.72 300.241 170.336C300.241 169.6 300.217 168.896 300.169 168.224C300.121 167.552 300.097 166.808 300.097 165.992C300.097 165.208 300.249 164.616 300.553 164.216C300.857 163.8 301.425 163.52 302.257 163.376V163.28C301.425 163.136 300.857 162.864 300.553 162.464C300.249 162.048 300.097 161.448 300.097 160.664C300.097 159.912 300.121 159.176 300.169 158.456C300.217 157.72 300.241 157.008 300.241 156.32C300.241 155.936 300.201 155.608 300.121 155.336C300.041 155.048 299.889 154.816 299.665 154.64C299.441 154.464 299.129 154.336 298.729 154.256C298.345 154.176 297.849 154.136 297.241 154.136H296.017V153.008H297.481C298.233 153.008 298.881 153.064 299.425 153.176C299.985 153.272 300.449 153.44 300.817 153.68C301.185 153.92 301.457 154.248 301.633 154.664C301.809 155.064 301.897 155.576 301.897 156.2C301.897 157.032 301.857 157.824 301.777 158.576C301.713 159.312 301.681 160.064 301.681 160.832C301.681 161.072 301.729 161.304 301.825 161.528C301.921 161.736 302.097 161.928 302.353 162.104C302.609 162.28 302.961 162.424 303.409 162.536C303.873 162.648 304.457 162.704 305.161 162.704V163.952C304.457 163.952 303.873 164.008 303.409 164.12C302.961 164.232 302.609 164.376 302.353 164.552C302.097 164.728 301.921 164.928 301.825 165.152C301.729 165.36 301.681 165.584 301.681 165.824C301.681 166.224 301.689 166.608 301.705 166.976C301.737 167.344 301.761 167.712 301.777 168.08C301.809 168.448 301.833 168.832 301.849 169.232C301.881 169.616 301.897 170.024 301.897 170.456C301.897 171.08 301.809 171.592 301.633 171.992C301.457 172.408 301.185 172.736 300.817 172.976C300.449 173.216 299.985 173.384 299.425 173.48C298.881 173.592 298.233 173.648 297.481 173.648H296.017Z" fill="#4E5769"/>
<rect x="29" y="194" width="343" height="160" rx="6" fill="#E7E9FB"/>
<path d="M89.6133 225.848L80.6613 219.776V218.288L89.6133 212.216V214.112L82.3893 218.984V219.08L89.6133 223.952V225.848ZM97.9799 227V216.944H94.6439V215.456L97.9799 215.336V214.352C97.9799 212.928 98.3559 211.784 99.1079 210.92C99.8759 210.056 101.068 209.624 102.684 209.624C103.836 209.624 104.956 209.848 106.044 210.296L105.588 211.784C105.108 211.56 104.66 211.416 104.244 211.352C103.844 211.272 103.388 211.232 102.876 211.232C101.82 211.232 101.06 211.504 100.596 212.048C100.148 212.576 99.9239 213.32 99.9239 214.28V215.336H104.82V216.944H99.9239V227H97.9799ZM113.763 227.288C112.995 227.288 112.259 227.152 111.555 226.88C110.867 226.608 110.259 226.216 109.73 225.704C109.203 225.176 108.779 224.536 108.459 223.784C108.155 223.016 108.003 222.152 108.003 221.192C108.003 220.216 108.155 219.352 108.459 218.6C108.779 217.832 109.203 217.184 109.73 216.656C110.259 216.128 110.867 215.728 111.555 215.456C112.259 215.184 112.995 215.048 113.763 215.048C114.531 215.048 115.259 215.184 115.947 215.456C116.651 215.728 117.267 216.128 117.795 216.656C118.323 217.184 118.739 217.832 119.043 218.6C119.363 219.352 119.523 220.216 119.523 221.192C119.523 222.152 119.363 223.016 119.043 223.784C118.739 224.536 118.323 225.176 117.795 225.704C117.267 226.216 116.651 226.608 115.947 226.88C115.259 227.152 114.531 227.288 113.763 227.288ZM113.763 225.656C114.323 225.656 114.827 225.552 115.275 225.344C115.739 225.12 116.131 224.816 116.451 224.432C116.787 224.032 117.043 223.56 117.219 223.016C117.395 222.472 117.483 221.864 117.483 221.192C117.483 220.52 117.395 219.912 117.219 219.368C117.043 218.808 116.787 218.328 116.451 217.928C116.131 217.528 115.739 217.224 115.275 217.016C114.827 216.792 114.323 216.68 113.763 216.68C113.203 216.68 112.691 216.792 112.227 217.016C111.779 217.224 111.387 217.528 111.051 217.928C110.731 218.328 110.483 218.808 110.307 219.368C110.131 219.912 110.043 220.52 110.043 221.192C110.043 221.864 110.131 222.472 110.307 223.016C110.483 223.56 110.731 224.032 111.051 224.432C111.387 224.816 111.779 225.12 112.227 225.344C112.691 225.552 113.203 225.656 113.763 225.656ZM124.457 227V215.336H126.089L126.257 218.096H126.329C126.937 217.152 127.681 216.408 128.561 215.864C129.457 215.32 130.449 215.048 131.537 215.048C131.969 215.048 132.369 215.088 132.737 215.168C133.105 215.232 133.473 215.352 133.841 215.528L133.385 217.232C132.969 217.088 132.617 216.984 132.329 216.92C132.057 216.856 131.689 216.824 131.225 216.824C130.345 216.824 129.497 217.08 128.681 217.592C127.881 218.088 127.129 218.944 126.425 220.16V227H124.457ZM136.736 227V215.336H138.32L138.488 216.872H138.536C138.84 216.328 139.192 215.888 139.592 215.552C139.992 215.216 140.528 215.048 141.2 215.048C142.336 215.048 143.072 215.72 143.408 217.064C143.744 216.44 144.112 215.952 144.512 215.6C144.928 215.232 145.472 215.048 146.144 215.048C146.96 215.048 147.592 215.36 148.04 215.984C148.504 216.592 148.736 217.48 148.736 218.648V227H146.768V218.792C146.768 217.432 146.352 216.752 145.52 216.752C145.104 216.752 144.768 216.904 144.512 217.208C144.256 217.496 143.968 217.944 143.648 218.552V227H141.824V218.792C141.824 218.12 141.728 217.616 141.536 217.28C141.36 216.928 141.056 216.752 140.624 216.752C140.208 216.752 139.856 216.904 139.568 217.208C139.28 217.496 138.992 217.944 138.704 218.552V227H136.736ZM171.325 227.288C170.557 227.288 169.821 227.152 169.117 226.88C168.429 226.608 167.821 226.216 167.293 225.704C166.765 225.176 166.341 224.536 166.021 223.784C165.717 223.016 165.565 222.152 165.565 221.192C165.565 220.216 165.717 219.352 166.021 218.6C166.341 217.832 166.765 217.184 167.293 216.656C167.821 216.128 168.429 215.728 169.117 215.456C169.821 215.184 170.557 215.048 171.325 215.048C172.093 215.048 172.821 215.184 173.509 215.456C174.213 215.728 174.829 216.128 175.357 216.656C175.885 217.184 176.301 217.832 176.605 218.6C176.925 219.352 177.085 220.216 177.085 221.192C177.085 222.152 176.925 223.016 176.605 223.784C176.301 224.536 175.885 225.176 175.357 225.704C174.829 226.216 174.213 226.608 173.509 226.88C172.821 227.152 172.093 227.288 171.325 227.288ZM171.325 225.656C171.885 225.656 172.389 225.552 172.837 225.344C173.301 225.12 173.693 224.816 174.013 224.432C174.349 224.032 174.605 223.56 174.781 223.016C174.957 222.472 175.045 221.864 175.045 221.192C175.045 220.52 174.957 219.912 174.781 219.368C174.605 218.808 174.349 218.328 174.013 217.928C173.693 217.528 173.301 217.224 172.837 217.016C172.389 216.792 171.885 216.68 171.325 216.68C170.765 216.68 170.253 216.792 169.789 217.016C169.341 217.224 168.949 217.528 168.613 217.928C168.293 218.328 168.045 218.808 167.869 219.368C167.693 219.912 167.605 220.52 167.605 221.192C167.605 221.864 167.693 222.472 167.869 223.016C168.045 223.56 168.293 224.032 168.613 224.432C168.949 224.816 169.341 225.12 169.789 225.344C170.253 225.552 170.765 225.656 171.325 225.656ZM180.748 227V215.336H182.38L182.548 217.328H182.644C183.252 216.672 183.908 216.128 184.612 215.696C185.316 215.264 186.124 215.048 187.036 215.048C188.428 215.048 189.444 215.448 190.084 216.248C190.74 217.032 191.068 218.2 191.068 219.752V227H189.1V220.016C189.1 218.912 188.892 218.096 188.476 217.568C188.06 217.024 187.372 216.752 186.412 216.752C186.06 216.752 185.732 216.8 185.428 216.896C185.14 216.976 184.852 217.104 184.564 217.28C184.276 217.456 183.98 217.68 183.676 217.952C183.372 218.208 183.052 218.512 182.716 218.864V227H180.748ZM200.226 227.288C199.074 227.288 198.01 227.08 197.034 226.664C196.074 226.248 195.234 225.68 194.514 224.96L195.714 223.568C196.306 224.16 196.994 224.64 197.778 225.008C198.562 225.36 199.41 225.536 200.322 225.536C201.41 225.536 202.25 225.304 202.842 224.84C203.45 224.376 203.754 223.776 203.754 223.04C203.754 222.624 203.682 222.272 203.538 221.984C203.394 221.696 203.194 221.448 202.938 221.24C202.682 221.032 202.378 220.848 202.026 220.688C201.69 220.528 201.322 220.36 200.922 220.184L198.666 219.2C198.266 219.04 197.866 218.848 197.466 218.624C197.066 218.4 196.698 218.128 196.362 217.808C196.042 217.488 195.778 217.112 195.57 216.68C195.362 216.232 195.258 215.72 195.258 215.144C195.258 214.552 195.386 214 195.642 213.488C195.898 212.976 196.25 212.536 196.698 212.168C197.162 211.784 197.706 211.488 198.33 211.28C198.97 211.072 199.666 210.968 200.418 210.968C201.41 210.968 202.322 211.152 203.154 211.52C203.986 211.872 204.69 212.336 205.266 212.912L204.21 214.208C203.698 213.744 203.13 213.384 202.506 213.128C201.882 212.856 201.162 212.72 200.346 212.72C199.434 212.72 198.698 212.928 198.138 213.344C197.578 213.744 197.298 214.304 197.298 215.024C197.298 215.408 197.378 215.736 197.538 216.008C197.714 216.264 197.93 216.496 198.186 216.704C198.458 216.896 198.762 217.064 199.098 217.208C199.434 217.352 199.77 217.496 200.106 217.64L202.314 218.6C202.794 218.792 203.242 219.016 203.658 219.272C204.09 219.512 204.458 219.8 204.762 220.136C205.082 220.456 205.33 220.84 205.506 221.288C205.698 221.72 205.794 222.224 205.794 222.8C205.794 223.424 205.666 224.008 205.41 224.552C205.154 225.096 204.786 225.576 204.306 225.992C203.826 226.392 203.242 226.712 202.554 226.952C201.866 227.176 201.09 227.288 200.226 227.288ZM213.201 227.288C211.793 227.288 210.761 226.896 210.105 226.112C209.465 225.312 209.145 224.136 209.145 222.584V215.336H211.137V222.32C211.137 223.424 211.337 224.248 211.737 224.792C212.153 225.32 212.849 225.584 213.825 225.584C214.497 225.584 215.105 225.416 215.649 225.08C216.193 224.728 216.793 224.176 217.449 223.424V215.336H219.417V227H217.809L217.641 224.96H217.545C216.953 225.648 216.305 226.208 215.601 226.64C214.913 227.072 214.113 227.288 213.201 227.288ZM229.368 227.288C228.808 227.288 228.2 227.152 227.544 226.88C226.904 226.592 226.304 226.2 225.744 225.704H225.672L225.504 227H223.92V209.912H225.888V214.568L225.816 216.824H225.888C226.416 216.28 227.024 215.848 227.712 215.528C228.416 215.208 229.112 215.048 229.8 215.048C230.584 215.048 231.28 215.192 231.888 215.48C232.496 215.752 233 216.152 233.4 216.68C233.816 217.192 234.128 217.816 234.336 218.552C234.544 219.272 234.648 220.08 234.648 220.976C234.648 221.968 234.504 222.856 234.216 223.64C233.928 224.424 233.536 225.088 233.04 225.632C232.56 226.176 232 226.592 231.36 226.88C230.72 227.152 230.056 227.288 229.368 227.288ZM229.056 225.632C229.568 225.632 230.04 225.528 230.472 225.32C230.904 225.096 231.28 224.792 231.6 224.408C231.92 224.008 232.168 223.52 232.344 222.944C232.52 222.368 232.608 221.72 232.608 221C232.608 220.36 232.544 219.776 232.416 219.248C232.288 218.72 232.088 218.272 231.816 217.904C231.56 217.52 231.224 217.224 230.808 217.016C230.392 216.808 229.896 216.704 229.32 216.704C228.808 216.704 228.256 216.848 227.664 217.136C227.088 217.408 226.496 217.848 225.888 218.456V224.264C226.448 224.76 227.008 225.112 227.568 225.32C228.144 225.528 228.64 225.632 229.056 225.632ZM237.47 227V215.336H239.054L239.222 216.872H239.27C239.574 216.328 239.926 215.888 240.326 215.552C240.726 215.216 241.262 215.048 241.934 215.048C243.07 215.048 243.806 215.72 244.142 217.064C244.478 216.44 244.846 215.952 245.246 215.6C245.662 215.232 246.206 215.048 246.878 215.048C247.694 215.048 248.326 215.36 248.774 215.984C249.238 216.592 249.47 217.48 249.47 218.648V227H247.502V218.792C247.502 217.432 247.086 216.752 246.254 216.752C245.838 216.752 245.502 216.904 245.246 217.208C244.99 217.496 244.702 217.944 244.382 218.552V227H242.558V218.792C242.558 218.12 242.462 217.616 242.27 217.28C242.094 216.928 241.79 216.752 241.358 216.752C240.942 216.752 240.59 216.904 240.302 217.208C240.014 217.496 239.726 217.944 239.438 218.552V227H237.47ZM258.053 227V216.944H252.629V215.336H260.021V227H258.053ZM258.821 212.888C258.373 212.888 257.997 212.752 257.693 212.48C257.389 212.192 257.237 211.816 257.237 211.352C257.237 210.888 257.389 210.52 257.693 210.248C257.997 209.96 258.373 209.816 258.821 209.816C259.269 209.816 259.645 209.96 259.949 210.248C260.253 210.52 260.405 210.888 260.405 211.352C260.405 211.816 260.253 212.192 259.949 212.48C259.645 212.752 259.269 212.888 258.821 212.888ZM274.315 227.288C273.467 227.288 272.755 227.176 272.179 226.952C271.603 226.712 271.139 226.384 270.787 225.968C270.435 225.536 270.179 225.024 270.019 224.432C269.875 223.84 269.803 223.184 269.803 222.464V216.944H266.515V215.456L269.875 215.336L270.139 211.592H271.771V215.336H277.507V216.944H271.771V222.488C271.771 223.016 271.819 223.48 271.915 223.88C272.011 224.264 272.171 224.592 272.395 224.864C272.619 225.136 272.923 225.344 273.307 225.488C273.691 225.616 274.163 225.68 274.723 225.68C275.283 225.68 275.787 225.632 276.235 225.536C276.683 225.44 277.115 225.312 277.531 225.152L277.963 226.592C277.435 226.784 276.875 226.944 276.283 227.072C275.707 227.216 275.051 227.288 274.315 227.288ZM281.818 225.848V223.952L289.042 219.08V218.984L281.818 214.112V212.216L290.77 218.288V219.776L281.818 225.848ZM118.395 262.848L109.443 256.776V255.288L118.395 249.216V251.112L111.171 255.984V256.08L118.395 260.952V262.848ZM128.537 264V253.944H123.113V252.336H130.505V264H128.537ZM129.305 249.888C128.857 249.888 128.481 249.752 128.177 249.48C127.873 249.192 127.721 248.816 127.721 248.352C127.721 247.888 127.873 247.52 128.177 247.248C128.481 246.96 128.857 246.816 129.305 246.816C129.753 246.816 130.129 246.96 130.433 247.248C130.737 247.52 130.889 247.888 130.889 248.352C130.889 248.816 130.737 249.192 130.433 249.48C130.129 249.752 129.753 249.888 129.305 249.888ZM137.576 264V252.336H139.208L139.376 254.328H139.472C140.08 253.672 140.736 253.128 141.44 252.696C142.144 252.264 142.952 252.048 143.864 252.048C145.256 252.048 146.272 252.448 146.912 253.248C147.568 254.032 147.896 255.2 147.896 256.752V264H145.928V257.016C145.928 255.912 145.72 255.096 145.304 254.568C144.888 254.024 144.2 253.752 143.24 253.752C142.888 253.752 142.56 253.8 142.256 253.896C141.968 253.976 141.68 254.104 141.392 254.28C141.104 254.456 140.808 254.68 140.504 254.952C140.2 255.208 139.88 255.512 139.544 255.864V264H137.576ZM151.966 268.92V252.336H153.598L153.766 253.824H153.838C154.382 253.312 155.006 252.888 155.71 252.552C156.43 252.216 157.15 252.048 157.87 252.048C158.654 252.048 159.342 252.192 159.934 252.48C160.542 252.752 161.046 253.152 161.446 253.68C161.862 254.192 162.174 254.816 162.382 255.552C162.59 256.272 162.694 257.088 162.694 258C162.694 258.992 162.55 259.88 162.262 260.664C161.974 261.432 161.582 262.088 161.086 262.632C160.606 263.176 160.046 263.592 159.406 263.88C158.766 264.152 158.094 264.288 157.39 264.288C156.846 264.288 156.254 264.16 155.614 263.904C154.99 263.632 154.422 263.256 153.91 262.776H153.838L153.934 264.984V268.92H151.966ZM157.054 262.632C158.11 262.632 158.974 262.224 159.646 261.408C160.318 260.592 160.654 259.456 160.654 258C160.654 257.36 160.59 256.776 160.462 256.248C160.334 255.72 160.134 255.272 159.862 254.904C159.606 254.52 159.27 254.224 158.854 254.016C158.438 253.808 157.942 253.704 157.366 253.704C156.854 253.704 156.302 253.848 155.71 254.136C155.134 254.408 154.542 254.848 153.934 255.456V261.264C154.494 261.76 155.054 262.112 155.614 262.32C156.174 262.528 156.654 262.632 157.054 262.632ZM170.029 264.288C168.621 264.288 167.589 263.896 166.933 263.112C166.293 262.312 165.973 261.136 165.973 259.584V252.336H167.965V259.32C167.965 260.424 168.165 261.248 168.565 261.792C168.981 262.32 169.677 262.584 170.653 262.584C171.325 262.584 171.933 262.416 172.477 262.08C173.021 261.728 173.621 261.176 174.277 260.424V252.336H176.245V264H174.637L174.469 261.96H174.373C173.781 262.648 173.133 263.208 172.429 263.64C171.741 264.072 170.941 264.288 170.029 264.288ZM187.972 264.288C187.124 264.288 186.412 264.176 185.836 263.952C185.26 263.712 184.796 263.384 184.444 262.968C184.092 262.536 183.836 262.024 183.676 261.432C183.532 260.84 183.46 260.184 183.46 259.464V253.944H180.172V252.456L183.532 252.336L183.796 248.592H185.428V252.336H191.164V253.944H185.428V259.488C185.428 260.016 185.476 260.48 185.572 260.88C185.668 261.264 185.828 261.592 186.052 261.864C186.276 262.136 186.58 262.344 186.964 262.488C187.348 262.616 187.82 262.68 188.38 262.68C188.94 262.68 189.444 262.632 189.892 262.536C190.34 262.44 190.772 262.312 191.188 262.152L191.62 263.592C191.092 263.784 190.532 263.944 189.94 264.072C189.364 264.216 188.708 264.288 187.972 264.288ZM214.497 264.288C213.729 264.288 212.993 264.152 212.289 263.88C211.601 263.608 210.993 263.216 210.465 262.704C209.937 262.176 209.513 261.536 209.193 260.784C208.889 260.016 208.737 259.152 208.737 258.192C208.737 257.216 208.889 256.352 209.193 255.6C209.513 254.832 209.937 254.184 210.465 253.656C210.993 253.128 211.601 252.728 212.289 252.456C212.993 252.184 213.729 252.048 214.497 252.048C215.265 252.048 215.993 252.184 216.681 252.456C217.385 252.728 218.001 253.128 218.529 253.656C219.057 254.184 219.473 254.832 219.777 255.6C220.097 256.352 220.257 257.216 220.257 258.192C220.257 259.152 220.097 260.016 219.777 260.784C219.473 261.536 219.057 262.176 218.529 262.704C218.001 263.216 217.385 263.608 216.681 263.88C215.993 264.152 215.265 264.288 214.497 264.288ZM214.497 262.656C215.057 262.656 215.561 262.552 216.009 262.344C216.473 262.12 216.865 261.816 217.185 261.432C217.521 261.032 217.777 260.56 217.953 260.016C218.129 259.472 218.217 258.864 218.217 258.192C218.217 257.52 218.129 256.912 217.953 256.368C217.777 255.808 217.521 255.328 217.185 254.928C216.865 254.528 216.473 254.224 216.009 254.016C215.561 253.792 215.057 253.68 214.497 253.68C213.937 253.68 213.425 253.792 212.961 254.016C212.513 254.224 212.121 254.528 211.785 254.928C211.465 255.328 211.217 255.808 211.041 256.368C210.865 256.912 210.777 257.52 210.777 258.192C210.777 258.864 210.865 259.472 211.041 260.016C211.217 260.56 211.465 261.032 211.785 261.432C212.121 261.816 212.513 262.12 212.961 262.344C213.425 262.552 213.937 262.656 214.497 262.656ZM223.92 264V252.336H225.552L225.72 254.328H225.816C226.424 253.672 227.08 253.128 227.784 252.696C228.488 252.264 229.296 252.048 230.208 252.048C231.6 252.048 232.616 252.448 233.256 253.248C233.912 254.032 234.24 255.2 234.24 256.752V264H232.272V257.016C232.272 255.912 232.064 255.096 231.648 254.568C231.232 254.024 230.544 253.752 229.584 253.752C229.232 253.752 228.904 253.8 228.6 253.896C228.312 253.976 228.024 254.104 227.736 254.28C227.448 254.456 227.152 254.68 226.848 254.952C226.544 255.208 226.224 255.512 225.888 255.864V264H223.92ZM244.502 264.288C243.526 264.288 242.622 264.104 241.79 263.736C240.958 263.368 240.23 262.84 239.606 262.152C238.998 261.448 238.518 260.592 238.166 259.584C237.814 258.56 237.638 257.408 237.638 256.128C237.638 254.864 237.814 253.728 238.166 252.72C238.518 251.712 239.006 250.856 239.63 250.152C240.254 249.448 240.998 248.912 241.862 248.544C242.726 248.16 243.67 247.968 244.694 247.968C245.638 247.968 246.47 248.16 247.19 248.544C247.926 248.928 248.526 249.376 248.99 249.888L247.862 251.16C247.446 250.728 246.982 250.384 246.47 250.128C245.958 249.856 245.366 249.72 244.694 249.72C243.942 249.72 243.254 249.872 242.63 250.176C242.022 250.464 241.502 250.888 241.07 251.448C240.638 251.992 240.302 252.656 240.062 253.44C239.822 254.224 239.702 255.104 239.702 256.08C239.702 257.072 239.822 257.968 240.062 258.768C240.302 259.552 240.638 260.224 241.07 260.784C241.502 261.344 242.022 261.776 242.63 262.08C243.254 262.384 243.942 262.536 244.694 262.536C245.414 262.536 246.054 262.384 246.614 262.08C247.19 261.776 247.734 261.344 248.246 260.784L249.374 262.008C248.75 262.728 248.046 263.288 247.262 263.688C246.478 264.088 245.558 264.288 244.502 264.288ZM260.237 264.288C258.989 264.288 258.037 263.936 257.381 263.232C256.725 262.528 256.397 261.48 256.397 260.088V248.52H252.245V246.912H258.365V260.232C258.365 261.096 258.573 261.72 258.989 262.104C259.405 262.472 259.965 262.656 260.669 262.656C261.357 262.656 262.085 262.48 262.853 262.128L263.357 263.592C262.813 263.816 262.317 263.984 261.869 264.096C261.421 264.224 260.877 264.288 260.237 264.288ZM272.443 264V253.944H267.019V252.336H274.411V264H272.443ZM273.211 249.888C272.763 249.888 272.387 249.752 272.083 249.48C271.779 249.192 271.627 248.816 271.627 248.352C271.627 247.888 271.779 247.52 272.083 247.248C272.387 246.96 272.763 246.816 273.211 246.816C273.659 246.816 274.035 246.96 274.339 247.248C274.643 247.52 274.795 247.888 274.795 248.352C274.795 248.816 274.643 249.192 274.339 249.48C274.035 249.752 273.659 249.888 273.211 249.888ZM287.554 264.288C286.642 264.288 285.794 264.152 285.01 263.88C284.242 263.608 283.57 263.216 282.994 262.704C282.418 262.176 281.97 261.536 281.65 260.784C281.33 260.016 281.17 259.152 281.17 258.192C281.17 257.216 281.338 256.352 281.674 255.6C282.026 254.832 282.498 254.184 283.09 253.656C283.682 253.128 284.37 252.728 285.154 252.456C285.954 252.184 286.794 252.048 287.674 252.048C288.634 252.048 289.458 252.216 290.146 252.552C290.85 252.888 291.442 253.288 291.922 253.752L290.938 255.024C290.458 254.608 289.954 254.28 289.426 254.04C288.914 253.8 288.354 253.68 287.746 253.68C287.074 253.68 286.458 253.792 285.898 254.016C285.338 254.224 284.858 254.528 284.458 254.928C284.074 255.328 283.77 255.808 283.546 256.368C283.322 256.912 283.21 257.52 283.21 258.192C283.21 258.864 283.314 259.472 283.522 260.016C283.746 260.56 284.05 261.032 284.434 261.432C284.834 261.816 285.306 262.12 285.85 262.344C286.41 262.552 287.026 262.656 287.698 262.656C288.418 262.656 289.074 262.52 289.666 262.248C290.274 261.96 290.818 261.608 291.298 261.192L292.186 262.464C291.53 263.04 290.81 263.488 290.026 263.808C289.242 264.128 288.418 264.288 287.554 264.288ZM296.185 264V246.912H298.153V258.48H298.249L304.537 252.336H306.793L302.137 256.92L307.417 264H305.209L300.913 258.12L298.153 260.832V264H296.185ZM324.798 267.84L332.67 246.96H334.446L326.574 267.84H324.798ZM339.381 262.848V260.952L346.605 256.08V255.984L339.381 251.112V249.216L348.333 255.288V256.776L339.381 262.848ZM118.395 299.848L109.443 293.776V292.288L118.395 286.216V288.112L111.171 292.984V293.08L118.395 297.952V299.848ZM128.537 301V290.944H123.113V289.336H130.505V301H128.537ZM129.305 286.888C128.857 286.888 128.481 286.752 128.177 286.48C127.873 286.192 127.721 285.816 127.721 285.352C127.721 284.888 127.873 284.52 128.177 284.248C128.481 283.96 128.857 283.816 129.305 283.816C129.753 283.816 130.129 283.96 130.433 284.248C130.737 284.52 130.889 284.888 130.889 285.352C130.889 285.816 130.737 286.192 130.433 286.48C130.129 286.752 129.753 286.888 129.305 286.888ZM137.576 301V289.336H139.208L139.376 291.328H139.472C140.08 290.672 140.736 290.128 141.44 289.696C142.144 289.264 142.952 289.048 143.864 289.048C145.256 289.048 146.272 289.448 146.912 290.248C147.568 291.032 147.896 292.2 147.896 293.752V301H145.928V294.016C145.928 292.912 145.72 292.096 145.304 291.568C144.888 291.024 144.2 290.752 143.24 290.752C142.888 290.752 142.56 290.8 142.256 290.896C141.968 290.976 141.68 291.104 141.392 291.28C141.104 291.456 140.808 291.68 140.504 291.952C140.2 292.208 139.88 292.512 139.544 292.864V301H137.576ZM151.966 305.92V289.336H153.598L153.766 290.824H153.838C154.382 290.312 155.006 289.888 155.71 289.552C156.43 289.216 157.15 289.048 157.87 289.048C158.654 289.048 159.342 289.192 159.934 289.48C160.542 289.752 161.046 290.152 161.446 290.68C161.862 291.192 162.174 291.816 162.382 292.552C162.59 293.272 162.694 294.088 162.694 295C162.694 295.992 162.55 296.88 162.262 297.664C161.974 298.432 161.582 299.088 161.086 299.632C160.606 300.176 160.046 300.592 159.406 300.88C158.766 301.152 158.094 301.288 157.39 301.288C156.846 301.288 156.254 301.16 155.614 300.904C154.99 300.632 154.422 300.256 153.91 299.776H153.838L153.934 301.984V305.92H151.966ZM157.054 299.632C158.11 299.632 158.974 299.224 159.646 298.408C160.318 297.592 160.654 296.456 160.654 295C160.654 294.36 160.59 293.776 160.462 293.248C160.334 292.72 160.134 292.272 159.862 291.904C159.606 291.52 159.27 291.224 158.854 291.016C158.438 290.808 157.942 290.704 157.366 290.704C156.854 290.704 156.302 290.848 155.71 291.136C155.134 291.408 154.542 291.848 153.934 292.456V298.264C154.494 298.76 155.054 299.112 155.614 299.32C156.174 299.528 156.654 299.632 157.054 299.632ZM170.029 301.288C168.621 301.288 167.589 300.896 166.933 300.112C166.293 299.312 165.973 298.136 165.973 296.584V289.336H167.965V296.32C167.965 297.424 168.165 298.248 168.565 298.792C168.981 299.32 169.677 299.584 170.653 299.584C171.325 299.584 171.933 299.416 172.477 299.08C173.021 298.728 173.621 298.176 174.277 297.424V289.336H176.245V301H174.637L174.469 298.96H174.373C173.781 299.648 173.133 300.208 172.429 300.64C171.741 301.072 170.941 301.288 170.029 301.288ZM187.972 301.288C187.124 301.288 186.412 301.176 185.836 300.952C185.26 300.712 184.796 300.384 184.444 299.968C184.092 299.536 183.836 299.024 183.676 298.432C183.532 297.84 183.46 297.184 183.46 296.464V290.944H180.172V289.456L183.532 289.336L183.796 285.592H185.428V289.336H191.164V290.944H185.428V296.488C185.428 297.016 185.476 297.48 185.572 297.88C185.668 298.264 185.828 298.592 186.052 298.864C186.276 299.136 186.58 299.344 186.964 299.488C187.348 299.616 187.82 299.68 188.38 299.68C188.94 299.68 189.444 299.632 189.892 299.536C190.34 299.44 190.772 299.312 191.188 299.152L191.62 300.592C191.092 300.784 190.532 300.944 189.94 301.072C189.364 301.216 188.708 301.288 187.972 301.288ZM214.497 301.288C213.729 301.288 212.993 301.152 212.289 300.88C211.601 300.608 210.993 300.216 210.465 299.704C209.937 299.176 209.513 298.536 209.193 297.784C208.889 297.016 208.737 296.152 208.737 295.192C208.737 294.216 208.889 293.352 209.193 292.6C209.513 291.832 209.937 291.184 210.465 290.656C210.993 290.128 211.601 289.728 212.289 289.456C212.993 289.184 213.729 289.048 214.497 289.048C215.265 289.048 215.993 289.184 216.681 289.456C217.385 289.728 218.001 290.128 218.529 290.656C219.057 291.184 219.473 291.832 219.777 292.6C220.097 293.352 220.257 294.216 220.257 295.192C220.257 296.152 220.097 297.016 219.777 297.784C219.473 298.536 219.057 299.176 218.529 299.704C218.001 300.216 217.385 300.608 216.681 300.88C215.993 301.152 215.265 301.288 214.497 301.288ZM214.497 299.656C215.057 299.656 215.561 299.552 216.009 299.344C216.473 299.12 216.865 298.816 217.185 298.432C217.521 298.032 217.777 297.56 217.953 297.016C218.129 296.472 218.217 295.864 218.217 295.192C218.217 294.52 218.129 293.912 217.953 293.368C217.777 292.808 217.521 292.328 217.185 291.928C216.865 291.528 216.473 291.224 216.009 291.016C215.561 290.792 215.057 290.68 214.497 290.68C213.937 290.68 213.425 290.792 212.961 291.016C212.513 291.224 212.121 291.528 211.785 291.928C211.465 292.328 211.217 292.808 211.041 293.368C210.865 293.912 210.777 294.52 210.777 295.192C210.777 295.864 210.865 296.472 211.041 297.016C211.217 297.56 211.465 298.032 211.785 298.432C212.121 298.816 212.513 299.12 212.961 299.344C213.425 299.552 213.937 299.656 214.497 299.656ZM223.92 301V289.336H225.552L225.72 291.328H225.816C226.424 290.672 227.08 290.128 227.784 289.696C228.488 289.264 229.296 289.048 230.208 289.048C231.6 289.048 232.616 289.448 233.256 290.248C233.912 291.032 234.24 292.2 234.24 293.752V301H232.272V294.016C232.272 292.912 232.064 292.096 231.648 291.568C231.232 291.024 230.544 290.752 229.584 290.752C229.232 290.752 228.904 290.8 228.6 290.896C228.312 290.976 228.024 291.104 227.736 291.28C227.448 291.456 227.152 291.68 226.848 291.952C226.544 292.208 226.224 292.512 225.888 292.864V301H223.92ZM244.502 301.288C243.526 301.288 242.622 301.104 241.79 300.736C240.958 300.368 240.23 299.84 239.606 299.152C238.998 298.448 238.518 297.592 238.166 296.584C237.814 295.56 237.638 294.408 237.638 293.128C237.638 291.864 237.814 290.728 238.166 289.72C238.518 288.712 239.006 287.856 239.63 287.152C240.254 286.448 240.998 285.912 241.862 285.544C242.726 285.16 243.67 284.968 244.694 284.968C245.638 284.968 246.47 285.16 247.19 285.544C247.926 285.928 248.526 286.376 248.99 286.888L247.862 288.16C247.446 287.728 246.982 287.384 246.47 287.128C245.958 286.856 245.366 286.72 244.694 286.72C243.942 286.72 243.254 286.872 242.63 287.176C242.022 287.464 241.502 287.888 241.07 288.448C240.638 288.992 240.302 289.656 240.062 290.44C239.822 291.224 239.702 292.104 239.702 293.08C239.702 294.072 239.822 294.968 240.062 295.768C240.302 296.552 240.638 297.224 241.07 297.784C241.502 298.344 242.022 298.776 242.63 299.08C243.254 299.384 243.942 299.536 244.694 299.536C245.414 299.536 246.054 299.384 246.614 299.08C247.19 298.776 247.734 298.344 248.246 297.784L249.374 299.008C248.75 299.728 248.046 300.288 247.262 300.688C246.478 301.088 245.558 301.288 244.502 301.288ZM260.237 301.288C258.989 301.288 258.037 300.936 257.381 300.232C256.725 299.528 256.397 298.48 256.397 297.088V285.52H252.245V283.912H258.365V297.232C258.365 298.096 258.573 298.72 258.989 299.104C259.405 299.472 259.965 299.656 260.669 299.656C261.357 299.656 262.085 299.48 262.853 299.128L263.357 300.592C262.813 300.816 262.317 300.984 261.869 301.096C261.421 301.224 260.877 301.288 260.237 301.288ZM272.443 301V290.944H267.019V289.336H274.411V301H272.443ZM273.211 286.888C272.763 286.888 272.387 286.752 272.083 286.48C271.779 286.192 271.627 285.816 271.627 285.352C271.627 284.888 271.779 284.52 272.083 284.248C272.387 283.96 272.763 283.816 273.211 283.816C273.659 283.816 274.035 283.96 274.339 284.248C274.643 284.52 274.795 284.888 274.795 285.352C274.795 285.816 274.643 286.192 274.339 286.48C274.035 286.752 273.659 286.888 273.211 286.888ZM287.554 301.288C286.642 301.288 285.794 301.152 285.01 300.88C284.242 300.608 283.57 300.216 282.994 299.704C282.418 299.176 281.97 298.536 281.65 297.784C281.33 297.016 281.17 296.152 281.17 295.192C281.17 294.216 281.338 293.352 281.674 292.6C282.026 291.832 282.498 291.184 283.09 290.656C283.682 290.128 284.37 289.728 285.154 289.456C285.954 289.184 286.794 289.048 287.674 289.048C288.634 289.048 289.458 289.216 290.146 289.552C290.85 289.888 291.442 290.288 291.922 290.752L290.938 292.024C290.458 291.608 289.954 291.28 289.426 291.04C288.914 290.8 288.354 290.68 287.746 290.68C287.074 290.68 286.458 290.792 285.898 291.016C285.338 291.224 284.858 291.528 284.458 291.928C284.074 292.328 283.77 292.808 283.546 293.368C283.322 293.912 283.21 294.52 283.21 295.192C283.21 295.864 283.314 296.472 283.522 297.016C283.746 297.56 284.05 298.032 284.434 298.432C284.834 298.816 285.306 299.12 285.85 299.344C286.41 299.552 287.026 299.656 287.698 299.656C288.418 299.656 289.074 299.52 289.666 299.248C290.274 298.96 290.818 298.608 291.298 298.192L292.186 299.464C291.53 300.04 290.81 300.488 290.026 300.808C289.242 301.128 288.418 301.288 287.554 301.288ZM296.185 301V283.912H298.153V295.48H298.249L304.537 289.336H306.793L302.137 293.92L307.417 301H305.209L300.913 295.12L298.153 297.832V301H296.185ZM324.798 304.84L332.67 283.96H334.446L326.574 304.84H324.798ZM339.381 299.848V297.952L346.605 293.08V292.984L339.381 288.112V286.216L348.333 292.288V293.776L339.381 299.848ZM89.6133 336.848L80.6613 330.776V329.288L89.6133 323.216V325.112L82.3893 329.984V330.08L89.6133 334.952V336.848ZM94.5479 341.84L102.42 320.96H104.196L96.3239 341.84H94.5479ZM112.371 338V327.944H109.035V326.456L112.371 326.336V325.352C112.371 323.928 112.747 322.784 113.499 321.92C114.267 321.056 115.459 320.624 117.075 320.624C118.227 320.624 119.347 320.848 120.435 321.296L119.979 322.784C119.499 322.56 119.051 322.416 118.635 322.352C118.235 322.272 117.779 322.232 117.267 322.232C116.211 322.232 115.451 322.504 114.987 323.048C114.539 323.576 114.315 324.32 114.315 325.28V326.336H119.211V327.944H114.315V338H112.371ZM128.153 338.288C127.385 338.288 126.649 338.152 125.945 337.88C125.257 337.608 124.649 337.216 124.121 336.704C123.593 336.176 123.169 335.536 122.849 334.784C122.545 334.016 122.393 333.152 122.393 332.192C122.393 331.216 122.545 330.352 122.849 329.6C123.169 328.832 123.593 328.184 124.121 327.656C124.649 327.128 125.257 326.728 125.945 326.456C126.649 326.184 127.385 326.048 128.153 326.048C128.921 326.048 129.649 326.184 130.337 326.456C131.041 326.728 131.657 327.128 132.185 327.656C132.713 328.184 133.129 328.832 133.433 329.6C133.753 330.352 133.913 331.216 133.913 332.192C133.913 333.152 133.753 334.016 133.433 334.784C133.129 335.536 132.713 336.176 132.185 336.704C131.657 337.216 131.041 337.608 130.337 337.88C129.649 338.152 128.921 338.288 128.153 338.288ZM128.153 336.656C128.713 336.656 129.217 336.552 129.665 336.344C130.129 336.12 130.521 335.816 130.841 335.432C131.177 335.032 131.433 334.56 131.609 334.016C131.785 333.472 131.873 332.864 131.873 332.192C131.873 331.52 131.785 330.912 131.609 330.368C131.433 329.808 131.177 329.328 130.841 328.928C130.521 328.528 130.129 328.224 129.665 328.016C129.217 327.792 128.713 327.68 128.153 327.68C127.593 327.68 127.081 327.792 126.617 328.016C126.169 328.224 125.777 328.528 125.441 328.928C125.121 329.328 124.873 329.808 124.697 330.368C124.521 330.912 124.433 331.52 124.433 332.192C124.433 332.864 124.521 333.472 124.697 334.016C124.873 334.56 125.121 335.032 125.441 335.432C125.777 335.816 126.169 336.12 126.617 336.344C127.081 336.552 127.593 336.656 128.153 336.656ZM138.848 338V326.336H140.48L140.648 329.096H140.72C141.328 328.152 142.072 327.408 142.952 326.864C143.848 326.32 144.84 326.048 145.928 326.048C146.36 326.048 146.76 326.088 147.128 326.168C147.496 326.232 147.864 326.352 148.232 326.528L147.776 328.232C147.36 328.088 147.008 327.984 146.72 327.92C146.448 327.856 146.08 327.824 145.616 327.824C144.736 327.824 143.888 328.08 143.072 328.592C142.272 329.088 141.52 329.944 140.816 331.16V338H138.848ZM151.126 338V326.336H152.71L152.878 327.872H152.926C153.23 327.328 153.582 326.888 153.982 326.552C154.382 326.216 154.918 326.048 155.59 326.048C156.726 326.048 157.462 326.72 157.798 328.064C158.134 327.44 158.502 326.952 158.902 326.6C159.318 326.232 159.862 326.048 160.534 326.048C161.35 326.048 161.982 326.36 162.43 326.984C162.894 327.592 163.126 328.48 163.126 329.648V338H161.158V329.792C161.158 328.432 160.742 327.752 159.91 327.752C159.494 327.752 159.158 327.904 158.902 328.208C158.646 328.496 158.358 328.944 158.038 329.552V338H156.214V329.792C156.214 329.12 156.118 328.616 155.926 328.28C155.75 327.928 155.446 327.752 155.014 327.752C154.598 327.752 154.246 327.904 153.958 328.208C153.67 328.496 153.382 328.944 153.094 329.552V338H151.126ZM166.693 336.848V334.952L173.917 330.08V329.984L166.693 325.112V323.216L175.645 329.288V330.776L166.693 336.848Z" fill="#4E5769"/>
<rect x="29" y="362" width="343" height="49" rx="6" fill="#FDE7C7"/>
<path d="M51.376 398.648V397.52H52.6C53.208 397.52 53.704 397.48 54.088 397.4C54.488 397.32 54.8 397.192 55.024 397.016C55.248 396.84 55.4 396.608 55.48 396.32C55.56 396.048 55.6 395.72 55.6 395.336C55.6 394.6 55.576 393.896 55.528 393.224C55.48 392.552 55.456 391.808 55.456 390.992C55.456 390.208 55.608 389.616 55.912 389.216C56.216 388.8 56.784 388.52 57.616 388.376V388.28C56.784 388.136 56.216 387.864 55.912 387.464C55.608 387.048 55.456 386.448 55.456 385.664C55.456 384.912 55.48 384.176 55.528 383.456C55.576 382.72 55.6 382.008 55.6 381.32C55.6 380.936 55.56 380.608 55.48 380.336C55.4 380.048 55.248 379.816 55.024 379.64C54.8 379.464 54.488 379.336 54.088 379.256C53.704 379.176 53.208 379.136 52.6 379.136H51.376V378.008H52.84C53.592 378.008 54.24 378.064 54.784 378.176C55.344 378.272 55.808 378.44 56.176 378.68C56.544 378.92 56.816 379.248 56.992 379.664C57.168 380.064 57.256 380.576 57.256 381.2C57.256 382.032 57.216 382.824 57.136 383.576C57.072 384.312 57.04 385.064 57.04 385.832C57.04 386.072 57.088 386.304 57.184 386.528C57.28 386.736 57.456 386.928 57.712 387.104C57.968 387.28 58.32 387.424 58.768 387.536C59.232 387.648 59.816 387.704 60.52 387.704V388.952C59.816 388.952 59.232 389.008 58.768 389.12C58.32 389.232 57.968 389.376 57.712 389.552C57.456 389.728 57.28 389.928 57.184 390.152C57.088 390.36 57.04 390.584 57.04 390.824C57.04 391.224 57.048 391.608 57.064 391.976C57.096 392.344 57.12 392.712 57.136 393.08C57.168 393.448 57.192 393.832 57.208 394.232C57.24 394.616 57.256 395.024 57.256 395.456C57.256 396.08 57.168 396.592 56.992 396.992C56.816 397.408 56.544 397.736 56.176 397.976C55.808 398.216 55.344 398.384 54.784 398.48C54.24 398.592 53.592 398.648 52.84 398.648H51.376Z" fill="#4E5769"/>
<rect x="9" y="42.9999" width="383" height="392" rx="6" stroke="white" stroke-linejoin="bevel"/>
</svg>
