<svg width="430" height="314" viewBox="0 0 430 314" fill="none" xmlns="http://www.w3.org/2000/svg">
<rect x="31" y="34" width="368" height="278" rx="6" fill="white"/>
<rect x="51" y="54" width="328" height="154" rx="6" fill="#FDE7C7"/>
<path d="M78.584 98V87.944H73.16V86.336H80.552V98H78.584ZM79.352 83.888C78.904 83.888 78.528 83.752 78.224 83.48C77.92 83.192 77.768 82.816 77.768 82.352C77.768 81.888 77.92 81.52 78.224 81.248C78.528 80.96 78.904 80.816 79.352 80.816C79.8 80.816 80.176 80.96 80.48 81.248C80.784 81.52 80.936 81.888 80.936 82.352C80.936 82.816 80.784 83.192 80.48 83.48C80.176 83.752 79.8 83.888 79.352 83.888ZM92.8306 98.288C91.6786 98.288 90.6146 98.112 89.6386 97.76C88.6626 97.392 87.8146 96.96 87.0946 96.464L88.0066 95.168C88.6786 95.648 89.4146 96.032 90.2146 96.32C91.0306 96.608 91.9826 96.752 93.0706 96.752C94.0626 96.752 94.7986 96.576 95.2786 96.224C95.7746 95.856 96.0226 95.424 96.0226 94.928C96.0226 94.704 95.9826 94.496 95.9026 94.304C95.8226 94.112 95.6466 93.928 95.3746 93.752C95.1186 93.576 94.7506 93.408 94.2706 93.248C93.7906 93.088 93.1586 92.928 92.3746 92.768C90.8546 92.448 89.7106 92.024 88.9426 91.496C88.1906 90.952 87.8146 90.24 87.8146 89.36C87.8146 88.896 87.9186 88.464 88.1266 88.064C88.3346 87.648 88.6386 87.296 89.0386 87.008C89.4546 86.704 89.9586 86.472 90.5506 86.312C91.1586 86.136 91.8626 86.048 92.6626 86.048C93.5586 86.048 94.4226 86.2 95.2546 86.504C96.0866 86.792 96.7906 87.136 97.3666 87.536L96.4066 88.808C95.8626 88.44 95.2626 88.144 94.6066 87.92C93.9506 87.696 93.2466 87.584 92.4946 87.584C91.5026 87.584 90.8066 87.752 90.4066 88.088C90.0066 88.424 89.8066 88.816 89.8066 89.264C89.8066 89.776 90.0706 90.168 90.5986 90.44C91.1266 90.696 91.9906 90.952 93.1906 91.208C94.1666 91.416 94.9666 91.64 95.5906 91.88C96.2146 92.104 96.7026 92.36 97.0546 92.648C97.4226 92.936 97.6706 93.256 97.7986 93.608C97.9426 93.96 98.0146 94.36 98.0146 94.808C98.0146 95.288 97.9026 95.736 97.6786 96.152C97.4546 96.568 97.1186 96.936 96.6706 97.256C96.2386 97.576 95.6946 97.824 95.0386 98C94.3986 98.192 93.6626 98.288 92.8306 98.288ZM102.997 98V82.256H104.965V96.296H112.765V98H102.997ZM121.372 98.288C120.604 98.288 119.868 98.152 119.164 97.88C118.476 97.608 117.868 97.216 117.34 96.704C116.812 96.176 116.388 95.536 116.068 94.784C115.764 94.016 115.612 93.152 115.612 92.192C115.612 91.216 115.764 90.352 116.068 89.6C116.388 88.832 116.812 88.184 117.34 87.656C117.868 87.128 118.476 86.728 119.164 86.456C119.868 86.184 120.604 86.048 121.372 86.048C122.14 86.048 122.868 86.184 123.556 86.456C124.26 86.728 124.876 87.128 125.404 87.656C125.932 88.184 126.348 88.832 126.652 89.6C126.972 90.352 127.132 91.216 127.132 92.192C127.132 93.152 126.972 94.016 126.652 94.784C126.348 95.536 125.932 96.176 125.404 96.704C124.876 97.216 124.26 97.608 123.556 97.88C122.868 98.152 122.14 98.288 121.372 98.288ZM121.372 96.656C121.932 96.656 122.436 96.552 122.884 96.344C123.348 96.12 123.74 95.816 124.06 95.432C124.396 95.032 124.652 94.56 124.828 94.016C125.004 93.472 125.092 92.864 125.092 92.192C125.092 91.52 125.004 90.912 124.828 90.368C124.652 89.808 124.396 89.328 124.06 88.928C123.74 88.528 123.348 88.224 122.884 88.016C122.436 87.792 121.932 87.68 121.372 87.68C120.812 87.68 120.3 87.792 119.836 88.016C119.388 88.224 118.996 88.528 118.66 88.928C118.34 89.328 118.092 89.808 117.916 90.368C117.74 90.912 117.652 91.52 117.652 92.192C117.652 92.864 117.74 93.472 117.916 94.016C118.092 94.56 118.34 95.032 118.66 95.432C118.996 95.816 119.388 96.12 119.836 96.344C120.3 96.552 120.812 96.656 121.372 96.656ZM135.667 103.376C133.955 103.376 132.627 103.096 131.683 102.536C130.755 101.976 130.291 101.176 130.291 100.136C130.291 99.672 130.451 99.216 130.771 98.768C131.107 98.32 131.587 97.912 132.211 97.544V97.448C131.891 97.272 131.611 97.032 131.371 96.728C131.131 96.424 131.011 96.024 131.011 95.528C131.011 95.16 131.131 94.784 131.371 94.4C131.611 94 131.955 93.648 132.403 93.344V93.248C132.003 92.944 131.659 92.544 131.371 92.048C131.099 91.536 130.963 90.928 130.963 90.224C130.963 89.584 131.083 89.008 131.323 88.496C131.579 87.984 131.915 87.552 132.331 87.2C132.747 86.832 133.227 86.552 133.771 86.36C134.331 86.152 134.923 86.048 135.547 86.048C136.187 86.048 136.763 86.144 137.275 86.336H142.099V87.944H139.075C139.347 88.216 139.579 88.56 139.771 88.976C139.963 89.392 140.059 89.832 140.059 90.296C140.059 90.92 139.939 91.48 139.699 91.976C139.475 92.472 139.155 92.896 138.739 93.248C138.339 93.584 137.859 93.848 137.299 94.04C136.755 94.216 136.171 94.304 135.547 94.304C135.243 94.304 134.915 94.272 134.562 94.208C134.227 94.128 133.899 94.016 133.579 93.872C132.971 94.256 132.667 94.704 132.667 95.216C132.667 95.68 132.875 96.024 133.291 96.248C133.723 96.456 134.323 96.56 135.091 96.56H137.707C139.211 96.56 140.323 96.768 141.043 97.184C141.779 97.6 142.147 98.304 142.147 99.296C142.147 99.84 141.995 100.36 141.691 100.856C141.387 101.352 140.955 101.784 140.395 102.152C139.835 102.52 139.155 102.816 138.355 103.04C137.555 103.264 136.659 103.376 135.667 103.376ZM135.547 92.984C136.299 92.984 136.931 92.736 137.443 92.24C137.971 91.744 138.235 91.072 138.235 90.224C138.235 89.824 138.163 89.456 138.019 89.12C137.875 88.784 137.683 88.496 137.443 88.256C137.203 88.016 136.915 87.832 136.579 87.704C136.259 87.56 135.915 87.488 135.547 87.488C135.179 87.488 134.827 87.56 134.491 87.704C134.171 87.832 133.891 88.016 133.651 88.256C133.411 88.496 133.219 88.784 133.075 89.12C132.931 89.456 132.859 89.824 132.859 90.224C132.859 91.072 133.123 91.744 133.651 92.24C134.179 92.736 134.811 92.984 135.547 92.984ZM135.811 101.936C136.483 101.936 137.091 101.872 137.635 101.744C138.179 101.616 138.643 101.44 139.027 101.216C139.411 101.008 139.699 100.76 139.891 100.472C140.099 100.2 140.203 99.912 140.203 99.608C140.203 99.048 139.979 98.672 139.531 98.48C139.099 98.288 138.435 98.192 137.539 98.192H135.259C134.923 98.192 134.603 98.176 134.299 98.144C134.011 98.128 133.739 98.08 133.483 98C132.923 98.304 132.531 98.616 132.307 98.936C132.099 99.272 131.995 99.608 131.995 99.944C131.995 100.552 132.315 101.032 132.955 101.384C133.611 101.752 134.563 101.936 135.811 101.936ZM150.057 103.376C148.345 103.376 147.017 103.096 146.073 102.536C145.145 101.976 144.681 101.176 144.681 100.136C144.681 99.672 144.841 99.216 145.161 98.768C145.497 98.32 145.977 97.912 146.601 97.544V97.448C146.281 97.272 146.001 97.032 145.761 96.728C145.521 96.424 145.401 96.024 145.401 95.528C145.401 95.16 145.521 94.784 145.761 94.4C146.001 94 146.345 93.648 146.793 93.344V93.248C146.393 92.944 146.049 92.544 145.761 92.048C145.489 91.536 145.353 90.928 145.353 90.224C145.353 89.584 145.473 89.008 145.713 88.496C145.969 87.984 146.305 87.552 146.721 87.2C147.137 86.832 147.617 86.552 148.161 86.36C148.721 86.152 149.313 86.048 149.937 86.048C150.577 86.048 151.153 86.144 151.665 86.336H156.489V87.944H153.465C153.737 88.216 153.969 88.56 154.161 88.976C154.353 89.392 154.449 89.832 154.449 90.296C154.449 90.92 154.329 91.48 154.089 91.976C153.865 92.472 153.545 92.896 153.129 93.248C152.729 93.584 152.249 93.848 151.689 94.04C151.145 94.216 150.561 94.304 149.937 94.304C149.633 94.304 149.305 94.272 148.953 94.208C148.617 94.128 148.289 94.016 147.969 93.872C147.361 94.256 147.057 94.704 147.057 95.216C147.057 95.68 147.265 96.024 147.681 96.248C148.113 96.456 148.713 96.56 149.481 96.56H152.097C153.601 96.56 154.713 96.768 155.433 97.184C156.169 97.6 156.537 98.304 156.537 99.296C156.537 99.84 156.385 100.36 156.081 100.856C155.777 101.352 155.345 101.784 154.785 102.152C154.225 102.52 153.545 102.816 152.745 103.04C151.945 103.264 151.049 103.376 150.057 103.376ZM149.937 92.984C150.689 92.984 151.321 92.736 151.833 92.24C152.361 91.744 152.625 91.072 152.625 90.224C152.625 89.824 152.553 89.456 152.409 89.12C152.265 88.784 152.073 88.496 151.833 88.256C151.593 88.016 151.305 87.832 150.969 87.704C150.649 87.56 150.305 87.488 149.937 87.488C149.569 87.488 149.217 87.56 148.881 87.704C148.561 87.832 148.281 88.016 148.041 88.256C147.801 88.496 147.609 88.784 147.465 89.12C147.321 89.456 147.249 89.824 147.249 90.224C147.249 91.072 147.513 91.744 148.041 92.24C148.569 92.736 149.201 92.984 149.937 92.984ZM150.201 101.936C150.873 101.936 151.481 101.872 152.025 101.744C152.569 101.616 153.033 101.44 153.417 101.216C153.801 101.008 154.089 100.76 154.281 100.472C154.489 100.2 154.593 99.912 154.593 99.608C154.593 99.048 154.369 98.672 153.921 98.48C153.489 98.288 152.825 98.192 151.929 98.192H149.649C149.313 98.192 148.993 98.176 148.689 98.144C148.401 98.128 148.129 98.08 147.873 98C147.313 98.304 146.921 98.616 146.697 98.936C146.489 99.272 146.385 99.608 146.385 99.944C146.385 100.552 146.705 101.032 147.345 101.384C148.001 101.752 148.953 101.936 150.201 101.936ZM165.264 98.288C164.384 98.288 163.56 98.152 162.792 97.88C162.04 97.608 161.376 97.208 160.8 96.68C160.24 96.152 159.792 95.512 159.456 94.76C159.136 93.992 158.976 93.12 158.976 92.144C158.976 91.2 159.136 90.352 159.456 89.6C159.792 88.848 160.232 88.208 160.776 87.68C161.336 87.152 161.968 86.752 162.672 86.48C163.392 86.192 164.144 86.048 164.928 86.048C165.76 86.048 166.504 86.184 167.16 86.456C167.832 86.712 168.392 87.08 168.84 87.56C169.304 88.04 169.656 88.616 169.896 89.288C170.136 89.96 170.256 90.704 170.256 91.52C170.256 91.744 170.248 91.96 170.232 92.168C170.216 92.376 170.192 92.56 170.16 92.72H160.968C161.096 94.048 161.576 95.048 162.408 95.72C163.256 96.376 164.288 96.704 165.504 96.704C166.208 96.704 166.84 96.608 167.4 96.416C167.976 96.208 168.528 95.936 169.056 95.6L169.776 96.896C169.2 97.28 168.536 97.608 167.784 97.88C167.048 98.152 166.208 98.288 165.264 98.288ZM164.976 87.608C164.496 87.608 164.032 87.688 163.584 87.848C163.152 88.008 162.76 88.24 162.408 88.544C162.056 88.832 161.76 89.2 161.52 89.648C161.28 90.096 161.112 90.608 161.016 91.184H168.456C168.376 89.984 168.024 89.088 167.4 88.496C166.792 87.904 165.984 87.608 164.976 87.608ZM178.238 98.288C177.47 98.288 176.774 98.152 176.15 97.88C175.542 97.608 175.014 97.216 174.566 96.704C174.118 96.176 173.774 95.536 173.534 94.784C173.294 94.032 173.174 93.168 173.174 92.192C173.174 91.248 173.318 90.4 173.606 89.648C173.91 88.88 174.302 88.232 174.782 87.704C175.278 87.176 175.846 86.768 176.486 86.48C177.126 86.192 177.79 86.048 178.478 86.048C179.182 86.048 179.806 86.184 180.35 86.456C180.91 86.712 181.446 87.08 181.958 87.56H182.03L181.934 85.4V80.912H183.902V98H182.27L182.102 96.464H182.03C181.55 96.96 180.974 97.392 180.302 97.76C179.646 98.112 178.958 98.288 178.238 98.288ZM178.646 96.632C179.798 96.632 180.894 96.048 181.934 94.88V89.072C181.406 88.576 180.886 88.224 180.374 88.016C179.878 87.808 179.374 87.704 178.862 87.704C178.35 87.704 177.87 87.816 177.422 88.04C176.99 88.248 176.606 88.552 176.27 88.952C175.95 89.336 175.694 89.8 175.502 90.344C175.31 90.888 175.214 91.496 175.214 92.168C175.214 93.576 175.51 94.672 176.102 95.456C176.71 96.24 177.558 96.632 178.646 96.632ZM188.405 98V96.296H192.317V83.936H188.405V82.256H198.245V83.936H194.333V96.296H198.245V98H188.405ZM202.748 98V86.336H204.38L204.548 88.328H204.644C205.252 87.672 205.908 87.128 206.612 86.696C207.316 86.264 208.124 86.048 209.036 86.048C210.428 86.048 211.444 86.448 212.084 87.248C212.74 88.032 213.068 89.2 213.068 90.752V98H211.1V91.016C211.1 89.912 210.892 89.096 210.476 88.568C210.06 88.024 209.372 87.752 208.412 87.752C208.06 87.752 207.732 87.8 207.428 87.896C207.14 87.976 206.852 88.104 206.564 88.28C206.276 88.456 205.98 88.68 205.676 88.952C205.372 89.208 205.052 89.512 204.716 89.864V98H202.748ZM225.298 102.224C223.634 100.928 222.314 99.368 221.338 97.544C220.378 95.72 219.898 93.648 219.898 91.328C219.898 89.008 220.378 86.936 221.338 85.112C222.314 83.288 223.634 81.728 225.298 80.432L226.378 81.44C224.762 82.8 223.57 84.28 222.802 85.88C222.05 87.48 221.674 89.296 221.674 91.328C221.674 93.36 222.05 95.176 222.802 96.776C223.57 98.376 224.762 99.856 226.378 101.216L225.298 102.224ZM233.305 102.224L232.225 101.216C233.841 99.856 235.025 98.376 235.777 96.776C236.545 95.176 236.929 93.36 236.929 91.328C236.929 89.296 236.545 87.48 235.777 85.88C235.025 84.28 233.841 82.8 232.225 81.44L233.305 80.432C234.969 81.728 236.281 83.288 237.241 85.112C238.217 86.936 238.705 89.008 238.705 91.328C238.705 93.648 238.217 95.72 237.241 97.544C236.281 99.368 234.969 100.928 233.305 102.224ZM268.662 101.648C267.91 101.648 267.254 101.592 266.694 101.48C266.134 101.384 265.67 101.216 265.302 100.976C264.934 100.736 264.662 100.408 264.486 99.992C264.31 99.592 264.222 99.08 264.222 98.456C264.222 98.024 264.23 97.616 264.246 97.232C264.278 96.832 264.302 96.448 264.318 96.08C264.35 95.712 264.374 95.344 264.39 94.976C264.422 94.608 264.438 94.224 264.438 93.824C264.438 93.584 264.39 93.36 264.294 93.152C264.198 92.928 264.022 92.728 263.766 92.552C263.51 92.376 263.15 92.232 262.686 92.12C262.238 92.008 261.662 91.952 260.958 91.952V90.704C261.662 90.704 262.238 90.648 262.686 90.536C263.15 90.424 263.51 90.28 263.766 90.104C264.022 89.928 264.198 89.736 264.294 89.528C264.39 89.304 264.438 89.072 264.438 88.832C264.438 88.064 264.398 87.312 264.318 86.576C264.254 85.824 264.222 85.032 264.222 84.2C264.222 83.576 264.31 83.064 264.486 82.664C264.662 82.248 264.934 81.92 265.302 81.68C265.67 81.44 266.134 81.272 266.694 81.176C267.254 81.064 267.91 81.008 268.662 81.008H270.126V82.136H268.878C268.27 82.136 267.766 82.176 267.366 82.256C266.982 82.336 266.678 82.464 266.454 82.64C266.246 82.816 266.102 83.048 266.022 83.336C265.942 83.608 265.902 83.936 265.902 84.32C265.902 85.008 265.926 85.72 265.974 86.456C266.022 87.176 266.046 87.912 266.046 88.664C266.046 89.448 265.886 90.048 265.566 90.464C265.262 90.864 264.694 91.136 263.862 91.28V91.376C264.694 91.52 265.262 91.8 265.566 92.216C265.886 92.616 266.046 93.208 266.046 93.992C266.046 94.808 266.022 95.552 265.974 96.224C265.926 96.896 265.902 97.6 265.902 98.336C265.902 98.72 265.942 99.048 266.022 99.32C266.102 99.608 266.246 99.84 266.454 100.016C266.678 100.192 266.982 100.32 267.366 100.4C267.766 100.48 268.27 100.52 268.878 100.52H270.126V101.648H268.662ZM279.669 98.288C279.125 98.288 278.661 98.104 278.277 97.736C277.909 97.368 277.725 96.88 277.725 96.272C277.725 95.664 277.909 95.176 278.277 94.808C278.661 94.424 279.125 94.232 279.669 94.232C280.213 94.232 280.669 94.424 281.037 94.808C281.421 95.176 281.613 95.664 281.613 96.272C281.613 96.88 281.421 97.368 281.037 97.736C280.669 98.104 280.213 98.288 279.669 98.288ZM294.059 98.288C293.515 98.288 293.051 98.104 292.667 97.736C292.299 97.368 292.115 96.88 292.115 96.272C292.115 95.664 292.299 95.176 292.667 94.808C293.051 94.424 293.515 94.232 294.059 94.232C294.603 94.232 295.059 94.424 295.427 94.808C295.811 95.176 296.003 95.664 296.003 96.272C296.003 96.88 295.811 97.368 295.427 97.736C295.059 98.104 294.603 98.288 294.059 98.288ZM308.45 98.288C307.906 98.288 307.442 98.104 307.058 97.736C306.69 97.368 306.506 96.88 306.506 96.272C306.506 95.664 306.69 95.176 307.058 94.808C307.442 94.424 307.906 94.232 308.45 94.232C308.994 94.232 309.45 94.424 309.818 94.808C310.202 95.176 310.394 95.664 310.394 96.272C310.394 96.88 310.202 97.368 309.818 97.736C309.45 98.104 308.994 98.288 308.45 98.288ZM318.017 101.648V100.52H319.241C319.849 100.52 320.345 100.48 320.729 100.4C321.129 100.32 321.441 100.192 321.665 100.016C321.889 99.84 322.041 99.608 322.121 99.32C322.201 99.048 322.241 98.72 322.241 98.336C322.241 97.6 322.217 96.896 322.169 96.224C322.121 95.552 322.097 94.808 322.097 93.992C322.097 93.208 322.249 92.616 322.553 92.216C322.857 91.8 323.425 91.52 324.257 91.376V91.28C323.425 91.136 322.857 90.864 322.553 90.464C322.249 90.048 322.097 89.448 322.097 88.664C322.097 87.912 322.121 87.176 322.169 86.456C322.217 85.72 322.241 85.008 322.241 84.32C322.241 83.936 322.201 83.608 322.121 83.336C322.041 83.048 321.889 82.816 321.665 82.64C321.441 82.464 321.129 82.336 320.729 82.256C320.345 82.176 319.849 82.136 319.241 82.136H318.017V81.008H319.481C320.233 81.008 320.881 81.064 321.425 81.176C321.985 81.272 322.449 81.44 322.817 81.68C323.185 81.92 323.457 82.248 323.633 82.664C323.809 83.064 323.897 83.576 323.897 84.2C323.897 85.032 323.857 85.824 323.777 86.576C323.713 87.312 323.681 88.064 323.681 88.832C323.681 89.072 323.729 89.304 323.825 89.528C323.921 89.736 324.097 89.928 324.353 90.104C324.609 90.28 324.961 90.424 325.409 90.536C325.873 90.648 326.457 90.704 327.161 90.704V91.952C326.457 91.952 325.873 92.008 325.409 92.12C324.961 92.232 324.609 92.376 324.353 92.552C324.097 92.728 323.921 92.928 323.825 93.152C323.729 93.36 323.681 93.584 323.681 93.824C323.681 94.224 323.689 94.608 323.705 94.976C323.737 95.344 323.761 95.712 323.777 96.08C323.809 96.448 323.833 96.832 323.849 97.232C323.881 97.616 323.897 98.024 323.897 98.456C323.897 99.08 323.809 99.592 323.633 99.992C323.457 100.408 323.185 100.736 322.817 100.976C322.449 101.216 321.985 101.384 321.425 101.48C320.881 101.592 320.233 101.648 319.481 101.648H318.017Z" fill="#4E5769"/>
<path d="M78.2 140.288C77.432 140.288 76.696 140.152 75.992 139.88C75.304 139.608 74.696 139.216 74.168 138.704C73.64 138.176 73.216 137.536 72.896 136.784C72.592 136.016 72.44 135.152 72.44 134.192C72.44 133.216 72.592 132.352 72.896 131.6C73.216 130.832 73.64 130.184 74.168 129.656C74.696 129.128 75.304 128.728 75.992 128.456C76.696 128.184 77.432 128.048 78.2 128.048C78.968 128.048 79.696 128.184 80.384 128.456C81.088 128.728 81.704 129.128 82.232 129.656C82.76 130.184 83.176 130.832 83.48 131.6C83.8 132.352 83.96 133.216 83.96 134.192C83.96 135.152 83.8 136.016 83.48 136.784C83.176 137.536 82.76 138.176 82.232 138.704C81.704 139.216 81.088 139.608 80.384 139.88C79.696 140.152 78.968 140.288 78.2 140.288ZM78.2 138.656C78.76 138.656 79.264 138.552 79.712 138.344C80.176 138.12 80.568 137.816 80.888 137.432C81.224 137.032 81.48 136.56 81.656 136.016C81.832 135.472 81.92 134.864 81.92 134.192C81.92 133.52 81.832 132.912 81.656 132.368C81.48 131.808 81.224 131.328 80.888 130.928C80.568 130.528 80.176 130.224 79.712 130.016C79.264 129.792 78.76 129.68 78.2 129.68C77.64 129.68 77.128 129.792 76.664 130.016C76.216 130.224 75.824 130.528 75.488 130.928C75.168 131.328 74.92 131.808 74.744 132.368C74.568 132.912 74.48 133.52 74.48 134.192C74.48 134.864 74.568 135.472 74.744 136.016C74.92 136.56 75.168 137.032 75.488 137.432C75.824 137.816 76.216 138.12 76.664 138.344C77.128 138.552 77.64 138.656 78.2 138.656ZM87.6226 140V128.336H89.2546L89.4226 130.328H89.5186C90.1266 129.672 90.7826 129.128 91.4866 128.696C92.1906 128.264 92.9986 128.048 93.9106 128.048C95.3026 128.048 96.3186 128.448 96.9586 129.248C97.6146 130.032 97.9426 131.2 97.9426 132.752V140H95.9746V133.016C95.9746 131.912 95.7666 131.096 95.3506 130.568C94.9346 130.024 94.2466 129.752 93.2866 129.752C92.9346 129.752 92.6066 129.8 92.3026 129.896C92.0146 129.976 91.7266 130.104 91.4386 130.28C91.1506 130.456 90.8546 130.68 90.5506 130.952C90.2466 131.208 89.9266 131.512 89.5906 131.864V140H87.6226ZM108.205 140.288C107.229 140.288 106.325 140.104 105.493 139.736C104.661 139.368 103.933 138.84 103.309 138.152C102.701 137.448 102.221 136.592 101.869 135.584C101.517 134.56 101.341 133.408 101.341 132.128C101.341 130.864 101.517 129.728 101.869 128.72C102.221 127.712 102.709 126.856 103.333 126.152C103.957 125.448 104.701 124.912 105.565 124.544C106.429 124.16 107.373 123.968 108.397 123.968C109.341 123.968 110.173 124.16 110.893 124.544C111.629 124.928 112.229 125.376 112.693 125.888L111.565 127.16C111.149 126.728 110.685 126.384 110.173 126.128C109.661 125.856 109.069 125.72 108.397 125.72C107.645 125.72 106.957 125.872 106.333 126.176C105.725 126.464 105.205 126.888 104.773 127.448C104.341 127.992 104.005 128.656 103.765 129.44C103.525 130.224 103.405 131.104 103.405 132.08C103.405 133.072 103.525 133.968 103.765 134.768C104.005 135.552 104.341 136.224 104.773 136.784C105.205 137.344 105.725 137.776 106.333 138.08C106.957 138.384 107.645 138.536 108.397 138.536C109.117 138.536 109.757 138.384 110.317 138.08C110.893 137.776 111.437 137.344 111.949 136.784L113.077 138.008C112.453 138.728 111.749 139.288 110.965 139.688C110.181 140.088 109.261 140.288 108.205 140.288ZM123.94 140.288C122.692 140.288 121.74 139.936 121.084 139.232C120.428 138.528 120.1 137.48 120.1 136.088V124.52H115.948V122.912H122.068V136.232C122.068 137.096 122.276 137.72 122.692 138.104C123.108 138.472 123.668 138.656 124.372 138.656C125.06 138.656 125.788 138.48 126.556 138.128L127.06 139.592C126.516 139.816 126.02 139.984 125.572 140.096C125.124 140.224 124.58 140.288 123.94 140.288ZM136.147 140V129.944H130.723V128.336H138.115V140H136.147ZM136.915 125.888C136.467 125.888 136.091 125.752 135.787 125.48C135.483 125.192 135.331 124.816 135.331 124.352C135.331 123.888 135.483 123.52 135.787 123.248C136.091 122.96 136.467 122.816 136.915 122.816C137.363 122.816 137.739 122.96 138.043 123.248C138.347 123.52 138.499 123.888 138.499 124.352C138.499 124.816 138.347 125.192 138.043 125.48C137.739 125.752 137.363 125.888 136.915 125.888ZM151.257 140.288C150.345 140.288 149.497 140.152 148.713 139.88C147.945 139.608 147.273 139.216 146.697 138.704C146.121 138.176 145.673 137.536 145.353 136.784C145.033 136.016 144.873 135.152 144.873 134.192C144.873 133.216 145.041 132.352 145.377 131.6C145.729 130.832 146.201 130.184 146.793 129.656C147.385 129.128 148.073 128.728 148.857 128.456C149.657 128.184 150.497 128.048 151.377 128.048C152.337 128.048 153.161 128.216 153.849 128.552C154.553 128.888 155.145 129.288 155.625 129.752L154.641 131.024C154.161 130.608 153.657 130.28 153.129 130.04C152.617 129.8 152.057 129.68 151.449 129.68C150.777 129.68 150.161 129.792 149.601 130.016C149.041 130.224 148.561 130.528 148.161 130.928C147.777 131.328 147.473 131.808 147.249 132.368C147.025 132.912 146.913 133.52 146.913 134.192C146.913 134.864 147.017 135.472 147.225 136.016C147.449 136.56 147.753 137.032 148.137 137.432C148.537 137.816 149.009 138.12 149.553 138.344C150.113 138.552 150.729 138.656 151.401 138.656C152.121 138.656 152.777 138.52 153.369 138.248C153.977 137.96 154.521 137.608 155.001 137.192L155.889 138.464C155.233 139.04 154.513 139.488 153.729 139.808C152.945 140.128 152.121 140.288 151.257 140.288ZM159.888 140V122.912H161.856V134.48H161.952L168.24 128.336H170.496L165.84 132.92L171.12 140H168.912L164.616 134.12L161.856 136.832V140H159.888ZM182.126 144.224C180.462 142.928 179.142 141.368 178.166 139.544C177.206 137.72 176.726 135.648 176.726 133.328C176.726 131.008 177.206 128.936 178.166 127.112C179.142 125.288 180.462 123.728 182.126 122.432L183.206 123.44C181.59 124.8 180.398 126.28 179.63 127.88C178.878 129.48 178.502 131.296 178.502 133.328C178.502 135.36 178.878 137.176 179.63 138.776C180.398 140.376 181.59 141.856 183.206 143.216L182.126 144.224ZM190.133 144.224L189.053 143.216C190.669 141.856 191.853 140.376 192.605 138.776C193.373 137.176 193.757 135.36 193.757 133.328C193.757 131.296 193.373 129.48 192.605 127.88C191.853 126.28 190.669 124.8 189.053 123.44L190.133 122.432C191.797 123.728 193.109 125.288 194.069 127.112C195.045 128.936 195.533 131.008 195.533 133.328C195.533 135.648 195.045 137.72 194.069 139.544C193.109 141.368 191.797 142.928 190.133 144.224ZM225.49 143.648C224.738 143.648 224.082 143.592 223.522 143.48C222.962 143.384 222.498 143.216 222.13 142.976C221.762 142.736 221.49 142.408 221.314 141.992C221.138 141.592 221.05 141.08 221.05 140.456C221.05 140.024 221.058 139.616 221.074 139.232C221.106 138.832 221.13 138.448 221.146 138.08C221.178 137.712 221.202 137.344 221.218 136.976C221.25 136.608 221.266 136.224 221.266 135.824C221.266 135.584 221.218 135.36 221.122 135.152C221.026 134.928 220.85 134.728 220.594 134.552C220.338 134.376 219.978 134.232 219.514 134.12C219.066 134.008 218.49 133.952 217.786 133.952V132.704C218.49 132.704 219.066 132.648 219.514 132.536C219.978 132.424 220.338 132.28 220.594 132.104C220.85 131.928 221.026 131.736 221.122 131.528C221.218 131.304 221.266 131.072 221.266 130.832C221.266 130.064 221.226 129.312 221.146 128.576C221.082 127.824 221.05 127.032 221.05 126.2C221.05 125.576 221.138 125.064 221.314 124.664C221.49 124.248 221.762 123.92 222.13 123.68C222.498 123.44 222.962 123.272 223.522 123.176C224.082 123.064 224.738 123.008 225.49 123.008H226.954V124.136H225.706C225.098 124.136 224.594 124.176 224.194 124.256C223.81 124.336 223.506 124.464 223.282 124.64C223.074 124.816 222.93 125.048 222.85 125.336C222.77 125.608 222.73 125.936 222.73 126.32C222.73 127.008 222.754 127.72 222.802 128.456C222.85 129.176 222.874 129.912 222.874 130.664C222.874 131.448 222.714 132.048 222.394 132.464C222.09 132.864 221.522 133.136 220.69 133.28V133.376C221.522 133.52 222.09 133.8 222.394 134.216C222.714 134.616 222.874 135.208 222.874 135.992C222.874 136.808 222.85 137.552 222.802 138.224C222.754 138.896 222.73 139.6 222.73 140.336C222.73 140.72 222.77 141.048 222.85 141.32C222.93 141.608 223.074 141.84 223.282 142.016C223.506 142.192 223.81 142.32 224.194 142.4C224.594 142.48 225.098 142.52 225.706 142.52H226.954V143.648H225.49ZM236.497 140.288C235.953 140.288 235.489 140.104 235.105 139.736C234.737 139.368 234.553 138.88 234.553 138.272C234.553 137.664 234.737 137.176 235.105 136.808C235.489 136.424 235.953 136.232 236.497 136.232C237.041 136.232 237.497 136.424 237.865 136.808C238.249 137.176 238.441 137.664 238.441 138.272C238.441 138.88 238.249 139.368 237.865 139.736C237.497 140.104 237.041 140.288 236.497 140.288ZM250.888 140.288C250.344 140.288 249.88 140.104 249.496 139.736C249.128 139.368 248.944 138.88 248.944 138.272C248.944 137.664 249.128 137.176 249.496 136.808C249.88 136.424 250.344 136.232 250.888 136.232C251.432 136.232 251.888 136.424 252.256 136.808C252.64 137.176 252.832 137.664 252.832 138.272C252.832 138.88 252.64 139.368 252.256 139.736C251.888 140.104 251.432 140.288 250.888 140.288ZM265.278 140.288C264.734 140.288 264.27 140.104 263.886 139.736C263.518 139.368 263.334 138.88 263.334 138.272C263.334 137.664 263.518 137.176 263.886 136.808C264.27 136.424 264.734 136.232 265.278 136.232C265.822 136.232 266.278 136.424 266.646 136.808C267.03 137.176 267.222 137.664 267.222 138.272C267.222 138.88 267.03 139.368 266.646 139.736C266.278 140.104 265.822 140.288 265.278 140.288ZM274.845 143.648V142.52H276.069C276.677 142.52 277.173 142.48 277.557 142.4C277.957 142.32 278.269 142.192 278.493 142.016C278.717 141.84 278.869 141.608 278.949 141.32C279.029 141.048 279.069 140.72 279.069 140.336C279.069 139.6 279.045 138.896 278.997 138.224C278.949 137.552 278.925 136.808 278.925 135.992C278.925 135.208 279.077 134.616 279.381 134.216C279.685 133.8 280.253 133.52 281.085 133.376V133.28C280.253 133.136 279.685 132.864 279.381 132.464C279.077 132.048 278.925 131.448 278.925 130.664C278.925 129.912 278.949 129.176 278.997 128.456C279.045 127.72 279.069 127.008 279.069 126.32C279.069 125.936 279.029 125.608 278.949 125.336C278.869 125.048 278.717 124.816 278.493 124.64C278.269 124.464 277.957 124.336 277.557 124.256C277.173 124.176 276.677 124.136 276.069 124.136H274.845V123.008H276.309C277.061 123.008 277.709 123.064 278.253 123.176C278.813 123.272 279.277 123.44 279.645 123.68C280.013 123.92 280.285 124.248 280.461 124.664C280.637 125.064 280.725 125.576 280.725 126.2C280.725 127.032 280.685 127.824 280.605 128.576C280.541 129.312 280.509 130.064 280.509 130.832C280.509 131.072 280.557 131.304 280.653 131.528C280.749 131.736 280.925 131.928 281.181 132.104C281.437 132.28 281.789 132.424 282.237 132.536C282.701 132.648 283.285 132.704 283.989 132.704V133.952C283.285 133.952 282.701 134.008 282.237 134.12C281.789 134.232 281.437 134.376 281.181 134.552C280.925 134.728 280.749 134.928 280.653 135.152C280.557 135.36 280.509 135.584 280.509 135.824C280.509 136.224 280.517 136.608 280.533 136.976C280.565 137.344 280.589 137.712 280.605 138.08C280.637 138.448 280.661 138.832 280.677 139.232C280.709 139.616 280.725 140.024 280.725 140.456C280.725 141.08 280.637 141.592 280.461 141.992C280.285 142.408 280.013 142.736 279.645 142.976C279.277 143.216 278.813 143.384 278.253 143.48C277.709 143.592 277.061 143.648 276.309 143.648H274.845Z" fill="#4E5769"/>
<path d="M78.2 182.288C77.432 182.288 76.696 182.152 75.992 181.88C75.304 181.608 74.696 181.216 74.168 180.704C73.64 180.176 73.216 179.536 72.896 178.784C72.592 178.016 72.44 177.152 72.44 176.192C72.44 175.216 72.592 174.352 72.896 173.6C73.216 172.832 73.64 172.184 74.168 171.656C74.696 171.128 75.304 170.728 75.992 170.456C76.696 170.184 77.432 170.048 78.2 170.048C78.968 170.048 79.696 170.184 80.384 170.456C81.088 170.728 81.704 171.128 82.232 171.656C82.76 172.184 83.176 172.832 83.48 173.6C83.8 174.352 83.96 175.216 83.96 176.192C83.96 177.152 83.8 178.016 83.48 178.784C83.176 179.536 82.76 180.176 82.232 180.704C81.704 181.216 81.088 181.608 80.384 181.88C79.696 182.152 78.968 182.288 78.2 182.288ZM78.2 180.656C78.76 180.656 79.264 180.552 79.712 180.344C80.176 180.12 80.568 179.816 80.888 179.432C81.224 179.032 81.48 178.56 81.656 178.016C81.832 177.472 81.92 176.864 81.92 176.192C81.92 175.52 81.832 174.912 81.656 174.368C81.48 173.808 81.224 173.328 80.888 172.928C80.568 172.528 80.176 172.224 79.712 172.016C79.264 171.792 78.76 171.68 78.2 171.68C77.64 171.68 77.128 171.792 76.664 172.016C76.216 172.224 75.824 172.528 75.488 172.928C75.168 173.328 74.92 173.808 74.744 174.368C74.568 174.912 74.48 175.52 74.48 176.192C74.48 176.864 74.568 177.472 74.744 178.016C74.92 178.56 75.168 179.032 75.488 179.432C75.824 179.816 76.216 180.12 76.664 180.344C77.128 180.552 77.64 180.656 78.2 180.656ZM87.6226 182V170.336H89.2546L89.4226 172.328H89.5186C90.1266 171.672 90.7826 171.128 91.4866 170.696C92.1906 170.264 92.9986 170.048 93.9106 170.048C95.3026 170.048 96.3186 170.448 96.9586 171.248C97.6146 172.032 97.9426 173.2 97.9426 174.752V182H95.9746V175.016C95.9746 173.912 95.7666 173.096 95.3506 172.568C94.9346 172.024 94.2466 171.752 93.2866 171.752C92.9346 171.752 92.6066 171.8 92.3026 171.896C92.0146 171.976 91.7266 172.104 91.4386 172.28C91.1506 172.456 90.8546 172.68 90.5506 172.952C90.2466 173.208 89.9266 173.512 89.5906 173.864V182H87.6226ZM107.101 182.288C105.949 182.288 104.885 182.08 103.909 181.664C102.949 181.248 102.109 180.68 101.389 179.96L102.589 178.568C103.181 179.16 103.869 179.64 104.653 180.008C105.437 180.36 106.285 180.536 107.197 180.536C108.285 180.536 109.125 180.304 109.717 179.84C110.325 179.376 110.629 178.776 110.629 178.04C110.629 177.624 110.557 177.272 110.413 176.984C110.269 176.696 110.069 176.448 109.813 176.24C109.557 176.032 109.253 175.848 108.901 175.688C108.565 175.528 108.197 175.36 107.797 175.184L105.541 174.2C105.141 174.04 104.741 173.848 104.341 173.624C103.941 173.4 103.573 173.128 103.237 172.808C102.917 172.488 102.653 172.112 102.445 171.68C102.237 171.232 102.133 170.72 102.133 170.144C102.133 169.552 102.261 169 102.517 168.488C102.773 167.976 103.125 167.536 103.573 167.168C104.037 166.784 104.581 166.488 105.205 166.28C105.845 166.072 106.541 165.968 107.293 165.968C108.285 165.968 109.197 166.152 110.029 166.52C110.861 166.872 111.565 167.336 112.141 167.912L111.085 169.208C110.573 168.744 110.005 168.384 109.381 168.128C108.757 167.856 108.037 167.72 107.221 167.72C106.309 167.72 105.573 167.928 105.013 168.344C104.453 168.744 104.173 169.304 104.173 170.024C104.173 170.408 104.253 170.736 104.413 171.008C104.589 171.264 104.805 171.496 105.061 171.704C105.333 171.896 105.637 172.064 105.973 172.208C106.309 172.352 106.645 172.496 106.981 172.64L109.189 173.6C109.669 173.792 110.117 174.016 110.533 174.272C110.965 174.512 111.333 174.8 111.637 175.136C111.957 175.456 112.205 175.84 112.381 176.288C112.573 176.72 112.669 177.224 112.669 177.8C112.669 178.424 112.541 179.008 112.285 179.552C112.029 180.096 111.661 180.576 111.181 180.992C110.701 181.392 110.117 181.712 109.429 181.952C108.741 182.176 107.965 182.288 107.101 182.288ZM120.076 182.288C118.668 182.288 117.636 181.896 116.98 181.112C116.34 180.312 116.02 179.136 116.02 177.584V170.336H118.012V177.32C118.012 178.424 118.212 179.248 118.612 179.792C119.028 180.32 119.724 180.584 120.7 180.584C121.372 180.584 121.98 180.416 122.524 180.08C123.068 179.728 123.668 179.176 124.324 178.424V170.336H126.292V182H124.684L124.516 179.96H124.42C123.828 180.648 123.18 181.208 122.476 181.64C121.788 182.072 120.988 182.288 120.076 182.288ZM136.243 182.288C135.683 182.288 135.075 182.152 134.419 181.88C133.779 181.592 133.179 181.2 132.619 180.704H132.547L132.379 182H130.795V164.912H132.763V169.568L132.691 171.824H132.763C133.291 171.28 133.899 170.848 134.587 170.528C135.291 170.208 135.987 170.048 136.675 170.048C137.459 170.048 138.155 170.192 138.763 170.48C139.371 170.752 139.875 171.152 140.275 171.68C140.691 172.192 141.003 172.816 141.211 173.552C141.419 174.272 141.523 175.08 141.523 175.976C141.523 176.968 141.379 177.856 141.091 178.64C140.803 179.424 140.411 180.088 139.915 180.632C139.435 181.176 138.875 181.592 138.235 181.88C137.595 182.152 136.931 182.288 136.243 182.288ZM135.931 180.632C136.443 180.632 136.915 180.528 137.347 180.32C137.779 180.096 138.155 179.792 138.475 179.408C138.795 179.008 139.043 178.52 139.219 177.944C139.395 177.368 139.483 176.72 139.483 176C139.483 175.36 139.419 174.776 139.291 174.248C139.163 173.72 138.963 173.272 138.691 172.904C138.435 172.52 138.099 172.224 137.683 172.016C137.267 171.808 136.771 171.704 136.195 171.704C135.683 171.704 135.131 171.848 134.539 172.136C133.963 172.408 133.371 172.848 132.763 173.456V179.264C133.323 179.76 133.883 180.112 134.443 180.32C135.019 180.528 135.515 180.632 135.931 180.632ZM144.345 182V170.336H145.929L146.097 171.872H146.145C146.449 171.328 146.801 170.888 147.201 170.552C147.601 170.216 148.137 170.048 148.809 170.048C149.945 170.048 150.681 170.72 151.017 172.064C151.353 171.44 151.721 170.952 152.121 170.6C152.537 170.232 153.081 170.048 153.753 170.048C154.569 170.048 155.201 170.36 155.649 170.984C156.113 171.592 156.345 172.48 156.345 173.648V182H154.377V173.792C154.377 172.432 153.961 171.752 153.129 171.752C152.713 171.752 152.377 171.904 152.121 172.208C151.865 172.496 151.577 172.944 151.257 173.552V182H149.433V173.792C149.433 173.12 149.337 172.616 149.145 172.28C148.969 171.928 148.665 171.752 148.233 171.752C147.817 171.752 147.465 171.904 147.177 172.208C146.889 172.496 146.601 172.944 146.313 173.552V182H144.345ZM164.928 182V171.944H159.504V170.336H166.896V182H164.928ZM165.696 167.888C165.248 167.888 164.872 167.752 164.568 167.48C164.264 167.192 164.112 166.816 164.112 166.352C164.112 165.888 164.264 165.52 164.568 165.248C164.872 164.96 165.248 164.816 165.696 164.816C166.144 164.816 166.52 164.96 166.824 165.248C167.128 165.52 167.28 165.888 167.28 166.352C167.28 166.816 167.128 167.192 166.824 167.48C166.52 167.752 166.144 167.888 165.696 167.888ZM181.19 182.288C180.342 182.288 179.63 182.176 179.054 181.952C178.478 181.712 178.014 181.384 177.662 180.968C177.31 180.536 177.054 180.024 176.894 179.432C176.75 178.84 176.678 178.184 176.678 177.464V171.944H173.39V170.456L176.75 170.336L177.014 166.592H178.646V170.336H184.382V171.944H178.646V177.488C178.646 178.016 178.694 178.48 178.79 178.88C178.886 179.264 179.046 179.592 179.27 179.864C179.494 180.136 179.798 180.344 180.182 180.488C180.566 180.616 181.038 180.68 181.598 180.68C182.158 180.68 182.662 180.632 183.11 180.536C183.558 180.44 183.99 180.312 184.406 180.152L184.838 181.592C184.31 181.784 183.75 181.944 183.158 182.072C182.582 182.216 181.926 182.288 181.19 182.288ZM196.517 186.224C194.853 184.928 193.533 183.368 192.557 181.544C191.597 179.72 191.117 177.648 191.117 175.328C191.117 173.008 191.597 170.936 192.557 169.112C193.533 167.288 194.853 165.728 196.517 164.432L197.597 165.44C195.981 166.8 194.789 168.28 194.021 169.88C193.269 171.48 192.893 173.296 192.893 175.328C192.893 177.36 193.269 179.176 194.021 180.776C194.789 182.376 195.981 183.856 197.597 185.216L196.517 186.224ZM204.524 186.224L203.444 185.216C205.06 183.856 206.244 182.376 206.996 180.776C207.764 179.176 208.148 177.36 208.148 175.328C208.148 173.296 207.764 171.48 206.996 169.88C206.244 168.28 205.06 166.8 203.444 165.44L204.524 164.432C206.188 165.728 207.5 167.288 208.46 169.112C209.436 170.936 209.924 173.008 209.924 175.328C209.924 177.648 209.436 179.72 208.46 181.544C207.5 183.368 206.188 184.928 204.524 186.224ZM239.881 185.648C239.129 185.648 238.473 185.592 237.913 185.48C237.353 185.384 236.889 185.216 236.521 184.976C236.153 184.736 235.881 184.408 235.705 183.992C235.529 183.592 235.441 183.08 235.441 182.456C235.441 182.024 235.449 181.616 235.465 181.232C235.497 180.832 235.521 180.448 235.537 180.08C235.569 179.712 235.593 179.344 235.609 178.976C235.641 178.608 235.657 178.224 235.657 177.824C235.657 177.584 235.609 177.36 235.513 177.152C235.417 176.928 235.241 176.728 234.985 176.552C234.729 176.376 234.369 176.232 233.905 176.12C233.457 176.008 232.881 175.952 232.177 175.952V174.704C232.881 174.704 233.457 174.648 233.905 174.536C234.369 174.424 234.729 174.28 234.985 174.104C235.241 173.928 235.417 173.736 235.513 173.528C235.609 173.304 235.657 173.072 235.657 172.832C235.657 172.064 235.617 171.312 235.537 170.576C235.473 169.824 235.441 169.032 235.441 168.2C235.441 167.576 235.529 167.064 235.705 166.664C235.881 166.248 236.153 165.92 236.521 165.68C236.889 165.44 237.353 165.272 237.913 165.176C238.473 165.064 239.129 165.008 239.881 165.008H241.345V166.136H240.097C239.489 166.136 238.985 166.176 238.585 166.256C238.201 166.336 237.897 166.464 237.673 166.64C237.465 166.816 237.321 167.048 237.241 167.336C237.161 167.608 237.121 167.936 237.121 168.32C237.121 169.008 237.145 169.72 237.193 170.456C237.241 171.176 237.265 171.912 237.265 172.664C237.265 173.448 237.105 174.048 236.785 174.464C236.481 174.864 235.913 175.136 235.081 175.28V175.376C235.913 175.52 236.481 175.8 236.785 176.216C237.105 176.616 237.265 177.208 237.265 177.992C237.265 178.808 237.241 179.552 237.193 180.224C237.145 180.896 237.121 181.6 237.121 182.336C237.121 182.72 237.161 183.048 237.241 183.32C237.321 183.608 237.465 183.84 237.673 184.016C237.897 184.192 238.201 184.32 238.585 184.4C238.985 184.48 239.489 184.52 240.097 184.52H241.345V185.648H239.881ZM250.888 182.288C250.344 182.288 249.88 182.104 249.496 181.736C249.128 181.368 248.944 180.88 248.944 180.272C248.944 179.664 249.128 179.176 249.496 178.808C249.88 178.424 250.344 178.232 250.888 178.232C251.432 178.232 251.888 178.424 252.256 178.808C252.64 179.176 252.832 179.664 252.832 180.272C252.832 180.88 252.64 181.368 252.256 181.736C251.888 182.104 251.432 182.288 250.888 182.288ZM265.278 182.288C264.734 182.288 264.27 182.104 263.886 181.736C263.518 181.368 263.334 180.88 263.334 180.272C263.334 179.664 263.518 179.176 263.886 178.808C264.27 178.424 264.734 178.232 265.278 178.232C265.822 178.232 266.278 178.424 266.646 178.808C267.03 179.176 267.222 179.664 267.222 180.272C267.222 180.88 267.03 181.368 266.646 181.736C266.278 182.104 265.822 182.288 265.278 182.288ZM279.669 182.288C279.125 182.288 278.661 182.104 278.277 181.736C277.909 181.368 277.725 180.88 277.725 180.272C277.725 179.664 277.909 179.176 278.277 178.808C278.661 178.424 279.125 178.232 279.669 178.232C280.213 178.232 280.669 178.424 281.037 178.808C281.421 179.176 281.613 179.664 281.613 180.272C281.613 180.88 281.421 181.368 281.037 181.736C280.669 182.104 280.213 182.288 279.669 182.288ZM289.235 185.648V184.52H290.459C291.067 184.52 291.563 184.48 291.947 184.4C292.347 184.32 292.659 184.192 292.883 184.016C293.107 183.84 293.259 183.608 293.339 183.32C293.419 183.048 293.459 182.72 293.459 182.336C293.459 181.6 293.435 180.896 293.387 180.224C293.339 179.552 293.315 178.808 293.315 177.992C293.315 177.208 293.467 176.616 293.771 176.216C294.075 175.8 294.643 175.52 295.475 175.376V175.28C294.643 175.136 294.075 174.864 293.771 174.464C293.467 174.048 293.315 173.448 293.315 172.664C293.315 171.912 293.339 171.176 293.387 170.456C293.435 169.72 293.459 169.008 293.459 168.32C293.459 167.936 293.419 167.608 293.339 167.336C293.259 167.048 293.107 166.816 292.883 166.64C292.659 166.464 292.347 166.336 291.947 166.256C291.563 166.176 291.067 166.136 290.459 166.136H289.235V165.008H290.699C291.451 165.008 292.099 165.064 292.643 165.176C293.203 165.272 293.667 165.44 294.035 165.68C294.403 165.92 294.675 166.248 294.851 166.664C295.027 167.064 295.115 167.576 295.115 168.2C295.115 169.032 295.075 169.824 294.995 170.576C294.931 171.312 294.899 172.064 294.899 172.832C294.899 173.072 294.947 173.304 295.043 173.528C295.139 173.736 295.315 173.928 295.571 174.104C295.827 174.28 296.179 174.424 296.627 174.536C297.091 174.648 297.675 174.704 298.379 174.704V175.952C297.675 175.952 297.091 176.008 296.627 176.12C296.179 176.232 295.827 176.376 295.571 176.552C295.315 176.728 295.139 176.928 295.043 177.152C294.947 177.36 294.899 177.584 294.899 177.824C294.899 178.224 294.907 178.608 294.923 178.976C294.955 179.344 294.979 179.712 294.995 180.08C295.027 180.448 295.051 180.832 295.067 181.232C295.099 181.616 295.115 182.024 295.115 182.456C295.115 183.08 295.027 183.592 294.851 183.992C294.675 184.408 294.403 184.736 294.035 184.976C293.667 185.216 293.203 185.384 292.643 185.48C292.099 185.592 291.451 185.648 290.699 185.648H289.235Z" fill="#4E5769"/>
<rect x="31" y="34" width="368" height="278" rx="6" stroke="#2C749E" stroke-linejoin="bevel"/>
</svg>
