<svg width="430" height="312" viewBox="0 0 430 312" fill="none" xmlns="http://www.w3.org/2000/svg">
<rect x="31" y="33" width="368" height="277" rx="6" fill="#23252F"/>
<rect x="51" y="53" width="328" height="238" rx="6" fill="#E7E9FB"/>
<path d="M82.832 95.848L73.88 89.776V88.288L82.832 82.216V84.112L75.608 88.984V89.08L82.832 93.952V95.848ZM91.8946 97.288C91.1266 97.288 90.4306 97.152 89.8066 96.88C89.1986 96.608 88.6706 96.216 88.2226 95.704C87.7746 95.176 87.4306 94.536 87.1906 93.784C86.9506 93.032 86.8306 92.168 86.8306 91.192C86.8306 90.248 86.9746 89.4 87.2626 88.648C87.5666 87.88 87.9586 87.232 88.4386 86.704C88.9346 86.176 89.5026 85.768 90.1426 85.48C90.7826 85.192 91.4466 85.048 92.1346 85.048C92.8386 85.048 93.4626 85.184 94.0066 85.456C94.5666 85.712 95.1026 86.08 95.6146 86.56H95.6866L95.5906 84.4V79.912H97.5586V97H95.9266L95.7586 95.464H95.6866C95.2066 95.96 94.6306 96.392 93.9586 96.76C93.3026 97.112 92.6146 97.288 91.8946 97.288ZM92.3026 95.632C93.4546 95.632 94.5506 95.048 95.5906 93.88V88.072C95.0626 87.576 94.5426 87.224 94.0306 87.016C93.5346 86.808 93.0306 86.704 92.5186 86.704C92.0066 86.704 91.5266 86.816 91.0786 87.04C90.6466 87.248 90.2626 87.552 89.9266 87.952C89.6066 88.336 89.3506 88.8 89.1586 89.344C88.9666 89.888 88.8706 90.496 88.8706 91.168C88.8706 92.576 89.1666 93.672 89.7586 94.456C90.3666 95.24 91.2146 95.632 92.3026 95.632ZM107.365 97V86.944H101.941V85.336H109.333V97H107.365ZM108.133 82.888C107.685 82.888 107.309 82.752 107.005 82.48C106.701 82.192 106.549 81.816 106.549 81.352C106.549 80.888 106.701 80.52 107.005 80.248C107.309 79.96 107.685 79.816 108.133 79.816C108.581 79.816 108.957 79.96 109.261 80.248C109.565 80.52 109.717 80.888 109.717 81.352C109.717 81.816 109.565 82.192 109.261 82.48C108.957 82.752 108.581 82.888 108.133 82.888ZM120.316 97L115.396 85.336H117.388L120.076 91.96C120.316 92.552 120.54 93.136 120.748 93.712C120.972 94.272 121.188 94.832 121.396 95.392H121.492C121.7 94.832 121.9 94.272 122.092 93.712C122.3 93.136 122.524 92.552 122.764 91.96L125.452 85.336H127.348L122.524 97H120.316ZM131.131 95.848V93.952L138.355 89.08V88.984L131.131 84.112V82.216L140.083 88.288V89.776L131.131 95.848Z" fill="#4E5769"/>
<path d="M111.613 137.848L102.661 131.776V130.288L111.613 124.216V126.112L104.389 130.984V131.08L111.613 135.952V137.848ZM116.404 143.92V127.336H118.036L118.204 128.824H118.276C118.82 128.312 119.444 127.888 120.148 127.552C120.868 127.216 121.588 127.048 122.308 127.048C123.092 127.048 123.78 127.192 124.372 127.48C124.98 127.752 125.484 128.152 125.884 128.68C126.3 129.192 126.612 129.816 126.82 130.552C127.028 131.272 127.132 132.088 127.132 133C127.132 133.992 126.988 134.88 126.7 135.664C126.412 136.432 126.02 137.088 125.524 137.632C125.044 138.176 124.484 138.592 123.844 138.88C123.204 139.152 122.532 139.288 121.828 139.288C121.284 139.288 120.692 139.16 120.052 138.904C119.428 138.632 118.86 138.256 118.348 137.776H118.276L118.372 139.984V143.92H116.404ZM121.492 137.632C122.548 137.632 123.412 137.224 124.084 136.408C124.756 135.592 125.092 134.456 125.092 133C125.092 132.36 125.028 131.776 124.9 131.248C124.772 130.72 124.572 130.272 124.3 129.904C124.044 129.52 123.708 129.224 123.292 129.016C122.876 128.808 122.38 128.704 121.804 128.704C121.292 128.704 120.74 128.848 120.148 129.136C119.572 129.408 118.98 129.848 118.372 130.456V136.264C118.932 136.76 119.492 137.112 120.052 137.32C120.612 137.528 121.092 137.632 121.492 137.632ZM131.131 137.848V135.952L138.355 131.08V130.984L131.131 126.112V124.216L140.083 130.288V131.776L131.131 137.848ZM154.785 137.848L145.833 131.776V130.288L154.785 124.216V126.112L147.561 130.984V131.08L154.785 135.952V137.848ZM159.72 142.84L167.592 121.96H169.368L161.496 142.84H159.72ZM173.966 143.92V127.336H175.598L175.766 128.824H175.838C176.382 128.312 177.006 127.888 177.71 127.552C178.43 127.216 179.15 127.048 179.87 127.048C180.654 127.048 181.342 127.192 181.934 127.48C182.542 127.752 183.046 128.152 183.446 128.68C183.862 129.192 184.174 129.816 184.382 130.552C184.59 131.272 184.694 132.088 184.694 133C184.694 133.992 184.55 134.88 184.262 135.664C183.974 136.432 183.582 137.088 183.086 137.632C182.606 138.176 182.046 138.592 181.406 138.88C180.766 139.152 180.094 139.288 179.39 139.288C178.846 139.288 178.254 139.16 177.614 138.904C176.99 138.632 176.422 138.256 175.91 137.776H175.838L175.934 139.984V143.92H173.966ZM179.054 137.632C180.11 137.632 180.974 137.224 181.646 136.408C182.318 135.592 182.654 134.456 182.654 133C182.654 132.36 182.59 131.776 182.462 131.248C182.334 130.72 182.134 130.272 181.862 129.904C181.606 129.52 181.27 129.224 180.854 129.016C180.438 128.808 179.942 128.704 179.366 128.704C178.854 128.704 178.302 128.848 177.71 129.136C177.134 129.408 176.542 129.848 175.934 130.456V136.264C176.494 136.76 177.054 137.112 177.614 137.32C178.174 137.528 178.654 137.632 179.054 137.632ZM188.693 137.848V135.952L195.917 131.08V130.984L188.693 126.112V124.216L197.645 130.288V131.776L188.693 137.848Z" fill="#4E5769"/>
<path d="M111.613 179.848L102.661 173.776V172.288L111.613 166.216V168.112L104.389 172.984V173.08L111.613 177.952V179.848ZM119.98 181V170.944H116.644V169.456L119.98 169.336V168.352C119.98 166.928 120.356 165.784 121.108 164.92C121.876 164.056 123.068 163.624 124.684 163.624C125.836 163.624 126.956 163.848 128.044 164.296L127.588 165.784C127.108 165.56 126.66 165.416 126.244 165.352C125.844 165.272 125.388 165.232 124.876 165.232C123.82 165.232 123.06 165.504 122.596 166.048C122.148 166.576 121.924 167.32 121.924 168.28V169.336H126.82V170.944H121.924V181H119.98ZM135.763 181.288C134.995 181.288 134.259 181.152 133.555 180.88C132.867 180.608 132.259 180.216 131.73 179.704C131.203 179.176 130.779 178.536 130.459 177.784C130.155 177.016 130.003 176.152 130.003 175.192C130.003 174.216 130.155 173.352 130.459 172.6C130.779 171.832 131.203 171.184 131.73 170.656C132.259 170.128 132.867 169.728 133.555 169.456C134.259 169.184 134.995 169.048 135.763 169.048C136.531 169.048 137.259 169.184 137.947 169.456C138.651 169.728 139.267 170.128 139.795 170.656C140.323 171.184 140.739 171.832 141.043 172.6C141.363 173.352 141.523 174.216 141.523 175.192C141.523 176.152 141.363 177.016 141.043 177.784C140.739 178.536 140.323 179.176 139.795 179.704C139.267 180.216 138.651 180.608 137.947 180.88C137.259 181.152 136.531 181.288 135.763 181.288ZM135.763 179.656C136.323 179.656 136.827 179.552 137.275 179.344C137.739 179.12 138.131 178.816 138.451 178.432C138.787 178.032 139.043 177.56 139.219 177.016C139.395 176.472 139.483 175.864 139.483 175.192C139.483 174.52 139.395 173.912 139.219 173.368C139.043 172.808 138.787 172.328 138.451 171.928C138.131 171.528 137.739 171.224 137.275 171.016C136.827 170.792 136.323 170.68 135.763 170.68C135.203 170.68 134.691 170.792 134.227 171.016C133.779 171.224 133.387 171.528 133.051 171.928C132.731 172.328 132.483 172.808 132.307 173.368C132.131 173.912 132.043 174.52 132.043 175.192C132.043 175.864 132.131 176.472 132.307 177.016C132.483 177.56 132.731 178.032 133.051 178.432C133.387 178.816 133.779 179.12 134.227 179.344C134.691 179.552 135.203 179.656 135.763 179.656ZM146.457 181V169.336H148.089L148.257 172.096H148.329C148.937 171.152 149.681 170.408 150.561 169.864C151.457 169.32 152.449 169.048 153.537 169.048C153.969 169.048 154.369 169.088 154.737 169.168C155.105 169.232 155.473 169.352 155.841 169.528L155.385 171.232C154.969 171.088 154.617 170.984 154.329 170.92C154.057 170.856 153.689 170.824 153.225 170.824C152.345 170.824 151.497 171.08 150.681 171.592C149.881 172.088 149.129 172.944 148.425 174.16V181H146.457ZM158.736 181V169.336H160.32L160.488 170.872H160.536C160.84 170.328 161.192 169.888 161.592 169.552C161.992 169.216 162.528 169.048 163.2 169.048C164.336 169.048 165.072 169.72 165.408 171.064C165.744 170.44 166.112 169.952 166.512 169.6C166.928 169.232 167.472 169.048 168.144 169.048C168.96 169.048 169.592 169.36 170.04 169.984C170.504 170.592 170.736 171.48 170.736 172.648V181H168.768V172.792C168.768 171.432 168.352 170.752 167.52 170.752C167.104 170.752 166.768 170.904 166.512 171.208C166.256 171.496 165.968 171.944 165.648 172.552V181H163.824V172.792C163.824 172.12 163.728 171.616 163.536 171.28C163.36 170.928 163.056 170.752 162.624 170.752C162.208 170.752 161.856 170.904 161.568 171.208C161.28 171.496 160.992 171.944 160.704 172.552V181H158.736ZM174.302 179.848V177.952L181.526 173.08V172.984L174.302 168.112V166.216L183.254 172.288V173.776L174.302 179.848Z" fill="#4E5769"/>
<path d="M111.613 221.848L102.661 215.776V214.288L111.613 208.216V210.112L104.389 214.984V215.08L111.613 219.952V221.848ZM116.548 226.84L124.42 205.96H126.196L118.324 226.84H116.548ZM134.371 223V212.944H131.035V211.456L134.371 211.336V210.352C134.371 208.928 134.747 207.784 135.499 206.92C136.267 206.056 137.459 205.624 139.075 205.624C140.227 205.624 141.347 205.848 142.435 206.296L141.979 207.784C141.499 207.56 141.051 207.416 140.635 207.352C140.235 207.272 139.779 207.232 139.267 207.232C138.211 207.232 137.451 207.504 136.987 208.048C136.539 208.576 136.315 209.32 136.315 210.28V211.336H141.211V212.944H136.315V223H134.371ZM150.153 223.288C149.385 223.288 148.649 223.152 147.945 222.88C147.257 222.608 146.649 222.216 146.121 221.704C145.593 221.176 145.169 220.536 144.849 219.784C144.545 219.016 144.393 218.152 144.393 217.192C144.393 216.216 144.545 215.352 144.849 214.6C145.169 213.832 145.593 213.184 146.121 212.656C146.649 212.128 147.257 211.728 147.945 211.456C148.649 211.184 149.385 211.048 150.153 211.048C150.921 211.048 151.649 211.184 152.337 211.456C153.041 211.728 153.657 212.128 154.185 212.656C154.713 213.184 155.129 213.832 155.433 214.6C155.753 215.352 155.913 216.216 155.913 217.192C155.913 218.152 155.753 219.016 155.433 219.784C155.129 220.536 154.713 221.176 154.185 221.704C153.657 222.216 153.041 222.608 152.337 222.88C151.649 223.152 150.921 223.288 150.153 223.288ZM150.153 221.656C150.713 221.656 151.217 221.552 151.665 221.344C152.129 221.12 152.521 220.816 152.841 220.432C153.177 220.032 153.433 219.56 153.609 219.016C153.785 218.472 153.873 217.864 153.873 217.192C153.873 216.52 153.785 215.912 153.609 215.368C153.433 214.808 153.177 214.328 152.841 213.928C152.521 213.528 152.129 213.224 151.665 213.016C151.217 212.792 150.713 212.68 150.153 212.68C149.593 212.68 149.081 212.792 148.617 213.016C148.169 213.224 147.777 213.528 147.441 213.928C147.121 214.328 146.873 214.808 146.697 215.368C146.521 215.912 146.433 216.52 146.433 217.192C146.433 217.864 146.521 218.472 146.697 219.016C146.873 219.56 147.121 220.032 147.441 220.432C147.777 220.816 148.169 221.12 148.617 221.344C149.081 221.552 149.593 221.656 150.153 221.656ZM160.848 223V211.336H162.48L162.648 214.096H162.72C163.328 213.152 164.072 212.408 164.952 211.864C165.848 211.32 166.84 211.048 167.928 211.048C168.36 211.048 168.76 211.088 169.128 211.168C169.496 211.232 169.864 211.352 170.232 211.528L169.776 213.232C169.36 213.088 169.008 212.984 168.72 212.92C168.448 212.856 168.08 212.824 167.616 212.824C166.736 212.824 165.888 213.08 165.072 213.592C164.272 214.088 163.52 214.944 162.816 216.16V223H160.848ZM173.126 223V211.336H174.71L174.878 212.872H174.926C175.23 212.328 175.582 211.888 175.982 211.552C176.382 211.216 176.918 211.048 177.59 211.048C178.726 211.048 179.462 211.72 179.798 213.064C180.134 212.44 180.502 211.952 180.902 211.6C181.318 211.232 181.862 211.048 182.534 211.048C183.35 211.048 183.982 211.36 184.43 211.984C184.894 212.592 185.126 213.48 185.126 214.648V223H183.158V214.792C183.158 213.432 182.742 212.752 181.91 212.752C181.494 212.752 181.158 212.904 180.902 213.208C180.646 213.496 180.358 213.944 180.038 214.552V223H178.214V214.792C178.214 214.12 178.118 213.616 177.926 213.28C177.75 212.928 177.446 212.752 177.014 212.752C176.598 212.752 176.246 212.904 175.958 213.208C175.67 213.496 175.382 213.944 175.094 214.552V223H173.126ZM188.693 221.848V219.952L195.917 215.08V214.984L188.693 210.112V208.216L197.645 214.288V215.776L188.693 221.848Z" fill="#4E5769"/>
<path d="M82.832 263.848L73.88 257.776V256.288L82.832 250.216V252.112L75.608 256.984V257.08L82.832 261.952V263.848ZM87.7666 268.84L95.6386 247.96H97.4146L89.5426 268.84H87.7666ZM106.285 265.288C105.517 265.288 104.821 265.152 104.197 264.88C103.589 264.608 103.061 264.216 102.613 263.704C102.165 263.176 101.821 262.536 101.581 261.784C101.341 261.032 101.221 260.168 101.221 259.192C101.221 258.248 101.365 257.4 101.653 256.648C101.957 255.88 102.349 255.232 102.829 254.704C103.325 254.176 103.893 253.768 104.533 253.48C105.173 253.192 105.837 253.048 106.525 253.048C107.229 253.048 107.853 253.184 108.397 253.456C108.957 253.712 109.493 254.08 110.005 254.56H110.077L109.981 252.4V247.912H111.949V265H110.317L110.149 263.464H110.077C109.597 263.96 109.021 264.392 108.349 264.76C107.693 265.112 107.005 265.288 106.285 265.288ZM106.693 263.632C107.845 263.632 108.941 263.048 109.981 261.88V256.072C109.453 255.576 108.933 255.224 108.421 255.016C107.925 254.808 107.421 254.704 106.909 254.704C106.397 254.704 105.917 254.816 105.469 255.04C105.037 255.248 104.653 255.552 104.317 255.952C103.997 256.336 103.741 256.8 103.549 257.344C103.357 257.888 103.261 258.496 103.261 259.168C103.261 260.576 103.557 261.672 104.149 262.456C104.757 263.24 105.605 263.632 106.693 263.632ZM121.756 265V254.944H116.332V253.336H123.724V265H121.756ZM122.524 250.888C122.076 250.888 121.7 250.752 121.396 250.48C121.092 250.192 120.94 249.816 120.94 249.352C120.94 248.888 121.092 248.52 121.396 248.248C121.7 247.96 122.076 247.816 122.524 247.816C122.972 247.816 123.348 247.96 123.652 248.248C123.956 248.52 124.108 248.888 124.108 249.352C124.108 249.816 123.956 250.192 123.652 250.48C123.348 250.752 122.972 250.888 122.524 250.888ZM134.707 265L129.787 253.336H131.779L134.467 259.96C134.707 260.552 134.931 261.136 135.139 261.712C135.363 262.272 135.579 262.832 135.787 263.392H135.883C136.091 262.832 136.291 262.272 136.483 261.712C136.691 261.136 136.915 260.552 137.155 259.96L139.843 253.336H141.739L136.915 265H134.707ZM145.521 263.848V261.952L152.745 257.08V256.984L145.521 252.112V250.216L154.473 256.288V257.776L145.521 263.848Z" fill="#4E5769"/>
<rect x="31" y="33" width="368" height="277" rx="6" stroke="white" stroke-linejoin="bevel"/>
</svg>
