<svg width="430" height="437" viewBox="0 0 430 437" fill="none" xmlns="http://www.w3.org/2000/svg">
<rect x="31" y="43.9594" width="368" height="391" rx="6" fill="#23252F"/>
<rect x="51" y="63.9594" width="328" height="86" rx="6" fill="#FDE7C7"/>
<path d="M78.32 97.2474C77.168 97.2474 76.104 97.0394 75.128 96.6234C74.168 96.2074 73.328 95.6394 72.608 94.9194L73.808 93.5274C74.4 94.1194 75.088 94.5994 75.872 94.9674C76.656 95.3194 77.504 95.4954 78.416 95.4954C79.504 95.4954 80.344 95.2634 80.936 94.7994C81.544 94.3354 81.848 93.7354 81.848 92.9994C81.848 92.5834 81.776 92.2314 81.632 91.9434C81.488 91.6554 81.288 91.4074 81.032 91.1994C80.776 90.9914 80.472 90.8074 80.12 90.6474C79.784 90.4874 79.416 90.3194 79.016 90.1434L76.76 89.1594C76.36 88.9994 75.96 88.8074 75.56 88.5834C75.16 88.3594 74.792 88.0874 74.456 87.7674C74.136 87.4474 73.872 87.0714 73.664 86.6394C73.456 86.1913 73.352 85.6793 73.352 85.1034C73.352 84.5114 73.48 83.9594 73.736 83.4474C73.992 82.9353 74.344 82.4953 74.792 82.1273C75.256 81.7434 75.8 81.4474 76.424 81.2393C77.064 81.0313 77.76 80.9273 78.512 80.9273C79.504 80.9273 80.416 81.1113 81.248 81.4793C82.08 81.8313 82.784 82.2954 83.36 82.8714L82.304 84.1673C81.792 83.7033 81.224 83.3433 80.6 83.0874C79.976 82.8154 79.256 82.6793 78.44 82.6793C77.528 82.6793 76.792 82.8874 76.232 83.3034C75.672 83.7034 75.392 84.2634 75.392 84.9834C75.392 85.3674 75.472 85.6953 75.632 85.9673C75.808 86.2233 76.024 86.4553 76.28 86.6634C76.552 86.8554 76.856 87.0234 77.192 87.1674C77.528 87.3114 77.864 87.4554 78.2 87.5994L80.408 88.5594C80.888 88.7513 81.336 88.9753 81.752 89.2313C82.184 89.4714 82.552 89.7594 82.856 90.0954C83.176 90.4154 83.424 90.7994 83.6 91.2474C83.792 91.6794 83.888 92.1834 83.888 92.7594C83.888 93.3834 83.76 93.9674 83.504 94.5114C83.248 95.0554 82.88 95.5354 82.4 95.9514C81.92 96.3514 81.336 96.6714 80.648 96.9114C79.96 97.1354 79.184 97.2474 78.32 97.2474ZM92.9746 96.9594V86.9033H87.5506V85.2953H94.9426V96.9594H92.9746ZM93.7426 82.8474C93.2946 82.8474 92.9186 82.7114 92.6146 82.4394C92.3106 82.1514 92.1586 81.7754 92.1586 81.3114C92.1586 80.8473 92.3106 80.4793 92.6146 80.2074C92.9186 79.9194 93.2946 79.7754 93.7426 79.7754C94.1906 79.7754 94.5666 79.9194 94.8706 80.2074C95.1746 80.4793 95.3266 80.8473 95.3266 81.3114C95.3266 81.7754 95.1746 82.1514 94.8706 82.4394C94.5666 82.7114 94.1906 82.8474 93.7426 82.8474ZM106.285 97.2474C105.517 97.2474 104.821 97.1114 104.197 96.8394C103.589 96.5674 103.061 96.1754 102.613 95.6634C102.165 95.1354 101.821 94.4954 101.581 93.7434C101.341 92.9914 101.221 92.1274 101.221 91.1514C101.221 90.2074 101.365 89.3593 101.653 88.6074C101.957 87.8393 102.349 87.1913 102.829 86.6634C103.325 86.1354 103.893 85.7274 104.533 85.4394C105.173 85.1514 105.837 85.0073 106.525 85.0073C107.229 85.0073 107.853 85.1433 108.397 85.4153C108.957 85.6713 109.493 86.0393 110.005 86.5193H110.077L109.981 84.3593V79.8714H111.949V96.9594H110.317L110.149 95.4234H110.077C109.597 95.9194 109.021 96.3514 108.349 96.7194C107.693 97.0714 107.005 97.2474 106.285 97.2474ZM106.693 95.5914C107.845 95.5914 108.941 95.0074 109.981 93.8394V88.0314C109.453 87.5354 108.933 87.1834 108.421 86.9754C107.925 86.7674 107.421 86.6634 106.909 86.6634C106.397 86.6634 105.917 86.7754 105.469 86.9994C105.037 87.2074 104.653 87.5114 104.317 87.9114C103.997 88.2954 103.741 88.7594 103.549 89.3034C103.357 89.8474 103.261 90.4554 103.261 91.1274C103.261 92.5354 103.557 93.6314 104.149 94.4154C104.757 95.1994 105.605 95.5914 106.693 95.5914ZM122.092 97.2474C121.212 97.2474 120.388 97.1114 119.62 96.8394C118.868 96.5674 118.204 96.1674 117.628 95.6394C117.068 95.1114 116.62 94.4714 116.284 93.7194C115.964 92.9514 115.804 92.0794 115.804 91.1034C115.804 90.1594 115.964 89.3114 116.284 88.5594C116.62 87.8074 117.06 87.1674 117.604 86.6394C118.164 86.1114 118.796 85.7113 119.5 85.4394C120.22 85.1514 120.972 85.0073 121.756 85.0073C122.588 85.0073 123.332 85.1433 123.988 85.4153C124.66 85.6713 125.22 86.0393 125.668 86.5193C126.132 86.9993 126.484 87.5754 126.724 88.2474C126.964 88.9194 127.084 89.6634 127.084 90.4794C127.084 90.7034 127.076 90.9194 127.06 91.1274C127.044 91.3354 127.02 91.5194 126.988 91.6794H117.796C117.924 93.0074 118.404 94.0074 119.236 94.6794C120.084 95.3354 121.116 95.6634 122.332 95.6634C123.036 95.6634 123.668 95.5674 124.228 95.3754C124.804 95.1674 125.356 94.8954 125.884 94.5594L126.604 95.8554C126.028 96.2394 125.364 96.5674 124.612 96.8394C123.876 97.1114 123.036 97.2474 122.092 97.2474ZM121.804 86.5673C121.324 86.5673 120.86 86.6474 120.412 86.8074C119.98 86.9674 119.588 87.1994 119.236 87.5034C118.884 87.7914 118.588 88.1594 118.348 88.6074C118.108 89.0554 117.94 89.5674 117.844 90.1434H125.284C125.204 88.9434 124.852 88.0473 124.228 87.4553C123.62 86.8633 122.812 86.5673 121.804 86.5673ZM136.243 97.2474C135.683 97.2474 135.075 97.1114 134.419 96.8394C133.779 96.5514 133.179 96.1594 132.619 95.6634H132.547L132.379 96.9594H130.795V79.8714H132.763V84.5274L132.691 86.7833H132.763C133.291 86.2393 133.899 85.8073 134.587 85.4874C135.291 85.1674 135.987 85.0073 136.675 85.0073C137.459 85.0073 138.155 85.1514 138.763 85.4394C139.371 85.7113 139.875 86.1114 140.275 86.6394C140.691 87.1514 141.003 87.7753 141.211 88.5113C141.419 89.2314 141.523 90.0394 141.523 90.9354C141.523 91.9274 141.379 92.8154 141.091 93.5994C140.803 94.3834 140.411 95.0474 139.915 95.5914C139.435 96.1354 138.875 96.5514 138.235 96.8394C137.595 97.1114 136.931 97.2474 136.243 97.2474ZM135.931 95.5914C136.443 95.5914 136.915 95.4874 137.347 95.2794C137.779 95.0554 138.155 94.7514 138.475 94.3674C138.795 93.9674 139.043 93.4794 139.219 92.9034C139.395 92.3274 139.483 91.6794 139.483 90.9594C139.483 90.3194 139.419 89.7354 139.291 89.2074C139.163 88.6794 138.963 88.2314 138.691 87.8634C138.435 87.4794 138.099 87.1834 137.683 86.9754C137.267 86.7674 136.771 86.6634 136.195 86.6634C135.683 86.6634 135.131 86.8074 134.539 87.0954C133.963 87.3674 133.371 87.8074 132.763 88.4154V94.2234C133.323 94.7194 133.883 95.0714 134.443 95.2794C135.019 95.4874 135.515 95.5914 135.931 95.5914ZM148.857 97.2474C148.313 97.2474 147.801 97.1674 147.321 97.0074C146.841 96.8634 146.417 96.6554 146.049 96.3834C145.697 96.0954 145.417 95.7514 145.209 95.3514C145.001 94.9354 144.897 94.4634 144.897 93.9354C144.897 93.2794 145.049 92.7114 145.353 92.2314C145.673 91.7354 146.169 91.3114 146.841 90.9594C147.529 90.6074 148.409 90.3194 149.481 90.0954C150.553 89.8714 151.841 89.6954 153.345 89.5673C153.329 89.1674 153.265 88.7914 153.153 88.4394C153.041 88.0874 152.865 87.7834 152.625 87.5274C152.385 87.2554 152.065 87.0394 151.665 86.8794C151.281 86.7194 150.809 86.6394 150.249 86.6394C149.481 86.6394 148.745 86.7914 148.041 87.0954C147.337 87.3834 146.713 87.6954 146.169 88.0314L145.401 86.6873C145.689 86.4953 146.025 86.3033 146.409 86.1114C146.809 85.9033 147.225 85.7193 147.657 85.5594C148.105 85.3994 148.577 85.2714 149.073 85.1753C149.569 85.0633 150.073 85.0073 150.585 85.0073C152.185 85.0073 153.369 85.4474 154.137 86.3274C154.921 87.1913 155.313 88.3514 155.313 89.8074V96.9594H153.705L153.537 95.3754H153.465C152.809 95.8874 152.081 96.3274 151.281 96.6954C150.497 97.0634 149.689 97.2474 148.857 97.2474ZM149.385 95.6634C150.057 95.6634 150.713 95.5194 151.353 95.2314C152.009 94.9274 152.673 94.4954 153.345 93.9354V90.8634C152.097 90.9594 151.049 91.0954 150.201 91.2714C149.369 91.4474 148.697 91.6634 148.185 91.9194C147.689 92.1594 147.337 92.4394 147.129 92.7594C146.921 93.0634 146.817 93.4074 146.817 93.7914C146.817 94.1274 146.889 94.4154 147.033 94.6554C147.177 94.8794 147.361 95.0714 147.585 95.2314C147.825 95.3754 148.097 95.4874 148.401 95.5674C148.721 95.6314 149.049 95.6634 149.385 95.6634ZM160.848 96.9594V85.2953H162.48L162.648 88.0554H162.72C163.328 87.1114 164.072 86.3674 164.952 85.8234C165.848 85.2794 166.84 85.0073 167.928 85.0073C168.36 85.0073 168.76 85.0473 169.128 85.1273C169.496 85.1913 169.864 85.3114 170.232 85.4874L169.776 87.1914C169.36 87.0474 169.008 86.9434 168.72 86.8794C168.448 86.8154 168.08 86.7833 167.616 86.7833C166.736 86.7833 165.888 87.0394 165.072 87.5514C164.272 88.0473 163.52 88.9033 162.816 90.1193V96.9594H160.848ZM182.126 101.183C180.462 99.8874 179.142 98.3274 178.166 96.5034C177.206 94.6794 176.726 92.6074 176.726 90.2873C176.726 87.9674 177.206 85.8954 178.166 84.0714C179.142 82.2474 180.462 80.6873 182.126 79.3913L183.206 80.3993C181.59 81.7593 180.398 83.2394 179.63 84.8394C178.878 86.4394 178.502 88.2553 178.502 90.2873C178.502 92.3194 178.878 94.1354 179.63 95.7354C180.398 97.3354 181.59 98.8154 183.206 100.175L182.126 101.183ZM190.133 101.183L189.053 100.175C190.669 98.8154 191.853 97.3354 192.605 95.7354C193.373 94.1354 193.757 92.3194 193.757 90.2873C193.757 88.2553 193.373 86.4394 192.605 84.8394C191.853 83.2394 190.669 81.7593 189.053 80.3993L190.133 79.3913C191.797 80.6873 193.109 82.2474 194.069 84.0714C195.045 85.8954 195.533 87.9674 195.533 90.2873C195.533 92.6074 195.045 94.6794 194.069 96.5034C193.109 98.3274 191.797 99.8874 190.133 101.183ZM211.1 100.607C210.348 100.607 209.692 100.551 209.132 100.439C208.572 100.343 208.108 100.175 207.74 99.9354C207.372 99.6954 207.1 99.3674 206.924 98.9514C206.748 98.5514 206.66 98.0394 206.66 97.4154C206.66 96.9834 206.668 96.5754 206.684 96.1914C206.716 95.7914 206.74 95.4074 206.756 95.0394C206.788 94.6714 206.812 94.3034 206.828 93.9354C206.86 93.5674 206.876 93.1834 206.876 92.7834C206.876 92.5434 206.828 92.3194 206.732 92.1114C206.636 91.8874 206.46 91.6874 206.204 91.5114C205.948 91.3354 205.588 91.1914 205.124 91.0794C204.676 90.9674 204.1 90.9114 203.396 90.9114V89.6634C204.1 89.6634 204.676 89.6074 205.124 89.4954C205.588 89.3834 205.948 89.2394 206.204 89.0633C206.46 88.8874 206.636 88.6954 206.732 88.4874C206.828 88.2634 206.876 88.0314 206.876 87.7913C206.876 87.0234 206.836 86.2714 206.756 85.5354C206.692 84.7834 206.66 83.9914 206.66 83.1593C206.66 82.5353 206.748 82.0233 206.924 81.6233C207.1 81.2073 207.372 80.8794 207.74 80.6394C208.108 80.3993 208.572 80.2313 209.132 80.1353C209.692 80.0234 210.348 79.9674 211.1 79.9674H212.564V81.0954H211.316C210.708 81.0954 210.204 81.1354 209.804 81.2154C209.42 81.2954 209.116 81.4233 208.892 81.5993C208.684 81.7754 208.54 82.0074 208.46 82.2954C208.38 82.5673 208.34 82.8953 208.34 83.2793C208.34 83.9674 208.364 84.6794 208.412 85.4153C208.46 86.1353 208.484 86.8714 208.484 87.6233C208.484 88.4074 208.324 89.0074 208.004 89.4234C207.7 89.8234 207.132 90.0954 206.3 90.2394V90.3354C207.132 90.4794 207.7 90.7594 208.004 91.1754C208.324 91.5754 208.484 92.1674 208.484 92.9514C208.484 93.7674 208.46 94.5114 208.412 95.1834C208.364 95.8554 208.34 96.5594 208.34 97.2954C208.34 97.6794 208.38 98.0074 208.46 98.2794C208.54 98.5674 208.684 98.7994 208.892 98.9754C209.116 99.1514 209.42 99.2794 209.804 99.3594C210.204 99.4394 210.708 99.4794 211.316 99.4794H212.564V100.607H211.1ZM121.756 133.959V123.903H116.332V122.295H123.724V133.959H121.756ZM122.524 119.847C122.076 119.847 121.7 119.711 121.396 119.439C121.092 119.151 120.94 118.775 120.94 118.311C120.94 117.847 121.092 117.479 121.396 117.207C121.7 116.919 122.076 116.775 122.524 116.775C122.972 116.775 123.348 116.919 123.652 117.207C123.956 117.479 124.108 117.847 124.108 118.311C124.108 118.775 123.956 119.151 123.652 119.439C123.348 119.711 122.972 119.847 122.524 119.847ZM136.003 134.247C134.851 134.247 133.787 134.071 132.811 133.719C131.835 133.351 130.987 132.919 130.267 132.423L131.179 131.127C131.851 131.607 132.587 131.991 133.387 132.279C134.203 132.567 135.155 132.711 136.243 132.711C137.235 132.711 137.971 132.535 138.451 132.183C138.947 131.815 139.195 131.383 139.195 130.887C139.195 130.663 139.155 130.455 139.075 130.263C138.995 130.071 138.819 129.887 138.547 129.711C138.291 129.535 137.923 129.367 137.443 129.207C136.963 129.047 136.331 128.887 135.547 128.727C134.027 128.407 132.883 127.983 132.115 127.455C131.363 126.911 130.987 126.199 130.987 125.319C130.987 124.855 131.091 124.423 131.299 124.023C131.507 123.607 131.811 123.255 132.211 122.967C132.627 122.663 133.131 122.431 133.723 122.271C134.331 122.095 135.035 122.007 135.835 122.007C136.731 122.007 137.595 122.159 138.427 122.463C139.259 122.751 139.963 123.095 140.539 123.495L139.579 124.767C139.035 124.399 138.435 124.103 137.779 123.879C137.123 123.655 136.419 123.543 135.667 123.543C134.675 123.543 133.979 123.711 133.579 124.047C133.179 124.383 132.979 124.775 132.979 125.223C132.979 125.735 133.243 126.127 133.771 126.399C134.299 126.655 135.163 126.911 136.363 127.167C137.339 127.375 138.139 127.599 138.763 127.839C139.387 128.063 139.875 128.319 140.227 128.607C140.595 128.895 140.843 129.215 140.971 129.567C141.115 129.919 141.187 130.319 141.187 130.767C141.187 131.247 141.075 131.695 140.851 132.111C140.627 132.527 140.291 132.895 139.843 133.215C139.411 133.535 138.867 133.783 138.211 133.959C137.571 134.151 136.835 134.247 136.003 134.247ZM146.169 133.959V118.215H148.137V132.255H155.937V133.959H146.169ZM164.544 134.247C163.776 134.247 163.04 134.111 162.336 133.839C161.648 133.567 161.04 133.175 160.512 132.663C159.984 132.135 159.56 131.495 159.24 130.743C158.936 129.975 158.784 129.111 158.784 128.151C158.784 127.175 158.936 126.311 159.24 125.559C159.56 124.791 159.984 124.143 160.512 123.615C161.04 123.087 161.648 122.687 162.336 122.415C163.04 122.143 163.776 122.007 164.544 122.007C165.312 122.007 166.04 122.143 166.728 122.415C167.432 122.687 168.048 123.087 168.576 123.615C169.104 124.143 169.52 124.791 169.824 125.559C170.144 126.311 170.304 127.175 170.304 128.151C170.304 129.111 170.144 129.975 169.824 130.743C169.52 131.495 169.104 132.135 168.576 132.663C168.048 133.175 167.432 133.567 166.728 133.839C166.04 134.111 165.312 134.247 164.544 134.247ZM164.544 132.615C165.104 132.615 165.608 132.511 166.056 132.303C166.52 132.079 166.912 131.775 167.232 131.391C167.568 130.991 167.824 130.519 168 129.975C168.176 129.431 168.264 128.823 168.264 128.151C168.264 127.479 168.176 126.871 168 126.327C167.824 125.767 167.568 125.287 167.232 124.887C166.912 124.487 166.52 124.183 166.056 123.975C165.608 123.751 165.104 123.639 164.544 123.639C163.984 123.639 163.472 123.751 163.008 123.975C162.56 124.183 162.168 124.487 161.832 124.887C161.512 125.287 161.264 125.767 161.088 126.327C160.912 126.871 160.824 127.479 160.824 128.151C160.824 128.823 160.912 129.431 161.088 129.975C161.264 130.519 161.512 130.991 161.832 131.391C162.168 131.775 162.56 132.079 163.008 132.303C163.472 132.511 163.984 132.615 164.544 132.615ZM178.838 139.335C177.126 139.335 175.798 139.055 174.854 138.495C173.926 137.935 173.462 137.135 173.462 136.095C173.462 135.631 173.622 135.175 173.942 134.727C174.278 134.279 174.758 133.871 175.382 133.503V133.407C175.062 133.231 174.782 132.991 174.542 132.687C174.302 132.383 174.182 131.983 174.182 131.487C174.182 131.119 174.302 130.743 174.542 130.359C174.782 129.959 175.126 129.607 175.574 129.303V129.207C175.174 128.903 174.83 128.503 174.542 128.007C174.27 127.495 174.134 126.887 174.134 126.183C174.134 125.543 174.254 124.967 174.494 124.455C174.75 123.943 175.086 123.511 175.502 123.159C175.918 122.791 176.398 122.511 176.942 122.319C177.502 122.111 178.094 122.007 178.718 122.007C179.358 122.007 179.934 122.103 180.446 122.295H185.27V123.903H182.246C182.518 124.175 182.75 124.519 182.942 124.935C183.134 125.351 183.23 125.791 183.23 126.255C183.23 126.879 183.11 127.439 182.87 127.935C182.646 128.431 182.326 128.855 181.91 129.207C181.51 129.543 181.03 129.807 180.47 129.999C179.926 130.175 179.342 130.263 178.718 130.263C178.414 130.263 178.086 130.231 177.734 130.167C177.398 130.087 177.07 129.975 176.75 129.831C176.142 130.215 175.838 130.663 175.838 131.175C175.838 131.639 176.046 131.983 176.462 132.207C176.894 132.415 177.494 132.519 178.262 132.519H180.878C182.382 132.519 183.494 132.727 184.214 133.143C184.95 133.559 185.318 134.263 185.318 135.255C185.318 135.799 185.166 136.319 184.862 136.815C184.558 137.311 184.126 137.743 183.566 138.111C183.006 138.479 182.326 138.775 181.526 138.999C180.726 139.223 179.83 139.335 178.838 139.335ZM178.718 128.943C179.47 128.943 180.102 128.695 180.614 128.199C181.142 127.703 181.406 127.031 181.406 126.183C181.406 125.783 181.334 125.415 181.19 125.079C181.046 124.743 180.854 124.455 180.614 124.215C180.374 123.975 180.086 123.791 179.75 123.663C179.43 123.519 179.086 123.447 178.718 123.447C178.35 123.447 177.998 123.519 177.662 123.663C177.342 123.791 177.062 123.975 176.822 124.215C176.582 124.455 176.39 124.743 176.246 125.079C176.102 125.415 176.03 125.783 176.03 126.183C176.03 127.031 176.294 127.703 176.822 128.199C177.35 128.695 177.982 128.943 178.718 128.943ZM178.982 137.895C179.654 137.895 180.262 137.831 180.806 137.703C181.35 137.575 181.814 137.399 182.198 137.175C182.582 136.967 182.87 136.719 183.062 136.431C183.27 136.159 183.374 135.871 183.374 135.567C183.374 135.007 183.15 134.631 182.702 134.439C182.27 134.247 181.606 134.151 180.71 134.151H178.43C178.094 134.151 177.774 134.135 177.47 134.103C177.182 134.087 176.91 134.039 176.654 133.959C176.094 134.263 175.702 134.575 175.478 134.895C175.27 135.231 175.166 135.567 175.166 135.903C175.166 136.511 175.486 136.991 176.126 137.343C176.782 137.711 177.734 137.895 178.982 137.895ZM193.229 139.335C191.517 139.335 190.189 139.055 189.245 138.495C188.317 137.935 187.853 137.135 187.853 136.095C187.853 135.631 188.013 135.175 188.333 134.727C188.669 134.279 189.149 133.871 189.773 133.503V133.407C189.453 133.231 189.173 132.991 188.933 132.687C188.693 132.383 188.573 131.983 188.573 131.487C188.573 131.119 188.693 130.743 188.933 130.359C189.173 129.959 189.517 129.607 189.965 129.303V129.207C189.565 128.903 189.221 128.503 188.933 128.007C188.661 127.495 188.525 126.887 188.525 126.183C188.525 125.543 188.645 124.967 188.885 124.455C189.141 123.943 189.477 123.511 189.893 123.159C190.309 122.791 190.789 122.511 191.333 122.319C191.893 122.111 192.485 122.007 193.109 122.007C193.749 122.007 194.325 122.103 194.837 122.295H199.661V123.903H196.637C196.909 124.175 197.141 124.519 197.333 124.935C197.525 125.351 197.621 125.791 197.621 126.255C197.621 126.879 197.501 127.439 197.261 127.935C197.037 128.431 196.717 128.855 196.301 129.207C195.901 129.543 195.421 129.807 194.861 129.999C194.317 130.175 193.733 130.263 193.109 130.263C192.805 130.263 192.477 130.231 192.125 130.167C191.789 130.087 191.461 129.975 191.141 129.831C190.533 130.215 190.229 130.663 190.229 131.175C190.229 131.639 190.437 131.983 190.853 132.207C191.285 132.415 191.885 132.519 192.653 132.519H195.269C196.773 132.519 197.885 132.727 198.605 133.143C199.341 133.559 199.709 134.263 199.709 135.255C199.709 135.799 199.557 136.319 199.253 136.815C198.949 137.311 198.517 137.743 197.957 138.111C197.397 138.479 196.717 138.775 195.917 138.999C195.117 139.223 194.221 139.335 193.229 139.335ZM193.109 128.943C193.861 128.943 194.493 128.695 195.005 128.199C195.533 127.703 195.797 127.031 195.797 126.183C195.797 125.783 195.725 125.415 195.581 125.079C195.437 124.743 195.245 124.455 195.005 124.215C194.765 123.975 194.477 123.791 194.141 123.663C193.821 123.519 193.477 123.447 193.109 123.447C192.741 123.447 192.389 123.519 192.053 123.663C191.733 123.791 191.453 123.975 191.213 124.215C190.973 124.455 190.781 124.743 190.637 125.079C190.493 125.415 190.421 125.783 190.421 126.183C190.421 127.031 190.685 127.703 191.213 128.199C191.741 128.695 192.373 128.943 193.109 128.943ZM193.373 137.895C194.045 137.895 194.653 137.831 195.197 137.703C195.741 137.575 196.205 137.399 196.589 137.175C196.973 136.967 197.261 136.719 197.453 136.431C197.661 136.159 197.765 135.871 197.765 135.567C197.765 135.007 197.541 134.631 197.093 134.439C196.661 134.247 195.997 134.151 195.101 134.151H192.821C192.485 134.151 192.165 134.135 191.861 134.103C191.573 134.087 191.301 134.039 191.045 133.959C190.485 134.263 190.093 134.575 189.869 134.895C189.661 135.231 189.557 135.567 189.557 135.903C189.557 136.511 189.877 136.991 190.517 137.343C191.173 137.711 192.125 137.895 193.373 137.895ZM208.436 134.247C207.556 134.247 206.732 134.111 205.964 133.839C205.212 133.567 204.548 133.167 203.972 132.639C203.412 132.111 202.964 131.471 202.628 130.719C202.308 129.951 202.148 129.079 202.148 128.103C202.148 127.159 202.308 126.311 202.628 125.559C202.964 124.807 203.404 124.167 203.948 123.639C204.508 123.111 205.14 122.711 205.844 122.439C206.564 122.151 207.316 122.007 208.1 122.007C208.932 122.007 209.676 122.143 210.332 122.415C211.004 122.671 211.564 123.039 212.012 123.519C212.476 123.999 212.828 124.575 213.068 125.247C213.308 125.919 213.428 126.663 213.428 127.479C213.428 127.703 213.42 127.919 213.404 128.127C213.388 128.335 213.364 128.519 213.332 128.679H204.14C204.268 130.007 204.748 131.007 205.58 131.679C206.428 132.335 207.46 132.663 208.676 132.663C209.38 132.663 210.012 132.567 210.572 132.375C211.148 132.167 211.7 131.895 212.228 131.559L212.948 132.855C212.372 133.239 211.708 133.567 210.956 133.839C210.22 134.111 209.38 134.247 208.436 134.247ZM208.148 123.567C207.668 123.567 207.204 123.647 206.756 123.807C206.324 123.967 205.932 124.199 205.58 124.503C205.228 124.791 204.932 125.159 204.692 125.607C204.452 126.055 204.284 126.567 204.188 127.143H211.628C211.548 125.943 211.196 125.047 210.572 124.455C209.964 123.863 209.156 123.567 208.148 123.567ZM221.41 134.247C220.642 134.247 219.946 134.111 219.322 133.839C218.714 133.567 218.186 133.175 217.738 132.663C217.29 132.135 216.946 131.495 216.706 130.743C216.466 129.991 216.346 129.127 216.346 128.151C216.346 127.207 216.49 126.359 216.778 125.607C217.082 124.839 217.474 124.191 217.954 123.663C218.45 123.135 219.018 122.727 219.658 122.439C220.298 122.151 220.962 122.007 221.65 122.007C222.354 122.007 222.978 122.143 223.522 122.415C224.082 122.671 224.618 123.039 225.13 123.519H225.202L225.106 121.359V116.871H227.074V133.959H225.442L225.274 132.423H225.202C224.722 132.919 224.146 133.351 223.474 133.719C222.818 134.071 222.13 134.247 221.41 134.247ZM221.818 132.591C222.97 132.591 224.066 132.007 225.106 130.839V125.031C224.578 124.535 224.058 124.183 223.546 123.975C223.05 123.767 222.546 123.663 222.034 123.663C221.522 123.663 221.042 123.775 220.594 123.999C220.162 124.207 219.778 124.511 219.442 124.911C219.122 125.295 218.866 125.759 218.674 126.303C218.482 126.847 218.386 127.455 218.386 128.127C218.386 129.535 218.682 130.631 219.274 131.415C219.882 132.199 220.73 132.591 221.818 132.591ZM231.577 133.959V132.255H235.489V119.895H231.577V118.215H241.417V119.895H237.505V132.255H241.417V133.959H231.577ZM245.92 133.959V122.295H247.552L247.72 124.287H247.816C248.424 123.631 249.08 123.087 249.784 122.655C250.488 122.223 251.296 122.007 252.208 122.007C253.6 122.007 254.616 122.407 255.256 123.207C255.912 123.991 256.24 125.159 256.24 126.711V133.959H254.272V126.975C254.272 125.871 254.064 125.055 253.648 124.527C253.232 123.983 252.544 123.711 251.584 123.711C251.232 123.711 250.904 123.759 250.6 123.855C250.312 123.935 250.024 124.063 249.736 124.239C249.448 124.415 249.152 124.639 248.848 124.911C248.544 125.167 248.224 125.471 247.888 125.823V133.959H245.92ZM268.47 138.183C266.806 136.887 265.486 135.327 264.51 133.503C263.55 131.679 263.07 129.607 263.07 127.287C263.07 124.967 263.55 122.895 264.51 121.071C265.486 119.247 266.806 117.687 268.47 116.391L269.55 117.399C267.934 118.759 266.742 120.239 265.974 121.839C265.222 123.439 264.846 125.255 264.846 127.287C264.846 129.319 265.222 131.135 265.974 132.735C266.742 134.335 267.934 135.815 269.55 137.175L268.47 138.183ZM276.477 138.183L275.397 137.175C277.013 135.815 278.197 134.335 278.949 132.735C279.717 131.135 280.101 129.319 280.101 127.287C280.101 125.255 279.717 123.439 278.949 121.839C278.197 120.239 277.013 118.759 275.397 117.399L276.477 116.391C278.141 117.687 279.453 119.247 280.413 121.071C281.389 122.895 281.877 124.967 281.877 127.287C281.877 129.607 281.389 131.679 280.413 133.503C279.453 135.327 278.141 136.887 276.477 138.183ZM297.443 137.607C296.691 137.607 296.035 137.551 295.475 137.439C294.915 137.343 294.451 137.175 294.083 136.935C293.715 136.695 293.443 136.367 293.267 135.951C293.091 135.551 293.003 135.039 293.003 134.415C293.003 133.983 293.011 133.575 293.027 133.191C293.059 132.791 293.083 132.407 293.099 132.039C293.131 131.671 293.155 131.303 293.171 130.935C293.203 130.567 293.219 130.183 293.219 129.783C293.219 129.543 293.171 129.319 293.075 129.111C292.979 128.887 292.803 128.687 292.547 128.511C292.291 128.335 291.931 128.191 291.467 128.079C291.019 127.967 290.443 127.911 289.739 127.911V126.663C290.443 126.663 291.019 126.607 291.467 126.495C291.931 126.383 292.291 126.239 292.547 126.063C292.803 125.887 292.979 125.695 293.075 125.487C293.171 125.263 293.219 125.031 293.219 124.791C293.219 124.023 293.179 123.271 293.099 122.535C293.035 121.783 293.003 120.991 293.003 120.159C293.003 119.535 293.091 119.023 293.267 118.623C293.443 118.207 293.715 117.879 294.083 117.639C294.451 117.399 294.915 117.231 295.475 117.135C296.035 117.023 296.691 116.967 297.443 116.967H298.907V118.095H297.659C297.051 118.095 296.547 118.135 296.147 118.215C295.763 118.295 295.459 118.423 295.235 118.599C295.027 118.775 294.883 119.007 294.803 119.295C294.723 119.567 294.683 119.895 294.683 120.279C294.683 120.967 294.707 121.679 294.755 122.415C294.803 123.135 294.827 123.871 294.827 124.623C294.827 125.407 294.667 126.007 294.347 126.423C294.043 126.823 293.475 127.095 292.643 127.239V127.335C293.475 127.479 294.043 127.759 294.347 128.175C294.667 128.575 294.827 129.167 294.827 129.951C294.827 130.767 294.803 131.511 294.755 132.183C294.707 132.855 294.683 133.559 294.683 134.295C294.683 134.679 294.723 135.007 294.803 135.279C294.883 135.567 295.027 135.799 295.235 135.975C295.459 136.151 295.763 136.279 296.147 136.359C296.547 136.439 297.051 136.479 297.659 136.479H298.907V137.607H297.443Z" fill="#4E5769"/>
<rect x="51" y="157.959" width="328" height="49" rx="6" fill="#E7E9FB"/>
<path d="M169.176 189.807L160.224 183.735V182.247L169.176 176.175V178.071L161.952 182.943V183.039L169.176 187.911V189.807ZM173.966 195.879V179.295H175.598L175.766 180.783H175.838C176.382 180.271 177.006 179.847 177.71 179.511C178.43 179.175 179.15 179.007 179.87 179.007C180.654 179.007 181.342 179.151 181.934 179.439C182.542 179.711 183.046 180.111 183.446 180.639C183.862 181.151 184.174 181.775 184.382 182.511C184.59 183.231 184.694 184.047 184.694 184.959C184.694 185.951 184.55 186.839 184.262 187.623C183.974 188.391 183.582 189.047 183.086 189.591C182.606 190.135 182.046 190.551 181.406 190.839C180.766 191.111 180.094 191.247 179.39 191.247C178.846 191.247 178.254 191.119 177.614 190.863C176.99 190.591 176.422 190.215 175.91 189.735H175.838L175.934 191.943V195.879H173.966ZM179.054 189.591C180.11 189.591 180.974 189.183 181.646 188.367C182.318 187.551 182.654 186.415 182.654 184.959C182.654 184.319 182.59 183.735 182.462 183.207C182.334 182.679 182.134 182.231 181.862 181.863C181.606 181.479 181.27 181.183 180.854 180.975C180.438 180.767 179.942 180.663 179.366 180.663C178.854 180.663 178.302 180.807 177.71 181.095C177.134 181.367 176.542 181.807 175.934 182.415V188.223C176.494 188.719 177.054 189.071 177.614 189.279C178.174 189.487 178.654 189.591 179.054 189.591ZM188.693 189.807V187.911L195.917 183.039V182.943L188.693 178.071V176.175L197.645 182.247V183.735L188.693 189.807ZM203.156 190.959L200.756 175.191H203.012L204.164 185.079C204.196 185.415 204.228 185.719 204.26 185.991C204.292 186.263 204.316 186.543 204.332 186.831C204.364 187.103 204.388 187.391 204.404 187.695C204.436 187.999 204.46 188.343 204.476 188.727H204.548C204.612 188.343 204.676 187.999 204.74 187.695C204.804 187.391 204.86 187.103 204.908 186.831C204.972 186.543 205.036 186.263 205.1 185.991C205.164 185.719 205.236 185.423 205.316 185.103L206.852 179.247H208.772L210.26 185.103C210.34 185.423 210.412 185.719 210.476 185.991C210.54 186.263 210.596 186.543 210.644 186.831C210.708 187.103 210.764 187.391 210.812 187.695C210.876 187.999 210.948 188.343 211.028 188.727H211.124C211.14 188.343 211.156 187.999 211.172 187.695C211.204 187.391 211.228 187.103 211.244 186.831C211.276 186.543 211.3 186.263 211.316 185.991C211.348 185.719 211.38 185.423 211.412 185.103L212.516 175.191H214.676L212.372 190.959H209.876L208.34 184.623C208.212 184.143 208.1 183.671 208.004 183.207C207.924 182.743 207.844 182.271 207.764 181.791H207.692C207.612 182.271 207.532 182.743 207.452 183.207C207.372 183.671 207.268 184.143 207.14 184.623L205.604 190.959H203.156ZM222.826 191.247C221.946 191.247 221.122 191.111 220.354 190.839C219.602 190.567 218.938 190.167 218.362 189.639C217.802 189.111 217.354 188.471 217.018 187.719C216.698 186.951 216.538 186.079 216.538 185.103C216.538 184.159 216.698 183.311 217.018 182.559C217.354 181.807 217.794 181.167 218.338 180.639C218.898 180.111 219.53 179.711 220.234 179.439C220.954 179.151 221.706 179.007 222.49 179.007C223.322 179.007 224.066 179.143 224.722 179.415C225.394 179.671 225.954 180.039 226.402 180.519C226.866 180.999 227.218 181.575 227.458 182.247C227.698 182.919 227.818 183.663 227.818 184.479C227.818 184.703 227.81 184.919 227.794 185.127C227.778 185.335 227.754 185.519 227.722 185.679H218.53C218.658 187.007 219.138 188.007 219.97 188.679C220.818 189.335 221.85 189.663 223.066 189.663C223.77 189.663 224.402 189.567 224.962 189.375C225.538 189.167 226.09 188.895 226.618 188.559L227.338 189.855C226.762 190.239 226.098 190.567 225.346 190.839C224.61 191.111 223.77 191.247 222.826 191.247ZM222.538 180.567C222.058 180.567 221.594 180.647 221.146 180.807C220.714 180.967 220.322 181.199 219.97 181.503C219.618 181.791 219.322 182.159 219.082 182.607C218.842 183.055 218.674 183.567 218.578 184.143H226.018C225.938 182.943 225.586 182.047 224.962 181.455C224.354 180.863 223.546 180.567 222.538 180.567ZM239.065 191.247C237.817 191.247 236.865 190.895 236.209 190.191C235.553 189.487 235.225 188.439 235.225 187.047V175.479H231.073V173.871H237.193V187.191C237.193 188.055 237.401 188.679 237.817 189.063C238.233 189.431 238.793 189.615 239.497 189.615C240.185 189.615 240.913 189.439 241.681 189.087L242.185 190.551C241.641 190.775 241.145 190.943 240.697 191.055C240.249 191.183 239.705 191.247 239.065 191.247ZM251.992 191.247C251.08 191.247 250.232 191.111 249.448 190.839C248.68 190.567 248.008 190.175 247.432 189.663C246.856 189.135 246.408 188.495 246.088 187.743C245.768 186.975 245.608 186.111 245.608 185.151C245.608 184.175 245.776 183.311 246.112 182.559C246.464 181.791 246.936 181.143 247.528 180.615C248.12 180.087 248.808 179.687 249.592 179.415C250.392 179.143 251.232 179.007 252.112 179.007C253.072 179.007 253.896 179.175 254.584 179.511C255.288 179.847 255.88 180.247 256.359 180.711L255.376 181.983C254.896 181.567 254.392 181.239 253.864 180.999C253.352 180.759 252.792 180.639 252.184 180.639C251.512 180.639 250.896 180.751 250.336 180.975C249.776 181.183 249.296 181.487 248.896 181.887C248.512 182.287 248.208 182.767 247.984 183.327C247.76 183.871 247.648 184.479 247.648 185.151C247.648 185.823 247.752 186.431 247.96 186.975C248.184 187.519 248.488 187.991 248.872 188.391C249.272 188.775 249.744 189.079 250.288 189.303C250.848 189.511 251.464 189.615 252.136 189.615C252.856 189.615 253.512 189.479 254.104 189.207C254.712 188.919 255.256 188.567 255.736 188.151L256.624 189.423C255.968 189.999 255.248 190.447 254.464 190.767C253.68 191.087 252.856 191.247 251.992 191.247ZM265.278 191.247C264.51 191.247 263.774 191.111 263.07 190.839C262.382 190.567 261.774 190.175 261.246 189.663C260.718 189.135 260.294 188.495 259.974 187.743C259.67 186.975 259.518 186.111 259.518 185.151C259.518 184.175 259.67 183.311 259.974 182.559C260.294 181.791 260.718 181.143 261.246 180.615C261.774 180.087 262.382 179.687 263.07 179.415C263.774 179.143 264.51 179.007 265.278 179.007C266.046 179.007 266.774 179.143 267.462 179.415C268.166 179.687 268.782 180.087 269.31 180.615C269.838 181.143 270.254 181.791 270.558 182.559C270.878 183.311 271.038 184.175 271.038 185.151C271.038 186.111 270.878 186.975 270.558 187.743C270.254 188.495 269.838 189.135 269.31 189.663C268.782 190.175 268.166 190.567 267.462 190.839C266.774 191.111 266.046 191.247 265.278 191.247ZM265.278 189.615C265.838 189.615 266.342 189.511 266.79 189.303C267.254 189.079 267.646 188.775 267.966 188.391C268.302 187.991 268.558 187.519 268.734 186.975C268.91 186.431 268.998 185.823 268.998 185.151C268.998 184.479 268.91 183.871 268.734 183.327C268.558 182.767 268.302 182.287 267.966 181.887C267.646 181.487 267.254 181.183 266.79 180.975C266.342 180.751 265.838 180.639 265.278 180.639C264.718 180.639 264.206 180.751 263.742 180.975C263.294 181.183 262.902 181.487 262.566 181.887C262.246 182.287 261.998 182.767 261.822 183.327C261.646 183.871 261.558 184.479 261.558 185.151C261.558 185.823 261.646 186.431 261.822 186.975C261.998 187.519 262.246 187.991 262.566 188.391C262.902 188.775 263.294 189.079 263.742 189.303C264.206 189.511 264.718 189.615 265.278 189.615ZM273.861 190.959V179.295H275.445L275.613 180.831H275.661C275.965 180.287 276.317 179.847 276.717 179.511C277.117 179.175 277.653 179.007 278.325 179.007C279.461 179.007 280.197 179.679 280.533 181.023C280.869 180.399 281.237 179.911 281.637 179.559C282.053 179.191 282.597 179.007 283.269 179.007C284.085 179.007 284.717 179.319 285.165 179.943C285.629 180.551 285.861 181.439 285.861 182.607V190.959H283.893V182.751C283.893 181.391 283.477 180.711 282.645 180.711C282.229 180.711 281.893 180.863 281.637 181.167C281.381 181.455 281.093 181.903 280.773 182.511V190.959H278.949V182.751C278.949 182.079 278.853 181.575 278.661 181.239C278.485 180.887 278.181 180.711 277.749 180.711C277.333 180.711 276.981 180.863 276.693 181.167C276.405 181.455 276.117 181.903 275.829 182.511V190.959H273.861ZM294.779 191.247C293.899 191.247 293.075 191.111 292.307 190.839C291.555 190.567 290.891 190.167 290.315 189.639C289.755 189.111 289.307 188.471 288.971 187.719C288.651 186.951 288.491 186.079 288.491 185.103C288.491 184.159 288.651 183.311 288.971 182.559C289.307 181.807 289.747 181.167 290.291 180.639C290.851 180.111 291.483 179.711 292.187 179.439C292.907 179.151 293.659 179.007 294.443 179.007C295.275 179.007 296.019 179.143 296.675 179.415C297.347 179.671 297.907 180.039 298.355 180.519C298.819 180.999 299.171 181.575 299.411 182.247C299.651 182.919 299.771 183.663 299.771 184.479C299.771 184.703 299.763 184.919 299.747 185.127C299.731 185.335 299.707 185.519 299.675 185.679H290.483C290.611 187.007 291.091 188.007 291.923 188.679C292.771 189.335 293.803 189.663 295.019 189.663C295.723 189.663 296.355 189.567 296.915 189.375C297.491 189.167 298.043 188.895 298.571 188.559L299.291 189.855C298.715 190.239 298.051 190.567 297.299 190.839C296.563 191.111 295.723 191.247 294.779 191.247ZM294.491 180.567C294.011 180.567 293.547 180.647 293.099 180.807C292.667 180.967 292.275 181.199 291.923 181.503C291.571 181.791 291.275 182.159 291.035 182.607C290.795 183.055 290.627 183.567 290.531 184.143H297.971C297.891 182.943 297.539 182.047 296.915 181.455C296.307 180.863 295.499 180.567 294.491 180.567ZM313.082 189.807L304.13 183.735V182.247L313.082 176.175V178.071L305.858 182.943V183.039L313.082 187.911V189.807ZM318.017 194.799L325.889 173.919H327.665L319.793 194.799H318.017ZM332.263 195.879V179.295H333.895L334.063 180.783H334.135C334.679 180.271 335.303 179.847 336.007 179.511C336.727 179.175 337.447 179.007 338.167 179.007C338.951 179.007 339.639 179.151 340.231 179.439C340.839 179.711 341.343 180.111 341.743 180.639C342.159 181.151 342.471 181.775 342.679 182.511C342.887 183.231 342.991 184.047 342.991 184.959C342.991 185.951 342.847 186.839 342.559 187.623C342.271 188.391 341.879 189.047 341.383 189.591C340.903 190.135 340.343 190.551 339.703 190.839C339.063 191.111 338.391 191.247 337.687 191.247C337.143 191.247 336.551 191.119 335.911 190.863C335.287 190.591 334.719 190.215 334.207 189.735H334.135L334.231 191.943V195.879H332.263ZM337.351 189.591C338.407 189.591 339.271 189.183 339.943 188.367C340.615 187.551 340.951 186.415 340.951 184.959C340.951 184.319 340.887 183.735 340.759 183.207C340.631 182.679 340.431 182.231 340.159 181.863C339.903 181.479 339.567 181.183 339.151 180.975C338.735 180.767 338.239 180.663 337.663 180.663C337.151 180.663 336.599 180.807 336.007 181.095C335.431 181.367 334.839 181.807 334.231 182.415V188.223C334.791 188.719 335.351 189.071 335.911 189.279C336.471 189.487 336.951 189.591 337.351 189.591ZM346.99 189.807V187.911L354.214 183.039V182.943L346.99 178.071V176.175L355.942 182.247V183.735L346.99 189.807Z" fill="#4E5769"/>
<rect x="51" y="214.959" width="328" height="49" rx="6" fill="#FDE7C7"/>
<path d="M116.548 251.607V250.479H117.772C118.38 250.479 118.876 250.439 119.26 250.359C119.66 250.279 119.972 250.151 120.196 249.975C120.42 249.799 120.572 249.567 120.652 249.279C120.732 249.007 120.772 248.679 120.772 248.295C120.772 247.559 120.748 246.855 120.7 246.183C120.652 245.511 120.628 244.767 120.628 243.951C120.628 243.167 120.78 242.575 121.084 242.175C121.388 241.759 121.956 241.479 122.788 241.335V241.239C121.956 241.095 121.388 240.823 121.084 240.423C120.78 240.007 120.628 239.407 120.628 238.623C120.628 237.871 120.652 237.135 120.7 236.415C120.748 235.679 120.772 234.967 120.772 234.279C120.772 233.895 120.732 233.567 120.652 233.295C120.572 233.007 120.42 232.775 120.196 232.599C119.972 232.423 119.66 232.295 119.26 232.215C118.876 232.135 118.38 232.095 117.772 232.095H116.548V230.967H118.012C118.764 230.967 119.412 231.023 119.956 231.135C120.516 231.231 120.98 231.399 121.348 231.639C121.716 231.879 121.988 232.207 122.164 232.623C122.34 233.023 122.428 233.535 122.428 234.159C122.428 234.991 122.388 235.783 122.308 236.535C122.244 237.271 122.212 238.023 122.212 238.791C122.212 239.031 122.26 239.263 122.356 239.487C122.452 239.695 122.628 239.887 122.884 240.063C123.14 240.239 123.492 240.383 123.94 240.495C124.404 240.607 124.988 240.663 125.692 240.663V241.911C124.988 241.911 124.404 241.967 123.94 242.079C123.492 242.191 123.14 242.335 122.884 242.511C122.628 242.687 122.452 242.887 122.356 243.111C122.26 243.319 122.212 243.543 122.212 243.783C122.212 244.183 122.22 244.567 122.236 244.935C122.268 245.303 122.292 245.671 122.308 246.039C122.34 246.407 122.364 246.791 122.38 247.191C122.412 247.575 122.428 247.983 122.428 248.415C122.428 249.039 122.34 249.551 122.164 249.951C121.988 250.367 121.716 250.695 121.348 250.935C120.98 251.175 120.516 251.343 119.956 251.439C119.412 251.551 118.764 251.607 118.012 251.607H116.548ZM150.873 248.247C149.993 248.247 149.169 248.111 148.401 247.839C147.649 247.567 146.985 247.167 146.409 246.639C145.849 246.111 145.401 245.471 145.065 244.719C144.745 243.951 144.585 243.079 144.585 242.103C144.585 241.159 144.745 240.311 145.065 239.559C145.401 238.807 145.841 238.167 146.385 237.639C146.945 237.111 147.577 236.711 148.281 236.439C149.001 236.151 149.753 236.007 150.537 236.007C151.369 236.007 152.113 236.143 152.769 236.415C153.441 236.671 154.001 237.039 154.449 237.519C154.913 237.999 155.265 238.575 155.505 239.247C155.745 239.919 155.865 240.663 155.865 241.479C155.865 241.703 155.857 241.919 155.841 242.127C155.825 242.335 155.801 242.519 155.769 242.679H146.577C146.705 244.007 147.185 245.007 148.017 245.679C148.865 246.335 149.897 246.663 151.113 246.663C151.817 246.663 152.449 246.567 153.009 246.375C153.585 246.167 154.137 245.895 154.665 245.559L155.385 246.855C154.809 247.239 154.145 247.567 153.393 247.839C152.657 248.111 151.817 248.247 150.873 248.247ZM150.585 237.567C150.105 237.567 149.641 237.647 149.193 237.807C148.761 237.967 148.369 238.199 148.017 238.503C147.665 238.791 147.369 239.159 147.129 239.607C146.889 240.055 146.721 240.567 146.625 241.143H154.065C153.985 239.943 153.633 239.047 153.009 238.455C152.401 237.863 151.593 237.567 150.585 237.567ZM167.112 248.247C165.864 248.247 164.912 247.895 164.256 247.191C163.6 246.487 163.272 245.439 163.272 244.047V232.479H159.12V230.871H165.24V244.191C165.24 245.055 165.448 245.679 165.864 246.063C166.28 246.431 166.84 246.615 167.544 246.615C168.232 246.615 168.96 246.439 169.728 246.087L170.232 247.551C169.688 247.775 169.192 247.943 168.744 248.055C168.296 248.183 167.752 248.247 167.112 248.247ZM179.174 248.247C178.022 248.247 176.958 248.071 175.982 247.719C175.006 247.351 174.158 246.919 173.438 246.423L174.35 245.127C175.022 245.607 175.758 245.991 176.558 246.279C177.374 246.567 178.326 246.711 179.414 246.711C180.406 246.711 181.142 246.535 181.622 246.183C182.118 245.815 182.366 245.383 182.366 244.887C182.366 244.663 182.326 244.455 182.246 244.263C182.166 244.071 181.99 243.887 181.718 243.711C181.462 243.535 181.094 243.367 180.614 243.207C180.134 243.047 179.502 242.887 178.718 242.727C177.198 242.407 176.054 241.983 175.286 241.455C174.534 240.911 174.158 240.199 174.158 239.319C174.158 238.855 174.262 238.423 174.47 238.023C174.678 237.607 174.982 237.255 175.382 236.967C175.798 236.663 176.302 236.431 176.894 236.271C177.502 236.095 178.206 236.007 179.006 236.007C179.902 236.007 180.766 236.159 181.598 236.463C182.43 236.751 183.134 237.095 183.71 237.495L182.75 238.767C182.206 238.399 181.606 238.103 180.95 237.879C180.294 237.655 179.59 237.543 178.838 237.543C177.846 237.543 177.15 237.711 176.75 238.047C176.35 238.383 176.15 238.775 176.15 239.223C176.15 239.735 176.414 240.127 176.942 240.399C177.47 240.655 178.334 240.911 179.534 241.167C180.51 241.375 181.31 241.599 181.934 241.839C182.558 242.063 183.046 242.319 183.398 242.607C183.766 242.895 184.014 243.215 184.142 243.567C184.286 243.919 184.358 244.319 184.358 244.767C184.358 245.247 184.246 245.695 184.022 246.111C183.798 246.527 183.462 246.895 183.014 247.215C182.582 247.535 182.038 247.783 181.382 247.959C180.742 248.151 180.006 248.247 179.174 248.247ZM194.045 248.247C193.165 248.247 192.341 248.111 191.573 247.839C190.821 247.567 190.157 247.167 189.581 246.639C189.021 246.111 188.573 245.471 188.237 244.719C187.917 243.951 187.757 243.079 187.757 242.103C187.757 241.159 187.917 240.311 188.237 239.559C188.573 238.807 189.013 238.167 189.557 237.639C190.117 237.111 190.749 236.711 191.453 236.439C192.173 236.151 192.925 236.007 193.709 236.007C194.541 236.007 195.285 236.143 195.941 236.415C196.613 236.671 197.173 237.039 197.621 237.519C198.085 237.999 198.437 238.575 198.677 239.247C198.917 239.919 199.037 240.663 199.037 241.479C199.037 241.703 199.029 241.919 199.013 242.127C198.997 242.335 198.973 242.519 198.941 242.679H189.749C189.877 244.007 190.357 245.007 191.189 245.679C192.037 246.335 193.069 246.663 194.285 246.663C194.989 246.663 195.621 246.567 196.181 246.375C196.757 246.167 197.309 245.895 197.837 245.559L198.557 246.855C197.981 247.239 197.317 247.567 196.565 247.839C195.829 248.111 194.989 248.247 194.045 248.247ZM193.757 237.567C193.277 237.567 192.813 237.647 192.365 237.807C191.933 237.967 191.541 238.199 191.189 238.503C190.837 238.791 190.541 239.159 190.301 239.607C190.061 240.055 189.893 240.567 189.797 241.143H197.237C197.157 239.943 196.805 239.047 196.181 238.455C195.573 237.863 194.765 237.567 193.757 237.567ZM225.49 251.607C224.738 251.607 224.082 251.551 223.522 251.439C222.962 251.343 222.498 251.175 222.13 250.935C221.762 250.695 221.49 250.367 221.314 249.951C221.138 249.551 221.05 249.039 221.05 248.415C221.05 247.983 221.058 247.575 221.074 247.191C221.106 246.791 221.13 246.407 221.146 246.039C221.178 245.671 221.202 245.303 221.218 244.935C221.25 244.567 221.266 244.183 221.266 243.783C221.266 243.543 221.218 243.319 221.122 243.111C221.026 242.887 220.85 242.687 220.594 242.511C220.338 242.335 219.978 242.191 219.514 242.079C219.066 241.967 218.49 241.911 217.786 241.911V240.663C218.49 240.663 219.066 240.607 219.514 240.495C219.978 240.383 220.338 240.239 220.594 240.063C220.85 239.887 221.026 239.695 221.122 239.487C221.218 239.263 221.266 239.031 221.266 238.791C221.266 238.023 221.226 237.271 221.146 236.535C221.082 235.783 221.05 234.991 221.05 234.159C221.05 233.535 221.138 233.023 221.314 232.623C221.49 232.207 221.762 231.879 222.13 231.639C222.498 231.399 222.962 231.231 223.522 231.135C224.082 231.023 224.738 230.967 225.49 230.967H226.954V232.095H225.706C225.098 232.095 224.594 232.135 224.194 232.215C223.81 232.295 223.506 232.423 223.282 232.599C223.074 232.775 222.93 233.007 222.85 233.295C222.77 233.567 222.73 233.895 222.73 234.279C222.73 234.967 222.754 235.679 222.802 236.415C222.85 237.135 222.874 237.871 222.874 238.623C222.874 239.407 222.714 240.007 222.394 240.423C222.09 240.823 221.522 241.095 220.69 241.239V241.335C221.522 241.479 222.09 241.759 222.394 242.175C222.714 242.575 222.874 243.167 222.874 243.951C222.874 244.767 222.85 245.511 222.802 246.183C222.754 246.855 222.73 247.559 222.73 248.295C222.73 248.679 222.77 249.007 222.85 249.279C222.93 249.567 223.074 249.799 223.282 249.975C223.506 250.151 223.81 250.279 224.194 250.359C224.594 250.439 225.098 250.479 225.706 250.479H226.954V251.607H225.49Z" fill="#4E5769"/>
<rect x="51" y="271.959" width="328" height="49" rx="6" fill="#E7E9FB"/>
<path d="M169.176 303.807L160.224 297.735V296.247L169.176 290.175V292.071L161.952 296.943V297.039L169.176 301.911V303.807ZM174.926 304.959V289.215H184.598V290.895H176.942V296.223H183.422V297.903H176.942V304.959H174.926ZM193.325 305.247C192.557 305.247 191.821 305.111 191.117 304.839C190.429 304.567 189.821 304.175 189.293 303.663C188.765 303.135 188.341 302.495 188.021 301.743C187.717 300.975 187.565 300.111 187.565 299.151C187.565 298.175 187.717 297.311 188.021 296.559C188.341 295.791 188.765 295.143 189.293 294.615C189.821 294.087 190.429 293.687 191.117 293.415C191.821 293.143 192.557 293.007 193.325 293.007C194.093 293.007 194.821 293.143 195.509 293.415C196.213 293.687 196.829 294.087 197.357 294.615C197.885 295.143 198.301 295.791 198.605 296.559C198.925 297.311 199.085 298.175 199.085 299.151C199.085 300.111 198.925 300.975 198.605 301.743C198.301 302.495 197.885 303.135 197.357 303.663C196.829 304.175 196.213 304.567 195.509 304.839C194.821 305.111 194.093 305.247 193.325 305.247ZM193.325 303.615C193.885 303.615 194.389 303.511 194.837 303.303C195.301 303.079 195.693 302.775 196.013 302.391C196.349 301.991 196.605 301.519 196.781 300.975C196.957 300.431 197.045 299.823 197.045 299.151C197.045 298.479 196.957 297.871 196.781 297.327C196.605 296.767 196.349 296.287 196.013 295.887C195.693 295.487 195.301 295.183 194.837 294.975C194.389 294.751 193.885 294.639 193.325 294.639C192.765 294.639 192.253 294.751 191.789 294.975C191.341 295.183 190.949 295.487 190.613 295.887C190.293 296.287 190.045 296.767 189.869 297.327C189.693 297.871 189.605 298.479 189.605 299.151C189.605 299.823 189.693 300.431 189.869 300.975C190.045 301.519 190.293 301.991 190.613 302.391C190.949 302.775 191.341 303.079 191.789 303.303C192.253 303.511 192.765 303.615 193.325 303.615ZM204.02 304.959V293.295H205.652L205.82 296.055H205.892C206.5 295.111 207.244 294.367 208.124 293.823C209.02 293.279 210.012 293.007 211.1 293.007C211.532 293.007 211.932 293.047 212.3 293.127C212.668 293.191 213.036 293.311 213.404 293.487L212.948 295.191C212.532 295.047 212.18 294.943 211.892 294.879C211.62 294.815 211.252 294.783 210.788 294.783C209.908 294.783 209.06 295.039 208.244 295.551C207.444 296.047 206.692 296.903 205.988 298.119V304.959H204.02ZM216.298 304.959V293.295H217.882L218.05 294.831H218.098C218.402 294.287 218.754 293.847 219.154 293.511C219.554 293.175 220.09 293.007 220.762 293.007C221.898 293.007 222.634 293.679 222.97 295.023C223.306 294.399 223.674 293.911 224.074 293.559C224.49 293.191 225.034 293.007 225.706 293.007C226.522 293.007 227.154 293.319 227.602 293.943C228.066 294.551 228.298 295.439 228.298 296.607V304.959H226.33V296.751C226.33 295.391 225.914 294.711 225.082 294.711C224.666 294.711 224.33 294.863 224.074 295.167C223.818 295.455 223.53 295.903 223.21 296.511V304.959H221.386V296.751C221.386 296.079 221.29 295.575 221.098 295.239C220.922 294.887 220.618 294.711 220.186 294.711C219.77 294.711 219.418 294.863 219.13 295.167C218.842 295.455 218.554 295.903 218.266 296.511V304.959H216.298ZM246.064 308.799L253.936 287.919H255.712L247.84 308.799H246.064ZM260.646 303.807V301.911L267.87 297.039V296.943L260.646 292.071V290.175L269.598 296.247V297.735L260.646 303.807Z" fill="#4E5769"/>
<rect x="51" y="328.959" width="328" height="86" rx="6" fill="#FDE7C7"/>
<path d="M116.548 365.607V364.479H117.772C118.38 364.479 118.876 364.439 119.26 364.359C119.66 364.279 119.972 364.151 120.196 363.975C120.42 363.799 120.572 363.567 120.652 363.279C120.732 363.007 120.772 362.679 120.772 362.295C120.772 361.559 120.748 360.855 120.7 360.183C120.652 359.511 120.628 358.767 120.628 357.951C120.628 357.167 120.78 356.575 121.084 356.175C121.388 355.759 121.956 355.479 122.788 355.335V355.239C121.956 355.095 121.388 354.823 121.084 354.423C120.78 354.007 120.628 353.407 120.628 352.623C120.628 351.871 120.652 351.135 120.7 350.415C120.748 349.679 120.772 348.967 120.772 348.279C120.772 347.895 120.732 347.567 120.652 347.295C120.572 347.007 120.42 346.775 120.196 346.599C119.972 346.423 119.66 346.295 119.26 346.215C118.876 346.135 118.38 346.095 117.772 346.095H116.548V344.967H118.012C118.764 344.967 119.412 345.023 119.956 345.135C120.516 345.231 120.98 345.399 121.348 345.639C121.716 345.879 121.988 346.207 122.164 346.623C122.34 347.023 122.428 347.535 122.428 348.159C122.428 348.991 122.388 349.783 122.308 350.535C122.244 351.271 122.212 352.023 122.212 352.791C122.212 353.031 122.26 353.263 122.356 353.487C122.452 353.695 122.628 353.887 122.884 354.063C123.14 354.239 123.492 354.383 123.94 354.495C124.404 354.607 124.988 354.663 125.692 354.663V355.911C124.988 355.911 124.404 355.967 123.94 356.079C123.492 356.191 123.14 356.335 122.884 356.511C122.628 356.687 122.452 356.887 122.356 357.111C122.26 357.319 122.212 357.543 122.212 357.783C122.212 358.183 122.22 358.567 122.236 358.935C122.268 359.303 122.292 359.671 122.308 360.039C122.34 360.407 122.364 360.791 122.38 361.191C122.412 361.575 122.428 361.983 122.428 362.415C122.428 363.039 122.34 363.551 122.164 363.951C121.988 364.367 121.716 364.695 121.348 364.935C120.98 365.175 120.516 365.343 119.956 365.439C119.412 365.551 118.764 365.607 118.012 365.607H116.548ZM73.376 402.607V401.479H74.6C75.208 401.479 75.704 401.439 76.088 401.359C76.488 401.279 76.8 401.151 77.024 400.975C77.248 400.799 77.4 400.567 77.48 400.279C77.56 400.007 77.6 399.679 77.6 399.295C77.6 398.559 77.576 397.855 77.528 397.183C77.48 396.511 77.456 395.767 77.456 394.951C77.456 394.167 77.608 393.575 77.912 393.175C78.216 392.759 78.784 392.479 79.616 392.335V392.239C78.784 392.095 78.216 391.823 77.912 391.423C77.608 391.007 77.456 390.407 77.456 389.623C77.456 388.871 77.48 388.135 77.528 387.415C77.576 386.679 77.6 385.967 77.6 385.279C77.6 384.895 77.56 384.567 77.48 384.295C77.4 384.007 77.248 383.775 77.024 383.599C76.8 383.423 76.488 383.295 76.088 383.215C75.704 383.135 75.208 383.095 74.6 383.095H73.376V381.967H74.84C75.592 381.967 76.24 382.023 76.784 382.135C77.344 382.231 77.808 382.399 78.176 382.639C78.544 382.879 78.816 383.207 78.992 383.623C79.168 384.023 79.256 384.535 79.256 385.159C79.256 385.991 79.216 386.783 79.136 387.535C79.072 388.271 79.04 389.023 79.04 389.791C79.04 390.031 79.088 390.263 79.184 390.487C79.28 390.695 79.456 390.887 79.712 391.063C79.968 391.239 80.32 391.383 80.768 391.495C81.232 391.607 81.816 391.663 82.52 391.663V392.911C81.816 392.911 81.232 392.967 80.768 393.079C80.32 393.191 79.968 393.335 79.712 393.511C79.456 393.687 79.28 393.887 79.184 394.111C79.088 394.319 79.04 394.543 79.04 394.783C79.04 395.183 79.048 395.567 79.064 395.935C79.096 396.303 79.12 396.671 79.136 397.039C79.168 397.407 79.192 397.791 79.208 398.191C79.24 398.575 79.256 398.983 79.256 399.415C79.256 400.039 79.168 400.551 78.992 400.951C78.816 401.367 78.544 401.695 78.176 401.935C77.808 402.175 77.344 402.343 76.784 402.439C76.24 402.551 75.592 402.607 74.84 402.607H73.376Z" fill="#4E5769"/>
<rect x="31" y="43.9594" width="368" height="391" rx="6" stroke="white" stroke-linejoin="bevel"/>
</svg>
