<svg width="430" height="437" viewBox="0 0 430 437" fill="none" xmlns="http://www.w3.org/2000/svg">
<rect x="45" y="43.9594" width="354" height="391" rx="6" fill="#23252F"/>
<rect x="65" y="63.9594" width="314" height="86" rx="6" fill="#FDE7C7"/>
<path d="M92.32 97.2474C91.168 97.2474 90.104 97.0394 89.128 96.6234C88.168 96.2074 87.328 95.6394 86.608 94.9194L87.808 93.5274C88.4 94.1194 89.088 94.5994 89.872 94.9674C90.656 95.3194 91.504 95.4954 92.416 95.4954C93.504 95.4954 94.344 95.2634 94.936 94.7994C95.544 94.3354 95.848 93.7354 95.848 92.9994C95.848 92.5834 95.776 92.2314 95.632 91.9434C95.488 91.6554 95.288 91.4074 95.032 91.1994C94.776 90.9914 94.472 90.8074 94.12 90.6474C93.784 90.4874 93.416 90.3194 93.016 90.1434L90.76 89.1594C90.36 88.9994 89.96 88.8074 89.56 88.5834C89.16 88.3594 88.792 88.0874 88.456 87.7674C88.136 87.4474 87.872 87.0714 87.664 86.6394C87.456 86.1913 87.352 85.6793 87.352 85.1034C87.352 84.5114 87.48 83.9594 87.736 83.4474C87.992 82.9353 88.344 82.4953 88.792 82.1273C89.256 81.7434 89.8 81.4474 90.424 81.2393C91.064 81.0313 91.76 80.9273 92.512 80.9273C93.504 80.9273 94.416 81.1113 95.248 81.4793C96.08 81.8313 96.784 82.2954 97.36 82.8714L96.304 84.1673C95.792 83.7033 95.224 83.3433 94.6 83.0874C93.976 82.8154 93.256 82.6793 92.44 82.6793C91.528 82.6793 90.792 82.8874 90.232 83.3034C89.672 83.7034 89.392 84.2634 89.392 84.9834C89.392 85.3674 89.472 85.6953 89.632 85.9673C89.808 86.2233 90.024 86.4553 90.28 86.6634C90.552 86.8554 90.856 87.0234 91.192 87.1674C91.528 87.3114 91.864 87.4554 92.2 87.5994L94.408 88.5594C94.888 88.7513 95.336 88.9753 95.752 89.2313C96.184 89.4714 96.552 89.7594 96.856 90.0954C97.176 90.4154 97.424 90.7994 97.6 91.2474C97.792 91.6794 97.888 92.1834 97.888 92.7594C97.888 93.3834 97.76 93.9674 97.504 94.5114C97.248 95.0554 96.88 95.5354 96.4 95.9514C95.92 96.3514 95.336 96.6714 94.648 96.9114C93.96 97.1354 93.184 97.2474 92.32 97.2474ZM106.975 96.9594V86.9033H101.551V85.2953H108.943V96.9594H106.975ZM107.743 82.8474C107.295 82.8474 106.919 82.7114 106.615 82.4394C106.311 82.1514 106.159 81.7754 106.159 81.3114C106.159 80.8473 106.311 80.4793 106.615 80.2074C106.919 79.9194 107.295 79.7754 107.743 79.7754C108.191 79.7754 108.567 79.9194 108.871 80.2074C109.175 80.4793 109.327 80.8473 109.327 81.3114C109.327 81.7754 109.175 82.1514 108.871 82.4394C108.567 82.7114 108.191 82.8474 107.743 82.8474ZM120.285 97.2474C119.517 97.2474 118.821 97.1114 118.197 96.8394C117.589 96.5674 117.061 96.1754 116.613 95.6634C116.165 95.1354 115.821 94.4954 115.581 93.7434C115.341 92.9914 115.221 92.1274 115.221 91.1514C115.221 90.2074 115.365 89.3593 115.653 88.6074C115.957 87.8393 116.349 87.1913 116.829 86.6634C117.325 86.1354 117.893 85.7274 118.533 85.4394C119.173 85.1514 119.837 85.0073 120.525 85.0073C121.229 85.0073 121.853 85.1433 122.397 85.4153C122.957 85.6713 123.493 86.0393 124.005 86.5193H124.077L123.981 84.3593V79.8714H125.949V96.9594H124.317L124.149 95.4234H124.077C123.597 95.9194 123.021 96.3514 122.349 96.7194C121.693 97.0714 121.005 97.2474 120.285 97.2474ZM120.693 95.5914C121.845 95.5914 122.941 95.0074 123.981 93.8394V88.0314C123.453 87.5354 122.933 87.1834 122.421 86.9754C121.925 86.7674 121.421 86.6634 120.909 86.6634C120.397 86.6634 119.917 86.7754 119.469 86.9994C119.037 87.2074 118.653 87.5114 118.317 87.9114C117.997 88.2954 117.741 88.7594 117.549 89.3034C117.357 89.8474 117.261 90.4554 117.261 91.1274C117.261 92.5354 117.557 93.6314 118.149 94.4154C118.757 95.1994 119.605 95.5914 120.693 95.5914ZM136.092 97.2474C135.212 97.2474 134.388 97.1114 133.62 96.8394C132.868 96.5674 132.204 96.1674 131.628 95.6394C131.068 95.1114 130.62 94.4714 130.284 93.7194C129.964 92.9514 129.804 92.0794 129.804 91.1034C129.804 90.1594 129.964 89.3114 130.284 88.5594C130.62 87.8074 131.06 87.1674 131.604 86.6394C132.164 86.1114 132.796 85.7113 133.5 85.4394C134.22 85.1514 134.972 85.0073 135.756 85.0073C136.588 85.0073 137.332 85.1433 137.988 85.4153C138.66 85.6713 139.22 86.0393 139.668 86.5193C140.132 86.9993 140.484 87.5754 140.724 88.2474C140.964 88.9194 141.084 89.6634 141.084 90.4794C141.084 90.7034 141.076 90.9194 141.06 91.1274C141.044 91.3354 141.02 91.5194 140.988 91.6794H131.796C131.924 93.0074 132.404 94.0074 133.236 94.6794C134.084 95.3354 135.116 95.6634 136.332 95.6634C137.036 95.6634 137.668 95.5674 138.228 95.3754C138.804 95.1674 139.356 94.8954 139.884 94.5594L140.604 95.8554C140.028 96.2394 139.364 96.5674 138.612 96.8394C137.876 97.1114 137.036 97.2474 136.092 97.2474ZM135.804 86.5673C135.324 86.5673 134.86 86.6474 134.412 86.8074C133.98 86.9674 133.588 87.1994 133.236 87.5034C132.884 87.7914 132.588 88.1594 132.348 88.6074C132.108 89.0554 131.94 89.5674 131.844 90.1434H139.284C139.204 88.9434 138.852 88.0473 138.228 87.4553C137.62 86.8633 136.812 86.5673 135.804 86.5673ZM150.243 97.2474C149.683 97.2474 149.075 97.1114 148.419 96.8394C147.779 96.5514 147.179 96.1594 146.619 95.6634H146.547L146.379 96.9594H144.795V79.8714H146.763V84.5274L146.691 86.7833H146.763C147.291 86.2393 147.899 85.8073 148.587 85.4874C149.291 85.1674 149.987 85.0073 150.675 85.0073C151.459 85.0073 152.155 85.1514 152.763 85.4394C153.371 85.7113 153.875 86.1114 154.275 86.6394C154.691 87.1514 155.003 87.7753 155.211 88.5113C155.419 89.2314 155.523 90.0394 155.523 90.9354C155.523 91.9274 155.379 92.8154 155.091 93.5994C154.803 94.3834 154.411 95.0474 153.915 95.5914C153.435 96.1354 152.875 96.5514 152.235 96.8394C151.595 97.1114 150.931 97.2474 150.243 97.2474ZM149.931 95.5914C150.443 95.5914 150.915 95.4874 151.347 95.2794C151.779 95.0554 152.155 94.7514 152.475 94.3674C152.795 93.9674 153.043 93.4794 153.219 92.9034C153.395 92.3274 153.483 91.6794 153.483 90.9594C153.483 90.3194 153.419 89.7354 153.291 89.2074C153.163 88.6794 152.963 88.2314 152.691 87.8634C152.435 87.4794 152.099 87.1834 151.683 86.9754C151.267 86.7674 150.771 86.6634 150.195 86.6634C149.683 86.6634 149.131 86.8074 148.539 87.0954C147.963 87.3674 147.371 87.8074 146.763 88.4154V94.2234C147.323 94.7194 147.883 95.0714 148.443 95.2794C149.019 95.4874 149.515 95.5914 149.931 95.5914ZM162.857 97.2474C162.313 97.2474 161.801 97.1674 161.321 97.0074C160.841 96.8634 160.417 96.6554 160.049 96.3834C159.697 96.0954 159.417 95.7514 159.209 95.3514C159.001 94.9354 158.897 94.4634 158.897 93.9354C158.897 93.2794 159.049 92.7114 159.353 92.2314C159.673 91.7354 160.169 91.3114 160.841 90.9594C161.529 90.6074 162.409 90.3194 163.481 90.0954C164.553 89.8714 165.841 89.6954 167.345 89.5673C167.329 89.1674 167.265 88.7914 167.153 88.4394C167.041 88.0874 166.865 87.7834 166.625 87.5274C166.385 87.2554 166.065 87.0394 165.665 86.8794C165.281 86.7194 164.809 86.6394 164.249 86.6394C163.481 86.6394 162.745 86.7914 162.041 87.0954C161.337 87.3834 160.713 87.6954 160.169 88.0314L159.401 86.6873C159.689 86.4953 160.025 86.3033 160.409 86.1114C160.809 85.9033 161.225 85.7193 161.657 85.5594C162.105 85.3994 162.577 85.2714 163.073 85.1753C163.569 85.0633 164.073 85.0073 164.585 85.0073C166.185 85.0073 167.369 85.4474 168.137 86.3274C168.921 87.1913 169.313 88.3514 169.313 89.8074V96.9594H167.705L167.537 95.3754H167.465C166.809 95.8874 166.081 96.3274 165.281 96.6954C164.497 97.0634 163.689 97.2474 162.857 97.2474ZM163.385 95.6634C164.057 95.6634 164.713 95.5194 165.353 95.2314C166.009 94.9274 166.673 94.4954 167.345 93.9354V90.8634C166.097 90.9594 165.049 91.0954 164.201 91.2714C163.369 91.4474 162.697 91.6634 162.185 91.9194C161.689 92.1594 161.337 92.4394 161.129 92.7594C160.921 93.0634 160.817 93.4074 160.817 93.7914C160.817 94.1274 160.889 94.4154 161.033 94.6554C161.177 94.8794 161.361 95.0714 161.585 95.2314C161.825 95.3754 162.097 95.4874 162.401 95.5674C162.721 95.6314 163.049 95.6634 163.385 95.6634ZM174.848 96.9594V85.2953H176.48L176.648 88.0554H176.72C177.328 87.1114 178.072 86.3674 178.952 85.8234C179.848 85.2794 180.84 85.0073 181.928 85.0073C182.36 85.0073 182.76 85.0473 183.128 85.1273C183.496 85.1913 183.864 85.3114 184.232 85.4874L183.776 87.1914C183.36 87.0474 183.008 86.9434 182.72 86.8794C182.448 86.8154 182.08 86.7833 181.616 86.7833C180.736 86.7833 179.888 87.0394 179.072 87.5514C178.272 88.0473 177.52 88.9033 176.816 90.1193V96.9594H174.848ZM196.126 101.183C194.462 99.8874 193.142 98.3274 192.166 96.5034C191.206 94.6794 190.726 92.6074 190.726 90.2873C190.726 87.9674 191.206 85.8954 192.166 84.0714C193.142 82.2474 194.462 80.6873 196.126 79.3913L197.206 80.3993C195.59 81.7593 194.398 83.2394 193.63 84.8394C192.878 86.4394 192.502 88.2553 192.502 90.2873C192.502 92.3194 192.878 94.1354 193.63 95.7354C194.398 97.3354 195.59 98.8154 197.206 100.175L196.126 101.183ZM204.133 101.183L203.053 100.175C204.669 98.8154 205.853 97.3354 206.605 95.7354C207.373 94.1354 207.757 92.3194 207.757 90.2873C207.757 88.2553 207.373 86.4394 206.605 84.8394C205.853 83.2394 204.669 81.7593 203.053 80.3993L204.133 79.3913C205.797 80.6873 207.109 82.2474 208.069 84.0714C209.045 85.8954 209.533 87.9674 209.533 90.2873C209.533 92.6074 209.045 94.6794 208.069 96.5034C207.109 98.3274 205.797 99.8874 204.133 101.183ZM239.49 100.607C238.738 100.607 238.082 100.551 237.522 100.439C236.962 100.343 236.498 100.175 236.13 99.9354C235.762 99.6954 235.49 99.3674 235.314 98.9514C235.138 98.5514 235.05 98.0394 235.05 97.4154C235.05 96.9834 235.058 96.5754 235.074 96.1914C235.106 95.7914 235.13 95.4074 235.146 95.0394C235.178 94.6714 235.202 94.3034 235.218 93.9354C235.25 93.5674 235.266 93.1834 235.266 92.7834C235.266 92.5434 235.218 92.3194 235.122 92.1114C235.026 91.8874 234.85 91.6874 234.594 91.5114C234.338 91.3354 233.978 91.1914 233.514 91.0794C233.066 90.9674 232.49 90.9114 231.786 90.9114V89.6634C232.49 89.6634 233.066 89.6074 233.514 89.4954C233.978 89.3834 234.338 89.2394 234.594 89.0633C234.85 88.8874 235.026 88.6954 235.122 88.4874C235.218 88.2634 235.266 88.0314 235.266 87.7913C235.266 87.0234 235.226 86.2714 235.146 85.5354C235.082 84.7834 235.05 83.9914 235.05 83.1593C235.05 82.5353 235.138 82.0233 235.314 81.6233C235.49 81.2073 235.762 80.8794 236.13 80.6394C236.498 80.3993 236.962 80.2313 237.522 80.1353C238.082 80.0234 238.738 79.9674 239.49 79.9674H240.954V81.0954H239.706C239.098 81.0954 238.594 81.1354 238.194 81.2154C237.81 81.2954 237.506 81.4233 237.282 81.5993C237.074 81.7754 236.93 82.0074 236.85 82.2954C236.77 82.5673 236.73 82.8953 236.73 83.2793C236.73 83.9674 236.754 84.6794 236.802 85.4153C236.85 86.1353 236.874 86.8714 236.874 87.6233C236.874 88.4074 236.714 89.0074 236.394 89.4234C236.09 89.8234 235.522 90.0954 234.69 90.2394V90.3354C235.522 90.4794 236.09 90.7594 236.394 91.1754C236.714 91.5754 236.874 92.1674 236.874 92.9514C236.874 93.7674 236.85 94.5114 236.802 95.1834C236.754 95.8554 236.73 96.5594 236.73 97.2954C236.73 97.6794 236.77 98.0074 236.85 98.2794C236.93 98.5674 237.074 98.7994 237.282 98.9754C237.506 99.1514 237.81 99.2794 238.194 99.3594C238.594 99.4394 239.098 99.4794 239.706 99.4794H240.954V100.607H239.49ZM121.365 133.959V123.903H115.941V122.295H123.333V133.959H121.365ZM122.133 119.847C121.685 119.847 121.309 119.711 121.005 119.439C120.701 119.151 120.549 118.775 120.549 118.311C120.549 117.847 120.701 117.479 121.005 117.207C121.309 116.919 121.685 116.775 122.133 116.775C122.581 116.775 122.957 116.919 123.261 117.207C123.565 117.479 123.717 117.847 123.717 118.311C123.717 118.775 123.565 119.151 123.261 119.439C122.957 119.711 122.581 119.847 122.133 119.847ZM133.98 133.959V123.903H130.644V122.415L133.98 122.295V121.311C133.98 119.887 134.356 118.743 135.108 117.879C135.876 117.015 137.068 116.583 138.684 116.583C139.836 116.583 140.956 116.807 142.044 117.255L141.588 118.743C141.108 118.519 140.66 118.375 140.244 118.311C139.844 118.231 139.388 118.191 138.876 118.191C137.82 118.191 137.06 118.463 136.596 119.007C136.148 119.535 135.924 120.279 135.924 121.239V122.295H140.82V123.903H135.924V133.959H133.98ZM167.345 138.183C165.681 136.887 164.361 135.327 163.385 133.503C162.425 131.679 161.945 129.607 161.945 127.287C161.945 124.967 162.425 122.895 163.385 121.071C164.361 119.247 165.681 117.687 167.345 116.391L168.425 117.399C166.809 118.759 165.617 120.239 164.849 121.839C164.097 123.439 163.721 125.255 163.721 127.287C163.721 129.319 164.097 131.135 164.849 132.735C165.617 134.335 166.809 135.815 168.425 137.175L167.345 138.183ZM178.928 133.959V123.903H173.504V122.295H180.896V133.959H178.928ZM179.696 119.847C179.248 119.847 178.872 119.711 178.568 119.439C178.264 119.151 178.112 118.775 178.112 118.311C178.112 117.847 178.264 117.479 178.568 117.207C178.872 116.919 179.248 116.775 179.696 116.775C180.144 116.775 180.52 116.919 180.824 117.207C181.128 117.479 181.28 117.847 181.28 118.311C181.28 118.775 181.128 119.151 180.824 119.439C180.52 119.711 180.144 119.847 179.696 119.847ZM193.174 134.247C192.022 134.247 190.958 134.071 189.982 133.719C189.006 133.351 188.158 132.919 187.438 132.423L188.35 131.127C189.022 131.607 189.758 131.991 190.558 132.279C191.374 132.567 192.326 132.711 193.414 132.711C194.406 132.711 195.142 132.535 195.622 132.183C196.118 131.815 196.366 131.383 196.366 130.887C196.366 130.663 196.326 130.455 196.246 130.263C196.166 130.071 195.99 129.887 195.718 129.711C195.462 129.535 195.094 129.367 194.614 129.207C194.134 129.047 193.502 128.887 192.718 128.727C191.198 128.407 190.054 127.983 189.286 127.455C188.534 126.911 188.158 126.199 188.158 125.319C188.158 124.855 188.262 124.423 188.47 124.023C188.678 123.607 188.982 123.255 189.382 122.967C189.798 122.663 190.302 122.431 190.894 122.271C191.502 122.095 192.206 122.007 193.006 122.007C193.902 122.007 194.766 122.159 195.598 122.463C196.43 122.751 197.134 123.095 197.71 123.495L196.75 124.767C196.206 124.399 195.606 124.103 194.95 123.879C194.294 123.655 193.59 123.543 192.838 123.543C191.846 123.543 191.15 123.711 190.75 124.047C190.35 124.383 190.15 124.775 190.15 125.223C190.15 125.735 190.414 126.127 190.942 126.399C191.47 126.655 192.334 126.911 193.534 127.167C194.51 127.375 195.31 127.599 195.934 127.839C196.558 128.063 197.046 128.319 197.398 128.607C197.766 128.895 198.014 129.215 198.142 129.567C198.286 129.919 198.358 130.319 198.358 130.767C198.358 131.247 198.246 131.695 198.022 132.111C197.798 132.527 197.462 132.895 197.014 133.215C196.582 133.535 196.038 133.783 195.382 133.959C194.742 134.151 194.006 134.247 193.174 134.247ZM203.341 133.959V118.215H205.309V132.255H213.109V133.959H203.341ZM221.716 134.247C220.948 134.247 220.212 134.111 219.508 133.839C218.82 133.567 218.212 133.175 217.684 132.663C217.156 132.135 216.732 131.495 216.412 130.743C216.108 129.975 215.956 129.111 215.956 128.151C215.956 127.175 216.108 126.311 216.412 125.559C216.732 124.791 217.156 124.143 217.684 123.615C218.212 123.087 218.82 122.687 219.508 122.415C220.212 122.143 220.948 122.007 221.716 122.007C222.484 122.007 223.212 122.143 223.9 122.415C224.604 122.687 225.22 123.087 225.748 123.615C226.276 124.143 226.692 124.791 226.996 125.559C227.316 126.311 227.476 127.175 227.476 128.151C227.476 129.111 227.316 129.975 226.996 130.743C226.692 131.495 226.276 132.135 225.748 132.663C225.22 133.175 224.604 133.567 223.9 133.839C223.212 134.111 222.484 134.247 221.716 134.247ZM221.716 132.615C222.276 132.615 222.78 132.511 223.228 132.303C223.692 132.079 224.084 131.775 224.404 131.391C224.74 130.991 224.996 130.519 225.172 129.975C225.348 129.431 225.436 128.823 225.436 128.151C225.436 127.479 225.348 126.871 225.172 126.327C224.996 125.767 224.74 125.287 224.404 124.887C224.084 124.487 223.692 124.183 223.228 123.975C222.78 123.751 222.276 123.639 221.716 123.639C221.156 123.639 220.644 123.751 220.18 123.975C219.732 124.183 219.34 124.487 219.004 124.887C218.684 125.287 218.436 125.767 218.26 126.327C218.084 126.871 217.996 127.479 217.996 128.151C217.996 128.823 218.084 129.431 218.26 129.975C218.436 130.519 218.684 130.991 219.004 131.391C219.34 131.775 219.732 132.079 220.18 132.303C220.644 132.511 221.156 132.615 221.716 132.615ZM236.01 139.335C234.298 139.335 232.97 139.055 232.026 138.495C231.098 137.935 230.634 137.135 230.634 136.095C230.634 135.631 230.794 135.175 231.114 134.727C231.45 134.279 231.93 133.871 232.554 133.503V133.407C232.234 133.231 231.954 132.991 231.714 132.687C231.474 132.383 231.354 131.983 231.354 131.487C231.354 131.119 231.474 130.743 231.714 130.359C231.954 129.959 232.298 129.607 232.746 129.303V129.207C232.346 128.903 232.002 128.503 231.714 128.007C231.442 127.495 231.306 126.887 231.306 126.183C231.306 125.543 231.426 124.967 231.666 124.455C231.922 123.943 232.258 123.511 232.674 123.159C233.09 122.791 233.57 122.511 234.114 122.319C234.674 122.111 235.266 122.007 235.89 122.007C236.53 122.007 237.106 122.103 237.618 122.295H242.442V123.903H239.418C239.69 124.175 239.922 124.519 240.114 124.935C240.306 125.351 240.402 125.791 240.402 126.255C240.402 126.879 240.282 127.439 240.042 127.935C239.818 128.431 239.498 128.855 239.082 129.207C238.682 129.543 238.202 129.807 237.642 129.999C237.098 130.175 236.514 130.263 235.89 130.263C235.586 130.263 235.258 130.231 234.906 130.167C234.57 130.087 234.242 129.975 233.922 129.831C233.314 130.215 233.01 130.663 233.01 131.175C233.01 131.639 233.218 131.983 233.634 132.207C234.066 132.415 234.666 132.519 235.434 132.519H238.05C239.554 132.519 240.666 132.727 241.386 133.143C242.122 133.559 242.49 134.263 242.49 135.255C242.49 135.799 242.338 136.319 242.034 136.815C241.73 137.311 241.298 137.743 240.738 138.111C240.178 138.479 239.498 138.775 238.698 138.999C237.898 139.223 237.002 139.335 236.01 139.335ZM235.89 128.943C236.642 128.943 237.274 128.695 237.786 128.199C238.314 127.703 238.578 127.031 238.578 126.183C238.578 125.783 238.506 125.415 238.362 125.079C238.218 124.743 238.026 124.455 237.786 124.215C237.546 123.975 237.258 123.791 236.922 123.663C236.602 123.519 236.258 123.447 235.89 123.447C235.522 123.447 235.17 123.519 234.834 123.663C234.514 123.791 234.234 123.975 233.994 124.215C233.754 124.455 233.562 124.743 233.418 125.079C233.274 125.415 233.202 125.783 233.202 126.183C233.202 127.031 233.466 127.703 233.994 128.199C234.522 128.695 235.154 128.943 235.89 128.943ZM236.154 137.895C236.826 137.895 237.434 137.831 237.978 137.703C238.522 137.575 238.986 137.399 239.37 137.175C239.754 136.967 240.042 136.719 240.234 136.431C240.442 136.159 240.546 135.871 240.546 135.567C240.546 135.007 240.322 134.631 239.874 134.439C239.442 134.247 238.778 134.151 237.882 134.151H235.602C235.266 134.151 234.946 134.135 234.642 134.103C234.354 134.087 234.082 134.039 233.826 133.959C233.266 134.263 232.874 134.575 232.65 134.895C232.442 135.231 232.338 135.567 232.338 135.903C232.338 136.511 232.658 136.991 233.298 137.343C233.954 137.711 234.906 137.895 236.154 137.895ZM250.401 139.335C248.689 139.335 247.361 139.055 246.417 138.495C245.489 137.935 245.025 137.135 245.025 136.095C245.025 135.631 245.185 135.175 245.505 134.727C245.841 134.279 246.321 133.871 246.945 133.503V133.407C246.625 133.231 246.345 132.991 246.105 132.687C245.865 132.383 245.745 131.983 245.745 131.487C245.745 131.119 245.865 130.743 246.105 130.359C246.345 129.959 246.689 129.607 247.137 129.303V129.207C246.737 128.903 246.393 128.503 246.105 128.007C245.833 127.495 245.697 126.887 245.697 126.183C245.697 125.543 245.817 124.967 246.057 124.455C246.313 123.943 246.649 123.511 247.065 123.159C247.481 122.791 247.961 122.511 248.505 122.319C249.065 122.111 249.657 122.007 250.281 122.007C250.921 122.007 251.497 122.103 252.009 122.295H256.833V123.903H253.809C254.081 124.175 254.313 124.519 254.505 124.935C254.697 125.351 254.793 125.791 254.793 126.255C254.793 126.879 254.673 127.439 254.433 127.935C254.209 128.431 253.889 128.855 253.473 129.207C253.073 129.543 252.593 129.807 252.033 129.999C251.489 130.175 250.905 130.263 250.281 130.263C249.977 130.263 249.649 130.231 249.297 130.167C248.961 130.087 248.633 129.975 248.313 129.831C247.705 130.215 247.401 130.663 247.401 131.175C247.401 131.639 247.609 131.983 248.025 132.207C248.457 132.415 249.057 132.519 249.825 132.519H252.441C253.945 132.519 255.057 132.727 255.777 133.143C256.513 133.559 256.881 134.263 256.881 135.255C256.881 135.799 256.729 136.319 256.425 136.815C256.121 137.311 255.689 137.743 255.129 138.111C254.569 138.479 253.889 138.775 253.089 138.999C252.289 139.223 251.393 139.335 250.401 139.335ZM250.281 128.943C251.033 128.943 251.665 128.695 252.177 128.199C252.705 127.703 252.969 127.031 252.969 126.183C252.969 125.783 252.897 125.415 252.753 125.079C252.609 124.743 252.417 124.455 252.177 124.215C251.937 123.975 251.649 123.791 251.313 123.663C250.993 123.519 250.649 123.447 250.281 123.447C249.913 123.447 249.561 123.519 249.225 123.663C248.905 123.791 248.625 123.975 248.385 124.215C248.145 124.455 247.953 124.743 247.809 125.079C247.665 125.415 247.593 125.783 247.593 126.183C247.593 127.031 247.857 127.703 248.385 128.199C248.913 128.695 249.545 128.943 250.281 128.943ZM250.545 137.895C251.217 137.895 251.825 137.831 252.369 137.703C252.913 137.575 253.377 137.399 253.761 137.175C254.145 136.967 254.433 136.719 254.625 136.431C254.833 136.159 254.937 135.871 254.937 135.567C254.937 135.007 254.713 134.631 254.265 134.439C253.833 134.247 253.169 134.151 252.273 134.151H249.993C249.657 134.151 249.337 134.135 249.033 134.103C248.745 134.087 248.473 134.039 248.217 133.959C247.657 134.263 247.265 134.575 247.041 134.895C246.833 135.231 246.729 135.567 246.729 135.903C246.729 136.511 247.049 136.991 247.689 137.343C248.345 137.711 249.297 137.895 250.545 137.895ZM265.608 134.247C264.728 134.247 263.904 134.111 263.136 133.839C262.384 133.567 261.72 133.167 261.144 132.639C260.584 132.111 260.136 131.471 259.8 130.719C259.48 129.951 259.32 129.079 259.32 128.103C259.32 127.159 259.48 126.311 259.8 125.559C260.136 124.807 260.576 124.167 261.12 123.639C261.68 123.111 262.312 122.711 263.016 122.439C263.736 122.151 264.488 122.007 265.272 122.007C266.104 122.007 266.848 122.143 267.504 122.415C268.176 122.671 268.736 123.039 269.184 123.519C269.648 123.999 270 124.575 270.24 125.247C270.48 125.919 270.6 126.663 270.6 127.479C270.6 127.703 270.592 127.919 270.576 128.127C270.56 128.335 270.536 128.519 270.504 128.679H261.312C261.44 130.007 261.92 131.007 262.752 131.679C263.6 132.335 264.632 132.663 265.848 132.663C266.552 132.663 267.184 132.567 267.744 132.375C268.32 132.167 268.872 131.895 269.4 131.559L270.12 132.855C269.544 133.239 268.88 133.567 268.128 133.839C267.392 134.111 266.552 134.247 265.608 134.247ZM265.32 123.567C264.84 123.567 264.376 123.647 263.928 123.807C263.496 123.967 263.104 124.199 262.752 124.503C262.4 124.791 262.104 125.159 261.864 125.607C261.624 126.055 261.456 126.567 261.36 127.143H268.8C268.72 125.943 268.368 125.047 267.744 124.455C267.136 123.863 266.328 123.567 265.32 123.567ZM278.582 134.247C277.814 134.247 277.118 134.111 276.494 133.839C275.886 133.567 275.358 133.175 274.91 132.663C274.462 132.135 274.118 131.495 273.878 130.743C273.638 129.991 273.518 129.127 273.518 128.151C273.518 127.207 273.662 126.359 273.95 125.607C274.254 124.839 274.646 124.191 275.126 123.663C275.622 123.135 276.19 122.727 276.83 122.439C277.47 122.151 278.134 122.007 278.822 122.007C279.526 122.007 280.15 122.143 280.694 122.415C281.254 122.671 281.79 123.039 282.302 123.519H282.374L282.278 121.359V116.871H284.246V133.959H282.614L282.446 132.423H282.374C281.894 132.919 281.318 133.351 280.646 133.719C279.99 134.071 279.302 134.247 278.582 134.247ZM278.99 132.591C280.142 132.591 281.238 132.007 282.278 130.839V125.031C281.75 124.535 281.23 124.183 280.718 123.975C280.222 123.767 279.718 123.663 279.206 123.663C278.694 123.663 278.214 123.775 277.766 123.999C277.334 124.207 276.95 124.511 276.614 124.911C276.294 125.295 276.038 125.759 275.846 126.303C275.654 126.847 275.558 127.455 275.558 128.127C275.558 129.535 275.854 130.631 276.446 131.415C277.054 132.199 277.902 132.591 278.99 132.591ZM288.749 133.959V132.255H292.661V119.895H288.749V118.215H298.589V119.895H294.677V132.255H298.589V133.959H288.749ZM303.091 133.959V122.295H304.723L304.891 124.287H304.987C305.595 123.631 306.251 123.087 306.955 122.655C307.659 122.223 308.467 122.007 309.379 122.007C310.771 122.007 311.787 122.407 312.427 123.207C313.083 123.991 313.411 125.159 313.411 126.711V133.959H311.443V126.975C311.443 125.871 311.235 125.055 310.819 124.527C310.403 123.983 309.715 123.711 308.755 123.711C308.403 123.711 308.075 123.759 307.771 123.855C307.483 123.935 307.195 124.063 306.907 124.239C306.619 124.415 306.323 124.639 306.019 124.911C305.715 125.167 305.395 125.471 305.059 125.823V133.959H303.091ZM319.258 138.183L318.178 137.175C319.794 135.815 320.978 134.335 321.73 132.735C322.498 131.135 322.882 129.319 322.882 127.287C322.882 125.255 322.498 123.439 321.73 121.839C320.978 120.239 319.794 118.759 318.178 117.399L319.258 116.391C320.922 117.687 322.234 119.247 323.194 121.071C324.17 122.895 324.658 124.967 324.658 127.287C324.658 129.607 324.17 131.679 323.194 133.503C322.234 135.327 320.922 136.887 319.258 138.183ZM354.615 137.607C353.863 137.607 353.207 137.551 352.647 137.439C352.087 137.343 351.623 137.175 351.255 136.935C350.887 136.695 350.615 136.367 350.439 135.951C350.263 135.551 350.175 135.039 350.175 134.415C350.175 133.983 350.183 133.575 350.199 133.191C350.231 132.791 350.255 132.407 350.271 132.039C350.303 131.671 350.327 131.303 350.343 130.935C350.375 130.567 350.391 130.183 350.391 129.783C350.391 129.543 350.343 129.319 350.247 129.111C350.151 128.887 349.975 128.687 349.719 128.511C349.463 128.335 349.103 128.191 348.639 128.079C348.191 127.967 347.615 127.911 346.911 127.911V126.663C347.615 126.663 348.191 126.607 348.639 126.495C349.103 126.383 349.463 126.239 349.719 126.063C349.975 125.887 350.151 125.695 350.247 125.487C350.343 125.263 350.391 125.031 350.391 124.791C350.391 124.023 350.351 123.271 350.271 122.535C350.207 121.783 350.175 120.991 350.175 120.159C350.175 119.535 350.263 119.023 350.439 118.623C350.615 118.207 350.887 117.879 351.255 117.639C351.623 117.399 352.087 117.231 352.647 117.135C353.207 117.023 353.863 116.967 354.615 116.967H356.079V118.095H354.831C354.223 118.095 353.719 118.135 353.319 118.215C352.935 118.295 352.631 118.423 352.407 118.599C352.199 118.775 352.055 119.007 351.975 119.295C351.895 119.567 351.855 119.895 351.855 120.279C351.855 120.967 351.879 121.679 351.927 122.415C351.975 123.135 351.999 123.871 351.999 124.623C351.999 125.407 351.839 126.007 351.519 126.423C351.215 126.823 350.647 127.095 349.815 127.239V127.335C350.647 127.479 351.215 127.759 351.519 128.175C351.839 128.575 351.999 129.167 351.999 129.951C351.999 130.767 351.975 131.511 351.927 132.183C351.879 132.855 351.855 133.559 351.855 134.295C351.855 134.679 351.895 135.007 351.975 135.279C352.055 135.567 352.199 135.799 352.407 135.975C352.631 136.151 352.935 136.279 353.319 136.359C353.719 136.439 354.223 136.479 354.831 136.479H356.079V137.607H354.615Z" fill="#4E5769"/>
<rect x="65" y="157.959" width="314" height="49" rx="6" fill="#E7E9FB"/>
<path d="M154.395 189.807L145.443 183.735V182.247L154.395 176.175V178.071L147.171 182.943V183.039L154.395 187.911V189.807ZM159.185 195.879V179.295H160.817L160.985 180.783H161.057C161.601 180.271 162.225 179.847 162.929 179.511C163.649 179.175 164.369 179.007 165.089 179.007C165.873 179.007 166.561 179.151 167.153 179.439C167.761 179.711 168.265 180.111 168.665 180.639C169.081 181.151 169.393 181.775 169.601 182.511C169.809 183.231 169.913 184.047 169.913 184.959C169.913 185.951 169.769 186.839 169.481 187.623C169.193 188.391 168.801 189.047 168.305 189.591C167.825 190.135 167.265 190.551 166.625 190.839C165.985 191.111 165.313 191.247 164.609 191.247C164.065 191.247 163.473 191.119 162.833 190.863C162.209 190.591 161.641 190.215 161.129 189.735H161.057L161.153 191.943V195.879H159.185ZM164.273 189.591C165.329 189.591 166.193 189.183 166.865 188.367C167.537 187.551 167.873 186.415 167.873 184.959C167.873 184.319 167.809 183.735 167.681 183.207C167.553 182.679 167.353 182.231 167.081 181.863C166.825 181.479 166.489 181.183 166.073 180.975C165.657 180.767 165.161 180.663 164.585 180.663C164.073 180.663 163.521 180.807 162.929 181.095C162.353 181.367 161.761 181.807 161.153 182.415V188.223C161.713 188.719 162.273 189.071 162.833 189.279C163.393 189.487 163.873 189.591 164.273 189.591ZM173.912 189.807V187.911L181.136 183.039V182.943L173.912 178.071V176.175L182.864 182.247V183.735L173.912 189.807ZM188.374 190.959L185.974 175.191H188.23L189.382 185.079C189.414 185.415 189.446 185.719 189.478 185.991C189.51 186.263 189.534 186.543 189.55 186.831C189.582 187.103 189.606 187.391 189.622 187.695C189.654 187.999 189.678 188.343 189.694 188.727H189.766C189.83 188.343 189.894 187.999 189.958 187.695C190.022 187.391 190.078 187.103 190.126 186.831C190.19 186.543 190.254 186.263 190.318 185.991C190.382 185.719 190.454 185.423 190.534 185.103L192.07 179.247H193.99L195.478 185.103C195.558 185.423 195.63 185.719 195.694 185.991C195.758 186.263 195.814 186.543 195.862 186.831C195.926 187.103 195.982 187.391 196.03 187.695C196.094 187.999 196.166 188.343 196.246 188.727H196.342C196.358 188.343 196.374 187.999 196.39 187.695C196.422 187.391 196.446 187.103 196.462 186.831C196.494 186.543 196.518 186.263 196.534 185.991C196.566 185.719 196.598 185.423 196.63 185.103L197.734 175.191H199.894L197.59 190.959H195.094L193.558 184.623C193.43 184.143 193.318 183.671 193.222 183.207C193.142 182.743 193.062 182.271 192.982 181.791H192.91C192.83 182.271 192.75 182.743 192.67 183.207C192.59 183.671 192.486 184.143 192.358 184.623L190.822 190.959H188.374ZM208.045 191.247C207.165 191.247 206.341 191.111 205.573 190.839C204.821 190.567 204.157 190.167 203.581 189.639C203.021 189.111 202.573 188.471 202.237 187.719C201.917 186.951 201.757 186.079 201.757 185.103C201.757 184.159 201.917 183.311 202.237 182.559C202.573 181.807 203.013 181.167 203.557 180.639C204.117 180.111 204.749 179.711 205.453 179.439C206.173 179.151 206.925 179.007 207.709 179.007C208.541 179.007 209.285 179.143 209.941 179.415C210.613 179.671 211.173 180.039 211.621 180.519C212.085 180.999 212.437 181.575 212.677 182.247C212.917 182.919 213.037 183.663 213.037 184.479C213.037 184.703 213.029 184.919 213.013 185.127C212.997 185.335 212.973 185.519 212.941 185.679H203.749C203.877 187.007 204.357 188.007 205.189 188.679C206.037 189.335 207.069 189.663 208.285 189.663C208.989 189.663 209.621 189.567 210.181 189.375C210.757 189.167 211.309 188.895 211.837 188.559L212.557 189.855C211.981 190.239 211.317 190.567 210.565 190.839C209.829 191.111 208.989 191.247 208.045 191.247ZM207.757 180.567C207.277 180.567 206.813 180.647 206.365 180.807C205.933 180.967 205.541 181.199 205.189 181.503C204.837 181.791 204.541 182.159 204.301 182.607C204.061 183.055 203.893 183.567 203.797 184.143H211.237C211.157 182.943 210.805 182.047 210.181 181.455C209.573 180.863 208.765 180.567 207.757 180.567ZM224.284 191.247C223.036 191.247 222.084 190.895 221.428 190.191C220.772 189.487 220.444 188.439 220.444 187.047V175.479H216.292V173.871H222.412V187.191C222.412 188.055 222.62 188.679 223.036 189.063C223.452 189.431 224.012 189.615 224.716 189.615C225.404 189.615 226.132 189.439 226.9 189.087L227.404 190.551C226.86 190.775 226.364 190.943 225.916 191.055C225.468 191.183 224.924 191.247 224.284 191.247ZM237.21 191.247C236.298 191.247 235.45 191.111 234.666 190.839C233.898 190.567 233.226 190.175 232.65 189.663C232.074 189.135 231.626 188.495 231.306 187.743C230.986 186.975 230.826 186.111 230.826 185.151C230.826 184.175 230.994 183.311 231.33 182.559C231.682 181.791 232.154 181.143 232.746 180.615C233.338 180.087 234.026 179.687 234.81 179.415C235.61 179.143 236.45 179.007 237.33 179.007C238.29 179.007 239.114 179.175 239.802 179.511C240.506 179.847 241.098 180.247 241.578 180.711L240.594 181.983C240.114 181.567 239.61 181.239 239.082 180.999C238.57 180.759 238.01 180.639 237.402 180.639C236.73 180.639 236.114 180.751 235.554 180.975C234.994 181.183 234.514 181.487 234.114 181.887C233.73 182.287 233.426 182.767 233.202 183.327C232.978 183.871 232.866 184.479 232.866 185.151C232.866 185.823 232.97 186.431 233.178 186.975C233.402 187.519 233.706 187.991 234.09 188.391C234.49 188.775 234.962 189.079 235.506 189.303C236.066 189.511 236.682 189.615 237.354 189.615C238.074 189.615 238.73 189.479 239.322 189.207C239.93 188.919 240.474 188.567 240.954 188.151L241.842 189.423C241.186 189.999 240.466 190.447 239.682 190.767C238.898 191.087 238.074 191.247 237.21 191.247ZM250.497 191.247C249.729 191.247 248.993 191.111 248.289 190.839C247.601 190.567 246.993 190.175 246.465 189.663C245.937 189.135 245.513 188.495 245.193 187.743C244.889 186.975 244.737 186.111 244.737 185.151C244.737 184.175 244.889 183.311 245.193 182.559C245.513 181.791 245.937 181.143 246.465 180.615C246.993 180.087 247.601 179.687 248.289 179.415C248.993 179.143 249.729 179.007 250.497 179.007C251.265 179.007 251.993 179.143 252.681 179.415C253.385 179.687 254.001 180.087 254.529 180.615C255.057 181.143 255.473 181.791 255.777 182.559C256.097 183.311 256.257 184.175 256.257 185.151C256.257 186.111 256.097 186.975 255.777 187.743C255.473 188.495 255.057 189.135 254.529 189.663C254.001 190.175 253.385 190.567 252.681 190.839C251.993 191.111 251.265 191.247 250.497 191.247ZM250.497 189.615C251.057 189.615 251.561 189.511 252.009 189.303C252.473 189.079 252.865 188.775 253.185 188.391C253.521 187.991 253.777 187.519 253.953 186.975C254.129 186.431 254.217 185.823 254.217 185.151C254.217 184.479 254.129 183.871 253.953 183.327C253.777 182.767 253.521 182.287 253.185 181.887C252.865 181.487 252.473 181.183 252.009 180.975C251.561 180.751 251.057 180.639 250.497 180.639C249.937 180.639 249.425 180.751 248.961 180.975C248.513 181.183 248.121 181.487 247.785 181.887C247.465 182.287 247.217 182.767 247.041 183.327C246.865 183.871 246.777 184.479 246.777 185.151C246.777 185.823 246.865 186.431 247.041 186.975C247.217 187.519 247.465 187.991 247.785 188.391C248.121 188.775 248.513 189.079 248.961 189.303C249.425 189.511 249.937 189.615 250.497 189.615ZM259.08 190.959V179.295H260.664L260.832 180.831H260.88C261.184 180.287 261.536 179.847 261.936 179.511C262.336 179.175 262.872 179.007 263.544 179.007C264.68 179.007 265.416 179.679 265.752 181.023C266.088 180.399 266.456 179.911 266.856 179.559C267.272 179.191 267.816 179.007 268.488 179.007C269.304 179.007 269.936 179.319 270.384 179.943C270.848 180.551 271.08 181.439 271.08 182.607V190.959H269.112V182.751C269.112 181.391 268.696 180.711 267.864 180.711C267.448 180.711 267.112 180.863 266.856 181.167C266.6 181.455 266.312 181.903 265.992 182.511V190.959H264.168V182.751C264.168 182.079 264.072 181.575 263.88 181.239C263.704 180.887 263.4 180.711 262.968 180.711C262.552 180.711 262.2 180.863 261.912 181.167C261.624 181.455 261.336 181.903 261.048 182.511V190.959H259.08ZM279.998 191.247C279.118 191.247 278.294 191.111 277.526 190.839C276.774 190.567 276.11 190.167 275.534 189.639C274.974 189.111 274.526 188.471 274.19 187.719C273.87 186.951 273.71 186.079 273.71 185.103C273.71 184.159 273.87 183.311 274.19 182.559C274.526 181.807 274.966 181.167 275.51 180.639C276.07 180.111 276.702 179.711 277.406 179.439C278.126 179.151 278.878 179.007 279.662 179.007C280.494 179.007 281.238 179.143 281.894 179.415C282.566 179.671 283.126 180.039 283.574 180.519C284.038 180.999 284.39 181.575 284.63 182.247C284.87 182.919 284.99 183.663 284.99 184.479C284.99 184.703 284.982 184.919 284.966 185.127C284.95 185.335 284.926 185.519 284.894 185.679H275.702C275.83 187.007 276.31 188.007 277.142 188.679C277.99 189.335 279.022 189.663 280.238 189.663C280.942 189.663 281.574 189.567 282.134 189.375C282.71 189.167 283.262 188.895 283.79 188.559L284.51 189.855C283.934 190.239 283.27 190.567 282.518 190.839C281.782 191.111 280.942 191.247 279.998 191.247ZM279.71 180.567C279.23 180.567 278.766 180.647 278.318 180.807C277.886 180.967 277.494 181.199 277.142 181.503C276.79 181.791 276.494 182.159 276.254 182.607C276.014 183.055 275.846 183.567 275.75 184.143H283.19C283.11 182.943 282.758 182.047 282.134 181.455C281.526 180.863 280.718 180.567 279.71 180.567ZM298.301 189.807L289.349 183.735V182.247L298.301 176.175V178.071L291.077 182.943V183.039L298.301 187.911V189.807ZM303.235 194.799L311.107 173.919H312.883L305.011 194.799H303.235ZM317.482 195.879V179.295H319.114L319.282 180.783H319.354C319.898 180.271 320.522 179.847 321.226 179.511C321.946 179.175 322.666 179.007 323.386 179.007C324.17 179.007 324.858 179.151 325.45 179.439C326.058 179.711 326.562 180.111 326.962 180.639C327.378 181.151 327.69 181.775 327.898 182.511C328.106 183.231 328.21 184.047 328.21 184.959C328.21 185.951 328.066 186.839 327.778 187.623C327.49 188.391 327.098 189.047 326.602 189.591C326.122 190.135 325.562 190.551 324.922 190.839C324.282 191.111 323.61 191.247 322.906 191.247C322.362 191.247 321.77 191.119 321.13 190.863C320.506 190.591 319.938 190.215 319.426 189.735H319.354L319.45 191.943V195.879H317.482ZM322.57 189.591C323.626 189.591 324.49 189.183 325.162 188.367C325.834 187.551 326.17 186.415 326.17 184.959C326.17 184.319 326.106 183.735 325.978 183.207C325.85 182.679 325.65 182.231 325.378 181.863C325.122 181.479 324.786 181.183 324.37 180.975C323.954 180.767 323.458 180.663 322.882 180.663C322.37 180.663 321.818 180.807 321.226 181.095C320.65 181.367 320.058 181.807 319.45 182.415V188.223C320.01 188.719 320.57 189.071 321.13 189.279C321.69 189.487 322.17 189.591 322.57 189.591ZM332.209 189.807V187.911L339.433 183.039V182.943L332.209 178.071V176.175L341.161 182.247V183.735L332.209 189.807Z" fill="#4E5769"/>
<rect x="65" y="214.959" width="314" height="49" rx="6" fill="#FDE7C7"/>
<path d="M116.157 251.607V250.479H117.381C117.989 250.479 118.485 250.439 118.869 250.359C119.269 250.279 119.581 250.151 119.805 249.975C120.029 249.799 120.181 249.567 120.261 249.279C120.341 249.007 120.381 248.679 120.381 248.295C120.381 247.559 120.357 246.855 120.309 246.183C120.261 245.511 120.237 244.767 120.237 243.951C120.237 243.167 120.389 242.575 120.693 242.175C120.997 241.759 121.565 241.479 122.397 241.335V241.239C121.565 241.095 120.997 240.823 120.693 240.423C120.389 240.007 120.237 239.407 120.237 238.623C120.237 237.871 120.261 237.135 120.309 236.415C120.357 235.679 120.381 234.967 120.381 234.279C120.381 233.895 120.341 233.567 120.261 233.295C120.181 233.007 120.029 232.775 119.805 232.599C119.581 232.423 119.269 232.295 118.869 232.215C118.485 232.135 117.989 232.095 117.381 232.095H116.157V230.967H117.621C118.373 230.967 119.021 231.023 119.565 231.135C120.125 231.231 120.589 231.399 120.957 231.639C121.325 231.879 121.597 232.207 121.773 232.623C121.949 233.023 122.037 233.535 122.037 234.159C122.037 234.991 121.997 235.783 121.917 236.535C121.853 237.271 121.821 238.023 121.821 238.791C121.821 239.031 121.869 239.263 121.965 239.487C122.061 239.695 122.237 239.887 122.493 240.063C122.749 240.239 123.101 240.383 123.549 240.495C124.013 240.607 124.597 240.663 125.301 240.663V241.911C124.597 241.911 124.013 241.967 123.549 242.079C123.101 242.191 122.749 242.335 122.493 242.511C122.237 242.687 122.061 242.887 121.965 243.111C121.869 243.319 121.821 243.543 121.821 243.783C121.821 244.183 121.829 244.567 121.845 244.935C121.877 245.303 121.901 245.671 121.917 246.039C121.949 246.407 121.973 246.791 121.989 247.191C122.021 247.575 122.037 247.983 122.037 248.415C122.037 249.039 121.949 249.551 121.773 249.951C121.597 250.367 121.325 250.695 120.957 250.935C120.589 251.175 120.125 251.343 119.565 251.439C119.021 251.551 118.373 251.607 117.621 251.607H116.157ZM150.483 248.247C149.603 248.247 148.779 248.111 148.011 247.839C147.259 247.567 146.595 247.167 146.019 246.639C145.459 246.111 145.011 245.471 144.675 244.719C144.355 243.951 144.195 243.079 144.195 242.103C144.195 241.159 144.355 240.311 144.675 239.559C145.011 238.807 145.451 238.167 145.995 237.639C146.555 237.111 147.187 236.711 147.891 236.439C148.611 236.151 149.363 236.007 150.147 236.007C150.979 236.007 151.723 236.143 152.379 236.415C153.051 236.671 153.611 237.039 154.059 237.519C154.523 237.999 154.875 238.575 155.115 239.247C155.355 239.919 155.475 240.663 155.475 241.479C155.475 241.703 155.467 241.919 155.451 242.127C155.435 242.335 155.411 242.519 155.379 242.679H146.187C146.315 244.007 146.795 245.007 147.627 245.679C148.475 246.335 149.507 246.663 150.723 246.663C151.427 246.663 152.059 246.567 152.619 246.375C153.195 246.167 153.747 245.895 154.275 245.559L154.995 246.855C154.419 247.239 153.755 247.567 153.003 247.839C152.267 248.111 151.427 248.247 150.483 248.247ZM150.195 237.567C149.715 237.567 149.251 237.647 148.803 237.807C148.371 237.967 147.979 238.199 147.627 238.503C147.275 238.791 146.979 239.159 146.739 239.607C146.499 240.055 146.331 240.567 146.235 241.143H153.675C153.595 239.943 153.243 239.047 152.619 238.455C152.011 237.863 151.203 237.567 150.195 237.567ZM166.721 248.247C165.473 248.247 164.521 247.895 163.865 247.191C163.209 246.487 162.881 245.439 162.881 244.047V232.479H158.729V230.871H164.849V244.191C164.849 245.055 165.057 245.679 165.473 246.063C165.889 246.431 166.449 246.615 167.153 246.615C167.841 246.615 168.569 246.439 169.337 246.087L169.841 247.551C169.297 247.775 168.801 247.943 168.353 248.055C167.905 248.183 167.361 248.247 166.721 248.247ZM178.784 248.247C177.632 248.247 176.568 248.071 175.592 247.719C174.616 247.351 173.768 246.919 173.048 246.423L173.96 245.127C174.632 245.607 175.368 245.991 176.168 246.279C176.984 246.567 177.936 246.711 179.024 246.711C180.016 246.711 180.752 246.535 181.232 246.183C181.728 245.815 181.976 245.383 181.976 244.887C181.976 244.663 181.936 244.455 181.856 244.263C181.776 244.071 181.6 243.887 181.328 243.711C181.072 243.535 180.704 243.367 180.224 243.207C179.744 243.047 179.112 242.887 178.328 242.727C176.808 242.407 175.664 241.983 174.896 241.455C174.144 240.911 173.768 240.199 173.768 239.319C173.768 238.855 173.872 238.423 174.08 238.023C174.288 237.607 174.592 237.255 174.992 236.967C175.408 236.663 175.912 236.431 176.504 236.271C177.112 236.095 177.816 236.007 178.616 236.007C179.512 236.007 180.376 236.159 181.208 236.463C182.04 236.751 182.744 237.095 183.32 237.495L182.36 238.767C181.816 238.399 181.216 238.103 180.56 237.879C179.904 237.655 179.2 237.543 178.448 237.543C177.456 237.543 176.76 237.711 176.36 238.047C175.96 238.383 175.76 238.775 175.76 239.223C175.76 239.735 176.024 240.127 176.552 240.399C177.08 240.655 177.944 240.911 179.144 241.167C180.12 241.375 180.92 241.599 181.544 241.839C182.168 242.063 182.656 242.319 183.008 242.607C183.376 242.895 183.624 243.215 183.752 243.567C183.896 243.919 183.968 244.319 183.968 244.767C183.968 245.247 183.856 245.695 183.632 246.111C183.408 246.527 183.072 246.895 182.624 247.215C182.192 247.535 181.648 247.783 180.992 247.959C180.352 248.151 179.616 248.247 178.784 248.247ZM193.654 248.247C192.774 248.247 191.95 248.111 191.182 247.839C190.43 247.567 189.766 247.167 189.19 246.639C188.63 246.111 188.182 245.471 187.846 244.719C187.526 243.951 187.366 243.079 187.366 242.103C187.366 241.159 187.526 240.311 187.846 239.559C188.182 238.807 188.622 238.167 189.166 237.639C189.726 237.111 190.358 236.711 191.062 236.439C191.782 236.151 192.534 236.007 193.318 236.007C194.15 236.007 194.894 236.143 195.55 236.415C196.222 236.671 196.782 237.039 197.23 237.519C197.694 237.999 198.046 238.575 198.286 239.247C198.526 239.919 198.646 240.663 198.646 241.479C198.646 241.703 198.638 241.919 198.622 242.127C198.606 242.335 198.582 242.519 198.55 242.679H189.358C189.486 244.007 189.966 245.007 190.798 245.679C191.646 246.335 192.678 246.663 193.894 246.663C194.598 246.663 195.23 246.567 195.79 246.375C196.366 246.167 196.918 245.895 197.446 245.559L198.166 246.855C197.59 247.239 196.926 247.567 196.174 247.839C195.438 248.111 194.598 248.247 193.654 248.247ZM193.366 237.567C192.886 237.567 192.422 237.647 191.974 237.807C191.542 237.967 191.15 238.199 190.798 238.503C190.446 238.791 190.15 239.159 189.91 239.607C189.67 240.055 189.502 240.567 189.406 241.143H196.846C196.766 239.943 196.414 239.047 195.79 238.455C195.182 237.863 194.374 237.567 193.366 237.567ZM225.1 251.607C224.348 251.607 223.692 251.551 223.132 251.439C222.572 251.343 222.108 251.175 221.74 250.935C221.372 250.695 221.1 250.367 220.924 249.951C220.748 249.551 220.66 249.039 220.66 248.415C220.66 247.983 220.668 247.575 220.684 247.191C220.716 246.791 220.74 246.407 220.756 246.039C220.788 245.671 220.812 245.303 220.828 244.935C220.86 244.567 220.876 244.183 220.876 243.783C220.876 243.543 220.828 243.319 220.732 243.111C220.636 242.887 220.46 242.687 220.204 242.511C219.948 242.335 219.588 242.191 219.124 242.079C218.676 241.967 218.1 241.911 217.396 241.911V240.663C218.1 240.663 218.676 240.607 219.124 240.495C219.588 240.383 219.948 240.239 220.204 240.063C220.46 239.887 220.636 239.695 220.732 239.487C220.828 239.263 220.876 239.031 220.876 238.791C220.876 238.023 220.836 237.271 220.756 236.535C220.692 235.783 220.66 234.991 220.66 234.159C220.66 233.535 220.748 233.023 220.924 232.623C221.1 232.207 221.372 231.879 221.74 231.639C222.108 231.399 222.572 231.231 223.132 231.135C223.692 231.023 224.348 230.967 225.1 230.967H226.564V232.095H225.316C224.708 232.095 224.204 232.135 223.804 232.215C223.42 232.295 223.116 232.423 222.892 232.599C222.684 232.775 222.54 233.007 222.46 233.295C222.38 233.567 222.34 233.895 222.34 234.279C222.34 234.967 222.364 235.679 222.412 236.415C222.46 237.135 222.484 237.871 222.484 238.623C222.484 239.407 222.324 240.007 222.004 240.423C221.7 240.823 221.132 241.095 220.3 241.239V241.335C221.132 241.479 221.7 241.759 222.004 242.175C222.324 242.575 222.484 243.167 222.484 243.951C222.484 244.767 222.46 245.511 222.412 246.183C222.364 246.855 222.34 247.559 222.34 248.295C222.34 248.679 222.38 249.007 222.46 249.279C222.54 249.567 222.684 249.799 222.892 249.975C223.116 250.151 223.42 250.279 223.804 250.359C224.204 250.439 224.708 250.479 225.316 250.479H226.564V251.607H225.1Z" fill="#4E5769"/>
<rect x="65" y="271.959" width="314" height="49" rx="6" fill="#E7E9FB"/>
<path d="M154.395 303.807L145.443 297.735V296.247L154.395 290.175V292.071L147.171 296.943V297.039L154.395 301.911V303.807ZM160.145 304.959V289.215H169.817V290.895H162.161V296.223H168.641V297.903H162.161V304.959H160.145ZM178.544 305.247C177.776 305.247 177.04 305.111 176.336 304.839C175.648 304.567 175.04 304.175 174.512 303.663C173.984 303.135 173.56 302.495 173.24 301.743C172.936 300.975 172.784 300.111 172.784 299.151C172.784 298.175 172.936 297.311 173.24 296.559C173.56 295.791 173.984 295.143 174.512 294.615C175.04 294.087 175.648 293.687 176.336 293.415C177.04 293.143 177.776 293.007 178.544 293.007C179.312 293.007 180.04 293.143 180.728 293.415C181.432 293.687 182.048 294.087 182.576 294.615C183.104 295.143 183.52 295.791 183.824 296.559C184.144 297.311 184.304 298.175 184.304 299.151C184.304 300.111 184.144 300.975 183.824 301.743C183.52 302.495 183.104 303.135 182.576 303.663C182.048 304.175 181.432 304.567 180.728 304.839C180.04 305.111 179.312 305.247 178.544 305.247ZM178.544 303.615C179.104 303.615 179.608 303.511 180.056 303.303C180.52 303.079 180.912 302.775 181.232 302.391C181.568 301.991 181.824 301.519 182 300.975C182.176 300.431 182.264 299.823 182.264 299.151C182.264 298.479 182.176 297.871 182 297.327C181.824 296.767 181.568 296.287 181.232 295.887C180.912 295.487 180.52 295.183 180.056 294.975C179.608 294.751 179.104 294.639 178.544 294.639C177.984 294.639 177.472 294.751 177.008 294.975C176.56 295.183 176.168 295.487 175.832 295.887C175.512 296.287 175.264 296.767 175.088 297.327C174.912 297.871 174.824 298.479 174.824 299.151C174.824 299.823 174.912 300.431 175.088 300.975C175.264 301.519 175.512 301.991 175.832 302.391C176.168 302.775 176.56 303.079 177.008 303.303C177.472 303.511 177.984 303.615 178.544 303.615ZM189.238 304.959V293.295H190.87L191.038 296.055H191.11C191.718 295.111 192.462 294.367 193.342 293.823C194.238 293.279 195.23 293.007 196.318 293.007C196.75 293.007 197.15 293.047 197.518 293.127C197.886 293.191 198.254 293.311 198.622 293.487L198.166 295.191C197.75 295.047 197.398 294.943 197.11 294.879C196.838 294.815 196.47 294.783 196.006 294.783C195.126 294.783 194.278 295.039 193.462 295.551C192.662 296.047 191.91 296.903 191.206 298.119V304.959H189.238ZM201.517 304.959V293.295H203.101L203.269 294.831H203.317C203.621 294.287 203.973 293.847 204.373 293.511C204.773 293.175 205.309 293.007 205.981 293.007C207.117 293.007 207.853 293.679 208.189 295.023C208.525 294.399 208.893 293.911 209.293 293.559C209.709 293.191 210.253 293.007 210.925 293.007C211.741 293.007 212.373 293.319 212.821 293.943C213.285 294.551 213.517 295.439 213.517 296.607V304.959H211.549V296.751C211.549 295.391 211.133 294.711 210.301 294.711C209.885 294.711 209.549 294.863 209.293 295.167C209.037 295.455 208.749 295.903 208.429 296.511V304.959H206.605V296.751C206.605 296.079 206.509 295.575 206.317 295.239C206.141 294.887 205.837 294.711 205.405 294.711C204.989 294.711 204.637 294.863 204.349 295.167C204.061 295.455 203.773 295.903 203.485 296.511V304.959H201.517ZM231.282 308.799L239.154 287.919H240.93L233.058 308.799H231.282ZM245.865 303.807V301.911L253.089 297.039V296.943L245.865 292.071V290.175L254.817 296.247V297.735L245.865 303.807Z" fill="#4E5769"/>
<rect x="65" y="328.959" width="314" height="86" rx="6" fill="#FDE7C7"/>
<path d="M116.157 365.607V364.479H117.381C117.989 364.479 118.485 364.439 118.869 364.359C119.269 364.279 119.581 364.151 119.805 363.975C120.029 363.799 120.181 363.567 120.261 363.279C120.341 363.007 120.381 362.679 120.381 362.295C120.381 361.559 120.357 360.855 120.309 360.183C120.261 359.511 120.237 358.767 120.237 357.951C120.237 357.167 120.389 356.575 120.693 356.175C120.997 355.759 121.565 355.479 122.397 355.335V355.239C121.565 355.095 120.997 354.823 120.693 354.423C120.389 354.007 120.237 353.407 120.237 352.623C120.237 351.871 120.261 351.135 120.309 350.415C120.357 349.679 120.381 348.967 120.381 348.279C120.381 347.895 120.341 347.567 120.261 347.295C120.181 347.007 120.029 346.775 119.805 346.599C119.581 346.423 119.269 346.295 118.869 346.215C118.485 346.135 117.989 346.095 117.381 346.095H116.157V344.967H117.621C118.373 344.967 119.021 345.023 119.565 345.135C120.125 345.231 120.589 345.399 120.957 345.639C121.325 345.879 121.597 346.207 121.773 346.623C121.949 347.023 122.037 347.535 122.037 348.159C122.037 348.991 121.997 349.783 121.917 350.535C121.853 351.271 121.821 352.023 121.821 352.791C121.821 353.031 121.869 353.263 121.965 353.487C122.061 353.695 122.237 353.887 122.493 354.063C122.749 354.239 123.101 354.383 123.549 354.495C124.013 354.607 124.597 354.663 125.301 354.663V355.911C124.597 355.911 124.013 355.967 123.549 356.079C123.101 356.191 122.749 356.335 122.493 356.511C122.237 356.687 122.061 356.887 121.965 357.111C121.869 357.319 121.821 357.543 121.821 357.783C121.821 358.183 121.829 358.567 121.845 358.935C121.877 359.303 121.901 359.671 121.917 360.039C121.949 360.407 121.973 360.791 121.989 361.191C122.021 361.575 122.037 361.983 122.037 362.415C122.037 363.039 121.949 363.551 121.773 363.951C121.597 364.367 121.325 364.695 120.957 364.935C120.589 365.175 120.125 365.343 119.565 365.439C119.021 365.551 118.373 365.607 117.621 365.607H116.157ZM87.376 402.607V401.479H88.6C89.208 401.479 89.704 401.439 90.088 401.359C90.488 401.279 90.8 401.151 91.024 400.975C91.248 400.799 91.4 400.567 91.48 400.279C91.56 400.007 91.6 399.679 91.6 399.295C91.6 398.559 91.576 397.855 91.528 397.183C91.48 396.511 91.456 395.767 91.456 394.951C91.456 394.167 91.608 393.575 91.912 393.175C92.216 392.759 92.784 392.479 93.616 392.335V392.239C92.784 392.095 92.216 391.823 91.912 391.423C91.608 391.007 91.456 390.407 91.456 389.623C91.456 388.871 91.48 388.135 91.528 387.415C91.576 386.679 91.6 385.967 91.6 385.279C91.6 384.895 91.56 384.567 91.48 384.295C91.4 384.007 91.248 383.775 91.024 383.599C90.8 383.423 90.488 383.295 90.088 383.215C89.704 383.135 89.208 383.095 88.6 383.095H87.376V381.967H88.84C89.592 381.967 90.24 382.023 90.784 382.135C91.344 382.231 91.808 382.399 92.176 382.639C92.544 382.879 92.816 383.207 92.992 383.623C93.168 384.023 93.256 384.535 93.256 385.159C93.256 385.991 93.216 386.783 93.136 387.535C93.072 388.271 93.04 389.023 93.04 389.791C93.04 390.031 93.088 390.263 93.184 390.487C93.28 390.695 93.456 390.887 93.712 391.063C93.968 391.239 94.32 391.383 94.768 391.495C95.232 391.607 95.816 391.663 96.52 391.663V392.911C95.816 392.911 95.232 392.967 94.768 393.079C94.32 393.191 93.968 393.335 93.712 393.511C93.456 393.687 93.28 393.887 93.184 394.111C93.088 394.319 93.04 394.543 93.04 394.783C93.04 395.183 93.048 395.567 93.064 395.935C93.096 396.303 93.12 396.671 93.136 397.039C93.168 397.407 93.192 397.791 93.208 398.191C93.24 398.575 93.256 398.983 93.256 399.415C93.256 400.039 93.168 400.551 92.992 400.951C92.816 401.367 92.544 401.695 92.176 401.935C91.808 402.175 91.344 402.343 90.784 402.439C90.24 402.551 89.592 402.607 88.84 402.607H87.376Z" fill="#4E5769"/>
<rect x="45" y="43.9594" width="354" height="391" rx="6" stroke="white" stroke-linejoin="bevel"/>
</svg>
