<svg width="430" height="437" viewBox="0 0 430 437" fill="none" xmlns="http://www.w3.org/2000/svg">
<rect x="16" y="43.9594" width="383" height="391" rx="6" fill="#23252F"/>
<rect x="36" y="63.9594" width="343" height="86" rx="6" fill="#FDE7C7"/>
<path d="M63.32 97.2474C62.168 97.2474 61.104 97.0394 60.128 96.6234C59.168 96.2074 58.328 95.6394 57.608 94.9194L58.808 93.5274C59.4 94.1194 60.088 94.5994 60.872 94.9674C61.656 95.3194 62.504 95.4954 63.416 95.4954C64.504 95.4954 65.344 95.2634 65.936 94.7994C66.544 94.3354 66.848 93.7354 66.848 92.9994C66.848 92.5834 66.776 92.2314 66.632 91.9434C66.488 91.6554 66.288 91.4074 66.032 91.1994C65.776 90.9914 65.472 90.8074 65.12 90.6474C64.784 90.4874 64.416 90.3194 64.016 90.1434L61.76 89.1594C61.36 88.9994 60.96 88.8074 60.56 88.5834C60.16 88.3594 59.792 88.0874 59.456 87.7674C59.136 87.4474 58.872 87.0714 58.664 86.6394C58.456 86.1913 58.352 85.6793 58.352 85.1034C58.352 84.5114 58.48 83.9594 58.736 83.4474C58.992 82.9353 59.344 82.4953 59.792 82.1273C60.256 81.7434 60.8 81.4474 61.424 81.2393C62.064 81.0313 62.76 80.9273 63.512 80.9273C64.504 80.9273 65.416 81.1113 66.248 81.4793C67.08 81.8313 67.784 82.2954 68.36 82.8714L67.304 84.1673C66.792 83.7033 66.224 83.3433 65.6 83.0874C64.976 82.8154 64.256 82.6793 63.44 82.6793C62.528 82.6793 61.792 82.8874 61.232 83.3034C60.672 83.7034 60.392 84.2634 60.392 84.9834C60.392 85.3674 60.472 85.6953 60.632 85.9673C60.808 86.2233 61.024 86.4553 61.28 86.6634C61.552 86.8554 61.856 87.0234 62.192 87.1674C62.528 87.3114 62.864 87.4554 63.2 87.5994L65.408 88.5594C65.888 88.7513 66.336 88.9753 66.752 89.2313C67.184 89.4714 67.552 89.7594 67.856 90.0954C68.176 90.4154 68.424 90.7994 68.6 91.2474C68.792 91.6794 68.888 92.1834 68.888 92.7594C68.888 93.3834 68.76 93.9674 68.504 94.5114C68.248 95.0554 67.88 95.5354 67.4 95.9514C66.92 96.3514 66.336 96.6714 65.648 96.9114C64.96 97.1354 64.184 97.2474 63.32 97.2474ZM77.9746 96.9594V86.9033H72.5506V85.2953H79.9426V96.9594H77.9746ZM78.7426 82.8474C78.2946 82.8474 77.9186 82.7114 77.6146 82.4394C77.3106 82.1514 77.1586 81.7754 77.1586 81.3114C77.1586 80.8473 77.3106 80.4793 77.6146 80.2074C77.9186 79.9194 78.2946 79.7754 78.7426 79.7754C79.1906 79.7754 79.5666 79.9194 79.8706 80.2074C80.1746 80.4793 80.3266 80.8473 80.3266 81.3114C80.3266 81.7754 80.1746 82.1514 79.8706 82.4394C79.5666 82.7114 79.1906 82.8474 78.7426 82.8474ZM91.2853 97.2474C90.5173 97.2474 89.8213 97.1114 89.1973 96.8394C88.5893 96.5674 88.0613 96.1754 87.6133 95.6634C87.1653 95.1354 86.8213 94.4954 86.5813 93.7434C86.3413 92.9914 86.2213 92.1274 86.2213 91.1514C86.2213 90.2074 86.3653 89.3593 86.6533 88.6074C86.9573 87.8393 87.3493 87.1913 87.8293 86.6634C88.3253 86.1354 88.8933 85.7274 89.5333 85.4394C90.1733 85.1514 90.8373 85.0073 91.5253 85.0073C92.2293 85.0073 92.8533 85.1433 93.3973 85.4153C93.9573 85.6713 94.4933 86.0393 95.0053 86.5193H95.0773L94.9813 84.3593V79.8714H96.9493V96.9594H95.3173L95.1493 95.4234H95.0773C94.5973 95.9194 94.0213 96.3514 93.3493 96.7194C92.6933 97.0714 92.0053 97.2474 91.2853 97.2474ZM91.6933 95.5914C92.8453 95.5914 93.9413 95.0074 94.9813 93.8394V88.0314C94.4533 87.5354 93.9333 87.1834 93.4213 86.9754C92.9253 86.7674 92.4213 86.6634 91.9093 86.6634C91.3973 86.6634 90.9173 86.7754 90.4693 86.9994C90.0373 87.2074 89.6533 87.5114 89.3173 87.9114C88.9973 88.2954 88.7413 88.7594 88.5493 89.3034C88.3573 89.8474 88.2613 90.4554 88.2613 91.1274C88.2613 92.5354 88.5573 93.6314 89.1493 94.4154C89.7573 95.1994 90.6053 95.5914 91.6933 95.5914ZM107.092 97.2474C106.212 97.2474 105.388 97.1114 104.62 96.8394C103.868 96.5674 103.204 96.1674 102.628 95.6394C102.068 95.1114 101.62 94.4714 101.284 93.7194C100.964 92.9514 100.804 92.0794 100.804 91.1034C100.804 90.1594 100.964 89.3114 101.284 88.5594C101.62 87.8074 102.06 87.1674 102.604 86.6394C103.164 86.1114 103.796 85.7113 104.5 85.4394C105.22 85.1514 105.972 85.0073 106.756 85.0073C107.588 85.0073 108.332 85.1433 108.988 85.4153C109.66 85.6713 110.22 86.0393 110.668 86.5193C111.132 86.9993 111.484 87.5754 111.724 88.2474C111.964 88.9194 112.084 89.6634 112.084 90.4794C112.084 90.7034 112.076 90.9194 112.06 91.1274C112.044 91.3354 112.02 91.5194 111.988 91.6794H102.796C102.924 93.0074 103.404 94.0074 104.236 94.6794C105.084 95.3354 106.116 95.6634 107.332 95.6634C108.036 95.6634 108.668 95.5674 109.228 95.3754C109.804 95.1674 110.356 94.8954 110.884 94.5594L111.604 95.8554C111.028 96.2394 110.364 96.5674 109.612 96.8394C108.876 97.1114 108.036 97.2474 107.092 97.2474ZM106.804 86.5673C106.324 86.5673 105.86 86.6474 105.412 86.8074C104.98 86.9674 104.588 87.1994 104.236 87.5034C103.884 87.7914 103.588 88.1594 103.348 88.6074C103.108 89.0554 102.94 89.5674 102.844 90.1434H110.284C110.204 88.9434 109.852 88.0473 109.228 87.4553C108.62 86.8633 107.812 86.5673 106.804 86.5673ZM121.243 97.2474C120.683 97.2474 120.075 97.1114 119.419 96.8394C118.779 96.5514 118.179 96.1594 117.619 95.6634H117.547L117.379 96.9594H115.795V79.8714H117.763V84.5274L117.691 86.7833H117.763C118.291 86.2393 118.899 85.8073 119.587 85.4874C120.291 85.1674 120.987 85.0073 121.675 85.0073C122.459 85.0073 123.155 85.1514 123.763 85.4394C124.371 85.7113 124.875 86.1114 125.275 86.6394C125.691 87.1514 126.003 87.7753 126.211 88.5113C126.419 89.2314 126.523 90.0394 126.523 90.9354C126.523 91.9274 126.379 92.8154 126.091 93.5994C125.803 94.3834 125.411 95.0474 124.915 95.5914C124.435 96.1354 123.875 96.5514 123.235 96.8394C122.595 97.1114 121.931 97.2474 121.243 97.2474ZM120.931 95.5914C121.443 95.5914 121.915 95.4874 122.347 95.2794C122.779 95.0554 123.155 94.7514 123.475 94.3674C123.795 93.9674 124.043 93.4794 124.219 92.9034C124.395 92.3274 124.483 91.6794 124.483 90.9594C124.483 90.3194 124.419 89.7354 124.291 89.2074C124.163 88.6794 123.963 88.2314 123.691 87.8634C123.435 87.4794 123.099 87.1834 122.683 86.9754C122.267 86.7674 121.771 86.6634 121.195 86.6634C120.683 86.6634 120.131 86.8074 119.539 87.0954C118.963 87.3674 118.371 87.8074 117.763 88.4154V94.2234C118.323 94.7194 118.883 95.0714 119.443 95.2794C120.019 95.4874 120.515 95.5914 120.931 95.5914ZM133.857 97.2474C133.313 97.2474 132.801 97.1674 132.321 97.0074C131.841 96.8634 131.417 96.6554 131.049 96.3834C130.697 96.0954 130.417 95.7514 130.209 95.3514C130.001 94.9354 129.897 94.4634 129.897 93.9354C129.897 93.2794 130.049 92.7114 130.353 92.2314C130.673 91.7354 131.169 91.3114 131.841 90.9594C132.529 90.6074 133.409 90.3194 134.481 90.0954C135.553 89.8714 136.841 89.6954 138.345 89.5673C138.329 89.1674 138.265 88.7914 138.153 88.4394C138.041 88.0874 137.865 87.7834 137.625 87.5274C137.385 87.2554 137.065 87.0394 136.665 86.8794C136.281 86.7194 135.809 86.6394 135.249 86.6394C134.481 86.6394 133.745 86.7914 133.041 87.0954C132.337 87.3834 131.713 87.6954 131.169 88.0314L130.401 86.6873C130.689 86.4953 131.025 86.3033 131.409 86.1114C131.809 85.9033 132.225 85.7193 132.657 85.5594C133.105 85.3994 133.577 85.2714 134.073 85.1753C134.569 85.0633 135.073 85.0073 135.585 85.0073C137.185 85.0073 138.369 85.4474 139.137 86.3274C139.921 87.1913 140.313 88.3514 140.313 89.8074V96.9594H138.705L138.537 95.3754H138.465C137.809 95.8874 137.081 96.3274 136.281 96.6954C135.497 97.0634 134.689 97.2474 133.857 97.2474ZM134.385 95.6634C135.057 95.6634 135.713 95.5194 136.353 95.2314C137.009 94.9274 137.673 94.4954 138.345 93.9354V90.8634C137.097 90.9594 136.049 91.0954 135.201 91.2714C134.369 91.4474 133.697 91.6634 133.185 91.9194C132.689 92.1594 132.337 92.4394 132.129 92.7594C131.921 93.0634 131.817 93.4074 131.817 93.7914C131.817 94.1274 131.889 94.4154 132.033 94.6554C132.177 94.8794 132.361 95.0714 132.585 95.2314C132.825 95.3754 133.097 95.4874 133.401 95.5674C133.721 95.6314 134.049 95.6634 134.385 95.6634ZM145.848 96.9594V85.2953H147.48L147.648 88.0554H147.72C148.328 87.1114 149.072 86.3674 149.952 85.8234C150.848 85.2794 151.84 85.0073 152.928 85.0073C153.36 85.0073 153.76 85.0473 154.128 85.1273C154.496 85.1913 154.864 85.3114 155.232 85.4874L154.776 87.1914C154.36 87.0474 154.008 86.9434 153.72 86.8794C153.448 86.8154 153.08 86.7833 152.616 86.7833C151.736 86.7833 150.888 87.0394 150.072 87.5514C149.272 88.0473 148.52 88.9033 147.816 90.1193V96.9594H145.848ZM167.126 101.183C165.462 99.8874 164.142 98.3274 163.166 96.5034C162.206 94.6794 161.726 92.6074 161.726 90.2873C161.726 87.9674 162.206 85.8954 163.166 84.0714C164.142 82.2474 165.462 80.6873 167.126 79.3913L168.206 80.3993C166.59 81.7593 165.398 83.2394 164.63 84.8394C163.878 86.4394 163.502 88.2553 163.502 90.2873C163.502 92.3194 163.878 94.1354 164.63 95.7354C165.398 97.3354 166.59 98.8154 168.206 100.175L167.126 101.183ZM175.133 101.183L174.053 100.175C175.669 98.8154 176.853 97.3354 177.605 95.7354C178.373 94.1354 178.757 92.3194 178.757 90.2873C178.757 88.2553 178.373 86.4394 177.605 84.8394C176.853 83.2394 175.669 81.7593 174.053 80.3993L175.133 79.3913C176.797 80.6873 178.109 82.2474 179.069 84.0714C180.045 85.8954 180.533 87.9674 180.533 90.2873C180.533 92.6074 180.045 94.6794 179.069 96.5034C178.109 98.3274 176.797 99.8874 175.133 101.183ZM210.49 100.607C209.738 100.607 209.082 100.551 208.522 100.439C207.962 100.343 207.498 100.175 207.13 99.9354C206.762 99.6954 206.49 99.3674 206.314 98.9514C206.138 98.5514 206.05 98.0394 206.05 97.4154C206.05 96.9834 206.058 96.5754 206.074 96.1914C206.106 95.7914 206.13 95.4074 206.146 95.0394C206.178 94.6714 206.202 94.3034 206.218 93.9354C206.25 93.5674 206.266 93.1834 206.266 92.7834C206.266 92.5434 206.218 92.3194 206.122 92.1114C206.026 91.8874 205.85 91.6874 205.594 91.5114C205.338 91.3354 204.978 91.1914 204.514 91.0794C204.066 90.9674 203.49 90.9114 202.786 90.9114V89.6634C203.49 89.6634 204.066 89.6074 204.514 89.4954C204.978 89.3834 205.338 89.2394 205.594 89.0633C205.85 88.8874 206.026 88.6954 206.122 88.4874C206.218 88.2634 206.266 88.0314 206.266 87.7913C206.266 87.0234 206.226 86.2714 206.146 85.5354C206.082 84.7834 206.05 83.9914 206.05 83.1593C206.05 82.5353 206.138 82.0233 206.314 81.6233C206.49 81.2073 206.762 80.8794 207.13 80.6394C207.498 80.3993 207.962 80.2313 208.522 80.1353C209.082 80.0234 209.738 79.9674 210.49 79.9674H211.954V81.0954H210.706C210.098 81.0954 209.594 81.1354 209.194 81.2154C208.81 81.2954 208.506 81.4233 208.282 81.5993C208.074 81.7754 207.93 82.0074 207.85 82.2954C207.77 82.5673 207.73 82.8953 207.73 83.2793C207.73 83.9674 207.754 84.6794 207.802 85.4153C207.85 86.1353 207.874 86.8714 207.874 87.6233C207.874 88.4074 207.714 89.0074 207.394 89.4234C207.09 89.8234 206.522 90.0954 205.69 90.2394V90.3354C206.522 90.4794 207.09 90.7594 207.394 91.1754C207.714 91.5754 207.874 92.1674 207.874 92.9514C207.874 93.7674 207.85 94.5114 207.802 95.1834C207.754 95.8554 207.73 96.5594 207.73 97.2954C207.73 97.6794 207.77 98.0074 207.85 98.2794C207.93 98.5674 208.074 98.7994 208.282 98.9754C208.506 99.1514 208.81 99.2794 209.194 99.3594C209.594 99.4394 210.098 99.4794 210.706 99.4794H211.954V100.607H210.49ZM92.3653 133.959V123.903H86.9413V122.295H94.3333V133.959H92.3653ZM93.1333 119.847C92.6853 119.847 92.3093 119.711 92.0053 119.439C91.7013 119.151 91.5493 118.775 91.5493 118.311C91.5493 117.847 91.7013 117.479 92.0053 117.207C92.3093 116.919 92.6853 116.775 93.1333 116.775C93.5813 116.775 93.9573 116.919 94.2613 117.207C94.5653 117.479 94.7173 117.847 94.7173 118.311C94.7173 118.775 94.5653 119.151 94.2613 119.439C93.9573 119.711 93.5813 119.847 93.1333 119.847ZM104.98 133.959V123.903H101.644V122.415L104.98 122.295V121.311C104.98 119.887 105.356 118.743 106.108 117.879C106.876 117.015 108.068 116.583 109.684 116.583C110.836 116.583 111.956 116.807 113.044 117.255L112.588 118.743C112.108 118.519 111.66 118.375 111.244 118.311C110.844 118.231 110.388 118.191 109.876 118.191C108.82 118.191 108.06 118.463 107.596 119.007C107.148 119.535 106.924 120.279 106.924 121.239V122.295H111.82V123.903H106.924V133.959H104.98ZM138.345 138.183C136.681 136.887 135.361 135.327 134.385 133.503C133.425 131.679 132.945 129.607 132.945 127.287C132.945 124.967 133.425 122.895 134.385 121.071C135.361 119.247 136.681 117.687 138.345 116.391L139.425 117.399C137.809 118.759 136.617 120.239 135.849 121.839C135.097 123.439 134.721 125.255 134.721 127.287C134.721 129.319 135.097 131.135 135.849 132.735C136.617 134.335 137.809 135.815 139.425 137.175L138.345 138.183ZM149.928 133.959V123.903H144.504V122.295H151.896V133.959H149.928ZM150.696 119.847C150.248 119.847 149.872 119.711 149.568 119.439C149.264 119.151 149.112 118.775 149.112 118.311C149.112 117.847 149.264 117.479 149.568 117.207C149.872 116.919 150.248 116.775 150.696 116.775C151.144 116.775 151.52 116.919 151.824 117.207C152.128 117.479 152.28 117.847 152.28 118.311C152.28 118.775 152.128 119.151 151.824 119.439C151.52 119.711 151.144 119.847 150.696 119.847ZM164.174 134.247C163.022 134.247 161.958 134.071 160.982 133.719C160.006 133.351 159.158 132.919 158.438 132.423L159.35 131.127C160.022 131.607 160.758 131.991 161.558 132.279C162.374 132.567 163.326 132.711 164.414 132.711C165.406 132.711 166.142 132.535 166.622 132.183C167.118 131.815 167.366 131.383 167.366 130.887C167.366 130.663 167.326 130.455 167.246 130.263C167.166 130.071 166.99 129.887 166.718 129.711C166.462 129.535 166.094 129.367 165.614 129.207C165.134 129.047 164.502 128.887 163.718 128.727C162.198 128.407 161.054 127.983 160.286 127.455C159.534 126.911 159.158 126.199 159.158 125.319C159.158 124.855 159.262 124.423 159.47 124.023C159.678 123.607 159.982 123.255 160.382 122.967C160.798 122.663 161.302 122.431 161.894 122.271C162.502 122.095 163.206 122.007 164.006 122.007C164.902 122.007 165.766 122.159 166.598 122.463C167.43 122.751 168.134 123.095 168.71 123.495L167.75 124.767C167.206 124.399 166.606 124.103 165.95 123.879C165.294 123.655 164.59 123.543 163.838 123.543C162.846 123.543 162.15 123.711 161.75 124.047C161.35 124.383 161.15 124.775 161.15 125.223C161.15 125.735 161.414 126.127 161.942 126.399C162.47 126.655 163.334 126.911 164.534 127.167C165.51 127.375 166.31 127.599 166.934 127.839C167.558 128.063 168.046 128.319 168.398 128.607C168.766 128.895 169.014 129.215 169.142 129.567C169.286 129.919 169.358 130.319 169.358 130.767C169.358 131.247 169.246 131.695 169.022 132.111C168.798 132.527 168.462 132.895 168.014 133.215C167.582 133.535 167.038 133.783 166.382 133.959C165.742 134.151 165.006 134.247 164.174 134.247ZM174.341 133.959V118.215H176.309V132.255H184.109V133.959H174.341ZM192.716 134.247C191.948 134.247 191.212 134.111 190.508 133.839C189.82 133.567 189.212 133.175 188.684 132.663C188.156 132.135 187.732 131.495 187.412 130.743C187.108 129.975 186.956 129.111 186.956 128.151C186.956 127.175 187.108 126.311 187.412 125.559C187.732 124.791 188.156 124.143 188.684 123.615C189.212 123.087 189.82 122.687 190.508 122.415C191.212 122.143 191.948 122.007 192.716 122.007C193.484 122.007 194.212 122.143 194.9 122.415C195.604 122.687 196.22 123.087 196.748 123.615C197.276 124.143 197.692 124.791 197.996 125.559C198.316 126.311 198.476 127.175 198.476 128.151C198.476 129.111 198.316 129.975 197.996 130.743C197.692 131.495 197.276 132.135 196.748 132.663C196.22 133.175 195.604 133.567 194.9 133.839C194.212 134.111 193.484 134.247 192.716 134.247ZM192.716 132.615C193.276 132.615 193.78 132.511 194.228 132.303C194.692 132.079 195.084 131.775 195.404 131.391C195.74 130.991 195.996 130.519 196.172 129.975C196.348 129.431 196.436 128.823 196.436 128.151C196.436 127.479 196.348 126.871 196.172 126.327C195.996 125.767 195.74 125.287 195.404 124.887C195.084 124.487 194.692 124.183 194.228 123.975C193.78 123.751 193.276 123.639 192.716 123.639C192.156 123.639 191.644 123.751 191.18 123.975C190.732 124.183 190.34 124.487 190.004 124.887C189.684 125.287 189.436 125.767 189.26 126.327C189.084 126.871 188.996 127.479 188.996 128.151C188.996 128.823 189.084 129.431 189.26 129.975C189.436 130.519 189.684 130.991 190.004 131.391C190.34 131.775 190.732 132.079 191.18 132.303C191.644 132.511 192.156 132.615 192.716 132.615ZM207.01 139.335C205.298 139.335 203.97 139.055 203.026 138.495C202.098 137.935 201.634 137.135 201.634 136.095C201.634 135.631 201.794 135.175 202.114 134.727C202.45 134.279 202.93 133.871 203.554 133.503V133.407C203.234 133.231 202.954 132.991 202.714 132.687C202.474 132.383 202.354 131.983 202.354 131.487C202.354 131.119 202.474 130.743 202.714 130.359C202.954 129.959 203.298 129.607 203.746 129.303V129.207C203.346 128.903 203.002 128.503 202.714 128.007C202.442 127.495 202.306 126.887 202.306 126.183C202.306 125.543 202.426 124.967 202.666 124.455C202.922 123.943 203.258 123.511 203.674 123.159C204.09 122.791 204.57 122.511 205.114 122.319C205.674 122.111 206.266 122.007 206.89 122.007C207.53 122.007 208.106 122.103 208.618 122.295H213.442V123.903H210.418C210.69 124.175 210.922 124.519 211.114 124.935C211.306 125.351 211.402 125.791 211.402 126.255C211.402 126.879 211.282 127.439 211.042 127.935C210.818 128.431 210.498 128.855 210.082 129.207C209.682 129.543 209.202 129.807 208.642 129.999C208.098 130.175 207.514 130.263 206.89 130.263C206.586 130.263 206.258 130.231 205.906 130.167C205.57 130.087 205.242 129.975 204.922 129.831C204.314 130.215 204.01 130.663 204.01 131.175C204.01 131.639 204.218 131.983 204.634 132.207C205.066 132.415 205.666 132.519 206.434 132.519H209.05C210.554 132.519 211.666 132.727 212.386 133.143C213.122 133.559 213.49 134.263 213.49 135.255C213.49 135.799 213.338 136.319 213.034 136.815C212.73 137.311 212.298 137.743 211.738 138.111C211.178 138.479 210.498 138.775 209.698 138.999C208.898 139.223 208.002 139.335 207.01 139.335ZM206.89 128.943C207.642 128.943 208.274 128.695 208.786 128.199C209.314 127.703 209.578 127.031 209.578 126.183C209.578 125.783 209.506 125.415 209.362 125.079C209.218 124.743 209.026 124.455 208.786 124.215C208.546 123.975 208.258 123.791 207.922 123.663C207.602 123.519 207.258 123.447 206.89 123.447C206.522 123.447 206.17 123.519 205.834 123.663C205.514 123.791 205.234 123.975 204.994 124.215C204.754 124.455 204.562 124.743 204.418 125.079C204.274 125.415 204.202 125.783 204.202 126.183C204.202 127.031 204.466 127.703 204.994 128.199C205.522 128.695 206.154 128.943 206.89 128.943ZM207.154 137.895C207.826 137.895 208.434 137.831 208.978 137.703C209.522 137.575 209.986 137.399 210.37 137.175C210.754 136.967 211.042 136.719 211.234 136.431C211.442 136.159 211.546 135.871 211.546 135.567C211.546 135.007 211.322 134.631 210.874 134.439C210.442 134.247 209.778 134.151 208.882 134.151H206.602C206.266 134.151 205.946 134.135 205.642 134.103C205.354 134.087 205.082 134.039 204.826 133.959C204.266 134.263 203.874 134.575 203.65 134.895C203.442 135.231 203.338 135.567 203.338 135.903C203.338 136.511 203.658 136.991 204.298 137.343C204.954 137.711 205.906 137.895 207.154 137.895ZM221.401 139.335C219.689 139.335 218.361 139.055 217.417 138.495C216.489 137.935 216.025 137.135 216.025 136.095C216.025 135.631 216.185 135.175 216.505 134.727C216.841 134.279 217.321 133.871 217.945 133.503V133.407C217.625 133.231 217.345 132.991 217.105 132.687C216.865 132.383 216.745 131.983 216.745 131.487C216.745 131.119 216.865 130.743 217.105 130.359C217.345 129.959 217.689 129.607 218.137 129.303V129.207C217.737 128.903 217.393 128.503 217.105 128.007C216.833 127.495 216.697 126.887 216.697 126.183C216.697 125.543 216.817 124.967 217.057 124.455C217.313 123.943 217.649 123.511 218.065 123.159C218.481 122.791 218.961 122.511 219.505 122.319C220.065 122.111 220.657 122.007 221.281 122.007C221.921 122.007 222.497 122.103 223.009 122.295H227.833V123.903H224.809C225.081 124.175 225.313 124.519 225.505 124.935C225.697 125.351 225.793 125.791 225.793 126.255C225.793 126.879 225.673 127.439 225.433 127.935C225.209 128.431 224.889 128.855 224.473 129.207C224.073 129.543 223.593 129.807 223.033 129.999C222.489 130.175 221.905 130.263 221.281 130.263C220.977 130.263 220.649 130.231 220.297 130.167C219.961 130.087 219.633 129.975 219.313 129.831C218.705 130.215 218.401 130.663 218.401 131.175C218.401 131.639 218.609 131.983 219.025 132.207C219.457 132.415 220.057 132.519 220.825 132.519H223.441C224.945 132.519 226.057 132.727 226.777 133.143C227.513 133.559 227.881 134.263 227.881 135.255C227.881 135.799 227.729 136.319 227.425 136.815C227.121 137.311 226.689 137.743 226.129 138.111C225.569 138.479 224.889 138.775 224.089 138.999C223.289 139.223 222.393 139.335 221.401 139.335ZM221.281 128.943C222.033 128.943 222.665 128.695 223.177 128.199C223.705 127.703 223.969 127.031 223.969 126.183C223.969 125.783 223.897 125.415 223.753 125.079C223.609 124.743 223.417 124.455 223.177 124.215C222.937 123.975 222.649 123.791 222.313 123.663C221.993 123.519 221.649 123.447 221.281 123.447C220.913 123.447 220.561 123.519 220.225 123.663C219.905 123.791 219.625 123.975 219.385 124.215C219.145 124.455 218.953 124.743 218.809 125.079C218.665 125.415 218.593 125.783 218.593 126.183C218.593 127.031 218.857 127.703 219.385 128.199C219.913 128.695 220.545 128.943 221.281 128.943ZM221.545 137.895C222.217 137.895 222.825 137.831 223.369 137.703C223.913 137.575 224.377 137.399 224.761 137.175C225.145 136.967 225.433 136.719 225.625 136.431C225.833 136.159 225.937 135.871 225.937 135.567C225.937 135.007 225.713 134.631 225.265 134.439C224.833 134.247 224.169 134.151 223.273 134.151H220.993C220.657 134.151 220.337 134.135 220.033 134.103C219.745 134.087 219.473 134.039 219.217 133.959C218.657 134.263 218.265 134.575 218.041 134.895C217.833 135.231 217.729 135.567 217.729 135.903C217.729 136.511 218.049 136.991 218.689 137.343C219.345 137.711 220.297 137.895 221.545 137.895ZM236.608 134.247C235.728 134.247 234.904 134.111 234.136 133.839C233.384 133.567 232.72 133.167 232.144 132.639C231.584 132.111 231.136 131.471 230.8 130.719C230.48 129.951 230.32 129.079 230.32 128.103C230.32 127.159 230.48 126.311 230.8 125.559C231.136 124.807 231.576 124.167 232.12 123.639C232.68 123.111 233.312 122.711 234.016 122.439C234.736 122.151 235.488 122.007 236.272 122.007C237.104 122.007 237.848 122.143 238.504 122.415C239.176 122.671 239.736 123.039 240.184 123.519C240.648 123.999 241 124.575 241.24 125.247C241.48 125.919 241.6 126.663 241.6 127.479C241.6 127.703 241.592 127.919 241.576 128.127C241.56 128.335 241.536 128.519 241.504 128.679H232.312C232.44 130.007 232.92 131.007 233.752 131.679C234.6 132.335 235.632 132.663 236.848 132.663C237.552 132.663 238.184 132.567 238.744 132.375C239.32 132.167 239.872 131.895 240.4 131.559L241.12 132.855C240.544 133.239 239.88 133.567 239.128 133.839C238.392 134.111 237.552 134.247 236.608 134.247ZM236.32 123.567C235.84 123.567 235.376 123.647 234.928 123.807C234.496 123.967 234.104 124.199 233.752 124.503C233.4 124.791 233.104 125.159 232.864 125.607C232.624 126.055 232.456 126.567 232.36 127.143H239.8C239.72 125.943 239.368 125.047 238.744 124.455C238.136 123.863 237.328 123.567 236.32 123.567ZM249.582 134.247C248.814 134.247 248.118 134.111 247.494 133.839C246.886 133.567 246.358 133.175 245.91 132.663C245.462 132.135 245.118 131.495 244.878 130.743C244.638 129.991 244.518 129.127 244.518 128.151C244.518 127.207 244.662 126.359 244.95 125.607C245.254 124.839 245.646 124.191 246.126 123.663C246.622 123.135 247.19 122.727 247.83 122.439C248.47 122.151 249.134 122.007 249.822 122.007C250.526 122.007 251.15 122.143 251.694 122.415C252.254 122.671 252.79 123.039 253.302 123.519H253.374L253.278 121.359V116.871H255.246V133.959H253.614L253.446 132.423H253.374C252.894 132.919 252.318 133.351 251.646 133.719C250.99 134.071 250.302 134.247 249.582 134.247ZM249.99 132.591C251.142 132.591 252.238 132.007 253.278 130.839V125.031C252.75 124.535 252.23 124.183 251.718 123.975C251.222 123.767 250.718 123.663 250.206 123.663C249.694 123.663 249.214 123.775 248.766 123.999C248.334 124.207 247.95 124.511 247.614 124.911C247.294 125.295 247.038 125.759 246.846 126.303C246.654 126.847 246.558 127.455 246.558 128.127C246.558 129.535 246.854 130.631 247.446 131.415C248.054 132.199 248.902 132.591 249.99 132.591ZM259.749 133.959V132.255H263.661V119.895H259.749V118.215H269.589V119.895H265.677V132.255H269.589V133.959H259.749ZM274.091 133.959V122.295H275.723L275.891 124.287H275.987C276.595 123.631 277.251 123.087 277.955 122.655C278.659 122.223 279.467 122.007 280.379 122.007C281.771 122.007 282.787 122.407 283.427 123.207C284.083 123.991 284.411 125.159 284.411 126.711V133.959H282.443V126.975C282.443 125.871 282.235 125.055 281.819 124.527C281.403 123.983 280.715 123.711 279.755 123.711C279.403 123.711 279.075 123.759 278.771 123.855C278.483 123.935 278.195 124.063 277.907 124.239C277.619 124.415 277.323 124.639 277.019 124.911C276.715 125.167 276.395 125.471 276.059 125.823V133.959H274.091ZM296.642 138.183C294.978 136.887 293.658 135.327 292.682 133.503C291.722 131.679 291.242 129.607 291.242 127.287C291.242 124.967 291.722 122.895 292.682 121.071C293.658 119.247 294.978 117.687 296.642 116.391L297.722 117.399C296.106 118.759 294.914 120.239 294.146 121.839C293.394 123.439 293.018 125.255 293.018 127.287C293.018 129.319 293.394 131.135 294.146 132.735C294.914 134.335 296.106 135.815 297.722 137.175L296.642 138.183ZM304.649 138.183L303.569 137.175C305.185 135.815 306.369 134.335 307.121 132.735C307.889 131.135 308.273 129.319 308.273 127.287C308.273 125.255 307.889 123.439 307.121 121.839C306.369 120.239 305.185 118.759 303.569 117.399L304.649 116.391C306.313 117.687 307.625 119.247 308.585 121.071C309.561 122.895 310.049 124.967 310.049 127.287C310.049 129.607 309.561 131.679 308.585 133.503C307.625 135.327 306.313 136.887 304.649 138.183ZM319.039 138.183L317.959 137.175C319.575 135.815 320.759 134.335 321.511 132.735C322.279 131.135 322.663 129.319 322.663 127.287C322.663 125.255 322.279 123.439 321.511 121.839C320.759 120.239 319.575 118.759 317.959 117.399L319.039 116.391C320.703 117.687 322.015 119.247 322.975 121.071C323.951 122.895 324.439 124.967 324.439 127.287C324.439 129.607 323.951 131.679 322.975 133.503C322.015 135.327 320.703 136.887 319.039 138.183ZM354.397 137.607C353.645 137.607 352.989 137.551 352.429 137.439C351.869 137.343 351.405 137.175 351.037 136.935C350.669 136.695 350.397 136.367 350.221 135.951C350.045 135.551 349.957 135.039 349.957 134.415C349.957 133.983 349.965 133.575 349.98 133.191C350.013 132.791 350.037 132.407 350.053 132.039C350.085 131.671 350.109 131.303 350.125 130.935C350.157 130.567 350.173 130.183 350.173 129.783C350.173 129.543 350.125 129.319 350.029 129.111C349.933 128.887 349.757 128.687 349.501 128.511C349.245 128.335 348.885 128.191 348.421 128.079C347.973 127.967 347.397 127.911 346.693 127.911V126.663C347.397 126.663 347.973 126.607 348.421 126.495C348.885 126.383 349.245 126.239 349.501 126.063C349.757 125.887 349.933 125.695 350.029 125.487C350.125 125.263 350.173 125.031 350.173 124.791C350.173 124.023 350.133 123.271 350.053 122.535C349.989 121.783 349.957 120.991 349.957 120.159C349.957 119.535 350.045 119.023 350.221 118.623C350.397 118.207 350.669 117.879 351.037 117.639C351.405 117.399 351.869 117.231 352.429 117.135C352.989 117.023 353.645 116.967 354.397 116.967H355.861V118.095H354.613C354.005 118.095 353.501 118.135 353.101 118.215C352.717 118.295 352.413 118.423 352.189 118.599C351.981 118.775 351.837 119.007 351.757 119.295C351.677 119.567 351.637 119.895 351.637 120.279C351.637 120.967 351.661 121.679 351.709 122.415C351.757 123.135 351.781 123.871 351.781 124.623C351.781 125.407 351.621 126.007 351.301 126.423C350.997 126.823 350.429 127.095 349.597 127.239V127.335C350.429 127.479 350.997 127.759 351.301 128.175C351.621 128.575 351.781 129.167 351.781 129.951C351.781 130.767 351.757 131.511 351.709 132.183C351.661 132.855 351.637 133.559 351.637 134.295C351.637 134.679 351.677 135.007 351.757 135.279C351.837 135.567 351.981 135.799 352.189 135.975C352.413 136.151 352.717 136.279 353.101 136.359C353.501 136.439 354.005 136.479 354.613 136.479H355.861V137.607H354.397Z" fill="#4E5769"/>
<rect x="36" y="157.959" width="343" height="49" rx="6" fill="#E7E9FB"/>
<path d="M125.395 189.807L116.443 183.735V182.247L125.395 176.175V178.071L118.171 182.943V183.039L125.395 187.911V189.807ZM130.185 195.879V179.295H131.817L131.985 180.783H132.057C132.601 180.271 133.225 179.847 133.929 179.511C134.649 179.175 135.369 179.007 136.089 179.007C136.873 179.007 137.561 179.151 138.153 179.439C138.761 179.711 139.265 180.111 139.665 180.639C140.081 181.151 140.393 181.775 140.601 182.511C140.809 183.231 140.913 184.047 140.913 184.959C140.913 185.951 140.769 186.839 140.481 187.623C140.193 188.391 139.801 189.047 139.305 189.591C138.825 190.135 138.265 190.551 137.625 190.839C136.985 191.111 136.313 191.247 135.609 191.247C135.065 191.247 134.473 191.119 133.833 190.863C133.209 190.591 132.641 190.215 132.129 189.735H132.057L132.153 191.943V195.879H130.185ZM135.273 189.591C136.329 189.591 137.193 189.183 137.865 188.367C138.537 187.551 138.873 186.415 138.873 184.959C138.873 184.319 138.809 183.735 138.681 183.207C138.553 182.679 138.353 182.231 138.081 181.863C137.825 181.479 137.489 181.183 137.073 180.975C136.657 180.767 136.161 180.663 135.585 180.663C135.073 180.663 134.521 180.807 133.929 181.095C133.353 181.367 132.761 181.807 132.153 182.415V188.223C132.713 188.719 133.273 189.071 133.833 189.279C134.393 189.487 134.873 189.591 135.273 189.591ZM144.912 189.807V187.911L152.136 183.039V182.943L144.912 178.071V176.175L153.864 182.247V183.735L144.912 189.807ZM159.374 190.959L156.974 175.191H159.23L160.382 185.079C160.414 185.415 160.446 185.719 160.478 185.991C160.51 186.263 160.534 186.543 160.55 186.831C160.582 187.103 160.606 187.391 160.622 187.695C160.654 187.999 160.678 188.343 160.694 188.727H160.766C160.83 188.343 160.894 187.999 160.958 187.695C161.022 187.391 161.078 187.103 161.126 186.831C161.19 186.543 161.254 186.263 161.318 185.991C161.382 185.719 161.454 185.423 161.534 185.103L163.07 179.247H164.99L166.478 185.103C166.558 185.423 166.63 185.719 166.694 185.991C166.758 186.263 166.814 186.543 166.862 186.831C166.926 187.103 166.982 187.391 167.03 187.695C167.094 187.999 167.166 188.343 167.246 188.727H167.342C167.358 188.343 167.374 187.999 167.39 187.695C167.422 187.391 167.446 187.103 167.462 186.831C167.494 186.543 167.518 186.263 167.534 185.991C167.566 185.719 167.598 185.423 167.63 185.103L168.734 175.191H170.894L168.59 190.959H166.094L164.558 184.623C164.43 184.143 164.318 183.671 164.222 183.207C164.142 182.743 164.062 182.271 163.982 181.791H163.91C163.83 182.271 163.75 182.743 163.67 183.207C163.59 183.671 163.486 184.143 163.358 184.623L161.822 190.959H159.374ZM179.045 191.247C178.165 191.247 177.341 191.111 176.573 190.839C175.821 190.567 175.157 190.167 174.581 189.639C174.021 189.111 173.573 188.471 173.237 187.719C172.917 186.951 172.757 186.079 172.757 185.103C172.757 184.159 172.917 183.311 173.237 182.559C173.573 181.807 174.013 181.167 174.557 180.639C175.117 180.111 175.749 179.711 176.453 179.439C177.173 179.151 177.925 179.007 178.709 179.007C179.541 179.007 180.285 179.143 180.941 179.415C181.613 179.671 182.173 180.039 182.621 180.519C183.085 180.999 183.437 181.575 183.677 182.247C183.917 182.919 184.037 183.663 184.037 184.479C184.037 184.703 184.029 184.919 184.013 185.127C183.997 185.335 183.973 185.519 183.941 185.679H174.749C174.877 187.007 175.357 188.007 176.189 188.679C177.037 189.335 178.069 189.663 179.285 189.663C179.989 189.663 180.621 189.567 181.181 189.375C181.757 189.167 182.309 188.895 182.837 188.559L183.557 189.855C182.981 190.239 182.317 190.567 181.565 190.839C180.829 191.111 179.989 191.247 179.045 191.247ZM178.757 180.567C178.277 180.567 177.813 180.647 177.365 180.807C176.933 180.967 176.541 181.199 176.189 181.503C175.837 181.791 175.541 182.159 175.301 182.607C175.061 183.055 174.893 183.567 174.797 184.143H182.237C182.157 182.943 181.805 182.047 181.181 181.455C180.573 180.863 179.765 180.567 178.757 180.567ZM195.284 191.247C194.036 191.247 193.084 190.895 192.428 190.191C191.772 189.487 191.444 188.439 191.444 187.047V175.479H187.292V173.871H193.412V187.191C193.412 188.055 193.62 188.679 194.036 189.063C194.452 189.431 195.012 189.615 195.716 189.615C196.404 189.615 197.132 189.439 197.9 189.087L198.404 190.551C197.86 190.775 197.364 190.943 196.916 191.055C196.468 191.183 195.924 191.247 195.284 191.247ZM208.21 191.247C207.298 191.247 206.45 191.111 205.666 190.839C204.898 190.567 204.226 190.175 203.65 189.663C203.074 189.135 202.626 188.495 202.306 187.743C201.986 186.975 201.826 186.111 201.826 185.151C201.826 184.175 201.994 183.311 202.33 182.559C202.682 181.791 203.154 181.143 203.746 180.615C204.338 180.087 205.026 179.687 205.81 179.415C206.61 179.143 207.45 179.007 208.33 179.007C209.29 179.007 210.114 179.175 210.802 179.511C211.506 179.847 212.098 180.247 212.578 180.711L211.594 181.983C211.114 181.567 210.61 181.239 210.082 180.999C209.57 180.759 209.01 180.639 208.402 180.639C207.73 180.639 207.114 180.751 206.554 180.975C205.994 181.183 205.514 181.487 205.114 181.887C204.73 182.287 204.426 182.767 204.202 183.327C203.978 183.871 203.866 184.479 203.866 185.151C203.866 185.823 203.97 186.431 204.178 186.975C204.402 187.519 204.706 187.991 205.09 188.391C205.49 188.775 205.962 189.079 206.506 189.303C207.066 189.511 207.682 189.615 208.354 189.615C209.074 189.615 209.73 189.479 210.322 189.207C210.93 188.919 211.474 188.567 211.954 188.151L212.842 189.423C212.186 189.999 211.466 190.447 210.682 190.767C209.898 191.087 209.074 191.247 208.21 191.247ZM221.497 191.247C220.729 191.247 219.993 191.111 219.289 190.839C218.601 190.567 217.993 190.175 217.465 189.663C216.937 189.135 216.513 188.495 216.193 187.743C215.889 186.975 215.737 186.111 215.737 185.151C215.737 184.175 215.889 183.311 216.193 182.559C216.513 181.791 216.937 181.143 217.465 180.615C217.993 180.087 218.601 179.687 219.289 179.415C219.993 179.143 220.729 179.007 221.497 179.007C222.265 179.007 222.993 179.143 223.681 179.415C224.385 179.687 225.001 180.087 225.529 180.615C226.057 181.143 226.473 181.791 226.777 182.559C227.097 183.311 227.257 184.175 227.257 185.151C227.257 186.111 227.097 186.975 226.777 187.743C226.473 188.495 226.057 189.135 225.529 189.663C225.001 190.175 224.385 190.567 223.681 190.839C222.993 191.111 222.265 191.247 221.497 191.247ZM221.497 189.615C222.057 189.615 222.561 189.511 223.009 189.303C223.473 189.079 223.865 188.775 224.185 188.391C224.521 187.991 224.777 187.519 224.953 186.975C225.129 186.431 225.217 185.823 225.217 185.151C225.217 184.479 225.129 183.871 224.953 183.327C224.777 182.767 224.521 182.287 224.185 181.887C223.865 181.487 223.473 181.183 223.009 180.975C222.561 180.751 222.057 180.639 221.497 180.639C220.937 180.639 220.425 180.751 219.961 180.975C219.513 181.183 219.121 181.487 218.785 181.887C218.465 182.287 218.217 182.767 218.041 183.327C217.865 183.871 217.777 184.479 217.777 185.151C217.777 185.823 217.865 186.431 218.041 186.975C218.217 187.519 218.465 187.991 218.785 188.391C219.121 188.775 219.513 189.079 219.961 189.303C220.425 189.511 220.937 189.615 221.497 189.615ZM230.08 190.959V179.295H231.664L231.832 180.831H231.88C232.184 180.287 232.536 179.847 232.936 179.511C233.336 179.175 233.872 179.007 234.544 179.007C235.68 179.007 236.416 179.679 236.752 181.023C237.088 180.399 237.456 179.911 237.856 179.559C238.272 179.191 238.816 179.007 239.488 179.007C240.304 179.007 240.936 179.319 241.384 179.943C241.848 180.551 242.08 181.439 242.08 182.607V190.959H240.112V182.751C240.112 181.391 239.696 180.711 238.864 180.711C238.448 180.711 238.112 180.863 237.856 181.167C237.6 181.455 237.312 181.903 236.992 182.511V190.959H235.168V182.751C235.168 182.079 235.072 181.575 234.88 181.239C234.704 180.887 234.4 180.711 233.968 180.711C233.552 180.711 233.2 180.863 232.912 181.167C232.624 181.455 232.336 181.903 232.048 182.511V190.959H230.08ZM250.998 191.247C250.118 191.247 249.294 191.111 248.526 190.839C247.774 190.567 247.11 190.167 246.534 189.639C245.974 189.111 245.526 188.471 245.19 187.719C244.87 186.951 244.71 186.079 244.71 185.103C244.71 184.159 244.87 183.311 245.19 182.559C245.526 181.807 245.966 181.167 246.51 180.639C247.07 180.111 247.702 179.711 248.406 179.439C249.126 179.151 249.878 179.007 250.662 179.007C251.494 179.007 252.238 179.143 252.894 179.415C253.566 179.671 254.126 180.039 254.574 180.519C255.038 180.999 255.39 181.575 255.63 182.247C255.87 182.919 255.99 183.663 255.99 184.479C255.99 184.703 255.982 184.919 255.966 185.127C255.95 185.335 255.926 185.519 255.894 185.679H246.702C246.83 187.007 247.31 188.007 248.142 188.679C248.99 189.335 250.022 189.663 251.238 189.663C251.942 189.663 252.574 189.567 253.134 189.375C253.71 189.167 254.262 188.895 254.79 188.559L255.51 189.855C254.934 190.239 254.27 190.567 253.518 190.839C252.782 191.111 251.942 191.247 250.998 191.247ZM250.71 180.567C250.23 180.567 249.766 180.647 249.318 180.807C248.886 180.967 248.494 181.199 248.142 181.503C247.79 181.791 247.494 182.159 247.254 182.607C247.014 183.055 246.846 183.567 246.75 184.143H254.19C254.11 182.943 253.758 182.047 253.134 181.455C252.526 180.863 251.718 180.567 250.71 180.567ZM269.301 189.807L260.349 183.735V182.247L269.301 176.175V178.071L262.077 182.943V183.039L269.301 187.911V189.807ZM274.235 194.799L282.107 173.919H283.883L276.011 194.799H274.235ZM288.482 195.879V179.295H290.114L290.282 180.783H290.354C290.898 180.271 291.522 179.847 292.226 179.511C292.946 179.175 293.666 179.007 294.386 179.007C295.17 179.007 295.858 179.151 296.45 179.439C297.058 179.711 297.562 180.111 297.962 180.639C298.378 181.151 298.69 181.775 298.898 182.511C299.106 183.231 299.21 184.047 299.21 184.959C299.21 185.951 299.066 186.839 298.778 187.623C298.49 188.391 298.098 189.047 297.602 189.591C297.122 190.135 296.562 190.551 295.922 190.839C295.282 191.111 294.61 191.247 293.906 191.247C293.362 191.247 292.77 191.119 292.13 190.863C291.506 190.591 290.938 190.215 290.426 189.735H290.354L290.45 191.943V195.879H288.482ZM293.57 189.591C294.626 189.591 295.49 189.183 296.162 188.367C296.834 187.551 297.17 186.415 297.17 184.959C297.17 184.319 297.106 183.735 296.978 183.207C296.85 182.679 296.65 182.231 296.378 181.863C296.122 181.479 295.786 181.183 295.37 180.975C294.954 180.767 294.458 180.663 293.882 180.663C293.37 180.663 292.818 180.807 292.226 181.095C291.65 181.367 291.058 181.807 290.45 182.415V188.223C291.01 188.719 291.57 189.071 292.13 189.279C292.69 189.487 293.17 189.591 293.57 189.591ZM303.209 189.807V187.911L310.433 183.039V182.943L303.209 178.071V176.175L312.161 182.247V183.735L303.209 189.807Z" fill="#4E5769"/>
<rect x="36" y="214.959" width="343" height="49" rx="6" fill="#FDE7C7"/>
<path d="M87.1573 251.607V250.479H88.3813C88.9893 250.479 89.4853 250.439 89.8693 250.359C90.2693 250.279 90.5813 250.151 90.8053 249.975C91.0293 249.799 91.1813 249.567 91.2613 249.279C91.3413 249.007 91.3813 248.679 91.3813 248.295C91.3813 247.559 91.3573 246.855 91.3093 246.183C91.2613 245.511 91.2373 244.767 91.2373 243.951C91.2373 243.167 91.3893 242.575 91.6933 242.175C91.9973 241.759 92.5653 241.479 93.3973 241.335V241.239C92.5653 241.095 91.9973 240.823 91.6933 240.423C91.3893 240.007 91.2373 239.407 91.2373 238.623C91.2373 237.871 91.2613 237.135 91.3093 236.415C91.3573 235.679 91.3813 234.967 91.3813 234.279C91.3813 233.895 91.3413 233.567 91.2613 233.295C91.1813 233.007 91.0293 232.775 90.8053 232.599C90.5813 232.423 90.2693 232.295 89.8693 232.215C89.4853 232.135 88.9893 232.095 88.3813 232.095H87.1573V230.967H88.6213C89.3733 230.967 90.0213 231.023 90.5653 231.135C91.1253 231.231 91.5893 231.399 91.9573 231.639C92.3253 231.879 92.5973 232.207 92.7733 232.623C92.9493 233.023 93.0373 233.535 93.0373 234.159C93.0373 234.991 92.9973 235.783 92.9173 236.535C92.8533 237.271 92.8213 238.023 92.8213 238.791C92.8213 239.031 92.8693 239.263 92.9653 239.487C93.0613 239.695 93.2373 239.887 93.4933 240.063C93.7493 240.239 94.1013 240.383 94.5493 240.495C95.0133 240.607 95.5973 240.663 96.3013 240.663V241.911C95.5973 241.911 95.0133 241.967 94.5493 242.079C94.1013 242.191 93.7493 242.335 93.4933 242.511C93.2373 242.687 93.0613 242.887 92.9653 243.111C92.8693 243.319 92.8213 243.543 92.8213 243.783C92.8213 244.183 92.8293 244.567 92.8453 244.935C92.8773 245.303 92.9013 245.671 92.9173 246.039C92.9493 246.407 92.9733 246.791 92.9893 247.191C93.0213 247.575 93.0373 247.983 93.0373 248.415C93.0373 249.039 92.9493 249.551 92.7733 249.951C92.5973 250.367 92.3253 250.695 91.9573 250.935C91.5893 251.175 91.1253 251.343 90.5653 251.439C90.0213 251.551 89.3733 251.607 88.6213 251.607H87.1573ZM121.483 248.247C120.603 248.247 119.779 248.111 119.011 247.839C118.259 247.567 117.595 247.167 117.019 246.639C116.459 246.111 116.011 245.471 115.675 244.719C115.355 243.951 115.195 243.079 115.195 242.103C115.195 241.159 115.355 240.311 115.675 239.559C116.011 238.807 116.451 238.167 116.995 237.639C117.555 237.111 118.187 236.711 118.891 236.439C119.611 236.151 120.363 236.007 121.147 236.007C121.979 236.007 122.723 236.143 123.379 236.415C124.051 236.671 124.611 237.039 125.059 237.519C125.523 237.999 125.875 238.575 126.115 239.247C126.355 239.919 126.475 240.663 126.475 241.479C126.475 241.703 126.467 241.919 126.451 242.127C126.435 242.335 126.411 242.519 126.379 242.679H117.187C117.315 244.007 117.795 245.007 118.627 245.679C119.475 246.335 120.507 246.663 121.723 246.663C122.427 246.663 123.059 246.567 123.619 246.375C124.195 246.167 124.747 245.895 125.275 245.559L125.995 246.855C125.419 247.239 124.755 247.567 124.003 247.839C123.267 248.111 122.427 248.247 121.483 248.247ZM121.195 237.567C120.715 237.567 120.251 237.647 119.803 237.807C119.371 237.967 118.979 238.199 118.627 238.503C118.275 238.791 117.979 239.159 117.739 239.607C117.499 240.055 117.331 240.567 117.235 241.143H124.675C124.595 239.943 124.243 239.047 123.619 238.455C123.011 237.863 122.203 237.567 121.195 237.567ZM137.721 248.247C136.473 248.247 135.521 247.895 134.865 247.191C134.209 246.487 133.881 245.439 133.881 244.047V232.479H129.729V230.871H135.849V244.191C135.849 245.055 136.057 245.679 136.473 246.063C136.889 246.431 137.449 246.615 138.153 246.615C138.841 246.615 139.569 246.439 140.337 246.087L140.841 247.551C140.297 247.775 139.801 247.943 139.353 248.055C138.905 248.183 138.361 248.247 137.721 248.247ZM149.784 248.247C148.632 248.247 147.568 248.071 146.592 247.719C145.616 247.351 144.768 246.919 144.048 246.423L144.96 245.127C145.632 245.607 146.368 245.991 147.168 246.279C147.984 246.567 148.936 246.711 150.024 246.711C151.016 246.711 151.752 246.535 152.232 246.183C152.728 245.815 152.976 245.383 152.976 244.887C152.976 244.663 152.936 244.455 152.856 244.263C152.776 244.071 152.6 243.887 152.328 243.711C152.072 243.535 151.704 243.367 151.224 243.207C150.744 243.047 150.112 242.887 149.328 242.727C147.808 242.407 146.664 241.983 145.896 241.455C145.144 240.911 144.768 240.199 144.768 239.319C144.768 238.855 144.872 238.423 145.08 238.023C145.288 237.607 145.592 237.255 145.992 236.967C146.408 236.663 146.912 236.431 147.504 236.271C148.112 236.095 148.816 236.007 149.616 236.007C150.512 236.007 151.376 236.159 152.208 236.463C153.04 236.751 153.744 237.095 154.32 237.495L153.36 238.767C152.816 238.399 152.216 238.103 151.56 237.879C150.904 237.655 150.2 237.543 149.448 237.543C148.456 237.543 147.76 237.711 147.36 238.047C146.96 238.383 146.76 238.775 146.76 239.223C146.76 239.735 147.024 240.127 147.552 240.399C148.08 240.655 148.944 240.911 150.144 241.167C151.12 241.375 151.92 241.599 152.544 241.839C153.168 242.063 153.656 242.319 154.008 242.607C154.376 242.895 154.624 243.215 154.752 243.567C154.896 243.919 154.968 244.319 154.968 244.767C154.968 245.247 154.856 245.695 154.632 246.111C154.408 246.527 154.072 246.895 153.624 247.215C153.192 247.535 152.648 247.783 151.992 247.959C151.352 248.151 150.616 248.247 149.784 248.247ZM164.654 248.247C163.774 248.247 162.95 248.111 162.182 247.839C161.43 247.567 160.766 247.167 160.19 246.639C159.63 246.111 159.182 245.471 158.846 244.719C158.526 243.951 158.366 243.079 158.366 242.103C158.366 241.159 158.526 240.311 158.846 239.559C159.182 238.807 159.622 238.167 160.166 237.639C160.726 237.111 161.358 236.711 162.062 236.439C162.782 236.151 163.534 236.007 164.318 236.007C165.15 236.007 165.894 236.143 166.55 236.415C167.222 236.671 167.782 237.039 168.23 237.519C168.694 237.999 169.046 238.575 169.286 239.247C169.526 239.919 169.646 240.663 169.646 241.479C169.646 241.703 169.638 241.919 169.622 242.127C169.606 242.335 169.582 242.519 169.55 242.679H160.358C160.486 244.007 160.966 245.007 161.798 245.679C162.646 246.335 163.678 246.663 164.894 246.663C165.598 246.663 166.23 246.567 166.79 246.375C167.366 246.167 167.918 245.895 168.446 245.559L169.166 246.855C168.59 247.239 167.926 247.567 167.174 247.839C166.438 248.111 165.598 248.247 164.654 248.247ZM164.366 237.567C163.886 237.567 163.422 237.647 162.974 237.807C162.542 237.967 162.15 238.199 161.798 238.503C161.446 238.791 161.15 239.159 160.91 239.607C160.67 240.055 160.502 240.567 160.406 241.143H167.846C167.766 239.943 167.414 239.047 166.79 238.455C166.182 237.863 165.374 237.567 164.366 237.567ZM196.1 251.607C195.348 251.607 194.692 251.551 194.132 251.439C193.572 251.343 193.108 251.175 192.74 250.935C192.372 250.695 192.1 250.367 191.924 249.951C191.748 249.551 191.66 249.039 191.66 248.415C191.66 247.983 191.668 247.575 191.684 247.191C191.716 246.791 191.74 246.407 191.756 246.039C191.788 245.671 191.812 245.303 191.828 244.935C191.86 244.567 191.876 244.183 191.876 243.783C191.876 243.543 191.828 243.319 191.732 243.111C191.636 242.887 191.46 242.687 191.204 242.511C190.948 242.335 190.588 242.191 190.124 242.079C189.676 241.967 189.1 241.911 188.396 241.911V240.663C189.1 240.663 189.676 240.607 190.124 240.495C190.588 240.383 190.948 240.239 191.204 240.063C191.46 239.887 191.636 239.695 191.732 239.487C191.828 239.263 191.876 239.031 191.876 238.791C191.876 238.023 191.836 237.271 191.756 236.535C191.692 235.783 191.66 234.991 191.66 234.159C191.66 233.535 191.748 233.023 191.924 232.623C192.1 232.207 192.372 231.879 192.74 231.639C193.108 231.399 193.572 231.231 194.132 231.135C194.692 231.023 195.348 230.967 196.1 230.967H197.564V232.095H196.316C195.708 232.095 195.204 232.135 194.804 232.215C194.42 232.295 194.116 232.423 193.892 232.599C193.684 232.775 193.54 233.007 193.46 233.295C193.38 233.567 193.34 233.895 193.34 234.279C193.34 234.967 193.364 235.679 193.412 236.415C193.46 237.135 193.484 237.871 193.484 238.623C193.484 239.407 193.324 240.007 193.004 240.423C192.7 240.823 192.132 241.095 191.3 241.239V241.335C192.132 241.479 192.7 241.759 193.004 242.175C193.324 242.575 193.484 243.167 193.484 243.951C193.484 244.767 193.46 245.511 193.412 246.183C193.364 246.855 193.34 247.559 193.34 248.295C193.34 248.679 193.38 249.007 193.46 249.279C193.54 249.567 193.684 249.799 193.892 249.975C194.116 250.151 194.42 250.279 194.804 250.359C195.204 250.439 195.708 250.479 196.316 250.479H197.564V251.607H196.1Z" fill="#4E5769"/>
<rect x="36" y="271.959" width="343" height="49" rx="6" fill="#E7E9FB"/>
<path d="M125.395 303.807L116.443 297.735V296.247L125.395 290.175V292.071L118.171 296.943V297.039L125.395 301.911V303.807ZM131.145 304.959V289.215H140.817V290.895H133.161V296.223H139.641V297.903H133.161V304.959H131.145ZM149.544 305.247C148.776 305.247 148.04 305.111 147.336 304.839C146.648 304.567 146.04 304.175 145.512 303.663C144.984 303.135 144.56 302.495 144.24 301.743C143.936 300.975 143.784 300.111 143.784 299.151C143.784 298.175 143.936 297.311 144.24 296.559C144.56 295.791 144.984 295.143 145.512 294.615C146.04 294.087 146.648 293.687 147.336 293.415C148.04 293.143 148.776 293.007 149.544 293.007C150.312 293.007 151.04 293.143 151.728 293.415C152.432 293.687 153.048 294.087 153.576 294.615C154.104 295.143 154.52 295.791 154.824 296.559C155.144 297.311 155.304 298.175 155.304 299.151C155.304 300.111 155.144 300.975 154.824 301.743C154.52 302.495 154.104 303.135 153.576 303.663C153.048 304.175 152.432 304.567 151.728 304.839C151.04 305.111 150.312 305.247 149.544 305.247ZM149.544 303.615C150.104 303.615 150.608 303.511 151.056 303.303C151.52 303.079 151.912 302.775 152.232 302.391C152.568 301.991 152.824 301.519 153 300.975C153.176 300.431 153.264 299.823 153.264 299.151C153.264 298.479 153.176 297.871 153 297.327C152.824 296.767 152.568 296.287 152.232 295.887C151.912 295.487 151.52 295.183 151.056 294.975C150.608 294.751 150.104 294.639 149.544 294.639C148.984 294.639 148.472 294.751 148.008 294.975C147.56 295.183 147.168 295.487 146.832 295.887C146.512 296.287 146.264 296.767 146.088 297.327C145.912 297.871 145.824 298.479 145.824 299.151C145.824 299.823 145.912 300.431 146.088 300.975C146.264 301.519 146.512 301.991 146.832 302.391C147.168 302.775 147.56 303.079 148.008 303.303C148.472 303.511 148.984 303.615 149.544 303.615ZM160.238 304.959V293.295H161.87L162.038 296.055H162.11C162.718 295.111 163.462 294.367 164.342 293.823C165.238 293.279 166.23 293.007 167.318 293.007C167.75 293.007 168.15 293.047 168.518 293.127C168.886 293.191 169.254 293.311 169.622 293.487L169.166 295.191C168.75 295.047 168.398 294.943 168.11 294.879C167.838 294.815 167.47 294.783 167.006 294.783C166.126 294.783 165.278 295.039 164.462 295.551C163.662 296.047 162.91 296.903 162.206 298.119V304.959H160.238ZM172.517 304.959V293.295H174.101L174.269 294.831H174.317C174.621 294.287 174.973 293.847 175.373 293.511C175.773 293.175 176.309 293.007 176.981 293.007C178.117 293.007 178.853 293.679 179.189 295.023C179.525 294.399 179.893 293.911 180.293 293.559C180.709 293.191 181.253 293.007 181.925 293.007C182.741 293.007 183.373 293.319 183.821 293.943C184.285 294.551 184.517 295.439 184.517 296.607V304.959H182.549V296.751C182.549 295.391 182.133 294.711 181.301 294.711C180.885 294.711 180.549 294.863 180.293 295.167C180.037 295.455 179.749 295.903 179.429 296.511V304.959H177.605V296.751C177.605 296.079 177.509 295.575 177.317 295.239C177.141 294.887 176.837 294.711 176.405 294.711C175.989 294.711 175.637 294.863 175.349 295.167C175.061 295.455 174.773 295.903 174.485 296.511V304.959H172.517ZM202.282 308.799L210.154 287.919H211.93L204.058 308.799H202.282ZM216.865 303.807V301.911L224.089 297.039V296.943L216.865 292.071V290.175L225.817 296.247V297.735L216.865 303.807Z" fill="#4E5769"/>
<rect x="36" y="328.959" width="343" height="86" rx="6" fill="#FDE7C7"/>
<path d="M87.1573 365.607V364.479H88.3813C88.9893 364.479 89.4853 364.439 89.8693 364.359C90.2693 364.279 90.5813 364.151 90.8053 363.975C91.0293 363.799 91.1813 363.567 91.2613 363.279C91.3413 363.007 91.3813 362.679 91.3813 362.295C91.3813 361.559 91.3573 360.855 91.3093 360.183C91.2613 359.511 91.2373 358.767 91.2373 357.951C91.2373 357.167 91.3893 356.575 91.6933 356.175C91.9973 355.759 92.5653 355.479 93.3973 355.335V355.239C92.5653 355.095 91.9973 354.823 91.6933 354.423C91.3893 354.007 91.2373 353.407 91.2373 352.623C91.2373 351.871 91.2613 351.135 91.3093 350.415C91.3573 349.679 91.3813 348.967 91.3813 348.279C91.3813 347.895 91.3413 347.567 91.2613 347.295C91.1813 347.007 91.0293 346.775 90.8053 346.599C90.5813 346.423 90.2693 346.295 89.8693 346.215C89.4853 346.135 88.9893 346.095 88.3813 346.095H87.1573V344.967H88.6213C89.3733 344.967 90.0213 345.023 90.5653 345.135C91.1253 345.231 91.5893 345.399 91.9573 345.639C92.3253 345.879 92.5973 346.207 92.7733 346.623C92.9493 347.023 93.0373 347.535 93.0373 348.159C93.0373 348.991 92.9973 349.783 92.9173 350.535C92.8533 351.271 92.8213 352.023 92.8213 352.791C92.8213 353.031 92.8693 353.263 92.9653 353.487C93.0613 353.695 93.2373 353.887 93.4933 354.063C93.7493 354.239 94.1013 354.383 94.5493 354.495C95.0133 354.607 95.5973 354.663 96.3013 354.663V355.911C95.5973 355.911 95.0133 355.967 94.5493 356.079C94.1013 356.191 93.7493 356.335 93.4933 356.511C93.2373 356.687 93.0613 356.887 92.9653 357.111C92.8693 357.319 92.8213 357.543 92.8213 357.783C92.8213 358.183 92.8293 358.567 92.8453 358.935C92.8773 359.303 92.9013 359.671 92.9173 360.039C92.9493 360.407 92.9733 360.791 92.9893 361.191C93.0213 361.575 93.0373 361.983 93.0373 362.415C93.0373 363.039 92.9493 363.551 92.7733 363.951C92.5973 364.367 92.3253 364.695 91.9573 364.935C91.5893 365.175 91.1253 365.343 90.5653 365.439C90.0213 365.551 89.3733 365.607 88.6213 365.607H87.1573ZM58.376 402.607V401.479H59.6C60.208 401.479 60.704 401.439 61.088 401.359C61.488 401.279 61.8 401.151 62.024 400.975C62.248 400.799 62.4 400.567 62.48 400.279C62.56 400.007 62.6 399.679 62.6 399.295C62.6 398.559 62.576 397.855 62.528 397.183C62.48 396.511 62.456 395.767 62.456 394.951C62.456 394.167 62.608 393.575 62.912 393.175C63.216 392.759 63.784 392.479 64.616 392.335V392.239C63.784 392.095 63.216 391.823 62.912 391.423C62.608 391.007 62.456 390.407 62.456 389.623C62.456 388.871 62.48 388.135 62.528 387.415C62.576 386.679 62.6 385.967 62.6 385.279C62.6 384.895 62.56 384.567 62.48 384.295C62.4 384.007 62.248 383.775 62.024 383.599C61.8 383.423 61.488 383.295 61.088 383.215C60.704 383.135 60.208 383.095 59.6 383.095H58.376V381.967H59.84C60.592 381.967 61.24 382.023 61.784 382.135C62.344 382.231 62.808 382.399 63.176 382.639C63.544 382.879 63.816 383.207 63.992 383.623C64.168 384.023 64.256 384.535 64.256 385.159C64.256 385.991 64.216 386.783 64.136 387.535C64.072 388.271 64.04 389.023 64.04 389.791C64.04 390.031 64.088 390.263 64.184 390.487C64.28 390.695 64.456 390.887 64.712 391.063C64.968 391.239 65.32 391.383 65.768 391.495C66.232 391.607 66.816 391.663 67.52 391.663V392.911C66.816 392.911 66.232 392.967 65.768 393.079C65.32 393.191 64.968 393.335 64.712 393.511C64.456 393.687 64.28 393.887 64.184 394.111C64.088 394.319 64.04 394.543 64.04 394.783C64.04 395.183 64.048 395.567 64.064 395.935C64.096 396.303 64.12 396.671 64.136 397.039C64.168 397.407 64.192 397.791 64.208 398.191C64.24 398.575 64.256 398.983 64.256 399.415C64.256 400.039 64.168 400.551 63.992 400.951C63.816 401.367 63.544 401.695 63.176 401.935C62.808 402.175 62.344 402.343 61.784 402.439C61.24 402.551 60.592 402.607 59.84 402.607H58.376Z" fill="#4E5769"/>
<rect x="16" y="43.9594" width="383" height="391" rx="6" stroke="white" stroke-linejoin="bevel"/>
</svg>
