<?xml version="1.0" standalone="no"?>
<!DOCTYPE svg PUBLIC "-//W3C//DTD SVG 20010904//EN"
 "http://www.w3.org/TR/2001/REC-SVG-20010904/DTD/svg10.dtd">
<svg version="1.0" xmlns="http://www.w3.org/2000/svg"
 width="700.000000pt" height="700.000000pt" viewBox="0 0 700.000000 700.000000"
 preserveAspectRatio="xMidYMid meet">
<metadata>
Created by potrace 1.11, written by Peter Selinger 2001-2013
</metadata>
<g transform="translate(0.000000,700.000000) scale(0.100000,-0.100000)"
fill="#000000" stroke="none">
<path d="M2150 6284 c-103 -22 -204 -77 -279 -153 -123 -123 -195 -284 -236
-526 -26 -158 -22 -475 10 -662 2 -12 9 -57 15 -100 7 -43 18 -107 26 -142 8
-35 14 -65 12 -66 -2 -2 -57 -22 -123 -45 -246 -86 -452 -184 -620 -295 -500
-330 -620 -728 -335 -1107 70 -93 280 -269 404 -340 173 -98 456 -223 618
-274 64 -20 62 -12 38 -119 -5 -22 -18 -101 -29 -175 -49 -328 -46 -585 9
-818 88 -372 325 -579 654 -571 323 7 678 190 1149 591 l37 31 38 -31 c303
-257 504 -391 737 -494 62 -26 177 -64 224 -73 14 -3 37 -8 51 -11 42 -11 232
-13 280 -4 262 50 458 277 519 600 19 98 21 114 27 195 18 219 0 469 -56 759
-11 55 -19 100 -17 101 1 1 45 17 97 35 396 136 698 307 897 508 92 93 147
173 191 281 30 72 36 102 40 183 3 58 0 117 -8 150 -84 357 -480 668 -1138
893 -79 27 -82 30 -77 54 16 75 44 231 50 281 3 25 8 61 10 80 23 183 23 461
0 577 -2 11 -6 38 -9 59 -24 150 -112 350 -196 446 -85 96 -215 169 -330 186
-55 8 -212 8 -260 0 -191 -32 -417 -130 -636 -274 -76 -50 -203 -141 -214
-154 -3 -3 -39 -33 -80 -67 -41 -34 -90 -75 -107 -91 l-33 -30 -52 46 c-29 26
-55 50 -58 53 -3 3 -59 48 -125 99 -247 191 -449 305 -662 376 -40 13 -85 26
-100 29 -15 3 -39 7 -53 11 -51 12 -237 11 -300 -2z m320 -209 c146 -34 284
-97 445 -200 141 -91 220 -153 429 -337 6 -4 -22 -40 -65 -85 -41 -43 -101
-109 -134 -147 -33 -38 -67 -76 -76 -85 -23 -23 -166 -204 -233 -294 -61 -81
-64 -83 -161 -92 -33 -3 -73 -8 -90 -10 -16 -3 -46 -7 -65 -9 -130 -18 -414
-74 -555 -109 -33 -9 -62 -14 -66 -11 -4 2 -10 25 -14 51 -5 27 -9 53 -11 58
-4 17 -34 188 -39 225 -18 135 -25 380 -12 485 36 314 168 508 382 561 70 17
188 17 265 -1z m2312 4 c117 -25 226 -106 293 -220 36 -61 78 -183 90 -259 4
-25 9 -58 12 -75 12 -74 6 -350 -12 -485 -1 -14 -6 -47 -9 -75 -4 -27 -17 -99
-29 -160 -25 -125 -16 -118 -127 -90 -204 51 -583 115 -755 129 -11 0 -38 27
-64 61 -54 73 -258 327 -301 375 -18 19 -50 55 -72 80 -22 25 -67 73 -100 106
l-60 62 36 33 c20 18 54 48 74 67 244 221 596 423 785 448 23 4 44 8 46 10 9
8 143 3 193 -7z m-1200 -781 c137 -150 348 -404 348 -422 0 -3 -57 -2 -127 1
-158 8 -481 8 -625 0 -60 -3 -108 -3 -108 1 0 7 124 165 177 227 125 144 245
275 252 275 4 0 41 -37 83 -82z m313 -642 c182 -10 208 -14 223 -34 47 -62
342 -533 342 -545 0 -2 26 -51 59 -109 32 -58 88 -166 125 -240 l67 -136 -89
-173 c-148 -290 -276 -510 -435 -749 -86 -130 -80 -123 -119 -126 -18 -1 -91
-5 -163 -10 -230 -15 -806 -8 -983 11 -29 3 -24 -3 -119 140 -153 231 -277
444 -425 734 l-89 173 76 152 c41 83 86 169 98 191 12 22 42 76 67 120 131
238 356 585 379 586 9 0 24 2 34 4 10 2 80 6 155 10 75 3 138 7 139 8 4 5 541
-1 658 -7z m-1301 -73 c-103 -155 -291 -478 -374 -643 l-43 -85 -20 45 c-55
123 -133 345 -203 572 -4 13 4 19 34 27 42 12 255 56 312 66 19 3 60 10 90 15
30 5 75 12 100 15 25 4 46 7 47 8 1 1 18 3 38 5 l37 2 -18 -27z m1926 11 c29
-4 172 -28 285 -48 17 -3 45 -10 63 -15 18 -5 36 -10 40 -10 26 -3 121 -24
130 -30 14 -8 -37 -177 -116 -391 -69 -186 -94 -242 -102 -233 -4 4 -35 62
-70 128 -91 175 -199 361 -295 510 -28 44 -55 86 -59 93 -9 14 -4 14 124 -4z
m1075 -286 c309 -133 506 -272 626 -441 113 -161 123 -346 26 -508 -130 -217
-423 -407 -872 -563 l-125 -44 -11 42 c-12 46 -52 177 -76 246 -15 44 -22 68
-23 73 0 5 -100 260 -144 368 l-48 115 52 125 c28 68 55 133 60 144 28 60 122
337 169 496 l23 76 111 -39 c62 -21 166 -62 232 -90z m-3814 20 c66 -219 144
-434 229 -632 40 -96 41 -100 27 -135 -8 -20 -42 -106 -76 -191 -34 -85 -66
-164 -71 -175 -20 -44 -132 -400 -133 -422 -1 -19 -15 -16 -139 26 -464 158
-786 378 -889 609 -67 149 -55 297 37 444 43 68 191 209 284 270 100 66 232
135 350 185 95 41 318 121 337 122 7 1 26 -43 44 -101z m448 -1095 c27 -54 72
-138 100 -186 28 -49 51 -90 51 -92 0 -4 158 -264 189 -309 48 -71 49 -68 -16
-61 -32 3 -69 8 -83 10 -14 3 -43 7 -65 11 -22 3 -119 21 -215 41 -96 20 -187
38 -203 41 -15 2 -29 8 -32 12 -11 17 204 630 221 630 2 0 26 -44 53 -97z
m2664 -68 c44 -112 157 -444 157 -460 0 -18 -617 -135 -650 -123 -5 2 17 44
49 93 106 163 253 419 341 594 23 46 34 61 40 50 4 -8 33 -77 63 -154z m-2898
-690 c11 -3 70 -16 130 -29 139 -31 380 -72 540 -92 117 -14 108 -8 186 -112
141 -187 285 -357 442 -521 l61 -63 -24 -20 c-14 -11 -55 -47 -92 -80 -223
-198 -491 -362 -688 -421 -105 -32 -148 -39 -225 -38 -95 2 -134 10 -212 48
-111 53 -225 210 -258 353 -2 8 -8 35 -14 60 -16 71 -25 167 -25 275 0 105 11
293 18 316 3 8 7 37 10 64 3 28 8 61 11 75 3 14 12 61 20 105 22 111 18 105
62 94 21 -5 47 -12 58 -14z m3135 -105 c12 -63 24 -128 26 -145 2 -16 8 -70
15 -119 13 -104 16 -343 6 -436 -26 -229 -108 -399 -237 -492 -40 -28 -122
-64 -166 -72 -39 -8 -185 -9 -204 -2 -8 3 -26 7 -40 10 -195 34 -517 221 -770
446 -36 32 -76 67 -90 78 -21 17 -22 21 -10 35 203 210 344 375 489 569 78
104 76 103 186 113 33 3 71 7 85 10 14 2 43 7 65 10 22 3 51 7 65 10 14 2 41
7 60 9 19 3 46 8 60 10 150 29 222 44 315 67 61 14 113 24 116 20 3 -3 16 -58
29 -121z m-1635 -63 c160 1 323 3 363 6 39 3 72 2 72 -1 0 -16 -245 -311 -364
-437 l-66 -70 -66 70 c-138 147 -364 418 -364 438 0 3 30 4 68 0 37 -3 198 -6
357 -6z"/>
<path d="M3438 4109 c-192 -29 -369 -176 -428 -354 -25 -77 -30 -107 -31 -180
-1 -148 53 -275 161 -385 125 -125 285 -178 461 -152 214 31 396 198 445 408
15 66 20 172 9 223 -57 288 -332 483 -617 440z"/>
</g>
</svg>
