<svg width="500" height="263" viewBox="0 0 500 263" fill="none" xmlns="http://www.w3.org/2000/svg">
<g clip-path="url(#clip0_3_9651)">
<rect width="500" height="263" fill="url(#paint0_linear_3_9651)"/>
<path d="M65.9338 55.3301C137.274 48.1396 202.151 46.039 258.867 49.1091C329.642 52.9871 387.651 64.9443 431.521 84.7383C518.939 124.165 593.026 145.494 644.814 156.885C644.814 154.946 644.814 153.007 644.814 151.068C560.467 132.405 484.36 102.351 433.784 79.4868C389.348 59.4505 330.611 47.2509 259.109 43.3729C202.07 40.222 136.87 42.3226 65.2875 49.5939C-2.33615 56.6227 -63.1732 66.8025 -103.974 74.6393C-103.974 76.4975 -103.974 78.4365 -103.893 80.3755C-63.254 72.6195 -2.17456 62.2782 65.9338 55.3301Z" fill="#4B2A5B"/>
<path d="M65.853 38.3638C137.193 31.1733 202.15 29.0728 258.948 32.1429C329.803 36.0209 387.974 48.0588 431.844 67.8528C519.101 107.279 593.107 128.527 644.895 139.919C644.895 138.546 644.895 137.172 644.895 135.799C560.386 117.136 484.117 87.0005 433.46 64.1364C389.186 44.1808 330.53 32.0621 259.19 28.1841C202.231 25.0332 137.031 27.1338 65.449 34.405C-2.41697 41.2723 -63.3348 51.5329 -104.135 59.3697C-104.135 60.7431 -104.135 62.1166 -104.135 63.4901C-63.3348 55.6533 -2.25539 45.3119 65.853 38.3638Z" fill="#401B56"/>
<path d="M-5.00234 106.148C3.6425 105.987 9.86355 105.906 11.8026 105.906C33.3743 105.825 58.5008 105.663 83.2234 105.502C86.132 105.502 89.0405 105.502 92.0299 105.502C112.713 105.583 134.042 105.583 152.544 95.4836C158.926 92.0095 164.743 87.7276 170.48 83.5264C176.701 79.0021 183.083 74.2354 189.951 70.8421C209.099 61.2279 230.59 61.7934 251.353 62.359C257.17 62.5205 263.23 62.6821 269.047 62.6013C280.277 62.4398 291.669 62.5205 302.738 62.5205C308.393 62.5205 313.968 62.6013 319.623 62.6013H645.622C645.622 60.6623 645.703 58.8041 645.703 56.9459H319.542C313.887 56.9459 308.312 56.9459 302.657 56.8651C291.588 56.7843 280.116 56.7843 268.885 56.9459C263.068 57.0267 257.17 56.8651 251.353 56.7035C229.862 56.138 207.644 55.5725 187.285 65.833C180.013 69.4686 173.388 74.3161 167.006 79.0021C161.512 83.0417 155.775 87.2428 149.716 90.5553C132.507 99.8463 111.905 99.8463 91.9491 99.7656C88.9597 99.7656 86.0512 99.7656 83.1426 99.7656C58.42 100.008 33.3743 100.089 11.7218 100.17C9.78275 100.17 3.80408 100.25 -5.16393 100.412C-25.2006 100.816 -69.2326 101.624 -103.812 101.705C-103.812 103.563 -103.812 105.502 -103.812 107.36C-100.903 107.36 -97.8333 107.36 -94.6824 107.279C-63.0924 107.118 -26.7356 106.552 -5.00234 106.148Z" fill="#C63E3A"/>
<path d="M-94.6824 90.3937C-63.0924 90.2321 -26.7356 89.5858 -5.00231 89.1818C3.64252 89.0202 9.86357 88.9395 11.8026 88.9395C33.3743 88.8587 58.5009 88.6971 83.2235 88.5355C86.2936 88.5355 89.4445 88.5355 92.5146 88.5355C112.794 88.6163 133.719 88.6971 151.897 78.7597C158.199 75.2856 164.097 71.0037 169.833 66.8025C176.135 62.1974 182.599 57.4307 189.547 53.9566C208.856 44.2616 230.428 44.8272 251.353 45.3927C257.17 45.5543 263.149 45.7159 269.047 45.6351C280.277 45.4735 291.669 45.5543 302.738 45.5543C308.393 45.5543 313.968 45.6351 319.623 45.6351H645.784C645.784 44.2616 645.784 42.8882 645.865 41.5955H319.543C313.887 41.5955 308.312 41.5955 302.657 41.5147C291.588 41.4339 280.116 41.4339 268.885 41.5955C263.068 41.6763 257.09 41.5147 251.353 41.3531C229.943 40.7876 207.887 40.222 187.689 50.4018C180.498 54.0374 173.792 58.8849 167.41 63.6516C161.835 67.772 156.018 72.054 149.958 75.3664C132.669 84.5767 112.228 84.4959 92.5146 84.4151C89.4445 84.4151 86.2128 84.4151 83.1427 84.4151C58.4201 84.6575 33.3743 84.7383 11.7218 84.8191C9.78277 84.8191 3.8041 84.8999 -5.1639 85.0615C-25.2813 85.3846 -69.3942 86.1925 -103.974 86.2733C-103.974 87.6468 -103.974 88.9395 -103.974 90.3129C-100.903 90.3937 -97.8333 90.3937 -94.6824 90.3937Z" fill="#8C1E35"/>
<path fill-rule="evenodd" clip-rule="evenodd" d="M20.0434 131.032C1.70346 131.274 -17.2829 131.436 -35.946 131.436V131.517H-103.65V127.477H-36.1076C-21.8752 127.477 -7.45485 127.336 6.72346 127.198C11.1374 127.154 15.5278 127.112 19.8819 127.073C21.4962 127.059 23.1128 127.045 24.7316 127.03C60.0568 126.718 96.4123 126.396 132.103 127.477C145.838 127.881 159.169 130.305 172.096 132.729C184.538 135.072 197.384 137.415 210.311 137.899C210.992 137.926 211.687 137.947 212.395 137.962C212.982 138.73 213.647 139.43 214.349 140.06C215.089 140.724 215.907 141.346 216.79 141.929C214.496 141.966 212.3 141.935 210.23 141.858C196.98 141.293 183.972 138.95 171.449 136.607C158.684 134.264 145.434 131.84 132.103 131.436C94.8576 130.305 56.8042 130.628 20.0434 131.032ZM277.925 118.188C278.974 117.237 280.009 116.284 281.036 115.339C281.322 115.075 281.608 114.813 281.893 114.55C289.972 107.037 297.648 99.9271 308.393 95.9683C326.248 89.3434 346.123 89.505 363.655 89.6666C453.578 90.4745 546.005 90.8785 645.299 90.9593V86.9197C546.005 86.8389 453.578 86.4349 363.655 85.627C346.689 85.4654 325.521 85.3038 306.939 92.1711C295.406 96.4456 287.173 104.102 279.107 111.603L279.065 111.642C277.863 112.764 276.646 113.896 275.408 115.023C275.392 115.126 275.376 115.229 275.359 115.332C275.265 115.916 275.158 116.509 275.037 117.111C275.627 117.31 276.204 117.516 276.765 117.729C277.156 117.878 277.543 118.031 277.925 118.188ZM248.218 132.479C249.519 131.998 250.817 131.479 252.107 130.919C252.155 131.094 252.181 131.278 252.181 131.466C252.181 132.589 251.258 133.544 250.065 133.544C249.259 133.544 248.576 133.108 248.218 132.479Z" fill="#E84D34"/>
<path fill-rule="evenodd" clip-rule="evenodd" d="M233.286 152.895C236.147 152.636 239.098 152.251 242.095 151.706C242.644 152.392 243.197 153.06 243.753 153.708C243.496 153.928 243.24 154.14 242.986 154.345C240.568 156.299 238.493 157.458 236.901 157.97C236.54 158.086 236.23 158.162 235.963 158.209C235.766 158.231 235.57 158.252 235.374 158.273C234.876 158.288 234.636 158.177 234.556 158.13C234.422 158.054 233.887 157.675 233.54 156.062C233.357 155.21 233.262 154.153 233.286 152.895ZM224.283 153.337C222.285 153.355 220.368 153.321 218.551 153.25C205.625 152.765 192.859 150.422 180.498 148.079C167.571 145.655 154.159 143.232 140.425 142.828C104.702 141.745 68.2401 142.069 32.95 142.382C31.3654 142.396 29.7832 142.41 28.2035 142.424C23.8498 142.462 19.4597 142.505 15.0461 142.548C0.8675 142.687 -13.5532 142.828 -27.7859 142.828H-103.65V148.483H-27.8667V148.402C-9.20358 148.402 9.78274 148.241 28.2035 147.998C64.9642 147.594 103.018 147.271 140.263 148.402C153.551 148.805 166.678 151.214 179.405 153.55L179.528 153.573C192.132 155.916 205.14 158.259 218.39 158.824C220.466 158.901 222.669 158.932 224.973 158.896C224.886 158.583 224.809 158.269 224.742 157.955C224.43 156.508 224.287 154.957 224.283 153.337ZM290.06 131.797C290.246 131.623 290.433 131.448 290.619 131.274L290.823 131.084C298.747 123.721 306.302 116.699 316.876 112.854C334.651 106.31 354.445 106.471 371.896 106.633C459.314 107.36 549.156 107.764 645.299 107.926V102.27C549.156 102.189 459.314 101.785 371.896 100.977C354.849 100.816 333.6 100.654 314.856 107.602C303.897 111.684 295.908 118.735 288.308 125.779C289.371 127.412 290.065 129.315 290.065 131.466C290.065 131.577 290.063 131.687 290.06 131.797ZM266.541 149.462C266.52 149.32 266.497 149.176 266.474 149.031C266.421 148.704 266.363 148.371 266.299 148.034C264.335 148.394 262.287 148.689 260.174 148.915C258.932 150.607 257.662 152.208 256.378 153.708C256.386 153.716 256.395 153.723 256.403 153.73C259.81 152.563 263.207 151.154 266.541 149.462Z" fill="#FB7552"/>
<path d="M-71.9796 161.167C-64.6274 158.582 -57.1945 155.835 -50.0039 153.169C-24.231 143.635 2.43063 133.698 30.4658 131.84C71.5893 129.174 110.289 144.039 145.919 160.521C149.797 162.298 153.675 164.076 157.553 165.853C171.772 172.397 186.558 179.103 200.777 186.697C218.794 196.312 238.184 205.684 259.271 205.684C259.837 205.684 260.321 205.684 260.887 205.684C281.489 205.199 301.364 197.362 320.593 189.687C330.369 185.809 340.468 181.85 350.244 178.941C421.018 158.42 497.691 152.846 563.456 150.18C570.324 149.937 577.191 149.533 584.382 149.129C604.418 148.079 624.94 147.029 644.895 147.756C644.895 146.382 644.895 145.09 644.895 143.716C624.859 142.989 604.257 144.039 584.139 145.171C576.868 145.574 570.081 145.898 563.214 146.221C497.206 148.887 420.21 154.462 349.032 175.144C339.014 178.053 328.834 182.092 318.977 185.97C300.072 193.484 280.52 201.159 260.645 201.644C239.881 202.129 220.571 192.757 202.555 183.143C188.173 175.467 173.388 168.681 159.088 162.137C155.21 160.359 151.332 158.582 147.535 156.805C111.42 140.081 72.2357 124.973 30.1426 127.72C1.54192 129.578 -25.3621 139.596 -51.4582 149.291C-58.6488 151.957 -66.0817 154.704 -73.3531 157.208C-83.2906 160.683 -93.3897 164.237 -103.57 168.035C-103.57 169.489 -103.57 170.862 -103.57 172.317C-92.9049 168.519 -82.3211 164.722 -71.9796 161.167Z" fill="#F4A519"/>
<path d="M-71.7372 178.053C-64.3851 175.467 -56.9521 172.72 -49.7616 170.054C-24.0694 160.521 2.5922 150.664 30.4657 148.806C71.4277 146.14 109.966 161.006 145.515 177.406C149.393 179.184 153.271 180.961 157.149 182.739C171.368 189.283 186.073 195.989 200.373 203.583C218.955 213.52 238.992 223.135 260.887 222.65C281.651 222.165 301.606 214.247 320.916 206.653C330.611 202.775 340.71 198.816 350.486 195.989C421.18 175.467 497.852 169.974 563.537 167.307C570.404 167.065 577.595 166.661 584.462 166.257C604.499 165.207 624.939 164.157 644.895 164.803C644.895 162.945 644.895 161.006 644.895 159.147C624.859 158.42 604.337 159.551 584.139 160.602C576.948 161.006 570.081 161.329 563.214 161.652C497.206 164.318 420.13 169.893 348.87 190.575C338.771 193.484 328.591 197.524 318.735 201.402C299.91 208.834 280.358 216.59 260.644 216.994C240.042 217.479 220.894 208.188 202.958 198.655C188.577 190.979 173.792 184.193 159.492 177.649C155.614 175.871 151.736 174.094 147.938 172.317C125.317 161.814 107.784 155.108 90.9796 150.341C69.2463 144.282 49.2904 141.858 30.2233 143.151C1.4611 145.009 -25.5237 155.027 -51.6198 164.722C-58.8104 167.388 -66.1625 170.135 -73.5146 172.64C-83.3714 176.033 -93.3897 179.588 -103.408 183.304C-103.408 185.324 -103.408 187.344 -103.408 189.364C-92.8241 185.486 -82.1595 181.688 -71.7372 178.053Z" fill="#FDC755"/>
<path d="M250.065 138.044C253.719 138.044 256.681 135.098 256.681 131.466C256.681 127.833 253.719 124.888 250.065 124.888C246.411 124.888 243.449 127.833 243.449 131.466C243.449 135.098 246.411 138.044 250.065 138.044Z" fill="white"/>
<path d="M250.065 144.942C269.671 144.942 285.565 138.909 285.565 131.466C285.565 124.023 269.671 117.989 250.065 117.989C230.459 117.989 214.565 124.023 214.565 131.466C214.565 138.909 230.459 144.942 250.065 144.942Z" stroke="white" stroke-width="3"/>
<path d="M238.327 138.204C248.13 155.086 261.332 165.755 267.815 162.033C274.298 158.312 271.607 141.609 261.804 124.727C252.001 107.845 238.798 97.1764 232.315 100.898C225.832 104.619 228.524 121.322 238.327 138.204Z" stroke="white" stroke-width="3"/>
<path d="M238.327 124.727C228.524 141.609 225.832 158.312 232.315 162.033C238.798 165.755 252.001 155.086 261.804 138.204C271.607 121.322 274.298 104.619 267.815 100.898C261.332 97.1764 248.13 107.845 238.327 124.727Z" stroke="white" stroke-width="3"/>
</g>
<defs>
<linearGradient id="paint0_linear_3_9651" x1="250" y1="0" x2="250" y2="263" gradientUnits="userSpaceOnUse">
<stop stop-color="#261033"/>
<stop offset="1" stop-color="#35164A"/>
</linearGradient>
<clipPath id="clip0_3_9651">
<rect width="500" height="263" fill="white"/>
</clipPath>
</defs>
</svg>
