<?xml version="1.0" encoding="UTF-8"?>
<svg width="600px" height="180.766722px" viewBox="0 0 600 180.766722" version="1.1" xmlns="http://www.w3.org/2000/svg" xmlns:xlink="http://www.w3.org/1999/xlink">
    <title>Group</title>
    <g id="Page-1" stroke="none" stroke-width="1" fill="none" fill-rule="evenodd">
        <g id="Group" transform="translate(0, 0)" fill-rule="nonzero">
            <path d="M238.674643,136.444487 L238.674643,40.7880921 L279.602667,40.7880921 C291.581922,40.7880921 300.554839,43.4984068 306.523063,48.9190363 C312.489641,54.2938957 315.47293,61.5593239 315.47293,70.7149916 C315.47293,77.6386258 313.765607,83.5146514 310.349313,88.3430683 C306.933019,93.1713207 301.784705,96.6104997 294.907664,98.660276 C299.05167,104.536302 303.106769,110.640025 307.06967,116.971612 C311.032571,123.303033 314.835771,129.793992 318.479269,136.444487 L301.740252,136.444487 C298.41451,129.976249 294.907664,123.667548 291.218067,117.518219 C287.572922,111.368889 283.996927,105.743282 280.49008,100.641727 C280.216777,100.641727 279.920424,100.641727 279.602667,100.641727 L253.023077,100.641727 L253.023077,136.444487 L238.674643,136.444487 Z M278.23615,54.1118031 L253.023077,54.1118031 L253.023077,87.5914837 L278.23615,87.5914837 C285.9792,87.5914837 291.672475,86.2249661 295.317619,83.4919309 C298.961117,80.7132903 300.78369,76.4998063 300.78369,70.8516434 C300.78369,65.2033159 298.961117,61.0127168 295.317619,58.2796817 C291.672475,55.5010411 285.9792,54.1118031 278.23615,54.1118031 Z M360.98949,138.084308 C354.430206,138.084308 348.667783,136.581139 343.70222,133.5748 C338.782757,130.568461 334.933458,126.377698 332.15597,121.002838 C329.422934,115.627814 328.056417,109.410159 328.056417,102.349873 C328.056417,95.2894229 329.422934,89.071768 332.15597,83.6969086 C334.933458,78.2762791 338.782757,74.0629597 343.70222,71.056621 C348.667783,68.0046769 354.430206,66.4787871 360.98949,66.4787871 L362.49266,66.4787871 C368.459238,66.4787871 373.698104,67.9590714 378.207612,70.9199693 C382.761573,73.835097 386.314519,78.0713015 388.866449,83.6285827 C391.416733,89.1400938 392.692698,95.7905891 392.692698,103.579739 L392.692698,107.747618 L342.199051,107.747618 C343.018961,113.35034 345.114837,117.768637 348.485031,121.002838 C351.901325,124.19127 356.343331,125.78565 361.809401,125.78565 L363.175919,125.78565 C366.455561,125.78565 369.598551,125.125112 372.60489,123.804199 C375.611228,122.437682 378.138463,120.615604 380.188239,118.338129 L388.593145,127.220493 C385.494608,130.545576 381.668359,133.187565 377.114398,135.146295 C372.60489,137.104861 367.72988,138.084308 362.49266,138.084308 L360.98949,138.084308 Z M360.579535,78.7774453 C355.704525,78.7774453 351.628022,80.3943814 348.34838,83.6285827 C345.114837,86.817014 343.065061,91.1898702 342.199051,96.7471514 L378.958373,96.7471514 C378.548418,91.6910364 376.885547,87.4319469 373.971407,83.9702121 C371.10172,80.5083127 367.09272,78.7774453 361.946053,78.7774453 L360.579535,78.7774453 Z M427.265593,137.811005 C420.067503,137.811005 414.464781,135.966206 410.457427,132.276608 C406.494526,128.541405 404.512252,123.644663 404.512252,117.586544 C404.512252,111.573867 406.74478,106.540473 411.208188,102.486525 C415.717696,98.4324133 422.892737,96.405522 432.731663,96.405522 L451.316302,96.405522 L451.316302,96.2005444 C451.316302,84.7217968 446.031337,78.9824229 435.464698,78.9824229 C431.045743,78.9824229 427.310046,79.7794484 424.259254,81.3738287 C421.252916,82.9680443 418.814587,85.2000779 416.947562,88.0697648 L407.58774,80.4855923 C410.50188,75.9760843 414.328129,72.5141849 419.066487,70.1000587 C423.849299,67.6857679 429.26927,66.4787871 435.328047,66.4787871 L436.831216,66.4787871 C445.211426,66.4787871 451.953462,68.8929133 457.055676,73.7213303 C462.156244,78.5495826 464.708174,85.7694054 464.708174,95.3806339 L464.708174,136.444487 L451.589606,136.444487 L451.589606,125.307369 C448.947123,129.315711 445.553879,132.41326 441.408227,134.599688 C437.262574,136.740511 432.548912,137.811005 427.265593,137.811005 Z M430.271932,125.648998 C435.555251,125.648998 439.951157,124.464573 443.458003,122.096052 C446.964849,119.681762 449.584282,116.425005 451.316302,112.325452 L451.316302,107.132685 L433.27827,107.132685 C427.902752,107.132685 424.053453,107.998036 421.730373,109.729068 C419.453393,111.41433 418.31408,113.71469 418.31408,116.629982 C418.31408,122.642659 422.30003,125.648998 430.271932,125.648998 Z M513.468156,138.084308 C506.908871,138.084308 501.101995,136.649465 496.04588,133.779778 C490.989765,130.910091 487.026864,126.810538 484.157177,121.48112 C481.331943,116.106096 479.920972,109.729068 479.920972,102.349873 C479.920972,94.9250731 481.331943,88.548046 484.157177,83.2186274 C486.980764,77.8436034 490.897566,73.7213303 495.909228,70.8516434 C500.965343,67.936351 506.818319,66.4787871 513.468156,66.4787871 L514.971325,66.4787871 C520.256291,66.4787871 525.243257,67.8453047 529.935516,70.5783399 C534.672228,73.2657695 538.498477,76.9780874 541.414263,81.7154581 L530.822929,89.094653 C528.865351,85.9971034 526.519222,83.5829772 523.786187,81.8521099 C521.053151,80.075637 517.954614,79.1874006 514.493867,79.1874006 L513.12735,79.1874006 C507.205225,79.1874006 502.536015,81.2826178 499.119721,85.4733814 C495.749527,89.618375 494.063606,95.221097 494.063606,102.281548 C494.063606,109.296228 495.749527,114.89895 499.119721,119.089714 C502.536015,123.280313 507.205225,125.375695 513.12735,125.375695 L514.493867,125.375695 C517.954614,125.375695 521.143704,124.601225 524.05949,123.052615 C526.97363,121.50384 529.479461,119.431343 531.575337,116.83496 L541.414263,125.170717 C538.361825,129.179059 534.512526,132.344934 529.866367,134.668014 C525.266306,136.945489 520.300744,138.084308 514.971325,138.084308 L513.468156,138.084308 Z M587.154735,137.332723 C579.046182,137.332723 572.875449,135.282947 568.639245,131.183394 C564.40304,127.083842 562.284115,120.774976 562.284115,112.257126 L562.284115,80.0073111 L548.892243,80.0073111 L548.892243,68.1186082 L562.284115,68.1186082 L562.284115,47.7573317 L575.949291,47.7573317 L575.949291,68.1186082 L598.975935,68.1186082 L598.975935,80.0073111 L575.949291,80.0073111 L575.949291,110.412327 C575.949291,115.787187 577.065554,119.522389 579.298082,121.617771 C581.528963,123.712988 584.831655,124.760762 589.204511,124.760762 C591.300387,124.760762 593.167412,124.669551 594.807233,124.487458 C596.493154,124.305201 598.223527,124.077503 600,123.804199 L600,135.761228 C598.177428,136.216624 596.127651,136.581139 593.850671,136.854442 C591.57369,137.173187 589.341163,137.332723 587.154735,137.332723 Z" id="Shape" fill="#F6F7F9"></path>
            <g transform="translate(0, 0.0009)" fill="#58C4DC">
                <path d="M100.331696,71.2413046 C96.5513816,71.2413046 92.8560217,72.3638247 89.7128667,74.46678 C86.569547,76.5698999 84.1198584,79.5591159 82.6731608,83.0564131 C81.2264632,86.5537102 80.8479543,90.4021859 81.5853799,94.1148331 C82.3229701,97.8276449 84.143402,101.238012 86.8163433,103.91474 C89.4894493,106.591468 92.8952062,108.414205 96.6029141,109.152783 C100.310622,109.891361 104.153665,109.512193 107.646187,108.063685 C111.13871,106.615011 114.12381,104.161865 116.224131,101.014265 C118.324287,97.8668293 119.445326,94.1663656 119.445326,90.3809473 C119.445326,85.3047461 117.431606,80.4364861 113.847049,76.8471548 C110.262657,73.2576589 105.400982,71.2413046 100.331696,71.2413046 Z" id="Path"></path>
                <path d="M200.664051,90.380618 C200.664051,75.2745071 186.68935,62.025543 164.440304,53.3063376 C164.73781,51.342833 165.006174,49.400567 165.197157,47.4935341 C167.391817,25.7878018 162.167933,10.1216657 150.494416,3.37315978 C137.433471,-4.17637401 118.985484,1.3032314 100.332025,16.246381 C81.6785665,1.3032314 63.2304146,-4.17637401 50.1694701,3.37315978 C38.4961172,10.1216657 33.2717394,25.7878018 35.4662349,47.4935341 C35.6573828,49.400567 35.9193261,51.3499125 36.2237467,53.3206614 C34.3690695,54.0294395 32.5496254,54.7808595 30.8011415,55.5676772 C10.9371951,64.5066779 0,76.8835404 0,90.380618 C0,105.486729 13.9741404,118.735693 36.2237467,127.454898 C35.9193261,129.418403 35.6573828,131.360834 35.4662349,133.267702 C33.2717394,154.973434 38.4961172,170.639323 50.1694701,177.387945 C54.1830804,179.666571 58.7307851,180.830581 63.3436874,180.763078 C74.4012842,180.763078 87.3135582,174.934799 100.332025,164.51469 C113.343413,174.934799 126.262767,180.763078 137.334358,180.763078 C141.94726,180.830581 146.4948,179.664925 150.508575,177.387945 C162.182093,170.639323 167.406635,154.973434 165.211975,133.267702 C165.020992,131.360834 164.750981,129.418403 164.454463,127.454898 C186.704168,118.749852 200.678868,105.479649 200.678868,90.380618 L200.664051,90.380618 Z M137.249568,9.56873644 C140.21557,9.49710128 143.147326,10.216367 145.744368,11.6529062 C153.849957,16.3385798 157.488681,29.048675 155.718794,46.5224834 C155.598441,47.7133294 155.457015,48.9184991 155.287106,50.1305837 C146.035453,47.3407475 136.562028,45.3509004 126.970721,44.1831041 C121.156436,36.4440047 114.690832,29.2177609 107.644705,22.5837297 C118.709382,14.0204391 129.094421,9.56873644 137.242488,9.56873644 L137.249568,9.56873644 Z M133.440935,109.520261 C129.860659,115.74302 125.961968,121.776442 121.760503,127.596654 C114.638806,128.32914 107.484016,128.69349 100.324946,128.688278 C93.1681804,128.693326 86.0158604,128.328976 78.8964685,127.596654 C74.7061987,121.776277 70.8193617,115.74269 67.2514337,109.520261 C63.6713223,103.314789 60.4175287,96.9262372 57.5035535,90.380618 C60.4175287,83.8349988 63.6713223,77.4464468 67.2514337,71.2409753 C70.813764,65.0434065 74.6885822,59.0315523 78.8610707,53.2284626 C85.9934693,52.4777011 93.1604423,52.1038022 100.332025,52.10837 C107.488791,52.1041314 114.641111,52.4684812 121.760503,53.2001444 C125.947315,59.0121247 129.836292,65.033528 133.412617,71.2409753 C136.989929,77.4479286 140.243723,83.8363159 143.160497,90.380618 C140.243723,96.9249201 136.989929,103.313307 133.412617,109.520261 L133.440935,109.520261 Z M148.030898,102.431492 C150.277749,108.566333 152.122218,114.841447 153.552616,121.216663 C147.345005,123.154649 141.016711,124.68202 134.609061,125.789064 C137.044261,122.112309 139.403891,118.286718 141.688116,114.312292 C143.946327,110.385118 146.062948,106.422546 148.059216,102.45981 L148.030898,102.431492 Z M100.339105,152.003152 C95.5502017,147.577611 91.0571578,142.841557 86.8887852,137.825779 C91.2919354,138.095131 95.7872843,138.251046 100.339105,138.251046 C104.890926,138.251046 109.414428,138.095131 113.824822,137.825779 C109.643114,142.841063 105.13838,147.576952 100.339105,152.003152 Z M66.0620695,125.77474 C59.6522789,124.6728 53.3216804,123.150203 47.1114343,121.216663 C48.53607,114.85149 50.3734599,108.585925 52.6119145,102.45981 C54.5798644,106.422546 56.6894054,110.385118 58.9830146,114.312292 C61.2766238,118.239466 63.648108,122.110004 66.0620695,125.789064 L66.0620695,125.77474 Z M52.6119145,78.2943463 C50.3815273,72.190952 48.548912,65.9492594 47.1255934,59.6082886 C53.3205279,57.6727729 59.6341684,56.1406268 66.0266718,55.0218934 C63.6056307,58.6867948 61.2341465,62.4863722 58.9476168,66.4489439 C56.6610872,70.4115156 54.5727849,74.3245304 52.5765168,78.2943463 L52.6119145,78.2943463 Z M100.296628,28.7510046 C105.097714,33.1752288 109.602612,37.911447 113.782345,42.9283775 C109.37903,42.6590254 104.883846,42.5031107 100.296628,42.5031107 C95.7471119,42.5031107 91.2636172,42.6448663 86.8463079,42.9283775 C91.0146805,37.9125995 95.5077244,33.1765459 100.296628,28.7510046 Z M141.673957,66.4489439 C139.380347,62.4697435 137.008863,58.6418479 134.559504,54.9650924 C140.984112,56.0721363 147.32887,57.6019774 153.552616,59.5445727 C152.124688,65.9089225 150.287298,72.1743232 148.052136,78.3014258 C146.084186,74.3386895 143.967566,70.3761178 141.681036,66.4560234 L141.673957,66.4489439 Z M44.9734105,46.5295629 C43.1824493,29.0628341 46.8424114,16.3456593 54.9409214,11.6599858 C57.5387866,10.2256856 60.4700491,9.50656812 63.4357215,9.57583245 C71.5837884,9.57583245 81.968828,14.0275186 93.0335044,22.5908093 C85.9827676,29.2296151 79.5123892,36.4604687 73.6933293,44.2045074 C64.1048212,45.3777368 54.6322202,47.3601751 45.3769448,50.1305837 C45.2141152,48.9184991 45.0654447,47.7204089 44.9521719,46.5295629 L44.9734105,46.5295629 Z M9.55678182,90.380618 C9.55678182,81.009271 18.7596521,71.5032479 34.7228823,64.2939621 C35.8131328,63.8214434 36.924622,63.34876 38.0571852,62.8762413 C40.2839503,72.2833154 43.3034602,81.4844239 47.0831161,90.380618 C43.296216,99.294264 40.2744011,108.514636 38.0501056,117.941796 C20.0125676,110.533953 9.55678182,100.269431 9.55678182,90.380618 Z M54.9409214,169.10158 C46.8424114,164.415906 43.1824493,151.698402 44.9734105,134.231673 C45.0866833,133.040827 45.2353538,131.842737 45.3981835,130.623573 C54.6500014,133.41275 64.1234256,135.402433 73.714568,136.571052 C79.5306643,144.313115 85.9961035,151.543804 93.0405839,158.184586 C77.6152348,170.115766 63.5206761,174.049032 54.9621601,169.10158 L54.9409214,169.10158 Z M155.711714,134.231673 C157.481601,151.705481 153.842878,164.415906 145.737288,169.10158 C137.185852,174.063849 123.084214,170.115766 107.665944,158.184586 C114.707955,151.54364 121.171089,144.312786 126.98488,136.571052 C136.576187,135.403256 146.049612,133.413409 155.301265,130.623573 C155.47101,131.842737 155.6126,133.040827 155.732953,134.231673 L155.711714,134.231673 Z M162.656422,117.927637 C160.425871,108.50591 157.401751,99.2906419 153.616332,90.380618 C157.400104,81.4658196 160.421919,72.2457773 162.649343,62.8194403 C180.651977,70.2272827 191.136295,80.4918053 191.136295,90.380618 C191.136295,100.269431 180.679966,110.533953 162.642263,117.941796" id="Shape"></path>
            </g>
            <path d="M100.334001,110.494483 C110.855528,110.494483 119.384902,101.680938 119.384902,90.808727 C119.384902,79.9365156 110.855528,71.1229712 100.334001,71.1229712 C89.8126389,71.1229712 81.2832643,79.9365156 81.2832643,90.808727 C81.2832643,101.680938 89.8126389,110.494483 100.334001,110.494483 Z" id="Path" fill="#58C4DC"></path>
            <path d="M200.66899,90.1760129 C200.66899,75.1235749 186.692643,61.9078682 164.452323,53.2367379 C168.047087,29.6442236 163.568532,10.9419817 150.501166,3.41577915 C138.831435,-3.31130369 122.670472,-0.0193332173 104.992509,12.6952896 C103.427764,13.8164926 101.875038,15.0093143 100.322147,16.2497171 C98.7812749,15.0093143 97.2285487,13.8164926 95.6758225,12.6952896 C77.9978597,-0.0193332173 61.836896,-3.32323026 50.1670005,3.41577915 C37.1116538,10.9419817 32.6324397,29.6322048 36.2397168,53.2008462 C13.9751118,61.8839953 0,75.1115561 0,90.1760129 C0,105.228451 13.9751118,118.443993 36.2158439,127.115288 C32.6205856,150.707638 37.0997997,169.410324 50.1670005,176.936049 C54.1206816,179.214676 58.5998957,180.347404 63.4732596,180.347404 C72.9692396,180.347404 83.9939083,176.053575 95.6758225,167.656901 C97.2404028,166.535698 98.7932936,165.342053 100.34602,164.102309 C101.886892,165.342053 103.439618,166.535698 104.992509,167.656901 C116.674258,176.0651 127.699092,180.347404 137.194907,180.347404 C142.068271,180.347404 146.547485,179.214676 150.501166,176.936049 C162.171062,170.208831 167.390171,154.584102 165.205389,132.93583 C165.014406,131.02748 164.762506,129.095257 164.452323,127.127142 C186.705815,118.455847 200.66899,105.240305 200.66899,90.1760129 Z M110.582554,20.4362001 C120.520429,13.2916181 129.765497,9.57032735 137.194907,9.57032735 C140.408034,9.57032735 143.274758,10.2621145 145.723294,11.6695782 C154.275718,16.6074813 157.930741,30.7654265 155.314766,50.0639475 C146.71476,47.4280504 137.194907,45.4123546 126.958538,44.1240414 C120.830941,36.0731125 114.333068,28.8093307 107.679939,22.6069873 C108.647532,21.8675861 109.61496,21.1280202 110.582554,20.4362001 Z M54.9448728,11.6695782 C57.3935735,10.2621145 60.2601323,9.57032735 63.4732596,9.57032735 C70.9028346,9.57032735 80.1479022,13.279764 90.0857778,20.4362001 C91.0532064,21.1280202 92.020635,21.8555673 92.9882282,22.6069873 C86.3350986,28.8093307 79.849244,36.0610938 73.7216475,44.1121872 C63.4971325,45.4003359 53.9654255,47.4280504 45.36542,50.0520934 C42.7494443,30.7654265 46.3926131,16.6074813 54.9448728,11.6695782 Z M9.55562934,90.1760129 C9.55562934,80.3118964 20.0189886,70.0663074 38.0672283,62.6831611 C40.0858876,71.4260747 43.0958483,80.6698252 47.0734023,90.15214 C43.0719754,99.646309 40.0620147,108.902078 38.0433554,117.656846 C20.0189886,110.2737 9.55562934,100.039965 9.55562934,90.1760129 Z M90.0857778,159.915497 C75.8478171,170.149561 63.0432182,173.345236 54.9448728,168.682612 C46.3926131,163.745039 42.7375902,149.586599 45.3534012,130.287914 C53.9534067,132.923976 63.4732596,134.939671 73.7097934,136.22782 C79.8372253,144.278749 86.3350986,151.542695 92.9882282,157.744874 C92.020635,158.496294 91.0532064,159.223841 90.0857778,159.915497 Z M100.334166,151.530676 C88.3896496,140.605121 76.910902,126.005939 67.2237741,109.259842 C64.631836,104.787049 59.3914881,93.5442318 57.2653184,89.1908032 C55.5691902,93.2460675 53.8938068,96.9662882 52.5798096,100.926061 C53.6549132,102.918048 57.7995774,112.026958 58.9462997,114.018946 C61.2157067,117.942992 63.5927887,121.759856 66.0413248,125.457356 C59.1731745,124.252681 52.8187032,122.702095 47.0375106,120.877218 C50.3222567,106.063344 56.8798946,88.9831913 67.2237741,71.0920188 C69.7679664,66.6908443 75.2956123,56.8637719 78.0668441,52.7846346 C73.6951404,53.3452361 70.1843427,53.1596861 66.0754054,54.006433 C64.8809374,55.938656 60.093022,64.3410927 58.9462997,66.3330801 C56.6528551,70.2928529 54.550723,74.2527904 52.5798096,78.1888549 C50.1908734,71.6407661 48.363362,65.3669687 47.0615482,59.4509354 C61.5502566,54.8826507 79.6462421,52.0081892 100.334166,52.0081892 C105.506023,52.0081892 116.307439,51.9034777 121.133057,52.2493878 C118.4695,48.7545603 116.185111,45.5911544 113.402025,42.4662744 C111.144472,42.3946558 102.639464,42.4662744 100.334166,42.4662744 C95.7713141,42.4662744 91.3041188,42.6212013 86.9203962,42.8836385 C91.2682271,37.7190253 95.7713141,32.9958137 100.334166,28.8211849 C112.266663,39.7467398 123.757429,54.3459221 133.444393,71.0920188 C135.988585,75.4933578 141.485772,85.7389468 143.647669,90.1760129 C145.355816,86.1205839 146.971599,82.4220959 148.297451,78.4382855 C147.222347,76.4344439 142.868589,68.3010301 141.721867,66.3210614 C139.45246,62.3970156 137.075543,58.5801509 134.626842,54.8946695 C141.494992,56.0991806 147.849464,57.6497665 153.630656,59.4748083 C150.34591,74.288682 143.788272,91.36867 133.444393,109.259842 C130.9002,113.661017 123.659468,123.739825 120.888401,127.818962 C125.260105,127.258361 129.994512,126.42034 134.103449,125.573593 C135.297917,123.641205 140.575309,116.010769 141.721867,114.018946 C144.003293,110.082881 146.10559,106.146817 148.052465,102.222606 C150.369783,108.591895 152.209313,114.853839 153.547019,120.912945 C139.070329,125.481229 120.998216,128.343837 100.334166,128.343837 C95.1621436,128.343837 83.1371182,127.664365 78.3115002,127.318455 C80.9752216,130.813117 83.8440853,134.451676 86.6270066,137.576721 C88.8845594,137.648175 98.028867,137.885751 100.334166,137.885751 C104.897017,137.885751 109.364213,137.73066 113.74777,137.468223 C109.388086,142.632836 104.897017,147.356048 100.334166,151.530676 Z M145.723294,168.682612 C137.624949,173.358407 124.808495,170.161086 110.582554,159.915497 C109.61496,159.223841 108.647532,158.496294 107.679939,157.744874 C114.333068,151.542695 120.818923,144.290767 126.946519,136.239674 C137.15918,134.951525 146.667014,132.93583 155.255166,130.311787 C155.422276,131.516462 155.589551,132.721138 155.708915,133.901941 C157.464808,151.339858 153.821804,164.006817 145.723294,168.682612 Z M162.624811,117.6687 C160.570425,108.794733 157.524573,99.5509821 153.594764,90.21174 C157.596191,80.717571 160.606317,71.4618017 162.624811,62.707034 C180.648684,70.0901803 191.113245,80.3118964 191.113245,90.1760129 C191.113245,100.039965 180.661856,110.2737 162.624811,117.6687 Z" id="Shape" fill="#58C4DC"></path>
        </g>
    </g>
</svg>