<?xml version="1.0" encoding="UTF-8"?>
<svg width="600px" height="180.322004px" viewBox="0 0 600 180.322004" version="1.1" xmlns="http://www.w3.org/2000/svg" xmlns:xlink="http://www.w3.org/1999/xlink">
    <title>Group</title>
    <g id="Page-1" stroke="none" stroke-width="1" fill="none" fill-rule="evenodd">
        <g id="Group" fill-rule="nonzero">
            <path d="M238.282648,135.760088 L238.282648,40.7871199 L279.255074,40.7871199 C291.247326,40.7871199 300.229977,43.4780705 306.204676,48.8599717 C312.177727,54.1964299 315.164252,61.4099495 315.164252,70.5002036 C315.164252,77.3743712 313.455076,83.2084149 310.035076,88.0023348 C306.615076,92.7960912 301.461177,96.2106986 294.576675,98.2458301 C298.725177,104.079874 302.784676,110.139989 306.751876,116.426338 C310.719076,122.712525 314.526402,129.157108 318.173853,135.760088 L301.416676,135.760088 C298.087326,129.338063 294.576675,123.074435 290.883075,116.96904 C287.233976,110.863646 283.654101,105.278231 280.14345,100.213124 C279.86985,100.213124 279.573175,100.213124 279.255074,100.213124 L252.646648,100.213124 L252.646648,135.760088 L238.282648,135.760088 Z M277.887074,54.0156383 L252.646648,54.0156383 L252.646648,87.2561199 L277.887074,87.2561199 C285.638525,87.2561199 291.337976,85.8993655 294.987075,83.1858568 C298.634526,80.4270685 300.459076,76.2436881 300.459076,70.6358791 C300.459076,65.0279066 298.634526,60.8672477 294.987075,58.153739 C291.337976,55.3949507 285.638525,54.0156383 277.887074,54.0156383 Z M360.730192,137.388193 C354.163792,137.388193 348.395117,135.895763 343.424167,132.910904 C338.499367,129.926044 334.645892,125.765222 331.865391,120.428764 C329.129391,115.092142 327.76139,108.91891 327.76139,101.909067 C327.76139,94.8990604 329.129391,88.7258281 331.865391,83.38937 C334.645892,78.0074687 338.499367,73.8242518 343.424167,70.8393922 C348.395117,67.809253 354.163792,66.2942651 360.730192,66.2942651 L362.234993,66.2942651 C368.208044,66.2942651 373.452593,67.7639734 377.966994,70.7037168 C382.525895,73.5980171 386.082695,77.8039556 388.637394,83.3215323 C391.190445,88.7936658 392.467794,95.396646 392.467794,103.130146 L392.467794,107.268247 L341.919367,107.268247 C342.740167,112.830939 344.838317,117.21767 348.212168,120.428764 C351.632168,123.594415 356.078992,125.177404 361.550993,125.177404 L362.918993,125.177404 C366.202193,125.177404 369.348593,124.521585 372.358193,123.21011 C375.367793,121.853356 377.897769,120.044296 379.94977,117.783093 L388.363794,126.601996 C385.261895,129.903323 381.431495,132.526436 376.872593,134.471171 C372.358193,136.415744 367.477894,137.388193 362.234993,137.388193 L360.730192,137.388193 Z M360.319792,78.5050543 C355.439493,78.5050543 351.358568,80.110438 348.075368,83.3215323 C344.838317,86.4871834 342.786317,90.8287974 341.919367,96.346374 L378.718569,96.346374 C378.308169,91.3263829 376.643495,87.0977229 373.726193,83.6607209 C370.853393,80.2235553 366.840043,78.5050543 361.687793,78.5050543 L360.319792,78.5050543 Z M427.078197,137.116842 C419.872297,137.116842 414.263497,135.285224 410.251796,131.621987 C406.284595,127.913471 404.300171,123.051713 404.300171,117.036878 C404.300171,111.067159 406.535121,106.069726 411.003371,102.044742 C415.517772,98.0195954 422.700596,96.0071855 432.550197,96.0071855 L451.154998,96.0071855 L451.154998,95.8036723 C451.154998,84.4069357 445.864299,78.7085675 435.286197,78.7085675 C430.862447,78.7085675 427.122698,79.4998985 424.068596,81.0828876 C421.058996,82.6657132 418.618023,84.8817998 416.748972,87.7309839 L407.378995,80.2009973 C410.296297,75.7237079 414.126697,72.2865424 418.870196,69.8896642 C423.658196,67.4926225 429.084047,66.2942651 435.149397,66.2942651 L436.654197,66.2942651 C445.043499,66.2942651 451.792849,68.6911433 456.900598,73.4850632 C462.0067,78.2788196 464.561399,85.4470596 464.561399,94.9896197 L464.561399,135.760088 L451.428598,135.760088 L451.428598,124.70254 C448.783249,128.682244 445.386323,131.757663 441.236173,133.92847 C437.086024,136.053997 432.367247,137.116842 427.078197,137.116842 Z M430.087797,125.041729 C435.376848,125.041729 439.777523,123.865766 443.288173,121.514167 C446.798824,119.117126 449.421099,115.883637 451.154998,111.813374 L451.154998,106.657707 L433.097397,106.657707 C427.716047,106.657707 423.862572,107.516876 421.536972,109.23554 C419.257521,110.908762 418.116972,113.192686 418.116972,116.08715 C418.116972,122.056869 422.107247,125.041729 430.087797,125.041729 Z M513.374279,137.388193 C506.807879,137.388193 500.994702,135.963601 495.933102,133.114417 C490.871502,130.265233 486.904301,126.19497 484.031501,120.903628 C481.203202,115.567006 479.790701,109.23554 479.790701,101.909067 C479.790701,94.5373138 481.203202,88.2058479 484.031501,82.914506 C486.858152,77.5778844 490.779203,73.4850632 495.796302,70.6358791 C500.857902,67.7414153 506.717228,66.2942651 513.374279,66.2942651 L514.879079,66.2942651 C520.169778,66.2942651 525.162154,67.6510195 529.859504,70.3645282 C534.601355,73.0327573 538.431755,76.7185521 541.350705,81.4220762 L530.74788,88.7485497 C528.788179,85.6731308 526.439504,83.2762526 523.703504,81.5577516 C520.967504,79.7939709 517.865605,78.9120806 514.401103,78.9120806 L513.033103,78.9120806 C507.104553,78.9120806 502.430278,80.9923283 499.010278,85.1531506 C495.636427,89.2685299 493.948678,94.8312227 493.948678,101.841229 C493.948678,108.805793 495.636427,114.368485 499.010278,118.529308 C502.430278,122.689967 507.104553,124.770378 513.033103,124.770378 L514.401103,124.770378 C517.865605,124.770378 521.058154,124.001441 523.977104,122.463895 C526.894405,120.926186 529.402955,118.868496 531.501104,116.290663 L541.350705,124.566865 C538.294955,128.546568 534.44148,131.689825 529.79028,133.996307 C525.185229,136.25751 520.214279,137.388193 514.879079,137.388193 L513.374279,137.388193 Z M587.140799,136.641978 C579.023449,136.641978 572.846022,134.606847 568.605222,130.536584 C564.364422,126.466321 562.243198,120.202529 562.243198,111.745536 L562.243198,79.7261332 L548.836797,79.7261332 L548.836797,67.9223704 L562.243198,67.9223704 L562.243198,47.7065671 L575.923199,47.7065671 L575.923199,67.9223704 L598.974824,67.9223704 L598.974824,79.7261332 L575.923199,79.7261332 L575.923199,109.913918 C575.923199,115.250376 577.040673,118.958892 579.275623,121.039303 C581.508924,123.119551 584.815199,124.159838 589.192799,124.159838 C591.290949,124.159838 593.16,124.069279 594.8016,123.888487 C596.489349,123.707532 598.2216,123.481461 600,123.21011 L600,135.081711 C598.17545,135.533853 596.12345,135.895763 593.844,136.167114 C591.564549,136.483581 589.329599,136.641978 587.140799,136.641978 Z" id="Shape" fill="#23272F"></path>
            <path d="M99.8210256,110.554562 C110.491336,110.554562 119.141324,101.6644 119.141324,90.6976744 C119.141324,79.7309491 110.491336,70.8407871 99.8210256,70.8407871 C89.1508821,70.8407871 80.5008945,79.7309491 80.5008945,90.6976744 C80.5008945,101.6644 89.1508821,110.554562 99.8210256,110.554562 Z" id="Path" fill="#087EA4"></path>
            <path d="M200.715564,90.1633095 C200.715564,75.1129909 186.735973,61.8991451 164.490491,53.2292358 C168.08609,29.6400435 163.606495,10.9404515 150.536096,3.41529223 C138.863657,-3.3108368 122.698942,-0.0193199813 105.016877,12.6934961 C103.451769,13.8145412 101.898682,15.0071949 100.345431,16.247423 C98.8042012,15.0071949 97.2511146,13.8145412 95.6980281,12.6934961 C78.0159623,-0.0193199813 61.8512478,-3.32276333 50.1786439,3.41529223 C37.1202671,10.9404515 32.6400134,29.6280264 36.2481278,53.1933492 C13.9783553,61.8752756 0,75.1009739 0,90.1633095 C0,105.213628 13.9783553,118.427309 36.2242493,127.097383 C32.6281565,150.686411 37.1084102,169.386464 50.1786439,176.911129 C54.1332426,179.189435 58.6134963,180.322004 63.4879912,180.322004 C72.9861752,180.322004 84.0134026,176.028779 95.6980281,167.633288 C97.2629715,166.512242 98.8162227,165.318766 100.369309,164.079196 C101.910539,165.318766 103.463625,166.512242 105.016877,167.633288 C116.701338,176.040303 127.72873,180.322004 137.226749,180.322004 C142.101244,180.322004 146.581498,179.189435 150.536096,176.911129 C162.2087,170.184859 167.429021,154.56233 165.243732,132.917105 C165.052705,131.009024 164.800746,129.077073 164.490491,127.109236 C186.749147,118.439162 200.715564,105.22548 200.715564,90.1633095 Z M110.608219,20.4333166 C120.548401,13.2897406 129.795614,9.56897382 137.226749,9.56897382 C140.440622,9.56897382 143.308011,10.26068 145.757115,11.6679291 C154.311524,16.6051368 157.967396,30.7610886 155.350813,50.0568922 C146.748811,47.4213662 137.226749,45.4059543 126.988004,44.1178224 C120.858985,36.0680272 114.359604,28.8052682 107.70493,22.6037981 C108.672748,21.864501 109.640401,21.1250392 110.608219,20.4333166 Z M54.9576251,11.6679291 C57.4068941,10.26068 60.2741181,9.56897382 63.4879912,9.56897382 C70.9192905,9.56897382 80.1665039,13.2778882 90.1066859,20.4333166 C91.0743391,21.1250392 92.0419922,21.8524839 93.00981,22.6037981 C86.3551363,28.8052682 79.8677764,36.0561747 73.7387577,44.1059699 C63.5118697,45.3939372 53.9779504,47.4213662 45.3759489,50.0450397 C42.7593661,30.7610886 46.4033805,16.6051368 54.9576251,11.6679291 Z M9.55784712,90.1633095 C9.55784712,80.3005819 20.0236348,70.0564355 38.0760634,62.6743289 C40.0951911,71.4160114 43.1058505,80.6584603 47.0843276,90.13944 C43.0819721,99.6322721 40.0713127,108.886738 38.0521849,117.640273 C20.0236348,110.258166 9.55784712,100.025872 9.55784712,90.1633095 Z M90.1066859,159.892973 C75.8654208,170.125596 63.05785,173.320822 54.9576251,168.658854 C46.4033805,163.721976 42.7475092,149.56553 45.3639273,130.269562 C53.9659288,132.905253 63.4879912,134.920665 73.7269008,136.208632 C79.8557548,144.258427 86.3551363,151.521351 93.00981,157.722656 C92.0419922,158.47397 91.0743391,159.201415 90.1066859,159.892973 Z M100.357452,151.509334 C88.4101641,140.585317 76.9287523,125.988191 67.2393762,109.244452 C64.6468365,104.772289 59.4052723,93.5310541 57.2786092,89.1782384 C55.5820874,93.2329318 53.9063151,96.9526286 52.5920129,100.911844 C53.667366,102.903551 57.8129922,112.011178 58.9599806,114.002885 C61.2299144,117.926378 63.6075481,121.742705 66.0566524,125.439685 C59.1869081,124.235179 52.830962,122.684811 47.0484276,120.860191 C50.333936,106.048403 56.893096,88.9706558 67.2393762,71.0820025 C69.784159,66.6814478 75.3130878,56.8557591 78.0849628,52.7771962 C73.7122444,53.3377187 70.2006319,53.1521948 66.090741,53.9988226 C64.8959957,55.9307734 60.1069691,64.332027 58.9599806,66.323734 C56.6660038,70.2829492 54.5633838,74.242329 52.5920129,78.1778393 C50.2025223,71.6306726 48.3745867,65.3577585 47.0724708,59.4425583 C61.5645419,54.8749168 79.6647273,52.0008601 100.357452,52.0008601 C105.53051,52.0008601 116.334433,51.8961634 121.161171,52.2420247 C118.496996,48.7476893 116.212077,45.5847288 113.428345,42.4602889 C111.170268,42.3886803 102.663286,42.4602889 100.357452,42.4602889 C95.7935418,42.4602889 91.3253097,42.615194 86.9405697,42.8775942 C91.2894097,37.7137082 95.7935418,32.9911617 100.357452,28.8171207 C112.292719,39.7411372 123.786152,54.3382638 133.475364,71.0820025 C136.020147,75.4827218 141.51861,85.7268682 143.681008,90.1633095 C145.389387,86.1084515 147.00571,82.4104842 148.331869,78.4272348 C147.256516,76.42384 142.901748,68.2914068 141.754759,66.3117169 C139.484826,62.3882237 137.107357,58.5718964 134.658088,54.8869339 C141.527832,56.0914401 147.883778,57.641643 153.666312,59.4664278 C150.380804,74.2782157 143.821644,91.3557986 133.475364,109.244452 C130.930581,113.645007 123.688169,123.722395 120.916458,127.800958 C125.289177,127.240436 130.024683,126.402533 134.134573,125.555905 C135.329319,123.623954 140.607936,115.994427 141.754759,114.002885 C144.036715,110.067375 146.139499,106.131864 148.086827,102.208207 C150.404683,108.576599 152.24464,114.83766 153.582656,120.895913 C139.102441,125.463555 121.026299,128.325759 100.357452,128.325759 C95.18423,128.325759 83.1564137,127.646383 78.3296756,127.300521 C80.9940152,130.794692 83.8635448,134.432738 86.647112,137.557343 C88.9051888,137.628787 98.0516187,137.86633 100.357452,137.86633 C104.921198,137.86633 109.389595,137.71126 113.77417,137.44886 C109.413474,142.612746 104.921198,147.335293 100.357452,151.509334 Z M145.757115,168.658854 C137.65689,173.333991 124.837462,170.13712 110.608219,159.892973 C109.640401,159.201415 108.672748,158.47397 107.70493,157.722656 C114.359604,151.521351 120.846964,144.270444 126.975982,136.220484 C137.191014,134.932517 146.701054,132.917105 155.291199,130.293432 C155.458348,131.497938 155.625662,132.702444 155.745054,133.883081 C157.501354,151.318542 153.857505,163.983718 145.757115,168.658854 Z M162.662555,117.652126 C160.607692,108.779407 157.561133,99.5369585 153.630412,90.1990315 C157.632768,80.7061994 160.643592,71.4517334 162.662555,62.6981984 C180.690611,70.0803051 191.157601,80.3005819 191.157601,90.1633095 C191.157601,100.025872 180.703786,110.258166 162.662555,117.652126 Z" id="Shape" fill="#087EA4"></path>
        </g>
    </g>
</svg>